<svg width="498" height="560" viewBox="0 0 498 560" fill="none" xmlns="http://www.w3.org/2000/svg">
<path d="M496.519 467.236C495.116 465.445 492.933 464.412 490.528 464.402L492.258 457.564C492.859 455.203 492.395 452.812 490.981 450.999C489.579 449.197 487.374 448.165 484.948 448.165H462.86C458.735 448.165 454.854 451.189 453.841 455.193L451.499 464.423C447.565 464.655 443.947 467.594 442.976 471.44L442.343 473.937C442.132 473.642 441.921 473.337 441.7 473.052C438.145 468.49 430.983 463.043 417.091 463.043C405.878 463.043 395.804 466.267 387.956 472.367C386.48 473.516 385.098 474.759 383.79 476.097L390.172 450.957C390.773 448.597 390.309 446.205 388.895 444.393C387.492 442.591 385.288 441.558 382.862 441.558H360.774C356.649 441.558 352.767 444.582 351.755 448.586L347.578 465.055C346.639 464.665 345.605 464.444 344.519 464.433L346.249 457.595C346.85 455.235 346.386 452.843 344.972 451.031C343.569 449.229 341.365 448.197 338.939 448.197H316.851C312.726 448.197 308.844 451.221 307.832 455.224L305.49 464.454C301.714 464.676 298.254 467.384 297.104 470.987C297.073 470.945 297.041 470.892 296.999 470.85C294.235 467.299 288.739 463.064 278.286 463.064C273.624 463.064 269.056 463.991 264.953 465.719C263.708 464.886 262.2 464.433 260.597 464.433H239.563C236.895 464.433 234.342 465.698 232.591 467.668C232.496 467.531 232.412 467.394 232.317 467.268C230.914 465.466 228.709 464.433 226.283 464.433H204.195C201.463 464.433 198.847 465.75 197.096 467.805C196.98 467.626 196.853 467.447 196.716 467.268C195.313 465.466 193.109 464.433 190.683 464.433H168.595C164.47 464.433 160.588 467.457 159.576 471.461L157.635 479.132C156.854 477.077 155.8 475.16 154.439 473.421C149.165 466.646 140.104 463.064 128.237 463.064C111.834 463.064 97.8789 470.323 89.8833 482.725L92.1407 473.843C92.7419 471.482 92.2778 469.091 90.8643 467.278C89.4614 465.476 87.2568 464.444 84.8307 464.444H64.0295C62.4895 464.444 60.9916 464.865 59.652 465.603C56.8462 464.159 53.0488 463.074 47.9645 463.074C28.7983 463.074 14.3788 474.801 9.38947 494.452L7.35366 502.46C4.85372 512.322 5.82415 520.678 10.1806 526.662H9.28399C6.76295 526.662 4.28411 527.769 2.48035 529.686C0.708242 531.572 -0.18836 534.027 0.0331533 536.409C1.36224 550.96 13.9991 560 33.0282 560C42.4161 560 51.9623 557.44 59.9263 552.793C69.1349 547.419 75.4533 539.57 77.7106 530.677L78.0376 529.381C78.4912 530.203 79.0081 531.003 79.5988 531.762C83.7864 537.146 91.0648 540.107 100.073 540.107C105.031 540.107 110.231 539.169 114.767 537.504C115.99 538.305 117.467 538.737 119.039 538.737H140.072C144.196 538.737 148.078 535.713 149.091 531.709L150.093 527.779C150.757 529.465 151.622 531.024 152.719 532.415C155.451 535.924 160.894 540.107 171.263 540.107C175.915 540.107 180.451 539.19 184.512 537.473C185.746 538.284 187.244 538.737 188.837 538.737H209.87C212.539 538.737 215.091 537.473 216.842 535.502C216.937 535.639 217.022 535.776 217.117 535.903C218.52 537.705 220.724 538.737 223.15 538.737H245.238C248.076 538.737 250.787 537.315 252.538 535.123C252.696 535.397 252.875 535.65 253.065 535.903C254.468 537.705 256.673 538.737 259.099 538.737H281.187C285.311 538.737 289.193 535.713 290.206 531.709L292.484 522.743C292.938 526.926 294.425 529.855 295.954 531.804C299.541 536.398 305.3 538.737 313.074 538.737H326.903C329.139 538.737 331.291 537.852 332.968 536.398C334.371 537.884 336.365 538.737 338.559 538.737H360.647C364.771 538.737 368.653 535.713 369.666 531.709L371.301 525.282C372.102 527.084 373.041 528.591 373.991 529.813C379.244 536.546 388.421 540.107 400.551 540.107C416.437 540.107 430.898 532.415 438.335 520.267C438.367 525.798 440.139 529.486 441.943 531.804C445.529 536.398 451.288 538.737 459.062 538.737H472.891C477.016 538.737 480.897 535.713 481.91 531.709L486.024 515.483C486.625 513.123 486.161 510.731 484.747 508.919C483.577 507.412 481.847 506.443 479.895 506.158L482.427 496.191H484.842C488.967 496.191 492.848 493.167 493.861 489.163L497.743 473.853C498.344 471.493 497.88 469.101 496.467 467.289L496.519 467.236ZM86.1598 497.497L87.0459 493.988C87.183 494.315 87.3412 494.631 87.5311 494.937C87.742 495.274 87.9847 495.601 88.2378 495.896C87.51 496.401 86.8243 496.928 86.1493 497.497H86.1598ZM336.481 496.138H338.896C339.171 496.138 339.434 496.127 339.698 496.096L336.892 507.17C336.017 506.632 335.015 506.264 333.949 506.105L336.481 496.138V496.138Z" fill="#DA5E56"/>
<path d="M3.76726 526.61H24.8005C25.2014 526.61 25.5494 526.768 25.7288 527.073C26.7203 528.738 29.1675 529.697 32.1632 529.697C36.2348 529.697 39.8424 527.41 40.8023 523.638L41.6989 520.109C41.9731 519.034 40.9288 518.349 39.8635 518.928C36.6568 520.677 31.7835 522.142 27.3427 522.142C10.476 522.142 5.43389 511.279 9.12579 496.749L11.1616 488.741C14.8746 474.106 25.2541 463.011 42.4689 463.011C48.281 463.011 51.9307 464.718 54.1353 467.089C54.8525 467.858 56.4137 467.215 56.709 466.035L56.7829 465.761C56.9728 465.002 57.7639 464.381 58.5339 464.381H79.3351C80.1157 464.381 80.5798 465.002 80.3899 465.761L65.9704 522.595C62.1414 537.694 44.2621 546.271 28.5557 546.271C14.1468 546.271 3.07108 540.254 1.99515 528.411C1.91077 527.516 2.83902 526.599 3.79891 526.599L3.76726 526.61ZM47.4688 497.328L49.7577 488.299C50.9497 483.61 49.1143 481.208 44.4625 481.208C39.8107 481.208 36.8994 483.958 35.7391 488.53L33.5661 497.107C32.5535 501.111 33.8615 504.198 38.6293 504.198C42.7009 504.198 46.3295 501.796 47.4688 497.339V497.328Z" fill="#EDE4DF"/>
<path d="M28.5346 546.808C12.8599 546.808 2.48039 539.78 1.45721 528.475C1.40447 527.937 1.62598 527.358 2.03736 526.894C2.50149 526.388 3.14493 526.093 3.76728 526.093H24.8005C25.3912 526.093 25.9081 526.357 26.1718 526.81C27.0473 528.274 29.3363 529.181 32.1527 529.181C36.1505 529.181 39.4204 526.905 40.2854 523.512L41.182 519.982C41.2558 519.708 41.1926 519.487 41.0238 519.36C40.8445 519.224 40.5175 519.16 40.0955 519.392C36.4353 521.383 31.4143 522.669 27.3216 522.669C19.6952 522.669 14.1362 520.509 10.8135 516.242C7.25876 511.69 6.49928 504.904 8.59839 496.633L10.6342 488.625C14.843 472.02 26.4461 462.495 42.4478 462.495C47.8274 462.495 51.878 463.917 54.4939 466.741C54.6943 466.962 55.0108 466.92 55.1796 466.878C55.5699 466.783 56.0445 466.435 56.1816 465.919L56.2555 465.645C56.5086 464.655 57.5002 463.875 58.5128 463.875H79.314C79.8414 463.875 80.3161 464.096 80.6115 464.476C80.9174 464.865 81.0123 465.382 80.8752 465.908L66.4557 522.743C62.4895 538.379 43.9562 546.808 28.5346 546.808V546.808ZM3.76728 527.136C3.44028 527.136 3.07109 527.316 2.80739 527.6C2.58587 527.842 2.46984 528.127 2.49094 528.38C3.48248 539.264 13.2185 545.765 28.5346 545.765C43.8507 545.765 61.6035 537.61 65.443 522.479L79.8625 465.645C79.9153 465.434 79.8942 465.245 79.7887 465.108C79.6937 464.981 79.525 464.908 79.314 464.908H58.5128C57.9749 464.908 57.3947 465.361 57.2681 465.898L57.1943 466.172C56.9833 466.983 56.2871 467.668 55.4433 467.879C54.7682 468.058 54.1458 467.889 53.7344 467.447C51.3294 464.855 47.5321 463.538 42.4583 463.538C26.9735 463.538 15.7396 472.778 11.6574 488.878L9.62157 496.886C7.60685 504.831 8.30304 511.311 11.6468 515.599C14.7586 519.603 20.0433 521.626 27.3321 521.626C31.2666 521.626 36.0766 520.393 39.5998 518.475C40.317 518.086 41.1082 518.107 41.6672 518.539C42.1735 518.928 42.3634 519.561 42.1946 520.235L41.298 523.765C40.317 527.621 36.6462 530.224 32.1527 530.224C28.9144 530.224 26.3511 529.149 25.2752 527.347C25.2014 527.221 25.022 527.136 24.8005 527.136H3.76728V527.136ZM38.6293 504.715C36.3825 504.715 34.737 504.061 33.7349 502.786C32.6695 501.427 32.4375 499.415 33.0598 496.97L35.2328 488.394C36.5091 483.346 39.7052 480.681 44.4625 480.681C46.9203 480.681 48.6713 481.334 49.6734 482.619C50.7071 483.947 50.9075 485.896 50.2641 488.425L47.9751 497.465C46.857 501.87 43.1862 504.725 38.6293 504.725V504.715ZM44.4625 481.724C40.1799 481.724 37.4163 484.052 36.2454 488.646L34.0725 497.223C33.5345 499.341 33.7033 501.037 34.5577 502.144C35.3488 503.155 36.7095 503.672 38.6293 503.672C42.7537 503.672 45.9498 501.195 46.9625 497.202L49.2514 488.162C49.8105 485.96 49.6734 484.316 48.8506 483.252C48.0595 482.23 46.5827 481.713 44.4625 481.713V481.724Z" fill="#DA5E56"/>
<path d="M78.3014 507.401C81.6346 494.252 93.1533 489.215 107.109 489.215C111.381 489.215 115.537 490.016 118.627 491.544C119.45 491.944 120.653 491.28 120.906 490.279L121.76 486.929C122.488 484.073 121.001 481.671 117.277 481.671C114.376 481.671 112.267 482.577 110.832 484.147C110.484 484.537 109.988 484.758 109.514 484.758H89.4614C88.5648 484.758 88.1007 483.936 88.5121 483.072C94.7672 469.975 107.636 463.021 122.699 463.021C141.19 463.021 150.188 472.968 146.296 488.299L137.33 523.628C137.14 524.386 136.349 525.008 135.578 525.008H114.545C113.765 525.008 113.301 524.386 113.49 523.628C113.775 522.511 112.678 521.879 111.581 522.49C107.33 524.882 101.223 526.378 95.5794 526.378C82.2042 526.378 75.3901 518.834 78.2908 507.391L78.3014 507.401ZM116.887 506.148C117.583 503.397 115.663 501.343 111.592 501.343C107.52 501.343 104.356 502.829 103.512 506.148C102.731 509.235 104.967 510.952 108.691 510.952C112.647 510.952 116.159 509.003 116.887 506.148Z" fill="#EDE4DF"/>
<path d="M95.5794 526.905C88.3855 526.905 82.9426 524.797 79.8309 520.804C77.1305 517.337 76.4238 512.649 77.7845 507.275C79.9364 498.804 86.7716 488.699 107.098 488.699C111.571 488.699 115.737 489.542 118.849 491.08C119.049 491.186 119.334 491.165 119.619 491.038C119.999 490.859 120.294 490.522 120.389 490.164L121.243 486.813C121.57 485.527 121.402 484.368 120.769 483.557C120.073 482.672 118.87 482.198 117.277 482.198C114.651 482.198 112.615 482.978 111.212 484.505C110.769 484.99 110.126 485.285 109.514 485.285H89.4614C88.8707 485.285 88.3644 485.022 88.0796 484.569C87.7737 484.084 87.7632 483.441 88.0374 482.862C94.2082 469.933 106.845 462.516 122.699 462.516C132.614 462.516 140.04 465.318 144.175 470.629C147.698 475.16 148.616 481.313 146.802 488.436L137.836 523.765C137.583 524.766 136.591 525.535 135.578 525.535H114.545C114.018 525.535 113.543 525.314 113.248 524.934C112.942 524.544 112.847 524.028 112.984 523.501C113.037 523.312 113.047 523.059 112.836 522.89C112.657 522.753 112.288 522.69 111.834 522.943C107.499 525.387 101.276 526.894 95.5794 526.894V526.905ZM78.7971 507.528C77.5103 512.585 78.1537 516.958 80.6536 520.161C83.5544 523.891 88.7125 525.861 95.5794 525.861C101.107 525.861 107.14 524.397 111.328 522.037C112.077 521.615 112.9 521.626 113.48 522.058C113.976 522.437 114.176 523.069 114.007 523.744C113.955 523.954 113.976 524.144 114.081 524.281C114.176 524.407 114.345 524.481 114.556 524.481H135.589C136.127 524.481 136.707 524.028 136.834 523.491L145.8 488.162C147.53 481.366 146.686 475.507 143.363 471.25C139.429 466.203 132.287 463.538 122.71 463.538C107.267 463.538 94.9782 470.734 88.9868 483.283C88.8602 483.547 88.8496 483.81 88.9657 483.989C89.0606 484.137 89.2399 484.221 89.4614 484.221H109.514C109.841 484.221 110.199 484.052 110.442 483.778C112.045 482.019 114.345 481.134 117.277 481.134C119.714 481.134 120.969 482.093 121.591 482.893C122.425 483.968 122.667 485.443 122.256 487.045L121.402 490.395C121.233 491.07 120.727 491.649 120.051 491.965C119.482 492.229 118.87 492.239 118.374 491.997C115.4 490.532 111.391 489.732 107.077 489.732C96.2229 489.732 82.4996 492.819 78.776 507.528H78.7971ZM108.68 511.469C106.339 511.469 104.524 510.805 103.575 509.582C102.847 508.645 102.647 507.412 102.995 506.011C103.849 502.66 106.898 500.816 111.581 500.816C113.944 500.816 115.79 501.501 116.76 502.755C117.509 503.714 117.72 504.925 117.383 506.263C116.623 509.277 112.963 511.458 108.68 511.458V511.469ZM111.581 501.859C109.166 501.859 104.978 502.428 104.008 506.274C103.733 507.359 103.86 508.255 104.398 508.95C105.147 509.909 106.666 510.436 108.68 510.436C112.488 510.436 115.727 508.581 116.37 506.021C116.634 504.999 116.476 504.103 115.938 503.408C115.168 502.418 113.617 501.87 111.581 501.87V501.859Z" fill="#DA5E56"/>
<path d="M205.376 525.008H184.343C183.563 525.008 183.098 524.386 183.288 523.628L183.436 523.038C183.742 521.847 182.476 521.225 181.358 522.005C177.497 524.745 172.234 526.378 166.759 526.378C152.92 526.378 148.226 517.348 151.57 504.188L161.316 465.771C161.506 465.013 162.297 464.391 163.067 464.391H185.155C185.936 464.391 186.4 465.013 186.21 465.771L177.16 501.448C176.348 504.651 177.719 506.59 181.2 506.59C184.343 506.59 186.991 504.873 187.887 501.332L196.906 465.771C197.096 465.013 197.887 464.391 198.657 464.391H220.745C221.526 464.391 221.99 465.013 221.8 465.771L207.117 523.628C206.927 524.386 206.136 525.008 205.366 525.008H205.376Z" fill="#EDE4DF"/>
<path d="M166.77 526.905C160.43 526.905 155.778 525.071 152.962 521.457C149.85 517.464 149.196 511.458 151.074 504.072L160.821 465.656C161.074 464.665 162.065 463.885 163.078 463.885H185.166C185.693 463.885 186.168 464.107 186.463 464.486C186.769 464.876 186.864 465.392 186.727 465.919L177.677 501.596C177.307 503.039 177.423 504.198 178.004 504.946C178.594 505.705 179.681 506.095 181.21 506.095C184.354 506.095 186.611 504.325 187.392 501.227L196.41 465.666C196.664 464.676 197.655 463.896 198.668 463.896H220.756C221.283 463.896 221.758 464.117 222.053 464.496C222.359 464.886 222.454 465.403 222.317 465.929L207.634 523.786C207.381 524.787 206.389 525.556 205.376 525.556H184.343C183.816 525.556 183.341 525.335 183.046 524.955C182.74 524.565 182.645 524.049 182.782 523.522L182.93 522.922C182.982 522.722 182.993 522.458 182.761 522.3C182.539 522.142 182.107 522.132 181.664 522.448C177.666 525.292 172.234 526.926 166.77 526.926V526.905ZM163.078 464.918C162.54 464.918 161.96 465.371 161.833 465.908L152.087 504.325C150.293 511.384 150.884 517.084 153.785 520.814C156.39 524.165 160.768 525.861 166.77 525.861C172.033 525.861 177.244 524.302 181.063 521.584C181.812 521.046 182.708 520.983 183.352 521.426C183.9 521.805 184.122 522.458 183.942 523.164L183.795 523.765C183.742 523.975 183.763 524.165 183.868 524.302C183.963 524.428 184.132 524.502 184.343 524.502H205.376C205.914 524.502 206.495 524.049 206.621 523.512L221.304 465.656C221.357 465.445 221.336 465.255 221.23 465.118C221.136 464.992 220.967 464.918 220.756 464.918H198.668C198.13 464.918 197.55 465.371 197.423 465.908L188.404 501.469C187.508 505.01 184.818 507.127 181.21 507.127C179.333 507.127 177.983 506.601 177.181 505.579C176.39 504.567 176.21 503.102 176.664 501.332L185.714 465.656C185.767 465.445 185.746 465.255 185.641 465.118C185.546 464.992 185.377 464.918 185.166 464.918H163.078V464.918Z" fill="#DA5E56"/>
<path d="M234.036 464.391H255.069C255.85 464.391 256.314 465.013 256.124 465.771L255.955 466.425C255.649 467.615 256.915 468.247 258.012 467.457C261.926 464.676 267.231 463.021 272.748 463.021C286.588 463.021 291.514 472.062 288.17 485.211L278.423 523.628C278.233 524.386 277.442 525.008 276.672 525.008H254.584C253.804 525.008 253.339 524.386 253.529 523.628L263.086 485.949C263.234 485.39 263.023 484.864 262.527 484.663C257.411 482.577 252.548 483.905 251.261 488.973L242.475 523.617C242.285 524.376 241.494 524.997 240.724 524.997H218.636C217.855 524.997 217.391 524.376 217.581 523.617L232.264 465.761C232.454 465.002 233.245 464.381 234.015 464.381L234.036 464.391Z" fill="#EDE4DF"/>
<path d="M276.683 525.535H254.595C254.067 525.535 253.593 525.314 253.297 524.934C252.991 524.544 252.896 524.028 253.034 523.501L262.59 485.823C262.654 485.57 262.622 485.264 262.348 485.148C259.552 484.01 256.915 483.926 254.922 484.937C253.361 485.728 252.274 487.171 251.778 489.11L242.992 523.754C242.738 524.745 241.747 525.524 240.734 525.524H218.646C218.119 525.524 217.644 525.303 217.349 524.924C217.043 524.534 216.948 524.018 217.085 523.491L231.768 465.634C232.021 464.644 233.013 463.864 234.026 463.864H255.059C255.586 463.864 256.061 464.086 256.356 464.465C256.662 464.855 256.757 465.371 256.62 465.898L256.451 466.551C256.398 466.751 256.388 467.025 256.62 467.183C256.841 467.331 257.263 467.352 257.706 467.036C261.767 464.149 267.253 462.505 272.748 462.505C279.162 462.505 283.866 464.37 286.735 468.047C289.858 472.062 290.533 478.036 288.687 485.338L278.94 523.754C278.687 524.755 277.695 525.524 276.683 525.524V525.535ZM258.086 483.199C259.552 483.199 261.124 483.526 262.748 484.189C263.466 484.484 263.814 485.264 263.613 486.086L254.057 523.765C254.004 523.975 254.025 524.165 254.131 524.302C254.225 524.429 254.394 524.502 254.605 524.502H276.693C277.231 524.502 277.811 524.049 277.938 523.512L287.685 485.096C289.457 478.12 288.845 472.452 285.923 468.701C283.265 465.287 278.835 463.559 272.759 463.559C267.474 463.559 262.211 465.139 258.329 467.9C257.58 468.427 256.683 468.49 256.05 468.058C255.502 467.689 255.28 467.015 255.46 466.309L255.628 465.666C255.681 465.455 255.66 465.266 255.555 465.129C255.46 465.002 255.291 464.929 255.08 464.929H234.047C233.509 464.929 232.929 465.382 232.802 465.919L218.119 523.775C218.066 523.986 218.087 524.176 218.193 524.313C218.288 524.439 218.456 524.513 218.667 524.513H240.755C241.293 524.513 241.873 524.06 242 523.522L250.787 488.878C251.356 486.634 252.633 484.959 254.468 484.031C255.544 483.494 256.778 483.22 258.097 483.22L258.086 483.199Z" fill="#DA5E56"/>
<path d="M308.57 525.008C295.891 525.008 292.368 517.348 295.216 506.137L300.87 483.842C301.06 483.083 300.596 482.461 299.815 482.461H295.881C295.1 482.461 294.636 481.84 294.826 481.081L298.708 465.771C298.897 465.013 299.689 464.391 300.459 464.391H304.393C305.174 464.391 305.954 463.769 306.144 463.011L309.562 449.535C309.752 448.776 310.543 448.154 311.313 448.154H333.401C334.181 448.154 334.646 448.776 334.456 449.535L331.038 463.011C330.848 463.769 331.312 464.391 332.093 464.391H338.939C339.719 464.391 340.183 465.013 339.993 465.771L336.112 481.081C335.922 481.84 335.131 482.461 334.361 482.461H327.515C326.734 482.461 325.954 483.083 325.764 483.842L320.743 503.619C320.279 505.452 321.186 506.021 322.578 506.021H327.22C328 506.021 328.464 506.643 328.274 507.401L324.161 523.628C323.971 524.386 323.18 525.008 322.41 525.008H308.581H308.57Z" fill="#EDE4DF"/>
<path d="M322.399 525.535H308.57C302.779 525.535 298.602 523.954 296.187 520.846C293.56 517.474 293.064 512.491 294.71 506.011L300.364 483.715C300.416 483.504 300.395 483.315 300.29 483.178C300.195 483.051 300.026 482.978 299.815 482.978H295.881C295.353 482.978 294.878 482.756 294.583 482.377C294.277 481.987 294.182 481.471 294.319 480.944L298.201 465.634C298.454 464.644 299.446 463.864 300.459 463.864H304.393C304.931 463.864 305.511 463.411 305.638 462.874L309.055 449.398C309.309 448.397 310.3 447.627 311.313 447.627H333.401C333.928 447.627 334.403 447.849 334.698 448.228C335.004 448.618 335.099 449.134 334.962 449.661L331.544 463.137C331.492 463.348 331.513 463.538 331.618 463.675C331.713 463.801 331.882 463.875 332.093 463.875H338.939C339.466 463.875 339.941 464.096 340.236 464.475C340.542 464.865 340.637 465.382 340.5 465.908L336.618 481.218C336.365 482.208 335.373 482.988 334.361 482.988H327.515C326.977 482.988 326.397 483.441 326.27 483.979L321.249 503.756C321.133 504.198 321.059 504.799 321.312 505.125C321.513 505.378 321.935 505.515 322.578 505.515H327.219C327.747 505.515 328.222 505.737 328.517 506.116C328.823 506.506 328.918 507.022 328.781 507.549L324.667 523.775C324.414 524.776 323.422 525.545 322.409 525.545L322.399 525.535ZM300.459 464.918C299.921 464.918 299.34 465.371 299.214 465.908L295.332 481.218C295.279 481.429 295.3 481.618 295.406 481.755C295.501 481.882 295.67 481.956 295.881 481.956H299.815C300.343 481.956 300.817 482.177 301.113 482.556C301.418 482.946 301.513 483.462 301.376 483.989L295.722 506.285C294.161 512.427 294.594 517.116 297.009 520.224C299.224 523.069 303.117 524.513 308.57 524.513H322.399C322.937 524.513 323.517 524.06 323.644 523.522L327.757 507.296C327.81 507.085 327.789 506.896 327.684 506.759C327.589 506.632 327.42 506.558 327.209 506.558H322.568C321.587 506.558 320.891 506.295 320.479 505.768C320.068 505.241 319.983 504.472 320.226 503.503L325.247 483.726C325.5 482.735 326.492 481.956 327.504 481.956H334.35C334.888 481.956 335.468 481.502 335.595 480.965L339.477 465.656C339.529 465.445 339.508 465.255 339.403 465.118C339.308 464.992 339.139 464.918 338.928 464.918H332.082C331.555 464.918 331.08 464.697 330.785 464.317C330.479 463.928 330.384 463.411 330.521 462.884L333.939 449.408C333.992 449.197 333.97 449.008 333.865 448.871C333.77 448.744 333.601 448.671 333.39 448.671H311.302C310.764 448.671 310.184 449.124 310.057 449.661L306.64 463.137C306.387 464.138 305.395 464.907 304.382 464.907H300.448L300.459 464.918Z" fill="#DA5E56"/>
<path d="M355.236 441.527H377.324C378.104 441.527 378.569 442.149 378.379 442.907L357.894 523.638C357.704 524.397 356.913 525.019 356.143 525.019H334.055C333.274 525.019 332.81 524.397 333 523.638L353.485 442.907C353.675 442.149 354.466 441.527 355.236 441.527V441.527Z" fill="#EDE4DF"/>
<path d="M356.132 525.535H334.044C333.517 525.535 333.042 525.314 332.747 524.934C332.441 524.544 332.346 524.028 332.483 523.501L352.968 442.77C353.221 441.769 354.213 441 355.225 441H377.313C377.841 441 378.315 441.221 378.611 441.601C378.917 441.99 379.012 442.507 378.874 443.034L358.39 523.765C358.137 524.766 357.145 525.535 356.132 525.535V525.535ZM355.236 442.043C354.698 442.043 354.118 442.496 353.991 443.034L333.506 523.765C333.454 523.975 333.475 524.165 333.58 524.302C333.675 524.429 333.844 524.502 334.055 524.502H356.143C356.681 524.502 357.261 524.049 357.388 523.512L377.872 442.781C377.925 442.57 377.904 442.38 377.798 442.243C377.704 442.117 377.535 442.043 377.324 442.043H355.236V442.043Z" fill="#DA5E56"/>
<path d="M372.24 498.709L374.159 491.165C378.452 474.232 391.648 463.032 411.542 463.032C431.436 463.032 437.544 475.16 433.683 490.364L431.363 499.51C431.173 500.268 430.382 500.89 429.612 500.89H397.292C396.511 500.89 395.731 501.512 395.541 502.27L395.256 503.408C394.359 506.948 395.836 509.814 400.266 509.814C403.42 509.814 405.656 508.508 407.028 506.948C407.397 506.527 407.914 506.264 408.41 506.264H427.723C428.631 506.264 429.095 507.096 428.673 507.96C423.525 518.359 411.078 526.399 396.068 526.399C377.577 526.399 367.567 517.253 372.261 498.719L372.24 498.709ZM400.446 488.415H409.612C410.393 488.415 411.173 487.793 411.363 487.034L411.648 485.896C412.576 482.24 411.796 479.374 407.365 479.374C402.935 479.374 400.625 482.114 399.57 486.233L399.37 487.024C399.18 487.782 399.644 488.404 400.425 488.404L400.446 488.415Z" fill="#EDE4DF"/>
<path d="M396.036 526.905C385.857 526.905 378.315 524.123 374.202 518.844C370.383 513.945 369.55 507.128 371.723 498.572L373.642 491.028C378.178 473.168 392.334 462.495 411.532 462.495C420.572 462.495 427.449 465.181 431.405 470.26C435.308 475.265 436.268 482.261 434.179 490.48L431.858 499.615C431.605 500.616 430.614 501.385 429.601 501.385H397.281C396.743 501.385 396.163 501.838 396.036 502.376L395.752 503.513C395.309 505.241 395.498 506.748 396.279 507.749C397.049 508.74 398.431 509.266 400.256 509.266C403.737 509.266 405.741 507.581 406.627 506.58C407.102 506.042 407.766 505.726 408.399 505.726H427.713C428.314 505.726 428.82 505.99 429.105 506.453C429.411 506.938 429.411 507.581 429.126 508.171C423.578 519.371 410.287 526.894 396.047 526.894L396.036 526.905ZM372.735 498.835C370.647 507.064 371.417 513.576 375.024 518.212C378.927 523.217 386.195 525.872 396.036 525.872C409.886 525.872 422.797 518.581 428.177 507.728C428.304 507.465 428.314 507.201 428.209 507.022C428.114 506.864 427.934 506.78 427.702 506.78H408.388C408.051 506.78 407.671 506.969 407.397 507.286C406.395 508.424 404.138 510.331 400.245 510.331C398.083 510.331 396.427 509.667 395.446 508.413C394.465 507.149 394.212 505.336 394.728 503.282L395.013 502.144C395.266 501.153 396.258 500.374 397.271 500.374H429.59C430.128 500.374 430.709 499.921 430.835 499.383L433.156 490.248C435.16 482.356 434.263 475.676 430.571 470.924C426.816 466.109 420.234 463.559 411.521 463.559C392.84 463.559 379.054 473.927 374.645 491.302L372.725 498.846L372.735 498.835ZM409.612 488.931H400.435C399.908 488.931 399.433 488.71 399.138 488.33C398.832 487.94 398.737 487.424 398.874 486.897L399.074 486.107C400.277 481.366 403.146 478.847 407.365 478.847C409.348 478.847 410.783 479.406 411.637 480.491C412.597 481.724 412.766 483.578 412.154 486.012L411.869 487.15C411.616 488.141 410.625 488.92 409.612 488.92V488.931ZM407.376 479.891C403.631 479.891 401.184 482.072 400.087 486.36L399.887 487.15C399.834 487.361 399.855 487.551 399.96 487.688C400.055 487.814 400.224 487.888 400.435 487.888H409.612C410.15 487.888 410.73 487.435 410.857 486.897L411.142 485.759C411.68 483.652 411.563 482.093 410.815 481.134C410.171 480.312 409.011 479.891 407.365 479.891H407.376Z" fill="#DA5E56"/>
<path d="M454.548 525.008C441.869 525.008 438.346 517.348 441.194 506.137L446.847 483.842C447.037 483.083 446.573 482.461 445.793 482.461H441.858C441.078 482.461 440.613 481.84 440.803 481.081L444.685 465.771C444.875 465.013 445.666 464.391 446.436 464.391H450.371C451.151 464.391 451.932 463.769 452.122 463.011L455.539 449.535C455.729 448.776 456.52 448.154 457.29 448.154H479.378C480.159 448.154 480.623 448.776 480.433 449.535L477.016 463.011C476.826 463.769 477.29 464.391 478.07 464.391H484.916C485.697 464.391 486.161 465.013 485.971 465.771L482.089 481.081C481.899 481.84 481.108 482.461 480.338 482.461H473.492C472.712 482.461 471.931 483.083 471.741 483.842L466.72 503.619C466.256 505.452 467.153 506.021 468.556 506.021H473.197C473.978 506.021 474.442 506.643 474.252 507.401L470.138 523.628C469.948 524.386 469.157 525.008 468.387 525.008H454.558H454.548Z" fill="#EDE4DF"/>
<path d="M468.387 525.535H454.548C448.757 525.535 444.59 523.954 442.164 520.846C439.538 517.485 439.042 512.491 440.687 506.011L446.341 483.715C446.394 483.504 446.373 483.315 446.267 483.178C446.172 483.051 446.004 482.978 445.793 482.978H441.858C441.331 482.978 440.856 482.756 440.561 482.377C440.255 481.987 440.16 481.471 440.297 480.944L444.179 465.634C444.432 464.644 445.423 463.864 446.436 463.864H450.371C450.909 463.864 451.489 463.411 451.615 462.874L455.033 449.398C455.286 448.397 456.278 447.627 457.29 447.627H479.378C479.906 447.627 480.38 447.849 480.676 448.228C480.982 448.618 481.077 449.134 480.939 449.661L477.522 463.137C477.469 463.348 477.49 463.538 477.596 463.675C477.691 463.801 477.859 463.875 478.07 463.875H484.916C485.444 463.875 485.918 464.096 486.214 464.475C486.52 464.865 486.614 465.382 486.477 465.908L482.596 481.218C482.342 482.208 481.351 482.988 480.338 482.988H473.492C472.954 482.988 472.374 483.441 472.248 483.979L467.227 503.756C467.111 504.198 467.037 504.799 467.29 505.125C467.49 505.378 467.912 505.515 468.556 505.515H473.197C473.724 505.515 474.199 505.737 474.495 506.116C474.8 506.506 474.895 507.022 474.758 507.549L470.644 523.775C470.391 524.776 469.4 525.545 468.387 525.545V525.535ZM446.447 464.918C445.909 464.918 445.329 465.371 445.202 465.908L441.32 481.218C441.267 481.429 441.289 481.618 441.394 481.755C441.489 481.882 441.658 481.956 441.869 481.956H445.803C446.331 481.956 446.805 482.177 447.101 482.556C447.407 482.946 447.501 483.462 447.364 483.989L441.71 506.285C440.149 512.427 440.582 517.116 442.997 520.224C445.213 523.069 449.105 524.513 454.558 524.513H468.398C468.936 524.513 469.516 524.06 469.642 523.522L473.756 507.296C473.809 507.085 473.788 506.896 473.682 506.759C473.587 506.632 473.419 506.558 473.208 506.558H468.566C467.585 506.558 466.889 506.295 466.478 505.768C466.066 505.241 465.982 504.483 466.225 503.503L471.246 483.726C471.499 482.735 472.49 481.956 473.503 481.956H480.349C480.887 481.956 481.467 481.502 481.593 480.965L485.475 465.656C485.528 465.445 485.507 465.255 485.401 465.118C485.306 464.992 485.138 464.918 484.927 464.918H478.081C477.554 464.918 477.079 464.697 476.783 464.317C476.478 463.928 476.383 463.411 476.52 462.884L479.937 449.408C479.99 449.197 479.969 449.008 479.864 448.871C479.769 448.744 479.6 448.671 479.389 448.671H457.301C456.763 448.671 456.183 449.124 456.056 449.661L452.638 463.137C452.385 464.138 451.394 464.907 450.381 464.907H446.447V464.918Z" fill="#DA5E56"/>
<g clip-path="url(#clip0_9_102)">
<path d="M110.623 398.337C103.473 398.262 96.1098 397.845 89.5286 395.023C82.0043 391.794 75.9376 385.272 71.0071 378.932C62.4216 367.898 51.3815 355.41 53.9111 340.463C54.9829 334.123 56.4728 328.029 58.7344 320.716L64.9619 291.806C65.8729 287.561 68.3703 285.241 64.7689 281.617C60.5244 277.34 57.0087 272.262 55.0151 266.584C51.1136 255.401 55.8619 241.887 58.295 230.586C61.6927 214.805 65.1012 199.024 68.499 183.243C72.8078 163.25 77.1166 143.257 81.4255 123.274C85.4449 104.649 89.4536 86.0247 93.473 67.3999C95.9919 55.714 98.5107 44.0387 101.03 32.3528C101.351 30.8453 101.683 29.3378 102.005 27.8303C105.413 12.0174 122.145 0.534607 141.771 0.534607H386.302C390.483 0.534607 394.641 1.06919 398.639 2.11696C414.781 5.44205 421.523 15.0003 424.064 18.6141L424.16 18.7424C424.278 18.9135 424.407 19.0952 424.546 19.277L436.958 35.8062C446.647 48.7003 443.1 61.6157 441.395 67.8169C441.213 68.4904 440.999 69.2602 440.913 69.6344L432.81 107.205C431.341 114.026 427.622 120.302 422.027 125.445L422.627 126.246C425.114 129.572 426.818 133.228 427.686 137.12C429.273 144.208 427.654 150.26 426.786 153.51L426.722 153.756C426.679 153.916 426.636 154.066 426.604 154.216C420.902 180.677 415.864 207.161 410.698 233.729C404.738 264.361 397.182 295.046 390.579 325.698L381.511 367.77C377.674 385.55 358.874 398.465 336.794 398.465H230.091C191.558 398.465 153.046 398.498 114.513 398.369C113.217 398.369 111.909 398.369 110.59 398.348L110.623 398.337Z" fill="#645CA0" stroke="#302E35" stroke-miterlimit="10"/>
<path d="M413.141 41.6973C411.598 38.8855 409.69 36.2232 407.804 33.6145C403.195 27.2423 398.328 20.6349 391.319 17.0532C384.309 13.4715 376.098 13.3967 368.22 13.3967C294.52 13.4074 220.819 13.4181 147.119 13.4287C137.269 13.4287 125.971 14.1023 119.937 21.8644C116.711 26.0128 116.014 30.9309 114.921 35.9239C113.613 41.8577 112.305 47.7809 110.998 53.7147C108.072 66.9937 105.167 80.2833 102.305 93.573C98.082 113.181 93.8589 132.79 89.6465 152.398C85.6914 170.777 81.0181 189.156 77.749 207.663C76.3663 215.468 74.7264 222.92 72.5827 230.586C70.4282 238.327 68.5847 246.506 70.5461 254.492C72.6363 263.003 78.6708 269.91 84.5123 276.453C78.7994 292.255 74.3405 308.517 71.1785 325.014C70.2246 329.975 69.3993 335.086 70.3854 340.036C71.8538 347.37 76.6235 353.668 81.2754 359.324C85.552 364.53 89.9895 369.833 96.367 372.528C101.962 374.891 108.222 374.923 114.299 374.923C182.962 374.901 251.624 374.88 320.287 374.858C332.12 374.858 345.658 374.067 352.989 364.798C356.73 360.072 358.07 353.946 359.313 348.055C373.033 282.953 386.752 217.852 400.461 152.762C401.78 146.507 403.077 139.857 400.869 133.859C399.475 130.074 396.721 126.653 396.656 122.622C396.592 118.795 398.972 115.427 400.976 112.166C409.486 98.288 412.445 81.8336 415.253 65.8176C416.239 60.1724 417.236 54.3348 415.95 48.7431C415.382 46.252 414.385 43.9212 413.163 41.6867L413.141 41.6973Z" fill="#63AECE" stroke="#302E35" stroke-miterlimit="10"/>
<path d="M388.124 49.5877C384.266 44.4558 380.407 39.3238 376.559 34.1811C372.293 28.5039 363.418 27.0284 356.741 27.0284H146.272C137.923 27.0284 130.795 32 129.316 38.8534L129.016 40.2219C128.737 41.5263 128.447 42.8413 128.169 44.1457L126.829 50.3468C126.239 53.0732 125.65 55.7995 125.06 58.5366C124.353 61.8296 123.635 65.1333 122.927 68.4263C122.113 72.2005 121.298 75.9746 120.484 79.7487C119.583 83.9078 118.694 88.0561 117.793 92.2152C116.839 96.6629 115.875 101.1 114.921 105.548C113.967 109.995 112.916 114.828 111.92 119.468C110.923 124.108 109.872 128.941 108.854 133.688C107.836 138.435 106.807 143.182 105.789 147.929C104.781 152.591 103.784 157.241 102.777 161.903C101.812 166.383 100.847 170.863 99.8827 175.342C98.9716 179.544 98.0713 183.746 97.1602 187.948C96.3349 191.786 95.5096 195.614 94.6842 199.452L92.4977 209.566L90.6755 218.013C90.2039 220.183 89.743 222.343 89.2714 224.513L88.3496 228.79C87.7386 231.644 87.7279 234.296 88.2103 237.161C88.9284 241.32 90.2682 245.308 92.1761 249.072C94.084 252.835 96.4528 256.353 98.9823 259.731C100.837 262.212 102.605 265.12 105.606 266.307C107.729 267.141 110.065 267.13 112.338 267.108C118.372 267.055 124.396 267.002 130.43 267.002H150.796C175.566 267.002 197.207 267.643 221.977 267.643H231.935C237.626 267.643 242.492 264.307 243.478 259.721L247.83 239.524C248.848 234.798 249.084 231.987 250.102 227.261C250.52 225.304 250.949 223.348 251.367 221.38C251.839 219.221 252.182 216.997 251.131 214.784C248.141 208.476 243.017 203.376 237.798 198.875C232.492 194.288 227.422 189.979 220.005 189.979H190.808L207.218 113.866C208.204 109.279 213.07 105.943 218.762 105.943L368.638 106.585C374.33 106.585 379.196 103.249 380.182 98.6622C381.618 92.0013 383.055 85.3405 384.491 78.6796C385.573 73.6652 386.656 68.6616 387.728 63.6472C388.714 59.0498 391.254 53.7575 388.103 49.5663L388.124 49.5877Z" fill="#DA5E56" stroke="#302E35" stroke-miterlimit="10"/>
<path d="M373.933 132.608C369.614 127.006 365.401 119.019 359.431 115.031C354.64 111.824 347.469 110.124 341.713 110.124H232.813C224.464 110.124 217.325 115.095 215.857 121.949C214.506 128.214 213.156 134.49 211.805 140.755C211.141 143.824 210.401 146.892 209.812 149.982C208.772 155.499 211.023 160.417 212.909 165.431C215.128 171.344 217.486 177.417 220.691 182.891C221.773 184.74 223.681 187.648 225.975 187.98C232.481 188.921 252.268 189.049 252.268 189.049C253.393 189.049 266.898 189.359 271.689 189.22L255.612 263.794C254.454 269.183 248.645 273.096 241.796 273.096H111.737C103.388 273.096 96.2491 278.067 94.7807 284.921C93.6553 290.127 92.5405 295.334 91.4151 300.541C90.2146 306.122 89.0141 311.703 88.0709 317.327C87.6958 319.561 87.1598 321.657 87.6207 323.924C88.0816 326.19 89.0141 328.222 90.1074 330.168C90.6755 331.183 91.2972 332.167 91.9939 333.097C94.845 337.759 98.7358 342.163 102.059 346.611C103.806 348.953 103.945 349.177 106.678 349.455C109.915 349.787 113.474 349.455 116.743 349.455H320.855C326.547 349.455 331.413 346.119 332.399 341.533C333.181 337.898 333.964 334.252 334.746 330.617C336.783 321.187 338.809 311.757 340.845 302.316C343.653 289.304 346.451 278.848 349.259 265.836C352.357 251.467 355.454 237.086 358.552 222.717C364.34 195.849 368.585 168.703 374.555 141.867C375.252 138.734 376.066 135.366 373.922 132.597L373.933 132.608Z" fill="#DA5E56" stroke="#302E35" stroke-miterlimit="10"/>
<path d="M172.651 177.684L190.561 94.5993C191.88 88.4944 198.364 84.036 205.953 84.036H351.617C359.195 84.036 365.691 79.5776 367.009 73.4727L373.204 44.7123C374.887 36.886 367.534 29.712 357.813 29.712H147.344C139.766 29.712 133.271 34.1704 131.952 40.2753L90.6219 231.997C88.9391 239.823 96.292 246.997 106.014 246.997H214.914C222.492 246.997 228.987 242.539 230.305 236.434L236.501 207.674C238.183 199.847 230.831 192.673 221.109 192.673H188.032C178.321 192.673 170.957 185.499 172.64 177.673L172.651 177.684Z" fill="#EDE4DF"/>
<path d="M276.148 182.121L258.238 265.205C256.919 271.31 250.435 275.769 242.846 275.769H112.809C105.231 275.769 98.7358 280.227 97.4175 286.332L91.2222 315.092C89.5394 322.919 96.8923 330.093 106.614 330.093H301.455C309.033 330.093 315.528 325.634 316.846 319.529L358.177 127.797C359.86 119.971 352.507 112.796 342.785 112.796H233.885C226.307 112.796 219.812 117.255 218.494 123.36L212.298 152.12C210.615 159.946 217.968 167.12 227.69 167.12H260.767C270.478 167.12 277.842 174.295 276.159 182.121H276.148Z" fill="#EDE4DF"/>
</g>
<defs>
<clipPath id="clip0_9_102">
<rect width="391" height="399" fill="white" transform="translate(53)"/>
</clipPath>
</defs>
</svg>
