<svg width="213" height="218" viewBox="0 0 213 218" fill="none" xmlns="http://www.w3.org/2000/svg">
<g clip-path="url(#clip0_158_2426)">
<path d="M31.3903 217.638C27.4957 217.597 23.4844 217.369 19.8992 215.827C15.8003 214.063 12.4954 210.499 9.80949 207.035C5.13247 201.007 -0.881676 194.184 0.496322 186.018C1.08022 182.554 1.89184 179.224 3.12386 175.228L6.51631 159.433C7.01262 157.114 8.3731 155.846 6.4112 153.866C4.09897 151.529 2.18379 148.755 1.09774 145.653C-1.02765 139.542 1.55902 132.159 2.88446 125.984C4.73542 117.362 6.59221 108.74 8.44317 100.118C10.7904 89.1943 13.1377 78.2706 15.485 67.3528C17.6746 57.1769 19.8584 47.0009 22.048 36.825C23.4201 30.4402 24.7923 24.0613 26.1645 17.6765C26.3396 16.8528 26.5206 16.0292 26.6958 15.2055C28.5526 6.56588 37.6672 0.292076 48.3584 0.292076H181.569C183.846 0.292076 186.112 0.584153 188.289 1.15662C197.083 2.97334 200.756 8.19566 202.139 10.1701L202.192 10.2402C202.256 10.3337 202.326 10.433 202.402 10.5323L209.164 19.5633C214.442 26.6082 212.509 33.6647 211.581 37.0528C211.482 37.4208 211.365 37.8414 211.318 38.0459L206.904 58.573C206.104 62.2999 204.078 65.7289 201.03 68.5387L201.357 68.9768C202.712 70.7935 203.64 72.7913 204.113 74.9176C204.977 78.7905 204.096 82.0968 203.623 83.8727L203.588 84.007C203.564 84.0946 203.541 84.1764 203.523 84.2582C200.417 98.716 197.673 113.185 194.858 127.702C191.612 144.438 187.495 161.203 183.899 177.95L178.959 200.937C176.868 210.651 166.627 217.708 154.599 217.708H96.4716C75.4804 217.708 54.501 217.725 33.5099 217.655C32.8034 217.655 32.091 217.655 31.3728 217.644L31.3903 217.638Z" fill="#645CA0" stroke="#302E35" stroke-miterlimit="10"/>
<path d="M196.19 22.782C195.349 21.2457 194.309 19.7911 193.282 18.3658C190.771 14.8842 188.12 11.2742 184.301 9.31725C180.483 7.36034 176.01 7.31945 171.718 7.31945C131.57 7.32529 91.4208 7.33113 51.272 7.33698C45.906 7.33698 39.7517 7.70499 36.4644 11.9459C34.7069 14.2125 34.3273 16.8996 33.7318 19.6276C33.0194 22.8696 32.307 26.1058 31.5947 29.3479C30.0006 36.603 28.4183 43.864 26.8593 51.1251C24.5587 61.8384 22.2582 72.5518 19.9634 83.2652C17.8089 93.3067 15.2631 103.348 13.4822 113.46C12.729 117.724 11.8356 121.796 10.6678 125.984C9.49417 130.214 8.48986 134.682 9.5584 139.046C10.697 143.696 13.9843 147.469 17.1666 151.044C14.0544 159.678 11.6254 168.563 9.90289 177.577C9.38323 180.287 8.93362 183.079 9.47081 185.784C10.2708 189.791 12.8691 193.232 15.4032 196.322C17.733 199.167 20.1503 202.064 23.6245 203.536C26.6724 204.827 30.0824 204.845 33.3931 204.845C70.7976 204.833 108.202 204.822 145.607 204.81C152.053 204.81 159.427 204.378 163.421 199.313C165.459 196.731 166.189 193.384 166.866 190.165C174.34 154.596 181.814 119.027 189.282 83.4638C190 80.0465 190.707 76.413 189.504 73.1359C188.745 71.068 187.244 69.1988 187.209 66.9965C187.174 64.9052 188.47 63.0652 189.562 61.2835C194.198 53.7012 195.81 44.7111 197.34 35.9605C197.877 32.8761 198.42 29.6867 197.719 26.6315C197.41 25.2705 196.867 23.997 196.201 22.7761L196.19 22.782Z" fill="#63AECE" stroke="#302E35" stroke-miterlimit="10"/>
<path d="M182.561 27.093C180.459 24.2891 178.357 21.4852 176.261 18.6754C173.937 15.5735 169.103 14.7674 165.465 14.7674H50.8108C46.2622 14.7674 42.3793 17.4837 41.5735 21.2281L41.41 21.9758C41.2582 22.6885 41.1006 23.407 40.9487 24.1197L40.2189 27.5078C39.8977 28.9974 39.5766 30.487 39.2554 31.9824C38.8701 33.7816 38.4789 35.5866 38.0935 37.3858C37.6497 39.4479 37.206 41.5099 36.7622 43.572C36.2717 45.8443 35.7871 48.1108 35.2966 50.3832C34.7769 52.8133 34.2514 55.2375 33.7318 57.6676C33.2121 60.0977 32.6399 62.738 32.0969 65.2733C31.5538 67.8085 30.9816 70.4489 30.4269 73.0425C29.8722 75.6361 29.3117 78.2298 28.757 80.8234C28.2081 83.3703 27.6651 85.9114 27.1162 88.4583C26.5907 90.9059 26.0652 93.3535 25.5397 95.8011C25.0434 98.0968 24.5529 100.393 24.0566 102.688C23.607 104.785 23.1574 106.877 22.7078 108.974L21.5166 114.5L20.524 119.115C20.2671 120.3 20.016 121.48 19.7591 122.666L19.2569 125.003C18.9241 126.563 18.9183 128.011 19.181 129.577C19.5723 131.849 20.3021 134.028 21.3415 136.084C22.3808 138.14 23.6712 140.062 25.0492 141.908C26.0594 143.264 27.0228 144.852 28.6577 145.501C29.8138 145.956 31.0867 145.951 32.3246 145.939C35.6119 145.91 38.8934 145.881 42.1808 145.881H53.2748C66.7687 145.881 78.5576 146.231 92.0514 146.231H97.4759C100.576 146.231 103.227 144.408 103.764 141.902L106.135 130.868C106.69 128.286 106.818 126.75 107.373 124.168C107.601 123.099 107.834 122.03 108.062 120.955C108.319 119.775 108.506 118.56 107.933 117.35C106.304 113.904 103.513 111.118 100.67 108.658C97.7795 106.152 95.0177 103.798 90.9771 103.798H75.0717L84.0112 62.2123C84.5484 59.7063 87.1993 57.8837 90.2998 57.8837L171.946 58.2342C175.047 58.2342 177.698 56.4117 178.235 53.9056C179.017 50.2664 179.8 46.6271 180.582 42.9878C181.172 40.2481 181.761 37.5143 182.345 34.7746C182.883 32.2628 184.266 29.3712 182.55 27.0813L182.561 27.093Z" fill="#DA5E56" stroke="#302E35" stroke-miterlimit="10"/>
<path d="M174.831 72.4525C172.478 69.3915 170.183 65.0279 166.93 62.849C164.32 61.0966 160.414 60.1678 157.279 60.1678H97.9547C93.4061 60.1678 89.5173 62.8841 88.7174 66.6285C87.9817 70.0516 87.246 73.4806 86.5103 76.9037C86.1483 78.5803 85.7454 80.2568 85.4242 81.945C84.8578 84.9592 86.084 87.6463 87.1117 90.386C88.3204 93.6164 89.6049 96.9343 91.3508 99.9252C91.9405 100.936 92.9799 102.525 94.2294 102.706C97.7737 103.22 108.552 103.29 108.552 103.29C109.165 103.29 116.523 103.459 119.133 103.383L110.374 144.128C109.744 147.072 106.579 149.21 102.848 149.21H31.9976C27.449 149.21 23.5603 151.926 22.7603 155.671C22.1472 158.516 21.54 161.361 20.9269 164.205C20.2729 167.255 19.619 170.304 19.1051 173.377C18.9008 174.597 18.6088 175.742 18.8599 176.981C19.111 178.219 19.619 179.329 20.2145 180.392C20.524 180.947 20.8627 181.485 21.2422 181.993C22.7954 184.54 24.9149 186.946 26.725 189.377C27.6768 190.656 27.7527 190.779 29.2416 190.93C31.005 191.111 32.9435 190.93 34.7244 190.93H145.916C149.016 190.93 151.667 189.108 152.205 186.602C152.631 184.616 153.057 182.624 153.483 180.638C154.593 175.485 155.696 170.333 156.806 165.175C158.335 158.066 159.859 152.353 161.389 145.244C163.077 137.393 164.764 129.536 166.452 121.685C169.605 107.005 171.917 92.1735 175.169 77.5113C175.549 75.7997 175.993 73.9596 174.825 72.4467L174.831 72.4525Z" fill="#DA5E56" stroke="#302E35" stroke-miterlimit="10"/>
<path d="M65.1805 97.0804L74.9374 51.6858C75.6556 48.3503 79.1882 45.9144 83.3222 45.9144H162.674C166.802 45.9144 170.34 43.4785 171.059 40.143L174.434 24.4293C175.35 20.1533 171.345 16.2336 166.049 16.2336H51.3947C47.2665 16.2336 43.7281 18.6695 43.0099 22.005L20.4948 126.755C19.5781 131.031 23.5836 134.951 28.8796 134.951H88.2036C92.3317 134.951 95.8702 132.515 96.5884 129.18L99.9633 113.466C100.88 109.19 96.8745 105.27 91.5785 105.27H73.5594C68.2693 105.27 64.2579 101.351 65.1747 97.0745L65.1805 97.0804Z" fill="#EDE4DF"/>
<path d="M121.562 99.5046L111.805 144.899C111.087 148.235 107.554 150.671 103.42 150.671H32.5815C28.4534 150.671 24.9149 153.106 24.1967 156.442L20.8218 172.156C19.9051 176.432 23.9106 180.351 29.2066 180.351H135.347C139.476 180.351 143.014 177.915 143.732 174.58L166.247 69.8238C167.164 65.5478 163.159 61.6281 157.863 61.6281H98.5386C94.4104 61.6281 90.872 64.064 90.1538 67.3996L86.7789 83.1133C85.8622 87.3893 89.8677 91.3089 95.1637 91.3089H113.183C118.473 91.3089 122.484 95.2286 121.568 99.5046H121.562Z" fill="#EDE4DF"/>
</g>
<defs>
<clipPath id="clip0_158_2426">
<rect width="213" height="218" fill="white"/>
</clipPath>
</defs>
</svg>
