<svg width="1288" height="313" viewBox="0 0 1288 313" fill="none" xmlns="http://www.w3.org/2000/svg">
<path d="M1285.2 93.606C1282.55 90.2193 1278.43 88.2669 1273.88 88.247L1277.15 75.3175C1278.29 70.855 1277.41 66.3327 1274.74 62.9061C1272.09 59.4994 1267.92 57.5471 1263.34 57.5471H1221.6C1213.81 57.5471 1206.47 63.2647 1204.56 70.8351L1200.13 88.2868C1192.7 88.7251 1185.86 94.2834 1184.03 101.555L1182.83 106.276C1182.43 105.719 1182.04 105.141 1181.62 104.603C1174.9 95.9767 1161.37 85.677 1135.12 85.677C1113.93 85.677 1094.9 91.7732 1080.07 103.308C1077.28 105.48 1074.66 107.83 1072.19 110.36L1084.25 62.8264C1085.39 58.3639 1084.51 53.8415 1081.84 50.4149C1079.19 47.0083 1075.02 45.0559 1070.44 45.0559H1028.7C1020.91 45.0559 1013.57 50.7735 1011.66 58.3439L1003.77 89.4821C1001.99 88.745 1000.04 88.3267 997.988 88.3067L1001.26 75.3773C1002.39 70.9148 1001.52 66.3925 998.845 62.9659C996.194 59.5592 992.029 57.6068 987.444 57.6068H945.708C937.914 57.6068 930.58 63.3245 928.666 70.8948L924.241 88.3466C917.106 88.7649 910.568 93.8849 908.396 100.698C908.336 100.619 908.276 100.519 908.196 100.439C902.974 93.7255 892.59 85.7169 872.838 85.7169C864.028 85.7169 855.398 87.47 847.644 90.7372C845.292 89.1634 842.442 88.3067 839.412 88.3067H799.669C794.626 88.3067 789.803 90.6974 786.494 94.4228C786.315 94.1638 786.155 93.9048 785.976 93.6658C783.325 90.2591 779.159 88.3067 774.575 88.3067H732.838C727.676 88.3067 722.733 90.797 719.424 94.6818C719.205 94.3431 718.966 94.0045 718.707 93.6658C716.056 90.2591 711.89 88.3067 707.306 88.3067H665.569C657.776 88.3067 650.441 94.0244 648.528 101.595L644.86 116.098C643.385 112.213 641.392 108.587 638.821 105.3C628.855 92.4904 611.734 85.7169 589.311 85.7169C558.317 85.7169 531.948 99.4432 516.84 122.891L521.105 106.097C522.241 101.635 521.364 97.1123 518.693 93.6857C516.043 90.279 511.877 88.3267 507.293 88.3267H467.988C465.078 88.3267 462.247 89.1235 459.716 90.5181C454.414 87.7888 447.239 85.7368 437.632 85.7368C401.416 85.7368 374.17 107.91 364.742 145.065L360.895 160.206C356.171 178.853 358.005 194.651 366.237 205.967H364.543C359.779 205.967 355.095 208.058 351.687 211.684C348.338 215.25 346.644 219.892 347.063 224.394C349.574 251.907 373.452 269 409.409 269C427.148 269 445.186 264.159 460.234 255.373C477.634 245.213 489.573 230.371 493.839 213.557L494.457 211.106C495.314 212.66 496.29 214.174 497.407 215.609C505.319 225.789 519.072 231.387 536.094 231.387C545.462 231.387 555.288 229.614 563.858 226.466C566.17 227.98 568.961 228.797 571.931 228.797H611.674C619.468 228.797 626.802 223.08 628.716 215.509L630.609 208.078C631.865 211.266 633.499 214.214 635.572 216.844C640.734 223.478 651.019 231.387 670.612 231.387C679.402 231.387 687.972 229.654 695.646 226.407C697.978 227.941 700.808 228.797 703.818 228.797H743.562C748.604 228.797 753.428 226.407 756.736 222.681C756.916 222.94 757.075 223.199 757.254 223.438C759.905 226.845 764.071 228.797 768.655 228.797H810.392C815.754 228.797 820.876 226.108 824.185 221.964C824.484 222.482 824.823 222.96 825.181 223.438C827.832 226.845 831.998 228.797 836.582 228.797H878.319C886.112 228.797 893.447 223.08 895.36 215.509L899.666 198.556C900.523 206.465 903.333 212.003 906.223 215.689C913 224.375 923.882 228.797 938.572 228.797H964.702C968.928 228.797 972.994 227.124 976.163 224.375C978.814 227.184 982.581 228.797 986.727 228.797H1028.46C1036.26 228.797 1043.59 223.08 1045.5 215.509L1048.59 203.357C1050.11 206.763 1051.88 209.612 1053.68 211.923C1063.6 224.653 1080.94 231.387 1103.86 231.387C1133.88 231.387 1161.21 216.844 1175.26 193.874C1175.32 204.333 1178.67 211.306 1182.08 215.689C1188.85 224.375 1199.74 228.797 1214.43 228.797H1240.56C1248.35 228.797 1255.68 223.08 1257.6 215.509L1265.37 184.829C1266.51 180.367 1265.63 175.844 1262.96 172.418C1260.75 169.569 1257.48 167.736 1253.79 167.198L1258.57 148.352H1263.14C1270.93 148.352 1278.27 142.634 1280.18 135.064L1287.51 106.117C1288.65 101.655 1287.77 97.1322 1285.1 93.7056L1285.2 93.606ZM509.804 150.822L511.478 144.188C511.737 144.806 512.036 145.403 512.395 145.981C512.794 146.619 513.252 147.236 513.73 147.794C512.355 148.75 511.06 149.746 509.784 150.822H509.804ZM982.8 148.252H987.365C987.883 148.252 988.381 148.232 988.879 148.173L983.578 169.111C981.923 168.095 980.03 167.397 978.017 167.099L982.8 148.252V148.252Z" fill="#DA5E56"/>
<path d="M354.118 205.867H393.862C394.619 205.867 395.277 206.166 395.616 206.743C397.49 209.891 402.114 211.704 407.774 211.704C415.468 211.704 422.284 207.381 424.098 200.249L425.792 193.575C426.311 191.543 424.337 190.248 422.324 191.344C416.265 194.651 407.057 197.42 398.666 197.42C366.795 197.42 357.268 176.88 364.244 149.408L368.091 134.267C375.106 106.595 394.719 85.6172 427.247 85.6172C438.23 85.6172 445.126 88.8446 449.292 93.327C450.647 94.7813 453.597 93.5661 454.155 91.3348L454.295 90.8168C454.653 89.3825 456.148 88.2071 457.603 88.2071H496.908C498.383 88.2071 499.26 89.3825 498.901 90.8168L471.655 198.277C464.42 226.825 430.636 243.041 400.958 243.041C373.731 243.041 352.803 231.666 350.77 209.274C350.611 207.58 352.365 205.847 354.178 205.847L354.118 205.867ZM436.695 150.503L441.02 133.43C443.272 124.565 439.804 120.023 431.015 120.023C422.225 120.023 416.724 125.222 414.531 133.868L410.425 150.085C408.512 157.655 410.983 163.493 419.992 163.493C427.686 163.493 434.542 158.95 436.695 150.523V150.503Z" fill="#EDE4DF"/>
<path d="M400.918 244.057C371.3 244.057 351.687 230.769 349.753 209.393C349.654 208.377 350.072 207.281 350.85 206.405C351.727 205.448 352.943 204.891 354.118 204.891H393.862C394.978 204.891 395.955 205.389 396.453 206.245C398.107 209.015 402.433 210.728 407.754 210.728C415.308 210.728 421.487 206.425 423.122 200.01L424.816 193.336C424.955 192.818 424.836 192.4 424.517 192.16C424.178 191.901 423.56 191.782 422.763 192.22C415.847 195.985 406.359 198.416 398.626 198.416C384.215 198.416 373.711 194.332 367.433 186.264C360.716 177.657 359.281 164.827 363.247 149.189L367.094 134.048C375.047 102.651 396.971 84.641 427.208 84.641C437.373 84.641 445.026 87.3305 449.969 92.6696C450.348 93.088 450.946 93.0083 451.265 92.9286C452.002 92.7493 452.899 92.0918 453.158 91.1157L453.298 90.5977C453.776 88.725 455.65 87.2508 457.563 87.2508H496.868C497.865 87.2508 498.762 87.6691 499.32 88.3863C499.898 89.1235 500.077 90.0996 499.818 91.0957L472.572 198.555C465.078 228.12 430.058 244.057 400.918 244.057V244.057ZM354.118 206.863C353.501 206.863 352.803 207.202 352.305 207.74C351.886 208.198 351.667 208.736 351.707 209.214C353.58 229.793 371.977 242.085 400.918 242.085C429.858 242.085 463.403 226.665 470.658 198.057L497.905 90.5977C498.005 90.1993 497.965 89.8407 497.765 89.5817C497.586 89.3426 497.267 89.2031 496.868 89.2031H457.563C456.547 89.2031 455.451 90.0598 455.211 91.0758L455.072 91.5938C454.673 93.1278 453.358 94.4227 451.763 94.8212C450.488 95.1599 449.312 94.8411 448.534 94.0044C443.99 89.1035 436.815 86.6133 427.228 86.6133C397.968 86.6133 376.741 104.085 369.027 134.526L365.181 149.667C361.374 164.688 362.689 176.94 369.007 185.048C374.887 192.619 384.873 196.444 398.646 196.444C406.08 196.444 415.169 194.113 421.826 190.487C423.181 189.75 424.676 189.79 425.733 190.607C426.689 191.344 427.048 192.539 426.729 193.814L425.035 200.488C423.181 207.779 416.245 212.7 407.754 212.7C401.635 212.7 396.792 210.668 394.759 207.261C394.619 207.022 394.281 206.863 393.862 206.863H354.118V206.863ZM419.992 164.469C415.747 164.469 412.638 163.234 410.744 160.823C408.731 158.253 408.293 154.448 409.468 149.826L413.574 133.609C415.986 124.067 422.025 119.027 431.015 119.027C435.659 119.027 438.967 120.262 440.861 122.692C442.814 125.202 443.193 128.888 441.977 133.669L437.652 150.762C435.539 159.09 428.603 164.489 419.992 164.489V164.469ZM431.015 120.999C422.922 120.999 417.7 125.402 415.488 134.088L411.382 150.304C410.365 154.309 410.684 157.516 412.299 159.608C413.794 161.52 416.365 162.496 419.992 162.496C427.786 162.496 433.825 157.815 435.738 150.264L440.063 133.171C441.12 129.007 440.861 125.9 439.306 123.887C437.811 121.955 435.021 120.979 431.015 120.979V120.999Z" fill="#DA5E56"/>
<path d="M494.955 169.549C501.253 144.686 523.019 135.163 549.388 135.163C557.46 135.163 565.313 136.678 571.153 139.566C572.708 140.323 574.98 139.068 575.459 137.176L577.073 130.84C578.448 125.442 575.638 120.899 568.602 120.899C563.121 120.899 559.135 122.613 556.424 125.581C555.766 126.318 554.829 126.736 553.933 126.736H516.043C514.348 126.736 513.471 125.183 514.249 123.549C526.068 98.7858 550.385 85.6372 578.847 85.6372C613.787 85.6372 630.789 104.444 623.434 133.43L606.492 200.229C606.133 201.663 604.638 202.839 603.183 202.839H563.44C561.965 202.839 561.088 201.663 561.447 200.229C561.985 198.117 559.912 196.922 557.839 198.077C549.807 202.6 538.266 205.429 527.603 205.429C502.33 205.429 489.454 191.164 494.935 169.529L494.955 169.549ZM567.865 167.178C569.18 161.979 565.553 158.094 557.859 158.094C550.165 158.094 544.186 160.903 542.591 167.178C541.117 173.015 545.342 176.263 552.378 176.263C559.852 176.263 566.489 172.577 567.865 167.178Z" fill="#EDE4DF"/>
<path d="M527.603 206.425C514.01 206.425 503.725 202.44 497.845 194.89C492.743 188.335 491.407 179.47 493.978 169.31C498.044 153.293 510.96 134.187 549.368 134.187C557.819 134.187 565.692 135.781 571.572 138.69C571.951 138.889 572.489 138.849 573.027 138.61C573.745 138.271 574.303 137.634 574.482 136.956L576.096 130.621C576.714 128.191 576.395 125.999 575.2 124.465C573.884 122.792 571.612 121.895 568.602 121.895C563.639 121.895 559.792 123.37 557.142 126.258C556.304 127.175 555.089 127.733 553.933 127.733H516.043C514.926 127.733 513.97 127.234 513.432 126.378C512.854 125.461 512.834 124.246 513.352 123.15C525.012 98.7061 548.89 84.6809 578.847 84.6809C597.583 84.6809 611.615 89.9802 619.428 100.021C626.085 108.587 627.819 120.222 624.391 133.689L607.449 200.488C606.97 202.381 605.097 203.835 603.183 203.835H563.44C562.443 203.835 561.546 203.417 560.988 202.699C560.41 201.962 560.231 200.986 560.49 199.99C560.59 199.631 560.61 199.153 560.211 198.834C559.872 198.575 559.175 198.456 558.318 198.934C550.126 203.556 538.366 206.405 527.603 206.405V206.425ZM495.892 169.788C493.46 179.351 494.676 187.618 499.4 193.675C504.881 200.727 514.627 204.452 527.603 204.452C538.047 204.452 549.448 201.683 557.361 197.221C558.776 196.424 560.331 196.444 561.427 197.261C562.364 197.978 562.742 199.173 562.423 200.448C562.324 200.847 562.364 201.205 562.563 201.464C562.742 201.703 563.061 201.843 563.46 201.843H603.203C604.22 201.843 605.316 200.986 605.555 199.97L622.497 133.171C625.766 120.322 624.171 109.245 617.893 101.196C610.459 91.6536 596.965 86.6134 578.867 86.6134C549.687 86.6134 526.467 100.22 515.146 123.947C514.907 124.445 514.887 124.943 515.106 125.282C515.285 125.561 515.624 125.72 516.043 125.72H553.933C554.55 125.72 555.228 125.402 555.687 124.884C558.716 121.557 563.061 119.883 568.602 119.883C573.206 119.883 575.578 121.696 576.754 123.21C578.329 125.242 578.787 128.031 578.01 131.06L576.395 137.395C576.077 138.67 575.12 139.765 573.844 140.363C572.768 140.861 571.612 140.881 570.675 140.423C565.054 137.654 557.48 136.14 549.328 136.14C528.819 136.14 502.888 141.977 495.852 169.788H495.892ZM552.358 177.239C547.933 177.239 544.505 175.984 542.711 173.673C541.336 171.9 540.957 169.569 541.615 166.919C543.229 160.584 548.99 157.098 557.839 157.098C562.304 157.098 565.792 158.393 567.626 160.763C569.041 162.576 569.439 164.867 568.802 167.397C567.366 173.095 560.45 177.219 552.358 177.219V177.239ZM557.839 159.07C553.275 159.07 545.362 160.146 543.528 167.417C543.01 169.469 543.249 171.163 544.266 172.478C545.681 174.29 548.551 175.287 552.358 175.287C559.553 175.287 565.672 171.78 566.888 166.939C567.386 165.007 567.087 163.313 566.071 161.998C564.616 160.126 561.686 159.09 557.839 159.09V159.07Z" fill="#DA5E56"/>
<path d="M735.071 202.839H695.327C693.852 202.839 692.975 201.663 693.334 200.229L693.613 199.113C694.191 196.862 691.799 195.687 689.686 197.161C682.392 202.341 672.446 205.429 662.101 205.429C635.951 205.429 627.081 188.355 633.4 163.473L651.816 90.8368C652.175 89.4025 653.67 88.2271 655.125 88.2271H696.862C698.337 88.2271 699.214 89.4025 698.855 90.8368L681.754 158.293C680.219 164.349 682.81 168.015 689.387 168.015C695.327 168.015 700.33 164.768 702.024 158.074L719.066 90.8368C719.424 89.4025 720.919 88.2271 722.374 88.2271H764.111C765.586 88.2271 766.463 89.4025 766.104 90.8368L738.359 200.229C738.001 201.663 736.506 202.839 735.051 202.839H735.071Z" fill="#EDE4DF"/>
<path d="M662.121 206.425C650.142 206.425 641.352 202.958 636.031 196.125C630.151 188.575 628.915 177.219 632.463 163.254L650.88 90.6177C651.358 88.745 653.232 87.2708 655.145 87.2708H696.882C697.878 87.2708 698.775 87.6891 699.333 88.4063C699.911 89.1434 700.091 90.1196 699.832 91.1157L682.73 158.572C682.033 161.301 682.252 163.493 683.348 164.907C684.464 166.341 686.517 167.079 689.407 167.079C695.347 167.079 699.612 163.732 701.087 157.875L718.129 90.6376C718.607 88.7649 720.481 87.2907 722.394 87.2907H764.131C765.127 87.2907 766.024 87.709 766.582 88.4262C767.16 89.1634 767.34 90.1395 767.081 91.1356L739.336 200.528C738.858 202.42 736.984 203.875 735.071 203.875H695.327C694.331 203.875 693.434 203.456 692.875 202.739C692.297 202.002 692.118 201.026 692.377 200.03L692.656 198.894C692.756 198.516 692.776 198.018 692.337 197.719C691.919 197.42 691.102 197.4 690.264 197.998C682.71 203.377 672.446 206.465 662.121 206.465V206.425ZM655.145 89.2231C654.129 89.2231 653.032 90.0798 652.793 91.0958L634.376 163.732C630.988 177.079 632.104 187.857 637.585 194.91C642.508 201.245 650.78 204.452 662.121 204.452C672.067 204.452 681.913 201.504 689.128 196.364C690.544 195.348 692.238 195.228 693.454 196.065C694.49 196.782 694.909 198.018 694.57 199.352L694.291 200.488C694.191 200.886 694.231 201.245 694.43 201.504C694.61 201.743 694.928 201.882 695.327 201.882H735.071C736.087 201.882 737.183 201.026 737.423 200.01L765.167 90.6177C765.267 90.2192 765.227 89.8606 765.028 89.6016C764.848 89.3626 764.53 89.2231 764.131 89.2231H722.394C721.378 89.2231 720.281 90.0798 720.042 91.0958L703.001 158.333C701.307 165.027 696.224 169.031 689.407 169.031C685.86 169.031 683.308 168.035 681.794 166.102C680.299 164.19 679.96 161.421 680.817 158.074L697.918 90.6177C698.018 90.2192 697.978 89.8606 697.779 89.6016C697.599 89.3626 697.28 89.2231 696.882 89.2231H655.145V89.2231Z" fill="#DA5E56"/>
<path d="M789.225 88.2271H828.968C830.443 88.2271 831.32 89.4025 830.961 90.8369L830.643 92.072C830.065 94.3232 832.456 95.5186 834.529 94.0244C841.924 88.765 851.949 85.6372 862.374 85.6372C888.524 85.6372 897.832 102.73 891.514 127.593L873.097 200.229C872.738 201.663 871.243 202.839 869.788 202.839H828.051C826.577 202.839 825.7 201.663 826.058 200.229L844.116 128.988C844.395 127.932 843.997 126.936 843.06 126.557C833.393 122.613 824.205 125.123 821.773 134.705L805.17 200.209C804.811 201.643 803.316 202.819 801.861 202.819H760.125C758.65 202.819 757.773 201.643 758.132 200.209L785.876 90.8169C786.235 89.3826 787.73 88.2072 789.185 88.2072L789.225 88.2271Z" fill="#EDE4DF"/>
<path d="M869.808 203.835H828.071C827.075 203.835 826.178 203.417 825.62 202.699C825.042 201.962 824.862 200.986 825.122 199.99L843.18 128.749C843.299 128.27 843.239 127.693 842.721 127.474C837.439 125.322 832.456 125.163 828.689 127.075C825.739 128.569 823.686 131.299 822.75 134.964L806.147 200.468C805.668 202.341 803.795 203.815 801.881 203.815H760.145C759.148 203.815 758.251 203.397 757.693 202.679C757.115 201.942 756.936 200.966 757.195 199.97L784.939 90.5779C785.418 88.7052 787.291 87.231 789.205 87.231H828.948C829.945 87.231 830.842 87.6493 831.4 88.3665C831.978 89.1036 832.157 90.0798 831.898 91.0759L831.579 92.3111C831.48 92.6896 831.46 93.2076 831.898 93.5064C832.317 93.7853 833.114 93.8252 833.951 93.2275C841.625 87.7689 851.989 84.661 862.374 84.661C874.492 84.661 883.382 88.1872 888.803 95.14C894.703 102.73 895.978 114.026 892.49 127.832L874.073 200.468C873.595 202.361 871.722 203.815 869.808 203.815V203.835ZM834.669 123.788C837.439 123.788 840.409 124.406 843.479 125.661C844.834 126.218 845.492 127.693 845.113 129.247L827.055 200.488C826.955 200.886 826.995 201.245 827.194 201.504C827.374 201.743 827.693 201.883 828.091 201.883H869.828C870.845 201.883 871.941 201.026 872.18 200.01L890.597 127.374C893.945 114.186 892.789 103.467 887.268 96.3752C882.245 89.9204 873.874 86.6532 862.394 86.6532C852.408 86.6532 842.462 89.6415 835.127 94.8611C833.712 95.8572 832.018 95.9767 830.822 95.1599C829.786 94.4627 829.367 93.1877 829.706 91.8529L830.025 90.6376C830.124 90.2392 830.084 89.8806 829.885 89.6216C829.706 89.3825 829.387 89.2431 828.988 89.2431H789.245C788.228 89.2431 787.132 90.0997 786.893 91.1158L759.148 200.508C759.048 200.906 759.088 201.265 759.288 201.524C759.467 201.763 759.786 201.902 760.184 201.902H801.921C802.938 201.902 804.034 201.046 804.273 200.03L820.876 134.526C821.952 130.283 824.364 127.115 827.832 125.362C829.865 124.346 832.197 123.828 834.689 123.828L834.669 123.788Z" fill="#DA5E56"/>
<path d="M930.061 202.839C906.104 202.839 899.446 188.355 904.828 167.158L915.511 125.003C915.87 123.569 914.993 122.393 913.518 122.393H906.084C904.609 122.393 903.732 121.218 904.09 119.784L911.425 90.8368C911.784 89.4024 913.279 88.227 914.734 88.227H922.168C923.643 88.227 925.118 87.0516 925.477 85.6172L931.935 60.1369C932.294 58.7025 933.788 57.5271 935.243 57.5271H976.98C978.455 57.5271 979.332 58.7025 978.973 60.1369L972.516 85.6172C972.157 87.0516 973.034 88.227 974.509 88.227H987.444C988.919 88.227 989.796 89.4024 989.437 90.8368L982.103 119.784C981.744 121.218 980.249 122.393 978.794 122.393H965.858C964.383 122.393 962.909 123.569 962.55 125.003L953.062 162.397C952.185 165.863 953.899 166.939 956.53 166.939H965.3C966.775 166.939 967.652 168.115 967.293 169.549L959.52 200.229C959.161 201.663 957.666 202.839 956.211 202.839H930.081H930.061Z" fill="#EDE4DF"/>
<path d="M956.192 203.835H930.061C919.119 203.835 911.226 200.847 906.662 194.97C901.699 188.594 900.762 179.171 903.871 166.919L914.555 124.764C914.654 124.366 914.614 124.007 914.415 123.748C914.236 123.509 913.917 123.37 913.518 123.37H906.084C905.087 123.37 904.19 122.951 903.632 122.234C903.054 121.497 902.875 120.521 903.134 119.525L910.469 90.5778C910.947 88.7052 912.821 87.2309 914.734 87.2309H922.168C923.185 87.2309 924.281 86.3743 924.52 85.3583L930.978 59.8779C931.457 57.9853 933.33 56.531 935.244 56.531H976.98C977.977 56.531 978.874 56.9494 979.432 57.6666C980.01 58.4037 980.189 59.3799 979.93 60.376L973.472 85.8563C973.373 86.2547 973.413 86.6133 973.612 86.8723C973.791 87.1114 974.11 87.2509 974.509 87.2509H987.444C988.441 87.2509 989.338 87.6692 989.896 88.3864C990.474 89.1235 990.653 90.0997 990.394 91.0958L983.059 120.043C982.581 121.915 980.707 123.389 978.794 123.389H965.858C964.842 123.389 963.746 124.246 963.507 125.262L954.019 162.656C953.8 163.493 953.66 164.628 954.139 165.246C954.517 165.724 955.315 165.983 956.53 165.983H965.3C966.297 165.983 967.194 166.401 967.752 167.118C968.33 167.856 968.509 168.832 968.25 169.828L960.477 200.508C959.999 202.4 958.125 203.855 956.212 203.855L956.192 203.835ZM914.734 89.2231C913.717 89.2231 912.621 90.0798 912.382 91.0958L905.047 120.043C904.948 120.441 904.987 120.8 905.187 121.059C905.366 121.298 905.685 121.437 906.084 121.437H913.518C914.515 121.437 915.412 121.855 915.97 122.573C916.548 123.31 916.727 124.286 916.468 125.282L905.785 167.437C902.835 179.052 903.652 187.917 908.216 193.794C912.402 199.173 919.757 201.902 930.061 201.902H956.192C957.208 201.902 958.304 201.046 958.544 200.03L966.317 169.35C966.417 168.951 966.377 168.593 966.177 168.334C965.998 168.095 965.679 167.955 965.28 167.955H956.511C954.657 167.955 953.341 167.457 952.564 166.461C951.787 165.465 951.627 164.011 952.086 162.178L961.573 124.784C962.052 122.911 963.925 121.437 965.839 121.437H978.774C979.791 121.437 980.887 120.58 981.126 119.564L988.461 90.6177C988.561 90.2192 988.521 89.8606 988.321 89.6017C988.142 89.3626 987.823 89.2231 987.424 89.2231H974.489C973.492 89.2231 972.595 88.8048 972.037 88.0876C971.459 87.3505 971.28 86.3743 971.539 85.3782L977.997 59.8978C978.096 59.4994 978.057 59.1408 977.857 58.8818C977.678 58.6427 977.359 58.5033 976.96 58.5033H935.224C934.207 58.5033 933.111 59.3599 932.872 60.376L926.414 85.8563C925.936 87.7489 924.062 89.2032 922.148 89.2032H914.714L914.734 89.2231Z" fill="#DA5E56"/>
<path d="M1018.24 44.9961H1059.98C1061.45 44.9961 1062.33 46.1715 1061.97 47.6059L1023.26 200.249C1022.9 201.683 1021.41 202.859 1019.95 202.859H978.216C976.741 202.859 975.864 201.683 976.223 200.249L1014.93 47.6059C1015.29 46.1715 1016.78 44.9961 1018.24 44.9961V44.9961Z" fill="#EDE4DF"/>
<path d="M1019.93 203.835H978.196C977.2 203.835 976.303 203.416 975.745 202.699C975.167 201.962 974.987 200.986 975.246 199.99L1013.95 47.3469C1014.43 45.4543 1016.31 44 1018.22 44H1059.96C1060.95 44 1061.85 44.4184 1062.41 45.1356C1062.98 45.8727 1063.16 46.8489 1062.91 47.845L1024.2 200.488C1023.72 202.381 1021.85 203.835 1019.93 203.835V203.835ZM1018.24 45.9723C1017.22 45.9723 1016.13 46.8289 1015.89 47.845L977.18 200.488C977.08 200.886 977.12 201.245 977.319 201.504C977.498 201.743 977.817 201.882 978.216 201.882H1019.95C1020.97 201.882 1022.07 201.026 1022.3 200.01L1061.01 47.3668C1061.11 46.9684 1061.07 46.6098 1060.87 46.3508C1060.69 46.1117 1060.37 45.9723 1059.98 45.9723H1018.24V45.9723Z" fill="#DA5E56"/>
<path d="M1050.37 153.113L1054 138.849C1062.11 106.834 1087.04 85.657 1124.63 85.657C1162.22 85.657 1173.76 108.587 1166.47 137.335L1162.08 154.627C1161.73 156.062 1160.23 157.237 1158.78 157.237H1097.71C1096.23 157.237 1094.76 158.412 1094.4 159.847L1093.86 161.998C1092.16 168.692 1094.96 174.111 1103.33 174.111C1109.29 174.111 1113.51 171.641 1116.1 168.692C1116.8 167.895 1117.78 167.397 1118.71 167.397H1155.21C1156.92 167.397 1157.8 168.971 1157 170.605C1147.28 190.268 1123.76 205.468 1095.39 205.468C1060.45 205.468 1041.54 188.176 1050.41 153.133L1050.37 153.113ZM1103.67 133.649H1120.99C1122.46 133.649 1123.94 132.474 1124.29 131.039L1124.83 128.888C1126.59 121.975 1125.11 116.556 1116.74 116.556C1108.37 116.556 1104 121.736 1102.01 129.525L1101.63 131.02C1101.27 132.454 1102.15 133.629 1103.63 133.629L1103.67 133.649Z" fill="#EDE4DF"/>
<path d="M1095.33 206.425C1076.1 206.425 1061.85 201.165 1054.08 191.184C1046.86 181.921 1045.29 169.031 1049.39 152.854L1053.02 138.59C1061.59 104.822 1088.34 84.641 1124.61 84.641C1141.69 84.641 1154.69 89.7211 1162.16 99.3236C1169.54 108.787 1171.35 122.015 1167.41 137.554L1163.02 154.826C1162.54 156.719 1160.67 158.173 1158.76 158.173H1097.69C1096.67 158.173 1095.57 159.03 1095.33 160.046L1094.8 162.198C1093.96 165.465 1094.32 168.314 1095.79 170.206C1097.25 172.079 1099.86 173.075 1103.31 173.075C1109.88 173.075 1113.67 169.888 1115.35 167.995C1116.24 166.979 1117.5 166.381 1118.69 166.381H1155.19C1156.32 166.381 1157.28 166.879 1157.82 167.756C1158.4 168.672 1158.4 169.888 1157.86 171.003C1147.38 192.18 1122.26 206.405 1095.35 206.405L1095.33 206.425ZM1051.31 153.352C1047.36 168.911 1048.81 181.223 1055.63 189.989C1063 199.452 1076.74 204.472 1095.33 204.472C1121.5 204.472 1145.9 190.686 1156.07 170.166C1156.3 169.668 1156.32 169.17 1156.13 168.832C1155.95 168.533 1155.61 168.373 1155.17 168.373H1118.67C1118.04 168.373 1117.32 168.732 1116.8 169.33C1114.91 171.481 1110.64 175.087 1103.29 175.087C1099.2 175.087 1096.07 173.832 1094.22 171.461C1092.36 169.071 1091.89 165.644 1092.86 161.759L1093.4 159.608C1093.88 157.735 1095.75 156.261 1097.67 156.261H1158.74C1159.75 156.261 1160.85 155.404 1161.09 154.388L1165.47 137.116C1169.26 122.194 1167.57 109.564 1160.59 100.579C1153.49 91.4743 1141.06 86.6531 1124.59 86.6531C1089.29 86.6531 1063.24 106.256 1054.91 139.108L1051.29 153.372L1051.31 153.352ZM1120.99 134.625H1103.65C1102.65 134.625 1101.75 134.207 1101.19 133.49C1100.62 132.753 1100.44 131.777 1100.7 130.781L1101.07 129.286C1103.35 120.321 1108.77 115.56 1116.74 115.56C1120.49 115.56 1123.2 116.616 1124.81 118.668C1126.63 120.999 1126.95 124.505 1125.79 129.107L1125.25 131.259C1124.77 133.131 1122.9 134.606 1120.99 134.606V134.625ZM1116.76 117.532C1109.68 117.532 1105.06 121.656 1102.99 129.765L1102.61 131.259C1102.51 131.657 1102.55 132.016 1102.75 132.275C1102.93 132.514 1103.25 132.653 1103.65 132.653H1120.99C1122 132.653 1123.1 131.797 1123.34 130.781L1123.88 128.629C1124.89 124.645 1124.67 121.696 1123.26 119.883C1122.04 118.329 1119.85 117.532 1116.74 117.532H1116.76Z" fill="#DA5E56"/>
<path d="M1205.89 202.839C1181.94 202.839 1175.28 188.355 1180.66 167.158L1191.34 125.003C1191.7 123.569 1190.83 122.393 1189.35 122.393H1181.92C1180.44 122.393 1179.56 121.218 1179.92 119.784L1187.26 90.8368C1187.62 89.4024 1189.11 88.227 1190.57 88.227H1198C1199.48 88.227 1200.95 87.0516 1201.31 85.6172L1207.77 60.1369C1208.13 58.7025 1209.62 57.5271 1211.08 57.5271H1252.81C1254.29 57.5271 1255.17 58.7025 1254.81 60.1369L1248.35 85.6172C1247.99 87.0516 1248.87 88.227 1250.34 88.227H1263.28C1264.75 88.227 1265.63 89.4024 1265.27 90.8368L1257.94 119.784C1257.58 121.218 1256.08 122.393 1254.63 122.393H1241.69C1240.22 122.393 1238.74 123.569 1238.38 125.003L1228.9 162.397C1228.02 165.863 1229.71 166.939 1232.36 166.939H1241.13C1242.61 166.939 1243.49 168.115 1243.13 169.549L1235.35 200.229C1234.99 201.663 1233.5 202.839 1232.04 202.839H1205.91H1205.89Z" fill="#EDE4DF"/>
<path d="M1232.04 203.835H1205.89C1194.95 203.835 1187.08 200.847 1182.49 194.97C1177.53 188.614 1176.59 179.171 1179.7 166.919L1190.39 124.764C1190.49 124.366 1190.45 124.007 1190.25 123.748C1190.07 123.509 1189.75 123.37 1189.35 123.37H1181.92C1180.92 123.37 1180.02 122.951 1179.47 122.234C1178.89 121.497 1178.71 120.521 1178.97 119.525L1186.3 90.5778C1186.78 88.7052 1188.65 87.2309 1190.57 87.2309H1198C1199.02 87.2309 1200.11 86.3743 1200.35 85.3583L1206.81 59.8779C1207.29 57.9853 1209.16 56.531 1211.08 56.531H1252.81C1253.81 56.531 1254.71 56.9494 1255.26 57.6666C1255.84 58.4037 1256.02 59.3799 1255.76 60.376L1249.31 85.8563C1249.21 86.2547 1249.25 86.6133 1249.44 86.8723C1249.62 87.1114 1249.94 87.2509 1250.34 87.2509H1263.28C1264.27 87.2509 1265.17 87.6692 1265.73 88.3864C1266.31 89.1235 1266.49 90.0997 1266.23 91.0958L1258.89 120.043C1258.41 121.915 1256.54 123.389 1254.63 123.389H1241.69C1240.67 123.389 1239.58 124.246 1239.34 125.262L1229.85 162.656C1229.63 163.493 1229.49 164.628 1229.97 165.246C1230.35 165.724 1231.15 165.983 1232.36 165.983H1241.13C1242.13 165.983 1243.03 166.401 1243.59 167.118C1244.16 167.856 1244.34 168.832 1244.08 169.828L1236.31 200.508C1235.83 202.4 1233.96 203.855 1232.04 203.855V203.835ZM1190.59 89.2231C1189.57 89.2231 1188.47 90.0798 1188.23 91.0958L1180.9 120.043C1180.8 120.441 1180.84 120.8 1181.04 121.059C1181.22 121.298 1181.54 121.437 1181.94 121.437H1189.37C1190.37 121.437 1191.26 121.855 1191.82 122.573C1192.4 123.31 1192.58 124.286 1192.32 125.282L1181.64 167.437C1178.69 179.052 1179.5 187.917 1184.07 193.794C1188.25 199.173 1195.61 201.902 1205.91 201.902H1232.06C1233.08 201.902 1234.18 201.046 1234.42 200.03L1242.19 169.35C1242.29 168.951 1242.25 168.593 1242.05 168.334C1241.87 168.095 1241.55 167.955 1241.15 167.955H1232.38C1230.53 167.955 1229.21 167.457 1228.44 166.461C1227.66 165.465 1227.5 164.031 1227.96 162.178L1237.45 124.784C1237.92 122.911 1239.8 121.437 1241.71 121.437H1254.65C1255.66 121.437 1256.76 120.58 1257 119.564L1264.33 90.6177C1264.43 90.2192 1264.39 89.8606 1264.19 89.6017C1264.01 89.3626 1263.7 89.2231 1263.3 89.2231H1250.36C1249.37 89.2231 1248.47 88.8048 1247.91 88.0876C1247.33 87.3505 1247.15 86.3743 1247.41 85.3782L1253.87 59.8978C1253.97 59.4994 1253.93 59.1408 1253.73 58.8818C1253.55 58.6427 1253.23 58.5033 1252.83 58.5033H1211.1C1210.08 58.5033 1208.98 59.3599 1208.74 60.376L1202.29 85.8563C1201.81 87.7489 1199.93 89.2032 1198.02 89.2032H1190.59V89.2231Z" fill="#DA5E56"/>
<g clip-path="url(#clip0_75_2114)">
<path d="M45.2434 312.48C39.63 312.421 33.8484 312.094 28.6811 309.88C22.7732 307.347 18.0098 302.231 14.1386 297.257C7.3975 288.602 -1.27078 278.806 0.715352 267.08C1.55693 262.107 2.72673 257.326 4.50246 251.589L9.39204 228.91C10.1074 225.581 12.0683 223.761 9.24056 220.917C5.9079 217.563 3.14752 213.579 1.58218 209.125C-1.48117 200.352 2.24703 189.751 4.15741 180.886C6.82522 168.506 9.50145 156.127 12.1693 143.747C15.5524 128.063 18.9356 112.379 22.3187 96.7038C25.4746 82.0934 28.6221 67.483 31.7781 52.8725C33.7558 43.7054 35.7335 34.5466 37.7112 25.3795C37.9637 24.1969 38.2246 23.0143 38.4771 21.8317C41.1533 9.42711 54.2903 0.419312 69.6997 0.419312H261.698C264.98 0.419312 268.245 0.838669 271.384 1.66061C284.059 4.26901 289.352 11.7671 291.347 14.602L291.422 14.7026C291.515 14.8368 291.616 14.9794 291.725 15.122L301.471 28.0885C309.079 38.2034 306.293 48.3351 304.955 53.1996C304.812 53.728 304.644 54.3319 304.576 54.6254L298.214 84.0979C297.061 89.4489 294.141 94.3721 289.748 98.4064L290.219 99.0354C292.171 101.644 293.509 104.512 294.191 107.565C295.437 113.126 294.166 117.873 293.484 120.423L293.434 120.616C293.4 120.741 293.366 120.859 293.341 120.976C288.864 141.734 284.909 162.509 280.852 183.351C276.173 207.381 270.24 231.452 265.056 255.498L257.936 288.501C254.923 302.449 240.162 312.581 222.825 312.581H139.046C108.791 312.581 78.5531 312.606 48.2983 312.505C47.28 312.505 46.2533 312.505 45.2181 312.488L45.2434 312.48Z" fill="#645CA0" stroke="#302E35" stroke-miterlimit="10"/>
<path d="M282.771 32.7098C281.559 30.504 280.061 28.4156 278.58 26.3691C274.961 21.3704 271.14 16.1871 265.636 13.3774C260.132 10.5677 253.686 10.509 247.5 10.509C189.633 10.5174 131.766 10.5258 73.8991 10.5342C66.165 10.5342 57.2947 11.0626 52.5566 17.1517C50.0235 20.4059 49.4764 24.264 48.618 28.1808C47.5913 32.8356 46.5646 37.4821 45.5379 42.137C43.2403 52.5538 40.9597 62.979 38.7126 73.4043C35.3968 88.7863 32.081 104.168 28.7736 119.55C25.6681 133.968 21.9989 148.385 19.432 162.904C18.3464 169.026 17.0588 174.872 15.3756 180.886C13.684 186.958 12.2365 193.374 13.7766 199.639C15.4177 206.315 20.1558 211.734 24.7424 216.866C20.2568 229.263 16.7558 242.019 14.2732 254.961C13.5241 258.853 12.8761 262.862 13.6504 266.745C14.8033 272.498 18.5484 277.438 22.2008 281.875C25.5587 285.96 29.0429 290.12 34.0503 292.233C38.4433 294.087 43.3582 294.112 48.1299 294.112C102.042 294.095 155.953 294.079 209.865 294.062C219.156 294.062 229.785 293.441 235.541 286.169C238.478 282.462 239.53 277.657 240.507 273.035C251.279 221.966 262.051 170.896 272.815 119.836C273.85 114.929 274.868 109.712 273.135 105.007C272.041 102.038 269.878 99.3541 269.827 96.1922C269.777 93.1896 271.645 90.5476 273.219 87.9895C279.901 77.103 282.224 64.1952 284.429 51.6312C285.203 47.2028 285.986 42.6234 284.976 38.2369C284.53 36.2827 283.747 34.4543 282.788 32.7014L282.771 32.7098Z" fill="#63AECE" stroke="#302E35" stroke-miterlimit="10"/>
<path d="M263.128 38.8995C260.099 34.8737 257.069 30.8479 254.048 26.8136C250.698 22.3601 243.73 21.2026 238.487 21.2026H73.2343C66.6784 21.2026 61.0819 25.1027 59.9205 30.4788L59.6849 31.5524C59.4661 32.5756 59.2388 33.6072 59.02 34.6305L57.968 39.495C57.5052 41.6337 57.0423 43.7725 56.5794 45.9196C56.024 48.5028 55.4601 51.0944 54.9047 53.6777C54.2651 56.6383 53.6255 59.599 52.9859 62.5597C52.279 65.8223 51.5805 69.0765 50.8735 72.3391C50.1245 75.8281 49.3671 79.3088 48.6181 82.7979C47.8691 86.2869 47.0443 90.0779 46.2617 93.7179C45.479 97.3579 44.6543 101.149 43.8548 104.873C43.0553 108.597 42.2473 112.321 41.4478 116.045C40.6567 119.701 39.8741 123.35 39.083 127.007C38.3256 130.521 37.5681 134.035 36.8107 137.549C36.0954 140.845 35.3885 144.141 34.6731 147.438C34.0251 150.449 33.3771 153.451 32.7291 156.462L31.0122 164.396L29.5816 171.022C29.2113 172.725 28.8494 174.419 28.4791 176.122L27.7553 179.477C27.2756 181.716 27.2672 183.796 27.6459 186.044C28.2098 189.306 29.2618 192.435 30.7598 195.387C32.2578 198.339 34.1177 201.099 36.1038 203.749C37.5597 205.695 38.9483 207.976 41.3048 208.907C42.9711 209.561 44.8057 209.553 46.5899 209.536C51.328 209.494 56.0577 209.452 60.7958 209.452H76.7858C96.2347 209.452 113.226 209.955 132.675 209.955H140.493C144.962 209.955 148.783 207.339 149.557 203.741L152.974 187.897C153.774 184.19 153.959 181.984 154.758 178.277C155.086 176.742 155.423 175.207 155.751 173.664C156.122 171.97 156.391 170.225 155.566 168.489C153.218 163.541 149.195 159.54 145.097 156.009C140.931 152.411 136.95 149.031 131.127 149.031H108.202L121.087 89.3231C121.861 85.725 125.682 83.1082 130.15 83.1082L247.829 83.6114C252.297 83.6114 256.118 80.9946 256.892 77.3965C258.02 72.1713 259.148 66.9461 260.275 61.7209C261.125 57.7874 261.975 53.8622 262.817 49.9286C263.591 46.3221 265.586 42.1705 263.112 38.8827L263.128 38.8995Z" fill="#DA5E56" stroke="#302E35" stroke-miterlimit="10"/>
<path d="M251.986 104.026C248.594 99.6309 245.287 93.3657 240.599 90.2373C236.837 87.7211 231.207 86.3876 226.688 86.3876H141.183C134.628 86.3876 129.023 90.2876 127.87 95.6638C126.809 100.579 125.749 105.502 124.689 110.417C124.167 112.824 123.586 115.231 123.123 117.655C122.307 121.983 124.074 125.841 125.555 129.774C127.297 134.412 129.149 139.176 131.665 143.471C132.515 144.921 134.013 147.203 135.814 147.463C140.923 148.201 156.458 148.302 156.458 148.302C157.342 148.302 167.946 148.545 171.708 148.436L159.084 206.936C158.175 211.163 153.614 214.233 148.236 214.233H46.1186C39.5627 214.233 33.9578 218.133 32.8048 223.509C31.9211 227.594 31.0459 231.678 30.1622 235.763C29.2197 240.141 28.2771 244.519 27.5365 248.93C27.2419 250.683 26.8212 252.327 27.183 254.105C27.5449 255.883 28.2771 257.477 29.1355 259.003C29.5815 259.8 30.0697 260.572 30.6167 261.302C32.8553 264.958 35.9102 268.414 38.5191 271.903C39.8909 273.74 40.0003 273.916 42.1463 274.134C44.6879 274.394 47.4819 274.134 50.0488 274.134H210.311C214.78 274.134 218.6 271.517 219.375 267.919C219.989 265.067 220.603 262.207 221.218 259.356C222.817 251.958 224.407 244.561 226.006 237.155C228.211 226.948 230.408 218.745 232.613 208.538C235.045 197.266 237.477 185.985 239.909 174.713C244.454 153.636 247.786 132.341 252.474 111.289C253.021 108.832 253.661 106.19 251.977 104.017L251.986 104.026Z" fill="#DA5E56" stroke="#302E35" stroke-miterlimit="10"/>
<path d="M93.9456 139.386L108.008 74.2095C109.044 69.4204 114.135 65.923 120.093 65.923H234.464C240.414 65.923 245.514 62.4255 246.549 57.6365L251.414 35.075C252.735 28.9356 246.962 23.3079 239.329 23.3079H74.0759C68.1259 23.3079 63.026 26.8053 61.9908 31.5944L29.5395 181.993C28.2182 188.132 33.9914 193.76 41.6246 193.76H127.129C133.079 193.76 138.179 190.262 139.214 185.473L144.079 162.912C145.4 156.773 139.627 151.145 131.993 151.145H106.022C98.3976 151.145 92.6159 145.517 93.9372 139.378L93.9456 139.386Z" fill="#EDE4DF"/>
<path d="M175.209 142.867L161.146 208.043C160.111 212.832 155.019 216.33 149.061 216.33H46.9602C41.0102 216.33 35.9102 219.827 34.8751 224.616L30.0107 247.178C28.6895 253.317 34.4627 258.945 42.0958 258.945H195.078C201.028 258.945 206.128 255.447 207.163 250.658L239.615 100.252C240.936 94.1122 235.163 88.4844 227.53 88.4844H142.025C136.075 88.4844 130.975 91.9818 129.94 96.7709L125.076 119.332C123.754 125.472 129.528 131.099 137.161 131.099H163.132C170.757 131.099 176.538 136.727 175.217 142.867H175.209Z" fill="#EDE4DF"/>
</g>
<defs>
<clipPath id="clip0_75_2114">
<rect width="307" height="313" fill="white"/>
</clipPath>
</defs>
</svg>
