<svg viewBox="0 0 1512 196" fill="none" xmlns="http://www.w3.org/2000/svg">
<path d="M1512 146.921V195.125H0V77.0382H187.256C203.615 77.0382 216.537 87.5723 217.531 100.33H218.401L217.181 106.018L217.143 106.205L217.124 106.294L208.781 145.173L208.736 145.391C205.731 160.416 219.7 174.127 238.206 174.35H290.02L290.121 174.35H474.224C488.585 174.163 500.827 165.71 503.527 154.112L509.119 128.043C511.678 116.132 524.271 107.448 538.987 107.448H736.018L736.132 107.448H862.907C877.408 107.254 889.745 98.6323 892.275 86.8565L906.491 20.595C909.05 8.68394 921.643 0.000106812 936.359 0.000106812H1133.43L1133.5 0H1344.87C1351.82 0 1358.15 1.90119 1363.21 5.06623C1370.16 9.41453 1374.71 16.1486 1375.17 23.6162C1375.29 25.4595 1375.15 27.3475 1374.74 29.2555L1362.71 85.3419L1362.7 85.3913L1355.77 117.668C1352.52 132.818 1366.58 146.715 1385.22 146.921L1512 146.921Z" fill="#EDE4DF"/>
</svg>