<svg class="margin-v-md img-responsive" xmlns="http://www.w3.org/2000/svg" viewBox="0 0 1207.8 158.3"><defs><style>.cls-1{fill:#ff5000;}.cls-2{fill:#FFFFFF;}.cls-3{fill:#fff;}</style></defs><title>CCV Special Needs</title><g id="Layer_2" data-name="Layer 2"><g id="Layer_1-2" data-name="Layer 1"><path class="cls-1" d="M53.5,23.8,9.3,23.3a7.43,7.43,0,0,0-7.6,7.4L0,129.3a7.37,7.37,0,0,0,7.4,7.6l42.1.6C45.7,111.7,50.4,61.4,53.5,23.8Z"/><path class="cls-1" d="M1179.4,111.4c0-7.9,6.4-12.9,14.2-12.9s14.2,5.1,14.2,12.9-6.3,12.8-14.2,12.8S1179.4,119.1,1179.4,111.4Z"/><path class="cls-2" d="M60.6,62.6c0-18.1,11.8-26.1,36.5-26.1h3c11.7,0,27.8,1.5,39.1,5.3V66.4H113.9l-2.1-8.5a44,44,0,0,0-11.5-1.1c-7.2,0-11,1.5-11,5.4v1c0,4.8,3.9,4.4,27.1,8.9,19.1,3.6,25.8,10.7,25.8,21.8v5.6c0,20.5-11.7,29.6-36.3,29.6H99.5c-11.7,0-28.3-1.5-38.8-8.9V95.9H85.3l.8,6.2C88.2,106,94,108,98.4,108h4.8c5.7,0,9-2.3,9-6.9V99.8c0-4.8-2.8-5.6-25.5-9.7-21-3.8-26.1-11.5-26.1-24Z"/><path class="cls-2" d="M219.8,36.5c14.3,0,24.5,9.4,24.5,33.2V99.8c0,19.4-11.8,28.3-26,28.3h-2.6c-11.8,0-17.4-3-27.3-6.4V135c3.1.5,9,1,12.3,1.6v21.7H148.1V136.6c3.3-.7,6.2-1.1,9.4-1.6V61.9c-3-.5-5.9-1.1-9-1.8V38.4h39.9v9.9c8-5.3,17.4-11.8,28.9-11.8Zm-6.4,42c0-13.1-1-15.9-9.2-15.9H202c-4.4,0-8.9,1.5-13.6,4.3v33.8a26.89,26.89,0,0,0,13.3,3.3h2.5c7.9,0,9.2-3,9.2-17.2Z"/><path class="cls-2" d="M299.6,36.5c26.9,0,39.1,11.3,39.1,36.1V93.1h-56v3.8c0,7.9,5.1,10.7,11.5,10.7h5.9c5.6,0,9.2-1.3,10.7-6.1l.8-4.1h24.6v20.7c-10.3,7.4-23.3,10.8-36.1,10.8h-5.4c-31.2,0-42.4-11.5-42.4-41.7v-13c0-26.1,13.6-37.8,41.7-37.8h5.6Zm11.3,30.4c0-6.6-4.9-10-11.7-10h-4.8c-7.2,0-11.8,3.8-11.8,10.5v7.7h28.3Z"/><path class="cls-2" d="M428.5,118.1c-10.3,6.4-23.2,10.8-36,10.8h-8c-26,0-37.5-12-37.5-36.8V71c0-22.7,14.1-34.5,37.5-34.5h9.4c12,0,20.9,1.5,33.7,4.1V74.3H404.4l-2.6-14.6c-3.9-.3-7.1-.5-12.2-.5-7.6,0-11.7,3.3-11.7,13.1V94.5c0,9.7,4.6,11.7,11,11.7h3c5.6,0,9.2-2,10.8-6.7l.7-3h25.1v21.6Z"/><path class="cls-2" d="M478.1,103.3c3.1.5,6.1,1,9.4,1.6v21.7H437.9V105c3.3-.7,6.2-1.1,9.4-1.6V61.9c-3-.5-5.9-1.1-9-1.8V38.4h39.9v64.9ZM445.4,15.6c0-9.5,7.7-15.6,17.1-15.6s17.2,6.1,17.2,15.6S472,31.2,462.5,31.2C453.2,31.2,445.4,25,445.4,15.6Z"/><path class="cls-2" d="M589.2,104.8v21.7H549.1V116c-7.7,6.4-15.9,12-27.4,12h-2.5c-14.8,0-24.6-1.8-24.6-25V99.4c0-19.5,11.8-22,26-23.7,11.7-1.3,17.4-1.8,28.6-3V69.3c0-7.7-3.8-10.7-11.2-10.7a62.79,62.79,0,0,0-12.2,1l-1.3,7.7h-23V40.2a235.23,235.23,0,0,1,40.6-3.8H550c18.9,0,30.1,12.2,30.1,31.5v35.2Zm-53.6.8c4.4,0,9.9-3,13.5-6.2V86.2c-3.9.7-9.4,1.3-14.8,2.5-5.9,1-8.2,3.3-8.2,7.6V99c0,4.8,2,6.6,7.4,6.6Z"/><path class="cls-2" d="M634.8,103.3c3.1.5,6.1,1,9.4,1.6v21.7H594.6V105c3.3-.7,6.2-1.1,9.4-1.6V35.2c-3-.5-5.9-1.1-9-1.8V11.7h39.9v91.6Z"/><path class="cls-2" d="M787.4,103.2c2.1.5,4.9,1,9.7,1.8v21.7H756.5V77.5c0-13-.7-14.9-8.7-14.9h-2c-4.4,0-9.5,2.1-14.3,4.9v35.8c3.1.5,6.1,1,9.4,1.6v21.7H691.3V105c3.3-.7,6.2-1.1,9.4-1.6V61.9c-3-.5-5.9-1.1-9-1.8V38.4h39.9V50.1c8.4-6.2,19.4-13.6,30.9-13.6h2.1c14.3,0,22.8,8.5,22.8,24v42.7Z"/><path class="cls-2" d="M849.7,36.5c26.9,0,39.1,11.3,39.1,36.1V93.1h-56v3.8c0,7.9,5.1,10.7,11.5,10.7h5.9c5.6,0,9.2-1.3,10.7-6.1l.8-4.1h24.6v20.7c-10.3,7.4-23.3,10.8-36.1,10.8h-5.4c-31.2,0-42.4-11.5-42.4-41.7v-13c0-26.1,13.6-37.8,41.7-37.8h5.6ZM861,66.9c0-6.6-4.9-10-11.7-10h-4.8c-7.2,0-11.8,3.8-11.8,10.5v7.7H861Z"/><path class="cls-2" d="M944.4,36.5c26.9,0,39.1,11.3,39.1,36.1V93.1h-56v3.8c0,7.9,5.1,10.7,11.5,10.7h5.9c5.6,0,9.2-1.3,10.7-6.1l.8-4.1H981v20.7c-10.3,7.4-23.3,10.8-36.1,10.8h-5.4c-31.2,0-42.4-11.5-42.4-41.7v-13c0-26.1,13.6-37.8,41.7-37.8h5.6Zm11.4,30.4c0-6.6-4.9-10-11.7-10h-4.8c-7.2,0-11.8,3.8-11.8,10.5v7.7h28.3Z"/><path class="cls-2" d="M1087.8,104.8v21.7h-40.2V115c-7.9,6.2-17.1,13-28.6,13h-2.5c-14.1,0-24.6-9.5-24.6-33.3V66.2c0-19.2,11.8-29.4,26-29.4h2.5c12,0,17.1,2.5,27.3,7.9v-12c-2.3-.5-5.3-1.3-9.7-2v-19h40.6v91.5Zm-53.5-3.1c4.4,0,8.5-1.3,13.3-4.3V65a27,27,0,0,0-13.3-3h-2.1c-8.2,0-9.4,4.1-9.4,11.8v12c0,13.1,1.3,15.8,9.4,15.8h2.1Z"/><path class="cls-2" d="M1095.2,62.6c0-18.1,11.8-26.1,36.5-26.1h3c11.7,0,27.8,1.5,39.1,5.3V66.4h-25.3l-2.1-8.5a44,44,0,0,0-11.5-1.1c-7.2,0-11,1.5-11,5.4v1c0,4.8,3.9,4.4,27.1,8.9,19.1,3.6,25.8,10.7,25.8,21.8v5.6c0,20.5-11.7,29.6-36.3,29.6h-6.4c-11.7,0-28.3-1.5-38.8-8.9V95.9h24.6l.8,6.2c2.1,3.9,7.9,5.9,12.3,5.9h4.8c5.7,0,9-2.3,9-6.9V99.8c0-4.8-2.8-5.6-25.5-9.7-21-3.8-26.1-11.5-26.1-24Z"/><path class="cls-3" d="M17,119.5c-.7,1.2-3.5.5-4.7-.4-1.5-1.1-2.4-2.4-1.9-3.5.7-1.4,2.9-1,4.2-.2C15.7,116,17.9,117.7,17,119.5Z"/><path class="cls-3" d="M10.6,58.6c.6-1.4,2.9-1,4.2-.2,1.1.7,3.3,2.4,2.4,4.1-.7,1.2-3.5.5-4.6-.4C11.1,61,10.1,59.7,10.6,58.6Z"/><path class="cls-3" d="M14.9,93c1.1.7,3.3,2.4,2.4,4.1-.7,1.2-3.5.5-4.7-.4-1.5-1.1-2.4-2.4-1.9-3.5C11.3,91.8,13.6,92.2,14.9,93Z"/><path class="cls-3" d="M24.5,121.9c-6.6-1-12.7-15.4-10.6-17.1,1.9-1.5,3.1,7.5,11.2,10.9,7.7,3.2,13.5-8.5,14.8-7.7C42.9,109.6,32.6,123.1,24.5,121.9Z"/><path class="cls-3" d="M24.9,99.7c-6.7-1-12.7-15.4-10.7-17.1,1.9-1.5,3.1,7.5,11.2,10.9,7.7,3.2,13.7-8.6,14.8-7.7C43.4,88,33.1,100.9,24.9,99.7Z"/><path class="cls-3" d="M41,66.7c-.1,1.1.2,1.8-.5,2.1s-8.3-.2-13.5.9c-4.8,1-12,7.3-13.1,7-.5-.1-.7-.2-.8-1.6s3.2-4.8,9.2-7.4c5.5-2.3,8.6-2.8,8.6-3.1.1-1.1-7-4.4-12.7-10.7-5.4-6-9.2-14.4-9-15.9s1-3.1,1.5-3c.7.2,4.2,8.7,10.9,16.7C28,59.5,41,63.7,41.4,64,41.9,64.8,41.2,65.7,41,66.7Z"/></g></g></svg>