<?xml version="1.0" encoding="utf-8"?>
<!-- Generator: Adobe Illustrator 22.1.0, SVG Export Plug-In . SVG Version: 6.00 Build 0)  -->
<svg version="1.1" id="Layer_1" xmlns="http://www.w3.org/2000/svg" xmlns:xlink="http://www.w3.org/1999/xlink" x="0px" y="0px"
	 viewBox="0 0 176.1 108" style="enable-background:new 0 0 176.1 108;" xml:space="preserve">
<style type="text/css">
	.st0{fill:#FFFFFF;}
	.st1{fill:#E53E30;}
</style>
<title>STARS-Logo</title>
<path class="st0" d="M8.8,58.4c0,0.1-0.9,0.2-2.4,0.9s-2.6,1.8-2.6,2.1s0.1,0.4,0.2,0.4c0.3,0.1,2.3-1.8,3.7-2.1
	c1.3-0.2,2.6-0.3,3.9-0.3c0.2-0.1,0.1-0.3,0.1-0.6s0.2-0.6,0.1-0.7S7.9,57,6.1,54.8c-1.2-1.5-2.2-3.1-3.2-4.7
	c-0.1,0-0.4,0.4-0.4,0.9c0.5,1.7,1.4,3.2,2.6,4.5C6.8,57.2,8.8,58.1,8.8,58.4z"/>
<path class="st0" d="M7.3,66.7c-2.3-0.9-2.7-3.5-3.2-3.1c-0.5,0.4,1.2,4.6,3.1,4.8c2.3,0.3,5.2-3.4,4.3-4.1
	C11.2,64.1,9.6,67.5,7.3,66.7z"/>
<path class="st0" d="M4.3,73c-0.4-0.2-1-0.3-1.2,0.1s0.1,0.7,0.6,1s1.2,0.4,1.3,0.1C5.3,73.6,4.7,73.1,4.3,73z"/>
<path class="st0" d="M7.3,73c-2.3-0.9-2.7-3.5-3.2-3.1s1.2,4.6,3.1,4.8c2.3,0.3,5.2-3.6,4.3-4.1C11.1,70.5,9.5,73.9,7.3,73z"/>
<path class="st0" d="M3.5,57.8c0.3,0.2,1.1,0.5,1.3,0.1c0.3-0.5-0.4-1-0.7-1.2s-1-0.3-1.2,0.1S3.1,57.5,3.5,57.8z"/>
<path class="st0" d="M3.7,67.6C4,67.9,4.8,68.1,5,67.7s-0.4-1-0.7-1.2s-1-0.3-1.2,0.1S3.3,67.3,3.7,67.6z"/>
<path class="st0" d="M37.5,59.1c-8.1-1.5-9.5-1.4-9.5-3.1v-0.3c0-1.4,1.3-1.9,3.8-1.9c1.3,0,2.7,0.1,4,0.4l0.7,3h8.8v-8.6
	c-4.4-1.3-9-1.9-13.6-1.8h-1c-8.6,0-12.7,2.8-12.7,9.1v1.3c0,4.3,1.8,7,9.1,8.4c7.9,1.4,8.9,1.7,8.9,3.4v0.5c0,1.6-1.2,2.4-3.2,2.4
	h-1.7c-1.5,0-3.5-0.7-4.3-2.1l-0.3-2.2h-8.6v8.4c3.7,2.6,9.4,3.1,13.5,3.1h2.2c8.6,0,12.7-3.2,12.7-10.3v-2
	C46.5,62.8,44.2,60.3,37.5,59.1z"/>
<path class="st0" d="M167.1,59.1c-8.1-1.5-9.4-1.4-9.4-3.1v-0.3c0-1.4,1.3-1.9,3.8-1.9c1.3,0,2.7,0.1,4,0.4l0.7,3h8.8v-8.6
	c-4.4-1.3-9-1.9-13.6-1.8h-1c-8.6,0-12.7,2.8-12.7,9.1v1.3c0,4.3,1.8,7,9.1,8.4c7.9,1.4,8.9,1.7,8.9,3.4v0.5c0,1.6-1.1,2.4-3.1,2.4
	h-1.7c-1.6,0-3.6-0.7-4.3-2.1l-0.3-2.2h-8.6v8.4c3.7,2.6,9.4,3.1,13.5,3.1h2.2c8.6,0,12.7-3.2,12.7-10.3v-1.9
	C176.1,62.8,173.8,60.3,167.1,59.1z"/>
<path class="st0" d="M60.3,79c1.2,0,2.4-0.1,3.6-0.3l5.7-8.9c-1.2,0-2.3,0-3.5,0h-0.6c-2.6,0-2.8-0.7-2.8-4.9v-9.6h8.5v-0.8
	l-8.5-7.1h-0.1v-0.1l-8.9-7.5h-0.2v3.8c0,2.5-1.3,4.1-3.3,4.1h-1.9v7.5h3.5v15.2c0,5.4,2.9,8.5,7.7,8.5L60.3,79z"/>
<polygon class="st1" points="142.1,35 108.4,38.2 98.1,0 87.8,38.2 54.1,35 81.4,57.8 67,80.1 89.2,53.5 70.5,41.8 93.1,45 
	98.2,22.7 103.2,45 125.1,41.8 106.2,54.3 117.6,73.4 98.2,59.8 85.8,71.6 96.4,48.3 54.5,108 98.1,69.9 134.3,92.5 114.8,57.8 "/>
<path class="st1" d="M0,48.8V77c0,1.2,0.9,2.1,2.1,2.1c0,0,0,0,0,0h12.3V46.7H2.1C1,46.7,0,47.6,0,48.8C0,48.8,0,48.8,0,48.8z
	 M3,56.8c0.2-0.4,0.8-0.3,1.2-0.1s1,0.7,0.7,1.2c-0.2,0.3-1,0.2-1.3-0.1S2.8,57.1,3,56.8z M3.2,66.7c0.2-0.4,0.8-0.3,1.2-0.1
	s1,0.7,0.7,1.2s-1,0.2-1.3-0.1S3,67,3.2,66.7L3.2,66.7z M5,74.1c-0.2,0.3-1,0.2-1.3-0.1S3,73.3,3.1,73s0.9-0.3,1.2,0
	S5.3,73.6,5,74.1z M7.2,74.8c-1.9-0.2-3.7-4.3-3.1-4.8S5,72.1,7.3,73s3.8-2.5,4.2-2.3C12.4,71.2,9.5,75.1,7.2,74.8L7.2,74.8z
	 M7.2,68.4c-1.9-0.3-3.7-4.3-3.1-4.8s1,2.1,3.3,3.1s3.9-2.5,4.2-2.3C12.4,65,9.5,68.8,7.2,68.4L7.2,68.4z M2.9,50.1
	c1,1.6,2,3.2,3.2,4.7c1.9,2.2,5.6,3.3,5.7,3.4s-0.1,0.4-0.1,0.7s0.1,0.5-0.1,0.6c-1.3,0-2.6,0.1-3.9,0.3C6.3,60.2,4.3,62,4,61.9
	c-0.1,0-0.2-0.1-0.2-0.4s0.9-1.4,2.6-2.2s2.4-0.8,2.5-0.9c0-0.3-2-1.2-3.7-3c-1.2-1.3-2.1-2.8-2.6-4.5C2.5,50.5,2.8,50,2.9,50.1z"/>
<path class="st0" d="M135,52.8v-5.4h-1.4l-9.4,7.8v12.5l6.3,11.3h8v-8.4L135,70V59c1.2-1.1,2.8-1.7,4.4-1.7c1.9-0.2,4.3-0.3,6.9-0.5
	V46.8H143C139.1,46.8,137.1,50.1,135,52.8z"/>
</svg>
