<?xml version="1.0" encoding="UTF-8" standalone="no"?>
<!-- Created with Inkscape (http://www.inkscape.org/) -->

<svg
   xmlns:dc="http://purl.org/dc/elements/1.1/"
   xmlns:cc="http://creativecommons.org/ns#"
   xmlns:rdf="http://www.w3.org/1999/02/22-rdf-syntax-ns#"
   xmlns:svg="http://www.w3.org/2000/svg"
   xmlns="http://www.w3.org/2000/svg"
   xmlns:sodipodi="http://sodipodi.sourceforge.net/DTD/sodipodi-0.dtd"
   xmlns:inkscape="http://www.inkscape.org/namespaces/inkscape"
   width="303mm"
   height="89mm"
   viewBox="0 0 303 89"
   version="1.1"
   id="svg84"
   inkscape:version="0.92.1 r15371">
  <defs
     id="defs78">
    <clipPath
       id="clipPath3840"
       clipPathUnits="userSpaceOnUse">
      <path
         inkscape:connector-curvature="0"
         id="path3838"
         d="M 0,900 H 1600 V 0 H 0 Z" />
    </clipPath>
    <clipPath
       id="clipPath3941"
       clipPathUnits="userSpaceOnUse">
      <path
         inkscape:connector-curvature="0"
         id="path3939"
         d="M 0,900 H 1600 V 0 H 0 Z" />
    </clipPath>
  </defs>
  <sodipodi:namedview
     id="base"
     pagecolor="#ffffff"
     bordercolor="#666666"
     borderopacity="1.0"
     inkscape:pageopacity="0.0"
     inkscape:pageshadow="2"
     inkscape:zoom="0.98994949"
     inkscape:cx="622.34653"
     inkscape:cy="-7.819573"
     inkscape:document-units="mm"
     inkscape:current-layer="layer1"
     showgrid="false"
     inkscape:window-width="1920"
     inkscape:window-height="1017"
     inkscape:window-x="-8"
     inkscape:window-y="-8"
     inkscape:window-maximized="1"
     inkscape:pagecheckerboard="false" />
  <metadata
     id="metadata81">
    <rdf:RDF>
      <cc:Work
         rdf:about="">
        <dc:format>image/svg+xml</dc:format>
        <dc:type
           rdf:resource="http://purl.org/dc/dcmitype/StillImage" />
        <dc:title></dc:title>
      </cc:Work>
    </rdf:RDF>
  </metadata>
  <g
     inkscape:label="Layer 1"
     inkscape:groupmode="layer"
     id="layer1"
     transform="translate(0,-208)">
    <g
       transform="matrix(0.35277777,0,0,-0.35277777,-141.08552,410.46583)"
       inkscape:label="kids-logo-white"
       id="g3933">
      <g
         id="g3935">
        <g
           clip-path="url(#clipPath3941)"
           id="g3937">
          <g
             transform="translate(430.1548,368.5488)"
             id="g3943">
            <path
               inkscape:connector-curvature="0"
               id="path3945"
               style="fill:#ffffff;fill-opacity:1;fill-rule:nonzero;stroke:none"
               d="m 0,0 c -2.547,1.514 -6.964,2.258 -8.181,-0.559 -0.893,-2.135 0.954,-4.541 3.828,-6.725 2.293,-1.7 7.855,-3.044 9.098,-0.657 C 6.52,-4.519 2.194,-1.293 0,0" />
          </g>
          <g
             transform="translate(425.7588,404.6709)"
             id="g3947">
            <path
               inkscape:connector-curvature="0"
               id="path3949"
               style="fill:#ffffff;fill-opacity:1;fill-rule:nonzero;stroke:none"
               d="M 0,0 C 2.33,-1.699 7.83,-3.076 9.083,-0.672 10.846,2.749 6.499,5.991 4.369,7.253 1.757,8.761 -2.637,9.515 -3.83,6.693 -4.719,4.579 -2.872,2.116 0,0" />
          </g>
          <g
             transform="translate(424.6812,471.6997)"
             id="g3951">
            <path
               inkscape:connector-curvature="0"
               id="path3953"
               style="fill:#ffffff;fill-opacity:1;fill-rule:nonzero;stroke:none"
               d="M 0,0 C 2.271,-1.716 7.781,-3.087 9.022,-0.689 10.811,2.765 6.459,6.012 4.313,7.252 1.723,8.76 -2.639,9.537 -3.853,6.709 -4.809,4.578 -2.929,2.136 0,0" />
          </g>
          <g
             transform="translate(450.4243,368.2187)"
             id="g3955">
            <path
               inkscape:connector-curvature="0"
               id="path3957"
               style="fill:#ffffff;fill-opacity:1;fill-rule:nonzero;stroke:none"
               d="m 0,0 c -15.751,6.248 -18.388,23.781 -21.982,20.778 -4,-3.331 8.229,-31.133 21.147,-32.865 15.757,-2.128 35.192,24.42 29.377,27.527 C 26.01,16.793 15.065,-5.99 0,0" />
          </g>
          <g
             transform="translate(450.5737,411.3174)"
             id="g3959">
            <path
               inkscape:connector-curvature="0"
               id="path3961"
               style="fill:#ffffff;fill-opacity:1;fill-rule:nonzero;stroke:none"
               d="m 0,0 c -15.746,6.259 -18.386,23.775 -21.993,20.778 -3.95,-3.326 8.255,-31.106 21.188,-32.859 C 14.95,-14.21 34.709,11.125 28.521,15.445 26.229,17.092 15.077,-5.996 0,0" />
          </g>
          <g
             transform="translate(441.9136,491.9365)"
             id="g3963">
            <path
               inkscape:connector-curvature="0"
               id="path3965"
               style="fill:#ffffff;fill-opacity:1;fill-rule:nonzero;stroke:none"
               d="m 0,0 c -13.165,15.504 -20.249,31.81 -21.619,32.155 -0.831,0.207 -2.523,-2.94 -2.729,-5.902 -0.239,-2.995 7.316,-19.121 17.952,-30.582 11.101,-11.964 25.055,-18.289 24.851,-20.354 -0.103,-0.678 -6.109,-1.688 -16.666,-6.317 -11.498,-5.084 -17.708,-12.064 -17.606,-14.581 0.151,-2.539 0.71,-2.783 1.604,-2.983 2.005,-0.454 15.861,11.912 25.11,13.986 10.214,2.33 25.031,1.611 26.236,2.129 1.43,0.618 0.647,2.045 0.894,4.133 0.248,2.039 1.731,3.791 0.715,4.978 C 38.048,-22.633 12.698,-14.942 0,0" />
          </g>
          <g
             transform="translate(669.2832,414.9043)"
             id="g3967">
            <path
               inkscape:connector-curvature="0"
               id="path3969"
               style="fill:#ffffff;fill-opacity:1;fill-rule:nonzero;stroke:none"
               d="m 0,0 26.106,35.853 c 5.975,0.944 12.266,1.889 18.557,3.461 V 80.831 H -49.694 V 39.314 c 4.402,-0.63 8.494,-1.572 12.266,-1.886 l -9.749,-16.985 h -27.679 v 111.654 h -76.428 V 90.58 c 5.977,-1.258 11.638,-2.517 17.299,-3.458 V -43.404 c -5.975,-0.943 -11.636,-1.887 -17.927,-3.146 v -41.515 h 94.985 v 41.515 c -6.291,1.259 -11.952,2.203 -17.929,3.146 v 20.445 h 27.679 l 14.468,-24.221 v -40.885 h 79.572 v 41.515 l -17.613,3.146 z" />
          </g>
          <g
             transform="translate(779.999,509.5732)"
             id="g3971">
            <path
               inkscape:connector-curvature="0"
               id="path3973"
               style="fill:#ffffff;fill-opacity:1;fill-rule:nonzero;stroke:none"
               d="M 0,0 C 18.243,0 33.025,11.951 33.025,29.878 33.025,48.121 18.243,59.759 0,59.759 -17.927,59.759 -32.709,48.121 -32.709,29.878 -32.709,11.951 -17.927,0 0,0" />
          </g>
          <g
             transform="translate(809.8779,495.7349)"
             id="g3975">
            <path
               inkscape:connector-curvature="0"
               id="path3977"
               style="fill:#ffffff;fill-opacity:1;fill-rule:nonzero;stroke:none"
               d="m 0,0 h -76.429 v -41.517 c 5.978,-1.258 11.638,-2.516 17.299,-3.461 v -79.257 c -5.974,-0.942 -11.635,-1.887 -17.926,-3.145 v -41.516 h 94.985 v 41.516 c -6.291,1.258 -11.952,2.203 -17.929,3.145 z" />
          </g>
          <g
             transform="translate(942.4072,382.8232)"
             id="g3979">
            <path
               inkscape:connector-curvature="0"
               id="path3981"
               style="fill:#ffffff;fill-opacity:1;fill-rule:nonzero;stroke:none"
               d="m 0,0 c -9.119,-5.66 -16.982,-8.177 -25.476,-8.177 h -4.088 c -15.411,0 -17.927,5.031 -17.927,30.192 v 22.96 c 0,14.782 2.202,22.646 17.927,22.646 h 4.088 c 8.808,0 14.785,-0.628 25.476,-5.661 z m 59.132,164.178 h -77.687 v -36.484 c 8.492,-1.258 14.153,-2.831 18.555,-3.775 v -22.96 c -19.499,10.38 -29.248,15.097 -52.208,15.097 h -4.719 c -27.048,0 -49.693,-19.499 -49.693,-56.299 V 5.347 c 0,-45.605 20.129,-63.848 47.177,-63.848 h 4.718 c 22.016,0 39.629,12.896 54.725,24.848 v -22.018 h 77.059 v 41.517 l -17.927,3.146 z" />
          </g>
          <g
             transform="translate(1139.2793,431.5732)"
             id="g3983">
            <path
               inkscape:connector-curvature="0"
               id="path3985"
               style="fill:#ffffff;fill-opacity:1;fill-rule:nonzero;stroke:none"
               d="m 0,0 c -44.347,8.491 -51.896,7.862 -51.896,16.984 v 1.887 c 0,7.548 7.233,10.379 21.073,10.379 7.233,0 15.096,-0.313 22.015,-2.202 L -4.719,10.693 H 43.717 V 57.87 C 22.016,65.106 -8.808,67.936 -31.137,67.936 H -36.8 c -47.178,0 -69.823,-15.413 -69.823,-50.01 v -6.919 c 0,-23.903 9.753,-38.686 50.011,-45.919 43.402,-7.863 48.749,-9.436 48.749,-18.557 v -2.516 c 0,-8.805 -6.291,-13.21 -17.299,-13.21 h -9.121 c -8.491,0 -19.499,3.774 -23.588,11.324 l -1.574,11.951 h -47.178 v -46.234 c 20.129,-14.153 51.896,-16.983 74.228,-16.983 h 12.266 c 47.177,0 69.509,17.299 69.509,56.613 v 10.693 C 49.38,-20.443 36.483,-6.919 0,0" />
          </g>
          <g
             transform="translate(479.9409,463.6201)"
             id="g3987">
            <path
               inkscape:connector-curvature="0"
               id="path3989"
               style="fill:#ff5200;fill-opacity:1;fill-rule:nonzero;stroke:none"
               d="m 0,0 c -0.247,-2.087 0.536,-3.515 -0.894,-4.133 -1.205,-0.518 -16.023,0.202 -26.236,-2.129 -9.249,-2.074 -23.106,-14.439 -25.111,-13.986 -0.894,0.2 -1.452,0.444 -1.603,2.983 -0.103,2.517 6.108,9.497 17.605,14.581 10.557,4.629 16.564,5.639 16.666,6.317 0.205,2.066 -13.749,8.39 -24.85,20.354 -10.637,11.461 -18.191,27.587 -17.952,30.582 0.206,2.963 1.898,6.109 2.729,5.902 1.37,-0.345 8.454,-16.65 21.619,-32.155 C -25.33,13.374 0.021,5.683 0.714,4.979 1.73,3.791 0.248,2.039 0,0 m -30.172,-64.384 c -12.933,1.753 -25.138,29.533 -21.188,32.86 3.607,2.997 6.247,-14.52 21.993,-20.779 15.077,-5.996 26.229,17.092 28.521,15.446 6.188,-4.321 -13.571,-29.656 -29.326,-27.527 m -0.18,-43.104 c -12.918,1.731 -25.147,29.534 -21.147,32.865 3.594,3.003 6.231,-14.53 21.982,-20.778 15.065,-5.991 26.01,16.793 28.542,15.44 5.816,-3.107 -13.619,-29.655 -29.377,-27.527 m -14.689,4.475 c -1.243,-2.386 -6.805,-1.043 -9.098,0.658 -2.874,2.184 -4.721,4.589 -3.828,6.725 1.217,2.817 5.634,2.072 8.181,0.559 2.194,-1.293 6.52,-4.519 4.745,-7.942 m -12.971,50.757 c 1.193,2.821 5.587,2.068 8.199,0.56 2.13,-1.262 6.477,-4.504 4.713,-7.925 -1.253,-2.404 -6.753,-1.027 -9.082,0.672 -2.872,2.116 -4.719,4.579 -3.83,6.693 m -1.1,67.045 c 1.214,2.827 5.575,2.051 8.166,0.543 2.145,-1.24 6.497,-4.488 4.708,-7.942 -1.241,-2.398 -6.751,-1.026 -9.022,0.69 -2.928,2.136 -4.808,4.578 -3.852,6.709 m -5.493,68.524 C -72.668,83.304 -79.179,76.769 -79.219,68.74 l 0.052,-191.214 c 0.003,-8.067 6.506,-14.623 14.562,-14.601 l 75.225,0.075 8.287,0.008 V 83.464 L 10.62,83.45 Z" />
          </g>
          <g
             transform="translate(1196.3789,352.1914)"
             id="g3991">
            <path
               inkscape:connector-curvature="0"
               id="path3993"
               style="fill:#ff5200;fill-opacity:1;fill-rule:nonzero;stroke:none"
               d="M 0,0 C 0,15.508 12.628,25.477 27.914,25.477 43.421,25.477 55.828,15.508 55.828,0 55.828,-15.286 43.421,-25.255 27.914,-25.255 12.628,-25.255 0,-15.286 0,0" />
          </g>
        </g>
      </g>
    </g>
  </g>
</svg>
