<?xml version="1.0" encoding="UTF-8" standalone="no"?>
<!-- Created with Inkscape (http://www.inkscape.org/) -->

<svg
   xmlns:dc="http://purl.org/dc/elements/1.1/"
   xmlns:cc="http://creativecommons.org/ns#"
   xmlns:rdf="http://www.w3.org/1999/02/22-rdf-syntax-ns#"
   xmlns:svg="http://www.w3.org/2000/svg"
   xmlns="http://www.w3.org/2000/svg"
   xmlns:sodipodi="http://sodipodi.sourceforge.net/DTD/sodipodi-0.dtd"
   xmlns:inkscape="http://www.inkscape.org/namespaces/inkscape"
   width="297mm"
   height="89mm"
   viewBox="0 0 297 89"
   version="1.1"
   id="svg8"
   inkscape:version="0.92.1 r15371"
   sodipodi:docname="logo-kids.svg">
  <defs
     id="defs2">
    <clipPath
       id="clipPath26"
       clipPathUnits="userSpaceOnUse">
      <path
         inkscape:connector-curvature="0"
         id="path24"
         d="M 0,900 H 1600 V 0 H 0 Z" />
    </clipPath>
  </defs>
  <sodipodi:namedview
     id="base"
     pagecolor="#ffffff"
     bordercolor="#666666"
     borderopacity="1.0"
     inkscape:pageopacity="0.0"
     inkscape:pageshadow="2"
     inkscape:zoom="0.98994949"
     inkscape:cx="865.53711"
     inkscape:cy="330.75907"
     inkscape:document-units="mm"
     inkscape:current-layer="layer1"
     showgrid="false"
     inkscape:window-width="1920"
     inkscape:window-height="1017"
     inkscape:window-x="-8"
     inkscape:window-y="-8"
     inkscape:window-maximized="1" />
  <metadata
     id="metadata5">
    <rdf:RDF>
      <cc:Work
         rdf:about="">
        <dc:format>image/svg+xml</dc:format>
        <dc:type
           rdf:resource="http://purl.org/dc/dcmitype/StillImage" />
        <dc:title></dc:title>
      </cc:Work>
    </rdf:RDF>
  </metadata>
  <g
     inkscape:label="Layer 1"
     inkscape:groupmode="layer"
     id="layer1"
     transform="translate(0,-208)">
    <g
       transform="matrix(0.35277777,0,0,-0.35277777,-113.02534,420.08303)"
       inkscape:label="kids-logo"
       id="g18">
      <g
         id="g20">
        <g
           clip-path="url(#clipPath26)"
           id="g22">
          <g
             transform="translate(349.5391,400.2686)"
             id="g28">
            <path
               inkscape:connector-curvature="0"
               id="path30"
               style="fill:#ffffff;fill-opacity:1;fill-rule:nonzero;stroke:none"
               d="m 0,0 c -2.472,1.469 -6.759,2.19 -7.94,-0.542 -0.866,-2.073 0.926,-4.407 3.715,-6.527 2.226,-1.652 7.623,-2.955 8.83,-0.638 C 6.328,-4.386 2.129,-1.255 0,0" />
          </g>
          <g
             transform="translate(345.2725,435.3262)"
             id="g32">
            <path
               inkscape:connector-curvature="0"
               id="path34"
               style="fill:#ffffff;fill-opacity:1;fill-rule:nonzero;stroke:none"
               d="M 0,0 C 2.261,-1.649 7.599,-2.985 8.815,-0.652 10.526,2.668 6.308,5.814 4.24,7.039 1.706,8.502 -2.559,9.234 -3.717,6.496 -4.58,4.444 -2.787,2.054 0,0" />
          </g>
          <g
             transform="translate(344.2266,500.3799)"
             id="g36">
            <path
               inkscape:connector-curvature="0"
               id="path38"
               style="fill:#ffffff;fill-opacity:1;fill-rule:nonzero;stroke:none"
               d="M 0,0 C 2.204,-1.665 7.552,-2.997 8.756,-0.669 10.492,2.683 6.269,5.835 4.187,7.039 1.672,8.502 -2.561,9.256 -3.739,6.511 -4.667,4.443 -2.842,2.073 0,0" />
          </g>
          <g
             transform="translate(369.2114,399.9482)"
             id="g40">
            <path
               inkscape:connector-curvature="0"
               id="path42"
               style="fill:#ffffff;fill-opacity:1;fill-rule:nonzero;stroke:none"
               d="m 0,0 c -15.287,6.063 -17.846,23.08 -21.334,20.165 -3.883,-3.232 7.986,-30.216 20.523,-31.895 15.294,-2.066 34.156,23.7 28.512,26.715 C 25.243,16.298 14.621,-5.813 0,0" />
          </g>
          <g
             transform="translate(369.3564,441.7764)"
             id="g44">
            <path
               inkscape:connector-curvature="0"
               id="path46"
               style="fill:#ffffff;fill-opacity:1;fill-rule:nonzero;stroke:none"
               d="m 0,0 c -15.282,6.074 -17.845,23.076 -21.345,20.167 -3.834,-3.229 8.012,-30.19 20.563,-31.892 C 14.509,-13.79 33.687,10.797 27.681,14.991 25.457,16.588 14.633,-5.819 0,0" />
          </g>
          <g
             transform="translate(360.9512,520.021)"
             id="g48">
            <path
               inkscape:connector-curvature="0"
               id="path50"
               style="fill:#ffffff;fill-opacity:1;fill-rule:nonzero;stroke:none"
               d="m 0,0 c -12.776,15.047 -19.652,30.872 -20.982,31.207 -0.806,0.201 -2.448,-2.853 -2.649,-5.728 -0.231,-2.907 7.101,-18.558 17.423,-29.681 10.775,-11.612 24.318,-17.75 24.119,-19.754 -0.099,-0.659 -5.929,-1.638 -16.175,-6.131 -11.159,-4.934 -17.186,-11.708 -17.087,-14.152 0.147,-2.464 0.689,-2.7 1.557,-2.895 1.945,-0.44 15.394,11.561 24.37,13.574 9.913,2.262 24.294,1.563 25.464,2.067 1.387,0.599 0.627,1.985 0.867,4.011 0.24,1.979 1.679,3.679 0.693,4.832 C 36.927,-21.967 12.324,-14.502 0,0" />
          </g>
          <g
             transform="translate(581.6221,445.2578)"
             id="g52">
            <path
               inkscape:connector-curvature="0"
               id="path54"
               style="fill:#231f20;fill-opacity:1;fill-rule:nonzero;stroke:none"
               d="m 0,0 25.337,34.797 c 5.798,0.916 11.904,1.833 18.01,3.359 V 78.449 H -48.229 V 38.156 c 4.272,-0.612 8.243,-1.526 11.903,-1.831 L -45.788,19.841 H -72.65 v 108.364 h -74.177 V 87.911 c 5.802,-1.221 11.295,-2.442 16.789,-3.356 V -42.126 c -5.798,-0.914 -11.292,-1.831 -17.398,-3.052 v -40.293 h 92.186 v 40.293 c -6.105,1.221 -11.6,2.138 -17.4,3.052 v 19.844 h 26.862 l 14.043,-23.508 v -39.681 h 77.227 v 40.293 l -17.094,3.052 z" />
          </g>
          <g
             transform="translate(689.0757,537.1372)"
             id="g56">
            <path
               inkscape:connector-curvature="0"
               id="path58"
               style="fill:#231f20;fill-opacity:1;fill-rule:nonzero;stroke:none"
               d="M 0,0 C 17.706,0 32.052,11.6 32.052,28.998 32.052,46.704 17.706,57.999 0,57.999 -17.398,57.999 -31.745,46.704 -31.745,28.998 -31.745,11.6 -17.398,0 0,0" />
          </g>
          <g
             transform="translate(718.0737,523.707)"
             id="g60">
            <path
               inkscape:connector-curvature="0"
               id="path62"
               style="fill:#231f20;fill-opacity:1;fill-rule:nonzero;stroke:none"
               d="m 0,0 h -74.176 v -40.293 c 5.801,-1.222 11.295,-2.443 16.789,-3.359 v -76.923 c -5.799,-0.914 -11.292,-1.831 -17.399,-3.052 v -40.293 h 92.187 v 40.293 c -6.106,1.221 -11.6,2.138 -17.401,3.052 z" />
          </g>
          <g
             transform="translate(846.6992,414.1221)"
             id="g64">
            <path
               inkscape:connector-curvature="0"
               id="path66"
               style="fill:#231f20;fill-opacity:1;fill-rule:nonzero;stroke:none"
               d="m 0,0 c -8.851,-5.494 -16.482,-7.936 -24.726,-7.936 h -3.967 c -14.957,0 -17.399,4.882 -17.399,29.302 V 43.65 c 0,14.347 2.137,21.978 17.399,21.978 h 3.967 c 8.548,0 14.349,-0.609 24.726,-5.494 z M 57.389,159.34 H -18.009 V 123.932 C -9.768,122.71 -4.273,121.185 0,120.268 V 97.985 c -18.925,10.074 -28.387,14.652 -50.67,14.652 h -4.58 c -26.251,0 -48.229,-18.925 -48.229,-54.64 V 5.189 c 0,-44.261 19.536,-61.966 45.787,-61.966 h 4.58 c 21.367,0 38.461,12.515 53.112,24.116 V -54.03 h 74.787 v 40.293 l -17.398,3.053 z" />
          </g>
          <g
             transform="translate(1037.7705,461.4355)"
             id="g68">
            <path
               inkscape:connector-curvature="0"
               id="path70"
               style="fill:#231f20;fill-opacity:1;fill-rule:nonzero;stroke:none"
               d="m 0,0 c -43.04,8.241 -50.367,7.631 -50.367,16.484 v 1.83 c 0,7.327 7.02,10.075 20.452,10.075 7.02,0 14.651,-0.305 21.367,-2.138 L -4.58,10.378 h 47.009 v 45.788 c -21.062,7.022 -50.977,9.769 -72.649,9.769 h -5.496 c -45.787,0 -67.765,-14.959 -67.765,-48.537 v -6.715 c 0,-23.2 9.464,-37.546 48.537,-44.566 42.123,-7.632 47.312,-9.158 47.312,-18.011 v -2.441 c 0,-8.546 -6.105,-12.821 -16.789,-12.821 h -8.852 c -8.242,0 -18.924,3.663 -22.893,10.99 l -1.528,11.6 h -45.787 v -44.873 c 19.536,-13.736 50.367,-16.482 72.041,-16.482 h 11.904 c 45.787,0 67.461,16.789 67.461,54.944 v 10.379 C 47.925,-19.841 35.408,-6.715 0,0" />
          </g>
          <g
             transform="translate(397.8584,492.5386)"
             id="g72">
            <path
               inkscape:connector-curvature="0"
               id="path74"
               style="fill:#ff5200;fill-opacity:1;fill-rule:nonzero;stroke:none"
               d="m 0,0 c -0.24,-2.026 0.52,-3.411 -0.868,-4.011 -1.169,-0.503 -15.55,0.196 -25.463,-2.066 -8.977,-2.014 -22.425,-14.015 -24.371,-13.575 -0.867,0.195 -1.409,0.431 -1.556,2.896 -0.099,2.443 5.928,9.217 17.087,14.152 10.246,4.492 16.075,5.472 16.175,6.13 0.199,2.005 -13.344,8.142 -24.119,19.754 -10.323,11.124 -17.655,26.775 -17.423,29.681 0.201,2.875 1.843,5.929 2.649,5.728 1.33,-0.335 8.205,-16.159 20.982,-31.207 C -24.583,12.98 0.02,5.516 0.693,4.832 1.679,3.679 0.24,1.979 0,0 m -29.284,-62.487 c -12.551,1.701 -24.397,28.663 -20.563,31.891 3.5,2.909 6.063,-14.092 21.345,-20.166 14.633,-5.82 25.457,16.588 27.681,14.991 6.006,-4.194 -13.172,-28.781 -28.463,-26.716 m -0.174,-41.834 c -12.537,1.68 -24.406,28.663 -20.523,31.896 3.488,2.915 6.047,-14.102 21.334,-20.165 14.621,-5.814 25.243,16.298 27.701,14.985 5.644,-3.016 -13.218,-28.781 -28.512,-26.716 m -14.256,4.344 c -1.207,-2.317 -6.604,-1.014 -8.83,0.638 -2.789,2.12 -4.581,4.454 -3.715,6.527 1.181,2.732 5.467,2.011 7.94,0.542 2.129,-1.255 6.327,-4.386 4.605,-7.707 m -12.589,49.261 c 1.158,2.738 5.423,2.006 7.957,0.543 2.068,-1.225 6.286,-4.371 4.575,-7.692 -1.216,-2.333 -6.554,-0.997 -8.815,0.653 -2.787,2.053 -4.58,4.444 -3.717,6.496 m -1.068,65.069 c 1.179,2.744 5.412,1.99 7.926,0.527 2.082,-1.203 6.305,-4.356 4.57,-7.708 -1.205,-2.327 -6.553,-0.996 -8.757,0.669 -2.842,2.074 -4.666,4.444 -3.739,6.512 m -5.331,66.505 c -7.825,-0.009 -14.144,-6.351 -14.183,-14.144 l 0.051,-185.579 c 0.003,-7.83 6.313,-14.192 14.132,-14.172 l 73.009,0.074 8.043,0.007 V 81.005 l -8.043,-0.014 z" />
          </g>
          <g
             transform="translate(1093.1875,384.3926)"
             id="g76">
            <path
               inkscape:connector-curvature="0"
               id="path78"
               style="fill:#ff5200;fill-opacity:1;fill-rule:nonzero;stroke:none"
               d="m 0,0 c 0,15.051 12.256,24.727 27.092,24.727 15.05,0 27.092,-9.676 27.092,-24.727 0,-14.835 -12.042,-24.511 -27.092,-24.511 C 12.256,-24.511 0,-14.835 0,0" />
          </g>
        </g>
      </g>
    </g>
  </g>
</svg>
