<svg id="Layer_1" data-name="Layer 1" xmlns="http://www.w3.org/2000/svg" viewBox="0 0 455.11 71.66"><defs><style>.cls-1{fill:#e63c2f;}.cls-2{fill:#fff;}</style></defs><title>LogoExport</title><circle class="cls-1" cx="448.54" cy="65.09" r="6.57"/><path class="cls-2" d="M32,30.61c0-9.85,6.84-14.38,20.71-14.38h1.81c5.73,0,15.38,1,21.92,3.62V32.92H65.61l-.9-6.24a30.36,30.36,0,0,0-10.46-1.61c-6.84,0-10.35,1.61-10.35,5.53v.7c0,4.52,3.22,4.32,17.39,7,12.47,2.41,16.59,5.93,16.59,13.57v2.92c0,11.66-6.64,16.59-20.21,16.59H53.74c-5.93,0-16.49-.7-21.72-5.73V53.23H42.48l.5,5c2,2.91,7.34,3.82,10.35,3.82h3.12c5.73,0,8.95-1.81,8.95-6.63V54.23c0-4.12-2.82-4.93-16.39-7.44S32,40.46,32,33Z"/><path class="cls-2" d="M107.61,60.32c3.52,0,6.13,0,9.65-.2v7.44a37.21,37.21,0,0,1-16.39,4H99.77C91.63,71.58,87.5,67,87.5,57.31V27.45H81.07V17.59H86c2.11,0,2.61-.6,2.61-2.51V3.62a100.68,100.68,0,0,1,12.17-1.21V17.59H113v9.85h-12.2V51c0,7.54.9,9.35,5.93,9.35Z"/><path class="cls-2" d="M173,60.22c1.71.2,3.92.4,6.84.8v9.25H159.69V61.83c-6,3.82-13.17,8.55-21,8.55h-1.21c-9.65,0-13.07-3.32-13.07-14.18V27.75c-1.31-.1-3.42-.4-7.14-.7V17.59h20.41V49.06c0,8.44.7,10.05,6.64,10.05h1.21c4.52,0,9.35-2.51,14.18-5.83V27.75c-1.21-.1-3.22-.4-7.14-.7V17.59H173Z"/><path class="cls-2" d="M231,60.22c1.61.2,3.82.4,6.74.8v9.25h-20V62.74c-5.83,4.52-11.26,8.45-19.1,8.45h-1.71c-8.65,0-14.48-5.53-14.48-19V34c0-11.56,6.43-17.39,15.08-17.39h1.71c7.94,0,10.86,1.21,18.5,5.43V9.25a53.91,53.91,0,0,0-7.14-1V0H231Zm-26-.3c4.52,0,8-1.61,12.77-5v-24c-6-3.22-8.14-3.42-12.77-3.42h-1.71c-5.83,0-7.54,3.52-7.54,9.85V48.46c0,8.65,1.81,11.46,7.74,11.46Z"/><path class="cls-2" d="M266.59,16.26c15.08,0,22.22,6.84,22.22,21.31V49.84H252.61v2.41c0,6.63,4.12,9.55,10.36,9.55h4c4.42,0,7.84-.91,9.35-4.52l.5-1.91H287.3v8.85c-5.13,4.93-13.07,7.24-20.71,7.24h-3c-17.19,0-23.83-7-23.83-23.93V38.58c0-15.18,7.94-22.32,23.53-22.32Zm10.36,18.5c0-6.13-4.32-9.25-10.76-9.25h-2.91c-6.64,0-10.66,3.32-10.66,9.75v5.23h24.33Z"/><path class="cls-2" d="M347.71,60.1c1.11.1,3.22.4,7.14.8v9.35H334.44V37.58c0-8.44-.8-10.05-6.74-10.05h-1.21c-4.52,0-9.35,2.51-14.18,5.93V60.2c2.11.1,4.32.4,6.73.7v9.35H292.31V60.9c2.41-.3,4.62-.6,6.74-.7V27.62c-2-.1-4.22-.5-6.33-.7V17.47h19.61v8.14c6.13-4.62,13.27-9.35,21.11-9.35h1.11c8.75,0,13.17,4.22,13.17,14.27Z"/><path class="cls-2" d="M379.59,60.2c3.52,0,6.13,0,9.65-.2v7.44a37.21,37.21,0,0,1-16.39,4h-1.11c-8.15,0-12.27-4.63-12.27-14.28V27.32H353V17.47H358c2.11,0,2.61-.6,2.61-2.51V3.5a100.68,100.68,0,0,1,12.17-1.21V17.47h15.18v9.85H372.76V50.85c0,7.54.91,9.35,5.93,9.35Z"/><path class="cls-2" d="M394.09,30.64c0-9.85,6.84-14.38,20.71-14.38h1.81c5.73,0,15.38,1,21.92,3.62V33H427.67l-.9-6.24a30.37,30.37,0,0,0-10.46-1.61c-6.84,0-10.35,1.61-10.35,5.53v.7c0,4.52,3.22,4.32,17.39,7,12.47,2.41,16.59,5.93,16.59,13.57v2.92c0,11.66-6.63,16.59-20.21,16.59h-3.92c-5.93,0-16.49-.7-21.72-5.73V53.26h10.46l.5,5c2,2.91,7.34,3.82,10.35,3.82h3.12c5.73,0,8.95-1.81,8.95-6.63V54.27c0-4.12-2.81-4.93-16.39-7.44s-17-6.33-17-13.77Z"/><path class="cls-1" d="M24.42,16.36l-20.79,0A3.64,3.64,0,0,0,0,20v47.6a3.62,3.62,0,0,0,3.62,3.63l20.79,0Z"/><path class="cls-2" d="M4.87,22.08c.34.09,2.1,4.14,5.38,8s9.47,5.63,9.64,5.81-.12.73-.18,1.24.13.87-.22,1-4-.05-6.53.53c-2.3.52-5.75,3.59-6.25,3.48-.22,0-.36-.11-.4-.74s1.52-2.36,4.38-3.63c2.63-1.15,4.12-1.4,4.15-1.57.05-.51-3.42-2.09-6.19-5.07s-4.53-6.87-4.47-7.61S4.67,22,4.87,22.08Z"/><path class="cls-2" d="M5,33.45c.3-.7,1.39-.51,2-.14s1.62,1.12,1.17,2c-.31.6-1.68.26-2.25-.17C5.23,34.59,4.77,34,5,33.45Z"/><path class="cls-2" d="M5.28,50.14c.3-.7,1.39-.51,2-.14s1.61,1.12,1.17,2c-.31.6-1.68.26-2.26-.17S5.06,50.67,5.28,50.14Z"/><path class="cls-2" d="M8.51,62.77c-.31.59-1.69.26-2.26-.16s-1.18-1.14-1-1.67c.3-.7,1.4-.52,2-.14S8.95,61.92,8.51,62.77Z"/><path class="cls-2" d="M12.16,63.89c-3.22-.43-6.26-7.35-5.26-8.18s1.55,3.62,5.47,5.17c3.75,1.49,6.47-4.18,7.1-3.84C20.92,57.81,16.09,64.42,12.16,63.89Z"/><path class="cls-2" d="M12.21,53.16C9,52.72,6,45.81,6.93,45s1.55,3.61,5.47,5.17c3.75,1.49,6.53-4.25,7.1-3.84C21,47.38,16.13,53.69,12.21,53.16Z"/></svg>