<svg id="Layer_1" data-name="Layer 1" xmlns="http://www.w3.org/2000/svg" viewBox="0 0 176.12 108"><defs><style>.cls-1{fill:#fff;}.cls-2{fill:#e53e30;}</style></defs><title>STARS-Logo</title><path class="cls-1" d="M8.78,58.43c0,.1-.9.25-2.45.93S3.72,61.13,3.74,61.5s.1.41.24.44c.3.07,2.33-1.75,3.7-2.06a29.43,29.43,0,0,1,3.86-.31c.21-.09.1-.3.13-.61s.25-.56.11-.73S7.93,57,6.06,54.79a47.83,47.83,0,0,1-3.18-4.73c-.12,0-.37.43-.4.87a11.39,11.39,0,0,0,2.64,4.5C6.76,57.19,8.81,58.12,8.78,58.43Z"/><path class="cls-1" d="M7.34,66.66C5,65.74,4.63,63.16,4.1,63.6s1.22,4.58,3.12,4.84c2.32.31,5.23-3.42,4.32-4.05C11.2,64.14,9.56,67.54,7.34,66.66Z"/><path class="cls-1" d="M4.33,73c-.38-.22-1-.33-1.2.08s.14.67.56,1,1.16.45,1.34.1C5.29,73.62,4.66,73.14,4.33,73Z"/><path class="cls-1" d="M7.32,73C5,72.08,4.61,69.5,4.08,69.94s1.21,4.58,3.11,4.84c2.32.31,5.18-3.59,4.32-4.05C11.14,70.53,9.53,73.88,7.32,73Z"/><path class="cls-1" d="M3.53,57.77c.33.25,1.15.45,1.33.1.26-.51-.38-1-.69-1.17s-1-.34-1.2.08S3.1,57.46,3.53,57.77Z"/><path class="cls-1" d="M3.69,67.64c.34.25,1.15.45,1.34.1s-.38-1-.69-1.17-1-.33-1.21.08S3.26,67.33,3.69,67.64Z"/><path d="M37.53,59.08c-8.08-1.55-9.45-1.43-9.45-3.09v-.34c0-1.37,1.32-1.89,3.84-1.89a15.64,15.64,0,0,1,4,.4l.74,3h8.82V48.53A48,48,0,0,0,31.86,46.7h-1c-8.59,0-12.72,2.81-12.72,9.11v1.26c0,4.35,1.78,7,9.11,8.36,7.91,1.43,8.88,1.72,8.88,3.38v.46c0,1.6-1.15,2.41-3.15,2.41H31.28c-1.55,0-3.55-.69-4.3-2.06l-.29-2.18H18.11v8.42C21.77,78.44,27.56,79,31.63,79h2.23c8.59,0,12.66-3.15,12.66-10.31V66.7C46.52,62.8,44.17,60.34,37.53,59.08Z"/><path d="M167.13,59.08c-8.08-1.55-9.45-1.43-9.45-3.09v-.34c0-1.37,1.32-1.89,3.84-1.89a15.64,15.64,0,0,1,4,.4l.74,3h8.82V48.53a48,48,0,0,0-13.63-1.83h-1c-8.59,0-12.72,2.81-12.72,9.11v1.26c0,4.35,1.78,7,9.11,8.36,7.91,1.43,8.88,1.72,8.88,3.38v.46c0,1.6-1.15,2.41-3.15,2.41h-1.66c-1.55,0-3.55-.69-4.3-2.06l-.29-2.18h-8.59v8.42c3.67,2.58,9.45,3.09,13.52,3.09h2.23c8.59,0,12.66-3.15,12.66-10.31V66.7C176.12,62.8,173.77,60.34,167.13,59.08Z"/><path d="M60.27,79a21.74,21.74,0,0,0,3.59-.34l5.73-8.86c-1.17,0-2.32,0-3.54,0h-.63c-2.58,0-2.81-.69-2.81-4.87V55.29h8.54v-.85l-8.45-7.06h-.09v-.08l-8.94-7.47-.23,0v3.84c0,2.52-1.32,4.13-3.27,4.13H48.3v7.45h3.55V70.48c0,5.39,2.92,8.48,7.68,8.48Z"/><polygon class="cls-2" points="142.14 34.96 108.45 38.16 98.14 0 87.83 38.16 54.14 34.96 81.45 57.78 67 80.11 89.21 53.55 70.47 41.75 93.06 45.02 98.15 22.74 103.23 45.02 125.09 41.75 106.23 54.26 117.63 73.37 98.21 59.76 85.85 71.61 96.38 48.28 54.45 108 98.13 69.91 134.3 92.52 114.83 57.78 142.14 34.96"/><path class="cls-2" d="M0,48.84V77a2.14,2.14,0,0,0,2.14,2.15H14.44V46.67l-12.29,0A2.16,2.16,0,0,0,0,48.84Zm3,7.94c.18-.42.82-.3,1.2-.08s1,.66.69,1.17c-.18.35-1,.15-1.33-.1S2.82,57.1,3,56.78Zm.16,9.87c.18-.42.82-.3,1.21-.08s1,.66.69,1.17-1,.15-1.34-.1S3,67,3.12,66.65ZM5,74.12c-.18.35-1,.15-1.34-.1s-.69-.68-.56-1S4,72.73,4.33,73,5.29,73.62,5,74.12Zm2.16.66c-1.9-.25-3.7-4.35-3.11-4.84S5,72.08,7.32,73s3.83-2.47,4.2-2.27C12.37,71.19,9.51,75.1,7.19,74.78Zm0-6.34c-1.9-.26-3.7-4.35-3.12-4.84S5,65.74,7.34,66.66s3.86-2.52,4.2-2.27C12.45,65,9.54,68.75,7.22,68.44ZM2.88,50.06a47.83,47.83,0,0,0,3.18,4.73c1.87,2.2,5.6,3.33,5.7,3.44s-.07.43-.11.73.08.52-.13.61a29.43,29.43,0,0,0-3.86.31C6.31,60.19,4.27,62,4,61.94c-.13,0-.21-.07-.24-.44s.9-1.4,2.59-2.15,2.44-.83,2.45-.93c0-.3-2-1.23-3.66-3a11.39,11.39,0,0,1-2.64-4.5C2.51,50.49,2.76,50,2.88,50.06Z"/><path d="M135,52.77V47.39h-1.41l-9.36,7.82V67.7L130.56,79h8V70.59L135,70V59a6.36,6.36,0,0,1,4.41-1.66c1.95-.17,4.3-.34,6.87-.46V46.76H143C139.11,46.76,137.05,50.08,135,52.77Z"/></svg>