<svg id="Layer_1" data-name="Layer 1" xmlns="http://www.w3.org/2000/svg" viewBox="0 0 435.91 72"><defs><style>.cls-1{fill:#fff;}.cls-2{fill:#8b9064;}</style></defs><title>LogoExport</title><path class="cls-1" d="M115.11,61.11c1.16.1,3.08.39,6.84.77v9H102.38V39.52c0-8.1-.77-9.64-6.36-9.64H94.86c-4.34,0-8.29,2.12-12.72,5.49V61.11c1.06.1,3.08.39,6.84.77v9H69.42V39.52c0-8.1-.87-9.64-6.36-9.64H61.9c-4.24,0-7.9,2-12.24,5.3v26c2,.1,4.15.39,6.46.67v9H30.48v-9c2.31-.29,4.44-.58,6.46-.67V30c-1.93-.1-4-.48-6.07-.67V20.24h18.8v7c5.69-4.53,11.66-8.19,18.7-8.19h1.16c6.75,0,10.51,2.41,11.86,9.16,5.78-4.72,12.34-9.16,20-9.16h1.25c8.29,0,12.53,4,12.53,13.69Z"/><path class="cls-1" d="M144.85,61.2c2,.1,4.15.39,6.46.67v9H125.67v-9c2.31-.29,4.44-.58,6.46-.67V30c-1.93-.1-4-.48-6.07-.67V20.24h18.8ZM131.07,6.75c0-4.14,3.18-6.75,7.33-6.75s7.23,2.6,7.23,6.75-3.18,6.65-7.23,6.65S131.07,10.8,131.07,6.75Z"/><path class="cls-1" d="M154.14,32.87c0-9.45,6.55-13.78,19.85-13.78h1.74c5.49,0,14.75,1,21,3.47V35.08H186.33l-.87-6a29.11,29.11,0,0,0-10-1.54c-6.55,0-9.93,1.54-9.93,5.3v.67c0,4.34,3.09,4.15,16.67,6.75,12,2.31,15.9,5.69,15.9,13V56.1c0,11.18-6.36,15.9-19.37,15.9H175c-5.69,0-15.81-.67-20.82-5.49v-12h10l.48,4.82c1.93,2.8,7,3.66,9.93,3.66h3c5.49,0,8.58-1.73,8.58-6.36V55.52c0-4-2.7-4.72-15.71-7.13s-16.29-6.07-16.29-13.2Z"/><path class="cls-1" d="M202.63,32.87c0-9.45,6.55-13.78,19.85-13.78h1.74c5.49,0,14.75,1,21,3.47V35.08H234.82l-.87-6a29.11,29.11,0,0,0-10-1.54c-6.55,0-9.93,1.54-9.93,5.3v.67c0,4.34,3.09,4.15,16.67,6.75,12,2.31,15.9,5.69,15.9,13V56.1c0,11.18-6.36,15.9-19.37,15.9h-3.76c-5.69,0-15.81-.67-20.82-5.49v-12h10l.48,4.82c1.93,2.8,7,3.66,9.93,3.66h3c5.49,0,8.58-1.73,8.58-6.36V55.52c0-4-2.7-4.72-15.71-7.13s-16.29-6.07-16.29-13.2Z"/><path class="cls-1" d="M269.21,61.2c2,.1,4.14.39,6.46.67v9H250v-9c2.31-.29,4.43-.58,6.46-.67V30c-1.93-.1-4-.48-6.07-.67V20.24h18.8ZM255.43,6.75c0-4.14,3.18-6.75,7.33-6.75S270,2.6,270,6.75s-3.18,6.65-7.23,6.65S255.43,10.8,255.43,6.75Z"/><path class="cls-1" d="M300.45,72c-16.19,0-23-7.23-23-22.84V42.41c0-15.9,6.75-23.33,23-23.33h4.15c15.9,0,22.55,7.42,22.55,23.33v6.75c0,15.61-6.75,22.84-22.46,22.84Zm4-9.45c6.55,0,10-3.18,10-9.35V38.26c0-6.46-3.47-9.74-10-9.74h-4.34c-6.55,0-9.93,3.28-9.93,9.74V53.2c0,6.17,3.37,9.35,9.93,9.35Z"/><path class="cls-1" d="M382.56,61.11c1.06.1,3.09.39,6.84.77v9H369.83V39.52c0-8.1-.77-9.64-6.46-9.64h-1.16c-4.34,0-9,2.41-13.59,5.69V61.2c2,.1,4.14.39,6.46.67v9H329.45v-9c2.31-.29,4.43-.58,6.46-.67V30c-1.93-.1-4-.48-6.07-.67V20.24h18.8V28c5.88-4.43,12.72-9,20.24-9h1.06c8.39,0,12.63,4,12.63,13.69Z"/><path class="cls-1" d="M392,32.87c0-9.45,6.55-13.78,19.86-13.78h1.74c5.49,0,14.75,1,21,3.47V35.08H424.15l-.87-6a29.1,29.1,0,0,0-10-1.54c-6.55,0-9.93,1.54-9.93,5.3v.67c0,4.34,3.08,4.15,16.67,6.75,12,2.31,15.9,5.69,15.9,13V56.1c0,11.18-6.36,15.9-19.37,15.9h-3.76c-5.69,0-15.81-.67-20.82-5.49v-12h10l.48,4.82c1.93,2.8,7,3.66,9.93,3.66h3c5.49,0,8.58-1.73,8.58-6.36V55.52c0-4-2.7-4.72-15.71-7.13S392,42.31,392,35.18Z"/><path class="cls-1" d="M9.89,31.3C6.73,27.58,5,23.66,4.7,23.58S4.09,24.28,4,25s1.76,4.59,4.31,7.34,6,4.39,6,4.89c0,.16-1.47.41-4,1.52-2.76,1.22-4.25,2.9-4.23,3.5s.17.67.38.72c.48.11,3.81-2.86,6-3.36,2.45-.56,6-.39,6.3-.51s.16-.49.21-1,.42-.91.17-1.2S12.94,34.89,9.89,31.3Z"/><path class="cls-1" d="M5.75,36.16c.55.41,1.87.74,2.17.17.43-.83-.62-1.61-1.13-1.91s-1.67-.55-2,.13C4.6,35.06,5,35.64,5.75,36.16Z"/><path class="cls-1" d="M11.93,61c-3.78-1.5-4.41-5.71-5.28-5s2,7.47,5.08,7.89c3.78.51,8.45-5.86,7.05-6.61C18.18,57,15.55,62.44,11.93,61Z"/><path class="cls-1" d="M12,50.65c-3.78-1.5-4.41-5.71-5.28-5s2,7.47,5.09,7.89c3.78.51,8.53-5.57,7-6.61C18.27,46.55,15.59,52.09,12,50.65Z"/><path class="cls-1" d="M7.07,60.92c-.61-.36-1.67-.54-2,.13-.21.51.23,1.09.92,1.61s1.89.73,2.18.16C8.63,62,7.59,61.23,7.07,60.92Z"/><path class="cls-1" d="M6,52.25c.56.41,1.88.74,2.18.16.42-.82-.62-1.6-1.13-1.9s-1.68-.54-2,.13C4.88,51.15,5.32,51.74,6,52.25Z"/><path class="cls-2" d="M23.56,18.06H20.92l-17.41,0A3.52,3.52,0,0,0,0,21.59V67.5A3.5,3.5,0,0,0,3.51,71l17.41,0h2.64ZM4.83,34.55c.29-.68,1.34-.49,2-.13s1.56,1.08,1.13,1.91c-.3.58-1.62.25-2.17-.17C5,35.64,4.6,35.06,4.83,34.55Zm.26,16.1c.29-.68,1.34-.5,2-.13s1.55,1.08,1.13,1.9c-.3.58-1.62.25-2.18-.16S4.88,51.15,5.09,50.64ZM8.21,62.83c-.3.57-1.63.25-2.18-.16s-1.13-1.1-.92-1.61c.29-.68,1.35-.5,2-.13S8.63,62,8.21,62.83Zm3.53,1.07c-3.1-.42-6-7.09-5.08-7.89s1.5,3.49,5.28,5c3.62,1.44,6.24-4,6.85-3.71C20.18,58,15.52,64.41,11.73,63.9Zm0-10.35c-3.11-.42-6-7.09-5.09-7.89s1.5,3.49,5.28,5c3.62,1.44,6.3-4.1,6.85-3.71C20.3,48,15.56,54.07,11.78,53.55ZM19,38.1c-.06.5.13.84-.21,1s-3.85,0-6.3.51c-2.22.5-5.55,3.47-6,3.36-.21,0-.35-.11-.38-.72s1.47-2.28,4.23-3.5c2.53-1.11,4-1.35,4-1.52,0-.5-3.3-2-6-4.89S4,25.71,4,25s.46-1.47.66-1.42,2,4,5.19,7.72,9.13,5.43,9.3,5.6S19.08,37.61,19,38.1Z"/></svg>