<svg xmlns="http://www.w3.org/2000/svg" viewBox="0 0 280 40"><defs><style>.a{fill:#7a1315;}.b{fill:#fff;}</style></defs><title>logo</title><path class="a" d="M70.9,0H11.5A11.57,11.57,0,0,0,0,11.5v17A11.57,11.57,0,0,0,11.5,40H70.9A11.57,11.57,0,0,0,82.4,28.5v-17A11.5,11.5,0,0,0,70.9,0Z"/><path class="b" d="M27.5,10.9c.8-1.1,1.8-1.8,2.6-1.5,1.1.5.8,2.2.2,3.2-.5.8-1.8,2.6-3.1,1.8C26.3,13.9,26.8,11.8,27.5,10.9Z"/><path class="b" d="M10.6,11c.8-1.1,1.8-1.8,2.6-1.5,1.1.5.8,2.2.2,3.2-.5.8-1.8,2.6-3,1.8C9.4,14,9.9,11.8,10.6,11Z"/><path class="b" d="M13.3,20.5c-2.3,5.8,6.6,10.1,6,11C18.1,33.8,7.8,26.2,8.6,20.1c.6-5,11.5-9.8,12.8-8.2C22.5,13.4,15.7,14.4,13.3,20.5Z"/><path class="b" d="M30.1,20.6c-2.3,5.8,6.6,10.2,6,11.1-1.7,2.4-11.5-5.3-10.7-11.4.6-5,11.4-9.8,12.7-8.2C39.3,13.4,32.5,14.4,30.1,20.6Z"/><path class="b" d="M53.5,10.4c.8-1.1,1.8-1.8,2.6-1.5,1.1.5.8,2.2.2,3.2-.5.8-1.8,2.6-3.1,1.8C52.3,13.4,52.9,11.4,53.5,10.4Z"/><path class="b" d="M73.9,8.7c-.2.6-6.5,3.3-12.5,8.4-5.8,5-8.8,14.8-9,15-.6.5-1.2-.2-2-.2s-1.4.2-1.6-.3.1-6.2-.9-10.2c-.8-3.6-5.6-9-5.4-9.8.1-.3.2-.6,1.1-.6s3.7,2.4,5.7,6.8c1.8,4.1,2.2,6.5,2.5,6.5.8.1,3.3-5.4,7.9-9.7s10.7-7.1,11.8-7S74,8.4,73.9,8.7Z"/><path class="b" d="M102,18.3a8.62,8.62,0,0,1-1.4,1.8,5,5,0,0,1-1.9,1,8.52,8.52,0,0,1-2.3.3,7.64,7.64,0,0,1-2.7-.5,6,6,0,0,1-2.1-1.4,5.27,5.27,0,0,1-1-1.4c-.2-.6-.4-1.1-.6-1.7a11,11,0,0,1-.2-1.8V10.8A11,11,0,0,1,90,9a3.88,3.88,0,0,1,.6-1.7,3.59,3.59,0,0,1,1-1.4,7,7,0,0,1,2.1-1.4A7.64,7.64,0,0,1,96.4,4a8.52,8.52,0,0,1,2.3.3,5.73,5.73,0,0,1,1.9,1A5.12,5.12,0,0,1,102,7.1a9.17,9.17,0,0,1,.8,2.5H98.5a5.17,5.17,0,0,0-.6-1.3,1.75,1.75,0,0,0-1.5-.6,3,3,0,0,0-1,.2c-.3.2-.5.3-.6.6s-.2.2-.2.4a1.45,1.45,0,0,0-.2.7c-.1.3-.1.7-.2,1.2s-.1,1.1-.1,1.9a10.32,10.32,0,0,0,.1,1.9,3.73,3.73,0,0,0,.2,1.2,4.07,4.07,0,0,1,.2.7c.1.2.2.3.2.4l.6.6a1.64,1.64,0,0,0,1,.2,1.75,1.75,0,0,0,1.5-.6,2.23,2.23,0,0,0,.6-1.3h4.3A6.14,6.14,0,0,1,102,18.3Z"/><path class="b" d="M113.2,21.3V14.4h-4.5v6.9h-4.2V4h4.2v6.6h4.5V4h4.2V21.3Z"/><path class="b" d="M128.5,21.3l-3-6.4h-1.4v6.4h-4.2V4h6.9a7.08,7.08,0,0,1,2.6.5,4,4,0,0,1,1.8,1.3,4.18,4.18,0,0,1,1.1,1.8,7.12,7.12,0,0,1,.4,2.1,7.77,7.77,0,0,1-.2,1.6c-.2.5-.4.9-.6,1.3a4.3,4.3,0,0,1-.9,1,3.33,3.33,0,0,1-1,.6l3.8,7.2h-5.3Zm-.2-11.8a1.66,1.66,0,0,0-.5-1.2,2,2,0,0,0-1.4-.6H124v3.5h2.4a1.82,1.82,0,0,0,1.4-.6A1.29,1.29,0,0,0,128.3,9.5Z"/><path class="b" d="M134.9,21.3V4h4.2V21.3Z"/><path class="b" d="M153.6,16a4.14,4.14,0,0,1-.6,2.3,4.57,4.57,0,0,1-1.4,1.7,5,5,0,0,1-2.2,1,10.9,10.9,0,0,1-2.6.3,12.1,12.1,0,0,1-1.9-.1,11.63,11.63,0,0,1-1.8-.4,6.89,6.89,0,0,1-1.5-.7,4.86,4.86,0,0,1-1.4-1.1l2.7-2.7a3.54,3.54,0,0,0,1.8,1,7.84,7.84,0,0,0,2.1.2c1.7,0,2.5-.5,2.5-1.5a1.49,1.49,0,0,0-.3-1,2.26,2.26,0,0,0-1.1-.5l-2.1-.3a5.4,5.4,0,0,1-3.4-1.5,4.7,4.7,0,0,1-1.2-3.4,7.8,7.8,0,0,1,.4-2.2,6.78,6.78,0,0,1,1.3-1.8,4.9,4.9,0,0,1,2-1.1,9.89,9.89,0,0,1,5.9.1,7.06,7.06,0,0,1,2.6,1.6l-2.6,2.6a2.84,2.84,0,0,0-.9-.6,3.18,3.18,0,0,0-.9-.3,2.49,2.49,0,0,0-.8-.1h-.7a3,3,0,0,0-1,.2c-.2.1-.5.2-.6.4s-.3.3-.4.5a1.42,1.42,0,0,0-.2.6.76.76,0,0,0,.1.4c.1.2.2.3.2.4a1.07,1.07,0,0,0,.5.3,1.45,1.45,0,0,0,.7.2l2.1.3a6.27,6.27,0,0,1,3.4,1.4,3.91,3.91,0,0,1,1,1.6A7.8,7.8,0,0,1,153.6,16Z"/><path class="b" d="M163.1,7.8V21.3h-4.2V7.8h-4.2V4h12.7V7.8Z"/><path class="b" d="M169.4,8.8V4h2.7V6.6Z"/><path class="b" d="M185.2,16a4.14,4.14,0,0,1-.6,2.3,4.57,4.57,0,0,1-1.4,1.7,5,5,0,0,1-2.2,1,10.9,10.9,0,0,1-2.6.3,12.1,12.1,0,0,1-1.9-.1,11.63,11.63,0,0,1-1.8-.4,6.89,6.89,0,0,1-1.5-.7,4.86,4.86,0,0,1-1.4-1.1l2.7-2.7a3.54,3.54,0,0,0,1.8,1,7.49,7.49,0,0,0,2.1.2c1.7,0,2.5-.5,2.5-1.5a1.49,1.49,0,0,0-.3-1,2.26,2.26,0,0,0-1.1-.5l-2.1-.3a5.4,5.4,0,0,1-3.4-1.5,4.7,4.7,0,0,1-1.2-3.4,7.8,7.8,0,0,1,.4-2.2,6.78,6.78,0,0,1,1.3-1.8,4.9,4.9,0,0,1,2-1.1,9.89,9.89,0,0,1,5.9.1A7.06,7.06,0,0,1,185,5.9l-2.6,2.6a2.84,2.84,0,0,0-.9-.6,3.18,3.18,0,0,0-.9-.3,2.49,2.49,0,0,0-.8-.1h-.6a3,3,0,0,0-1,.2c-.2.1-.5.2-.6.4s-.3.3-.4.5a1.42,1.42,0,0,0-.2.6.76.76,0,0,0,.1.4c.1.2.2.3.2.4a1.07,1.07,0,0,0,.5.3,1.45,1.45,0,0,0,.7.2l2.1.3a6.27,6.27,0,0,1,3.4,1.4,3.91,3.91,0,0,1,1,1.6A15,15,0,0,1,185.2,16Z"/><path class="b" d="M204.7,18.3a8.62,8.62,0,0,1-1.4,1.8,5,5,0,0,1-1.9,1,8.52,8.52,0,0,1-2.3.3,7.64,7.64,0,0,1-2.7-.5,6,6,0,0,1-2.1-1.4,5.27,5.27,0,0,1-1-1.4c-.2-.6-.4-1.1-.6-1.7a11,11,0,0,1-.2-1.8V10.8a11,11,0,0,1,.2-1.8,3.88,3.88,0,0,1,.6-1.7,3.59,3.59,0,0,1,1-1.4,7,7,0,0,1,2.1-1.4,7.64,7.64,0,0,1,2.7-.5,8.52,8.52,0,0,1,2.3.3,5.73,5.73,0,0,1,1.9,1,5.12,5.12,0,0,1,1.4,1.8,9.17,9.17,0,0,1,.8,2.5h-4.3a5.17,5.17,0,0,0-.6-1.3,1.75,1.75,0,0,0-1.5-.6,3,3,0,0,0-1,.2c-.3.2-.5.3-.6.6s-.2.2-.2.4a1.45,1.45,0,0,0-.2.7c-.1.3-.1.7-.2,1.2s-.1,1.1-.1,1.9a10.32,10.32,0,0,0,.1,1.9,3.73,3.73,0,0,0,.2,1.2,4.08,4.08,0,0,1,.2.7c0,.1.2.3.2.4l.6.6a1.64,1.64,0,0,0,1,.2,1.75,1.75,0,0,0,1.5-.6,2.23,2.23,0,0,0,.6-1.3h4.3A6.14,6.14,0,0,1,204.7,18.3Z"/><path class="b" d="M215.9,21.3V14.4h-4.5v6.9h-4.2V4h4.2v6.6h4.5V4h4.2V21.3Z"/><path class="b" d="M234.7,17.8a4.5,4.5,0,0,1-1.4,1.9,5.71,5.71,0,0,1-2.1,1.3,7.46,7.46,0,0,1-2.6.4A10.87,10.87,0,0,1,226,21a6.66,6.66,0,0,1-2.1-1.3,8.47,8.47,0,0,1-1.4-1.9,7.08,7.08,0,0,1-.5-2.6V4h4.2V15.1a2.44,2.44,0,0,0,.6,1.8,2.71,2.71,0,0,0,3.4,0,2.44,2.44,0,0,0,.6-1.8V4H235V15.2A3.8,3.8,0,0,1,234.7,17.8Z"/><path class="b" d="M246,21.3l-3-6.4h-1.4v6.4h-4.2V4h6.9a7.08,7.08,0,0,1,2.6.5,4,4,0,0,1,1.8,1.3,4.18,4.18,0,0,1,1.1,1.8,7.12,7.12,0,0,1,.4,2.1,7.77,7.77,0,0,1-.2,1.6c-.2.5-.4.9-.6,1.3a4.3,4.3,0,0,1-.9,1,3.33,3.33,0,0,1-1,.6l3.8,7.2H246Zm-.2-11.8a1.66,1.66,0,0,0-.5-1.2,2,2,0,0,0-1.4-.6h-2.4v3.5h2.4a1.82,1.82,0,0,0,1.4-.6A1.29,1.29,0,0,0,245.8,9.5Z"/><path class="b" d="M263.7,18.3a8.62,8.62,0,0,1-1.4,1.8,5,5,0,0,1-1.9,1,8.52,8.52,0,0,1-2.3.3,7.64,7.64,0,0,1-2.7-.5,6,6,0,0,1-2.1-1.4,5.27,5.27,0,0,1-1-1.4c-.2-.6-.4-1.1-.6-1.7a11,11,0,0,1-.2-1.8V10.8a11,11,0,0,1,.2-1.8,3.88,3.88,0,0,1,.6-1.7,3.59,3.59,0,0,1,1-1.4,7,7,0,0,1,2.1-1.4,7.64,7.64,0,0,1,2.7-.5,8.52,8.52,0,0,1,2.3.3,5.73,5.73,0,0,1,1.9,1,5.12,5.12,0,0,1,1.4,1.8,8.17,8.17,0,0,1,.8,2.5h-4.3a5.17,5.17,0,0,0-.6-1.3,1.75,1.75,0,0,0-1.5-.6,3,3,0,0,0-1,.2.9.9,0,0,0-.6.6c-.1.2-.2.2-.2.4a1.45,1.45,0,0,0-.2.7c-.1.3-.1.7-.2,1.2s-.1,1.1-.1,1.9a10.32,10.32,0,0,0,.1,1.9,3.73,3.73,0,0,0,.2,1.2,4.08,4.08,0,0,1,.2.7c.1.2.2.3.2.4l.6.6a1.64,1.64,0,0,0,1,.2,1.75,1.75,0,0,0,1.5-.6,2.23,2.23,0,0,0,.6-1.3h4.3A8.17,8.17,0,0,1,263.7,18.3Z"/><path class="b" d="M274.3,21.3V14.4h-4.5v6.9h-4.2V4h4.2v6.6h4.5V4h4.2V21.3Z"/><path class="b" d="M98.2,31.6v1.6c0,.5-.1.9-.1,1.2l-.3.9c-.2.2-.3.6-.6.8a3.53,3.53,0,0,1-1.3.8,4,4,0,0,1-1.5.3,3.65,3.65,0,0,1-1.5-.3,5.67,5.67,0,0,1-1.3-.8,2.41,2.41,0,0,1-.6-.8c-.2-.2-.2-.6-.3-.9a4.12,4.12,0,0,1-.1-1.2V30c0-.5.1-.9.1-1.2l.3-.9c.2-.2.3-.6.6-.8a3.53,3.53,0,0,1,1.3-.8,3.9,3.9,0,0,1,3,0,5.67,5.67,0,0,1,1.3.8,2.41,2.41,0,0,1,.6.8c.2.2.2.6.3.9a4.12,4.12,0,0,1,.1,1.2Zm-.8,0V30.1c0-.4-.1-.8-.1-1.1a3.09,3.09,0,0,1-.2-.8,1.33,1.33,0,0,0-.5-.6,2.42,2.42,0,0,0-1-.6,2.15,2.15,0,0,0-1.1-.2,3.59,3.59,0,0,0-1.1.2,3.33,3.33,0,0,0-1,.6c-.2.2-.3.4-.5.6a1.88,1.88,0,0,0-.2.8,3.42,3.42,0,0,0-.1,1.1v3c0,.4.1.8.1,1.1a3.09,3.09,0,0,1,.2.8,1.33,1.33,0,0,0,.5.6,2.42,2.42,0,0,0,1,.6,2.15,2.15,0,0,0,1.1.2,3.59,3.59,0,0,0,1.1-.2,3.33,3.33,0,0,0,1-.6c.2-.2.3-.4.5-.6a1.88,1.88,0,0,0,.2-.8,3.42,3.42,0,0,0,.1-1.1A7.44,7.44,0,0,1,97.4,31.6Z"/><path class="b" d="M103.5,31.4h5v.7h-5v5h-.8v-11h6.7v.7h-5.8l-.1,4.6Z"/><path class="b" d="M121.3,37.1h-.8V26.8h-3.3v-.7h7.4v.7h-3.3V37.1Z"/><path class="b" d="M134.8,31.9H129v5.2h-.8v-11h.8v5.1h5.8V26.1h.8v11h-.8Z"/><path class="b" d="M140.6,26.1h6.7v.7h-5.8v4.4h5v.7h-5v4.5h5.8v.7h-6.7Z"/><path class="b" d="M158.7,37.1l-3.6-11h.9l3.1,9.6,3.1-9.6h.9l-3.6,11Z"/><path class="b" d="M172,34.4h-5.1l-1,2.7H165l4.1-11h.7l4.1,11H173Zm-4.9-.7h4.6l-2.3-6.5Z"/><path class="b" d="M177.2,26.1h.8V36.4h5.8v.7h-6.7l.1-11Z"/><path class="b" d="M187.5,26.1h.8V36.4h5.8v.7h-6.7l.1-11Z"/><path class="b" d="M197.9,26.1h6.7v.7h-5.8v4.4h5v.7h-5v4.5h5.8v.7h-6.7Z"/><path class="b" d="M211.2,37.1h-.8V32.5L207.1,26h.9l2.8,5.6,2.7-5.6h.9l-3.3,6.5.1,4.6Z"/></svg>
