<?xml version="1.0" encoding="utf-8"?>
<svg version="1.2" baseProfile="tiny" id="Layer_1" xmlns="http://www.w3.org/2000/svg" xmlns:xlink="http://www.w3.org/1999/xlink"
	 x="0px" y="0px" viewBox="-80 0 40 40" xml:space="preserve">
<g>
	<path d="M-59.943,15.705c0.188,0,0.34-0.051,0.449-0.155c0.112-0.104,0.168-0.25,0.168-0.432v-3.726
		c0-0.152-0.057-0.274-0.17-0.363c-0.113-0.094-0.264-0.141-0.447-0.141c-0.174,0-0.311,0.047-0.418,0.141
		c-0.104,0.089-0.16,0.211-0.16,0.363v3.726c0,0.188,0.051,0.334,0.15,0.432C-60.271,15.654-60.131,15.705-59.943,15.705z"/>
	<path d="M-59.999,0C-71.046,0-80,8.953-80,20c0,11.047,8.954,20,20.001,20C-48.953,40-40,31.047-40,20C-40,8.953-48.953,0-59.999,0
		z M-56.768,9.878h1.395v5.246c0,0.164,0.031,0.28,0.091,0.349c0.058,0.074,0.153,0.113,0.284,0.113
		c0.102,0,0.232-0.051,0.391-0.143c0.157-0.103,0.301-0.221,0.43-0.373V9.878h1.398v6.842h-1.398v-0.755
		c-0.256,0.277-0.522,0.492-0.803,0.635c-0.278,0.145-0.549,0.221-0.812,0.221c-0.321,0-0.567-0.104-0.729-0.31
		c-0.162-0.2-0.244-0.504-0.244-0.916V9.878H-56.768z M-61.959,11.443c0-0.531,0.188-0.951,0.564-1.269
		c0.375-0.312,0.883-0.471,1.517-0.471c0.58,0,1.053,0.167,1.425,0.498c0.365,0.328,0.553,0.757,0.553,1.278v3.535
		c0,0.586-0.183,1.047-0.543,1.377c-0.363,0.332-0.861,0.498-1.498,0.498c-0.61,0-1.1-0.173-1.467-0.514
		c-0.367-0.346-0.551-0.809-0.551-1.391V11.443z M-65.766,7.447l1.021,3.703h0.099l0.977-3.703h1.598l-1.83,5.425v3.848h-1.574
		v-3.675l-1.873-5.598H-65.766z M-47.458,26.967c0,2.473-2.007,4.482-4.481,4.482h-15.574c-2.479,0-4.483-2.01-4.483-4.482v-3.606
		c0-2.476,2.006-4.48,4.483-4.48h15.574c2.476,0,4.481,2.008,4.481,4.48V26.967z"/>
	<polygon points="-68.539,21.682 -67.09,21.682 -67.09,28.876 -65.691,28.876 -65.691,21.682 -64.243,21.682 -64.243,20.459
		-68.539,20.459 	"/>
	<path d="M-56.857,22.589c-0.194,0-0.386,0.052-0.576,0.149c-0.186,0.098-0.362,0.244-0.53,0.432v-2.711h-1.254v8.417h1.254V28.4
		c0.162,0.189,0.342,0.332,0.53,0.422c0.188,0.092,0.404,0.137,0.649,0.137c0.367,0,0.65-0.116,0.845-0.352
		c0.193-0.236,0.291-0.573,0.291-1.014v-3.445c0-0.51-0.104-0.897-0.311-1.16C-56.165,22.723-56.468,22.589-56.857,22.589z
		 M-56.93,27.423c0,0.2-0.035,0.345-0.105,0.431c-0.072,0.086-0.182,0.131-0.336,0.131c-0.104,0-0.203-0.022-0.301-0.064
		c-0.096-0.045-0.193-0.119-0.293-0.221V23.83c0.085-0.086,0.17-0.15,0.256-0.189c0.088-0.043,0.175-0.062,0.264-0.062
		c0.168,0,0.297,0.054,0.387,0.161c0.088,0.109,0.131,0.269,0.131,0.479v3.205L-56.93,27.423L-56.93,27.423z"/>
	<path d="M-61.395,27.385c-0.119,0.135-0.244,0.244-0.385,0.334c-0.142,0.086-0.258,0.129-0.347,0.129
		c-0.115,0-0.201-0.031-0.257-0.1c-0.049-0.064-0.076-0.17-0.076-0.316v-4.766h-1.24v5.195c0,0.369,0.072,0.645,0.22,0.832
		c0.146,0.183,0.359,0.272,0.649,0.272c0.231,0,0.472-0.061,0.72-0.194c0.248-0.137,0.485-0.326,0.717-0.576v0.681h1.242v-6.21
		h-1.242L-61.395,27.385L-61.395,27.385z"/>
	<path d="M-53.113,22.511c-0.555,0-1.006,0.171-1.355,0.511c-0.352,0.34-0.528,0.781-0.528,1.314v2.792
		c0,0.601,0.162,1.067,0.479,1.407c0.318,0.341,0.756,0.514,1.314,0.514c0.617,0,1.08-0.16,1.393-0.48
		c0.312-0.323,0.465-0.801,0.465-1.438v-0.317h-1.274v0.281c0,0.367-0.043,0.604-0.123,0.707c-0.084,0.107-0.228,0.161-0.432,0.161
		c-0.199,0-0.341-0.062-0.423-0.189c-0.082-0.129-0.119-0.353-0.119-0.682V25.92h2.371v-1.584c0-0.587-0.149-1.037-0.455-1.353
		C-52.105,22.669-52.543,22.511-53.113,22.511z M-52.621,24.957h-1.097v-0.63c0-0.259,0.042-0.447,0.128-0.558
		c0.085-0.117,0.227-0.17,0.426-0.17c0.188,0,0.327,0.053,0.412,0.17c0.088,0.108,0.131,0.299,0.131,0.558V24.957z"/>
</g>
</svg>
