<svg width="132" height="189" viewBox="0 0 132 189" fill="none" xmlns="http://www.w3.org/2000/svg">
<mask id="path-1-outside-1_3910_923" maskUnits="userSpaceOnUse" x="13" y="0" width="89" height="181" fill="black">
<rect fill="white" x="13" width="89" height="181"/>
<path d="M100.362 2.11999V179H62.0376V56.524H14.8696V31.868C32.7362 31.6893 45.0642 29.6347 51.8536 25.704C58.8216 21.7733 63.9136 13.912 67.1296 2.11999H100.362Z"/>
</mask>
<path class="fill-here" d="M100.362 2.11999H101.862V0.619993H100.362V2.11999ZM100.362 179V180.5H101.862V179H100.362ZM62.0376 179H60.5376V180.5H62.0376V179ZM62.0376 56.524H63.5376V55.024H62.0376V56.524ZM14.8696 56.524H13.3696V58.024H14.8696V56.524ZM14.8696 31.868L14.8546 30.3681L13.3696 30.3829V31.868H14.8696ZM51.8536 25.704L51.1166 24.3975L51.1093 24.4016L51.102 24.4059L51.8536 25.704ZM67.1296 2.11999V0.619993H65.9839L65.6824 1.72532L67.1296 2.11999ZM98.8616 2.11999V179H101.862V2.11999H98.8616ZM100.362 177.5H62.0376V180.5H100.362V177.5ZM63.5376 179V56.524H60.5376V179H63.5376ZM62.0376 55.024H14.8696V58.024H62.0376V55.024ZM16.3696 56.524V31.868H13.3696V56.524H16.3696ZM14.8846 33.3679C32.7579 33.1892 45.4446 31.1477 52.6051 27.0021L51.102 24.4059C44.6839 28.1216 32.7145 30.1895 14.8546 30.3681L14.8846 33.3679ZM52.5906 27.0105C60.0544 22.8001 65.31 14.4928 68.5767 2.51467L65.6824 1.72532C62.5172 13.3312 57.5888 20.7466 51.1166 24.3975L52.5906 27.0105ZM67.1296 3.61999H100.362V0.619993H67.1296V3.61999Z" fill="#E74724" mask="url(#path-1-outside-1_3910_923)"/>
</svg>
