<svg width="132" height="189" viewBox="0 0 132 189" fill="none" xmlns="http://www.w3.org/2000/svg">
<mask id="path-1-outside-1_3910_924" maskUnits="userSpaceOnUse" x="0" y="0" width="132" height="185" fill="black">
<rect fill="white" width="132" height="185"/>
<path d="M129.574 150.84V183H2.00558C4.14958 165.491 9.15225 151.376 17.0136 140.656C24.8749 129.757 40.8656 115.107 64.9856 96.704C81.7802 83.6613 90.1776 70.976 90.1776 58.648C90.1776 51.68 87.9442 46.052 83.4776 41.764C79.1896 37.476 73.4722 35.332 66.3256 35.332C55.9629 35.332 48.6376 39.7093 44.3496 48.464C42.3842 52.752 41.1336 59.5413 40.5976 68.832H4.95358C5.48958 51.144 8.88425 37.5653 15.1376 28.096C26.3936 10.944 43.9029 2.36799 67.6656 2.36799C86.0683 2.36799 100.987 7.63866 112.422 18.18C124.035 28.7213 129.842 42.4787 129.842 59.452C129.842 75.8893 123.052 90.6293 109.474 103.672C104.828 108.139 92.7682 117.429 73.2936 131.544C62.2162 139.405 54.8909 145.837 51.3176 150.84H129.574Z"/>
</mask>
<path class="fill-here" d="M129.574 150.84H131.074V149.34H129.574V150.84ZM129.574 183V184.5H131.074V183H129.574ZM2.00558 183L0.516699 182.818L0.310701 184.5H2.00558V183ZM17.0136 140.656L18.2232 141.543L18.2301 141.534L17.0136 140.656ZM64.9856 96.704L65.8955 97.8966L65.9056 97.8887L64.9856 96.704ZM83.4776 41.764L82.4169 42.8247L82.4277 42.8355L82.4388 42.8461L83.4776 41.764ZM44.3496 48.464L43.0025 47.8042L42.994 47.8215L42.986 47.839L44.3496 48.464ZM40.5976 68.832V70.332H42.0135L42.0951 68.9184L40.5976 68.832ZM4.95358 68.832L3.45427 68.7866L3.40744 70.332H4.95358V68.832ZM15.1376 28.096L16.3893 28.9226L16.3917 28.919L15.1376 28.096ZM112.422 18.18L111.405 19.2829L111.413 19.2907L112.422 18.18ZM109.474 103.672L108.434 102.59L108.434 102.591L109.474 103.672ZM73.2936 131.544L74.1617 132.767L74.1678 132.763L74.1739 132.759L73.2936 131.544ZM51.3176 150.84L50.097 149.968L48.4028 152.34H51.3176V150.84ZM128.074 150.84V183H131.074V150.84H128.074ZM129.574 181.5H2.00558V184.5H129.574V181.5ZM3.49446 183.182C5.6171 165.847 10.5554 151.999 18.2232 141.543L15.804 139.769C7.74907 150.753 2.68206 165.134 0.516699 182.818L3.49446 183.182ZM18.2301 141.534C25.9507 130.83 41.7831 116.293 65.8954 97.8965L64.0757 95.5115C39.9481 113.92 23.7991 128.685 15.797 139.778L18.2301 141.534ZM65.9056 97.8887C82.809 84.7616 91.6776 71.6887 91.6776 58.648H88.6776C88.6776 70.2632 80.7515 82.561 64.0655 95.5193L65.9056 97.8887ZM91.6776 58.648C91.6776 51.3278 89.3159 45.2895 84.5164 40.6819L82.4388 42.8461C86.5726 46.8145 88.6776 52.0322 88.6776 58.648H91.6776ZM84.5382 40.7033C79.9191 36.0842 73.7936 33.832 66.3256 33.832V36.832C73.1509 36.832 78.46 38.8678 82.4169 42.8247L84.5382 40.7033ZM66.3256 33.832C60.9314 33.832 56.2307 34.9727 52.2901 37.3274C48.3441 39.6854 45.2555 43.2042 43.0025 47.8042L45.6967 49.1238C47.7316 44.9691 50.4497 41.9219 53.829 39.9026C57.2138 37.88 61.3571 36.832 66.3256 36.832V33.832ZM42.986 47.839C40.8993 52.3918 39.6384 59.414 39.1001 68.7456L42.0951 68.9184C42.6287 59.6687 43.8692 53.1122 45.7132 49.089L42.986 47.839ZM40.5976 67.332H4.95358V70.332H40.5976V67.332ZM6.45289 68.8774C6.98478 51.325 10.3526 38.0638 16.3893 28.9226L13.8859 27.2694C7.41588 37.0668 3.99437 50.963 3.45427 68.7866L6.45289 68.8774ZM16.3917 28.919C27.3228 12.2619 44.3151 3.86799 67.6656 3.86799V0.867993C43.4907 0.867993 25.4643 9.62607 13.8835 27.273L16.3917 28.919ZM67.6656 3.86799C85.7648 3.86799 100.297 9.04258 111.405 19.2829L113.438 17.0771C101.677 6.23474 86.3717 0.867993 67.6656 0.867993V3.86799ZM111.413 19.2907C122.686 29.5225 128.342 42.8627 128.342 59.452H131.342C131.342 42.0946 125.384 27.9201 113.43 17.0693L111.413 19.2907ZM128.342 59.452C128.342 75.4204 121.765 89.7854 108.434 102.59L110.513 104.754C124.339 91.4732 131.342 76.3583 131.342 59.452H128.342ZM108.434 102.591C103.88 106.97 91.9156 116.195 72.4133 130.329L74.1739 132.759C93.6209 118.664 105.777 109.308 110.513 104.753L108.434 102.591ZM72.4255 130.321C61.3362 138.191 53.828 144.745 50.097 149.968L52.5382 151.712C55.9539 146.93 63.0963 140.62 74.1617 132.767L72.4255 130.321ZM51.3176 152.34H129.574V149.34H51.3176V152.34Z" fill="#E74724" mask="url(#path-1-outside-1_3910_924)"/>
</svg>
