<svg width="132" height="189" viewBox="0 0 132 189" fill="none" xmlns="http://www.w3.org/2000/svg">
<mask id="path-1-outside-1_3910_925" maskUnits="userSpaceOnUse" x="0" y="0" width="132" height="188" fill="black">
<rect fill="white" width="132" height="188"/>
<path d="M50.7816 103.94V76.604C54.7122 76.7827 58.0176 76.872 60.6976 76.872C69.8096 76.872 76.8669 74.9067 81.8696 70.976C86.8722 67.0453 89.3736 61.4173 89.3736 54.092C89.3736 47.8387 87.2296 42.7467 82.9416 38.816C78.8323 34.8853 73.3829 32.92 66.5936 32.92C56.7669 32.92 49.5309 36.672 44.8856 44.176C42.5629 47.928 41.4016 54.0027 41.4016 62.4H5.75758C6.11491 43.104 11.5642 28.2747 22.1056 17.912C32.8256 7.54932 47.7442 2.36799 66.8616 2.36799C84.0136 2.36799 97.9496 7.01333 108.67 16.304C119.568 25.416 125.018 37.2973 125.018 51.948C125.018 67.1347 118.139 79.3733 104.382 88.664C121.176 96.3467 129.574 109.568 129.574 128.328C129.574 145.659 123.678 159.684 111.886 170.404C100.094 181.124 84.7282 186.484 65.7896 186.484C45.9576 186.484 30.5029 180.945 19.4256 169.868C8.34825 158.791 2.63091 143.247 2.27358 123.236H38.4536C38.6322 132.705 40.1509 139.495 43.0096 143.604C48.0122 151.287 55.4269 155.128 65.2536 155.128C72.9362 155.128 79.0109 152.805 83.4776 148.16C87.9442 143.336 90.1776 136.904 90.1776 128.864C90.1776 112.069 80.6189 103.672 61.5016 103.672C57.5709 103.672 53.9976 103.761 50.7816 103.94Z"/>
</mask>
<path class="fill-here" d="M50.7816 103.94H49.2816V105.526L50.8648 105.438L50.7816 103.94ZM50.7816 76.604L50.8497 75.1055L49.2816 75.0343V76.604H50.7816ZM81.8696 70.976L82.7963 72.1555L82.7963 72.1555L81.8696 70.976ZM82.9416 38.816L81.9048 39.9L81.9163 39.911L81.928 39.9217L82.9416 38.816ZM44.8856 44.176L43.6102 43.3865L43.6102 43.3865L44.8856 44.176ZM41.4016 62.4V63.9H42.9016V62.4H41.4016ZM5.75758 62.4L4.25784 62.3722L4.22954 63.9H5.75758V62.4ZM22.1056 17.912L21.063 16.8335L21.054 16.8423L22.1056 17.912ZM108.67 16.304L107.687 17.4375L107.697 17.4462L107.707 17.4548L108.67 16.304ZM104.382 88.664L103.542 87.4209L101.328 88.9164L103.758 90.028L104.382 88.664ZM111.886 170.404L112.895 171.514L112.895 171.514L111.886 170.404ZM19.4256 169.868L18.3649 170.929L18.3649 170.929L19.4256 169.868ZM2.27358 123.236V121.736H0.746554L0.773818 123.263L2.27358 123.236ZM38.4536 123.236L39.9533 123.208L39.9255 121.736H38.4536V123.236ZM43.0096 143.604L44.2666 142.785L44.254 142.766L44.2409 142.747L43.0096 143.604ZM83.4776 148.16L84.5588 149.2L84.5686 149.189L84.5782 149.179L83.4776 148.16ZM52.2816 103.94V76.604H49.2816V103.94H52.2816ZM50.7135 78.1024C54.6574 78.2817 57.9871 78.372 60.6976 78.372V75.372C58.0481 75.372 54.7671 75.2836 50.8497 75.1055L50.7135 78.1024ZM60.6976 78.372C70.0043 78.372 77.4363 76.3669 82.7963 72.1555L80.9429 69.7965C76.2975 73.4464 69.6148 75.372 60.6976 75.372V78.372ZM82.7963 72.1555C88.2186 67.8951 90.8736 61.7989 90.8736 54.092H87.8736C87.8736 61.0357 85.5259 66.1955 80.9428 69.7965L82.7963 72.1555ZM90.8736 54.092C90.8736 47.4536 88.5783 41.9481 83.9552 37.7103L81.928 39.9217C85.8809 43.5452 87.8736 48.2237 87.8736 54.092H90.8736ZM83.9784 37.732C79.5372 33.4839 73.6894 31.42 66.5936 31.42V34.42C73.0764 34.42 78.1273 36.2868 81.9048 39.9L83.9784 37.732ZM66.5936 31.42C56.3177 31.42 48.564 35.3842 43.6102 43.3865L46.161 44.9655C50.4978 37.9598 57.2161 34.42 66.5936 34.42V31.42ZM43.6102 43.3865C41.0592 47.5073 39.9016 53.9354 39.9016 62.4H42.9016C42.9016 54.0699 44.0666 48.3487 46.161 44.9655L43.6102 43.3865ZM41.4016 60.9H5.75758V63.9H41.4016V60.9ZM7.25732 62.4278C7.60969 43.3999 12.9736 28.9926 23.1571 18.9817L21.054 16.8423C10.1549 27.5567 4.62013 42.8081 4.25784 62.3722L7.25732 62.4278ZM23.1481 18.9905C33.5157 8.96843 48.0189 3.86799 66.8616 3.86799V0.867993C47.4696 0.867993 32.1354 6.13022 21.063 16.8335L23.1481 18.9905ZM66.8616 3.86799C83.7316 3.86799 97.2941 8.43021 107.687 17.4375L109.652 15.1705C98.605 5.59644 84.2956 0.867993 66.8616 0.867993V3.86799ZM107.707 17.4548C118.253 26.2717 123.518 37.7256 123.518 51.948H126.518C126.518 36.869 120.883 24.5603 109.632 15.1532L107.707 17.4548ZM123.518 51.948C123.518 66.584 116.932 78.3785 103.542 87.4209L105.221 89.9071C119.346 80.3681 126.518 67.6853 126.518 51.948H123.518ZM103.758 90.028C111.939 93.7707 117.992 98.8214 122.009 105.146C126.027 111.473 128.074 119.176 128.074 128.328H131.074C131.074 118.72 128.921 110.433 124.542 103.538C120.162 96.6413 113.619 91.2399 105.006 87.2999L103.758 90.028ZM128.074 128.328C128.074 145.277 122.326 158.885 110.877 169.294L112.895 171.514C125.029 160.483 131.074 146.04 131.074 128.328H128.074ZM110.877 169.294C99.4112 179.717 84.4295 184.984 65.7896 184.984V187.984C85.027 187.984 100.776 182.531 112.895 171.514L110.877 169.294ZM65.7896 184.984C46.2441 184.984 31.2123 179.533 20.4862 168.807L18.3649 170.929C29.7935 182.357 45.671 187.984 65.7896 187.984V184.984ZM20.4862 168.807C9.75405 158.075 4.12574 142.944 3.77334 123.209L0.773818 123.263C1.13608 143.549 6.94244 159.506 18.3649 170.929L20.4862 168.807ZM2.27358 124.736H38.4536V121.736H2.27358V124.736ZM36.9538 123.264C37.1339 132.806 38.6561 139.973 41.7782 144.461L44.2409 142.747C41.6457 139.017 40.1306 132.605 39.9533 123.208L36.9538 123.264ZM41.7526 144.423C47.055 152.565 54.9631 156.628 65.2536 156.628V153.628C55.8907 153.628 48.9695 150.008 44.2666 142.785L41.7526 144.423ZM65.2536 156.628C73.2597 156.628 79.7556 154.195 84.5588 149.2L82.3963 147.12C78.2662 151.416 72.6128 153.628 65.2536 153.628V156.628ZM84.5782 149.179C89.3561 144.019 91.6776 137.193 91.6776 128.864H88.6776C88.6776 136.615 86.5324 142.653 82.3769 147.141L84.5782 149.179ZM91.6776 128.864C91.6776 120.181 89.1978 113.411 83.9986 108.843C78.8365 104.308 71.2471 102.172 61.5016 102.172V105.172C70.8733 105.172 77.622 107.234 82.0186 111.097C86.3781 114.927 88.6776 120.752 88.6776 128.864H91.6776ZM61.5016 102.172C57.5489 102.172 53.9473 102.262 50.6984 102.442L50.8648 105.438C54.0478 105.261 57.5929 105.172 61.5016 105.172V102.172Z" fill="#E74724" mask="url(#path-1-outside-1_3910_925)"/>
</svg>
