<svg width="574" height="428" viewBox="0 0 574 428" fill="none" xmlns="http://www.w3.org/2000/svg">
<path d="M1 305.785L25.4259 303.173V176.84L1 179.452V305.785Z" stroke="#353535" stroke-width="1.29" stroke-miterlimit="10"/>
<path d="M58.3064 243.602C59.1022 237.46 61.0589 232.452 64.1765 228.576C67.2941 224.7 71.6756 222.462 77.3303 221.854C82.5263 221.301 86.8891 222.5 90.3999 225.468C93.9107 228.435 95.8674 233.126 96.27 239.539L58.2971 243.602H58.3064ZM95.5023 268.243C94.1916 271.127 92.6749 273.43 90.9616 275.162C87.8159 278.354 83.734 280.217 78.7066 280.76C73.9599 281.266 69.9061 280.536 66.5358 278.551C60.9934 275.377 58.0537 269.123 57.7073 259.78L121.641 252.936C121.754 244.866 121.501 238.724 120.874 234.502C119.788 227.303 117.419 221.133 113.758 215.984C109.705 210.132 104.555 206.088 98.3296 203.832C92.1038 201.585 85.1009 200.873 77.3303 201.706C64.242 203.111 53.6066 208.56 45.4054 218.062C37.2041 227.565 33.1035 240.41 33.1035 256.578C33.1035 273.832 37.6442 285.807 46.7348 292.491C55.8161 299.176 66.3017 301.881 78.1916 300.608C92.5906 299.063 103.788 293.324 111.792 283.382C116.932 277.119 119.816 271.183 120.452 265.575L95.5116 268.243H95.5023Z" stroke="#353535" stroke-width="1.29" stroke-miterlimit="10"/>
<path d="M169.65 270.47C168.826 270.592 168.03 270.686 167.29 270.76C162.319 271.294 159.351 271.135 158.378 270.302C157.404 269.459 156.917 267.128 156.917 263.299V213.932L172.084 212.313V194.918L156.917 196.537V170.482L132.744 173.066V199.121L119.712 200.516V217.911L132.744 216.516V274.028C132.744 279.851 134.111 284.027 136.854 286.526C141.086 290.477 148.969 291.629 160.512 289.99L172.084 288.324V270.068C171.279 270.208 170.464 270.339 169.64 270.461L169.65 270.47Z" stroke="#353535" stroke-width="1.29" stroke-miterlimit="10"/>
<path d="M203.345 158.228L178.919 160.84V183.384L192.372 181.942C192.541 184.498 192.054 187.091 190.912 189.722C188.796 194.178 184.939 197.586 179.34 199.955V208.952C186.942 206.658 192.84 202.792 197.035 197.371C201.238 191.95 203.335 184.929 203.335 176.297V158.209L203.345 158.228Z" stroke="#353535" stroke-width="1.29" stroke-miterlimit="10"/>
<path d="M248.385 183.234C236.102 184.545 226.572 188.673 219.803 195.592C213.034 202.52 209.645 210.291 209.645 218.922C209.645 226.234 211.817 231.599 216.161 235.025C220.505 238.499 227.957 240.989 238.527 242.487C253.207 244.406 261.698 245.951 263.983 247.131C266.267 248.32 267.409 250.276 267.409 253.019C267.409 255.763 265.996 258.169 263.168 259.901C260.341 261.633 256.53 262.756 251.728 263.271C243.554 264.142 237.956 263.121 234.932 260.181C233.219 258.534 232.105 255.575 231.59 251.287L206.817 253.937C206.817 263.533 210.319 271.06 217.312 276.509C224.315 281.958 235.157 283.896 249.836 282.332C264.235 280.788 274.88 276.724 281.761 270.133C288.643 263.543 292.088 255.613 292.088 246.354C292.088 239.323 289.691 233.724 284.888 229.558C280.029 225.448 272.746 222.77 263.037 221.525C248.47 219.887 239.978 218.539 237.581 217.481C235.185 216.479 233.977 214.578 233.977 211.779C233.977 209.551 235.11 207.491 237.366 205.591C239.622 203.69 243.405 202.454 248.722 201.893C255.182 201.2 259.751 202.37 262.438 205.394C263.861 207.07 264.75 209.457 265.097 212.566L289.523 209.954C288.437 198.644 284.233 191.033 276.921 187.129C269.553 183.29 260.041 181.998 248.385 183.243V183.234Z" stroke="#353535" stroke-width="1.29" stroke-miterlimit="10"/>
<path d="M360.938 220.898C360.938 214.616 361.799 209.233 363.512 204.767C366.77 196.36 372.687 191.697 381.253 190.78C387.535 190.106 392.554 191.884 396.298 196.116C400.043 200.348 401.916 206.883 401.916 215.739C401.916 225.167 399.95 232.245 395.999 236.982C392.057 241.719 387.226 244.397 381.516 245.005C372.949 245.923 367.004 242.618 363.69 235.081C361.864 231.046 360.947 226.318 360.947 220.888L360.938 220.898ZM364.448 277.089L337.879 279.935C338.674 289.157 342.85 295.72 350.396 299.596C357.942 303.472 367.678 304.773 379.624 303.5C399.397 301.384 412.766 294.69 419.732 283.437C423.786 276.893 425.817 267.587 425.817 255.528V166.906L402.075 169.443V182.897C398.414 176.718 393.621 172.72 387.676 170.895C384.193 169.837 380.102 169.565 375.421 170.061C362.735 171.419 352.933 177.195 346.024 187.391C339.114 197.586 335.65 209.626 335.65 223.51C335.65 237.394 339.236 248.937 346.407 256.596C353.579 264.254 363.166 267.446 375.159 266.164C382.929 265.331 389.239 262.803 394.098 258.562C396.785 256.277 399.294 253.01 401.644 248.76V254.761C401.644 263.673 400.671 270.124 398.733 274.103C395.765 280.31 389.876 283.877 381.076 284.823C374.85 285.487 370.421 284.851 367.791 282.903C366.246 281.808 365.132 279.87 364.448 277.089Z" stroke="#353535" stroke-width="1.29" stroke-miterlimit="10"/>
<path d="M498.206 184.395C502.035 189.039 503.945 196.051 503.945 205.422C503.945 214.794 502.026 222.228 498.206 227.723C494.377 233.219 488.89 236.346 481.747 237.113C474.604 237.881 469.108 235.924 465.251 231.253C461.394 226.581 459.465 219.559 459.465 210.188C459.465 200.816 461.394 193.401 465.251 187.925C469.108 182.457 474.604 179.34 481.747 178.572C488.89 177.804 494.377 179.751 498.206 184.395ZM481.831 157.91C465.775 159.632 453.801 165.849 445.918 176.578C438.035 187.307 434.094 199.412 434.094 212.893C434.094 226.375 438.035 237.909 445.918 246.813C453.801 255.716 465.775 259.302 481.831 257.579C497.887 255.856 509.862 249.705 517.745 239.126C525.628 228.538 529.569 216.395 529.569 202.679C529.569 188.964 525.628 177.935 517.745 168.891C509.862 159.847 497.887 156.187 481.831 157.91Z" stroke="#353535" stroke-width="1.29" stroke-miterlimit="10"/>
<path d="M546.767 247.383L572.307 244.649V219.877L546.767 222.61V247.383ZM572.991 118.672L546.168 121.546V153.602L553.283 211.807L566.053 210.44L573 150.728V118.672H572.991Z" stroke="#353535" stroke-width="1.29" stroke-miterlimit="10"/>
<path d="M271.585 427.146C389.262 427.146 484.658 331.75 484.658 214.073C484.658 96.3961 389.262 1 271.585 1C153.908 1 58.5117 96.3961 58.5117 214.073C58.5117 331.75 153.908 427.146 271.585 427.146Z" stroke="#E74724" stroke-width="1.29" stroke-miterlimit="10"/>
</svg>
