<svg width="35" height="35" viewBox="0 0 35 35" fill="none" xmlns="http://www.w3.org/2000/svg">
<path fill-rule="evenodd" clip-rule="evenodd" d="M16.1215 0.292893C16.512 -0.0976311 17.1452 -0.0976311 17.5357 0.292893L32.2665 15.0236C32.3078 15.0538 32.3474 15.0876 32.3848 15.125L33.799 16.5392C33.9936 16.7339 34.0913 16.9888 34.0919 17.2439C34.097 17.5063 33.9994 17.7703 33.7992 17.9706L32.385 19.3848C32.3472 19.4226 32.3071 19.4567 32.2653 19.4871L17.5355 34.2169C17.145 34.6074 16.5118 34.6074 16.1213 34.2169L14.7071 32.8027C14.3166 32.4121 14.3166 31.779 14.7071 31.3884L26.8398 19.2557H1C0.447716 19.2557 0 18.808 0 18.2557V16.2557C0 15.7034 0.447715 15.2557 1 15.2557H26.8417L14.7073 3.12132C14.3168 2.7308 14.3168 2.09763 14.7073 1.70711L16.1215 0.292893Z" fill="#C0C2C7"/>
</svg>
