<?xml version="1.0" encoding="utf-8"?>
<!-- Generator: Adobe Illustrator 16.0.4, SVG Export Plug-In . SVG Version: 6.00 Build 0)  -->
<!DOCTYPE svg PUBLIC "-//W3C//DTD SVG 1.1//EN" "http://www.w3.org/Graphics/SVG/1.1/DTD/svg11.dtd">
<svg version="1.1" id="Layer_1" xmlns="http://www.w3.org/2000/svg" xmlns:xlink="http://www.w3.org/1999/xlink" x="0px" y="0px"
	 width="175px" height="50px" viewBox="0 0 175 50" enable-background="new 0 0 175 50" xml:space="preserve">
<g>
	<g>
		<path fill="#6D6E71" d="M77.385,20.468c2.25-0.771,3.429-2.503,3.429-5.072V14.66c0-2.946-1.445-6.46-8.332-6.46H61.248v25.146
			h11.48c5.454,0,8.453-2.308,8.453-6.497v-1.326C81.18,23.026,79.815,21.236,77.385,20.468 M72.196,18.88h-5.785v-6.633h6.193
			c2.132,0,3.17,0.849,3.17,2.598v1.105C75.775,18.372,73.828,18.88,72.196,18.88 M66.411,22.556h5.949
			c2.408,0,3.578,0.958,3.578,2.929v1.291c0,1.697-1.052,2.562-3.129,2.562h-6.398V22.556z"/>
		<polygon fill="#6D6E71" points="103.279,12.431 103.279,8.201 85.425,8.201 85.425,33.346 103.279,33.346 103.279,29.114 
			90.55,29.114 90.55,22.225 99.96,22.225 99.96,18.216 90.55,18.216 90.55,12.431 		"/>
		<polygon fill="#6D6E71" points="127.994,8.201 122.022,24.177 121.042,27.212 120.031,24.161 114.057,8.401 113.98,8.201 
			107.194,8.201 107.194,33.346 111.949,33.346 111.949,15.73 112.699,17.942 118.793,33.346 123.061,33.346 129.24,17.927 
			129.986,15.731 129.986,33.346 134.78,33.346 134.78,8.201 		"/>
		<path fill="#6D6E71" d="M151.615,8.403l-0.073-0.203h-4.932l-9.313,25.145h5.211l2.127-6.261h8.803l2.211,6.261h5.334
			L151.615,8.403z M152.03,23.188h-6.037l2.965-8.584L152.03,23.188z"/>
	</g>
	<g>
		<path fill="#6D6E71" d="M62.139,37.412v4.318h-0.62v-4.318H62.139z"/>
		<path fill="#6D6E71" d="M63.578,41.729v-4.318h0.676l1.538,2.185c0.356,0.506,0.634,0.96,0.862,1.403l0.014-0.006
			c-0.057-0.577-0.071-1.103-0.071-1.774v-1.807h0.584v4.318h-0.626l-1.523-2.191c-0.334-0.48-0.655-0.974-0.897-1.441l-0.021,0.007
			c0.036,0.544,0.05,1.063,0.05,1.781v1.845H63.578z"/>
		<path fill="#6D6E71" d="M68.618,37.412h2.584v0.467h-1.965v1.436h1.815v0.461h-1.815v1.954h-0.62V37.412z"/>
		<path fill="#6D6E71" d="M76.5,39.526c0,1.486-1.004,2.274-2.229,2.274c-1.267,0-2.157-0.884-2.157-2.191
			c0-1.372,0.947-2.268,2.229-2.268C75.652,37.341,76.5,38.245,76.5,39.526z M72.776,39.597c0,0.922,0.556,1.749,1.531,1.749
			c0.982,0,1.538-0.813,1.538-1.794c0-0.858-0.499-1.755-1.531-1.755C73.289,37.796,72.776,38.648,72.776,39.597z"/>
		<path fill="#6D6E71" d="M77.661,37.469c0.313-0.058,0.762-0.089,1.188-0.089c0.663,0,1.09,0.109,1.388,0.352
			c0.243,0.192,0.378,0.487,0.378,0.82c0,0.57-0.398,0.948-0.904,1.102v0.02c0.37,0.115,0.591,0.422,0.705,0.871
			c0.157,0.602,0.271,1.019,0.371,1.185h-0.641c-0.078-0.122-0.185-0.493-0.32-1.031c-0.143-0.596-0.399-0.82-0.962-0.839H78.28
			v1.871h-0.619V37.469z M78.28,39.436h0.633c0.663,0,1.082-0.327,1.082-0.82c0-0.557-0.448-0.8-1.103-0.807
			c-0.299,0-0.513,0.026-0.612,0.051V39.436z"/>
		<path fill="#6D6E71" d="M85.891,39.833c-0.035-0.603-0.078-1.326-0.071-1.865h-0.021c-0.164,0.506-0.363,1.045-0.605,1.641
			l-0.847,2.095h-0.47L83.1,39.647c-0.228-0.608-0.42-1.166-0.556-1.679H82.53c-0.014,0.539-0.05,1.262-0.093,1.91l-0.128,1.851
			h-0.59l0.334-4.318h0.791l0.819,2.088c0.199,0.532,0.363,1.006,0.484,1.454h0.021c0.121-0.436,0.292-0.909,0.506-1.454
			l0.854-2.088h0.791l0.299,4.318h-0.605L85.891,39.833z"/>
		<path fill="#6D6E71" d="M88.696,40.372l-0.498,1.358h-0.641l1.63-4.318h0.748l1.638,4.318H90.91l-0.512-1.358H88.696z
			 M90.27,39.936l-0.47-1.242c-0.107-0.282-0.178-0.539-0.25-0.788h-0.014c-0.071,0.256-0.15,0.519-0.242,0.782l-0.47,1.249H90.27z"
			/>
		<path fill="#6D6E71" d="M93.224,37.886h-1.459v-0.474h3.553v0.474h-1.467v3.844h-0.627V37.886z"/>
		<path fill="#6D6E71" d="M96.827,37.412v4.318h-0.619v-4.318H96.827z"/>
		<path fill="#6D6E71" d="M102.359,39.526c0,1.486-1.003,2.274-2.229,2.274c-1.268,0-2.157-0.884-2.157-2.191
			c0-1.372,0.946-2.268,2.229-2.268C101.512,37.341,102.359,38.245,102.359,39.526z M98.635,39.597c0,0.922,0.556,1.749,1.532,1.749
			c0.982,0,1.538-0.813,1.538-1.794c0-0.858-0.499-1.755-1.531-1.755C99.148,37.796,98.635,38.648,98.635,39.597z"/>
		<path fill="#6D6E71" d="M103.52,41.729v-4.318h0.677l1.537,2.185c0.356,0.506,0.634,0.96,0.862,1.403l0.015-0.006
			c-0.057-0.577-0.071-1.103-0.071-1.774v-1.807h0.584v4.318h-0.627l-1.524-2.191c-0.334-0.48-0.655-0.974-0.897-1.441l-0.021,0.007
			c0.036,0.544,0.05,1.063,0.05,1.781v1.845H103.52z"/>
		<path fill="#6D6E71" d="M111.336,37.886h-1.459v-0.474h3.552v0.474h-1.466v3.844h-0.627V37.886z"/>
		<path fill="#6D6E71" d="M116.805,39.706h-1.866v1.557h2.079v0.467h-2.699v-4.318h2.592v0.467h-1.972v1.365h1.866V39.706z"/>
		<path fill="#6D6E71" d="M121.518,41.588c-0.228,0.103-0.683,0.205-1.267,0.205c-1.353,0-2.371-0.769-2.371-2.184
			c0-1.352,1.018-2.268,2.506-2.268c0.598,0,0.976,0.116,1.14,0.192l-0.15,0.455c-0.235-0.103-0.569-0.179-0.968-0.179
			c-1.125,0-1.873,0.647-1.873,1.781c0,1.057,0.677,1.736,1.844,1.736c0.377,0,0.762-0.071,1.011-0.18L121.518,41.588z"/>
		<path fill="#6D6E71" d="M123.269,37.412v1.807h2.321v-1.807h0.626v4.318h-0.626v-2.024h-2.321v2.024h-0.619v-4.318H123.269z"/>
		<path fill="#6D6E71" d="M127.647,41.729v-4.318h0.677l1.538,2.185c0.356,0.506,0.633,0.96,0.861,1.403l0.014-0.006
			c-0.057-0.577-0.071-1.103-0.071-1.774v-1.807h0.584v4.318h-0.627l-1.524-2.191c-0.334-0.48-0.655-0.974-0.897-1.441l-0.021,0.007
			c0.036,0.544,0.05,1.063,0.05,1.781v1.845H127.647z"/>
		<path fill="#6D6E71" d="M136.79,39.526c0,1.486-1.003,2.274-2.229,2.274c-1.267,0-2.157-0.884-2.157-2.191
			c0-1.372,0.946-2.268,2.229-2.268C135.943,37.341,136.79,38.245,136.79,39.526z M133.066,39.597c0,0.922,0.556,1.749,1.531,1.749
			c0.982,0,1.538-0.813,1.538-1.794c0-0.858-0.499-1.755-1.531-1.755C133.579,37.796,133.066,38.648,133.066,39.597z"/>
		<path fill="#6D6E71" d="M137.95,37.412h0.619v3.851h2.051v0.467h-2.67V37.412z"/>
		<path fill="#6D6E71" d="M145.697,39.526c0,1.486-1.004,2.274-2.229,2.274c-1.268,0-2.157-0.884-2.157-2.191
			c0-1.372,0.947-2.268,2.229-2.268C144.849,37.341,145.697,38.245,145.697,39.526z M141.973,39.597
			c0,0.922,0.556,1.749,1.531,1.749c0.983,0,1.538-0.813,1.538-1.794c0-0.858-0.499-1.755-1.531-1.755
			C142.486,37.796,141.973,38.648,141.973,39.597z"/>
		<path fill="#6D6E71" d="M150.51,41.538c-0.277,0.09-0.826,0.236-1.474,0.236c-0.726,0-1.324-0.166-1.794-0.57
			c-0.414-0.359-0.669-0.936-0.669-1.607c0.007-1.288,0.99-2.229,2.599-2.229c0.556,0,0.99,0.109,1.197,0.198l-0.149,0.455
			c-0.257-0.103-0.578-0.186-1.061-0.186c-1.168,0-1.93,0.653-1.93,1.736c0,1.095,0.734,1.742,1.852,1.742
			c0.406,0,0.684-0.051,0.827-0.115V39.91h-0.976v-0.449h1.581V41.538z"/>
		<path fill="#6D6E71" d="M152.432,37.412v4.318h-0.62v-4.318H152.432z"/>
		<path fill="#6D6E71" d="M156.348,39.706h-1.866v1.557h2.079v0.467h-2.699v-4.318h2.592v0.467h-1.973v1.365h1.866V39.706z"/>
		<path fill="#6D6E71" d="M157.637,41.05c0.278,0.154,0.684,0.282,1.11,0.282c0.634,0,1.004-0.301,1.004-0.737
			c0-0.404-0.256-0.634-0.905-0.858c-0.783-0.25-1.268-0.615-1.268-1.223c0-0.673,0.621-1.173,1.553-1.173
			c0.491,0,0.847,0.103,1.061,0.212l-0.17,0.455c-0.157-0.077-0.478-0.205-0.912-0.205c-0.656,0-0.905,0.352-0.905,0.647
			c0,0.403,0.292,0.602,0.955,0.833c0.812,0.282,1.224,0.634,1.224,1.268c0,0.667-0.548,1.243-1.68,1.243
			c-0.463,0-0.969-0.122-1.225-0.275L157.637,41.05z"/>
	</g>
	<g>
		<polygon fill="#6D6E71" points="57.41,9.89 57.41,8.405 48.796,8.405 36.433,13.905 36.484,14.021 36.384,14.021 36.384,19.435 
			25.247,24.39 25.3,24.505 25.203,24.505 25.203,29.922 14.064,34.876 14.117,34.989 14.018,34.989 14.018,41.729 57.41,41.729 
			57.41,34.989 17.461,34.989 25.882,31.245 57.41,31.245 57.41,30.861 57.41,29.375 57.41,24.505 28.646,24.505 37.064,20.76 
			57.41,20.76 57.41,20.375 57.41,18.89 57.41,14.021 39.829,14.021 49.112,9.89 		"/>
	</g>
</g>
</svg>