<?xml version="1.0" encoding="utf-8"?>
<!-- Generator: Adobe Illustrator 19.1.0, SVG Export Plug-In . SVG Version: 6.00 Build 0)  -->
<svg version="1.2" baseProfile="tiny" id="Layer_1" xmlns="http://www.w3.org/2000/svg" xmlns:xlink="http://www.w3.org/1999/xlink"
	 x="0px" y="0px" viewBox="0 0 432 288" xml:space="preserve">
<image width="1372" height="305" xlink:href="44E29950898DB56C.png"  transform="matrix(1 0 0 1 -451.198 -8.7193)">
</image>
<g>
	<g>
		<g>
			<g>
				<path fill="#760511" d="M216.3,19.7c0-1.2-0.4-1.8-1-1.8c-0.5,0-1,0.6-1,1.8c0,0.1,0,0.2,0,0.3c0,2.6,0.5,18.2,0.8,18.2
					c0.3,0,1-15.6,1.1-18.2C216.3,19.8,216.3,19.7,216.3,19.7z"/>
				<path fill="#760511" d="M197.5,30.8c-0.4-0.4-0.8-0.4-1.1-0.1c-0.3,0.3-0.3,0.7,0.1,1.1c0,0,0.1,0.1,0.1,0.1
					c0.9,0.8,8.4,7.6,8.5,7.4C205.3,39.1,198.4,31.8,197.5,30.8C197.6,30.9,197.5,30.8,197.5,30.8z"/>
				<path fill="#760511" d="M194.6,36.3c-0.5-0.2-0.8,0-1,0.3c-0.2,0.3-0.1,0.7,0.4,0.9c0,0,0.1,0,0.1,0c1,0.4,9,3.6,9.1,3.4
					C203.3,40.7,195.6,36.8,194.6,36.3C194.6,36.3,194.6,36.3,194.6,36.3z"/>
				<path fill="#760511" d="M210.4,29.8c-0.1-0.4-0.5-0.6-0.8-0.5c-0.3,0.1-0.5,0.4-0.4,0.8c0,0,0,0.1,0,0.1
					c0.3,0.9,3.1,8.5,3.3,8.5C212.8,38.7,210.7,30.9,210.4,29.8C210.5,29.9,210.4,29.9,210.4,29.8z"/>
				<path fill="#760511" d="M200.8,24.6c-0.5-0.8-1.1-0.9-1.5-0.7c-0.4,0.2-0.5,0.8,0,1.5c0,0.1,0.1,0.1,0.1,0.2
					c1.1,1.6,10,14.4,10.3,14.3c0.2-0.1-7.8-13.5-8.8-15.1C200.9,24.7,200.9,24.6,200.8,24.6z"/>
				<path fill="#760511" d="M233.9,30.8c0.4-0.4,0.8-0.4,1.1-0.1c0.3,0.3,0.3,0.7-0.1,1.1c0,0-0.1,0.1-0.1,0.1
					c-0.9,0.8-8.5,7.4-8.7,7.3C226,38.9,233,31.7,233.9,30.8C233.9,30.8,233.9,30.8,233.9,30.8z"/>
				<path fill="#760511" d="M238.3,36.3c0.5-0.2,0.8,0,1,0.3c0.2,0.3,0.1,0.7-0.4,0.9c0,0-0.1,0-0.1,0c-1,0.4-9,3.6-9.1,3.4
					C229.6,40.8,237.3,36.8,238.3,36.3C238.2,36.3,238.3,36.3,238.3,36.3z"/>
				<path fill="#760511" d="M219.7,29.9c0.1-0.4,0.5-0.6,0.8-0.5c0.3,0.1,0.5,0.4,0.3,0.8c0,0,0,0.1,0,0.1c-0.3,0.9-3.2,8.5-3.4,8.4
					C217.2,38.7,219.4,30.9,219.7,29.9C219.7,30,219.7,29.9,219.7,29.9z"/>
				<path fill="#760511" d="M229.4,24.5c0.5-0.8,1.1-0.9,1.5-0.7c0.4,0.2,0.5,0.8,0,1.6c0,0.1-0.1,0.1-0.1,0.2
					c-1.1,1.6-10.5,14.5-10.7,14.4c-0.2-0.1,8.2-13.6,9.3-15.2C229.4,24.6,229.4,24.6,229.4,24.5z"/>
			</g>
		</g>
		<path fill="#760511" d="M218.6,247.3l1.3-1.3c0.2-0.2,0.2-0.4,0-0.6c-0.2-0.2-0.4-0.2-0.6,0l-1.3,1.3l-1.3-1.3
			c-0.2-0.2-0.4-0.2-0.6,0c-0.2,0.2-0.2,0.4,0,0.6l1.3,1.3l-1.3,1.3c-0.2,0.2-0.2,0.4,0,0.6c0.1,0.1,0.2,0.1,0.3,0.1
			c0.1,0,0.2,0,0.3-0.1l1.3-1.3l1.3,1.3c0.1,0.1,0.2,0.1,0.3,0.1c0.1,0,0.2,0,0.3-0.1c0.2-0.2,0.2-0.4,0-0.6L218.6,247.3z"/>
		<g>
			<g>
				<g>
					<rect x="343.8" y="85.6" fill="#760511" width="0.7" height="17.5"/>
					<circle fill="#760511" cx="344.1" cy="85.8" r="1.3"/>
					<circle fill="#760511" cx="344.1" cy="102.8" r="1.3"/>
				</g>
				<g>
					<rect x="335.4" y="94" fill="#760511" width="17.5" height="0.7"/>
					<circle fill="#760511" cx="335.6" cy="94.3" r="1.3"/>
					<circle fill="#760511" cx="352.6" cy="94.3" r="1.3"/>
				</g>
				<g>
					
						<rect x="335.4" y="94" transform="matrix(-0.7071 -0.7071 0.7071 -0.7071 520.8065 404.4417)" fill="#760511" width="17.5" height="0.7"/>
					<circle fill="#760511" cx="338.1" cy="88.3" r="1.3"/>
					<circle fill="#760511" cx="350.1" cy="100.3" r="1.3"/>
				</g>
				<g>
					
						<rect x="343.8" y="85.5" transform="matrix(-0.7071 -0.7071 0.7071 -0.7071 520.8836 404.2402)" fill="#760511" width="0.7" height="17.5"/>
					<circle fill="#760511" cx="338.1" cy="100.3" r="1.3"/>
					<circle fill="#760511" cx="350.1" cy="88.3" r="1.3"/>
				</g>
			</g>
		</g>
		<g>
			<path fill="#760511" d="M402.3,39.5v-2.1c0-0.2-0.2-0.4-0.4-0.4h-2.4v-5.5c0-0.2-0.2-0.4-0.4-0.4s-0.4,0.2-0.4,0.4v5.5h-2.4
				c-0.2,0-0.4,0.2-0.4,0.4v2.1c-4,1.3-6.9,5.1-6.9,9.5c0,5.5,4.5,10,10,10c5.5,0,10-4.5,10-10C409.2,44.6,406.3,40.8,402.3,39.5z
				 M396.8,37.8h4.8v1.5c-0.8-0.2-1.6-0.3-2.4-0.3c-0.8,0-1.6,0.1-2.4,0.3V37.8z M399.2,58.3c-5.1,0-9.3-4.2-9.3-9.3
				s4.2-9.3,9.3-9.3s9.3,4.2,9.3,9.3S404.3,58.3,399.2,58.3z"/>
			<path fill="#760511" d="M404.8,48C404.9,48,404.9,48,404.8,48c0.2,0,0.4-0.1,0.4-0.3c0.1-0.2-0.1-0.4-0.3-0.4l-1.5-0.4l1.3-0.7
				c0.2-0.1,0.2-0.3,0.1-0.5c-0.1-0.2-0.3-0.2-0.5-0.1l-1.3,0.7l0.4-1.5c0.1-0.2-0.1-0.4-0.3-0.4c-0.2-0.1-0.4,0.1-0.4,0.3l-0.6,2.2
				l-1.6,0.9c-0.3-0.3-0.6-0.5-1-0.6v-1.9l1.6-1.6c0.1-0.1,0.1-0.4,0-0.5c-0.1-0.1-0.4-0.1-0.5,0l-1.1,1.1v-1.5
				c0-0.2-0.2-0.4-0.4-0.4s-0.4,0.2-0.4,0.4v1.5l-1.1-1.1c-0.1-0.1-0.4-0.1-0.5,0c-0.1,0.1-0.1,0.4,0,0.5l1.6,1.6v1.9
				c-0.4,0.1-0.8,0.3-1,0.6l-1.6-0.9l-0.6-2.2c-0.1-0.2-0.2-0.3-0.4-0.3c-0.2,0.1-0.3,0.2-0.3,0.4l0.4,1.5l-1.3-0.7
				c-0.2-0.1-0.4,0-0.5,0.1c-0.1,0.2,0,0.4,0.1,0.5l1.3,0.7l-1.5,0.4c-0.2,0.1-0.3,0.2-0.3,0.4c0,0.2,0.2,0.3,0.3,0.3
				c0,0,0.1,0,0.1,0l2.2-0.6l1.6,0.9c-0.1,0.2-0.1,0.4-0.1,0.6c0,0.2,0,0.4,0.1,0.6l-1.6,0.9l-2.2-0.6c-0.2-0.1-0.4,0.1-0.4,0.3
				c-0.1,0.2,0.1,0.4,0.3,0.4l1.5,0.4l-1.3,0.7c-0.2,0.1-0.2,0.3-0.1,0.5c0.1,0.1,0.2,0.2,0.3,0.2c0.1,0,0.1,0,0.2,0l1.3-0.7
				l-0.4,1.5c-0.1,0.2,0.1,0.4,0.3,0.4c0,0,0.1,0,0.1,0c0.2,0,0.3-0.1,0.3-0.3l0.6-2.2l1.6-0.9c0.3,0.3,0.6,0.5,1,0.6v1.9l-1.6,1.6
				c-0.1,0.1-0.1,0.4,0,0.5c0.1,0.1,0.2,0.1,0.3,0.1s0.2,0,0.3-0.1l1.1-1.1v1.5c0,0.2,0.2,0.4,0.4,0.4s0.4-0.2,0.4-0.4v-1.5l1.1,1.1
				c0.1,0.1,0.2,0.1,0.3,0.1s0.2,0,0.3-0.1c0.1-0.1,0.1-0.4,0-0.5l-1.6-1.6v-1.9c0.4-0.1,0.8-0.3,1-0.6l1.6,0.9l0.6,2.2
				c0,0.2,0.2,0.3,0.3,0.3c0,0,0.1,0,0.1,0c0.2-0.1,0.3-0.2,0.3-0.4l-0.4-1.5l1.3,0.7c0.1,0,0.1,0,0.2,0c0.1,0,0.2-0.1,0.3-0.2
				c0.1-0.2,0-0.4-0.1-0.5l-1.3-0.7l1.5-0.4c0.2-0.1,0.3-0.2,0.3-0.4c-0.1-0.2-0.2-0.3-0.4-0.3l-2.2,0.6l-1.6-0.9
				c0.1-0.2,0.1-0.4,0.1-0.6c0-0.2,0-0.4-0.1-0.6l1.6-0.9L404.8,48z M399.2,50.2c-0.6,0-1.2-0.5-1.2-1.2c0-0.6,0.5-1.2,1.2-1.2
				c0.6,0,1.2,0.5,1.2,1.2C400.4,49.6,399.9,50.2,399.2,50.2z"/>
		</g>
		<path fill="#760511" d="M408.6,258.2c0,0-2.4-1.7-2.8-5.1c0-0.3-0.1-0.6-0.1-0.9c-0.2-1.5-0.4-3.5-1-5.3c0,0,0-0.1,0-0.1
			c-0.6-1.6-1.4-3.1-2.9-3.8v-1.9c0-0.2-0.1-0.3-0.3-0.3h-1.9v-4.5c0-0.2-0.1-0.3-0.3-0.3s-0.3,0.1-0.3,0.3v4.5H397
			c-0.2,0-0.3,0.1-0.3,0.3v1.9c-1.5,0.8-2.4,2.2-2.9,3.8c0,0,0,0.1,0,0.1c-0.6,1.8-0.8,3.7-1,5.3c0,0.3-0.1,0.6-0.1,0.9
			c-0.4,3.4-2.8,5.1-2.8,5.1c-0.1,0.1-0.1,0.2-0.1,0.3c0,0.1,0.1,0.2,0.3,0.2h6.3c0,0.2-0.1,0.4-0.1,0.6c0,1.6,1.3,3,3,3
			c1.6,0,3-1.3,3-3c0-0.2,0-0.4-0.1-0.6h6.3c0.1,0,0.2-0.1,0.3-0.2C408.8,258.4,408.7,258.3,408.6,258.2z M397.3,241.4h3.9v1.3
			c-0.6-0.2-1.2-0.3-1.9-0.3s-1.4,0.1-1.9,0.3V241.4z M399.2,243c2.6,0,4,1.6,4.8,3.7c-0.6,0.2-0.9,1.1-1.3,1.9
			c-0.3,0.8-0.6,1.5-1,1.5c-0.4,0-0.7-0.8-1-1.5c-0.3-0.9-0.7-1.9-1.5-1.9c-0.8,0-1.2,1-1.5,1.9c-0.3,0.8-0.6,1.5-1,1.5
			c-0.4,0-0.7-0.8-1-1.5c-0.3-0.8-0.6-1.7-1.2-1.9C395.2,244.6,396.6,243,399.2,243z M393.2,253.2c0-0.3,0.1-0.6,0.1-0.9
			c0.2-1.5,0.4-3.4,0.9-5c0.4,0.1,0.6,0.8,0.9,1.5c0.3,0.9,0.7,1.9,1.5,1.9c0.8,0,1.2-1,1.5-1.9c0.3-0.8,0.6-1.5,1-1.5
			c0.4,0,0.7,0.8,1,1.5c0.3,0.9,0.7,1.9,1.5,1.9c0.8,0,1.2-1,1.5-1.9c0.3-0.7,0.5-1.4,0.9-1.5c0.5,1.6,0.7,3.5,0.9,5
			c0,0.3,0.1,0.6,0.1,0.9c0.1,0.8,0.3,1.6,0.6,2.2h-13.1C392.9,254.7,393.1,254,393.2,253.2z M399.2,261.7c-1.3,0-2.4-1.1-2.4-2.4
			c0-0.2,0-0.4,0.1-0.6h4.6c0,0.2,0.1,0.4,0.1,0.6C401.6,260.6,400.5,261.7,399.2,261.7z M390.8,258.2c0.5-0.4,1.1-1.2,1.6-2.2h13.6
			c0.5,1,1.2,1.8,1.6,2.2H390.8z"/>
		<path fill="#760511" d="M167,248.4C167,248.4,167,248.4,167,248.4l0-3.8c0,0,0,0,0,0c0,0,0,0,0,0v-2.9c0-0.4,0-0.8-0.1-1.2v0
			c0,0,0,0,0,0c-0.2-1.9-1-3.5-2.1-4.9v0l0,0c-1.7-2.1-4.4-3.4-7.3-3.4c-0.8,0-1.7,0.1-2.5,0.3c0,0,0,0,0,0c0,0,0,0,0,0
			c-1.8,0.5-3.3,1.5-4.6,2.8c0,0,0,0,0,0c0,0,0,0,0,0c-1.1,1.2-1.9,2.7-2.3,4.4c-0.3,1.6,0.7,3.1,2.2,3.5c0.2,0,0.4,0.1,0.6,0.1
			c1.4,0,2.6-1,2.8-2.3c0.1-0.6,0.5-1.2,0.9-1.7c0,0,0,0,0,0l0,0c0.5-0.5,1.1-0.9,1.8-1.1c0,0,0,0,0,0c0,0,0,0,0,0
			c0.3-0.1,0.6-0.1,1-0.1c2,0,3.7,1.7,3.7,3.7v17.7c0,1.6,1.3,2.9,2.9,2.9c1.6,0,2.9-1.3,2.9-2.9c0,0,0,0,0,0c0,0,0,0,0,0v-3.4
			c0,0,0,0,0,0c0,0,0,0,0,0v-3.7c0,0,0,0,0,0c0,0,0,0,0,0L167,248.4C167,248.4,167,248.4,167,248.4z M161.8,259v-2.8h4.5v2.8H161.8z
			 M166.2,240.3l-4.5,0.6c-0.1-0.6-0.4-1.2-0.7-1.7l3.5-2.9C165.3,237.4,166,238.8,166.2,240.3z M161.8,252.5h4.5v3.1h-4.5V252.5z
			 M161.8,251.8v-3.1h4.5v3.1H161.8z M161.8,248.1v-3.1h4.5v3.1H161.8z M166.3,241.7v2.6h-4.5v-2.6c0-0.1,0-0.1,0-0.2l4.5-0.6
			C166.3,241.2,166.3,241.4,166.3,241.7z M153.2,240.7c-0.2,1-1.2,1.8-2.2,1.8c-0.2,0-0.3,0-0.5-0.1c-1.2-0.3-2-1.5-1.7-2.7
			c0.3-1.4,1-2.7,1.9-3.8l3.3,3C153.6,239.5,153.3,240.1,153.2,240.7z M154.5,238.5l-3.3-3c1-1,2.3-1.8,3.7-2.3l1.2,4.4
			C155.4,237.8,154.9,238.1,154.5,238.5z M156.6,237.4l-1.2-4.4c0.6-0.2,1.3-0.2,2-0.2c0.8,0,1.6,0.1,2.4,0.3l-1.4,4.3
			c-0.3-0.1-0.7-0.1-1-0.1C157.2,237.3,156.9,237.4,156.6,237.4z M159.1,237.6l1.4-4.3c1.4,0.5,2.6,1.3,3.6,2.4l-3.5,2.9
			C160.1,238.2,159.6,237.9,159.1,237.6z M164,261.6c-1.1,0-2.1-0.8-2.2-1.9h4.5C166.1,260.8,165.2,261.6,164,261.6z"/>
		<g>
			<path fill="#760511" d="M34.3,241.9c-0.2,0.1-0.2,0.4-0.1,0.5c0.6,0.7,1.5,1.1,2.5,1.1c1,0,2-0.4,2.5-1.1
				c0.1-0.2,0.1-0.4-0.1-0.5c-0.2-0.1-0.4-0.1-0.5,0.1c-0.4,0.5-1.1,0.8-1.9,0.8c-0.8,0-1.5-0.3-1.9-0.8
				C34.7,241.8,34.5,241.7,34.3,241.9z"/>
			<path fill="#760511" d="M34.5,240.4c0.2,0,0.4-0.2,0.4-0.4v-0.7c0-0.2-0.2-0.4-0.4-0.4c-0.2,0-0.4,0.2-0.4,0.4v0.7
				C34.2,240.2,34.3,240.4,34.5,240.4z"/>
			<path fill="#760511" d="M39,240.4c0.2,0,0.4-0.2,0.4-0.4v-0.7c0-0.2-0.2-0.4-0.4-0.4c-0.2,0-0.4,0.2-0.4,0.4v0.7
				C38.6,240.2,38.8,240.4,39,240.4z"/>
			<path fill="#760511" d="M36.8,250.4c-0.8,0-1.4,0.6-1.4,1.4c0,0.8,0.6,1.4,1.4,1.4c0.8,0,1.4-0.6,1.4-1.4
				C38.1,251,37.5,250.4,36.8,250.4z M36.8,252.4c-0.4,0-0.6-0.3-0.6-0.6c0-0.4,0.3-0.6,0.6-0.6c0.4,0,0.6,0.3,0.6,0.6
				C37.4,252.2,37.1,252.4,36.8,252.4z"/>
			<path fill="#760511" d="M36.8,254.3c-0.8,0-1.4,0.6-1.4,1.4c0,0.8,0.6,1.4,1.4,1.4c0.8,0,1.4-0.6,1.4-1.4
				C38.1,254.9,37.5,254.3,36.8,254.3z M36.8,256.3c-0.4,0-0.6-0.3-0.6-0.6c0-0.4,0.3-0.6,0.6-0.6c0.4,0,0.6,0.3,0.6,0.6
				C37.4,256.1,37.1,256.3,36.8,256.3z"/>
			<path fill="#760511" d="M51.4,249.2h-1.7l1.3-1.3c0.1-0.1,0.1-0.4,0-0.5c-0.1-0.1-0.4-0.1-0.5,0l-1.8,1.8h-3.8
				c-0.9-1.9-2.6-3.5-4.6-4.3c1.2-1,1.9-2.5,1.9-4.1c0-1.4-0.6-2.8-1.5-3.8h2.2c0.2,0,0.4-0.2,0.4-0.4c0-0.2-0.2-0.4-0.4-0.4h-3.5
				l1.3-5.1c0-0.1,0-0.2-0.1-0.3c-0.1-0.1-0.2-0.1-0.3-0.1h-7.1c-0.1,0-0.2,0.1-0.3,0.1c-0.1,0.1-0.1,0.2-0.1,0.3l1.3,5.1h-3.5
				c-0.2,0-0.4,0.2-0.4,0.4c0,0.2,0.2,0.4,0.4,0.4h2.2c-1,1-1.5,2.3-1.5,3.8c0,1.6,0.7,3.1,1.9,4.1c-2,0.9-3.6,2.4-4.6,4.3h-3.8
				l-1.8-1.8c-0.1-0.1-0.4-0.1-0.5,0c-0.1,0.1-0.1,0.4,0,0.5l1.3,1.3h-1.7c-0.2,0-0.4,0.2-0.4,0.4c0,0.2,0.2,0.4,0.4,0.4h1.7
				l-1.3,1.3c-0.1,0.1-0.1,0.4,0,0.5c0.1,0.1,0.2,0.1,0.3,0.1c0.1,0,0.2,0,0.3-0.1l1.8-1.8h3.4c-0.4,1-0.6,2.1-0.6,3.3
				c0,5,4.1,9,9,9c5,0,9-4.1,9-9c0-1.1-0.2-2.2-0.6-3.3h3.4l1.8,1.8c0.1,0.1,0.2,0.1,0.3,0.1s0.2,0,0.3-0.1c0.1-0.1,0.1-0.4,0-0.5
				l-1.3-1.3h1.7c0.2,0,0.4-0.2,0.4-0.4C51.7,249.4,51.6,249.2,51.4,249.2z M33.7,231.4h6.1l-1.3,4.9H35L33.7,231.4z M32.1,240.8
				c0-1.5,0.7-2.9,1.9-3.8h0.7h4.2h0.7c1.2,0.9,1.9,2.3,1.9,3.8c0,1.5-0.8,3-2,3.9h-5.3C32.8,243.8,32.1,242.3,32.1,240.8z
				 M36.8,261.5c-4.6,0-8.3-3.7-8.3-8.3c0-3.6,2.3-6.7,5.6-7.9h5.4c3.4,1.2,5.6,4.3,5.6,7.9C45.1,257.8,41.4,261.5,36.8,261.5z"/>
		</g>
		<g>
			<path fill="#760511" d="M404.4,152.7c-0.1,0-0.2,0-0.3-0.1l-4.8-3.5l-4.8,3.5c-0.2,0.1-0.5,0.1-0.7,0c-0.2-0.1-0.3-0.4-0.2-0.6
				l1.8-5.6l-4.8-3.5c-0.2-0.1-0.3-0.4-0.2-0.6c0.1-0.2,0.3-0.4,0.5-0.4h5.9l1.8-5.6c0.1-0.2,0.3-0.4,0.5-0.4s0.5,0.2,0.5,0.4
				l1.8,5.6h5.9c0.2,0,0.5,0.2,0.5,0.4c0.1,0.2,0,0.5-0.2,0.6l-4.8,3.5l1.8,5.6c0.1,0.2,0,0.5-0.2,0.6
				C404.6,152.7,404.5,152.7,404.4,152.7z M399.2,147.9c0.1,0,0.2,0,0.3,0.1l3.7,2.7l-1.4-4.4c-0.1-0.2,0-0.5,0.2-0.6l3.7-2.7h-4.6
				c-0.2,0-0.5-0.2-0.5-0.4l-1.4-4.4l-1.4,4.4c-0.1,0.2-0.3,0.4-0.5,0.4h-4.6l3.7,2.7c0.2,0.1,0.3,0.4,0.2,0.6l-1.4,4.4l3.7-2.7
				C399,147.9,399.1,147.9,399.2,147.9z"/>
		</g>
		<path fill="#760511" d="M36.9,193l1.8-1.8c0.2-0.2,0.2-0.6,0-0.8c-0.2-0.2-0.6-0.2-0.8,0l-1.8,1.8l-1.8-1.8
			c-0.2-0.2-0.6-0.2-0.8,0c-0.2,0.2-0.2,0.6,0,0.8l1.8,1.8l-1.8,1.8c-0.2,0.2-0.2,0.6,0,0.8c0.1,0.1,0.3,0.2,0.4,0.2
			c0.1,0,0.3-0.1,0.4-0.2l1.8-1.8l1.8,1.8c0.1,0.1,0.3,0.2,0.4,0.2c0.1,0,0.3-0.1,0.4-0.2c0.2-0.2,0.2-0.6,0-0.8L36.9,193z"/>
		<path fill="#760511" d="M44.7,144H43l0.8-0.8c0.1-0.1,0.1-0.2,0-0.3c-0.1-0.1-0.2-0.1-0.3,0l-1.1,1.1h-1.1l1.5-1.5
			c0.1-0.1,0.1-0.2,0-0.3c-0.1-0.1-0.2-0.1-0.3,0l-1.8,1.8h-2.3l1.5-2.2c0-0.1,0.1-0.2,0-0.2c0-0.1-0.1-0.1-0.2-0.1l-2.6,0.2l1.1-2
			l2.5-0.7c0.1,0,0.2-0.1,0.2-0.3c0-0.1-0.2-0.2-0.3-0.2l-2.1,0.5l0.5-0.9l1.5-0.4c0.1,0,0.2-0.1,0.2-0.3c0-0.1-0.2-0.2-0.3-0.2
			l-1.1,0.3l0.8-1.5c0.1-0.1,0-0.2-0.1-0.3c-0.1-0.1-0.2,0-0.3,0.1l-0.8,1.5l-0.3-1.1c0-0.1-0.1-0.2-0.3-0.2c-0.1,0-0.2,0.1-0.2,0.3
			l0.4,1.5l-0.5,0.9l-0.5-2.1c0-0.1-0.2-0.2-0.3-0.2c-0.1,0-0.2,0.1-0.2,0.3l0.7,2.5l-1.1,2l-1.1-2.4c-0.1-0.2-0.3-0.2-0.4,0
			l-1.1,2.4l-1.1-2l0.7-2.5c0-0.1,0-0.2-0.2-0.3c-0.1,0-0.2,0-0.3,0.2l-0.5,2.1l-0.5-0.9l0.4-1.5c0-0.1,0-0.2-0.2-0.3
			c-0.1,0-0.2,0-0.3,0.2l-0.3,1.1l-0.8-1.5c-0.1-0.1-0.2-0.1-0.3-0.1c-0.1,0.1-0.1,0.2-0.1,0.3l0.8,1.5l-1.1-0.3
			c-0.1,0-0.2,0-0.3,0.2c0,0.1,0,0.2,0.2,0.3l1.5,0.4l0.5,0.9l-2.1-0.6c-0.1,0-0.2,0-0.3,0.2c0,0.1,0,0.2,0.2,0.3l2.5,0.7l1.1,2
			l-2.6-0.2c-0.1,0-0.2,0-0.2,0.1c0,0.1,0,0.2,0,0.2l1.5,2.2l-2.3,0l-1.8-1.8c-0.1-0.1-0.2-0.1-0.3,0c-0.1,0.1-0.1,0.2,0,0.3
			l1.5,1.5h-1.1l-1.1-1.1c-0.1-0.1-0.2-0.1-0.3,0c-0.1,0.1-0.1,0.2,0,0.3l0.8,0.8h-1.7c-0.1,0-0.2,0.1-0.2,0.2s0.1,0.2,0.2,0.2h1.7
			l-0.8,0.8c-0.1,0.1-0.1,0.2,0,0.3c0,0,0.1,0.1,0.2,0.1c0.1,0,0.1,0,0.2-0.1l1.1-1.1h1.1L28,146c-0.1,0.1-0.1,0.2,0,0.3
			c0,0,0.1,0.1,0.2,0.1c0.1,0,0.1,0,0.2-0.1l1.8-1.8l2.3,0l-1.5,2.2c0,0.1-0.1,0.2,0,0.2c0,0.1,0.1,0.1,0.2,0.1c0,0,0,0,0,0l2.6-0.2
			l-1.1,2l-2.5,0.7c-0.1,0-0.2,0.1-0.2,0.3c0,0.1,0.1,0.2,0.2,0.2c0,0,0,0,0.1,0l2.1-0.6l-0.5,0.9l-1.5,0.4c-0.1,0-0.2,0.1-0.2,0.3
			c0,0.1,0.1,0.2,0.2,0.2c0,0,0,0,0.1,0l1.1-0.3l-0.8,1.5c-0.1,0.1,0,0.2,0.1,0.3c0,0,0.1,0,0.1,0c0.1,0,0.1,0,0.2-0.1l0.8-1.5
			l0.3,1.1c0,0.1,0.1,0.2,0.2,0.2c0,0,0,0,0.1,0c0.1,0,0.2-0.1,0.2-0.3l-0.4-1.5l0.5-0.9l0.5,2.1c0,0.1,0.1,0.2,0.2,0.2
			c0,0,0,0,0.1,0c0.1,0,0.2-0.1,0.2-0.3L33,149l1.1-2l1.1,2.4c0,0.1,0.1,0.1,0.2,0.1c0.1,0,0.2,0,0.2-0.1l1.1-2.4l1.1,2l-0.7,2.5
			c0,0.1,0,0.2,0.2,0.3c0,0,0,0,0.1,0c0.1,0,0.2-0.1,0.2-0.2l0.5-2.1l0.5,0.9l-0.4,1.5c0,0.1,0,0.2,0.2,0.3c0,0,0,0,0.1,0
			c0.1,0,0.2-0.1,0.2-0.2l0.3-1.1l0.8,1.5c0,0.1,0.1,0.1,0.2,0.1c0,0,0.1,0,0.1,0c0.1-0.1,0.1-0.2,0.1-0.3l-0.8-1.5l1.1,0.3
			c0,0,0,0,0.1,0c0.1,0,0.2-0.1,0.2-0.2c0-0.1,0-0.2-0.2-0.3l-1.5-0.4l-0.5-0.9l2.1,0.6c0,0,0,0,0.1,0c0.1,0,0.2-0.1,0.2-0.2
			c0-0.1,0-0.2-0.2-0.3l-2.5-0.7l-1.1-2l2.6,0.2c0,0,0,0,0,0c0.1,0,0.1,0,0.2-0.1c0-0.1,0-0.2,0-0.2l-1.5-2.2h2.3l1.8,1.8
			c0,0,0.1,0.1,0.2,0.1c0.1,0,0.1,0,0.2-0.1c0.1-0.1,0.1-0.2,0-0.3l-1.5-1.5h1.1l1.1,1.1c0,0,0.1,0.1,0.2,0.1c0.1,0,0.1,0,0.2-0.1
			c0.1-0.1,0.1-0.2,0-0.3l-0.8-0.8h1.7c0.1,0,0.2-0.1,0.2-0.2S44.9,144,44.7,144z M39.4,142l-1.4,2h-2.1l1.1-1.8L39.4,142z
			 M35.4,139.7l1.1,2.2l-1.1,1.8l-1.1-1.8L35.4,139.7z M31.5,142l2.5,0.2l1.1,1.8h-2.1L31.5,142z M31.5,146.5l1.4-2h2.1l-1.1,1.8
			L31.5,146.5z M35.4,148.8l-1.1-2.2l1.1-1.8l1.1,1.8L35.4,148.8z M36.9,146.3l-1.1-1.8h2.1l1.4,2L36.9,146.3z"/>
		<path fill="#760511" d="M300.7,36.5c0-1.3-1-2.3-2.3-2.3H298c0.3-0.3,0.5-0.7,0.5-1.2c0-1-0.8-1.8-1.8-1.8c-1,0-1.8,0.8-1.8,1.8
			c0,0.5,0.2,0.9,0.5,1.2h-6.9c-1.3,0-2.3,1-2.3,2.3c0,1.2,0.9,2.1,2,2.3v6.2l-4.3,6.2c-1.7,2.4-1.1,5.7,1.3,7.4
			c0.9,0.6,1.9,0.9,3,0.9c1.7,0,3.4-0.8,4.4-2.3l0,0c0,0,0,0,0,0l5.3-7.6c0.6-0.9,0.9-1.9,0.9-3v-2.4v-5.4
			C299.8,38.6,300.7,37.7,300.7,36.5z M295.4,33c0-0.7,0.5-1.2,1.2-1.2s1.2,0.5,1.2,1.2c0,0.7-0.5,1.2-1.2,1.2S295.4,33.7,295.4,33z
			 M288.7,38.8h9.4v2.7l-1.5-1.3c-0.1-0.1-0.3-0.1-0.4,0l-1.8,1.6l-1.8-1.6c-0.1-0.1-0.3-0.1-0.4,0l-1.8,1.6l-1.7-1.5V38.8z
			 M288.6,45.2c0,0,0.1-0.1,0.1-0.2v-4l1.5,1.3c0.1,0.1,0.3,0.1,0.4,0l1.8-1.6l1.8,1.6c0.1,0.1,0.3,0.1,0.4,0l1.8-1.6l1.7,1.5v1.7
			c-2.4,0-4.3,1.9-4.3,4.3c0,1.4,0.7,2.7,1.8,3.5l-3.5,5l-7.8-5.4L288.6,45.2z M288.1,58.9c-1,0-1.9-0.3-2.7-0.8
			c-2.1-1.4-2.6-4.2-1.3-6.3l7.7,5.4C291,58.2,289.6,58.9,288.1,58.9z M298.1,46.6c0,1-0.3,1.9-0.8,2.7l-1.3,1.9
			c-1-0.7-1.5-1.8-1.5-3c0-2,1.7-3.7,3.7-3.7V46.6z M298.4,38.2h-10c-0.9,0-1.7-0.8-1.7-1.7s0.8-1.7,1.7-1.7h10
			c0.9,0,1.7,0.8,1.7,1.7S299.4,38.2,298.4,38.2z"/>
		<g>
			<path fill="#760511" d="M399.2,97.7c-1.9,0-3.4-1.5-3.4-3.4c0-1.9,1.5-3.4,3.4-3.4c1.9,0,3.4,1.5,3.4,3.4
				C402.6,96.2,401.1,97.7,399.2,97.7z M399.2,92c-1.2,0-2.3,1-2.3,2.3c0,1.2,1,2.3,2.3,2.3c1.2,0,2.3-1,2.3-2.3
				C401.5,93.1,400.5,92,399.2,92z"/>
		</g>
		<path fill="#760511" d="M285.5,254.8c-0.1-0.1-0.3-0.1-0.4,0l-6.6,6.6v-2.6l6.1-6.1c0.1-0.1,0.1-0.3,0-0.4c-0.1-0.1-0.3-0.1-0.4,0
			l-5.7,5.7v-2.6l5.3-5.3c0.1-0.1,0.1-0.3,0-0.4c-0.1-0.1-0.3-0.1-0.4,0l-4.9,4.9V252l4.4-4.4c0.1-0.1,0.1-0.3,0-0.4
			c-0.1-0.1-0.3-0.1-0.4,0l-4,4v-2.6l3.6-3.6c0.1-0.1,0.1-0.3,0-0.4c-0.1-0.1-0.3-0.1-0.4,0l-3.2,3.2v-2.6l2.7-2.7
			c0.1-0.1,0.1-0.3,0-0.4c-0.1-0.1-0.3-0.1-0.4,0l-2.4,2.4v-2.6l1.9-1.9c0.1-0.1,0.1-0.3,0-0.4c-0.1-0.1-0.3-0.1-0.4,0l-1.5,1.5
			v-2.6l1.1-1.1c0.1-0.1,0.1-0.3,0-0.4c-0.1-0.1-0.3-0.1-0.4,0l-0.7,0.7v-2.3l1.3,0.9c0,0,0.1,0.1,0.2,0.1c0.1,0,0.1,0,0.2-0.1
			c0.1-0.1,0.1-0.2,0.1-0.3l-0.6-1.8l1.5-1.1c0.1-0.1,0.1-0.2,0.1-0.3c0-0.1-0.1-0.2-0.3-0.2h-1.9l-0.6-1.8c0-0.1-0.1-0.2-0.3-0.2
			c-0.1,0-0.2,0.1-0.3,0.2l-0.6,1.8h-1.9c-0.1,0-0.2,0.1-0.3,0.2c0,0.1,0,0.2,0.1,0.3l1.5,1.1l-0.6,1.8c0,0.1,0,0.2,0.1,0.3
			c0.1,0.1,0.2,0.1,0.3,0l1.3-0.9v2.3l-0.7-0.7c-0.1-0.1-0.3-0.1-0.4,0c-0.1,0.1-0.1,0.3,0,0.4l1,1v2.6l-1.5-1.5
			c-0.1-0.1-0.3-0.1-0.4,0c-0.1,0.1-0.1,0.3,0,0.4l1.9,1.9v2.6l-2.4-2.4c-0.1-0.1-0.3-0.1-0.4,0c-0.1,0.1-0.1,0.3,0,0.4l2.7,2.7v2.6
			l-3.2-3.2c-0.1-0.1-0.3-0.1-0.4,0c-0.1,0.1-0.1,0.3,0,0.4l3.6,3.6v2.6l-4-4c-0.1-0.1-0.3-0.1-0.4,0c-0.1,0.1-0.1,0.3,0,0.4
			l4.4,4.4v2.6l-4.9-4.9c-0.1-0.1-0.3-0.1-0.4,0c-0.1,0.1-0.1,0.3,0,0.4l5.3,5.3v2.6l-5.7-5.7c-0.1-0.1-0.3-0.1-0.4,0
			c-0.1,0.1-0.1,0.3,0,0.4l6.1,6.1v2.6l-6.6-6.6c-0.1-0.1-0.3-0.1-0.4,0c-0.1,0.1-0.1,0.3,0,0.4l6.6,6.6H275c-0.1,0-0.3,0.1-0.3,0.3
			s0.1,0.3,0.3,0.3h6.5c0.1,0,0.3-0.1,0.3-0.3s-0.1-0.3-0.3-0.3h-2.6l6.6-6.6C285.6,255.1,285.6,254.9,285.5,254.8z M277.4,234
			l-1-0.8h1.3c0.1,0,0.2-0.1,0.3-0.2l0.4-1.2l0.4,1.2c0,0.1,0.1,0.2,0.3,0.2h1.3l-1,0.8c-0.1,0.1-0.1,0.2-0.1,0.3l0.4,1.2l-1-0.8
			c0,0,0,0,0,0c0,0,0,0,0,0c0,0-0.1,0-0.1,0c0,0-0.1,0-0.1,0c0,0,0,0,0,0c0,0,0,0,0,0l-1,0.8l0.4-1.2
			C277.5,234.2,277.5,234.1,277.4,234z"/>
		<path fill="#760511" d="M92.3,43.4C92.3,43.4,92.4,43.4,92.3,43.4c0.2,0,0.2-0.1,0.3-0.2c0-0.1,0-0.2-0.2-0.3l-1-0.3l0.8-0.5
			c0.1-0.1,0.1-0.2,0.1-0.3c-0.1-0.1-0.2-0.1-0.3-0.1l-0.8,0.5l0.3-1c0-0.1,0-0.2-0.2-0.3c-0.1,0-0.2,0-0.3,0.2l-0.4,1.4l-1,0.6
			c-0.2-0.2-0.4-0.3-0.7-0.4v-1.2l1-1c0.1-0.1,0.1-0.2,0-0.3c-0.1-0.1-0.2-0.1-0.3,0L89,41v-0.9c0-0.1-0.1-0.2-0.2-0.2
			s-0.2,0.1-0.2,0.2V41l-0.7-0.7c-0.1-0.1-0.2-0.1-0.3,0c-0.1,0.1-0.1,0.2,0,0.3l1,1v1.2c-0.3,0.1-0.5,0.2-0.7,0.4l-1-0.6l-0.4-1.4
			c0-0.1-0.2-0.2-0.3-0.2c-0.1,0-0.2,0.2-0.2,0.3l0.3,1l-0.8-0.5c-0.1-0.1-0.2,0-0.3,0.1c-0.1,0.1,0,0.2,0.1,0.3l0.8,0.5l-1,0.3
			c-0.1,0-0.2,0.2-0.2,0.3c0,0.1,0.1,0.2,0.2,0.2c0,0,0,0,0.1,0l1.4-0.4l1,0.6c0,0.1-0.1,0.2-0.1,0.4c0,0.1,0,0.3,0.1,0.4l-1,0.6
			l-1.4-0.4c-0.1,0-0.2,0-0.3,0.2c0,0.1,0,0.2,0.2,0.3l1,0.3l-0.8,0.5c-0.1,0.1-0.1,0.2-0.1,0.3c0,0.1,0.1,0.1,0.2,0.1
			c0,0,0.1,0,0.1,0l0.8-0.5l-0.3,1c0,0.1,0,0.2,0.2,0.3c0,0,0,0,0.1,0c0.1,0,0.2-0.1,0.2-0.2l0.4-1.4l1-0.6c0.2,0.2,0.4,0.3,0.7,0.4
			v1.2l-1,1c-0.1,0.1-0.1,0.2,0,0.3c0,0,0.1,0.1,0.2,0.1s0.1,0,0.2-0.1l0.7-0.7v0.9c0,0.1,0.1,0.2,0.2,0.2s0.2-0.1,0.2-0.2V47
			l0.7,0.7c0,0,0.1,0.1,0.2,0.1s0.1,0,0.2-0.1c0.1-0.1,0.1-0.2,0-0.3l-1-1v-1.2c0.3-0.1,0.5-0.2,0.7-0.4l1,0.6l0.4,1.4
			c0,0.1,0.1,0.2,0.2,0.2c0,0,0,0,0.1,0c0.1,0,0.2-0.2,0.2-0.3l-0.3-1l0.8,0.5c0,0,0.1,0,0.1,0c0.1,0,0.2,0,0.2-0.1
			c0.1-0.1,0-0.2-0.1-0.3l-0.8-0.5l1-0.3c0.1,0,0.2-0.2,0.2-0.3c0-0.1-0.2-0.2-0.3-0.2L90.9,45l-1-0.6c0-0.1,0.1-0.2,0.1-0.4
			c0-0.1,0-0.3-0.1-0.4l1-0.6L92.3,43.4z M88.8,44.7c-0.4,0-0.7-0.3-0.7-0.7s0.3-0.7,0.7-0.7c0.4,0,0.7,0.3,0.7,0.7
			S89.2,44.7,88.8,44.7z"/>
		<path fill="#760511" d="M43.2,49.8c0,0-2-1.4-2.4-4.3c0-0.2-0.1-0.5-0.1-0.7c-0.1-1.3-0.3-3-0.8-4.5c0,0,0-0.1,0-0.1
			c-0.5-1.4-1.2-2.6-2.5-3.2v-1.6c0-0.1-0.1-0.2-0.2-0.2h-1.6v-3.8c0-0.1-0.1-0.2-0.2-0.2c-0.1,0-0.2,0.1-0.2,0.2v3.8h-1.6
			c-0.1,0-0.2,0.1-0.2,0.2V37c-1.2,0.6-2,1.9-2.5,3.2c0,0,0,0.1,0,0.1c-0.5,1.5-0.7,3.2-0.8,4.5c0,0.3-0.1,0.5-0.1,0.7
			c-0.3,2.9-2.4,4.3-2.4,4.3c-0.1,0.1-0.1,0.2-0.1,0.3c0,0.1,0.1,0.2,0.2,0.2h5.3c0,0.2,0,0.3,0,0.5c0,1.4,1.1,2.5,2.5,2.5
			c1.4,0,2.5-1.1,2.5-2.5c0-0.2,0-0.3,0-0.5h5.3c0.1,0,0.2-0.1,0.2-0.2C43.4,50,43.3,49.9,43.2,49.8z M33.7,35.7H37v1.1
			c-0.5-0.2-1-0.3-1.6-0.3c-0.6,0-1.2,0.1-1.6,0.3V35.7z M35.3,37c2.2,0,3.4,1.4,4,3.1c-0.5,0.2-0.8,0.9-1.1,1.6
			c-0.2,0.6-0.5,1.3-0.8,1.3c-0.4,0-0.6-0.7-0.8-1.3c-0.3-0.8-0.6-1.6-1.3-1.6c-0.7,0-1,0.8-1.3,1.6c-0.2,0.6-0.5,1.3-0.8,1.3
			c-0.4,0-0.6-0.7-0.8-1.3c-0.3-0.7-0.5-1.4-1-1.6C31.9,38.4,33.1,37,35.3,37z M30.3,45.6c0-0.2,0.1-0.5,0.1-0.7
			c0.1-1.3,0.3-2.8,0.8-4.2c0.3,0.1,0.5,0.7,0.8,1.3c0.3,0.8,0.6,1.6,1.3,1.6c0.7,0,1-0.8,1.3-1.6c0.2-0.6,0.5-1.3,0.8-1.3
			c0.4,0,0.6,0.7,0.8,1.3c0.3,0.8,0.6,1.6,1.3,1.6c0.7,0,1-0.8,1.3-1.6c0.2-0.6,0.4-1.2,0.8-1.3c0.4,1.4,0.6,2.9,0.8,4.2
			c0,0.3,0.1,0.5,0.1,0.7c0.1,0.7,0.3,1.3,0.5,1.9H29.8C30,46.9,30.2,46.3,30.3,45.6z M35.3,52.8c-1.1,0-2-0.9-2-2
			c0-0.2,0-0.3,0.1-0.5h3.9c0,0.2,0.1,0.3,0.1,0.5C37.3,51.9,36.4,52.8,35.3,52.8z M28.2,49.8c0.4-0.4,0.9-1,1.4-1.9h11.5
			c0.4,0.9,1,1.5,1.4,1.9H28.2z"/>
		<g>
			<path fill="#760511" d="M344.1,49.4c-1.3,0-2.4-1.1-2.4-2.4s1.1-2.4,2.4-2.4c1.3,0,2.4,1.1,2.4,2.4S345.4,49.4,344.1,49.4z
				 M344.1,45.4c-0.9,0-1.6,0.7-1.6,1.6s0.7,1.6,1.6,1.6c0.9,0,1.6-0.7,1.6-1.6S345,45.4,344.1,45.4z"/>
		</g>
		<path fill="#760511" d="M336.6,247.3l1.3-1.3c0.2-0.2,0.2-0.4,0-0.6c-0.2-0.2-0.4-0.2-0.6,0l-1.3,1.3l-1.3-1.3
			c-0.2-0.2-0.4-0.2-0.6,0c-0.2,0.2-0.2,0.4,0,0.6l1.3,1.3l-1.3,1.3c-0.2,0.2-0.2,0.4,0,0.6c0.1,0.1,0.2,0.1,0.3,0.1
			c0.1,0,0.2,0,0.3-0.1l1.3-1.3l1.3,1.3c0.1,0.1,0.2,0.1,0.3,0.1c0.1,0,0.2,0,0.3-0.1c0.2-0.2,0.2-0.4,0-0.6L336.6,247.3z"/>
		<path fill="#760511" d="M38.8,94.2h-0.6l0.3-0.3c0,0,0-0.1,0-0.1c0,0-0.1,0-0.1,0L38,94.2h-0.4l0.5-0.5c0,0,0-0.1,0-0.1
			c0,0-0.1,0-0.1,0l-0.6,0.6h-0.8l0.5-0.8c0,0,0-0.1,0-0.1c0,0,0,0-0.1,0l-0.9,0.1l0.4-0.7l0.9-0.2c0,0,0.1-0.1,0.1-0.1
			c0,0-0.1-0.1-0.1-0.1l-0.7,0.2l0.2-0.3l0.5-0.1c0,0,0.1-0.1,0.1-0.1c0,0-0.1-0.1-0.1-0.1L36.9,92l0.3-0.5c0,0,0-0.1,0-0.1
			c0,0-0.1,0-0.1,0l-0.3,0.5l-0.1-0.4c0,0-0.1-0.1-0.1-0.1c0,0-0.1,0.1-0.1,0.1l0.1,0.5l-0.2,0.3l-0.2-0.7c0,0-0.1-0.1-0.1-0.1
			c0,0-0.1,0.1-0.1,0.1l0.2,0.9L36,93.3l-0.4-0.8c0-0.1-0.1-0.1-0.1,0L35,93.3l-0.4-0.7l0.2-0.9c0,0,0-0.1-0.1-0.1
			c0,0-0.1,0-0.1,0.1l-0.2,0.7l-0.2-0.3l0.1-0.5c0,0,0-0.1-0.1-0.1c0,0-0.1,0-0.1,0.1l-0.1,0.4l-0.3-0.5c0,0-0.1,0-0.1,0
			c0,0,0,0.1,0,0.1l0.3,0.5l-0.4-0.1c0,0-0.1,0-0.1,0.1c0,0,0,0.1,0.1,0.1l0.5,0.1l0.2,0.3l-0.7-0.2c0,0-0.1,0-0.1,0.1
			c0,0,0,0.1,0.1,0.1l0.9,0.2l0.4,0.7L34,93.3c0,0-0.1,0-0.1,0c0,0,0,0.1,0,0.1l0.5,0.8l-0.8,0L33,93.6c0,0-0.1,0-0.1,0
			c0,0,0,0.1,0,0.1l0.5,0.5H33l-0.4-0.4c0,0-0.1,0-0.1,0c0,0,0,0.1,0,0.1l0.3,0.3h-0.6c0,0-0.1,0-0.1,0.1s0,0.1,0.1,0.1h0.6
			l-0.3,0.3c0,0,0,0.1,0,0.1c0,0,0,0,0.1,0c0,0,0,0,0.1,0l0.4-0.4h0.4l-0.5,0.5c0,0,0,0.1,0,0.1c0,0,0,0,0.1,0c0,0,0,0,0.1,0
			l0.6-0.6l0.8,0l-0.5,0.8c0,0,0,0.1,0,0.1c0,0,0,0,0.1,0c0,0,0,0,0,0l0.9-0.1l-0.4,0.7l-0.9,0.2c0,0-0.1,0.1-0.1,0.1
			c0,0,0,0.1,0.1,0.1c0,0,0,0,0,0l0.7-0.2l-0.2,0.3l-0.5,0.1c0,0-0.1,0.1-0.1,0.1c0,0,0,0.1,0.1,0.1c0,0,0,0,0,0l0.4-0.1l-0.3,0.5
			c0,0,0,0.1,0,0.1c0,0,0,0,0,0c0,0,0.1,0,0.1,0l0.3-0.5l0.1,0.4c0,0,0,0.1,0.1,0.1c0,0,0,0,0,0c0,0,0.1-0.1,0.1-0.1l-0.1-0.5
			l0.2-0.3l0.2,0.7c0,0,0,0.1,0.1,0.1c0,0,0,0,0,0c0,0,0.1-0.1,0.1-0.1L34.6,96l0.4-0.7l0.4,0.8c0,0,0,0,0.1,0c0,0,0.1,0,0.1,0
			l0.4-0.8l0.4,0.7l-0.2,0.9c0,0,0,0.1,0.1,0.1c0,0,0,0,0,0c0,0,0.1,0,0.1-0.1l0.2-0.7l0.2,0.3L36.5,97c0,0,0,0.1,0.1,0.1
			c0,0,0,0,0,0c0,0,0.1,0,0.1-0.1l0.1-0.4l0.3,0.5c0,0,0,0,0.1,0c0,0,0,0,0,0c0,0,0-0.1,0-0.1l-0.3-0.5l0.4,0.1c0,0,0,0,0,0
			c0,0,0.1,0,0.1-0.1c0,0,0-0.1-0.1-0.1l-0.5-0.1l-0.2-0.3l0.7,0.2c0,0,0,0,0,0c0,0,0.1,0,0.1-0.1c0,0,0-0.1-0.1-0.1l-0.9-0.2
			l-0.4-0.7l0.9,0.1c0,0,0,0,0,0c0,0,0.1,0,0.1,0c0,0,0-0.1,0-0.1l-0.5-0.8h0.8L38,95c0,0,0,0,0.1,0s0,0,0.1,0c0,0,0-0.1,0-0.1
			l-0.5-0.5H38l0.4,0.4c0,0,0,0,0.1,0c0,0,0,0,0.1,0c0,0,0-0.1,0-0.1l-0.3-0.3h0.6C38.9,94.4,38.9,94.3,38.8,94.2
			C38.9,94.3,38.9,94.2,38.8,94.2z M36.9,93.5l-0.5,0.7h-0.8l0.4-0.7L36.9,93.5z M35.5,92.7l0.4,0.8l-0.4,0.7l-0.4-0.7L35.5,92.7z
			 M34.1,93.5l0.9,0.1l0.4,0.7h-0.8L34.1,93.5z M34.1,95.1l0.5-0.7h0.8L35,95L34.1,95.1z M35.5,95.9l-0.4-0.8l0.4-0.7l0.4,0.7
			L35.5,95.9z M36,95l-0.4-0.7h0.8l0.5,0.7L36,95z"/>
		<path fill="#760511" d="M143.7,53.2c-0.1-0.1-0.1-0.1-0.3-0.1h-3.7v-8.8c0,0,0,0,0,0V41c0,0,0,0,0,0v-2c0-0.2-0.1-0.3-0.3-0.3
			h-0.7c0.8-0.5,1.2-1.4,1.2-2.4c0-1.6-2.5-4.6-2.8-5c-0.1-0.1-0.3-0.1-0.4,0c-0.3,0.3-2.8,3.4-2.8,5c0,1,0.5,1.9,1.2,2.4h-0.7
			c-0.2,0-0.3,0.1-0.3,0.3v14.1h-3.7c-0.1,0-0.2,0.1-0.3,0.1c-0.1,0.1-0.1,0.2,0,0.3l1.7,3.1c0.1,0.1,0.1,0.1,0.3,0.1h9.5
			c0.1,0,0.2-0.1,0.3-0.1l1.7-3.1C143.8,53.4,143.8,53.3,143.7,53.2z M134.8,46.1l4.4-4.4v2.4l-4.4,4.4V46.1z M134.5,36.3
			c0-1,1.6-3.3,2.4-4.3c0.8,1.1,2.4,3.3,2.4,4.3c0,1.3-1.1,2.4-2.4,2.4C135.6,38.7,134.5,37.6,134.5,36.3z M139.2,39.3v1.6l-4.4,4.4
			v-6H139.2z M134.8,49.4l4.4-4.4v8.2h-4.4V49.4z M141.6,56.2h-9.2l-1.4-2.5h3.5h5h3.5L141.6,56.2z"/>
		<path fill="#760511" d="M399.8,196.4l1.3-1.3c0.2-0.2,0.2-0.4,0-0.6c-0.2-0.2-0.4-0.2-0.6,0l-1.3,1.3l-1.3-1.3
			c-0.2-0.2-0.4-0.2-0.6,0c-0.2,0.2-0.2,0.4,0,0.6l1.3,1.3l-1.3,1.3c-0.2,0.2-0.2,0.4,0,0.6c0.1,0.1,0.2,0.1,0.3,0.1
			c0.1,0,0.2,0,0.3-0.1l1.3-1.3l1.3,1.3c0.1,0.1,0.2,0.1,0.3,0.1c0.1,0,0.2,0,0.3-0.1c0.2-0.2,0.2-0.4,0-0.6L399.8,196.4z"/>
		<path fill="#760511" d="M89.3,247.3l1.3-1.3c0.2-0.2,0.2-0.4,0-0.6c-0.2-0.2-0.4-0.2-0.6,0l-1.3,1.3l-1.3-1.3
			c-0.2-0.2-0.4-0.2-0.6,0c-0.2,0.2-0.2,0.4,0,0.6l1.3,1.3l-1.3,1.3c-0.2,0.2-0.2,0.4,0,0.6c0.1,0.1,0.2,0.1,0.3,0.1
			c0.1,0,0.2,0,0.3-0.1l1.3-1.3l1.3,1.3c0.1,0.1,0.2,0.1,0.3,0.1c0.1,0,0.2,0,0.3-0.1c0.2-0.2,0.2-0.4,0-0.6L89.3,247.3z"/>
		<path fill="#760511" d="M95.4,101.9c-0.1-0.1-0.3-0.1-0.3,0L89,108v-2.4l5.6-5.6c0.1-0.1,0.1-0.3,0-0.3c-0.1-0.1-0.3-0.1-0.3,0
			l-5.3,5.3v-2.4l4.8-4.8c0.1-0.1,0.1-0.3,0-0.3c-0.1-0.1-0.3-0.1-0.3,0l-4.5,4.5v-2.4l4.1-4.1c0.1-0.1,0.1-0.3,0-0.3
			c-0.1-0.1-0.3-0.1-0.3,0L89,98.7v-2.4l3.3-3.3c0.1-0.1,0.1-0.3,0-0.3c-0.1-0.1-0.3-0.1-0.3,0L89,95.6v-2.4l2.5-2.5
			c0.1-0.1,0.1-0.3,0-0.3s-0.3-0.1-0.3,0L89,92.5v-2.4l1.7-1.7c0.1-0.1,0.1-0.3,0-0.3c-0.1-0.1-0.3-0.1-0.3,0L89,89.4V87l1-1
			c0.1-0.1,0.1-0.3,0-0.3c-0.1-0.1-0.3-0.1-0.3,0L89,86.3v-2.1l1.2,0.9c0,0,0.1,0,0.1,0c0.1,0,0.1,0,0.1,0c0.1-0.1,0.1-0.2,0.1-0.3
			L90,83.1l1.4-1c0.1-0.1,0.1-0.2,0.1-0.3c0-0.1-0.1-0.2-0.2-0.2h-1.8L89,79.9c0-0.1-0.1-0.2-0.2-0.2c-0.1,0-0.2,0.1-0.2,0.2
			L88,81.6h-1.8c-0.1,0-0.2,0.1-0.2,0.2c0,0.1,0,0.2,0.1,0.3l1.4,1L87,84.8c0,0.1,0,0.2,0.1,0.3c0.1,0.1,0.2,0.1,0.3,0l1.2-0.9v2.1
			l-0.6-0.6c-0.1-0.1-0.3-0.1-0.3,0c-0.1,0.1-0.1,0.3,0,0.3l1,1v2.4L87.1,88c-0.1-0.1-0.3-0.1-0.3,0c-0.1,0.1-0.1,0.3,0,0.3l1.7,1.7
			v2.4l-2.2-2.2c-0.1-0.1-0.3-0.1-0.3,0s-0.1,0.3,0,0.3l2.5,2.5v2.4l-2.9-2.9c-0.1-0.1-0.3-0.1-0.3,0s-0.1,0.3,0,0.3l3.3,3.3v2.4
			L84.8,95c-0.1-0.1-0.3-0.1-0.3,0c-0.1,0.1-0.1,0.3,0,0.3l4.1,4.1v2.4L84,97.3c-0.1-0.1-0.3-0.1-0.3,0c-0.1,0.1-0.1,0.3,0,0.3
			l4.8,4.8v2.4l-5.3-5.3c-0.1-0.1-0.3-0.1-0.3,0c-0.1,0.1-0.1,0.3,0,0.3l5.6,5.6v2.4l-6.1-6.1c-0.1-0.1-0.3-0.1-0.3,0
			c-0.1,0.1-0.1,0.3,0,0.3l6.1,6.1h-2.4c-0.1,0-0.2,0.1-0.2,0.2c0,0.1,0.1,0.2,0.2,0.2h6c0.1,0,0.2-0.1,0.2-0.2
			c0-0.1-0.1-0.2-0.2-0.2h-2.4l6.1-6.1C95.5,102.2,95.5,102,95.4,101.9z M88,82.8l-1-0.7h1.2c0.1,0,0.2-0.1,0.2-0.2l0.4-1.1l0.4,1.1
			c0,0.1,0.1,0.2,0.2,0.2h1.2l-1,0.7c-0.1,0.1-0.1,0.2-0.1,0.3l0.4,1.1l-1-0.7c0,0,0,0,0,0c0,0,0,0,0,0c0,0-0.1,0-0.1,0
			c0,0-0.1,0-0.1,0c0,0,0,0,0,0c0,0,0,0,0,0l-1,0.7l0.4-1.1C88.1,83,88,82.9,88,82.8z"/>
		<g>
			<path fill="#760511" d="M91.9,199.8v-2.1c0-0.2-0.2-0.4-0.4-0.4h-2.4v-5.5c0-0.2-0.2-0.4-0.4-0.4s-0.4,0.2-0.4,0.4v5.5H86
				c-0.2,0-0.4,0.2-0.4,0.4v2.1c-4,1.3-6.9,5.1-6.9,9.5c0,5.5,4.5,10,10,10c5.5,0,10-4.5,10-10C98.7,204.9,95.9,201.1,91.9,199.8z
				 M86.4,198.1h4.8v1.5c-0.8-0.2-1.6-0.3-2.4-0.3c-0.8,0-1.6,0.1-2.4,0.3V198.1z M88.8,218.5c-5.1,0-9.3-4.2-9.3-9.3
				c0-5.1,4.2-9.3,9.3-9.3c5.1,0,9.3,4.2,9.3,9.3C98,214.4,93.9,218.5,88.8,218.5z"/>
			<path fill="#760511" d="M94.4,208.3C94.4,208.3,94.4,208.3,94.4,208.3c0.2,0,0.4-0.1,0.4-0.3c0.1-0.2-0.1-0.4-0.3-0.4l-1.5-0.4
				l1.3-0.7c0.2-0.1,0.2-0.3,0.1-0.5c-0.1-0.2-0.3-0.2-0.5-0.1l-1.3,0.7l0.4-1.5c0.1-0.2-0.1-0.4-0.3-0.4c-0.2-0.1-0.4,0.1-0.4,0.3
				l-0.6,2.2l-1.6,0.9c-0.3-0.3-0.6-0.5-1-0.6v-1.9l1.6-1.6c0.1-0.1,0.1-0.4,0-0.5c-0.1-0.1-0.4-0.1-0.5,0l-1.1,1.1V203
				c0-0.2-0.2-0.4-0.4-0.4s-0.4,0.2-0.4,0.4v1.5l-1.1-1.1c-0.1-0.1-0.4-0.1-0.5,0c-0.1,0.1-0.1,0.4,0,0.5l1.6,1.6v1.9
				c-0.4,0.1-0.8,0.3-1,0.6l-1.6-0.9l-0.6-2.2c-0.1-0.2-0.2-0.3-0.4-0.3c-0.2,0.1-0.3,0.2-0.3,0.4l0.4,1.5l-1.3-0.7
				c-0.2-0.1-0.4,0-0.5,0.1c-0.1,0.2,0,0.4,0.1,0.5l1.3,0.7l-1.5,0.4c-0.2,0.1-0.3,0.2-0.3,0.4c0,0.2,0.2,0.3,0.3,0.3
				c0,0,0.1,0,0.1,0l2.2-0.6l1.6,0.9c-0.1,0.2-0.1,0.4-0.1,0.6c0,0.2,0,0.4,0.1,0.6l-1.6,0.9l-2.2-0.6c-0.2-0.1-0.4,0.1-0.4,0.3
				c-0.1,0.2,0.1,0.4,0.3,0.4l1.5,0.4l-1.3,0.7c-0.2,0.1-0.2,0.3-0.1,0.5c0.1,0.1,0.2,0.2,0.3,0.2c0.1,0,0.1,0,0.2,0l1.3-0.7
				l-0.4,1.5c-0.1,0.2,0.1,0.4,0.3,0.4c0,0,0.1,0,0.1,0c0.2,0,0.3-0.1,0.3-0.3l0.6-2.2l1.6-0.9c0.3,0.3,0.6,0.5,1,0.6v1.9l-1.6,1.6
				c-0.1,0.1-0.1,0.4,0,0.5c0.1,0.1,0.2,0.1,0.3,0.1c0.1,0,0.2,0,0.3-0.1l1.1-1.1v1.5c0,0.2,0.2,0.4,0.4,0.4s0.4-0.2,0.4-0.4V214
				l1.1,1.1c0.1,0.1,0.2,0.1,0.3,0.1s0.2,0,0.3-0.1c0.1-0.1,0.1-0.4,0-0.5l-1.6-1.6v-1.9c0.4-0.1,0.8-0.3,1-0.6l1.6,0.9l0.6,2.2
				c0,0.2,0.2,0.3,0.3,0.3c0,0,0.1,0,0.1,0c0.2-0.1,0.3-0.2,0.3-0.4l-0.4-1.5l1.3,0.7c0.1,0,0.1,0,0.2,0c0.1,0,0.2-0.1,0.3-0.2
				c0.1-0.2,0-0.4-0.1-0.5l-1.3-0.7l1.5-0.4c0.2-0.1,0.3-0.2,0.3-0.4c-0.1-0.2-0.2-0.3-0.4-0.3l-2.2,0.6l-1.6-0.9
				c0.1-0.2,0.1-0.4,0.1-0.6c0-0.2,0-0.4-0.1-0.6l1.6-0.9L94.4,208.3z M88.8,210.4c-0.6,0-1.2-0.5-1.2-1.2s0.5-1.2,1.2-1.2
				s1.2,0.5,1.2,1.2S89.4,210.4,88.8,210.4z"/>
		</g>
		<path fill="#760511" d="M349.9,205.1h-1.7l0.8-0.8c0.1-0.1,0.1-0.2,0-0.3c-0.1-0.1-0.2-0.1-0.3,0l-1.1,1.1h-1.1l1.5-1.5
			c0.1-0.1,0.1-0.2,0-0.3c-0.1-0.1-0.2-0.1-0.3,0l-1.8,1.8h-2.3l1.5-2.2c0-0.1,0.1-0.2,0-0.2c0-0.1-0.1-0.1-0.2-0.1l-2.6,0.2l1.1-2
			l2.5-0.7c0.1,0,0.2-0.1,0.2-0.3c0-0.1-0.2-0.2-0.3-0.2l-2.1,0.5l0.5-0.9l1.5-0.4c0.1,0,0.2-0.1,0.2-0.3c0-0.1-0.2-0.2-0.3-0.2
			l-1.1,0.3l0.8-1.5c0.1-0.1,0-0.2-0.1-0.3c-0.1-0.1-0.2,0-0.3,0.1l-0.8,1.5l-0.3-1.1c0-0.1-0.1-0.2-0.3-0.2c-0.1,0-0.2,0.1-0.2,0.3
			l0.4,1.5l-0.5,0.9l-0.5-2.1c0-0.1-0.2-0.2-0.3-0.2c-0.1,0-0.2,0.1-0.2,0.3l0.7,2.5l-1.1,2l-1.1-2.4c-0.1-0.2-0.3-0.2-0.4,0
			l-1.1,2.4l-1.1-2l0.7-2.5c0-0.1,0-0.2-0.2-0.3c-0.1,0-0.2,0-0.3,0.2l-0.5,2.1l-0.5-0.9l0.4-1.5c0-0.1,0-0.2-0.2-0.3
			c-0.1,0-0.2,0-0.3,0.2l-0.3,1.1l-0.8-1.5c-0.1-0.1-0.2-0.1-0.3-0.1c-0.1,0.1-0.1,0.2-0.1,0.3l0.8,1.5l-1.1-0.3
			c-0.1,0-0.2,0-0.3,0.2c0,0.1,0,0.2,0.2,0.3l1.5,0.4l0.5,0.9l-2.1-0.6c-0.1,0-0.2,0-0.3,0.2c0,0.1,0,0.2,0.2,0.3l2.5,0.7l1.1,2
			l-2.6-0.2c-0.1,0-0.2,0-0.2,0.1c0,0.1,0,0.2,0,0.2l1.5,2.2l-2.3,0l-1.8-1.8c-0.1-0.1-0.2-0.1-0.3,0c-0.1,0.1-0.1,0.2,0,0.3
			l1.5,1.5h-1.1l-1.1-1.1c-0.1-0.1-0.2-0.1-0.3,0c-0.1,0.1-0.1,0.2,0,0.3l0.8,0.8h-1.7c-0.1,0-0.2,0.1-0.2,0.2s0.1,0.2,0.2,0.2h1.7
			l-0.8,0.8c-0.1,0.1-0.1,0.2,0,0.3c0,0,0.1,0.1,0.2,0.1c0.1,0,0.1,0,0.2-0.1l1.1-1.1h1.1l-1.5,1.5c-0.1,0.1-0.1,0.2,0,0.3
			c0,0,0.1,0.1,0.2,0.1s0.1,0,0.2-0.1l1.8-1.8l2.3,0l-1.5,2.2c0,0.1-0.1,0.2,0,0.2c0,0.1,0.1,0.1,0.2,0.1c0,0,0,0,0,0l2.6-0.2
			l-1.1,2l-2.5,0.7c-0.1,0-0.2,0.1-0.2,0.3c0,0.1,0.1,0.2,0.2,0.2c0,0,0,0,0.1,0l2.1-0.6l-0.5,0.9l-1.5,0.4c-0.1,0-0.2,0.1-0.2,0.3
			c0,0.1,0.1,0.2,0.2,0.2c0,0,0,0,0.1,0l1.1-0.3l-0.8,1.5c-0.1,0.1,0,0.2,0.1,0.3c0,0,0.1,0,0.1,0c0.1,0,0.1,0,0.2-0.1l0.8-1.5
			l0.3,1.1c0,0.1,0.1,0.2,0.2,0.2c0,0,0,0,0.1,0c0.1,0,0.2-0.1,0.2-0.3l-0.4-1.5l0.5-0.9l0.5,2.1c0,0.1,0.1,0.2,0.2,0.2
			c0,0,0,0,0.1,0c0.1,0,0.2-0.1,0.2-0.3l-0.7-2.5l1.1-2l1.1,2.4c0,0.1,0.1,0.1,0.2,0.1c0.1,0,0.2,0,0.2-0.1l1.1-2.4l1.1,2l-0.7,2.5
			c0,0.1,0,0.2,0.2,0.3c0,0,0,0,0.1,0c0.1,0,0.2-0.1,0.2-0.2l0.5-2.1l0.5,0.9l-0.4,1.5c0,0.1,0,0.2,0.2,0.3c0,0,0,0,0.1,0
			c0.1,0,0.2-0.1,0.2-0.2l0.3-1.1l0.8,1.5c0,0.1,0.1,0.1,0.2,0.1c0,0,0.1,0,0.1,0c0.1-0.1,0.1-0.2,0.1-0.3l-0.8-1.5l1.1,0.3
			c0,0,0,0,0.1,0c0.1,0,0.2-0.1,0.2-0.2c0-0.1,0-0.2-0.2-0.3l-1.5-0.4l-0.5-0.9l2.1,0.6c0,0,0,0,0.1,0c0.1,0,0.2-0.1,0.2-0.2
			c0-0.1,0-0.2-0.2-0.3l-2.5-0.7l-1.1-2l2.6,0.2c0,0,0,0,0,0c0.1,0,0.1,0,0.2-0.1c0-0.1,0-0.2,0-0.2l-1.5-2.2h2.3l1.8,1.8
			c0,0,0.1,0.1,0.2,0.1c0.1,0,0.1,0,0.2-0.1c0.1-0.1,0.1-0.2,0-0.3l-1.5-1.5h1.1l1.1,1.1c0,0,0.1,0.1,0.2,0.1c0.1,0,0.1,0,0.2-0.1
			c0.1-0.1,0.1-0.2,0-0.3l-0.8-0.8h1.7c0.1,0,0.2-0.1,0.2-0.2C350.1,205.2,350,205.1,349.9,205.1z M344.5,203.1l-1.4,2h-2.1l1.1-1.8
			L344.5,203.1z M340.6,200.8l1.1,2.2l-1.1,1.8l-1.1-1.8L340.6,200.8z M336.7,203.1l2.5,0.2l1.1,1.8h-2.1L336.7,203.1z M336.7,207.6
			l1.4-2h2.1l-1.1,1.8L336.7,207.6z M340.6,209.9l-1.1-2.2l1.1-1.8l1.1,1.8L340.6,209.9z M342,207.4l-1.1-1.8h2.1l1.4,2L342,207.4z"
			/>
	</g>
</g>
</svg>
