<?xml version="1.0" encoding="utf-8"?>
<!-- Generator: Adobe Illustrator 19.1.0, SVG Export Plug-In . SVG Version: 6.00 Build 0)  -->
<svg version="1.1" id="Layer_1" xmlns="http://www.w3.org/2000/svg" xmlns:xlink="http://www.w3.org/1999/xlink" x="0px" y="0px" viewBox="-270.2 261 278.6 40" style="enable-background:new -270.2 261 278.6 40;"
	 xml:space="preserve">
<style type="text/css">
	.st0{fill:#7A1315;}
	.st1{fill:#FFFFFF;}
</style>
<g>
	<path id="XMLID_236_" class="st0" d="M-199.3,261h-59.4c-6.3,0-11.5,5.2-11.5,11.5v17c0,6.3,5.2,11.5,11.5,11.5h59.4
		c6.3,0,11.5-5.2,11.5-11.5v-17C-187.8,266.2-192.9,261-199.3,261z"/>
	<g>
		<path id="XMLID_235_" class="st1" d="M-242.7,271.9c0.8-1.1,1.8-1.8,2.6-1.5c1.1,0.5,0.8,2.2,0.2,3.2c-0.5,0.8-1.8,2.6-3.1,1.8
			C-243.9,274.9-243.4,272.8-242.7,271.9z"/>
		<path id="XMLID_234_" class="st1" d="M-259.6,272c0.8-1.1,1.8-1.8,2.6-1.5c1.1,0.5,0.8,2.2,0.2,3.2c-0.5,0.8-1.8,2.6-3,1.8
			C-260.8,275-260.3,272.8-259.6,272z"/>
		<path id="XMLID_233_" class="st1" d="M-256.9,281.5c-2.3,5.8,6.6,10.1,6,11c-1.2,2.3-11.5-5.3-10.7-11.4c0.6-5,11.5-9.8,12.8-8.2
			C-247.7,274.4-254.5,275.4-256.9,281.5z"/>
		<path id="XMLID_232_" class="st1" d="M-240.1,281.6c-2.3,5.8,6.6,10.2,6,11.1c-1.7,2.4-11.5-5.3-10.7-11.4
			c0.6-5,11.4-9.8,12.7-8.2C-230.9,274.4-237.7,275.4-240.1,281.6z"/>
		<path id="XMLID_231_" class="st1" d="M-216.7,271.4c0.8-1.1,1.8-1.8,2.6-1.5c1.1,0.5,0.8,2.2,0.2,3.2c-0.5,0.8-1.8,2.6-3.1,1.8
			C-217.9,274.4-217.3,272.4-216.7,271.4z"/>
		<path id="XMLID_230_" class="st1" d="M-196.3,269.7c-0.2,0.6-6.5,3.3-12.5,8.4c-5.8,5-8.8,14.8-9,15c-0.6,0.5-1.2-0.2-2-0.2
			c-0.8-0.1-1.4,0.2-1.6-0.3c-0.2-0.5,0.1-6.2-0.9-10.2c-0.8-3.6-5.6-9-5.4-9.8c0.1-0.3,0.2-0.6,1.1-0.6c1-0.1,3.7,2.4,5.7,6.8
			c1.8,4.1,2.2,6.5,2.5,6.5c0.8,0.1,3.3-5.4,7.9-9.7c4.5-4.2,10.7-7.1,11.8-7C-197.5,268.8-196.2,269.4-196.3,269.7z"/>
	</g>
</g>
<g>
	<path id="XMLID_226_" class="st1" d="M-168.2,279.3c-0.4,0.7-0.9,1.3-1.4,1.8c-0.6,0.5-1.2,0.8-1.9,1s-1.5,0.3-2.3,0.3
		c-1,0-1.9-0.2-2.7-0.5c-0.8-0.3-1.5-0.8-2.1-1.4c-0.5-0.5-0.8-1-1-1.4c-0.2-0.6-0.4-1.1-0.6-1.7c-0.1-0.6-0.2-1.2-0.2-1.8
		c0-0.6,0-1.3,0-1.9c0-0.6,0-1.3,0-1.9c0-0.6,0.1-1.2,0.2-1.8c0.1-0.6,0.2-1.1,0.6-1.7c0.2-0.6,0.6-1,1-1.4c0.6-0.6,1.4-1.1,2.1-1.4
		c0.8-0.3,1.7-0.5,2.7-0.5c0.8,0,1.6,0.1,2.3,0.3s1.4,0.6,1.9,1c0.6,0.5,1,1,1.4,1.8s0.6,1.5,0.8,2.5h-4.3c-0.2-0.5-0.3-0.9-0.6-1.3
		s-0.8-0.6-1.5-0.6c-0.4,0-0.7,0.1-1,0.2c-0.3,0.2-0.5,0.3-0.6,0.6c-0.1,0.2-0.2,0.2-0.2,0.4c-0.1,0.2-0.2,0.4-0.2,0.7
		c-0.1,0.3-0.1,0.7-0.2,1.2c0,0.5-0.1,1.1-0.1,1.9c0,0.8,0,1.4,0.1,1.9c0,0.5,0.1,0.9,0.2,1.2c0.1,0.3,0.2,0.6,0.2,0.7
		c0.1,0.2,0.2,0.3,0.2,0.4c0.2,0.2,0.4,0.4,0.6,0.6c0.3,0.2,0.6,0.2,1,0.2c0.7,0,1.2-0.2,1.5-0.6s0.6-0.8,0.6-1.3h4.3
		C-167.5,277.8-167.8,278.6-168.2,279.3z"/>
	<path id="XMLID_224_" class="st1" d="M-157,282.3v-6.9h-4.5v6.9h-4.2V265h4.2v6.6h4.5V265h4.2v17.3H-157z"/>
	<path id="XMLID_221_" class="st1" d="M-141.7,282.3l-3-6.4h-1.4v6.4h-4.2V265h6.9c1,0,1.8,0.2,2.6,0.5c0.7,0.3,1.4,0.7,1.8,1.3
		c0.5,0.5,0.9,1.1,1.1,1.8c0.2,0.6,0.4,1.4,0.4,2.1c0,0.6-0.1,1.1-0.2,1.6c-0.2,0.5-0.4,0.9-0.6,1.3c-0.2,0.4-0.6,0.7-0.9,1
		c-0.3,0.2-0.6,0.5-1,0.6l3.8,7.2H-141.7z M-141.9,270.5c0-0.5-0.2-0.9-0.5-1.2c-0.3-0.3-0.8-0.6-1.4-0.6h-2.4v3.5h2.4
		c0.6,0,1-0.2,1.4-0.6C-142.1,271.4-141.9,271-141.9,270.5z"/>
	<path id="XMLID_219_" class="st1" d="M-135.3,282.3V265h4.2v17.3H-135.3z"/>
	<path id="XMLID_217_" class="st1" d="M-116.6,277c0,0.9-0.2,1.7-0.6,2.3c-0.3,0.6-0.8,1.3-1.4,1.7c-0.6,0.5-1.3,0.8-2.2,1
		c-0.8,0.2-1.7,0.3-2.6,0.3c-0.6,0-1.3,0-1.9-0.1c-0.6-0.1-1.2-0.2-1.8-0.4c-0.6-0.2-1-0.4-1.5-0.7c-0.5-0.3-1-0.6-1.4-1.1l2.7-2.7
		c0.5,0.5,1,0.8,1.8,1s1.4,0.2,2.1,0.2c1.7,0,2.5-0.5,2.5-1.5c0-0.4-0.1-0.8-0.3-1c-0.2-0.2-0.6-0.4-1.1-0.5l-2.1-0.3
		c-1.5-0.2-2.7-0.7-3.4-1.5c-0.8-0.8-1.2-2-1.2-3.4c0-0.8,0.2-1.5,0.4-2.2c0.3-0.6,0.7-1.2,1.3-1.8c0.6-0.5,1.2-0.9,2-1.1
		c0.8-0.2,1.7-0.4,2.6-0.4c1.3,0,2.3,0.2,3.3,0.5c1,0.3,1.8,0.9,2.6,1.6l-2.6,2.6c-0.2-0.2-0.6-0.5-0.9-0.6
		c-0.3-0.2-0.6-0.2-0.9-0.3c-0.3-0.1-0.6-0.1-0.8-0.1c-0.2,0-0.5,0-0.7,0c-0.4,0-0.7,0.1-1,0.2c-0.2,0.1-0.5,0.2-0.6,0.4
		s-0.3,0.3-0.4,0.5c-0.1,0.2-0.2,0.4-0.2,0.6c0,0.1,0,0.2,0.1,0.4c0.1,0.2,0.2,0.3,0.2,0.4c0.1,0.1,0.2,0.2,0.5,0.3
		c0.2,0.1,0.4,0.2,0.7,0.2l2.1,0.3c1.5,0.2,2.6,0.7,3.4,1.4c0.5,0.5,0.8,1,1,1.6C-116.7,275.5-116.6,276.2-116.6,277z"/>
	<path id="XMLID_215_" class="st1" d="M-107.1,268.8v13.5h-4.2v-13.5h-4.2V265h12.7v3.8H-107.1z"/>
	<path id="XMLID_213_" class="st1" d="M-100.8,269.8V265h2.7v2.6L-100.8,269.8z"/>
	<path id="XMLID_211_" class="st1" d="M-85,277c0,0.9-0.2,1.7-0.6,2.3c-0.3,0.6-0.8,1.3-1.4,1.7c-0.6,0.5-1.3,0.8-2.2,1
		c-0.8,0.2-1.7,0.3-2.6,0.3c-0.6,0-1.3,0-1.9-0.1c-0.6-0.1-1.2-0.2-1.8-0.4c-0.6-0.2-1-0.4-1.5-0.7c-0.5-0.3-1-0.6-1.4-1.1l2.7-2.7
		c0.5,0.5,1,0.8,1.8,1c0.7,0.2,1.4,0.2,2.1,0.2c1.7,0,2.5-0.5,2.5-1.5c0-0.4-0.1-0.8-0.3-1c-0.2-0.2-0.6-0.4-1.1-0.5l-2.1-0.3
		c-1.5-0.2-2.7-0.7-3.4-1.5c-0.8-0.8-1.2-2-1.2-3.4c0-0.8,0.2-1.5,0.4-2.2c0.3-0.6,0.7-1.2,1.3-1.8c0.6-0.5,1.2-0.9,2-1.1
		c0.8-0.2,1.7-0.4,2.6-0.4c1.3,0,2.3,0.2,3.3,0.5c1,0.3,1.8,0.9,2.6,1.6l-2.6,2.6c-0.2-0.2-0.6-0.5-0.9-0.6
		c-0.3-0.2-0.6-0.2-0.9-0.3c-0.3-0.1-0.6-0.1-0.8-0.1c-0.2,0-0.5,0-0.6,0c-0.4,0-0.7,0.1-1,0.2c-0.2,0.1-0.5,0.2-0.6,0.4
		s-0.3,0.3-0.4,0.5c-0.1,0.2-0.2,0.4-0.2,0.6c0,0.1,0,0.2,0.1,0.4c0.1,0.2,0.2,0.3,0.2,0.4c0.1,0.1,0.2,0.2,0.5,0.3
		c0.2,0.1,0.4,0.2,0.7,0.2l2.1,0.3c1.5,0.2,2.6,0.7,3.4,1.4c0.5,0.5,0.8,1,1,1.6C-85.1,275.5-85,276.2-85,277z"/>
	<path id="XMLID_209_" class="st1" d="M-65.5,279.3c-0.4,0.7-0.9,1.3-1.4,1.8c-0.6,0.5-1.2,0.8-1.9,1c-0.7,0.2-1.5,0.3-2.3,0.3
		c-1,0-1.9-0.2-2.7-0.5c-0.8-0.3-1.5-0.8-2.1-1.4c-0.5-0.5-0.8-1-1-1.4c-0.2-0.6-0.4-1.1-0.6-1.7c-0.1-0.6-0.2-1.2-0.2-1.8
		c0-0.6,0-1.3,0-1.9c0-0.6,0-1.3,0-1.9c0-0.6,0.1-1.2,0.2-1.8c0.1-0.6,0.2-1.1,0.6-1.7c0.2-0.6,0.6-1,1-1.4c0.6-0.6,1.4-1.1,2.1-1.4
		c0.8-0.3,1.7-0.5,2.7-0.5c0.8,0,1.6,0.1,2.3,0.3c0.7,0.2,1.4,0.6,1.9,1c0.6,0.5,1,1,1.4,1.8s0.6,1.5,0.8,2.5H-69
		c-0.2-0.5-0.3-0.9-0.6-1.3c-0.3-0.4-0.8-0.6-1.5-0.6c-0.4,0-0.7,0.1-1,0.2c-0.3,0.2-0.5,0.3-0.6,0.6c-0.1,0.2-0.2,0.2-0.2,0.4
		c-0.1,0.2-0.2,0.4-0.2,0.7c-0.1,0.3-0.1,0.7-0.2,1.2c0,0.5-0.1,1.1-0.1,1.9c0,0.8,0,1.4,0.1,1.9c0,0.5,0.1,0.9,0.2,1.2
		c0.1,0.3,0.2,0.6,0.2,0.7s0.2,0.3,0.2,0.4c0.2,0.2,0.4,0.4,0.6,0.6c0.3,0.2,0.6,0.2,1,0.2c0.7,0,1.2-0.2,1.5-0.6s0.6-0.8,0.6-1.3
		h4.3C-64.8,277.8-65.1,278.6-65.5,279.3z"/>
	<path id="XMLID_207_" class="st1" d="M-54.3,282.3v-6.9h-4.5v6.9h-4.2V265h4.2v6.6h4.5V265h4.2v17.3H-54.3z"/>
	<path id="XMLID_205_" class="st1" d="M-35.5,278.8c-0.3,0.8-0.8,1.4-1.4,1.9c-0.6,0.6-1.3,1-2.1,1.3c-0.8,0.3-1.7,0.4-2.6,0.4
		s-1.8-0.2-2.6-0.4c-0.8-0.3-1.4-0.7-2.1-1.3c-0.6-0.6-1-1.2-1.4-1.9c-0.3-0.8-0.5-1.6-0.5-2.6V265h4.2v11.1c0,0.8,0.2,1.4,0.6,1.8
		s1,0.6,1.7,0.6c0.7,0,1.3-0.2,1.7-0.6c0.4-0.4,0.6-1,0.6-1.8V265h4.2v11.2C-35,277.2-35.1,278-35.5,278.8z"/>
	<path id="XMLID_202_" class="st1" d="M-24.2,282.3l-3-6.4h-1.4v6.4h-4.2V265h6.9c1,0,1.8,0.2,2.6,0.5c0.7,0.3,1.4,0.7,1.8,1.3
		c0.5,0.5,0.9,1.1,1.1,1.8c0.2,0.6,0.4,1.4,0.4,2.1c0,0.6-0.1,1.1-0.2,1.6c-0.2,0.5-0.4,0.9-0.6,1.3c-0.2,0.4-0.6,0.7-0.9,1
		c-0.3,0.2-0.6,0.5-1,0.6l3.8,7.2H-24.2z M-24.4,270.5c0-0.5-0.2-0.9-0.5-1.2c-0.3-0.3-0.8-0.6-1.4-0.6h-2.4v3.5h2.4
		c0.6,0,1-0.2,1.4-0.6C-24.6,271.4-24.4,271-24.4,270.5z"/>
	<path id="XMLID_200_" class="st1" d="M-6.5,279.3c-0.4,0.7-0.9,1.3-1.4,1.8c-0.6,0.5-1.2,0.8-1.9,1c-0.7,0.2-1.5,0.3-2.3,0.3
		c-1,0-1.9-0.2-2.7-0.5c-0.8-0.3-1.5-0.8-2.1-1.4c-0.5-0.5-0.8-1-1-1.4c-0.2-0.6-0.4-1.1-0.6-1.7c-0.1-0.6-0.2-1.2-0.2-1.8
		c0-0.6,0-1.3,0-1.9c0-0.6,0-1.3,0-1.9c0-0.6,0.1-1.2,0.2-1.8c0.1-0.6,0.2-1.1,0.6-1.7c0.2-0.6,0.6-1,1-1.4c0.6-0.6,1.4-1.1,2.1-1.4
		c0.8-0.3,1.7-0.5,2.7-0.5c0.8,0,1.6,0.1,2.3,0.3c0.7,0.2,1.4,0.6,1.9,1c0.6,0.5,1,1,1.4,1.8c0.4,0.7,0.6,1.5,0.8,2.5H-10
		c-0.2-0.5-0.3-0.9-0.6-1.3s-0.8-0.6-1.5-0.6c-0.4,0-0.7,0.1-1,0.2s-0.5,0.3-0.6,0.6c-0.1,0.2-0.2,0.2-0.2,0.4
		c-0.1,0.2-0.2,0.4-0.2,0.7c-0.1,0.3-0.1,0.7-0.2,1.2c0,0.5-0.1,1.1-0.1,1.9c0,0.8,0,1.4,0.1,1.9c0,0.5,0.1,0.9,0.2,1.2
		c0.1,0.3,0.2,0.6,0.2,0.7c0.1,0.2,0.2,0.3,0.2,0.4c0.2,0.2,0.4,0.4,0.6,0.6c0.3,0.2,0.6,0.2,1,0.2c0.7,0,1.2-0.2,1.5-0.6
		s0.6-0.8,0.6-1.3h4.3C-5.9,277.8-6.1,278.6-6.5,279.3z"/>
	<path id="XMLID_198_" class="st1" d="M4.1,282.3v-6.9h-4.5v6.9h-4.2V265h4.2v6.6h4.5V265h4.2v17.3H4.1z"/>
	<path id="XMLID_194_" class="st1" d="M-172,292.6c0,0.6,0,1.1,0,1.6c0,0.5-0.1,0.9-0.1,1.2c-0.1,0.3-0.2,0.6-0.3,0.9
		c-0.2,0.2-0.3,0.6-0.6,0.8c-0.4,0.4-0.8,0.6-1.3,0.8s-1,0.3-1.5,0.3c-0.6,0-1-0.1-1.5-0.3c-0.5-0.2-0.9-0.5-1.3-0.8
		c-0.2-0.2-0.5-0.5-0.6-0.8c-0.2-0.2-0.2-0.6-0.3-0.9s-0.1-0.7-0.1-1.2c0-0.5,0-1,0-1.6c0-0.6,0-1.1,0-1.6s0.1-0.9,0.1-1.2
		c0.1-0.3,0.2-0.6,0.3-0.9c0.2-0.2,0.3-0.6,0.6-0.8c0.4-0.4,0.8-0.6,1.3-0.8c0.5-0.2,1-0.3,1.5-0.3s1,0.1,1.5,0.3
		c0.5,0.2,0.9,0.5,1.3,0.8c0.2,0.2,0.5,0.5,0.6,0.8c0.2,0.2,0.2,0.6,0.3,0.9c0.1,0.3,0.1,0.7,0.1,1.2C-172,291.4-172,292-172,292.6z
		 M-172.8,292.6c0-0.6,0-1.1,0-1.5c0-0.4-0.1-0.8-0.1-1.1c-0.1-0.3-0.2-0.6-0.2-0.8c-0.1-0.2-0.2-0.4-0.5-0.6
		c-0.2-0.2-0.6-0.5-1-0.6c-0.4-0.2-0.7-0.2-1.1-0.2c-0.4,0-0.8,0.1-1.1,0.2c-0.4,0.2-0.7,0.3-1,0.6c-0.2,0.2-0.3,0.4-0.5,0.6
		c-0.1,0.2-0.2,0.5-0.2,0.8c-0.1,0.3-0.1,0.6-0.1,1.1c0,0.4,0,1,0,1.5s0,1.1,0,1.5s0.1,0.8,0.1,1.1c0.1,0.3,0.2,0.6,0.2,0.8
		c0.1,0.2,0.2,0.4,0.5,0.6c0.2,0.2,0.6,0.5,1,0.6c0.4,0.2,0.7,0.2,1.1,0.2c0.4,0,0.8-0.1,1.1-0.2c0.4-0.2,0.7-0.3,1-0.6
		c0.2-0.2,0.3-0.4,0.5-0.6c0.1-0.2,0.2-0.5,0.2-0.8c0.1-0.3,0.1-0.6,0.1-1.1C-172.9,293.7-172.8,293.2-172.8,292.6z"/>
	<path id="XMLID_192_" class="st1" d="M-166.7,292.4h5v0.7h-5v5h-0.8v-11h6.7v0.7h-5.8L-166.7,292.4L-166.7,292.4z"/>
	<path id="XMLID_190_" class="st1" d="M-148.9,298.1h-0.8v-10.3h-3.3v-0.7h7.4v0.7h-3.3L-148.9,298.1L-148.9,298.1z"/>
	<path id="XMLID_188_" class="st1" d="M-135.4,292.9h-5.8v5.2h-0.8v-11h0.8v5.1h5.8v-5.1h0.8v11h-0.8V292.9z"/>
	<path id="XMLID_186_" class="st1" d="M-129.6,287.1h6.7v0.7h-5.8v4.4h5v0.7h-5v4.5h5.8v0.7h-6.7V287.1z"/>
	<path id="XMLID_184_" class="st1" d="M-111.5,298.1l-3.6-11h0.9l3.1,9.6l3.1-9.6h0.9l-3.6,11H-111.5z"/>
	<path id="XMLID_181_" class="st1" d="M-98.2,295.4h-5.1l-1,2.7h-0.9l4.1-11h0.7l4.1,11h-0.9L-98.2,295.4z M-103.1,294.7h4.6
		l-2.3-6.5L-103.1,294.7z"/>
	<path id="XMLID_179_" class="st1" d="M-93,287.1h0.8v10.3h5.8v0.7h-6.7L-93,287.1L-93,287.1z"/>
	<path id="XMLID_177_" class="st1" d="M-82.7,287.1h0.8v10.3h5.8v0.7h-6.7L-82.7,287.1L-82.7,287.1z"/>
	<path id="XMLID_175_" class="st1" d="M-72.3,287.1h6.7v0.7h-5.8v4.4h5v0.7h-5v4.5h5.8v0.7h-6.7V287.1z"/>
	<path id="XMLID_173_" class="st1" d="M-59,298.1h-0.8v-4.6l-3.3-6.5h0.9l2.8,5.6l2.7-5.6h0.9l-3.3,6.5L-59,298.1L-59,298.1z"/>
</g>
</svg>
