<?xml version="1.0" encoding="utf-8"?>
<!-- Generator: Adobe Illustrator 19.1.0, SVG Export Plug-In . SVG Version: 6.00 Build 0)  -->
<svg version="1.2" baseProfile="tiny" id="Layer_1" xmlns="http://www.w3.org/2000/svg" xmlns:xlink="http://www.w3.org/1999/xlink"
	 x="0px" y="0px" viewBox="0 0 271.1 183.3" xml:space="preserve">
  <g>
  	<path fill="#FFFFFF" d="M167.5,32.2h-26c5.4-2.2,13-5.4,15-7.5c1.7-1.7,2.6-3.8,2.6-6.2c0-2.3-0.9-4.5-2.6-6.2
  		c-1.7-1.7-3.8-2.6-6.2-2.6c-2.3,0-4.5,0.9-6.2,2.6c-2,2-5.1,9.1-7.2,14.4c1.2-15.1,6.5-24.6,14.3-24.6c0.6,0,1.1-0.5,1.1-1.1
  		c0-0.6-0.5-1.1-1.1-1.1c-6.4,0-13,5.4-15.6,19.6C133,5.4,126.3,0,119.9,0c-0.6,0-1.1,0.5-1.1,1.1c0,0.6,0.5,1.1,1.1,1.1
  		c7.8,0,13.1,9.5,14.3,24.6c-2.2-5.3-5.3-12.5-7.2-14.4c-1.6-1.7-3.8-2.6-6.2-2.6c-2.3,0-4.5,0.9-6.2,2.6c-1.7,1.7-2.6,3.8-2.6,6.2
  		c0,2.3,0.9,4.5,2.6,6.2c2,2,9.6,5.3,15,7.5h-26c-0.6,0-1.1,0.5-1.1,1.1v15c0,0.6,0.5,1.1,1.1,1.1h3.9v45.1c0,0.6,0.5,1.1,1.1,1.1
  		h53.9c0.6,0,1.1-0.5,1.1-1.1V49.5h3.9c0.6,0,1.1-0.5,1.1-1.1v-15C168.6,32.7,168.1,32.2,167.5,32.2z M145.7,14
  		c1.2-1.2,2.9-1.9,4.6-1.9c1.7,0,3.4,0.7,4.6,1.9c1.2,1.2,1.9,2.9,1.9,4.6c0,1.7-0.7,3.4-1.9,4.6c-2,2-11.8,6-17.5,8.2
  		C139.6,25.8,143.7,16,145.7,14z M114.3,18.6c0-1.7,0.7-3.4,1.9-4.6c1.2-1.2,2.9-1.9,4.6-1.9c1.7,0,3.4,0.7,4.6,1.9
  		c2,2,6,11.8,8.2,17.5c-5.7-2.2-15.5-6.2-17.5-8.2C114.9,22,114.3,20.3,114.3,18.6z M104.7,34.4h29.7v12.8h-25.8h-3.9V34.4z
  		 M109.7,49.5h24.7v44h-24.7V49.5z M161.4,93.4h-24.7v-44h24.7V93.4z M166.4,47.3h-3.9h-25.8V34.4h29.7V47.3z"/>
  	<rect x="32.5" y="72.3" fill="#FFFFFF" width="205.5" height="36"/>
  	<g>
  		<path fill="#BC2030" d="M39,91.1L39,91.1c0-5.8,4.3-10.5,10.5-10.5c3.8,0,6.1,1.3,8,3.1l-2.8,3.3c-1.6-1.4-3.1-2.3-5.2-2.3
  			c-3.4,0-5.9,2.8-5.9,6.3V91c0,3.5,2.4,6.3,5.9,6.3c2.3,0,3.7-0.9,5.3-2.4l2.8,2.9c-2.1,2.2-4.4,3.6-8.3,3.6
  			C43.4,101.5,39,96.9,39,91.1z"/>
  		<path fill="#BC2030" d="M63.2,80.9h4.4v8h8.2v-8h4.4v20.2h-4.4V93h-8.2v8.1h-4.4V80.9z"/>
  		<path fill="#BC2030" d="M87.2,80.9h9.2c2.6,0,4.6,0.7,5.9,2c1.1,1.1,1.7,2.7,1.7,4.6v0.1c0,3.3-1.8,5.3-4.3,6.3l4.9,7.2h-5.2
  			l-4.3-6.5h-3.5v6.5h-4.4V80.9z M96.1,90.7c2.2,0,3.4-1.2,3.4-2.9v-0.1c0-1.9-1.3-2.9-3.5-2.9h-4.4v5.8H96.1z"/>
  		<path fill="#BC2030" d="M110.3,80.9h4.4v20.2h-4.4V80.9z"/>
  		<path fill="#BC2030" d="M120.4,98.2L123,95c1.8,1.5,3.7,2.5,6,2.5c1.8,0,2.9-0.7,2.9-1.9v-0.1c0-1.1-0.7-1.7-4.1-2.6
  			c-4.1-1-6.7-2.2-6.7-6.2v-0.1c0-3.7,2.9-6.1,7.1-6.1c2.9,0,5.5,0.9,7.5,2.6l-2.3,3.3c-1.8-1.2-3.5-2-5.3-2c-1.7,0-2.6,0.8-2.6,1.8
  			v0.1c0,1.3,0.9,1.8,4.4,2.7c4.1,1.1,6.4,2.5,6.4,6.1v0.1c0,4-3.1,6.3-7.4,6.3C125.9,101.4,122.8,100.3,120.4,98.2z"/>
  		<path fill="#BC2030" d="M146.5,85h-6.1v-4.1h16.7V85H151v16.1h-4.4V85z"/>
  		<path fill="#BC2030" d="M162.6,80.9h4.8l5.3,8.5l5.3-8.5h4.8v20.2h-4.4V87.9l-5.7,8.6h-0.1l-5.6-8.5v13.1h-4.4V80.9z"/>
  		<path fill="#BC2030" d="M196.6,80.8h4.1l8.7,20.3h-4.6l-1.8-4.5h-8.5l-1.8,4.5h-4.5L196.6,80.8z M201.2,92.7l-2.7-6.5l-2.7,6.5
  			H201.2z"/>
  		<path fill="#BC2030" d="M212.8,98.2l2.6-3.1c1.8,1.5,3.7,2.5,6,2.5c1.8,0,2.9-0.7,2.9-1.9v-0.1c0-1.1-0.7-1.7-4.1-2.6
  			c-4.1-1-6.7-2.2-6.7-6.2v-0.1c0-3.7,2.9-6.1,7.1-6.1c2.9,0,5.5,0.9,7.5,2.6l-2.3,3.3c-1.8-1.2-3.5-2-5.3-2s-2.6,0.8-2.6,1.8v0.1
  			c0,1.3,0.9,1.8,4.4,2.7c4.1,1.1,6.4,2.5,6.4,6.1v0.1c0,4-3.1,6.3-7.4,6.3C218.3,101.4,215.2,100.3,212.8,98.2z"/>
  	</g>
  	<path fill="#FFFFFF" d="M188.1,44.7h-1.3l0.6-0.6c0.1-0.1,0.1-0.2,0-0.2s-0.2-0.1-0.2,0l-0.8,0.8h-0.8l1.1-1.1
  		c0.1-0.1,0.1-0.2,0-0.2c-0.1-0.1-0.2-0.1-0.2,0l-1.4,1.4h-1.7l1.1-1.7c0-0.1,0-0.1,0-0.2c0-0.1-0.1-0.1-0.2-0.1l-2,0.2l0.9-1.5
  		l1.9-0.5c0.1,0,0.1-0.1,0.1-0.2c0-0.1-0.1-0.1-0.2-0.1l-1.6,0.4l0.4-0.7L185,40c0.1,0,0.1-0.1,0.1-0.2c0-0.1-0.1-0.1-0.2-0.1
  		l-0.8,0.2l0.6-1.1c0-0.1,0-0.2-0.1-0.2c-0.1,0-0.2,0-0.2,0.1l-0.6,1.1l-0.2-0.8c0-0.1-0.1-0.1-0.2-0.1c-0.1,0-0.1,0.1-0.1,0.2
  		l0.3,1.1l-0.4,0.7l-0.4-1.6c0-0.1-0.1-0.1-0.2-0.1c-0.1,0-0.1,0.1-0.1,0.2l0.5,1.9l-0.9,1.5l-0.9-1.8c-0.1-0.1-0.2-0.1-0.3,0
  		l-0.9,1.8l-0.9-1.5l0.5-1.9c0-0.1,0-0.2-0.1-0.2c-0.1,0-0.2,0-0.2,0.1l-0.4,1.6l-0.4-0.7l0.3-1.1c0-0.1,0-0.2-0.1-0.2
  		c-0.1,0-0.2,0-0.2,0.1l-0.2,0.8l-0.6-1.1c0-0.1-0.1-0.1-0.2-0.1c-0.1,0-0.1,0.1-0.1,0.2l0.6,1.1l-0.8-0.2c-0.1,0-0.2,0-0.2,0.1
  		c0,0.1,0,0.2,0.1,0.2l1.1,0.3l0.4,0.7l-1.6-0.4c-0.1,0-0.2,0-0.2,0.1c0,0.1,0,0.2,0.1,0.2l1.9,0.5l0.9,1.5l-2-0.2
  		c-0.1,0-0.1,0-0.2,0.1c0,0.1,0,0.1,0,0.2l1.1,1.7l-1.7,0l-1.4-1.4c-0.1-0.1-0.2-0.1-0.2,0s-0.1,0.2,0,0.2l1.1,1.1h-0.8l-0.8-0.8
  		c-0.1-0.1-0.2-0.1-0.2,0c-0.1,0.1-0.1,0.2,0,0.2l0.6,0.6l-1.3,0c-0.1,0-0.2,0.1-0.2,0.2c0,0.1,0.1,0.2,0.2,0.2l1.3,0l-0.6,0.6
  		c-0.1,0.1-0.1,0.2,0,0.2c0,0,0.1,0,0.1,0c0,0,0.1,0,0.1,0l0.8-0.8h0.8l-1.1,1.1c-0.1,0.1-0.1,0.2,0,0.2c0,0,0.1,0,0.1,0
  		s0.1,0,0.1,0L177,45l1.7,0l-1.1,1.7c0,0.1,0,0.1,0,0.2c0,0.1,0.1,0.1,0.1,0.1c0,0,0,0,0,0l2-0.2l-0.9,1.5l-1.9,0.5
  		c-0.1,0-0.1,0.1-0.1,0.2c0,0.1,0.1,0.1,0.2,0.1c0,0,0,0,0,0l1.6-0.4l-0.4,0.7l-1.1,0.3c-0.1,0-0.1,0.1-0.1,0.2
  		c0,0.1,0.1,0.1,0.2,0.1c0,0,0,0,0,0l0.8-0.2l-0.6,1.1c0,0.1,0,0.2,0.1,0.2c0,0,0.1,0,0.1,0c0.1,0,0.1,0,0.1-0.1l0.6-1.1l0.2,0.8
  		c0,0.1,0.1,0.1,0.2,0.1c0,0,0,0,0,0c0.1,0,0.1-0.1,0.1-0.2l-0.3-1.1l0.4-0.7l0.4,1.6c0,0.1,0.1,0.1,0.2,0.1c0,0,0,0,0,0
  		c0.1,0,0.1-0.1,0.1-0.2l-0.5-1.9l0.9-1.5l0.9,1.8c0,0.1,0.1,0.1,0.1,0.1c0.1,0,0.1,0,0.1-0.1l0.9-1.8l0.9,1.5l-0.5,1.9
  		c0,0.1,0,0.2,0.1,0.2c0,0,0,0,0,0c0.1,0,0.1,0,0.2-0.1l0.4-1.6l0.4,0.7l-0.3,1.1c0,0.1,0,0.2,0.1,0.2c0,0,0,0,0,0
  		c0.1,0,0.1,0,0.2-0.1l0.2-0.8l0.6,1.1c0,0.1,0.1,0.1,0.1,0.1c0,0,0.1,0,0.1,0c0.1,0,0.1-0.1,0.1-0.2l-0.6-1.1l0.8,0.2c0,0,0,0,0,0
  		c0.1,0,0.1,0,0.2-0.1c0-0.1,0-0.2-0.1-0.2l-1.1-0.3l-0.4-0.7l1.6,0.4c0,0,0,0,0,0c0.1,0,0.1,0,0.2-0.1c0-0.1,0-0.2-0.1-0.2
  		l-1.9-0.5l-0.9-1.5l2,0.2c0,0,0,0,0,0c0.1,0,0.1,0,0.1-0.1c0-0.1,0-0.1,0-0.2l-1.1-1.7h1.7l1.4,1.4c0,0,0.1,0,0.1,0
  		c0,0,0.1,0,0.1,0c0.1-0.1,0.1-0.2,0-0.2l-1.1-1.1h0.8l0.8,0.8c0,0,0.1,0,0.1,0s0.1,0,0.1,0c0.1-0.1,0.1-0.2,0-0.2l-0.6-0.6h1.3
  		c0.1,0,0.2-0.1,0.2-0.2C188.3,44.7,188.2,44.7,188.1,44.7z M184,43.1l-1.1,1.6h-1.6l0.8-1.4L184,43.1z M181.1,41.4l0.8,1.7
  		l-0.8,1.4l-0.8-1.4L181.1,41.4z M178.1,43.1l1.9,0.2l0.8,1.4l-1.6,0L178.1,43.1z M178.1,46.6l1.1-1.6l1.6,0l-0.8,1.4L178.1,46.6z
  		 M181.1,48.3l-0.8-1.7l0.8-1.4l0.8,1.4L181.1,48.3z M182.2,46.4l-0.8-1.4h1.6l1.1,1.6L182.2,46.4z"/>
  	<path fill="#FFFFFF" d="M81.1,65c-0.1,0-0.2,0-0.3-0.1c-0.2-0.2-0.3-0.4-0.2-0.7l1.9-5.9l-5.1-3.7c-0.2-0.2-0.3-0.4-0.2-0.7
  		c0.1-0.2,0.3-0.4,0.6-0.4H84l1.9-5.9c0.1-0.2,0.3-0.4,0.6-0.4s0.5,0.2,0.6,0.4l1.9,5.9h6.3c0.3,0,0.5,0.2,0.6,0.4
  		c0.1,0.2,0,0.5-0.2,0.7l-5.1,3.7l1.9,5.9c0.1,0.2,0,0.5-0.2,0.7c-0.2,0.2-0.5,0.2-0.7,0l-5.1-3.7l-5.1,3.7
  		C81.3,64.9,81.2,65,81.1,65z M86.5,59.9c0.1,0,0.2,0,0.3,0.1l3.9,2.9l-1.5-4.6c-0.1-0.2,0-0.5,0.2-0.7l3.9-2.9h-4.9
  		c-0.3,0-0.5-0.2-0.6-0.4l-1.5-4.6L85,54.3c-0.1,0.2-0.3,0.4-0.6,0.4h-4.9l3.9,2.9c0.2,0.2,0.3,0.4,0.2,0.7l-1.5,4.6l3.9-2.9
  		C86.3,59.9,86.4,59.9,86.5,59.9z"/>
  	<path fill="#FFFFFF" d="M97.6,21.3l1.9-1.9c0.2-0.2,0.2-0.6,0-0.8s-0.6-0.2-0.8,0l-1.9,1.9l-1.9-1.9c-0.2-0.2-0.6-0.2-0.8,0
  		s-0.2,0.6,0,0.8l1.9,1.9L94,23.1c-0.2,0.2-0.2,0.6,0,0.8c0.1,0.1,0.3,0.2,0.4,0.2c0.2,0,0.3-0.1,0.4-0.2l1.9-1.9l1.9,1.9
  		c0.1,0.1,0.3,0.2,0.4,0.2c0.2,0,0.3-0.1,0.4-0.2c0.2-0.2,0.2-0.6,0-0.8L97.6,21.3z"/>
  	<path fill="#FFFFFF" d="M171.7,61.8l1.9-1.9c0.2-0.2,0.2-0.6,0-0.8c-0.2-0.2-0.6-0.2-0.8,0l-1.9,1.9l-1.9-1.9
  		c-0.2-0.2-0.6-0.2-0.8,0c-0.2,0.2-0.2,0.6,0,0.8l1.9,1.9l-1.9,1.9c-0.2,0.2-0.2,0.6,0,0.8c0.1,0.1,0.3,0.2,0.4,0.2s0.3-0.1,0.4-0.2
  		l1.9-1.9l1.9,1.9c0.1,0.1,0.3,0.2,0.4,0.2c0.2,0,0.3-0.1,0.4-0.2c0.2-0.2,0.2-0.6,0-0.8L171.7,61.8z"/>
  	<path fill="#FFFFFF" d="M101.3,62.9l1.6-1.6c0.1-0.1,0.1-0.3,0-0.4c-0.1-0.1-0.3-0.1-0.4,0l-1.6,1.6l-1.6-1.6
  		c-0.1-0.1-0.3-0.1-0.4,0c-0.1,0.1-0.1,0.3,0,0.4l1.6,1.6l-1.6,1.6c-0.1,0.1-0.1,0.3,0,0.4C99,65,99,65,99.1,65c0.1,0,0.2,0,0.2-0.1
  		l1.6-1.6l1.6,1.6c0.1,0.1,0.1,0.1,0.2,0.1s0.2,0,0.2-0.1c0.1-0.1,0.1-0.3,0-0.4L101.3,62.9z"/>
  	<g>
  		<path fill="#FFFFFF" d="M129.6,119.7l2.5,0l5.3,12.4l-2.8,0l-1.1-2.8l-5.2,0l-1.1,2.8l-2.8,0L129.6,119.7z M132.5,127l-1.7-4
  			l-1.6,4L132.5,127z"/>
  		<path fill="#FFFFFF" d="M139.7,122.3l-3.8,0l0-2.5l10.2-0.1l0,2.5l-3.8,0l0,9.8l-2.7,0L139.7,122.3z"/>
  	</g>
  	<g>
  		<g>
  			<path fill="#FFFFFF" d="M106,125.9c0,0-0.2-0.3-0.7-0.4c-0.5-0.2-1.3-0.3-2.1,0.3c-0.8,0.5-1.3,1.8-0.9,3.1
  				c0.4,1.3,1.9,2.4,3.5,2.5c0.8,0.1,1.7-0.2,2.5-0.6c0.8-0.4,1.5-1.1,1.8-2c0.4-0.9,0.5-1.9,0.2-2.9c-0.2-1-0.8-1.9-1.6-2.6
  				c-1.7-1.4-4-2.3-6.3-2.3c-2.4-0.1-4.8,0.5-7.1,1.3c-2.3,0.8-4.5,2-6.8,3c-2.2,1.1-4.4,2.1-6.6,2.9c-2.2,0.8-4.4,1.5-6.5,2
  				c-2.1,0.5-4.2,0.7-6.1,0.6c-1.9,0-3.6-0.3-5.1-0.7c-1.5-0.4-2.7-0.9-3.7-1.4c-1-0.5-1.7-1-2.2-1.3c-0.5-0.3-0.8-0.5-0.8-0.5
  				c-0.1-0.1-0.1-0.2-0.1-0.3c0.1-0.1,0.2-0.1,0.3-0.1l0,0c0,0,0.3,0.2,0.7,0.5c0.5,0.3,1.2,0.7,2.2,1.2c1,0.5,2.2,1,3.7,1.3
  				c1.5,0.4,3.1,0.6,5,0.6c1.8,0,3.9-0.2,5.9-0.7c2.1-0.5,4.2-1.2,6.4-2c2.2-0.8,4.4-1.9,6.6-2.9c2.2-1,4.4-2.3,6.8-3.1
  				c2.4-0.9,4.9-1.5,7.5-1.4c2.6,0.1,5.1,1,7,2.5c1,0.8,1.7,1.9,2,3.1c0.3,1.2,0.2,2.5-0.3,3.6c-1,2.2-3.4,3.3-5.4,3.2
  				c-2.1-0.1-3.8-1.6-4.3-3.2c-0.5-1.7,0.3-3.3,1.3-3.9c1.1-0.7,2.1-0.5,2.7-0.2c0.3,0.1,0.5,0.3,0.6,0.4c0.1,0.1,0.2,0.2,0.2,0.2
  				c0.1,0.1,0,0.2,0,0.2c0,0,0,0-0.1,0L106,125.9z"/>
  			<path fill="#FFFFFF" d="M69.1,123c0,0,0,0.1-0.1,0.4c-0.1,0.3-0.3,0.7-0.7,1c-0.4,0.3-1.1,0.6-1.9,0.4c-0.4-0.1-0.7-0.3-1.1-0.6
  				c-0.1-0.1-0.3-0.3-0.4-0.5c-0.1-0.2-0.2-0.4-0.3-0.6c-0.4-0.9-0.3-2,0.2-2.9c0.5-1,1.4-1.7,2.5-2c0.1,0,0.3-0.1,0.4-0.1l0.1,0
  				l0.1,0l0.2,0c0.2,0,0.6,0,0.9,0c0.6,0.1,1.2,0.3,1.7,0.6c1.1,0.6,1.8,1.8,2,3c0.1,0.6,0.1,1.2-0.1,1.8c0,0.1-0.1,0.3-0.1,0.4
  				l-0.1,0.4c-0.1,0.3-0.2,0.6-0.4,0.8c-0.6,1-1.4,1.8-2.3,2.4c-0.9,0.6-1.8,1-2.8,1.3c-0.9,0.3-1.9,0.3-2.7,0.3
  				c-1.7,0-3-0.3-3.9-0.7c-0.5-0.2-0.8-0.4-1-0.5c-0.2-0.1-0.3-0.2-0.3-0.2c-0.1-0.1-0.1-0.2-0.1-0.3c0.1-0.1,0.2-0.1,0.3-0.1l0,0
  				c0,0,0.1,0.1,0.3,0.2c0.2,0.1,0.5,0.2,1,0.4c0.9,0.3,2.2,0.5,3.8,0.4c0.8,0,1.6-0.1,2.5-0.4c0.8-0.3,1.7-0.7,2.5-1.2
  				c0.8-0.5,1.5-1.2,1.9-2.1c0.1-0.2,0.2-0.4,0.3-0.6l0.1-0.4c0-0.1,0.1-0.2,0.1-0.3c0.1-0.5,0.1-0.9,0-1.4
  				c-0.2-0.9-0.7-1.8-1.5-2.2c-0.8-0.5-1.7-0.6-2.6-0.4c-0.9,0.2-1.5,0.8-1.9,1.5c-0.4,0.7-0.5,1.5-0.2,2.1c0.1,0.2,0.1,0.3,0.2,0.4
  				c0.1,0.1,0.2,0.2,0.3,0.4c0.2,0.2,0.5,0.4,0.7,0.4c0.5,0.2,1,0,1.4-0.2c0.3-0.2,0.5-0.5,0.6-0.7c0.1-0.2,0.1-0.4,0.1-0.3
  				c0-0.1,0.1-0.2,0.3-0.2C69,122.8,69.1,122.9,69.1,123z"/>
  			<path fill="#FFFFFF" d="M80,120.6c0,0,0,0.1-0.1,0.4c-0.1,0.3-0.3,0.7-0.8,1c-0.5,0.3-1.2,0.5-2,0.3c-0.2-0.1-0.4-0.2-0.6-0.3
  				c-0.1-0.1-0.2-0.1-0.3-0.2c-0.1-0.1-0.1-0.1-0.2-0.2c-0.3-0.3-0.6-0.8-0.7-1.3c-0.2-1,0-2.1,0.6-3c0.7-0.9,1.8-1.6,3-1.7
  				c1.2-0.1,2.6,0.3,3.4,1.3c0.9,0.9,1.3,2.3,1.2,3.6c-0.1,1.2-0.5,2.4-1.2,3.4c-0.6,1-1.4,1.9-2.2,2.6c-0.8,0.8-1.7,1.3-2.6,1.8
  				c-0.9,0.5-1.8,0.8-2.6,1.1c-1.7,0.6-3.1,0.8-4.1,1c-0.5,0.1-0.9,0.1-1.2,0.1c-0.3,0-0.4,0-0.4,0c-0.1,0-0.2-0.1-0.2-0.2
  				c0-0.1,0.1-0.2,0.2-0.2l0,0c0,0,0.1,0,0.4,0c0.3,0,0.6-0.1,1.1-0.1c1-0.2,2.4-0.5,3.9-1.1c0.8-0.3,1.6-0.7,2.5-1.2
  				c0.8-0.5,1.7-1,2.4-1.8c0.8-0.7,1.4-1.5,2-2.5c0.5-0.9,0.9-1.9,1-3c0.1-1-0.3-2-0.9-2.7c-0.7-0.7-1.6-1.1-2.5-1
  				c-0.9,0.1-1.8,0.5-2.3,1.2c-0.5,0.7-0.7,1.5-0.6,2.2c0.1,0.4,0.2,0.7,0.4,0.9c0,0.1,0.1,0.1,0.2,0.2l0.2,0.1
  				c0.1,0.1,0.3,0.2,0.4,0.2c0.5,0.2,1.1,0.1,1.5-0.1c0.4-0.2,0.6-0.5,0.7-0.7c0.1-0.2,0.1-0.4,0.1-0.4c0-0.1,0.1-0.2,0.3-0.2
  				C79.9,120.4,80,120.5,80,120.6z"/>
  		</g>
  		<g>
  			<path fill="#FFFFFF" d="M165,125.9c0,0,0.2-0.3,0.7-0.4c0.5-0.2,1.3-0.3,2.1,0.3c0.8,0.5,1.3,1.8,0.9,3.1
  				c-0.4,1.3-1.9,2.4-3.5,2.5c-0.8,0.1-1.7-0.2-2.5-0.6c-0.8-0.4-1.5-1.1-1.8-2c-0.4-0.9-0.5-1.9-0.2-2.9c0.2-1,0.8-1.9,1.6-2.6
  				c1.7-1.4,4-2.3,6.3-2.3c2.4-0.1,4.8,0.5,7.1,1.3c2.3,0.8,4.5,2,6.8,3c2.2,1.1,4.4,2.1,6.6,2.9c2.2,0.8,4.4,1.5,6.5,2
  				c2.1,0.5,4.2,0.7,6.1,0.6c1.9,0,3.6-0.3,5.1-0.7c1.5-0.4,2.7-0.9,3.7-1.4c1-0.5,1.7-1,2.2-1.3c0.5-0.3,0.8-0.5,0.8-0.5
  				c0.1-0.1,0.1-0.2,0.1-0.3c-0.1-0.1-0.2-0.1-0.3-0.1l0,0c0,0-0.3,0.2-0.7,0.5c-0.5,0.3-1.2,0.7-2.2,1.2c-1,0.5-2.2,1-3.7,1.3
  				c-1.5,0.4-3.1,0.6-5,0.6c-1.8,0-3.9-0.2-5.9-0.7c-2.1-0.5-4.2-1.2-6.4-2c-2.2-0.8-4.4-1.9-6.6-2.9c-2.2-1-4.4-2.3-6.8-3.1
  				c-2.4-0.9-4.9-1.5-7.5-1.4c-2.6,0.1-5.1,1-7,2.5c-1,0.8-1.7,1.9-2,3.1c-0.3,1.2-0.2,2.5,0.3,3.6c1,2.2,3.4,3.3,5.4,3.2
  				c2.1-0.1,3.8-1.6,4.3-3.2c0.5-1.7-0.3-3.3-1.3-3.9c-1.1-0.7-2.1-0.5-2.7-0.2c-0.3,0.1-0.5,0.3-0.6,0.4c-0.1,0.1-0.2,0.2-0.2,0.2
  				c-0.1,0.1,0,0.2,0,0.2c0,0,0,0,0.1,0L165,125.9z"/>
  			<path fill="#FFFFFF" d="M201.8,123c0,0,0,0.1,0.1,0.4c0.1,0.3,0.3,0.7,0.7,1c0.4,0.3,1.1,0.6,1.9,0.4c0.4-0.1,0.7-0.3,1.1-0.6
  				c0.1-0.1,0.3-0.3,0.4-0.5c0.1-0.2,0.2-0.4,0.3-0.6c0.4-0.9,0.3-2-0.2-2.9c-0.5-1-1.4-1.7-2.5-2c-0.1,0-0.3-0.1-0.4-0.1l-0.1,0
  				l-0.1,0l-0.2,0c-0.2,0-0.6,0-0.9,0c-0.6,0.1-1.2,0.3-1.7,0.6c-1.1,0.6-1.8,1.8-2,3c-0.1,0.6-0.1,1.2,0.1,1.8
  				c0,0.1,0.1,0.3,0.1,0.4l0.1,0.4c0.1,0.3,0.2,0.6,0.4,0.8c0.6,1,1.4,1.8,2.3,2.4c0.9,0.6,1.8,1,2.8,1.3c0.9,0.3,1.9,0.3,2.7,0.3
  				c1.7,0,3-0.3,3.9-0.7c0.5-0.2,0.8-0.4,1-0.5c0.2-0.1,0.3-0.2,0.3-0.2c0.1-0.1,0.1-0.2,0.1-0.3c-0.1-0.1-0.2-0.1-0.3-0.1l0,0
  				c0,0-0.1,0.1-0.3,0.2c-0.2,0.1-0.5,0.2-1,0.4c-0.9,0.3-2.2,0.5-3.8,0.4c-0.8,0-1.6-0.1-2.5-0.4c-0.8-0.3-1.7-0.7-2.5-1.2
  				c-0.8-0.5-1.5-1.2-1.9-2.1c-0.1-0.2-0.2-0.4-0.3-0.6l-0.1-0.4c0-0.1-0.1-0.2-0.1-0.3c-0.1-0.5-0.1-0.9,0-1.4
  				c0.2-0.9,0.7-1.8,1.5-2.2c0.8-0.5,1.7-0.6,2.6-0.4c0.9,0.2,1.5,0.8,1.9,1.5c0.4,0.7,0.5,1.5,0.2,2.1c-0.1,0.2-0.1,0.3-0.2,0.4
  				c-0.1,0.1-0.2,0.2-0.3,0.4c-0.2,0.2-0.5,0.4-0.7,0.4c-0.5,0.2-1,0-1.4-0.2c-0.3-0.2-0.5-0.5-0.6-0.7c-0.1-0.2-0.1-0.4-0.1-0.3
  				c0-0.1-0.1-0.2-0.3-0.2C201.9,122.8,201.8,122.9,201.8,123z"/>
  			<path fill="#FFFFFF" d="M191,120.6c0,0,0,0.1,0.1,0.4c0.1,0.3,0.3,0.7,0.8,1c0.5,0.3,1.2,0.5,2,0.3c0.2-0.1,0.4-0.2,0.6-0.3
  				c0.1-0.1,0.2-0.1,0.3-0.2c0.1-0.1,0.1-0.1,0.2-0.2c0.3-0.3,0.6-0.8,0.7-1.3c0.2-1,0-2.1-0.6-3c-0.7-0.9-1.8-1.6-3-1.7
  				c-1.2-0.1-2.6,0.3-3.4,1.3c-0.9,0.9-1.3,2.3-1.2,3.6c0.1,1.2,0.5,2.4,1.2,3.4c0.6,1,1.4,1.9,2.2,2.6c0.8,0.8,1.7,1.3,2.6,1.8
  				c0.9,0.5,1.8,0.8,2.6,1.1c1.7,0.6,3.1,0.8,4.1,1c0.5,0.1,0.9,0.1,1.2,0.1c0.3,0,0.4,0,0.4,0c0.1,0,0.2-0.1,0.2-0.2
  				c0-0.1-0.1-0.2-0.2-0.2l0,0c0,0-0.1,0-0.4,0c-0.3,0-0.6-0.1-1.1-0.1c-1-0.2-2.4-0.5-3.9-1.1c-0.8-0.3-1.6-0.7-2.5-1.2
  				c-0.8-0.5-1.7-1-2.4-1.8c-0.8-0.7-1.4-1.5-2-2.5c-0.5-0.9-0.9-1.9-1-3c-0.1-1,0.3-2,0.9-2.7c0.7-0.7,1.6-1.1,2.5-1
  				c0.9,0.1,1.8,0.5,2.3,1.2c0.5,0.7,0.7,1.5,0.6,2.2c-0.1,0.4-0.2,0.7-0.4,0.9c0,0.1-0.1,0.1-0.2,0.2l-0.2,0.1
  				c-0.1,0.1-0.3,0.2-0.4,0.2c-0.5,0.2-1.1,0.1-1.5-0.1c-0.4-0.2-0.6-0.5-0.7-0.7c-0.1-0.2-0.1-0.4-0.1-0.4c0-0.1-0.1-0.2-0.3-0.2
  				C191,120.4,190.9,120.5,191,120.6z"/>
  		</g>
  	</g>
  	<g>
  		<path id="XMLID_27_" fill="#FFFFFF" d="M168.5,141.4h-62.3c-6.6,0-12.1,5.4-12.1,12.1v17.8c0,6.6,5.4,12.1,12.1,12.1h62.3
  			c6.6,0,12.1-5.4,12.1-12.1v-17.8C180.6,146.8,175.1,141.4,168.5,141.4z"/>
  		<g>
  			<g id="XMLID_11_">
  				<path fill="#9E1825" d="M150.3,152.3c0.9-1.2,1.9-1.9,2.7-1.6c1.2,0.5,0.8,2.3,0.2,3.3c-0.5,0.9-1.8,2.7-3.2,1.9
  					C149,155.5,149.6,153.2,150.3,152.3z"/>
  			</g>
  			<g id="XMLID_9_">
  				<path fill="#9E1825" d="M122.9,152.8c0.9-1.2,1.9-1.9,2.7-1.6c1.1,0.5,0.8,2.3,0.2,3.3c-0.5,0.9-1.8,2.6-3.2,1.9
  					C121.7,156,122.2,153.7,122.9,152.8z"/>
  			</g>
  			<g id="XMLID_7_">
  				<path fill="#9E1825" d="M105.2,152.8c0.9-1.2,1.9-1.9,2.7-1.6c1.2,0.5,0.8,2.3,0.2,3.3c-0.5,0.9-1.8,2.7-3.2,1.9
  					C104,156,104.5,153.8,105.2,152.8z"/>
  			</g>
  			<g id="XMLID_5_">
  				<path fill="#9E1825" d="M108.1,162.9c-2.4,6.1,6.9,10.6,6.3,11.6c-1.3,2.4-12.1-5.5-11.2-11.9c0.7-5.3,12-10.3,13.4-8.6
  					C117.8,155.3,110.6,156.4,108.1,162.9z"/>
  			</g>
  			<g id="XMLID_3_">
  				<path fill="#9E1825" d="M125.7,162.9c-2.4,6.1,7,10.7,6.3,11.6c-1.8,2.5-12.1-5.5-11.3-12c0.7-5.3,12-10.3,13.4-8.6
  					C135.3,155.4,128.2,156.5,125.7,162.9z"/>
  			</g>
  			<g id="XMLID_1_">
  				<path fill="#9E1825" d="M158.5,159.3c-6.1,5.2-9.2,15.5-9.5,15.8c-0.5,0.4-1.2-0.2-2-0.3c-0.8-0.1-1.4,0.2-1.7-0.4
  					c-0.2-0.5,0.1-6.5-0.9-10.7c-0.9-3.8-5.9-9.4-5.7-10.2c0.1-0.4,0.2-0.6,1.2-0.7c1,0,3.9,2.5,6,7.2c1.9,4.3,2.3,6.8,2.6,6.8
  					c0.8,0.1,3.4-5.6,8.3-10.1c4.7-4.3,11.2-7.4,12.4-7.3c1.2,0.1,2.5,0.8,2.4,1.1C171.5,151,164.8,153.9,158.5,159.3z"/>
  			</g>
  		</g>
  	</g>
  	<g>
  		<polygon fill="#FFFFFF" points="28.6,115.7 0,115.7 13.2,97.8 0,79.7 28.6,79.7 28.6,112.5 		"/>
  		<polygon fill="#A8ABAD" points="28.9,112.5 28.9,97.3 28.9,97.2 28.9,79.7 25.9,79.7 20.2,81.6 25.8,83.9 20.2,86.1 25.8,88.1
  			20.2,90.3 25.8,92.3 20.2,94.5 25.8,96.9 20.2,99.2 25.8,101.4 20.2,103.4 25.8,105.6 20.2,107.6 25.8,109.9 20.2,112 25.8,114.3
  			21,115.7 28.9,115.7 53.6,115.7 		"/>
  	</g>
  	<g>
  		<polygon fill="#FFFFFF" points="242.5,115.7 271.1,115.7 257.9,97.8 271.1,79.7 242.5,79.7 242.5,112.5 		"/>
  		<polygon fill="#A8ABAD" points="242.2,112.5 242.2,97.3 242.2,97.2 242.2,79.7 245.2,79.7 250.9,81.6 245.2,83.9 250.9,86.1
  			245.2,88.1 250.9,90.3 245.3,92.3 250.9,94.5 245.2,96.9 250.9,99.2 245.2,101.4 250.9,103.4 245.2,105.6 250.9,107.6
  			245.2,109.9 250.9,112 245.2,114.3 250.1,115.7 242.2,115.7 217.5,115.7 		"/>
  	</g>
  </g>
</svg>
