<svg xmlns="http://www.w3.org/2000/svg" viewBox="0 0 248.03 117.68"><defs><style>.a{fill:#ffbd61;}</style></defs><title>Asset 1</title><path class="a" d="M5.35,62.48c-.08-.08-.16,0-.24,0a4.36,4.36,0,0,1-4.48-2.8A9.21,9.21,0,0,1,.07,55c0-.88.08-1.68.16-2.56C.47,51,.63,49.52,1,48A92.72,92.72,0,0,1,3.59,37.44,52.63,52.63,0,0,1,5.91,31.2C7,28.8,8.07,26.4,9.43,24.08a7.47,7.47,0,0,1,1.68-2.16,3.63,3.63,0,0,1,1.68-1.2,2.66,2.66,0,0,1,.8,0,5.58,5.58,0,0,1,1,.4,10.44,10.44,0,0,1,1.44,1.2A5.27,5.27,0,0,1,17,24.24a4.08,4.08,0,0,1-.48,3,24.33,24.33,0,0,0-1.28,2.48c-.32.88-.8,1.76-1.12,2.64-.24.48-.48.88-.72,1.36-.48,1-1,2.08-1.44,3.2-.8,1.68-1.28,3.52-2,5.28-.48,1-.8,2-1.2,3a18,18,0,0,0-.64,1.92c-.16,1-.48,2.08-.64,3.12-.24,1.52-.48,3.12-.64,4.64-.08,1-.16,2.08-.16,3.2a.61.61,0,0,0,.08.32,14.85,14.85,0,0,0,1-1.28c.88-1.44,1.68-2.8,2.56-4.16.48-.88,1-1.68,1.44-2.56.8-1.36,1.68-2.8,2.48-4.16s1.44-2.72,2.24-4c1-1.68,1.84-3.36,2.8-5a15.46,15.46,0,0,0,1.2-2.88c.4-1.2,1-2.4,1.52-3.6.8-1.76,1.6-3.44,2.4-5.2l1.44-2.64a30.17,30.17,0,0,1,2.08-3.12,1.1,1.1,0,0,1,.24-.32c.64-.8,1-.88,1.84-.32a6.3,6.3,0,0,1,2.48,2.72,3.37,3.37,0,0,1,.4,2.32,4.88,4.88,0,0,1-.72,1.44A23.26,23.26,0,0,0,30.79,28c-.56,1.12-1.12,2.32-1.68,3.52a18.69,18.69,0,0,0-1,2.24c-.16.48-.48.88-.64,1.36s-.48,1-.64,1.52c-.56,1.52-1.12,3-1.68,4.48-.64,2-1.28,4-1.84,6-.32,1.44-.72,2.88-1.12,4.32a40.48,40.48,0,0,0-.88,4,15.12,15.12,0,0,0-.4,1.84c-.08.8-.16,1.6-.16,2.4a11.81,11.81,0,0,0-.08,1.68,2.72,2.72,0,0,0,.08.8L21,64.32a3.21,3.21,0,0,1-.48,2.24.08.08,0,0,0-.08.08c.08.4-.16.64-.32,1,0,.16-.08.4-.08.64s-.08.32-.32.16c-.08,0-.08-.08-.16-.08s-.4,0-.32.24S19,68.8,19,69a1.28,1.28,0,0,1-.24.64c-.16-.24-.32-.24-.56-.16a.88.88,0,0,1-.8-.32,16,16,0,0,1-1.52-1.76,2.81,2.81,0,0,1-.64-1A13.22,13.22,0,0,1,14.47,63a34.76,34.76,0,0,1-.16-4.08,32.87,32.87,0,0,1,.64-4.8c.24-1.44.64-2.88,1-4.4V49a11.2,11.2,0,0,1-.8,1.28c-1,1.6-1.76,3.44-2.88,5.12a7,7,0,0,0-.8,1.28.58.58,0,0,0-.16.64.81.81,0,0,1-.16.72,19.79,19.79,0,0,1-1.52,2.08c-.32.4-.64.72-1,1.12a.69.69,0,0,1-.48.24,2.51,2.51,0,0,0-.8.4c-.4.32-.88.24-1.36.32-.08.08-.08,0-.08.16.16.16.4-.32.56.08-.4.08-.72.24-1.12.32Z"/><path class="a" d="M65.83,42.88c-.16.32,0,.8-.4,1.12a2.85,2.85,0,0,0-.8.88c-.32.32-.56.64-.88,1a1.67,1.67,0,0,0-.56,1,1.67,1.67,0,0,1-.48.8c-.48.48-1,.88-1.44,1.36-.8.8-1.6,1.68-2.32,2.56a47.65,47.65,0,0,1-3.28,3.6,4.8,4.8,0,0,0-.64.64,8.09,8.09,0,0,1-3,2c-.08.08-.24.08-.32.16a1.69,1.69,0,0,1-1.92.24,7.53,7.53,0,0,1-1-.32,5.4,5.4,0,0,1-2.88-3.44,6.77,6.77,0,0,1-.32-1.36,6.55,6.55,0,0,1,0-2.16,24.84,24.84,0,0,1,.32-2.56c0-.48.32-2,.56-3.28v-.56a14.87,14.87,0,0,1,.32-2.72,1.32,1.32,0,0,0,.08-.8A6.69,6.69,0,0,0,45.35,43a11.15,11.15,0,0,1-1.68,2.16A25.68,25.68,0,0,0,42,47.52c-.48.64-1,1.36-1.52,2a4.86,4.86,0,0,0-1.2,1.92,12.1,12.1,0,0,1-2.16,3.12c-.64,1-1.52,1.68-2.08,2.64-.48.8-1,1.6-1.52,2.4-.72.88-1.44,1.76-2.24,2.64a3.38,3.38,0,0,1-3.44.56l-.4-.4a2.46,2.46,0,0,0-.64-.64,2.25,2.25,0,0,1-1-1.92A7,7,0,0,1,25.91,57,48.43,48.43,0,0,1,27.11,51c.24-.88.56-1.68.8-2.56l4.32-13.84c.24,0,.48-.24.64-.4s.4-.24.64.08c.16.16.4-.08.64-.08.64-.08.72,0,.64.64,0,.32.24.4.48.4a.79.79,0,0,1,.64.48,4.39,4.39,0,0,0,1.2,1.52,1.51,1.51,0,0,1,.72,1.6c-.24,1.6-.32,3.2-.72,4.8v.24a3.22,3.22,0,0,0,1-1.28,28.37,28.37,0,0,1,4.16-5.12,9.72,9.72,0,0,0,1.2-1.36A11.73,11.73,0,0,1,45,34.88a3.7,3.7,0,0,1,2.4-.72l1.92-.24a3.59,3.59,0,0,1,2.56.4,4.81,4.81,0,0,1,2,1.6,4.51,4.51,0,0,1,.32,1A22.66,22.66,0,0,1,53.67,43c-.4,1.84-.72,3.6-1,5.44-.08,1-.4,1.84-.56,2.8,0,.16-.16.8-.24,1.44a2,2,0,0,0,.56-.16,7,7,0,0,0,1.52-.8c1.12-.8,2.16-1.76,3.28-2.56,1.52-1,2.56-2.48,3.92-3.6.88-.8,1.84-1.44,2.72-2.24.16-.08.32-.32.48-.48.56-.64.88-.64,1.44-.08Z"/><path class="a" d="M70.79,39.36a10,10,0,0,1,3.28-3,.28.28,0,0,1,.16-.08c.88-.24,1.76-.72,2.64-1a2,2,0,0,1,1,.08,6.45,6.45,0,0,1,1.76.56,6.14,6.14,0,0,1,.88.64,11.43,11.43,0,0,1,1.2.88,1.63,1.63,0,0,1,.48.56l.48,1.2a1.61,1.61,0,0,1,.24.88,4.06,4.06,0,0,0,.24,1.36v2.24c-.08,1-.24,2-.4,3a.6.6,0,0,1-.08.4,5.55,5.55,0,0,0-.4,2.24,14,14,0,0,1-1.36,4.64c-.48,1-1,1.92-1.36,3a3.47,3.47,0,0,1-.32.56c-.24.4-.32.8-.56,1.2a24.28,24.28,0,0,1-2.32,3.52c-.16.08-.24.32-.48.24s-.24.16-.4.32a7.63,7.63,0,0,1-1.28,1c-.08.08-.16.16-.24.16-.8-.08-1.28.48-1.92.8-.08-.64-.64-.56-1-.72a4.52,4.52,0,0,0-1-.32A3.14,3.14,0,0,1,68.87,63a3.2,3.2,0,0,0-1-.8A2.34,2.34,0,0,1,67,60.48a3.46,3.46,0,0,1,.32-2.32,1.19,1.19,0,0,1,1.12-.64.28.28,0,0,0,.16.08c.24.08.16.4.32.48s.32.08.32.32l.24.72a1.48,1.48,0,0,0,.56.64,11.18,11.18,0,0,1,1.28.8,14.79,14.79,0,0,0,1.52-3c.48-1,1-2,1.36-3a34.73,34.73,0,0,0,1.44-5.68c.24-1.36.48-2.8.64-4.16A15,15,0,0,0,76.63,42a6.82,6.82,0,0,0,0-1.28,1.7,1.7,0,0,0-.56-1.2c-.32-.32-.56-.32-.88.08a13.81,13.81,0,0,0-1,1.12c-.64,1-1.36,1.92-2.08,2.8a27.32,27.32,0,0,0-2.08,3.2c-.64,1-1.28,2-1.92,3-.4.56-.72,1.2-1.12,1.76A5.76,5.76,0,0,0,66.15,53a1.88,1.88,0,0,0-.16.64c-.16.48-.32.88-.48,1.36a12.43,12.43,0,0,0-.64,1.84l-.72,2.64c-.24,1-.56,2.08-.88,3.12-.32.88-.56,1.76-1,2.64a25.1,25.1,0,0,0-1.2,3.12,11.49,11.49,0,0,1-.88,2.32,8.88,8.88,0,0,1-.56,1.28,10.87,10.87,0,0,0-.8,1.68,56,56,0,0,0-2.16,5.76,2.79,2.79,0,0,1-.56,1.2.6.6,0,0,0-.16.32l-1,2.88c-.08.24-.08.4-.24.56a1.79,1.79,0,0,0-.64,1.2c-.08.48-.16.48-.72,1-.08,0-.08.08-.08.16-.16.32-.32.16-.48.08-.24-.32-.56-.48-.64-.88a.85.85,0,0,0-.64-.72c-.24.08-.08.32-.24.48l-.08-.08a5.69,5.69,0,0,1-.32-1.68,1.62,1.62,0,0,0-.32-1.12,5,5,0,0,1-.8-2.4c0-.16,0-.32.24-.32a.28.28,0,0,0,.08-.16.73.73,0,0,1,.16-.88c.16-.08.24-.08.08-.16s-.16-.24,0-.48a2,2,0,0,0,.08-.72,12.8,12.8,0,0,1,.8-2.48c1.28-3.36,2.24-6.72,3.36-10.16.56-1.92,1.2-3.84,1.76-5.76.48-1.68,1-3.44,1.44-5.2s1.12-3.44,1.76-5.12c.16-.64.4-1.28.56-1.92a22.25,22.25,0,0,1,1-3.28c.64-1.68,1.12-3.28,1.68-5,.24-.88.56-1.68.8-2.48a4.06,4.06,0,0,0,.32-1.92,2.72,2.72,0,0,1,.08-.8c.08-.48.64-1.28,1-1.2a6.87,6.87,0,0,1,1.28-.08,3.86,3.86,0,0,1,1.44.56,1.3,1.3,0,0,0,.56.32,5.89,5.89,0,0,1,1,1,3.9,3.9,0,0,1,1,3.84,24.12,24.12,0,0,0-.64,2.56c0,.08-.08.16,0,.24Z"/><path class="a" d="M88.87,63.6a3,3,0,0,0-.8-.48,3.46,3.46,0,0,1-.8-.72A8.2,8.2,0,0,1,85.59,59a14,14,0,0,1-1-4.88,21.37,21.37,0,0,0-.08-3.2c0-1.2.08-2.4.16-3.52.24-1.68.4-3.36.72-5s.56-3.12,1-4.72c.24-.64.4-1.28.64-2,.24-.88.56-1.6.8-2.4.56-1.84,1.2-3.68,1.92-5.44.88-2,1.76-4.08,2.8-6,.88-1.6,1.84-3.2,2.88-4.72a30,30,0,0,0,1.92-2.88A27.63,27.63,0,0,1,99.11,12c.56-.72,1.2-1.36,1.68-2,.24-.48.56-.88,1-.88.16,0,.32-.16.48-.24a3.69,3.69,0,0,1,2.16-.72,2.24,2.24,0,0,1,1.92.8,5.58,5.58,0,0,1,.64.8,4.88,4.88,0,0,1,.64,3.84c-.32,1.28-.56,2.64-1,3.84s-.8,2.08-1.2,3.12a8.68,8.68,0,0,0-.64,1.52,15.32,15.32,0,0,1-1.84,3.6,6.39,6.39,0,0,0-.64,1.28c-.08.24-.16.48-.48.48s-.4.24-.48.48a5.75,5.75,0,0,1-1,2.24c-.4.8-.8,1.68-1.12,2.48A24,24,0,0,1,98,35.52c-.48.88-1,1.68-1.36,2.56-.64,1.2-1.28,2.48-2,3.76-.24.4-.48.88-.64,1.2a37.73,37.73,0,0,1-2.64,4.24,1.41,1.41,0,0,1-.32.4,3.67,3.67,0,0,0-1.2,2,20.92,20.92,0,0,0-.4,3.84,8.65,8.65,0,0,0,0,1.44,12.22,12.22,0,0,0,1.52,4.64,1.59,1.59,0,0,0,1.12.88c.08-.08.16,0,.24,0a1.84,1.84,0,0,0,2.08-.4,4.77,4.77,0,0,0,1.2-.72A8,8,0,0,0,97,57.92c.8-1,1.44-2,2.16-3a14.92,14.92,0,0,0,1.36-2.48,3.44,3.44,0,0,1,.72-1,6.05,6.05,0,0,0,.72-1.44,8.05,8.05,0,0,1,1.12-2c.08-.16.16-.24.16-.32a15.65,15.65,0,0,1,1.6-2.4A10.61,10.61,0,0,1,107,43.12c.24-.24.48-.48.64-.24s.16.48.16.88c-.32.8-.72,1.52-1.12,2.32-.64,1.52-1.52,2.88-2,4.4A17.09,17.09,0,0,1,103.19,54v.08a7.43,7.43,0,0,1-1.44,3.12c-.4.56-.8,1.2-1.2,1.68-.24.32-.48.48-.64.72A6.51,6.51,0,0,1,98,62.08c-.64.48-1.2,1-1.92,1.52a6.78,6.78,0,0,1-3,1,10.56,10.56,0,0,1-2.72-.16A3.19,3.19,0,0,1,88.87,63.6Zm10.4-42.48a25,25,0,0,1-2,3.52,8.94,8.94,0,0,0-1.6,3.28,8.38,8.38,0,0,1-1.12,3,1.89,1.89,0,0,0-.48.72,5.2,5.2,0,0,0-.64,2.16,11.92,11.92,0,0,1-.32,1.44,18.2,18.2,0,0,0-.64,1.92c0,.24-.16.4,0,.64a2,2,0,0,0,.64-1c.08-.16.08-.32.16-.4.4-.32.48-.8.72-1.28a1.42,1.42,0,0,1,.32-.8,10.09,10.09,0,0,0,1.28-2.64l.24-.48C97,29.2,97.91,27,99,24.72c.48-1,1-2.08,1.44-3.2a7.22,7.22,0,0,0,.4-.72,4.13,4.13,0,0,0,.48-1,3.87,3.87,0,0,1,.56-1.44c.32-1,.72-1.76,1-2.72-.24-.08-.32.08-.4.16A51.76,51.76,0,0,0,99.27,21.12Z"/><path class="a" d="M141.35,36.72a7.47,7.47,0,0,1-1,2.16,43.37,43.37,0,0,0-2.64,4.64c-.16.4-.64.72-.48,1.28.08.08-.08.32-.24.4-1,1.44-1.92,2.8-3,4.16a34,34,0,0,1-2.16,2.88,9.89,9.89,0,0,1-1.12,1.44,4.86,4.86,0,0,0-.56.8,17,17,0,0,1-2.48,3.76c-.16.16-.32.24-.48.4l-1.44,1a2.5,2.5,0,0,1-1.84.24h-.16a2.22,2.22,0,0,1-.72-.08c-.24,0-.48-.08-.72-.08s-.24,0-.4,0h-.08a3.75,3.75,0,0,1-2.64-1.52L117.59,56c-.32-.4-.48-.4-.88,0a2.44,2.44,0,0,0-.64.64A12.76,12.76,0,0,1,114,58.72a9,9,0,0,1-.88.88,3.4,3.4,0,0,1-1,.88,6,6,0,0,0-1.44,1,1.48,1.48,0,0,1-1.28.4,4.48,4.48,0,0,1-2.88-.24c-.4-.24-.56-.88-1.2-.88a2.7,2.7,0,0,1-1.36-.4,16.61,16.61,0,0,1-2.08-1,4.32,4.32,0,0,1-1.84-2.72,9.63,9.63,0,0,1,0-1.52,12,12,0,0,1,.88-4.08,58.64,58.64,0,0,1,2.32-6.24c1-2.32,1.92-4.56,2.8-6.8.32-.72.72-1.36,1.12-2.08a1.31,1.31,0,0,1,1.28-.56,4.27,4.27,0,0,1,2.32.8c.4.32.72.72,1.2,1,0,.08.08.08.08.16.72,1.44,1.28,2.88.56,4.48-.4,1-.64,1.92-1,2.88-.72,2-1.44,3.92-2.16,5.92a10,10,0,0,0-.56,3.76c0,.24-.08.48.24.56a.73.73,0,0,0,.64-.24c.8-1.12,1.52-2.24,2.32-3.44,1.68-2.4,3.12-5,4.64-7.52a50.88,50.88,0,0,1,4.24-6A15.5,15.5,0,0,0,122.39,36a6.52,6.52,0,0,1,2.48-1.68c.32-.16.56,0,.8.16a2.19,2.19,0,0,0,1.44.64,1.07,1.07,0,0,1,.72.48c.48.72,1,1.52,1.52,2.24a1.55,1.55,0,0,1,.16,1.44,5.33,5.33,0,0,1-.72,1.68,12.73,12.73,0,0,0-1.44,2.72c-.88,1.76-1.44,3.6-2.16,5.36a31.43,31.43,0,0,1-1.84,3.68,3.11,3.11,0,0,0-.24,2.08c0,.08.08.24.16.24A19.28,19.28,0,0,0,125,53.12a31,31,0,0,1,3.2-3.28,40.05,40.05,0,0,0,3-3.28c1.68-1.92,3.52-3.76,5.2-5.68a27.26,27.26,0,0,0,3.12-3.6,5,5,0,0,1,.88-1A1,1,0,0,1,141,36C141.35,36,141.43,36.32,141.35,36.72Z"/><path class="a" d="M158.23,48.4a8.36,8.36,0,0,1,0,2,22.91,22.91,0,0,1-.48,2.48,9.47,9.47,0,0,0-.16,2.16,8.7,8.7,0,0,1-.48,2.88c-.56,2.08-1,4-1.52,6.16-.16.64-.4,1.2-.48,1.76-.32,1.12-.64,2.16-.88,3.28a2.33,2.33,0,0,1-.16.72c-.24,1-.64,2-1,3.12-.16.56-.24,1.12-.4,1.68h-.08l-.24.72c-.72,2.08-1.36,4.24-2.16,6.32-.64,1.6-1.12,3.12-1.76,4.64-.4,1.12-1,2.24-1.44,3.28s-.88,2.16-1.28,3.12a3.73,3.73,0,0,0-.4.8c-.48,1.12-1,2.32-1.52,3.44-.16.4-.48.88-.64,1.28s-.32.72-.48,1a3.78,3.78,0,0,1-.4.8c-.32.4-.56.88-.88,1.28a23.67,23.67,0,0,1-1.6,2.32,13.13,13.13,0,0,0-2.16,2.56c-.32.56-.8,1-1.2,1.6a8.51,8.51,0,0,0-.64.88c-.48.56-1,1.12-1.52,1.68l.16.16c-1,.88-2.08,1.68-3.36,2.64l-1.2,1a8.75,8.75,0,0,1-1.84,1.12,10.25,10.25,0,0,1-1.52,1,3.43,3.43,0,0,1-1.44.4,12.22,12.22,0,0,1-2.32.56,1.76,1.76,0,0,0-.64.08,2,2,0,0,1-.64.08.68.68,0,0,0-.4.24.6.6,0,0,0,.24-.24,6.16,6.16,0,0,1-3.52-1,18,18,0,0,1-2.4-1.92c-.08-.16-.24-.24-.48-.4l-.24-.48a10.58,10.58,0,0,0-.88-1,10,10,0,0,1-1.68-3,3.6,3.6,0,0,1-.24-.88c-.32-1.2-.64-2.32-1-3.6a18.84,18.84,0,0,1-.32-6,35,35,0,0,1,1-5.68,44.09,44.09,0,0,1,2.32-6.16c.88-1.68,1.6-3.52,2.56-5.28.56-1,1.12-1.84,1.6-2.8.72-1.2,1.52-2.24,2.16-3.44A15,15,0,0,1,122,73.84c-.24.88-1,1.28-1.36,2s-.88,1.28-1.28,2.08c.8-.08.8-.8,1.36-1.2,0,.32-.4.56-.24,1,.4-.48.8-.8.56-1.52-.08-.08,0-.24.16-.4a7.53,7.53,0,0,0,.8-1.36c.4-.64,1-1,1.36-1.6-.16.72-.8,1.2-1,2,.56-.48.8-1,1.6-1.52-.24.4-.4.56-.56.88.08.16.16-.08.32,0-.4.64-.72,1.2-1.12,1.84-.24.32-.48.8-.8,1.2a4.07,4.07,0,0,1-.72,1.28.44.44,0,0,0-.24.4v.24c.08.08.16,0,.24-.08a1.07,1.07,0,0,1,.56-.48c.16.08,0,.24.08.4.24.08.08-.4.4-.4a.66.66,0,0,1,.24.64c.24-.08.16-.24.16-.4,0-.32.16-.4.48-.32a.08.08,0,0,1,.08.08c.08.24-.24.32-.16.48s.4-.16.32.24c-.08.16-.08.24.16.32s.08.16,0,.24c-.08.24-.24.32-.24.48-.24.32-.56.48-.32,1,.64-.64,1-1.52,1.52-2.08.16.08,0,.24-.08.32a3.55,3.55,0,0,0-.64,1.6,3.39,3.39,0,0,1-.48,1.12c0,.24-.08.24-.48.08a5.55,5.55,0,0,0-.4,1A36.23,36.23,0,0,1,120.47,87a16.41,16.41,0,0,0-1.76,4c-.16.72-.48,1.44-.64,2.16-.16.88-.4,1.76-.48,2.56-.24,1.52-.32,3-.48,4.48,0,.48-.08,1-.08,1.52V105a14.48,14.48,0,0,0,.4,2.48,1.22,1.22,0,0,0,.32.8,12.31,12.31,0,0,0,1.12,1.68.53.53,0,0,1,.08.48c0,.24.16.48.16.8a1.12,1.12,0,0,0,.24.72c.32.16.72.24,1,.4a4.47,4.47,0,0,0,2.88-.16c.64-.24,1.28-.48,1.84-.72a3.33,3.33,0,0,0,.56-.4c.56-.4,1-.72,1.52-1.12a16.65,16.65,0,0,0,3.68-3.44c.16-.08.24-.24.4-.4a6.73,6.73,0,0,0,.64-1,13.3,13.3,0,0,1,.88-1.12,19.11,19.11,0,0,0,2.16-3.44,42.25,42.25,0,0,0,2.56-5.44c.56-1.36,1.28-2.64,1.84-4.08.8-1.84,1.6-3.76,2.4-5.6,1-2.56,2-5.2,2.88-7.84.4-1.28,1-2.48,1.28-3.76.32-.88.48-1.84.72-2.72.56-1.76,1-3.6,1.52-5.36a29.06,29.06,0,0,0,.8-3.6,76.41,76.41,0,0,0,1.36-8.4,21.26,21.26,0,0,0,.56-3.12v-.8a39.19,39.19,0,0,1,.32-4.32v-.32c-.48.16-.72.64-1,.88-.4.4-.64.8-1,1.2a.69.69,0,0,0-.24.48,1.62,1.62,0,0,1-.64,1.12,32.65,32.65,0,0,0-3.12,3.44c-.56.72-1.28,1.44-1.84,2.24a3.69,3.69,0,0,0-.56.56c-.32.32-.88.48-.88,1-.72.32-.8,1.2-1.6,1.44a1.88,1.88,0,0,1-.64.16,5.8,5.8,0,0,1-1.68.08,1.56,1.56,0,0,1-.56-.08c-.24-.4-.8-.48-1.2-.64a1.83,1.83,0,0,1-.8-.56,4.81,4.81,0,0,0-.8-.56,2.08,2.08,0,0,1-.8-.88,4.91,4.91,0,0,1-.32-.48,3.16,3.16,0,0,1-.8-3.28,8.44,8.44,0,0,1,.48-1.52,6.9,6.9,0,0,0,.16-1.76,6.29,6.29,0,0,1,.64-2.4,40.17,40.17,0,0,1,4-7.84,27.33,27.33,0,0,1,3.92-4.64,28.09,28.09,0,0,1,2.72-2.64,8.67,8.67,0,0,1,2.4-1.28,1.9,1.9,0,0,1,2.24.72,1,1,0,0,0,1,.32,3,3,0,0,1,2.56,1,2.4,2.4,0,0,1,.48.88.62.62,0,0,0,.24.56c.16,0,.16.16.16.32a9.63,9.63,0,0,1,0,1.52,2.54,2.54,0,0,1-2.24,2,1.67,1.67,0,0,1-1-.56,2.33,2.33,0,0,1-1-1.84c-.4,0-.48.24-.64.48a21.1,21.1,0,0,0-1.44,3,28.77,28.77,0,0,1-1.92,3.84,14.42,14.42,0,0,0-.64,1.68c-.56,1-1,1.92-1.6,2.88a9,9,0,0,0-1.28,3c1.2-1.36,2.48-2.4,3.52-3.84a16.49,16.49,0,0,1,2.24-2.48c.64-.64,1.28-1.44,1.92-2.08.24-.32.48-.8,1.12-.72.24.08.56-.16.8-.4a3.22,3.22,0,0,1,.72-.4c.16-.08.4-.16.56,0,.4.24.8.4,1.2.64a2.05,2.05,0,0,0,1,.8,6,6,0,0,1,2.48,2.4,5.24,5.24,0,0,1,.8,4.32Zm-36.72,32a.17.17,0,0,0,.16.16c0-.08.16-.16.16-.24s-.08-.08-.16-.08S121.51,80.24,121.51,80.4Zm.08-4.32.08-.08c0-.08.08-.16,0-.32C121.67,75.84,121.51,75.84,121.59,76.08Zm.8,5.76c0,.16.08.08.08.08s.08-.16.08-.24,0-.08-.08-.08S122.39,81.68,122.39,81.84Zm.24-5c.4-.64.32-1.52,1.28-1.76A10,10,0,0,1,122.63,76.8Zm1.68-5.2a17.67,17.67,0,0,1,1.6-1.84c.16-.16.4-.4.56,0,0,.08.08.08.16.08a.65.65,0,0,0-.4.56c0,.32-.24.56-.56.8-.16.16-.16.56-.56.72-.16,0-.32.32-.56.08s-.32.24-.56.32A1.44,1.44,0,0,1,124.31,71.6ZM124.07,77a.91.91,0,0,1,.48-1A1.14,1.14,0,0,1,124.07,77Zm5.44-11a1,1,0,0,0,.56-.56,1.87,1.87,0,0,1,1-1c.32-.08.56-.32,1-.16.24.08.4.08.32.24a.76.76,0,0,0,0,.72c.16.24-.08.4-.24.64-.08.08-.24.24,0,.32s.32-.08.32-.24c.16-.16.16-.4.48-.56.32.16.16.48.32.72.16-.08.24-.24.48-.4.08.24-.08.64.4.8,0,.16-.08.16-.08.16-.32,0-.16.16-.16.32s.08.32-.08.32c-.32,0-.4.16-.32.4s-.08.16-.16.08c-.32-.08-.72.24-.8-.32a.4.4,0,0,0-.24.08,1.74,1.74,0,0,1-.4.32.18.18,0,0,1-.32.08c0-.08-.08-.08-.16-.16s-.24.4-.4.16.08-.32.16-.48,0-.32-.08-.56c-.16.08-.4.16-.48.32-.16.48-.48.48-.88.56,0-.24.16-.32.32-.4a1.43,1.43,0,0,0,.4-.56c.08-.08.16-.24.08-.32-.16-.4-.24-.4-.16-.72-.4.08-.56.56-.88.8C129.19,66.4,129.35,66.24,129.51,66.08Z"/><path class="a" d="M185.51,48.4a8.36,8.36,0,0,1,0,2,22.91,22.91,0,0,1-.48,2.48,9.47,9.47,0,0,0-.16,2.16,8.7,8.7,0,0,1-.48,2.88c-.56,2.08-1,4-1.52,6.16-.16.64-.4,1.2-.48,1.76-.32,1.12-.64,2.16-.88,3.28a2.33,2.33,0,0,1-.16.72c-.24,1-.64,2-1,3.12-.16.56-.24,1.12-.4,1.68h-.08l-.24.72c-.72,2.08-1.36,4.24-2.16,6.32-.64,1.6-1.12,3.12-1.76,4.64-.4,1.12-1,2.24-1.44,3.28s-.88,2.16-1.28,3.12a3.73,3.73,0,0,0-.4.8c-.48,1.12-1,2.32-1.52,3.44-.16.4-.48.88-.64,1.28s-.32.72-.48,1a3.78,3.78,0,0,1-.4.8c-.32.4-.56.88-.88,1.28a23.67,23.67,0,0,1-1.6,2.32,13.13,13.13,0,0,0-2.16,2.56c-.32.56-.8,1-1.2,1.6a8.51,8.51,0,0,0-.64.88c-.48.56-1,1.12-1.52,1.68l.16.16c-1,.88-2.08,1.68-3.36,2.64l-1.2,1a8.75,8.75,0,0,1-1.84,1.12,10.25,10.25,0,0,1-1.52,1,3.43,3.43,0,0,1-1.44.4,12.22,12.22,0,0,1-2.32.56,1.76,1.76,0,0,0-.64.08,2,2,0,0,1-.64.08.68.68,0,0,0-.4.24.6.6,0,0,0,.24-.24,6.16,6.16,0,0,1-3.52-1,18,18,0,0,1-2.4-1.92c-.08-.16-.24-.24-.48-.4l-.24-.48a10.58,10.58,0,0,0-.88-1,10,10,0,0,1-1.68-3,3.6,3.6,0,0,1-.24-.88c-.32-1.2-.64-2.32-1-3.6a18.84,18.84,0,0,1-.32-6,35,35,0,0,1,1-5.68,44.09,44.09,0,0,1,2.32-6.16c.88-1.68,1.6-3.52,2.56-5.28.56-1,1.12-1.84,1.6-2.8.72-1.2,1.52-2.24,2.16-3.44a15,15,0,0,1,1.84-2.08c-.24.88-1,1.28-1.36,2s-.88,1.28-1.28,2.08c.8-.08.8-.8,1.36-1.2,0,.32-.4.56-.24,1,.4-.48.8-.8.56-1.52-.08-.08,0-.24.16-.4a7.53,7.53,0,0,0,.8-1.36c.4-.64,1-1,1.36-1.6-.16.72-.8,1.2-1,2,.56-.48.8-1,1.6-1.52-.24.4-.4.56-.56.88.08.16.16-.08.32,0-.4.64-.72,1.2-1.12,1.84-.24.32-.48.8-.8,1.2a4.07,4.07,0,0,1-.72,1.28.44.44,0,0,0-.24.4v.24c.08.08.16,0,.24-.08a1.07,1.07,0,0,1,.56-.48c.16.08,0,.24.08.4.24.08.08-.4.4-.4a.66.66,0,0,1,.24.64c.24-.08.16-.24.16-.4,0-.32.16-.4.48-.32a.08.08,0,0,1,.08.08c.08.24-.24.32-.16.48s.4-.16.32.24c-.08.16-.08.24.16.32s.08.16,0,.24c-.08.24-.24.32-.24.48-.24.32-.56.48-.32,1,.64-.64,1-1.52,1.52-2.08.16.08,0,.24-.08.32a3.55,3.55,0,0,0-.64,1.6,3.39,3.39,0,0,1-.48,1.12c0,.24-.08.24-.48.08a5.55,5.55,0,0,0-.4,1A36.23,36.23,0,0,1,147.75,87,16.41,16.41,0,0,0,146,91c-.16.72-.48,1.44-.64,2.16-.16.88-.4,1.76-.48,2.56-.24,1.52-.32,3-.48,4.48,0,.48-.08,1-.08,1.52V105a14.48,14.48,0,0,0,.4,2.48,1.22,1.22,0,0,0,.32.8,12.31,12.31,0,0,0,1.12,1.68.53.53,0,0,1,.08.48c0,.24.16.48.16.8a1.12,1.12,0,0,0,.24.72c.32.16.72.24,1,.4a4.47,4.47,0,0,0,2.88-.16c.64-.24,1.28-.48,1.84-.72a3.33,3.33,0,0,0,.56-.4c.56-.4,1-.72,1.52-1.12a16.65,16.65,0,0,0,3.68-3.44c.16-.08.24-.24.4-.4a6.73,6.73,0,0,0,.64-1,13.3,13.3,0,0,1,.88-1.12,19.11,19.11,0,0,0,2.16-3.44,42.25,42.25,0,0,0,2.56-5.44c.56-1.36,1.28-2.64,1.84-4.08.8-1.84,1.6-3.76,2.4-5.6,1-2.56,2-5.2,2.88-7.84.4-1.28,1-2.48,1.28-3.76.32-.88.48-1.84.72-2.72.56-1.76,1-3.6,1.52-5.36a29.06,29.06,0,0,0,.8-3.6,76.41,76.41,0,0,0,1.36-8.4,21.26,21.26,0,0,0,.56-3.12v-.8a39.19,39.19,0,0,1,.32-4.32v-.32c-.48.16-.72.64-1,.88-.4.4-.64.8-1,1.2a.69.69,0,0,0-.24.48,1.62,1.62,0,0,1-.64,1.12,32.65,32.65,0,0,0-3.12,3.44c-.56.72-1.28,1.44-1.84,2.24a3.69,3.69,0,0,0-.56.56c-.32.32-.88.48-.88,1-.72.32-.8,1.2-1.6,1.44a1.88,1.88,0,0,1-.64.16,5.8,5.8,0,0,1-1.68.08,1.56,1.56,0,0,1-.56-.08c-.24-.4-.8-.48-1.2-.64a1.83,1.83,0,0,1-.8-.56,4.81,4.81,0,0,0-.8-.56,2.08,2.08,0,0,1-.8-.88,4.91,4.91,0,0,1-.32-.48,3.16,3.16,0,0,1-.8-3.28,8.44,8.44,0,0,1,.48-1.52,6.9,6.9,0,0,0,.16-1.76,6.29,6.29,0,0,1,.64-2.4,40.17,40.17,0,0,1,4-7.84,27.33,27.33,0,0,1,3.92-4.64,28.09,28.09,0,0,1,2.72-2.64,8.67,8.67,0,0,1,2.4-1.28,1.9,1.9,0,0,1,2.24.72,1,1,0,0,0,1,.32,3,3,0,0,1,2.56,1,2.4,2.4,0,0,1,.48.88.62.62,0,0,0,.24.56c.16,0,.16.16.16.32a9.63,9.63,0,0,1,0,1.52,2.54,2.54,0,0,1-2.24,2,1.67,1.67,0,0,1-1-.56,2.33,2.33,0,0,1-1-1.84c-.4,0-.48.24-.64.48a21.1,21.1,0,0,0-1.44,3,28.77,28.77,0,0,1-1.92,3.84,14.42,14.42,0,0,0-.64,1.68c-.56,1-1,1.92-1.6,2.88a9,9,0,0,0-1.28,3c1.2-1.36,2.48-2.4,3.52-3.84a16.49,16.49,0,0,1,2.24-2.48c.64-.64,1.28-1.44,1.92-2.08.24-.32.48-.8,1.12-.72.24.08.56-.16.8-.4a3.22,3.22,0,0,1,.72-.4c.16-.08.4-.16.56,0,.4.24.8.4,1.2.64a2.05,2.05,0,0,0,1,.8,6,6,0,0,1,2.48,2.4,5.24,5.24,0,0,1,.8,4.32Zm-36.72,32a.17.17,0,0,0,.16.16c0-.08.16-.16.16-.24s-.08-.08-.16-.08S148.79,80.24,148.79,80.4Zm.08-4.32.08-.08c0-.08.08-.16,0-.32C148.95,75.84,148.79,75.84,148.87,76.08Zm.8,5.76c0,.16.08.08.08.08s.08-.16.08-.24,0-.08-.08-.08S149.67,81.68,149.67,81.84Zm.24-5c.4-.64.32-1.52,1.28-1.76A10,10,0,0,1,149.91,76.8Zm1.68-5.2a17.67,17.67,0,0,1,1.6-1.84c.16-.16.4-.4.56,0,0,.08.08.08.16.08a.65.65,0,0,0-.4.56c0,.32-.24.56-.56.8-.16.16-.16.56-.56.72-.16,0-.32.32-.56.08s-.32.24-.56.32A1.44,1.44,0,0,1,151.59,71.6ZM151.35,77a.91.91,0,0,1,.48-1A1.14,1.14,0,0,1,151.35,77Zm5.44-11a1,1,0,0,0,.56-.56,1.87,1.87,0,0,1,1-1c.32-.08.56-.32,1-.16.24.08.4.08.32.24a.76.76,0,0,0,0,.72c.16.24-.08.4-.24.64-.08.08-.24.24,0,.32s.32-.08.32-.24c.16-.16.16-.4.48-.56.32.16.16.48.32.72.16-.08.24-.24.48-.4.08.24-.08.64.4.8,0,.16-.08.16-.08.16-.32,0-.16.16-.16.32s.08.32-.08.32c-.32,0-.4.16-.32.4s-.08.16-.16.08c-.32-.08-.72.24-.8-.32a.4.4,0,0,0-.24.08,1.74,1.74,0,0,1-.4.32.18.18,0,0,1-.32.08c0-.08-.08-.08-.16-.16s-.24.4-.4.16.08-.32.16-.48,0-.32-.08-.56c-.16.08-.4.16-.48.32-.16.48-.48.48-.88.56,0-.24.16-.32.32-.4a1.43,1.43,0,0,0,.4-.56c.08-.08.16-.24.08-.32-.16-.4-.24-.4-.16-.72-.4.08-.56.56-.88.8C156.47,66.4,156.63,66.24,156.79,66.08Z"/><path class="a" d="M211.27,48.08a6.36,6.36,0,0,0-.56,1.6c-.16.48-.4.88-.56,1.28a11.83,11.83,0,0,1-.64,1c-.16.4-.48.8-.64,1.28a18.92,18.92,0,0,0-.88,1.84,3.5,3.5,0,0,1-.32.56c-.8,1.12-1.68,2.24-2.48,3.44a17.25,17.25,0,0,0-1,1.76,36,36,0,0,1-3,4.08,3.8,3.8,0,0,1-2.24,1.6c-.4.08-.64.4-1,.64a2.31,2.31,0,0,1-1.44.56c-.32-.08-.64-.08-1-.16a3.33,3.33,0,0,0-1.28-.16c-1.76.24-4-2.08-5.2-3.2a7.22,7.22,0,0,1-2-4.48,19.37,19.37,0,0,1,.32-6.8,57.41,57.41,0,0,1,3.84-11,52.55,52.55,0,0,1,4.24-7.44,19.21,19.21,0,0,1,3.6-4c.4-.32.72-.72,1.12-1a11.16,11.16,0,0,1,3-2,1.23,1.23,0,0,1,.88-.16,8.71,8.71,0,0,1,2.88.48,3.85,3.85,0,0,1,1.6,1.2,15.18,15.18,0,0,0,1,1.44,3.72,3.72,0,0,1,.48,1.6,15.52,15.52,0,0,0,.16,1.92,1.38,1.38,0,0,1-.16,1c-.16.48-.24,1-.4,1.44a.61.61,0,0,1-.16.32c-.8,1.28-1.44,2.56-2.16,3.92,0,.08-.08.16-.16.32A5.52,5.52,0,0,0,206,42.72c-.08.4-.48.72-.72,1-.88,1-1.6,2.16-2.48,3.2-1,1.12-2,2.32-3.12,3.36a9.51,9.51,0,0,1-1.84,1.28,20.81,20.81,0,0,0-2.64,2c-.16.08-.16.16-.32.16-1,.08-1.28.4-1.36,1.28a16.59,16.59,0,0,0-.24,3.44,15.41,15.41,0,0,1,.08,1.92,3.21,3.21,0,0,0,.24,1.2v.08a4.48,4.48,0,0,1,.48.64c.08.08.16.16.16.24a.28.28,0,0,1,.16.08v.08a.86.86,0,0,0,1.2.08,16.8,16.8,0,0,0,4.56-3.36c.56-.56,1-1.12,1.52-1.68.72-.88,1.44-1.68,2.16-2.48A19.59,19.59,0,0,0,205.91,53c1-1.2,1.92-2.4,2.88-3.68a12.25,12.25,0,0,0,1.12-1.68,1,1,0,0,1,.88-.48C211.27,47.12,211.51,47.52,211.27,48.08Zm-14.48-3.2a33.92,33.92,0,0,0,2.4-2.4A25.44,25.44,0,0,0,203,36.64c.4-1,.88-1.76,1.2-2.72a5.64,5.64,0,0,0,.48-1.92c-.08,0-.24-.08-.24,0A11,11,0,0,0,203,33.28c-.64.72-1,1.6-1.6,2.32s-1,1.6-1.68,2.4a4.55,4.55,0,0,0-.88,1.76,6,6,0,0,1-.4,1.28c-.24.56-.56,1-.8,1.6A13.06,13.06,0,0,1,196.79,44.88Z"/><path class="a" d="M231.19,52.32v.32a14.56,14.56,0,0,0-.08,2.64,4.85,4.85,0,0,0,.48,1.52c.4-.4.72-.8,1.12-1.2a29.93,29.93,0,0,0,2.56-2.88c.88-1.2,1.84-2.4,2.8-3.52s1.84-2,2.64-3.12c.72-.88,1.52-1.68,2.32-2.56a4.12,4.12,0,0,1,2-1.28c.16,0,.24-.08.4-.24s.24-.24.4-.32a4.57,4.57,0,0,1,1-.64,1.12,1.12,0,0,1,.88,0c.32.08.4.72.08,1.12a3.11,3.11,0,0,1-.64.8,5.1,5.1,0,0,0-.64.72c-.08.08-.08.16-.16.32s-.08.24-.24.4A6,6,0,0,0,245,45.76a1,1,0,0,1-.4.4,16.09,16.09,0,0,0-1,1.44c-.08.08-.24.08-.32.16a.28.28,0,0,1-.16.08c-.64.8-1.28,1.6-2,2.4a5.33,5.33,0,0,0-.72,1.12c-.08.08-.16.16-.16.24v.16a1.39,1.39,0,0,1-.24.56,9.74,9.74,0,0,0-.8,1.12c-.32.4-.64.88-1,1.28a9.41,9.41,0,0,0-.88,1,.6.6,0,0,0,.32-.08,3.53,3.53,0,0,1-.56,1l-.4.4c-.08.16-.16.24-.16.32a.59.59,0,0,1-.48.48l-.08.08a19.18,19.18,0,0,1-2.72,1.68c-.08,0-.16.08-.24.16-.24.24-.32.4-.64.48-.16.08-.24.08-.4.16a6.25,6.25,0,0,1-1.68.32.29.29,0,0,1-.32-.32c.16-.16.24-.16.24-.16h.16l-.08.16h.08l-.08.08h-.16c-.16,0-.32.08-.48.08a.6.6,0,0,1-.56-.32H229a.89.89,0,0,1-.8-.24,11.51,11.51,0,0,1-1.36-1.44c-.16-.16-.24-.32-.4-.4-.32-.16-.4-.48-.56-.72a7.54,7.54,0,0,1-.72-1.68,7,7,0,0,1-.48-2.64,19.6,19.6,0,0,1-.16-2.16,16.83,16.83,0,0,1,.16-2V48.8a.08.08,0,0,0,.16,0c0,.08,0,.16-.08.16-.4.64-.8,1.28-1.28,1.92s-.88,1.12-1.28,1.76-1,1.2-1.44,1.92a5.86,5.86,0,0,1-1.12,1.28,2,2,0,0,0-.32.56c0,.08-.08.16-.16.24-.56.72-1.2,1.28-1.76,1.92a10.45,10.45,0,0,0-1,.88.25.25,0,0,1-.16.08l-.08.08c-.64.32-1.2.8-1.84,1.2-.08.08-.16.08-.32.08a2.72,2.72,0,0,0-.8.08c-.32.08-.64.08-1,.16a3,3,0,0,1-1.12-.32c-.4-.08-.64-.4-1-.56a4.51,4.51,0,0,0-.56-.32,3.18,3.18,0,0,1-1.28-1.44,9.19,9.19,0,0,1-1-2,4.79,4.79,0,0,1-.48-2.4,15.4,15.4,0,0,0-.08-1.92V50.4a13.11,13.11,0,0,1,.16-1.84,8.36,8.36,0,0,1,1.2-3.6,2,2,0,0,0,.16-1,3.05,3.05,0,0,1,.64-1.36,23.26,23.26,0,0,0,1.36-2.4,6.52,6.52,0,0,1,.88-1.36l1.6-1.84a5.41,5.41,0,0,1,1-1c.56-.4,1.12-.88,1.68-1.28a10.66,10.66,0,0,1,1.84-1,.61.61,0,0,0,.4-.16,4,4,0,0,1,1.68-1,6.74,6.74,0,0,1,1.12-.48,3.66,3.66,0,0,1,1.6-.08,6.36,6.36,0,0,1,1.2.24,2.43,2.43,0,0,1,1,.72l.48.48a.81.81,0,0,0,.56.32c.32.08.4.4.48.64s.08.24.24.32c.16.24.32.4.4.56a.48.48,0,0,0,.08-.32c0-.24.08-.4.08-.56.24-.8.4-1.6.64-2.4a19.69,19.69,0,0,1,.56-2.32c.32-1,.64-2.08.88-3a18.92,18.92,0,0,1,.56-2,17.39,17.39,0,0,1,.56-1.92c.24-1,.56-1.84.8-2.8.24-.64.56-1.28.8-1.92s.56-1.44.88-2.16c.4-.88.72-1.68,1.12-2.48.24-.56.48-1.12.72-1.76.16-.4.4-.88.64-1.36.56-1,1.12-2,1.6-3a7.59,7.59,0,0,1,.8-1.36c0-.08.08-.16.08-.24a7.94,7.94,0,0,1,2.08-3c.08-.08.24-.24.24-.32a1,1,0,0,1,.24-.72,2.12,2.12,0,0,1,.4-.48c0-.08.08-.16.16-.24a8.18,8.18,0,0,1,.4-.88c.16.64.08.72.08.64.16-.08.48.08.64.24h.08a3.51,3.51,0,0,1,1.44-.72c.08,0,.16-.08.16,0a8.64,8.64,0,0,1,1.44,0,2,2,0,0,1,.88.32c.08.08.16.08.24.16a.29.29,0,0,0,.24.08c.08,0,.56.16.16.48.16.08.16.16.24.32s.08.16.08.24v.16a2.39,2.39,0,0,0,.32.64,1.22,1.22,0,0,1,.32.48,10.31,10.31,0,0,1,.64,2.24,1.72,1.72,0,0,1,0,.64c-.08.56-.08,1-.16,1.6-.24,1.12-.48,2.24-.64,3.44a6.66,6.66,0,0,1-.32,1.2.6.6,0,0,1-.16.32,3.35,3.35,0,0,0-.72,1.52c-.16.4-.4.8-.56,1.28a51.69,51.69,0,0,1-1.92,4.88,24.86,24.86,0,0,1-1.12,2.56c-.48.88-1,1.76-1.52,2.64-.32.56-.64,1.12-1,1.76-.4.8-.88,1.52-1.36,2.32a20.83,20.83,0,0,1-1.36,2.24c-.32.48-.64.8-.88,1.2s-.64,1-1,1.36c-.4.56-.8,1.28-1.28,1.84a3.25,3.25,0,0,0-.64,1.52c-.08.56-.16,1.2-.24,1.84s-.32,1.44-.56,2.24a6.94,6.94,0,0,0-.24,1.36c-.16,1-.4,2.16-.56,3.2a8.72,8.72,0,0,1-.24,1.52,19.21,19.21,0,0,0-.24,2.24c-.08.64,0,1.28-.08,1.92A.29.29,0,0,1,231.19,52.32Zm-6.56-10.16a14.77,14.77,0,0,1-.08-1.84,8.05,8.05,0,0,0-.24-2,7,7,0,0,0-.72-1.6c0-.08-.08-.08-.16-.08-.24.08-.56.24-.8.16h-.24v.08h-.16A5.59,5.59,0,0,0,220.95,38a3.48,3.48,0,0,1-.56.32.25.25,0,0,1-.08.16c-.08.24-.32.48-.48.8-.48.64-1,1.2-1.36,1.84a7.94,7.94,0,0,1-.88,1.36,4.49,4.49,0,0,0-.64,1,3.73,3.73,0,0,0-.4.8,13.16,13.16,0,0,0-.64,1.6,12.37,12.37,0,0,0-.56,1.84c-.24,1.2-.64,2.48-1,3.68,0,.16-.08.32-.08.56a6.41,6.41,0,0,0-.48,2.4,9.05,9.05,0,0,0,.08,2.56c.08.16.08.16.16.08.24-.16.64-.32.88-.16V57a.08.08,0,0,0,.08-.08l.08-.08a5.94,5.94,0,0,1,1-1c.56-.56,1-1.12,1.6-1.76l1.92-2.4a33.77,33.77,0,0,0,3-3.68,17,17,0,0,0,1.28-2,7.3,7.3,0,0,1,1-1.68h0c-.08-.32-.16-.72-.24-1S224.63,42.48,224.63,42.16Zm10.56-12.88c.64-1,1.2-2.16,1.84-3.2.32-.64.8-1.36,1.12-2,.64-1.2,1.2-2.32,1.84-3.52.56-1,1-2.24,1.52-3.36.4-.8.72-1.6,1-2.4.32-1.12.8-2.08,1.12-3.2a.48.48,0,0,0,.08-.32.59.59,0,0,1,.16-.48,4.19,4.19,0,0,0,.48-1.28,8.57,8.57,0,0,0,0-2.48,8,8,0,0,0-.32-2s.16,0,.08.08a16.85,16.85,0,0,0-1,1.6,4.3,4.3,0,0,0-.56,1,6.5,6.5,0,0,1-.56,1c0,.08-.08.08-.08.16s0,.32,0,.4a.61.61,0,0,0-.16.32,2.91,2.91,0,0,0-.56,1.36,1.51,1.51,0,0,1-.16.64,7.18,7.18,0,0,0-.64,1,19.09,19.09,0,0,0-1,3,4.59,4.59,0,0,1-.32,1.12c-.24.56-.56,1-.8,1.52a3.81,3.81,0,0,0-.64,1.44c-.24.88-.56,1.6-.8,2.4a9.35,9.35,0,0,1-.4,1.6c-.16.4-.24.8-.4,1.12a12.44,12.44,0,0,0-.64,1.84c-.16.64-.32,1.2-.48,1.92-.08.32-.16.72-.24,1.12C234.95,29.68,235,29.44,235.19,29.28Z"/></svg>