<?xml version="1.0" encoding="utf-8"?>
<svg version="1.2" baseProfile="tiny" id="Layer_1" xmlns="http://www.w3.org/2000/svg" xmlns:xlink="http://www.w3.org/1999/xlink"
	 x="0px" y="0px" viewBox="-319.999 80.5 39.997 40" xml:space="preserve">
<path d="M-298.633,95.685h1.826c0.077,0,0.14,0.073,0.149,0.153h1.332v-0.306c0-0.122-0.102-0.224-0.227-0.224h-4.39
	c-0.125,0-0.227,0.102-0.227,0.224v0.306h1.386c0.013-0.08,0.075-0.153,0.15-0.153H-298.633z M-304.114,98.115l-0.654,1.494
	c-0.041,0.099,0.036,0.183,0.18,0.183h9.104c0.14,0,0.213-0.084,0.153-0.183l-0.868-1.494c-0.039-0.069-0.161-0.125-0.281-0.125
	h-7.37C-303.971,97.99-304.084,98.046-304.114,98.115z M-304.557,100.579h9.015l0.249-0.458h-9.511L-304.557,100.579z
	 M-304.702,86.231h9.409v8.401h-9.409C-304.703,94.632-304.703,86.231-304.702,86.231z M-300.169,96.454
	c0,0.129,0.103,0.229,0.228,0.229h4.39c0.125,0,0.227-0.1,0.227-0.229v-0.299h-1.332c-0.01,0.075-0.073,0.149-0.149,0.149h-1.826
	c-0.075,0-0.137-0.075-0.15-0.149h-1.386v0.299H-300.169z M-300,80.5c-11.041,0-19.999,8.957-19.999,19.999
	c0,11.048,8.957,20.001,19.999,20.001c11.048,0,19.999-8.954,19.999-20.001C-280.001,89.458-288.952,80.5-300,80.5z
	 M-293.946,98.169l-0.955,16.763c0,0.592-0.333,1.107-0.824,1.374c-0.224,0.119-0.479,0.189-0.749,0.189h-7.052
	c-0.866,0-1.562-0.701-1.562-1.56l-0.964-16.765V86.363c0-1.028,0.832-1.856,1.859-1.856h8.391c1.024,0,1.856,0.83,1.856,1.856
	C-293.946,86.363-293.946,98.169-293.946,98.169z"/>
</svg>
