<?xml version="1.0" encoding="utf-8"?>
<!-- Generator: Adobe Illustrator 18.1.1, SVG Export Plug-In . SVG Version: 6.00 Build 0)  -->
<svg version="1.2" baseProfile="tiny" id="Layer_1" xmlns="http://www.w3.org/2000/svg" xmlns:xlink="http://www.w3.org/1999/xlink"
	 x="0px" y="0px" viewBox="-126 293.6 359 206.4" xml:space="preserve">
<g>
	<g>
		<path fill="#2E2A25" d="M-84.3,433.3h13.1c1.4,0,12.3,0.2,14.2-3.3c1.8-3.2-0.8-4.9-3.8-5.1c-7.1-0.6-14.8-0.3-19.8-6.4
			c-1.1-1.3-2-3-2.5-4.7c-0.6-1.8-0.9-3.9-0.8-5.7c0.3-7.9,4.4-14.7,11.8-17.5c8.1-3.1,40.4-2.1,40.4-2.2l-8.8,14
			c-4.9-0.4-17-0.7-21,0c-2.9,0.5-8.6,2.9-6.3,6.8c1.2,2.2,4.4,2.5,6.6,2.7c6.9,0.8,14.3,0.1,18.7,6.7c4.8,7.4,0.6,18.5-6.2,23.1
			c-7.2,4.8-16,5.3-24.3,5.3c-4.2,0-8.4,0-12.6,0c-2.4,0-4.9,0-7.3,0L-84.3,433.3z"/>
		<path fill="#2E2A25" d="M177.9,432.9h13.1c1.4,0,12.3,0.2,14.2-3.3c1.8-3.2-0.8-4.9-3.8-5.1c-7.1-0.6-14.8-0.3-19.8-6.4
			c-1.1-1.3-2-3-2.5-4.7c-0.6-1.8-0.9-3.9-0.8-5.7c0.3-7.9,4.4-14.7,11.8-17.5c8.1-3.1,40.4-2.1,40.4-2.2l-8.8,14
			c-4.9-0.4-17-0.7-21,0c-2.9,0.5-8.6,2.9-6.3,6.8c1.2,2.2,4.4,2.5,6.6,2.7c6.9,0.8,14.3,0.1,18.7,6.7c4.8,7.4,0.6,18.5-6.2,23.1
			c-7.2,4.8-16,5.3-24.3,5.3c-4.2,0-8.4,0-12.6,0c-2.4,0-4.9,0-7.3,0L177.9,432.9z"/>
		<path fill="#2E2A25" d="M3.2,388.8c-5,0.1-11.3,0.3-13.2,0.5c-3.4,0.4-6.8,1.2-9.7,3.1c-2.9,1.9-5.6,4.7-7.5,7.6
			c-1.7,2.6-3.4,5.5-5.1,8.8c-0.1,0.4,0,0.6,0.4,0.7c0.4,0.1,0.7,0,1-0.3c0.8-1,1.7-2,2.7-2.9c0.9-0.9,2.2-1.6,3.8-2.3
			c1.6-0.6,3.7-1.1,6.2-1.4c2.5-0.3,5.8-0.4,9.9-0.3L-21.9,447h17.7l13.5-44.6H19L3.2,388.8z"/>
		<path fill="#2E2A25" d="M165.1,391.8c-1.6-1.1-3.3-1.9-5.3-2.4c-2-0.5-4-0.8-6-0.8l-8.4,0l-21.7-0.1l-10.9,39.1l10.7,19.3l5-16.6
			h10.8L145,447h16.5l-6-18.2c2-1,3.8-2.4,5.4-4.1c1.6-1.7,3.1-3.5,4.3-5.4c1.7-2.6,3-5.4,3.9-8.4c0.9-3,1.3-6,1.3-9.1
			c0-2.2-0.5-4.2-1.5-5.9C167.9,394.3,166.6,392.9,165.1,391.8z M152.7,410c-0.7,1.6-1.6,3.1-2.8,4.4c-0.5,0.5-0.9,1-1.4,1.5
			c-0.4,0.5-1,0.9-1.6,1.3c-0.7,0.4-1.5,0.7-2.4,0.9c-1,0.2-2.2,0.3-3.6,0.3h-8.6l5.8-19.2h10.8c0.7,0,1.4,0.2,2,0.5
			c0.6,0.3,1.1,0.8,1.5,1.3c0.4,0.5,0.7,1.2,1,1.8c0.2,0.7,0.4,1.3,0.4,2C153.6,406.7,153.3,408.4,152.7,410z"/>
	</g>
	<g>
		<polygon fill="#A02424" points="141.1,362.7 80.8,368.4 62.3,300.1 62.3,303.2 62.3,300.1 43.9,368.4 -16.5,362.7 32.4,403.6 
			6.6,443.6 46.3,396 12.8,374.9 53.2,380.7 62.3,340.8 71.4,380.7 110.6,374.9 76.8,397.3 97.2,431.5 62.4,407.1 40.3,428.3 
			59.2,386.6 -15.9,493.5 62.3,425.3 127.1,465.8 92.2,403.6 		"/>
	</g>
	<g>
		<path fill="#A02424" d="M-84.5,386.3l-34.1-0.3c-2.2,0-4,1.7-4.1,3.9l-0.9,52.6c0,2.2,1.7,4,3.9,4.1l22.5,0.3
			C-99.2,433.1-94.4,397-84.5,386.3z M-114.5,437.3c-0.4,0.7-1.9,0.3-2.5-0.2c-0.8-0.6-1.3-1.3-1-1.9c0.3-0.8,1.6-0.5,2.3-0.1
			C-115.2,435.4-114,436.3-114.5,437.3z M-117.9,404.8c0.3-0.8,1.5-0.5,2.2-0.1c0.6,0.4,1.8,1.3,1.3,2.2c-0.4,0.7-1.9,0.3-2.5-0.2
			C-117.6,406.1-118.1,405.4-117.9,404.8z M-115.6,423.1c0.6,0.4,1.8,1.3,1.3,2.2c-0.4,0.7-1.9,0.3-2.5-0.2c-0.8-0.6-1.3-1.3-1-1.9
			C-117.5,422.5-116.3,422.7-115.6,423.1z M-110.5,438.6c-3.5-0.5-6.8-8.2-5.7-9.1c1-0.8,1.7,4,6,5.8c4.1,1.7,7.2-4.5,7.9-4.1
			C-100.7,432-106.1,439.2-110.5,438.6z M-110.2,426.7c-3.5-0.5-6.8-8.2-5.7-9.1c1-0.8,1.7,4,6,5.8c4.1,1.7,7.3-4.6,7.9-4.1
			C-100.4,420.5-105.9,427.4-110.2,426.7z M-101.7,409.1c-0.1,0.6,0.1,1-0.3,1.1c-0.3,0.1-4.4-0.1-7.2,0.5c-2.6,0.5-6.4,3.9-7,3.7
			c-0.2-0.1-0.4-0.1-0.4-0.8c0-0.7,1.7-2.6,4.9-3.9c2.9-1.2,4.6-1.5,4.6-1.7c0.1-0.6-3.7-2.4-6.7-5.7c-2.9-3.2-4.9-7.7-4.8-8.5
			c0.1-0.8,0.5-1.7,0.8-1.6c0.4,0.1,2.3,4.6,5.8,8.9c3.4,4.2,10.4,6.4,10.6,6.6C-101.2,408.1-101.6,408.6-101.7,409.1z"/>
	</g>
</g>
</svg>
