<?xml version="1.0" standalone="no"?>
<!DOCTYPE svg PUBLIC "-//W3C//DTD SVG 20010904//EN"
 "http://www.w3.org/TR/2001/REC-SVG-20010904/DTD/svg10.dtd">
<svg version="1.0" xmlns="http://www.w3.org/2000/svg"
 width="600.000000pt" height="600.000000pt" viewBox="0 0 600.000000 600.000000"
 preserveAspectRatio="xMidYMid meet">
<metadata>
Created by potrace 1.11, written by Peter Selinger 2001-2013
</metadata>
<g transform="translate(0.000000,600.000000) scale(0.100000,-0.100000)"
fill="#000000" stroke="none">
<path d="M2745 5994 c-882 -89 -1628 -505 -2152 -1200 -291 -385 -486 -854
-565 -1359 -19 -121 -22 -181 -23 -450 0 -327 7 -423 51 -665 171 -937 663
-1626 1429 -2000 310 -152 592 -235 989 -292 150 -22 166 -22 1839 -25 l1688
-4 -4 1683 c-3 1668 -3 1684 -25 1834 -104 723 -358 1256 -803 1689 -210 204
-416 346 -694 481 -305 148 -624 240 -1005 290 -119 15 -624 28 -725 18z
m1035 -1777 c227 -51 384 -134 534 -283 120 -121 189 -248 222 -415 15 -74 18
-193 21 -1042 l4 -957 -480 0 -480 0 -3 777 c-3 774 -3 778 -25 836 -50 134
-132 214 -261 259 -80 27 -236 32 -317 9 -166 -47 -279 -162 -331 -336 -16
-55 -18 -126 -21 -803 l-4 -742 -479 0 -480 0 0 1360 0 1361 1013 -4 c897 -3
1020 -5 1087 -20z"/>
</g>
</svg>
