<svg xmlns="http://www.w3.org/2000/svg" xmlns:x="http://www.w3.org/1999/xlink" width="648" viewBox="0 0 1296 684">
  <g id="g" fill="none" stroke="#fff" stroke-opacity=".18">
    <g id="z" stroke-width="2.5">
      <g id="y">
        <circle id="c" r="64" stroke-width="3"/>
        <path id="p" d="m-8 0h16zM0-8v16"/>
      </g>
      <use x:href="#y" x="216"/>
      <use x:href="#y" x="432"/>
      <use x:href="#c" x="648"/>
      <use x:href="#p" x="648" y="-6"/>
      <use x:href="#y" x="864"/>
      <use x:href="#c" x="1080"/>
      <use x:href="#p" x="1080" y="10"/>
      <path d="m11-19h-7.5l15-26 15 26h-7.5v38h-15ZM-11 19h 7.5l-15 26-15-26h 7.5v-38h 15Z"/>
      <circle cx="216" r="32"/>
      <path d="m440.2 27c14-10.4 26.5-18.9 26.5-36.7 0-10.3-8.3-18-18.1-18-6.8 0-15.9 3-16.6 13.9-0.6-10.7-10-14-17.1-14-11 0-18.3 9.9-17.9 18.8 .8 17.6 12 25.5 26.5 36 3 2.2 7.3 5.5 8.3 6.2 1-.7 5.8-4.4 8.4-6.3z"/>
      <circle id="a" cx="864" cy="25" r="12.5"/>
      <use x:href="#a" x="-25" y="-25"/>
      <use x:href="#a" x="25" y="-25"/>
      <use x:href="#a" y="-50"/>
      <rect x="623" y="-40" width="50" height="73" rx="1"/>
      <path d="m627 34.25v8.25l5-4l5 4v-8.25"/>
      <path d="m1058 19c.6 4.6 1.5 10.1 5.1 13.1 2.5 2.1 7.2 3.2 11.1 3.7 6.2 .9 12.9 .2 15.2-.4 3.1-.9 6.6-4 8.9-6.7 2.2-2.5 4-7.6 6.2-11.7 2.7-5 3-4.8 7.9-10.7 .7-.9 2.8-4.6 2.3-7.3-.5-3.1-2.5-3.6-5.1-2.4-2.8 1.4-5.1 4.6-6.9 7.8-1.2 2-2.9 4.7-4.7 5.4-2.1 .8-3.9 .3-4.5-1.2-.5-1.4-.7-2.9-1-4.5-.5-2.9-1-5.3-1.2-7.9-.3-5.7-.4-9.9-.4-13.7-.1-4.7-.2-8.8-.6-12.2-.5-4.2-1.4-9.61-4.7-8.98-3.2 .61-2.3 7.18-2 10.88 .4 4.1 0 10.9 .1 16.1 0 .6-.1 1.7-.2 2.4-.1 .8-.3 1.7-.6 2.4-.8 1.6-.6 2.2-1.5-1-.1-.5-.4-1.9-.5-2.6-.4-2.1-.5-3.8-.6-5.6-.1-1.5-.5-6.1-.9-10.9-.5-6-1-9.58-2.1-12.41-.4-1.14-1-1.78-2.3-2.55-.7-.4-2.4-1.38-3.4 1.01-.7 1.59-.7 3.76-.6 5.65 .1 3.9 1.1 10.2 1.6 15.5 .3 2.3 .7 5.4 .7 8.2 v 4.8 c 0 3.9 0 4-1.3 0-.4-1.3-1-3.9-1.4-6.3-.3-1.8-.8-4.1-1.1-6.5-.2-2.2-.3-4.4-.4-5.9-.1-2.5-.6-5.4-1.4-7.1-.9-2.2-2.4-2.6-3.9-2.2-1.4 .4-1.8 1.7-2 2.9-.7 4.7 .3 8.8 .9 13.2 .2 1.9 .6 4.3 .8 5.4 .3 1.3 1.5 5.8 1.6 7.9 .2 1.6 .2 2.4 .1 3.3-.4 2.2-.2 2.3-1.6 .3-1.3-1.9-2-4.3-2.6-6.4-.4-1.4-.8-2.6-1.1-5.4-.1-.8-.6-3.4-1.1-5-.3-.9-.7-1.7-1.23-2.3-.85-.8-2.1-.9-2.99-.4-1.49 .7-1.53 2.9-1.51 4.6 .1 5.9 3.29 13.2 3.89 18 .68 5.5 .37 11.8 1.04 17.7z"/>
    </g>
    <use x:href="#z" x="1296"/>
  </g>
  <use x:href="#g" x="-972" y="171"/>
  <use x:href="#g" x="-648" y="342"/>
  <use x:href="#g" x="-324" y="513"/>
  <use x:href="#g" y="684"/>
</svg>