<?xml version="1.0" encoding="UTF-8" standalone="no"?>
<svg width="138px" height="50px" viewBox="0 0 138 50" version="1.1" xmlns="http://www.w3.org/2000/svg" xmlns:xlink="http://www.w3.org/1999/xlink">
    <!-- Generator: sketchtool 40.3 (33839) - http://www.bohemiancoding.com/sketch -->
    <title>A8D77B14-7B17-427D-AA37-8CD070F053F4</title>
    <desc>Created with sketchtool.</desc>
    <defs></defs>
    <g id="Final-Page-Designs" stroke="none" stroke-width="1" fill="none" fill-rule="evenodd">
        <g id="CCV---The-Experience" transform="translate(-101.000000, -2785.000000)">
            <g id="Our-Music" transform="translate(-1.000000, 1993.000000)">
                <g id="Get_it_on_iTunes_Badge_US_1114" transform="translate(102.000000, 792.000000)">
                    <g id="Livetype">
                        <g id="Group">
                            <path d="M129.21375,0 L8.28125,0 C7.965,0 7.64875,0 7.3325,0.00125 C7.065,0.0025 6.80375,0.00625 6.5375,0.0125 C5.95625,0.0325 5.37,0.0625 4.795,0.16875 C4.21125,0.27125 3.67,0.44375 3.145,0.71375 C2.6225,0.97875 2.15,1.32125 1.73125,1.7325 C1.32,2.15125 0.97875,2.6225 0.7125,3.14625 C0.44375,3.67 0.27125,4.2125 0.16875,4.79625 C0.06,5.37125 0.03125,5.9575 0.01125,6.53875 C0.005,6.805 0.0025,7.065 0.00125,7.3325 C0,7.64875 0,7.965 0,8.28125 L0,41.7225 C0,42.0325 0,42.355 0.00125,42.6675 C0.0025,42.93125 0.005,43.2 0.01125,43.46625 C0.03125,44.055 0.06125,44.63375 0.16875,45.2025 C0.27125,45.79375 0.44375,46.335 0.7125,46.865 C0.9775,47.375 1.31875,47.86375 1.73125,48.26625 C2.15,48.68375 2.62125,49.0325 3.145,49.29625 C3.66875,49.5675 4.21125,49.72625 4.795,49.84375 C5.37,49.94375 5.95625,49.975 6.5375,49.9875 C6.80375,49.9925 7.065,49.995 7.3325,49.9975 C7.64875,50 7.965,50 8.28125,50 L129.215,50 C129.53,50 129.8475,50 130.165,49.9975 C130.42875,49.995 130.6975,49.9925 130.96625,49.9875 C131.545,49.975 132.13125,49.94375 132.7075,49.84375 C133.28375,49.72625 133.82625,49.5675 134.3575,49.29625 C134.8825,49.0325 135.35375,48.68375 135.76625,48.26625 C136.17625,47.86375 136.525,47.375 136.78875,46.865 C137.06,46.335 137.23125,45.79375 137.33375,45.2025 C137.43625,44.63375 137.4725,44.055 137.4875,43.46625 C137.4975,43.2 137.5,42.93125 137.5,42.6675 C137.5,42.35625 137.5,42.03375 137.5,41.72375 L137.5,8.28125 C137.5,7.96375 137.5,7.64875 137.4975,7.33125 C137.4975,7.065 137.495,6.805 137.485,6.5375 C137.47,5.95625 137.43375,5.37 137.33125,4.795 C137.22875,4.21125 137.0575,3.66875 136.78625,3.145 C136.5225,2.62125 136.17375,2.15 135.76375,1.73125 C135.35125,1.32 134.88,0.9775 134.355,0.7125 C133.8225,0.44375 133.28125,0.27 132.705,0.1675 C132.12875,0.06 131.5425,0.03 130.96375,0.01125 C130.695,0.005 130.42625,0.0025 130.1625,0.00125 C129.84625,0 129.52875,0 129.21375,0 L129.21375,0 L129.21375,0 Z" id="Shape" fill="#A6A6A6"></path>
                            <path d="M129.21375,1.23125 L130.15375,1.2325 C130.4125,1.23375 130.67375,1.23625 130.9275,1.24875 C131.40125,1.26 131.95,1.2825 132.485,1.38375 C132.97875,1.4725 133.39375,1.60875 133.79875,1.81125 C134.19875,2.01875 134.5675,2.28625 134.8925,2.60875 C135.215,2.93125 135.48375,3.29875 135.69125,3.70375 C135.89375,4.10625 136.03,4.52125 136.11875,5.01625 C136.21375,5.545 136.23875,6.0975 136.25,6.56625 C136.2575,6.825 136.26,7.085 136.26,7.3475 C136.2625,7.66 136.2625,7.9675 136.2625,8.2825 L136.2625,41.72375 C136.2625,42.03125 136.2625,42.35125 136.26,42.66125 C136.26,42.92 136.2575,43.18125 136.25,43.4375 C136.2375,43.90875 136.21375,44.46 136.11875,44.9925 C136.03125,45.47625 135.89375,45.89875 135.69125,46.30875 C135.48375,46.70625 135.215,47.075 134.8925,47.4025 C134.5675,47.72 134.19875,47.98625 133.79625,48.18625 C133.39375,48.40375 132.97875,48.5325 132.4875,48.62375 C131.945,48.71625 131.37125,48.75375 130.9325,48.7625 C130.67625,48.7675 130.4175,48.77 130.15375,48.7725 C129.84125,48.775 129.52625,48.775 129.21375,48.775 L8.28125,48.775 L8.2725,48.775 C7.96125,48.775 7.65125,48.775 7.3375,48.7725 C7.08375,48.77 6.8225,48.7675 6.56625,48.7625 C6.13,48.7525 5.55375,48.71625 5.015,48.62375 C4.52125,48.53375 4.10625,48.40375 3.70125,48.18625 C3.2975,47.98625 2.93,47.72 2.6075,47.4025 C2.28625,47.075 2.01875,46.70625 1.81,46.30875 C1.60875,45.89875 1.47125,45.47625 1.38375,44.99 C1.28125,44.4575 1.26,43.90875 1.24875,43.4375 C1.23625,43.17875 1.23375,42.9175 1.2325,42.66125 L1.2325,41.91125 L1.2325,41.72375 L1.2325,8.28125 L1.2325,8.09375 L1.2325,7.34625 C1.23375,7.08625 1.23625,6.82625 1.24875,6.56625 C1.26,6.09875 1.28125,5.54875 1.38375,5.015 C1.47125,4.5225 1.60875,4.10625 1.81,3.7025 C2.01875,3.29875 2.2875,2.93125 2.60875,2.60875 C2.93,2.2875 3.2975,2.01875 3.7025,1.81 C4.10625,1.60875 4.52125,1.4725 5.015,1.38375 C5.5475,1.2825 6.0975,1.26 6.56625,1.25 C6.825,1.2375 7.085,1.235 7.345,1.23375 L8.28125,1.2325 L129.21375,1.2325" id="Shape" fill="#000000"></path>
                            <g transform="translate(15.000000, 7.500000)" id="Shape" fill="#FFFFFF">
                                <path d="M22.66,17.23 C22.62375,13.20125 25.95875,11.24125 26.11125,11.15 C24.2225,8.39625 21.295,8.02 20.26625,7.99 C17.8075,7.73125 15.4225,9.46125 14.17,9.46125 C12.8925,9.46125 10.96375,8.015 8.885,8.0575 C6.21,8.09875 3.7075,9.6475 2.335,12.0525 C-0.4975,16.95625 1.615,24.1625 4.32875,28.125 C5.68625,30.06625 7.2725,32.23375 9.34875,32.15875 C11.38,32.07375 12.13875,30.8625 14.59,30.8625 C17.01875,30.8625 17.73125,32.15875 19.84875,32.11 C22.02875,32.07375 23.40125,30.15875 24.71125,28.20125 C26.28,25.975 26.91,23.785 26.935,23.6725 C26.88375,23.655 22.70125,22.0575 22.66,17.23 L22.66,17.23 Z"></path>
                                <path d="M18.66,5.3825 C19.7525,4.01625 20.5,2.1575 20.2925,0.27125 C18.71125,0.34125 16.73375,1.365 15.595,2.70125 C14.5875,3.87875 13.6875,5.80875 13.92,7.62375 C15.69625,7.75625 17.52,6.7275 18.66,5.3825 L18.66,5.3825 Z"></path>
                            </g>
                            <g transform="translate(55.000000, 7.500000)" id="Shape" fill="#FFFFFF">
                                <path d="M6.84875,8.865 C6.0875,9.1525 5.28375,9.29625 4.4375,9.29625 C3.18,9.29625 2.1975,8.955 1.49,8.27125 C0.76,7.565 0.395,6.59375 0.395,5.35875 C0.395,4.1325 0.785,3.145 1.56625,2.4 C2.3475,1.65375 3.37375,1.28125 4.6475,1.28125 C5.4625,1.28125 6.11875,1.40125 6.61625,1.6425 L6.33625,2.6675 C5.85375,2.45 5.28375,2.34125 4.62375,2.34125 C3.74625,2.34125 3.04625,2.59375 2.52625,3.09875 C1.99,3.6275 1.7225,4.3575 1.7225,5.28875 C1.7225,6.22 1.97875,6.955 2.49125,7.49 C2.98,8.0025 3.64875,8.25875 4.495,8.25875 C5.0225,8.25875 5.40375,8.205 5.63625,8.09625 L5.63625,5.96375 L4.20375,5.96375 L4.20375,4.97375 L6.8475,4.97375 L6.8475,8.865 L6.84875,8.865 Z"></path>
                                <path d="M13.40875,6.11625 C13.40875,6.34125 13.3925,6.5325 13.3625,6.6875 L9.5875,6.6875 C9.60375,7.24625 9.78625,7.67375 10.135,7.96875 C10.45375,8.2325 10.865,8.365 11.37,8.365 C11.92875,8.365 12.4375,8.275 12.89625,8.0975 L13.095,8.97125 C12.55875,9.205 11.925,9.32125 11.195,9.32125 C10.3175,9.32125 9.62875,9.0625 9.1275,8.54625 C8.6275,8.03 8.37625,7.3375 8.37625,6.46625 C8.37625,5.6125 8.61,4.90125 9.075,4.33375 C9.565,3.72875 10.22375,3.425 11.055,3.425 C11.87,3.425 12.4875,3.7275 12.9075,4.33375 C13.24125,4.81625 13.40875,5.41 13.40875,6.11625 L13.40875,6.11625 Z M12.20875,5.79 C12.21625,5.4175 12.135,5.095 11.96375,4.82375 C11.74625,4.47375 11.4125,4.3 10.9625,4.3 C10.55,4.3 10.21625,4.47125 9.96,4.8125 C9.75,5.085 9.62625,5.41125 9.5875,5.79125 L12.20875,5.79125 L12.20875,5.79 Z"></path>
                                <path d="M17.905,4.4975 L16.51875,4.4975 L16.51875,7.24625 C16.51875,7.945 16.76375,8.295 17.25375,8.295 C17.47875,8.295 17.665,8.275 17.8125,8.2375 L17.84625,9.1925 C17.59875,9.28625 17.2725,9.3325 16.86875,9.3325 C16.3725,9.3325 15.98375,9.18125 15.70375,8.8775 C15.42375,8.575 15.285,8.06625 15.285,7.35125 L15.285,4.4975 L14.4575,4.4975 L14.4575,3.55375 L15.285,3.55375 L15.285,2.51625 L16.51875,2.14375 L16.51875,3.55375 L17.905,3.55375 L17.905,4.4975 L17.905,4.4975 Z"></path>
                                <path d="M24.08,1.86375 C24.08,2.08875 24.005,2.27125 23.8575,2.41125 C23.71125,2.55125 23.52,2.62125 23.28625,2.62125 C23.0775,2.62125 22.9,2.54875 22.75625,2.405 C22.6125,2.26125 22.54125,2.08125 22.54125,1.86375 C22.54125,1.64625 22.615,1.4675 22.76375,1.3275 C22.91,1.1875 23.09375,1.1175 23.31125,1.1175 C23.52875,1.1175 23.71125,1.1875 23.85875,1.3275 C24.005,1.4675 24.08,1.64625 24.08,1.86375 L24.08,1.86375 Z M23.93875,9.215 L22.68,9.215 L22.68,3.55375 L23.93875,3.55375 L23.93875,9.215 L23.93875,9.215 Z"></path>
                                <path d="M28.8425,4.4975 L27.4575,4.4975 L27.4575,7.24625 C27.4575,7.945 27.7025,8.295 28.19125,8.295 C28.41625,8.295 28.60375,8.275 28.75,8.2375 L28.78375,9.1925 C28.5375,9.28625 28.21,9.3325 27.8075,9.3325 C27.31,9.3325 26.92125,9.18125 26.64125,8.8775 C26.36125,8.575 26.2225,8.06625 26.2225,7.35125 L26.2225,4.4975 L25.395,4.4975 L25.395,3.55375 L26.2225,3.55375 L26.2225,2.51625 L27.45625,2.14375 L27.45625,3.55375 L28.84125,3.55375 L28.84125,4.4975 L28.8425,4.4975 Z"></path>
                                <path d="M38.79125,6.3375 C38.79125,7.2075 38.54375,7.9225 38.04625,8.48125 C37.525,9.05625 36.83375,9.34375 35.9725,9.34375 C35.14125,9.34375 34.48,9.0675 33.98625,8.51625 C33.49125,7.965 33.24625,7.26875 33.24625,6.43125 C33.24625,5.55375 33.5,4.835 34.00875,4.27625 C34.51625,3.7175 35.2025,3.4375 36.065,3.4375 C36.89625,3.4375 37.56375,3.71375 38.07,4.265 C38.55125,4.8 38.79125,5.49125 38.79125,6.3375 L38.79125,6.3375 Z M37.48625,6.37875 C37.48625,5.8575 37.37375,5.41 37.14875,5.035 C36.88375,4.58375 36.5075,4.3575 36.01875,4.3575 C35.51375,4.3575 35.12875,4.58375 34.865,5.035 C34.64,5.40875 34.52625,5.865 34.52625,6.40125 C34.52625,6.92375 34.64,7.37125 34.865,7.745 C35.1375,8.19625 35.5175,8.4225 36.00625,8.4225 C36.48875,8.4225 36.865,8.1925 37.13625,7.73375 C37.37,7.3525 37.48625,6.9 37.48625,6.37875 L37.48625,6.37875 Z"></path>
                                <path d="M45.37375,9.215 L44.11625,9.215 L44.11625,5.9725 C44.11625,4.9725 43.735,4.4725 42.97375,4.4725 C42.60125,4.4725 42.29875,4.61 42.065,4.88625 C41.83125,5.16125 41.71625,5.485 41.71625,5.85625 L41.71625,9.215 L40.4575,9.215 L40.4575,5.1725 C40.4575,4.675 40.44125,4.135 40.41125,3.55375 L41.5175,3.55375 L41.57625,4.43875 L41.61125,4.43875 C41.75875,4.16375 41.97625,3.93625 42.2625,3.755 C42.60375,3.54375 42.985,3.4375 43.405,3.4375 C43.9325,3.4375 44.37125,3.60875 44.72125,3.95 C45.15625,4.36875 45.3725,4.99375 45.3725,5.825 L45.3725,9.215 L45.37375,9.215 Z"></path>
                            </g>
                            <g transform="translate(55.000000, 21.250000)" id="Shape" fill="#FFFFFF">
                                <path d="M3.8075,2.55 C3.8075,3.0275 3.65125,3.41375 3.33875,3.71 C3.02625,4.00625 2.6225,4.15375 2.12875,4.15375 C1.685,4.15375 1.31,4.00125 1.005,3.6975 C0.7,3.39375 0.54875,3.01125 0.54875,2.55 C0.54875,2.09 0.705,1.71125 1.0175,1.415 C1.33,1.11875 1.71625,0.97125 2.1775,0.97125 C2.6375,0.97125 3.025,1.11875 3.3375,1.415 C3.65125,1.71 3.8075,2.08875 3.8075,2.55 L3.8075,2.55 Z M3.51125,18.1275 L0.845,18.1275 L0.845,6.12875 L3.51125,6.12875 L3.51125,18.1275 L3.51125,18.1275 Z"></path>
                                <polygon points="17.85375 3.735 13.09 3.735 13.09 18.1275 10.42375 18.1275 10.42375 3.735 5.68375 3.735 5.68375 1.4875 17.85375 1.4875"></polygon>
                                <path d="M28.96375,18.1275 L26.61875,18.1275 L26.47125,16.30125 L26.42125,16.30125 C25.58125,17.7 24.31375,18.39875 22.62,18.39875 C21.435,18.39875 20.48875,18.02875 19.78125,17.2875 C18.94125,16.3825 18.52125,15.0175 18.52125,13.19 L18.52125,6.13 L21.18875,6.13 L21.18875,12.74625 C21.18875,15.05125 21.97875,16.2025 23.55875,16.2025 C24.74375,16.2025 25.56625,15.62625 26.02875,14.475 C26.14375,14.17875 26.20125,13.84125 26.20125,13.4625 L26.20125,6.13 L28.8675,6.13 L28.8675,14.67125 C28.865,15.8075 28.8975,16.95875 28.96375,18.1275 L28.96375,18.1275 Z"></path>
                                <path d="M42.9875,18.1275 L40.32125,18.1275 L40.32125,11.2575 C40.32125,9.13875 39.51375,8.08 37.90125,8.08 C37.11,8.08 36.46875,8.37125 35.975,8.95375 C35.48125,9.53625 35.23375,10.2225 35.23375,11.01125 L35.23375,18.1275 L32.5675,18.1275 L32.5675,9.56 C32.5675,8.5075 32.535,7.3625 32.46875,6.12875 L34.815,6.12875 L34.93875,8.005 L35.0125,8.005 C35.325,7.42125 35.78625,6.9375 36.395,6.5575 C37.11875,6.1075 37.92625,5.8825 38.815,5.8825 C39.935,5.8825 40.86375,6.245 41.60375,6.96875 C42.525,7.8575 42.98625,9.1825 42.98625,10.94375 L42.98625,18.1275 L42.9875,18.1275 Z"></path>
                                <path d="M56.58875,11.56 C56.58875,12.03875 56.55625,12.44125 56.49,12.77125 L48.49125,12.77125 C48.52375,13.955 48.91125,14.86125 49.6525,15.48625 C50.3275,16.045 51.19875,16.32625 52.27,16.32625 C53.45375,16.32625 54.5325,16.1375 55.50375,15.7575 L55.92375,17.61 C54.7875,18.10375 53.44625,18.35 51.89875,18.35 C50.04,18.35 48.57875,17.8025 47.5175,16.70875 C46.455,15.61375 45.925,14.14625 45.925,12.3025 C45.925,10.4925 46.42,8.98625 47.4075,7.785 C48.44375,6.50125 49.8425,5.85875 51.60375,5.85875 C53.33125,5.85875 54.64,6.5 55.52875,7.785 C56.235,8.80375 56.58875,10.06375 56.58875,11.56 L56.58875,11.56 Z M54.04625,10.86875 C54.0625,10.07875 53.88875,9.39625 53.5275,8.82 C53.06625,8.07875 52.35875,7.70875 51.405,7.70875 C50.5325,7.70875 49.82375,8.07 49.2825,8.795 C48.8375,9.37125 48.575,10.0625 48.49125,10.8675 L54.04625,10.8675 L54.04625,10.86875 Z"></path>
                                <path d="M66.885,14.68 C66.885,15.79625 66.47375,16.69125 65.65125,17.36375 C64.8275,18.03625 63.6925,18.37375 62.24375,18.37375 C60.87625,18.37375 59.7175,18.1025 58.7625,17.56 L59.33,15.585 C60.25125,16.145 61.23125,16.42375 62.26875,16.42375 C63.635,16.42375 64.3175,15.92375 64.3175,14.91875 C64.3175,14.475 64.17,14.10875 63.87375,13.82 C63.57875,13.5325 63.05125,13.2475 62.29375,12.9675 C60.15375,12.1775 59.085,11.025 59.085,9.51125 C59.085,8.47375 59.48,7.61 60.27,6.91875 C61.06,6.2275 62.105,5.8825 63.405,5.8825 C64.59,5.8825 65.6025,6.12375 66.4425,6.6075 L65.875,8.52375 C65.10125,8.06375 64.28625,7.83125 63.43,7.83125 C62.87125,7.83125 62.43375,7.9625 62.1225,8.22625 C61.80875,8.4875 61.6525,8.825 61.6525,9.235 C61.6525,9.64625 61.8175,9.98375 62.1475,10.24625 C62.4275,10.4925 62.97,10.76375 63.7775,11.05875 C65.8475,11.84875 66.885,13.05375 66.885,14.68 L66.885,14.68 Z"></path>
                            </g>
                        </g>
                    </g>
                </g>
            </g>
        </g>
    </g>
</svg>