<svg id="Layer_1" data-name="Layer 1" xmlns="http://www.w3.org/2000/svg" viewBox="0 0 265 100"><defs><style>.cls-1{fill:#fff;}</style></defs><title>Artboard 1</title><path class="cls-1" d="M76.93,13.75c3.21-4.41,7.22-7.22,10.43-6,4.41,2,3.21,8.82.8,12.83-2,3.21-7.22,10.43-12.43,7.22C72.12,25.78,74.12,17.36,76.93,13.75Z"/><path class="cls-1" d="M9.14,14.15c3.21-4.41,7.22-7.22,10.43-6,4.41,2,3.21,8.82.8,12.83-2,3.21-7.22,10.43-12,7.22C4.33,26.18,6.34,17.36,9.14,14.15Z"/><path class="cls-1" d="M20,52.25C10.75,75.51,46.45,92.76,44,96.37,39.23,105.6-2.09,75.11,1.12,50.65,3.53,30.59,47.25,11.34,52.46,17.76,56.87,23.77,29.6,27.78,20,52.25Z"/><path class="cls-1" d="M87.36,52.65c-9.23,23.26,26.47,40.91,24.07,44.52C104.6,106.8,65.3,75.92,68.51,51.45c2.41-20.05,45.72-39.31,50.94-32.89C124.26,23.77,97,27.78,87.36,52.65Z"/><path class="cls-1" d="M181.21,11.74c3.21-4.41,7.22-7.22,10.43-6,4.41,2,3.21,8.82.8,12.83-2,3.21-7.22,10.43-12.43,7.22C176.4,23.77,178.81,15.75,181.21,11.74Z"/><path class="cls-1" d="M263,4.92c-.8,2.41-26.07,13.24-50.14,33.69C189.64,58.67,177.6,98,176.8,98.78c-2.41,2-4.81-.8-8-.8s-5.62.8-6.42-1.2.4-24.87-3.61-40.91c-3.21-14.44-22.46-36.1-21.66-39.31.4-1.2.8-2.41,4.41-2.41s14.84,9.63,22.86,27.27c7.22,16.44,8.82,26.07,10,26.07,3.21.4,13.24-21.66,31.69-38.91S249,.11,253.41.51,263.44,3.72,263,4.92Z"/></svg>