<?xml version="1.0" encoding="utf-8"?>
<svg version="1.2" baseProfile="tiny" id="Layer_1" xmlns="http://www.w3.org/2000/svg" xmlns:xlink="http://www.w3.org/1999/xlink"
	 x="0px" y="0px" viewBox="-479.5 80.5 40 40" xml:space="preserve">
<rect x="-467.942" y="92.816" width="16.885" height="11.08"/>
<path d="M-448.947,105.229c0,1.166-0.945,2.11-2.111,2.11h-16.884c-1.167,0-2.112-0.944-2.112-2.11V92.564
	c0-1.165,0.945-2.11,2.112-2.11h16.884c1.165,0,2.111,0.945,2.111,2.11V105.229z M-454.783,110.721v0.362
	c0,0.255-0.237,0.464-0.528,0.464h-4.2h-0.009h-4.201c-0.292,0-0.529-0.209-0.529-0.464v-0.362c0.001-0.185-0.026-0.31,0.125-0.441
	c0.255-0.222,2.746-1.671,2.926-1.775c0.226-0.127,0.458-0.229,0.715-0.271c0.276-0.046,1.66-0.046,1.936,0
	c0.258,0.043,0.489,0.145,0.716,0.271c0.182,0.104,2.67,1.554,2.925,1.775C-454.756,110.411-454.783,110.536-454.783,110.721
	 M-459.5,80.5c-11.045,0-20,8.955-20,20.001s8.955,19.999,20,19.999c11.046,0,20-8.953,20-19.999S-448.455,80.5-459.5,80.5"/>
</svg>
