<?xml version="1.0" encoding="utf-8"?>
<svg version="1.1" xmlns="http://www.w3.org/2000/svg" xmlns:xlink="http://www.w3.org/1999/xlink" x="0px" y="0px"
	 viewBox="-429 238.1 100 84.9" style="enable-background:new -429 238.1 100 84.9;" xml:space="preserve" fill="#fff">
<path d="M-378.7,280.3"/>
<path d="M-378.7,280.3"/>
<path d="M-378.7,280.3"/>
<path d="M-333.8,260.2c-5.4,3.1-8.3,4.4-13.8,4.1c-2.1,0-3.2-0.9-5.3-0.7c-1.9,0.1-2.9,0.8-4.8,1.4c-3,0.9-4.6,1.7-7.7,2.7
	c-2,0.6-3.2,0.6-5.3,1.3c-1.8,0.7-0.9,0.1-2.1,1.6c-1.6,1.8-1.2,3.1-2.7,6.1c-1.9,4-1.6,4.5-0.6,5c-0.7,2-0.9,3.4-0.7,5.6
	c0.2,1.7-0.5,2.8,1.3,4.1c2.4,1.8,7.5,6.1,8.9,6.1c2-0.1,7.6,0.1,10.5-1.9c0.7-0.4,0.8-0.8,0.3,0.7c-0.1,0.2-7.2,5.7-8,5.7
	c-5.5,0.2-6.5,0.4-6.6,0.6c-0.6-0.2-4.8-5.2-7.4-3.4c-1,0.6-1.4,1.2-1.8,2.3c0.3,0.7,1.9,1.8,3.4,2.7c2.1,1.4,2.3,2.8,4.4,3.3
	c2.6,0.6,5.3,0.2,7,0.4c0.6,0.2,6.3-1.5,9.9-3.4c3.3-1.7-4.5,3.3-6.4,5.7c-5.7,1.8-4.1,1.9-6.9,2.4c-2.5,0.6-2.4,0.4-4.1,1
	c-1.8,0.4-3.3,2.9-1.6,4.1c1,0.8,4.2-0.3,7.3-0.4c1.4,0,7-2.6,8.3-3.3c3.2-1.7,5.5-4.1,7.4-5.4c2.6-1.8-2.9,5-5.3,7.8
	c-0.7,0.9-1,1.1-1.8,2.3c-1.4,1.8,0.4,4.6,1.3,4.1c1-0.4,1.7-2.5,2.8-3.1c0.6-0.3,2.1-2.6,3.6-4.1c1.1-1.2,1.8-1.7,2.8-3
	c1.7-2.1,2.1-3.7,3.6-6c0.9-1.2,1.6-1.5,2.4-3c4.5-8.4,3.2-12.2,7.4-18.3c1.3-1.8,2.8-2.2,4.8-3.3
	C-327.4,268.1-333.8,260.2-333.8,260.2z M-354.5,282.6c-1,3.5-0.9,4-2.8,5.3c-2.3,1.8-2.5,0.4-7.8,3.4c0,0-2.2-2.3-5.7-3.4
	c0,0-0.9-4.5-2.8-6c4.5-3.4,4.4-6.4,5.1-6.3c1.6,0.1,4.2,1,9-0.8C-356.9,280-353.5,279.7-354.5,282.6z"/>
<path d="M-381.7,256.9c-2.1-1.4-2.3-2.8-4.4-3.3c-2.6-0.6-5.4-0.2-7-0.6c-0.6-0.1-6.3,1.6-9.8,3.4c-3.3,1.8,4.5-3.2,6.4-5.7
	c5.7-1.7,4.1-1.8,6.8-2.4c2.5-0.5,2.4-0.4,4.1-0.9c1.8-0.5,3.3-2.9,1.6-4.3c-1-0.8-4.2,0.4-7.3,0.4c-1.4,0.1-7,2.7-8.3,3.4
	c-3.2,1.7-5.5,4-7.4,5.3c-2.6,1.9,2.9-4.9,5.3-7.7c0.7-1,1-1.2,1.9-2.3c1.4-1.9-0.4-4.6-1.3-4.3c-1.1,0.5-1.7,2.6-3,3.3
	c-0.5,0.3-2,2.5-3.4,4.1c-1.1,1.2-1.8,1.7-2.8,3c-1.7,2.1-2.1,3.7-3.6,5.8c-0.9,1.3-1.6,1.6-2.4,3.1c-4.5,8.4-3.2,12.2-7.4,18.1
	c-1.3,1.9-2.8,2.3-4.8,3.4c-1.9,14,4.4,21.9,4.4,21.8c5.4-3.1,8.2-4.3,13.8-4.1c2.1,0.1,3.2,1,5.3,0.9c1.9-0.1,2.9-0.8,4.8-1.4
	c3-1,4.6-1.8,7.5-2.7c2.1-0.6,3.4-0.6,5.4-1.4c1.8-0.7,0.9,0,2.1-1.4c1.6-1.8,1.2-3.2,2.6-6.1c2-4,1.8-4.6,0.7-5
	c0.7-2.1,0.9-3.4,0.7-5.6c-0.2-1.7,0.5-2.9-1.3-4.1c-2.4-1.9-7.5-6.1-8.8-6.1c-2,0-7.7-0.2-10.6,1.7c-0.6,0.5-0.8,0.9-0.3-0.6
	c0.1-0.3,7.2-5.8,8-5.9c5.1-0.1,6.3-0.3,6.6-0.4c0.5,0,4.8,5.2,7.4,3.4c1-0.7,1.4-1.2,1.9-2.3C-378.6,258.9-380.2,257.8-381.7,256.9
	z M-400.7,273.2c2.3-1.7,2.5-0.4,7.8-3.3c0-0.1,2.2,2.2,5.7,3.3c0,0,0.9,4.6,2.8,6.1c-4.5,3.4-4.4,6.3-5.1,6.3c-1.6-0.2-4.2-1-9,0.7
	c-2.8-5.2-6.1-4.9-5.1-7.9C-402.5,275-402.6,274.6-400.7,273.2z"/>
</svg>
