<?xml version="1.0" encoding="utf-8"?>
<svg version="1.2" baseProfile="tiny" id="Layer_1" xmlns="http://www.w3.org/2000/svg" xmlns:xlink="http://www.w3.org/1999/xlink"
	 x="0px" y="0px" viewBox="-240 0 40 40" xml:space="preserve">
<path d="M-220,0c-11.046,0-20,8.953-20,20c0,11.047,8.954,20,20,20s20-8.953,20-20C-200,8.953-208.954,0-220,0z M-214.729,20.009
	h-3.448c0,5.509,0,12.294,0,12.294h-5.111c0,0,0-6.72,0-12.294h-2.43v-4.345h2.43v-2.811c0-2.014,0.955-5.156,5.156-5.156
	l3.784,0.016v4.217c0,0-2.301,0-2.746,0c-0.448,0-1.083,0.221-1.083,1.182v2.554h3.895L-214.729,20.009z"/>
</svg>
