<?xml version="1.0" encoding="utf-8"?>
<svg version="1.2" baseProfile="tiny" id="Layer_1" xmlns="http://www.w3.org/2000/svg" xmlns:xlink="http://www.w3.org/1999/xlink"
	 x="0px" y="0px" viewBox="-160 0 40 40" xml:space="preserve">
<g>
	<path d="M-134.924,15.75h2.518c0.553,0,1.003-0.453,1.003-0.999V12.35c0-0.545-0.449-0.998-1.003-0.998h-2.518
		c-0.549,0-0.999,0.453-0.999,0.998v2.401C-135.923,15.297-135.473,15.75-134.924,15.75z"/>
	<path d="M-139.98,24.275c2.469,0,4.471-1.938,4.471-4.326c0-2.388-2.002-4.327-4.471-4.327c-2.465,0-4.463,1.938-4.463,4.327
		C-144.443,22.338-142.445,24.275-139.98,24.275z"/>
	<path d="M-133.068,20.193c0,3.696-3.093,6.696-6.912,6.696c-3.812,0-6.908-3-6.908-6.696c0-0.666,0.102-1.307,0.283-1.911h-2.043
		v9.392c0,0.489,0.399,0.887,0.883,0.887h15.488c0.485,0,0.883-0.395,0.883-0.887v-9.392h-1.953
		C-133.167,18.889-133.068,19.527-133.068,20.193z"/>
	<path d="M-140,0c-11.047,0-20,8.953-20,20c0,11.047,8.953,20,20,20c11.047,0,20-8.953,20-20C-120,8.953-128.953,0-140,0z
		 M-128.881,28.266c0,1.564-1.286,2.852-2.854,2.852h-16.529c-1.568,0-2.854-1.285-2.854-2.852V11.732
		c0-1.565,1.285-2.852,2.854-2.852h16.529c1.567,0,2.854,1.285,2.854,2.852V28.266L-128.881,28.266z"/>
</g>
</svg>
