<?xml version="1.0" encoding="utf-8"?>
<svg version="1.2" baseProfile="tiny" id="Layer_1" xmlns="http://www.w3.org/2000/svg" xmlns:xlink="http://www.w3.org/1999/xlink"
	 x="0px" y="0px" viewBox="-400 0 40 40" xml:space="preserve">
<path d="M-380,0c-11.044,0-20,8.953-20,20c0,11.047,8.956,20,20,20c11.047,0,20-8.953,20-20C-360,8.953-368.953,0-380,0z
	 M-379.896,24.315c0.418,0,0.817-0.062,1.199-0.18c0.382-0.115,0.748-0.269,1.098-0.455c0.352-0.187,0.691-0.4,1.02-0.64
	c0.325-0.241,0.645-0.489,0.961-0.742c0.948-0.758,1.908-1.507,2.878-2.234c0.966-0.725,1.941-1.451,2.926-2.186
	c0.077-0.061,0.154-0.12,0.232-0.177c0.083-0.058,0.161-0.125,0.235-0.199v10.34c0,0.361-0.128,0.668-0.382,0.93
	c-0.256,0.256-0.563,0.388-0.921,0.388h-18.446c-0.358,0-0.665-0.132-0.928-0.388c-0.257-0.262-0.388-0.566-0.388-0.93v-10.34
	c0.077,0.074,0.155,0.144,0.235,0.199c0.081,0.057,0.158,0.116,0.235,0.177c0.981,0.732,1.957,1.461,2.923,2.186
	c0.97,0.729,1.93,1.478,2.881,2.234c0.299,0.238,0.608,0.478,0.937,0.72c0.328,0.237,0.668,0.457,1.021,0.646
	c0.349,0.196,0.716,0.354,1.104,0.472C-380.694,24.253-380.301,24.315-379.896,24.315z M-379.896,21.7
	c-0.238,0-0.492-0.072-0.764-0.203c-0.274-0.134-0.545-0.292-0.808-0.48c-0.263-0.186-0.521-0.383-0.772-0.591
	c-0.251-0.206-0.472-0.372-0.662-0.514c-0.922-0.7-1.834-1.396-2.738-2.078c-0.9-0.687-1.822-1.381-2.762-2.091
	c-0.173-0.141-0.376-0.322-0.608-0.555c-0.232-0.233-0.45-0.489-0.65-0.772c-0.202-0.28-0.375-0.565-0.516-0.858
	c-0.14-0.289-0.212-0.553-0.212-0.787c0-0.313,0.138-0.584,0.412-0.817c0.274-0.231,0.566-0.349,0.88-0.349h18.446
	c0.312,0,0.602,0.115,0.873,0.349c0.271,0.234,0.406,0.504,0.406,0.817c0,0.234-0.069,0.498-0.212,0.787
	c-0.141,0.293-0.311,0.578-0.513,0.858c-0.203,0.283-0.418,0.54-0.65,0.772c-0.232,0.231-0.436,0.414-0.611,0.555
	c-0.939,0.701-1.858,1.396-2.762,2.085c-0.904,0.688-1.816,1.384-2.735,2.084c-0.19,0.142-0.411,0.308-0.659,0.514
	c-0.247,0.208-0.504,0.405-0.772,0.591c-0.269,0.189-0.536,0.348-0.811,0.48c-0.274,0.131-0.525,0.203-0.752,0.203h-0.023H-379.896z
	"/>
</svg>
