<?xml version="1.0" encoding="utf-8"?>
<svg version="1.2" baseProfile="tiny" id="Layer_1" xmlns="http://www.w3.org/2000/svg" xmlns:xlink="http://www.w3.org/1999/xlink"
	 x="0px" y="0px" viewBox="-399.57 80.5 40 40" xml:space="preserve">
<g>
	<circle cx="-379.651" cy="99.231" r="4.5"/>
	<path d="M-379.57,80.5c-11.044,0-20,8.953-20,20s8.956,20,20,20c11.047,0,20-8.953,20-20S-368.523,80.5-379.57,80.5z
		 M-371.432,104.712c-1.776,2.591-8.138,9.692-8.138,9.692s-6.348-7.093-8.125-9.676c-1.091-1.586-1.73-3.508-1.73-5.579
		c0-5.441,4.412-9.854,9.854-9.854s9.854,4.413,9.854,9.854C-369.715,101.213-370.349,103.128-371.432,104.712z"/>
</g>
</svg>
