<?xml version="1.0" encoding="utf-8"?>
<svg version="1.2" baseProfile="tiny" id="Layer_1" xmlns="http://www.w3.org/2000/svg" xmlns:xlink="http://www.w3.org/1999/xlink"
	 x="0px" y="0px" viewBox="-480 0 40 40" xml:space="preserve">
<path d="M-460,0c-11.043,0-20,8.953-20,20c0,11.047,8.957,20,20,20c11.044,0,20-8.953,20-20C-440,8.953-448.956,0-460,0z
	 M-453.524,22.738c0.095,0,0.346,0.105,0.751,0.328c0.406,0.22,0.841,0.465,1.31,0.731c0.468,0.271,0.922,0.536,1.357,0.812
	c0.441,0.273,0.739,0.449,0.895,0.524c0.154,0.097,0.379,0.222,0.671,0.376c0.292,0.148,0.486,0.322,0.587,0.52
	c0.019,0.055,0.027,0.168,0.027,0.335c0,0.155-0.015,0.334-0.045,0.53c-0.029,0.203-0.065,0.412-0.116,0.633
	c-0.048,0.221-0.107,0.43-0.176,0.627c-0.065,0.201-0.132,0.375-0.191,0.519c-0.173,0.382-0.465,0.728-0.867,1.044
	c-0.403,0.322-0.855,0.592-1.352,0.805c-0.498,0.223-1.008,0.396-1.529,0.531c-0.522,0.131-0.973,0.197-1.352,0.197
	c-0.781,0-1.526-0.126-2.243-0.376c-0.719-0.251-1.425-0.513-2.129-0.794c-1.199-0.441-2.332-1.014-3.4-1.728
	c-1.067-0.711-2.058-1.511-2.976-2.398c-0.913-0.884-1.766-1.845-2.557-2.869c-0.79-1.032-1.491-2.082-2.105-3.155
	c-0.244-0.394-0.498-0.859-0.767-1.396c-0.269-0.53-0.519-1.073-0.745-1.634c-0.232-0.562-0.421-1.115-0.573-1.658
	c-0.148-0.549-0.227-1.062-0.227-1.539c0-0.531,0.072-1.092,0.215-1.67c0.141-0.579,0.35-1.141,0.627-1.67
	c0.28-0.531,0.614-1.01,1.002-1.438c0.388-0.43,0.841-0.764,1.359-1.009c0.116,0.02,0.245,0.02,0.388,0
	c0.141-0.023,0.269-0.029,0.388-0.029c0.096,0,0.245,0.006,0.438,0.012c0.194,0.013,0.391,0.023,0.585,0.029
	c0.193,0.014,0.382,0.036,0.563,0.066c0.179,0.035,0.313,0.07,0.399,0.113c0.078,0.054,0.152,0.143,0.221,0.262
	c0.069,0.113,0.126,0.245,0.176,0.388c0.048,0.138,0.093,0.287,0.141,0.437c0.042,0.154,0.084,0.273,0.122,0.375
	c0.057,0.174,0.173,0.496,0.343,0.955c0.174,0.466,0.347,0.942,0.52,1.426c0.176,0.488,0.334,0.941,0.477,1.359
	c0.141,0.418,0.209,0.681,0.209,0.775c0,0.363-0.119,0.691-0.357,0.996c-0.239,0.298-0.501,0.578-0.787,0.841
	c-0.287,0.257-0.555,0.501-0.8,0.728c-0.241,0.233-0.364,0.455-0.364,0.668c0,0.197,0.081,0.437,0.242,0.717
	c0.161,0.279,0.289,0.508,0.388,0.675c0.82,1.413,1.738,2.624,2.756,3.632c1.017,1.011,2.248,1.921,3.692,2.738
	c0.176,0.103,0.396,0.231,0.665,0.403c0.269,0.168,0.513,0.259,0.739,0.259c0.221,0,0.478-0.155,0.764-0.474
	c0.289-0.31,0.581-0.656,0.88-1.031c0.295-0.368,0.6-0.715,0.906-1.024C-454.073,22.893-453.787,22.738-453.524,22.738z"/>
</svg>
