<?xml version="1.0" encoding="utf-8"?>
<svg version="1.2" baseProfile="tiny" id="Layer_1" xmlns="http://www.w3.org/2000/svg" xmlns:xlink="http://www.w3.org/1999/xlink"
	 x="0px" y="0px" viewBox="0 0 40 40" xml:space="preserve">
<g>
	<g>
		<path d="M14.023,27.462h11.956V9.749H14.023V27.462z M20,28.854c-0.918,0-1.661,0.746-1.661,1.662
			c0,0.922,0.743,1.664,1.661,1.664c0.919,0,1.664-0.742,1.664-1.664C21.664,29.602,20.919,28.854,20,28.854z M20.003,0
			C8.956,0,0,8.953,0,20c0,11.047,8.956,20,20.003,20C31.047,40,40,31.047,40,20C40,8.953,31.047,0,20.003,0z M28.089,30.54
			c0,1.924-1.53,3.478-3.418,3.478h-9.338c-1.89,0-3.418-1.554-3.418-3.478V9.361c0-1.92,1.528-3.478,3.418-3.478h9.338
			c1.888,0,3.418,1.558,3.418,3.478V30.54z"/>
	</g>
</g>
</svg>
