<?xml version="1.0" encoding="utf-8"?>
<svg version="1.2" baseProfile="tiny" id="Layer_1" xmlns="http://www.w3.org/2000/svg" xmlns:xlink="http://www.w3.org/1999/xlink"
	 x="0px" y="0px" viewBox="-320 0 40 40" xml:space="preserve">
<path d="M-300,0c-11.045,0-20,8.953-20,20c0,11.047,8.955,20,20,20s20-8.953,20-20C-280,8.953-288.955,0-300,0z M-290.488,15.121
	c0.012,0.211,0.016,0.42,0.016,0.635c0,6.487-4.938,13.967-13.966,13.967c-2.772,0-5.352-0.812-7.523-2.207
	c0.383,0.045,0.773,0.068,1.171,0.068c2.3,0,4.415-0.784,6.096-2.1c-2.148-0.039-3.961-1.461-4.586-3.408
	c0.299,0.057,0.606,0.086,0.923,0.086c0.447,0,0.882-0.06,1.293-0.173c-2.246-0.45-3.937-2.435-3.937-4.812c0-0.021,0-0.042,0-0.062
	c0.662,0.366,1.418,0.587,2.223,0.614c-1.316-0.881-2.183-2.383-2.183-4.086c0-0.9,0.241-1.742,0.665-2.471
	c2.42,2.971,6.036,4.924,10.116,5.133c-0.083-0.363-0.127-0.736-0.127-1.121c0-2.711,2.196-4.908,4.907-4.908
	c1.412,0,2.689,0.597,3.584,1.551c1.118-0.221,2.168-0.629,3.116-1.189c-0.364,1.146-1.144,2.108-2.157,2.715
	c0.992-0.121,1.939-0.383,2.819-0.772C-288.695,13.564-289.529,14.43-290.488,15.121z"/>
</svg>
