<svg xmlns="http://www.w3.org/2000/svg" width="13.562" height="8.84" viewBox="0 0 13.562 8.84">
  <metadata><?xpacket begin="﻿" id="W5M0MpCehiHzreSzNTczkc9d"?>
<x:xmpmeta xmlns:x="adobe:ns:meta/" x:xmptk="Adobe XMP Core 5.6-c138 79.159824, 2016/09/14-01:09:01        ">
   <rdf:RDF xmlns:rdf="http://www.w3.org/1999/02/22-rdf-syntax-ns#">
      <rdf:Description rdf:about=""/>
   </rdf:RDF>
</x:xmpmeta>
                                                                                                    
                                                                                                    
                                                                                                    
                                                                                                    
                                                                                                    
                                                                                                    
                                                                                                    
                                                                                                    
                                                                                                    
                                                                                                    
                                                                                                    
                                                                                                    
                                                                                                    
                                                                                                    
                                                                                                    
                                                                                                    
                                                                                                    
                                                                                                    
                                                                                                    
                                                                                                    
                           
<?xpacket end="w"?></metadata>
<defs>
    <style>
      .cls-1 {
        fill: #fff;
        stroke: #fff;
        stroke-width: 1px;
        fill-rule: evenodd;
      }
    </style>
  </defs>
  <path id="Shape_1_copy" data-name="Shape 1 copy" class="cls-1" d="M833.942,2077.65c0.325-.34.651-0.68,0.982-1.03,0.084,0.08.167,0.18,0.252,0.26l0.255,0.27,0.255,0.27c0.086,0.09.171,0.18,0.256,0.26l0.255,0.27,0.255,0.27,0.256,0.27c0.085,0.09.17,0.17,0.255,0.26l0.255,0.27,0.255,0.27,0.256,0.27c0.085,0.08.17,0.17,0.255,0.26l0.255,0.27,0.255,0.27c0.086,0.09.171,0.18,0.256,0.26l0.255,0.27,0.255,0.27,0.256,0.27c0.085,0.09.17,0.17,0.255,0.26s0.17,0.18.257,0.27q2.554-2.67,5.106-5.34,0.5,0.51.981,1.02-3.048,3.2-6.089,6.38Q836.986,2080.84,833.942,2077.65Z" transform="translate(-833.25 -2075.91)"/>
</svg>
