<?xml version="1.0" encoding="utf-8"?>
<!-- Generator: Adobe Illustrator 22.1.0, SVG Export Plug-In . SVG Version: 6.00 Build 0)  -->
<svg version="1.1" id="Layer_1" xmlns="http://www.w3.org/2000/svg" xmlns:xlink="http://www.w3.org/1999/xlink" x="0px" y="0px"
	 width="800px" height="653px" viewBox="0 0 800 653" enable-background="new 0 0 800 653" xml:space="preserve">
<g>
	<path fill="#FFFFFF" d="M765.4,191.8l-48.5-10.9l-57.2-73.7c-0.5-0.6-1.1-1-1.8-1.1l-34.1-6.6l-4.2-7c-0.2-0.3-0.5-0.6-0.8-0.9
		l-84.3-63.2c-0.8-0.6-1.8-0.8-2.7-0.5l-98.3,31.2l-25-4.7L333.9,5.2c-1-0.7-2.4-0.7-3.4,0l-60.3,41.2l-66.5-5.8
		c-1.1-0.1-2.1,0.4-2.8,1.3l-80.1,115.1L10.7,198.2c-1.4,0.5-2.2,1.9-1.9,3.4l21,122.5c0.2,1.2,1.1,2.2,2.3,2.5l24.7,5.4l10.9,38.1
		l-1.2,0.5c-1.3,0.5-2.1,1.8-2,3.2l9.1,85.9c0.1,1.4,1.2,2.5,2.6,2.7l18.8,2.8l13.2,46.1c0.3,1.1,1.2,1.9,2.4,2.2l57.8,10.4l16.8,31
		c0.4,0.7,1,1.2,1.8,1.5l19.8,5.7c16.4,29.2,46.9,47.3,80.1,47.3c15.2,0,30.3-3.9,43.9-11.4l7.1,2.1c0.6,0.2,1.2,0.2,1.7,0l7.1-2.2
		c7.9,10,17.6,18.5,28.7,25.3l1.8,1.1c1.8,1,3.6,2,5,2.7c16.8,8.8,35.7,13.4,54.9,13.4c37,0,71.4-16.9,92.4-45.4
		c5,0.7,10.1,1.1,15.1,1.1c52.2,0,94.7-39.4,94.7-87.9c0-0.8,0-1.6,0-2.5l67.3-10.4c1.3-0.2,2.4-1.2,2.5-2.6l26.1-181.1l11.9-2.7
		c1.2-0.3,2.1-1.3,2.3-2.5l18.1-111.2C767.9,193.7,766.9,192.2,765.4,191.8z"/>
	<g>
		<g>
			<path d="M265.8,204.2l0.3,0c0.1,0,0.1,0,0.2,0c-3.1-1-5.4-4.1-5.2-7.8c0.2-4.3,3.6-7.7,7.5-7.6c0.8,0,1.5,0.2,2.2,0.5
				c-1.2-1-2.7-1.6-4.3-1.7h0c-4.4,0-7.7,3.5-7.9,8c-0.1,2.2,0.6,4.3,2,6C261.9,203.2,263.8,204.1,265.8,204.2z"/>
		</g>
		<g>
			<path d="M98.5,239c-3.3,0-5.8,2.6-5.9,6c-0.1,3.4,2.3,6.3,5.4,6.4l0.2,0c0,0,0.1,0,0.1,0c-2.4-0.7-4.1-3.1-3.9-5.9
				c0.1-3.2,2.7-5.8,5.7-5.7c0.6,0,1.1,0.2,1.6,0.4C100.8,239.5,99.7,239.1,98.5,239C98.5,239,98.5,239,98.5,239z"/>
		</g>
		<g>
			<path d="M175.9,229.4l0.2,0c0.1,0,0.1,0,0.2,0c-2.8-0.9-4.8-3.7-4.7-7c0.2-3.9,3.2-6.9,6.7-6.7c0.7,0,1.3,0.2,1.9,0.4
				c-1.1-0.9-2.4-1.4-3.8-1.5h0c-3.9,0-6.9,3.1-7,7.1c-0.1,2,0.6,3.9,1.8,5.3C172.5,228.5,174.1,229.3,175.9,229.4z"/>
		</g>
		<g>
			<path d="M655.2,213.3c1,1.8,1,1.2,0.9,0.2L655.2,213.3z"/>
		</g>
		<g>
			<path d="M655.8,211.8c0.3,0.1,0.5,0.1,0.8,0.2C655.7,210,655.7,210.6,655.8,211.8z"/>
		</g>
		<g>
			<polygon points="340.8,272.1 355,453.1 552.9,438.2 371.6,433.9 			"/>
		</g>
		<g>
			<polygon points="309.9,221.5 309.9,221.6 310.2,221.5 			"/>
		</g>
		<g>
			<g>
				<path d="M368.8,176l-0.5,0c-7.3-0.3-13.5,5.8-13.8,13.6c-0.3,7.7,5,14.1,12.1,14.7l0.5,0c7.3,0.3,13.5-5.8,13.8-13.6
					C381.3,183.1,375.9,176.6,368.8,176z M367.3,201.3l-0.4,0c-0.1,0-0.2,0-0.2,0c4.3-0.9,7.7-4.9,7.9-9.9
					c0.2-5.8-3.9-10.7-9.3-10.9c-1,0-2,0.1-2.9,0.4c1.7-1.2,3.7-1.9,5.9-1.8l0,0c5.8,0.5,9.9,5.5,9.7,11.6
					C377.6,196.7,372.9,201.5,367.3,201.3z"/>
			</g>
			<g>
				<path d="M481.9,196.9l-0.4,0c-6.2-0.3-11.4,4.9-11.7,11.5c-0.3,6.5,4.2,12,10.3,12.4l0.4,0c6.2,0.3,11.4-4.9,11.7-11.5
					C492.4,202.9,487.9,197.4,481.9,196.9z M480.6,218.3l-0.3,0c-0.1,0-0.1,0-0.2,0c3.7-0.8,6.5-4.2,6.7-8.4
					c0.2-4.9-3.3-9.1-7.9-9.3c-0.9,0-1.7,0.1-2.5,0.4c1.4-1,3.2-1.6,5-1.5l0,0c5,0.4,8.4,4.7,8.2,9.8
					C489.4,214.4,485.3,218.5,480.6,218.3z"/>
			</g>
			<g>
				<path d="M585.4,216.8l-0.4,0c-5.5-0.2-10.2,4.4-10.4,10.3c-0.2,5.8,3.8,10.6,9.1,11.1l0.4,0c5.5,0.2,10.2-4.4,10.4-10.3
					C594.7,222.1,590.7,217.3,585.4,216.8z M584.2,235.9l-0.3,0c-0.1,0-0.1,0-0.2,0c3.3-0.7,5.8-3.7,5.9-7.5c0.2-4.4-3-8.1-7-8.2
					c-0.8,0-1.5,0.1-2.2,0.3c1.3-0.9,2.8-1.4,4.4-1.3l0,0c4.4,0.4,7.5,4.2,7.3,8.7C592,232.4,588.4,236,584.2,235.9z"/>
			</g>
			<g>
				<path d="M689.3,234.5l-0.3,0c-4.9-0.2-9,3.9-9.2,9.1c-0.2,5.1,3.3,9.4,8.1,9.8l0.3,0c4.9,0.2,9-3.9,9.2-9.1
					C697.6,239.2,694,234.9,689.3,234.5z M688.3,251.4l-0.2,0c-0.1,0-0.1,0-0.2,0c2.9-0.6,5.1-3.3,5.3-6.6c0.2-3.9-2.6-7.1-6.2-7.3
					c-0.7,0-1.3,0.1-2,0.3c1.1-0.8,2.5-1.2,3.9-1.2l0,0c3.9,0.3,6.6,3.7,6.4,7.7C695.2,248.3,692,251.5,688.3,251.4z"/>
			</g>
		</g>
		<g>
			<path d="M563,547.7c-17.3,0-31-15.3-30.5-34.1c0.5-18.8,14.9-34.1,32.2-34.1c17.3,0,31,15.3,30.5,34.1c-0.2,6.5-2,12.5-5,17.7
				c3.5-5.5,5.6-11.9,5.8-18.9c0.2-8.4-2.5-16.2-7.1-22.2c-6.3-9.3-17.1-15.3-29.4-15.3c-20.1,0-36.9,16.1-37.4,36
				c-0.5,16.9,10.9,31,26.7,34.9c3.6,1.4,7.6,2.1,11.7,2.1C561.4,547.8,562.2,547.7,563,547.7C563.1,547.7,563,547.7,563,547.7z"/>
		</g>
		<g>
			<path d="M308.2,131.6l-92,34.5L54.9,226.4l11.3,65.9l23.6,5.2l28.3,98.5l-9.3,3.4l2.8,26.8l15.8,2.3l14,48.8L332,511.9
				l-131.8-15.8l13.7,25.5l23.7,6.9c5,22.9,25.2,40.1,49.3,40.1c13.8,0,26.7-5.8,36-15.3l15.6,4.5l28.9-8.8
				c7.3,28.5,33.9,49.6,66.1,49.6c1.8,0,3.5-0.1,5.2-0.2c0.4,0,0.8,0,1.2,0c5.7,0,11.2-0.7,16.5-2.1c-3,0.5-6.1,0.7-9.3,0.7
				c-32,0-57.4-25.7-56.6-57.4c0.8-31.6,27.5-57.4,59.5-57.4c14.6,0,27.7,5.3,37.7,14.1c12.7,9.8,20.6,25.2,20.2,42.6
				c0,0.9-0.1,1.9-0.1,2.8c8.7,7.3,20.1,11.7,32.7,11.7c3.9,0,7.7-0.4,11.3-1.2c2.7-0.2,5.4-0.7,7.9-1.3c-2.1,0.3-4.3,0.5-6.5,0.5
				c-22.9,0-41-18.4-40.4-41c0.6-22.6,19.7-41,42.5-41c15.7,0,29.1,8.6,35.8,21.3c-0.9-3.1-2-6.1-3.5-9l2.5-0.8l0.9-9l81.3-12.6
				l26.1-181.2l14.4-3.3l8.2-50.2L308.2,131.6z M98.2,253.2l-0.3,0c-4.1-0.2-7.2-3.8-7.1-8.2c0.2-4.3,3.4-7.6,7.4-7.6l0.3,0
				c2,0.1,3.8,1,5.1,2.6c1.3,1.5,2,3.6,1.9,5.7C105.5,249.8,102.2,253.2,98.2,253.2z M266.2,185.3l0.4,0c2.6,0.1,5.1,1.3,6.9,3.4
				c1.8,2.1,2.7,4.7,2.6,7.5c-0.2,5.7-4.6,10.2-9.9,10.2l-0.4,0c-2.6-0.1-5.1-1.3-6.9-3.4c-1.8-2.1-2.7-4.7-2.6-7.5
				C256.5,189.8,260.8,185.3,266.2,185.3z M176.2,212.5l0.3,0c2.4,0.1,4.5,1.2,6.1,3c1.6,1.8,2.4,4.2,2.3,6.7
				c-0.2,5.1-4.1,9.1-8.8,9.1l-0.3,0c-2.4-0.1-4.5-1.2-6.1-3c-1.6-1.8-2.4-4.2-2.3-6.7C167.6,216.5,171.5,212.5,176.2,212.5z
				 M245.9,419.1l47.2-11.2l-46.8,19.4l-127.4-7l-3.7-18.2c22.3-3.4,93.5-14.6,93.5-14.6l-38.6,12.3l73.5-1.4l52.1-10.1l0,0.2
				l-51.2,16.8L245.9,419.1z M655.3,444.7l-314.9,23.7l-15.6-197.1l-4.7,0.1l-6.3,0.2l-185.9,5.1l4.7-1.2l179.6-24.3l6.8-0.9
				l4.1-0.6L692,277.4L655.3,444.7z M708.3,269.4l-385.5-49l-4.9-74.8l399,82.2L708.3,269.4z"/>
		</g>
		<g>
			<path d="M568,486.1c-6.3,0-12.1,2.7-16.5,7.1c2.8-1.8,6.1-2.9,9.6-3.1c11.2-0.5,20.5,8.9,20.8,21.1c0.3,12.2-8.6,22.5-19.8,23
				c-4.7,0.2-9.1-1.3-12.6-4.1c4.2,5.1,10.4,8.3,17.2,8.3c13.2,0,24.2-11.7,24.6-26.2C591.7,497.9,581.2,486.1,568,486.1z"/>
		</g>
		<g>
			<path d="M448.3,542.5c-0.2-9.6,6.3-17.6,14.6-18c0.1,0,0.3,0,0.4,0c-1.3-0.3-2.6-0.5-4-0.5c-8.3,0.4-14.8,8.5-14.6,18
				c0.2,9.4,6.9,16.7,15,16.6C453.3,557,448.5,550.5,448.3,542.5z"/>
		</g>
		<g>
			<path d="M465.4,527.6c-2.6,0.1-5,1.4-6.9,3.3c1.2-0.7,2.5-1.1,3.8-1.2c5.3-0.3,9.8,4.9,10,11.6c0.2,6.6-4,12.2-9.4,12.5
				c-1.4,0.1-2.7-0.3-4-0.9c2,1.8,4.5,2.9,7.2,2.8c6.3-0.3,11.2-6.8,11-14.6C476.9,533.4,471.7,527.3,465.4,527.6z"/>
		</g>
		<g>
			<path d="M549.2,512.3c-0.2-8.3,5.5-15.3,12.6-15.6c0.1,0,0.2,0,0.4,0c-1.1-0.3-2.3-0.4-3.5-0.4c-7.2,0.3-12.8,7.3-12.6,15.6
				c0.2,8.1,6,14.5,13,14.4C553.5,524.8,549.3,519.2,549.2,512.3z"/>
		</g>
		<g>
			<path d="M564,499.4c-2.3,0.1-4.4,1.2-6,2.9c1-0.6,2.1-1,3.3-1c4.6-0.2,8.5,4.3,8.7,10c0.1,5.7-3.5,10.6-8.1,10.8
				c-1.2,0.1-2.4-0.2-3.4-0.7c1.7,1.6,3.9,2.5,6.2,2.4c5.4-0.3,9.7-5.9,9.5-12.6C574,504.4,569.4,499.2,564,499.4z"/>
		</g>
		<g>
			<polygon points="308.4,136.2 694.5,220.6 621.9,171.3 586.7,159.3 572.7,140.2 517.7,105 437.1,124.1 385.2,122.9 329.7,87 
				287.5,114.1 234.3,114.1 151.7,192.2 			"/>
		</g>
		<g>
			<polygon points="694.2,219.6 635.9,144.5 597.9,137.1 588,120.8 525.3,73.9 435.9,102.3 392.4,94.1 332.5,54.4 281.3,89.4 
				222.2,84.3 145.5,194.4 150.7,192.5 226.4,100.5 284.8,103 332.1,71.5 389.6,108 437.5,114.6 523.6,89.9 580.8,130.9 
				593.2,149.9 628.9,159.6 692.4,219.2 			"/>
		</g>
		<g>
			<path d="M495.2,508.8c-9.2-11.6-23.7-19.1-40.1-19.1c-28.7,0-52.6,22.6-53.4,50.4c-0.7,24.7,17.1,45.2,41.2,49.5
				c4.5,1.5,9.4,2.3,14.4,2.3c-23.2-2-41-22.9-40.4-48.4c0.7-26.8,21.5-48.5,46.4-48.5c20.9,0,38.2,15.3,42.8,36.1
				C504.4,522.6,500.5,515,495.2,508.8z"/>
		</g>
		<g>
			<path d="M469.5,507.3c-7.6,0-14.7,3-20.3,8c2.9-1.6,6.2-2.5,9.6-2.7c3.8-0.2,7.5,0.6,10.8,2.3h0c0.5,0.2,1,0.5,1.5,0.8
				c0.1,0,0.2,0.1,0.2,0.1c0.4,0.3,0.8,0.5,1.3,0.8c0,0,0.1,0.1,0.1,0.1c0.5,0.3,0.9,0.7,1.3,1c0.1,0.1,0.1,0.1,0.2,0.2
				c0.4,0.3,0.7,0.6,1.1,1c0.1,0.1,0.1,0.1,0.2,0.2c0.4,0.4,0.8,0.8,1.2,1.2c0,0,0.1,0.1,0.1,0.1c0.3,0.4,0.7,0.8,1,1.2
				c0.1,0.1,0.2,0.2,0.2,0.3c0.7,0.9,1.4,1.8,2,2.8c0.1,0.1,0.1,0.2,0.2,0.3c0.3,0.5,0.5,0.9,0.8,1.4c0,0.1,0.1,0.1,0.1,0.2
				c0.3,0.5,0.5,1,0.7,1.6c0.1,0.1,0.1,0.3,0.2,0.4c0.2,0.5,0.4,0.9,0.5,1.4c0,0.1,0.1,0.2,0.1,0.3c0.2,0.6,0.4,1.1,0.5,1.7
				c0,0.1,0.1,0.2,0.1,0.4c0.1,0.5,0.3,1,0.4,1.4c0,0.1,0.1,0.3,0.1,0.4c0.1,0.6,0.2,1.2,0.3,1.8c0,0.1,0,0.2,0,0.3
				c0.1,0.5,0.1,1.1,0.2,1.6c0,0.2,0,0.3,0,0.5c0.1,0.6,0.1,1.3,0.1,1.9c0,0.9,0,1.8,0,2.7c0,0.1,0,0.1,0,0.2
				c-0.1,0.8-0.1,1.7-0.3,2.5c0,0.1,0,0.2,0,0.3c-0.1,0.8-0.3,1.6-0.4,2.4c0,0.1,0,0.2-0.1,0.3c-0.2,0.8-0.4,1.5-0.6,2.3
				c0,0.1-0.1,0.2-0.1,0.3c-0.2,0.7-0.5,1.5-0.8,2.2c0,0.1-0.1,0.2-0.1,0.3c-0.3,0.7-0.6,1.4-1,2.1c0,0.1-0.1,0.2-0.1,0.2
				c-0.4,0.7-0.7,1.4-1.1,2c0,0-0.1,0.1-0.1,0.1c-0.4,0.7-0.9,1.3-1.3,2c0,0,0,0,0,0c-1.5,2-3.2,3.7-5.1,5.2c0,0,0,0-0.1,0
				c-0.6,0.5-1.2,0.9-1.9,1.3c0,0-0.1,0-0.1,0.1c-0.6,0.4-1.3,0.8-2,1.1c0,0-0.1,0-0.1,0.1c-0.7,0.3-1.4,0.6-2.1,0.9
				c0,0-0.1,0-0.1,0c-0.7,0.3-1.4,0.5-2.2,0.7c0,0,0,0-0.1,0c-0.8,0.2-1.5,0.4-2.3,0.5c-0.8,0.1-1.5,0.2-2.3,0.2
				c-5,0.2-9.7-1.2-13.7-4c5.5,5.9,13,9.5,21.4,9.5c17.3,0,31.8-15.4,32.2-34.3C500.5,522.7,486.8,507.3,469.5,507.3z"/>
		</g>
	</g>
	<path d="M705.1,199.4l-52.9-68.1l-4.8-6.2l-36.6-7.1l-7-11.6l-66-49.6l-8.5-6.4l-94.6,30L400.3,74l-68-45.1l-56.6,38.7L212,62.1
		l-78,112.1l-86.4,32.3l-16,6L48.1,309l25.1,5.6l19.6,68.3l-6.4,2.4l6.2,58.7l18.4,2.7L125,495l56.8,10.3l18,33.2l21.5,6.2
		c11.2,26.7,36.8,44,65.7,44c14.4,0,28.9-4.6,40.8-13.1l10.9,3.2l16.7-5.1c7.2,13,17.9,24,31,31.9l1.3,0.8c1.5,0.9,3,1.7,4.5,2.5
		c13.7,7.2,29.2,11,45,11c35.2,0,67.6-18.8,82.8-48.1c7.9,2.5,16.4,3.9,24.8,3.9c40.8,0,74.1-30.2,74.1-67.3
		c0-6.7-1.1-13.3-3.2-19.7l75.1-11.6l26.2-182.3l14.2-3.2l13.6-83.2L705.1,199.4z M603,483.3c4.2,7.7,6.4,16.4,6.4,25
		c0,31.8-29,57.8-64.6,57.8c-9.7,0-19.4-2-28.1-5.8l-1.6-0.7l-0.7,1.6c-11.9,29.4-42.9,49.1-77.2,49.1c-14.3,0-28.3-3.4-40.7-9.9
		c-1.3-0.7-2.7-1.4-4.4-2.4l-0.8-0.5c-13.5-8.2-24-19.9-30.4-33.8l-0.6-1.4l-21.7,6.6l-12.8-3.7l-0.7,0.6
		c-10.9,8.7-24.5,13.5-38.2,13.5c-26,0-49.4-16.7-58.2-41.4l-0.3-0.8l-22.2-6.4L188,496.7l-55.4-10l-13.9-48.6l-17.2-2.5l-4.7-44.1
		l7.7-2.9l-23.6-82.2l-24.4-5.4l-14.1-82.5l97.4-36.4l0.5-0.2l76.5-110l61.6,5.3l54.1-37l64,42.4l38.8,7.4l92.2-29.3l67.3,50.4
		l1.7,1.3l8.4,13.9l37.3,7.2l57.2,73.7l0.4,0.5l34.2,7.7l-11.1,68l-14.3,3.2l-26.2,181.8l-80.5,12.5L603,483.3z"/>
</g>
<g>
</g>
<g>
</g>
<g>
</g>
<g>
</g>
<g>
</g>
<g>
</g>
</svg>
