<svg width="32" height="58" viewBox="0 0 32 58" fill="none"
    xmlns="http://www.w3.org/2000/svg">
    <g>
        <path d="M31.1143 20.3403L24.2771 25.5361L16.4431 31.4872L8.60905 25.5361L1.75176 20.3201C1.4094 20.0684 1.28857 19.6153 1.44968 19.2226L5.94065 8.28716H26.9354L31.4163 19.2024C31.5875 19.6153 31.4566 20.0785 31.1143 20.3403Z" fill="#E24040"></path>
        <path d="M15.99 8.29722L11.1063 19.7059L8.60905 25.5361L1.75176 20.3201C1.4094 20.0684 1.28856 19.6153 1.44968 19.2226L5.94065 8.28716H15.99V8.29722Z" fill="#F95050"></path>
        <path d="M31.1143 20.3403L24.2771 25.5361L16.4431 31.4872L5.94067 8.29723H26.9355L31.4164 19.2125C31.5875 19.6153 31.4566 20.0785 31.1143 20.3403Z" fill="#F95050"></path>
        <path d="M31.1143 20.3403L24.2771 25.5361L15.99 8.29723H26.9355L31.4164 19.2125C31.5876 19.6153 31.4566 20.0785 31.1143 20.3403Z" fill="#E24040"></path>
        <path opacity="0.15" d="M16.4431 31.4872L8.60905 25.5361L1.75176 20.3201C1.4094 20.0684 1.28857 19.6153 1.44968 19.2226L5.94065 8.28716L11.1063 19.6958L16.4431 31.4872Z" fill="#3D3D3D"></path>
        <path d="M29.6239 4.30972H3.26208V8.28715H29.6239V4.30972Z" fill="#FFC552"></path>
        <path d="M29.6239 4.30972V8.28715H3.26208V8.14618C16.3222 8.41806 23.4916 6.41424 27.4086 4.30972H29.6239Z" fill="#F2B03B"></path>
        <path opacity="0.25" d="M5.94067 8.29723L28.4761 12.033L26.9355 8.29723H5.94067Z" fill="#424242"></path>
        <path d="M32.0003 37.7302C32.0003 46.5712 24.8309 53.7406 15.9899 53.7406C8.0854 53.7406 1.52012 48.0212 0.22116 40.4892C0.0600487 39.5931 -0.0205078 38.6667 -0.0205078 37.7302C-0.0205078 28.8892 7.14894 21.7198 15.9899 21.7198C17.7319 21.7198 19.4035 22.0017 20.9743 22.5052C27.3785 24.6097 32.0003 30.6312 32.0003 37.7302Z" fill="#FFC552"></path>
        <path d="M20.9743 22.5136C18.8496 32.3111 10.4618 39.7726 0.22116 40.4976C0.0600486 39.6014 -0.0205078 38.675 -0.0205078 37.7386C-0.0205078 28.8976 7.14893 21.7281 15.9899 21.7281C17.7319 21.7181 19.4034 22 20.9743 22.5136Z" fill="#FFD469"></path>
        <path d="M28.6271 37.7302C28.6271 44.7083 22.9681 50.3674 15.9899 50.3674C11.791 50.3674 8.06528 48.3132 5.76945 45.1615C4.24896 43.0771 3.35278 40.5094 3.35278 37.7403C3.35278 30.7622 9.01181 25.1031 15.9899 25.1031C20.3701 25.1031 24.2368 27.3386 26.5024 30.7219C27.8417 32.7257 28.6271 35.1424 28.6271 37.7302Z" fill="#ED9015"></path>
        <path d="M28.6271 37.7302C28.6271 44.7083 22.9681 50.3674 15.99 50.3674C11.791 50.3674 8.06532 48.3132 5.76949 45.1615C4.6115 43.4295 3.87644 41.4056 3.69519 39.2104C3.66498 38.858 3.65491 38.5056 3.65491 38.1531C3.65491 31.175 9.31394 25.516 16.2921 25.516C17.3594 25.516 18.3966 25.6469 19.3935 25.8986C22.3035 26.6337 24.8007 28.3757 26.5125 30.7219C27.8417 32.7257 28.6271 35.1424 28.6271 37.7302Z" fill="#FCAC2B"></path>
        <path d="M19.3834 25.8986C16.5841 32.4941 10.7841 37.4986 3.69519 39.2104C3.66498 38.858 3.65491 38.5056 3.65491 38.1531C3.65491 31.175 9.31393 25.516 16.2921 25.516C17.3494 25.516 18.3865 25.6469 19.3834 25.8986Z" fill="#F4A025"></path>
        <path d="M27.0106 40.0261C28.0444 34.059 24.0451 28.3836 18.078 27.3498C12.1109 26.316 6.43552 30.3153 5.40174 36.2824C4.36796 42.2495 8.36722 47.9249 14.3343 48.9587C20.3015 49.9925 25.9768 45.9932 27.0106 40.0261Z" fill="#ED9015"></path>
        <path d="M26.9555 37.7302C26.9555 43.782 22.0417 48.6958 15.9899 48.6958C10.1396 48.6958 5.35658 44.1142 5.04443 38.3445C5.03436 38.1431 5.02429 37.9316 5.02429 37.7302C5.02429 31.6785 9.93818 26.7646 15.9899 26.7646C16.7552 26.7646 17.5003 26.8451 18.2253 26.9962C23.2097 28.0233 26.9555 32.4438 26.9555 37.7302Z" fill="#FFC552"></path>
        <path d="M18.2253 26.9962C15.5167 32.3229 10.784 36.4413 5.04443 38.3545C5.03436 38.1531 5.02429 37.9417 5.02429 37.7403C5.02429 31.6885 9.93818 26.7747 15.9899 26.7747C16.7552 26.7646 17.5003 26.8451 18.2253 26.9962Z" fill="#FFD469"></path>
        <path d="M22.6156 36.5823C22.7264 36.4816 22.7365 36.3306 22.6761 36.2198C22.6761 36.2198 22.6761 36.2198 22.6761 36.2097C22.6761 36.2097 22.4445 35.7365 22.233 35.9177C22.2028 35.9479 22.1927 35.9781 22.1927 36.0083L18.4972 35.4444C18.3965 35.4243 18.3059 35.3639 18.2656 35.2733L16.5236 31.6785C16.4129 31.4469 16.0806 31.4469 15.9597 31.6785L14.1573 35.2431C14.107 35.3337 14.0264 35.3941 13.9257 35.4142L9.96842 35.958C9.71669 35.9983 9.60592 36.3104 9.78717 36.4917L12.6268 39.301C12.6972 39.3715 12.7375 39.4722 12.7174 39.583L12.0528 43.2885C11.9521 43.3087 11.8615 43.349 11.8715 43.4396C11.9018 43.641 12.1132 43.8021 12.1132 43.8021C12.2038 43.8826 12.3347 43.9128 12.4556 43.8424L16.0101 42.0097C16.1007 41.9594 16.2115 41.9594 16.3021 42.0097L19.8264 43.8927C20.058 44.0135 20.3198 43.8222 20.2795 43.5705L19.6351 39.6233C19.615 39.5226 19.6552 39.4219 19.7257 39.3514L22.6156 36.5823Z" fill="#EFAB33"></path>
        <path d="M19.5948 39.1601C19.5243 39.2305 19.484 39.3312 19.5041 39.442L20.1486 43.3892C20.1888 43.641 19.917 43.8323 19.6954 43.7114L16.1711 41.8285C16.0805 41.7781 15.9698 41.7781 15.8791 41.8285L12.3246 43.6611C12.093 43.7819 11.8312 43.5805 11.8715 43.3288L12.5763 39.3917C12.5965 39.291 12.5663 39.1903 12.4857 39.1097L11.7607 38.3948L9.63607 36.3003C9.45482 36.1191 9.55552 35.8069 9.81732 35.7667L13.7847 35.2229C13.8854 35.2128 13.976 35.1423 14.0163 35.0517L15.8086 31.4771C15.9295 31.2455 16.2517 31.2455 16.3725 31.4771L17.4097 33.6219L18.1145 35.0819C18.1548 35.1726 18.2454 35.233 18.3461 35.2531L22.3034 35.8573C22.5652 35.8976 22.6559 36.2097 22.4746 36.391L19.5948 39.1601Z" fill="#FCE897"></path>
        <path d="M17.4097 33.6219C16.4229 35.9983 14.3184 37.8107 11.7607 38.3948L9.63607 36.3003C9.45482 36.1191 9.55552 35.8069 9.81732 35.7667L13.7847 35.2229C13.8854 35.2128 13.976 35.1423 14.0163 35.0517L15.8086 31.4771C15.9295 31.2455 16.2517 31.2455 16.3725 31.4771L17.4097 33.6219Z" fill="#FFEEA4"></path>
        <path d="M4.02748 35.8271L3.48373 34.6288L2.29553 34.0951L3.4938 33.5615L4.02748 32.3632L4.53095 33.5917L5.75942 34.0951L4.47053 34.5382L4.02748 35.8271Z" fill="#FFFAE6"></path>
    </g>
</svg>