<?xml version="1.0" encoding="UTF-8"?><svg xmlns="http://www.w3.org/2000/svg" viewBox="0 0 1079.51 521.99"><defs><style>.d{fill:#fff;}</style></defs><g id="a"/><g id="b"><g id="c"><path class="d" d="M133.24,380.05c1.16,5.77-.92,8.9-4.19,9.55-3.95,.79-6.7-1.96-8.31-9.95-1.12-5.58-1.8-8.95-1.93-10.12l.77-.15c7.12-1.43,11.94,2.11,13.66,10.67Zm924.85-23.84c-22.01,30.15-60.2,53.59-113.5,69.68-18.37,5.55-36.53,9.13-53.99,10.66-24.24,2.12-46.61,.34-66.79-5.3,.02,4.42,.04,8.84,.09,13.22l.27,27.91-131.87-1.13-.41-3.74c-12.18,5.49-26.12,8.88-42.16,10.29-6.32,.55-13.1,.8-20.16,.74-27.08-.23-52.49-7.62-74.43-21.29l2.19,25.01-145.36,12.72-1.59-18.15-38.33,7.33-83.82-95.94-4.18,6.32,19.65,102.7-129.33,24.74-5.2-27.2c-8.88,9.13-20.74,15.49-34.15,18.18-2.46,.49-4.97,.86-7.45,1.07-33.05,2.89-60.86-18.57-67.61-52.19-4.46-22.22,1.1-40.12,11.16-52.5-2.91-5.36-5.24-11.74-6.76-19.27-.79-3.95-1.28-7.75-1.48-11.4l-21.37,4.29-13.94-69.42,21.94-4.41-11.03-54.93c-1.73-4.12-3.15-8.73-4.19-13.89-1.05-5.23-1.58-10.2-1.59-14.9l-9.29-46.23c-1.71-3.84-2.99-8-3.79-12.44l-4.8-26.46,.75-.15L0,62.72l85.42,15.02,.69,.12c1.16,.2,2.28,.39,3.38,.58l-3.69-19.3,129.33-24.74,38.33,200.33c.25-.44,.49-.87,.74-1.31,14.7-25.99,29.91-52.87,41.3-74.25l6.16-11.56,78.58-15.03-9.36-107.03,145.36-12.72,13.59,155.38c26.48-27.8,61.63-45.38,97.4-48.51,4.27-.37,8.59-.54,12.83-.51,20.24,.17,36.74,3.07,50.16,7.44l1.09-126.63,135.88,1.17-.73,85.05c2.73-.91,5.5-1.79,8.33-2.64,19.56-5.9,38.33-9.67,55.79-11.2,35.33-3.09,65.94,2.71,90.96,17.25,21.86,12.7,38.38,31.57,47.77,54.57l11.38,27.88-41.36,12.49c11.28,2.9,21.27,6.92,30.03,12.08,28.8,16.95,39.4,42.97,44.86,61.06,10.67,35.36,5.09,69.42-16.15,98.51ZM406.96,123.4l90.77-7.94-6.38-72.95-90.77,7.94,6.38,72.95ZM137.29,349.4c-1.04,.31-7.43,1.89-13.88,3.19l-18.67,3.75c-8.28,1.66-17.86,6.79-13.53,28.35,3.96,19.73,14.75,22.07,20.98,21.22l-3.15-15.69c-3.02-.09-5.83-1.13-7.19-7.87-1.47-7.31,1.45-9.7,5.5-10.52l1.54-.31,2.09,10.39c2.94,14.63,8.9,25.35,21.89,22.74,7.99-1.6,15.16-8.75,12.44-22.32-1.89-9.43-5.73-14.57-10.51-16.41,1.33-.37,4.39-1.08,5.47-1.7l-2.98-14.82ZM77.54,117.21l.06,.29c-3.37,1.68-14.66,7.75-34.5,20.65l3.46,17.23,47.24-32.52c5.72,1.56,8.24,2.65,9.61,9.48,.31,1.54,.45,2.71,.72,5.06l12.7-2.55c.02-1.91-.52-5.6-.97-7.81-3.42-17.03-11.16-18.18-35.11-22.28l-45.98-8.09,3.23,16.07c20.41,2.91,34.37,4.11,39.55,4.47Zm32.88,168.71c-5.81,2.97-15.72,9.46-33.62,20.07l3.4,16.94,45.64-30.49-3.52-17.52-53.87-10.51,3.21,15.98c21.8,3.33,32.12,4.86,38.72,5.34l.04,.19Zm-48.76-107.15c-2.69,.54-8.14,1.84-9.91,2.49l3.07,15.3c4.5-1,9.03-1.91,13.55-2.82l36.19-7.27-3.15-15.69-18.19,3.65c-14.15,2.84-20.26-4.14-22.33-15.44l-14.34,2.88c1.88,10.34,8,15.41,15.11,16.89Zm-.53,56.17c3.96,19.73,14.75,22.07,20.98,21.22l-3.15-15.69c-3.02-.09-5.83-1.13-7.19-7.87-1.47-7.31,1.46-9.7,5.5-10.52l1.54-.31,2.09,10.39c2.94,14.63,8.9,25.35,21.89,22.74,7.99-1.6,15.16-8.75,12.44-22.32-1.89-9.43-5.73-14.57-10.51-16.41,1.33-.37,4.39-1.08,5.47-1.7l-2.98-14.82c-1.04,.31-7.43,1.89-13.88,3.19l-18.67,3.75c-8.28,1.66-17.86,6.79-13.53,28.35Zm73.53,101.37l-3.15-15.69-71.7,14.4,3.15,15.69,71.7-14.4Zm22.96,106.82c-4.27-21.27-17.23-28.48-29.79-29.16l3.31,16.46c7.09,1.38,11.69,4.86,13.62,14.49,2.69,13.38-6.8,21.49-19.31,24-12.32,2.47-23.35-2.12-25.91-14.82-2.32-11.55,3.2-16.46,6.76-18.68l-3.34-16.65c-10.85,4.28-20.33,16.9-16.16,37.69,4.81,23.96,24.23,33.38,42.8,29.65,18.48-3.71,32.89-18.72,28.01-42.97Zm315.97-6.29l-144.68-153.87,80.18-128.02-89.4,17.1c-22.97,43.09-60.99,107.85-78.95,142.01l-47.37-247.6-75.5,14.45,78.25,409.02,75.5-14.45-16.6-86.74,30.17-45.61,97.14,111.17,91.25-17.46Zm49.6-30.38c-19.44-28.59-29.47-65.01-29.11-106.29,.22-25.6,4.85-49.54,13.6-71.08l-5.22-59.62-90.77,7.94,16.86,192.66,70.57,75.05-62.95,12.04,.71,8.14,90.77-7.94-4.45-50.9Zm273.22-2.55c-18.68-11.32-33.3-27.51-42.83-48.09l-6.26-13.5,49.69-15,.21-24.85c-12.13-2.62-22.68-6.61-31.7-12.04-23.34-14.04-31.76-34.64-36.07-48.91-12.68-42,.78-94.58,69.4-128.48l.73-84.7-81.08-.7-1.29,149.8c-7.32-11.24-27.43-30.42-77.36-30.85-63.28-.54-132.01,56.44-132.84,153.7-.77,89.99,51.62,150.25,122.81,150.86,52.9,.45,70.86-18.4,85.39-40.63,.4,11.18,.77,25.16,1.69,33.55l79.6,.68c-.13-13.52-.14-27.18-.08-40.85Zm251.6-138.29c-11.63-38.53-37.39-71.63-154.93-54.82-53.63,8.02-64.83,3.81-68.38-7.96-2.91-9.63-.9-24.25,32.28-34.27,39.06-11.79,53.22,.28,61.38,11.83l85.62-25.85c-15.7-38.47-63.84-74.15-161.23-44.74-96.32,29.08-113.68,85.7-100.91,127.98,10.18,33.71,36.26,67.88,146.2,51.04,57.91-9.31,71.95-5.37,76.63,10.14,4.04,13.38-2.74,27.69-40.19,38.99-37.46,11.31-59.53,3.96-72.46-13.74l-86.69,26.17c26.82,57.88,95.91,72.06,171.36,49.28,101.14-30.53,126.53-83.74,111.34-134.05ZM98.97,239.86c3.27-.66,5.35-3.78,4.19-9.55-1.72-8.57-6.54-12.1-13.66-10.67l-.77,.15c.14,1.17,.81,4.54,1.93,10.12,1.6,7.99,4.36,10.74,8.31,9.95Zm556.57-22.14c-43.51-.37-65.1,38.57-65.47,81.05-.39,45.84,22.55,80.69,64.08,81.05,41.53,.36,63.55-30.2,63.98-79.95,.43-49.75-16.6-81.75-62.58-82.15Z"/></g></g></svg>