<?xml version="1.0" encoding="utf-8"?>
<!-- Generator: Adobe Illustrator 16.0.0, SVG Export Plug-In . SVG Version: 6.00 Build 0)  -->
<!DOCTYPE svg PUBLIC "-//W3C//DTD SVG 1.1//EN" "http://www.w3.org/Graphics/SVG/1.1/DTD/svg11.dtd">
<svg version="1.1" xmlns="http://www.w3.org/2000/svg" xmlns:xlink="http://www.w3.org/1999/xlink" x="0px" y="0px"
	 width="190.283px" height="52.92px" viewBox="0 0 190.283 52.92" enable-background="new 0 0 190.283 52.92" xml:space="preserve">
<g id="Red">
	<rect fill="#781E1E" width="89.549" height="52.92"/>
</g>
<g id="Text">
	<g>
		<g>
			<g>
				<g>
					<path fill="#FFFFFF" d="M107.172,22.957c-0.155,0.383-0.361,0.691-0.619,0.932c-0.248,0.236-0.523,0.414-0.825,0.529
						c-0.303,0.113-0.661,0.172-1.075,0.172c-0.272,0-0.518-0.027-0.734-0.076c-0.215-0.051-0.408-0.121-0.578-0.213
						s-0.322-0.195-0.453-0.312c-0.135-0.113-0.255-0.238-0.365-0.377c-0.191-0.229-0.34-0.506-0.441-0.832
						c-0.101-0.326-0.172-0.668-0.213-1.031s-0.064-0.73-0.068-1.1c-0.004-0.373-0.008-0.725-0.008-1.055s0.004-0.684,0.008-1.059
						c0.004-0.377,0.027-0.746,0.068-1.109c0.041-0.361,0.112-0.705,0.213-1.031c0.102-0.326,0.25-0.607,0.441-0.846
						c0.11-0.139,0.23-0.264,0.365-0.379c0.131-0.113,0.283-0.219,0.453-0.311c0.17-0.09,0.363-0.162,0.578-0.213
						c0.217-0.049,0.462-0.076,0.734-0.076c0.414,0,0.772,0.059,1.075,0.174c0.302,0.113,0.577,0.291,0.825,0.529
						c0.258,0.24,0.461,0.545,0.613,0.922c0.15,0.375,0.236,0.799,0.254,1.266h-1.954c-0.009-0.137-0.022-0.271-0.041-0.406
						c-0.019-0.131-0.056-0.248-0.11-0.352c-0.055-0.117-0.133-0.211-0.234-0.273c-0.1-0.064-0.242-0.096-0.428-0.096
						c-0.182,0-0.32,0.037-0.418,0.109c-0.098,0.074-0.172,0.166-0.227,0.275c-0.057,0.109-0.102,0.266-0.139,0.467
						c-0.037,0.203-0.063,0.432-0.083,0.688c-0.017,0.256-0.028,0.533-0.034,0.826c-0.004,0.295-0.006,0.588-0.006,0.881
						s0.002,0.588,0.006,0.881c0.006,0.295,0.018,0.568,0.034,0.826c0.02,0.254,0.046,0.486,0.083,0.688s0.082,0.357,0.139,0.467
						c0.055,0.111,0.129,0.203,0.227,0.275c0.098,0.074,0.236,0.109,0.418,0.109c0.186,0,0.328-0.033,0.436-0.102
						c0.105-0.068,0.186-0.162,0.239-0.283c0.057-0.1,0.093-0.217,0.111-0.35s0.032-0.268,0.041-0.406h1.954
						C107.416,22.154,107.328,22.578,107.172,22.957z"/>
					<path fill="#FFFFFF" d="M112.181,24.479v-4.1h-1.624v4.1h-1.953v-9.797h1.953v3.938h1.624v-3.938h1.954v9.797H112.181z"/>
					<path fill="#FFFFFF" d="M119.446,24.479l-1.197-3.811h-0.647v3.811h-1.953v-9.797h2.793c0.531,0,0.975,0.068,1.328,0.207
						c0.354,0.137,0.633,0.332,0.84,0.584c0.207,0.254,0.351,0.564,0.433,0.938c0.084,0.369,0.124,0.791,0.124,1.258
						c0,0.266-0.015,0.52-0.04,0.762c-0.029,0.246-0.081,0.477-0.159,0.695c-0.078,0.221-0.191,0.426-0.338,0.613
						c-0.146,0.189-0.338,0.355-0.578,0.502l1.432,4.238H119.446z M119.211,17.668c0-0.139-0.006-0.279-0.02-0.426
						c-0.014-0.148-0.046-0.281-0.096-0.4c-0.051-0.119-0.129-0.215-0.233-0.289c-0.106-0.072-0.251-0.109-0.435-0.109h-0.826v2.463
						h0.826c0.184,0,0.328-0.039,0.435-0.117c0.104-0.078,0.183-0.176,0.233-0.295c0.05-0.121,0.082-0.254,0.096-0.4
						S119.211,17.805,119.211,17.668z"/>
					<path fill="#FFFFFF" d="M122.582,24.479v-9.797h1.955v9.797H122.582z"/>
					<path fill="#FFFFFF" d="M131.266,21.686c0,0.496-0.041,0.922-0.122,1.271c-0.084,0.355-0.254,0.654-0.511,0.902
						c-0.221,0.213-0.511,0.385-0.873,0.523c-0.363,0.137-0.783,0.207-1.26,0.207c-0.485,0-0.904-0.066-1.26-0.193
						c-0.353-0.129-0.638-0.305-0.859-0.523c-0.238-0.236-0.406-0.533-0.503-0.887c-0.095-0.354-0.144-0.781-0.144-1.287h1.954
						c0,0.201,0.011,0.377,0.034,0.523s0.08,0.27,0.172,0.371c0.055,0.064,0.131,0.119,0.229,0.164
						c0.094,0.047,0.222,0.068,0.377,0.068c0.285,0,0.49-0.08,0.619-0.246c0.129-0.156,0.193-0.432,0.193-0.826
						c0-0.229-0.014-0.42-0.035-0.57s-0.065-0.275-0.129-0.371c-0.065-0.096-0.152-0.178-0.263-0.242
						c-0.11-0.062-0.251-0.133-0.427-0.207l-1.238-0.508c-0.246-0.1-0.461-0.215-0.641-0.344c-0.179-0.129-0.322-0.285-0.434-0.467
						c-0.109-0.186-0.191-0.41-0.246-0.676c-0.057-0.266-0.084-0.592-0.084-0.977c0-0.459,0.074-0.871,0.221-1.238
						s0.367-0.68,0.66-0.936c0.238-0.203,0.504-0.355,0.798-0.463c0.294-0.104,0.629-0.156,1.005-0.156
						c0.845,0,1.486,0.207,1.926,0.619c0.267,0.246,0.459,0.564,0.579,0.947c0.118,0.387,0.179,0.828,0.179,1.322h-1.955
						c0-0.174-0.006-0.336-0.02-0.488c-0.014-0.15-0.061-0.281-0.145-0.391c-0.055-0.074-0.127-0.135-0.214-0.18
						c-0.087-0.047-0.204-0.068-0.351-0.068c-0.139,0-0.252,0.023-0.344,0.074s-0.166,0.113-0.221,0.186
						c-0.109,0.146-0.164,0.383-0.164,0.703c0,0.156,0.008,0.287,0.027,0.393c0.018,0.104,0.049,0.193,0.096,0.268
						c0.047,0.072,0.115,0.141,0.207,0.199c0.092,0.061,0.206,0.117,0.344,0.172l1.225,0.496c0.312,0.129,0.567,0.264,0.77,0.406
						c0.203,0.141,0.365,0.32,0.489,0.537c0.124,0.213,0.211,0.475,0.261,0.775C131.239,20.873,131.266,21.246,131.266,21.686z"/>
					<path fill="#FFFFFF" d="M135.613,16.443v8.035h-1.953v-8.035h-1.651v-1.762h5.257v1.762H135.613z"/>
					<path fill="#FFFFFF" d="M138.311,18.08v-3.398h1.955v1.953L138.311,18.08z"/>
					<path fill="#FFFFFF" d="M147.007,21.686c0,0.496-0.04,0.922-0.122,1.271c-0.082,0.355-0.255,0.654-0.511,0.902
						c-0.22,0.213-0.511,0.385-0.873,0.523c-0.364,0.137-0.781,0.207-1.261,0.207c-0.484,0-0.904-0.066-1.258-0.193
						c-0.353-0.129-0.639-0.305-0.859-0.523c-0.239-0.236-0.406-0.533-0.504-0.887c-0.096-0.354-0.143-0.781-0.143-1.287h1.953
						c0,0.201,0.012,0.377,0.035,0.523c0.022,0.146,0.079,0.27,0.172,0.371c0.055,0.064,0.131,0.119,0.227,0.164
						c0.097,0.047,0.223,0.068,0.377,0.068c0.285,0,0.492-0.08,0.621-0.246c0.128-0.156,0.191-0.432,0.191-0.826
						c0-0.229-0.012-0.42-0.034-0.57c-0.021-0.15-0.065-0.275-0.13-0.371s-0.15-0.178-0.262-0.242
						c-0.109-0.062-0.253-0.133-0.428-0.207l-1.237-0.508c-0.247-0.1-0.46-0.215-0.639-0.344c-0.181-0.129-0.325-0.285-0.436-0.467
						c-0.109-0.186-0.192-0.41-0.247-0.676s-0.082-0.592-0.082-0.977c0-0.459,0.073-0.871,0.22-1.238
						c0.147-0.367,0.366-0.68,0.661-0.936c0.238-0.203,0.504-0.355,0.797-0.463c0.293-0.104,0.629-0.156,1.004-0.156
						c0.847,0,1.488,0.207,1.927,0.619c0.268,0.246,0.46,0.564,0.579,0.947c0.119,0.387,0.178,0.828,0.178,1.322h-1.953
						c0-0.174-0.008-0.336-0.02-0.488c-0.015-0.15-0.062-0.281-0.145-0.391c-0.056-0.074-0.127-0.135-0.214-0.18
						c-0.087-0.047-0.204-0.068-0.353-0.068c-0.139,0-0.251,0.023-0.342,0.074c-0.092,0.051-0.166,0.113-0.221,0.186
						c-0.109,0.146-0.164,0.383-0.164,0.703c0,0.156,0.008,0.287,0.027,0.393c0.018,0.104,0.05,0.193,0.096,0.268
						c0.046,0.072,0.115,0.141,0.207,0.199c0.092,0.061,0.205,0.117,0.343,0.172l1.224,0.496c0.312,0.129,0.569,0.264,0.771,0.406
						c0.201,0.141,0.365,0.32,0.488,0.537c0.125,0.213,0.211,0.475,0.262,0.775C146.982,20.873,147.007,21.246,147.007,21.686z"/>
					<path fill="#FFFFFF" d="M155.662,22.957c-0.154,0.383-0.363,0.691-0.619,0.932c-0.248,0.236-0.521,0.414-0.824,0.529
						c-0.303,0.113-0.66,0.172-1.074,0.172c-0.275,0-0.52-0.027-0.734-0.076c-0.219-0.051-0.408-0.121-0.578-0.213
						c-0.172-0.092-0.324-0.195-0.455-0.312c-0.135-0.113-0.256-0.238-0.365-0.377c-0.192-0.229-0.338-0.506-0.441-0.832
						c-0.1-0.326-0.172-0.668-0.213-1.031c-0.039-0.363-0.064-0.73-0.068-1.1c-0.005-0.373-0.006-0.725-0.006-1.055
						s0.001-0.684,0.006-1.059c0.004-0.377,0.029-0.746,0.068-1.109c0.041-0.361,0.113-0.705,0.213-1.031
						c0.104-0.326,0.249-0.607,0.441-0.846c0.109-0.139,0.23-0.264,0.365-0.379c0.131-0.113,0.283-0.219,0.455-0.311
						c0.17-0.09,0.359-0.162,0.578-0.213c0.215-0.049,0.459-0.076,0.734-0.076c0.414,0,0.771,0.059,1.074,0.174
						c0.303,0.113,0.576,0.291,0.824,0.529c0.256,0.24,0.463,0.545,0.613,0.922c0.15,0.375,0.236,0.799,0.254,1.266h-1.955
						c-0.01-0.137-0.021-0.271-0.039-0.406c-0.02-0.131-0.057-0.248-0.111-0.352c-0.055-0.117-0.133-0.211-0.232-0.273
						c-0.104-0.064-0.244-0.096-0.428-0.096s-0.324,0.037-0.42,0.109c-0.098,0.074-0.172,0.166-0.227,0.275
						s-0.102,0.266-0.139,0.467c-0.035,0.203-0.064,0.432-0.08,0.688c-0.021,0.256-0.031,0.533-0.037,0.826
						c-0.004,0.295-0.006,0.588-0.006,0.881s0.002,0.588,0.006,0.881c0.006,0.295,0.016,0.568,0.037,0.826
						c0.016,0.254,0.045,0.486,0.08,0.688c0.037,0.201,0.084,0.357,0.139,0.467c0.055,0.111,0.129,0.203,0.227,0.275
						c0.096,0.074,0.236,0.109,0.42,0.109s0.328-0.033,0.434-0.102s0.186-0.162,0.24-0.283c0.057-0.1,0.092-0.217,0.111-0.35
						c0.016-0.133,0.031-0.268,0.039-0.406h1.953C155.904,22.154,155.818,22.578,155.662,22.957z"/>
					<path fill="#FFFFFF" d="M160.672,24.479v-4.1h-1.625v4.1h-1.953v-9.797h1.953v3.938h1.625v-3.938h1.953v9.797H160.672z"/>
					<path fill="#FFFFFF" d="M169.416,22.93c-0.125,0.326-0.307,0.609-0.545,0.848c-0.523,0.541-1.201,0.812-2.033,0.812
						c-0.838,0-1.518-0.271-2.039-0.812c-0.236-0.238-0.42-0.521-0.543-0.848c-0.125-0.322-0.186-0.684-0.186-1.08v-7.168h1.953
						v7.266c0,0.32,0.082,0.547,0.24,0.68c0.162,0.133,0.352,0.199,0.574,0.199c0.219,0,0.408-0.066,0.568-0.199
						s0.24-0.359,0.24-0.68v-7.266h1.955v7.168C169.602,22.246,169.539,22.607,169.416,22.93z"/>
					<path fill="#FFFFFF" d="M174.844,24.479l-1.197-3.811H173v3.811h-1.953v-9.797h2.793c0.531,0,0.977,0.068,1.328,0.207
						c0.352,0.137,0.633,0.332,0.84,0.584c0.205,0.254,0.35,0.564,0.434,0.938c0.082,0.369,0.123,0.791,0.123,1.258
						c0,0.266-0.016,0.52-0.041,0.762c-0.029,0.246-0.082,0.477-0.158,0.695c-0.078,0.221-0.191,0.426-0.336,0.613
						c-0.15,0.189-0.342,0.355-0.578,0.502l1.43,4.238H174.844z M174.609,17.668c0-0.139-0.006-0.279-0.02-0.426
						c-0.014-0.148-0.047-0.281-0.096-0.4c-0.051-0.119-0.129-0.215-0.232-0.289c-0.107-0.072-0.252-0.109-0.436-0.109H173v2.463
						h0.826c0.184,0,0.328-0.039,0.436-0.117c0.104-0.078,0.182-0.176,0.232-0.295c0.049-0.121,0.082-0.254,0.096-0.4
						S174.609,17.805,174.609,17.668z"/>
					<path fill="#FFFFFF" d="M183.072,22.957c-0.156,0.383-0.363,0.691-0.619,0.932c-0.248,0.236-0.521,0.414-0.826,0.529
						c-0.303,0.113-0.66,0.172-1.072,0.172c-0.275,0-0.521-0.027-0.736-0.076c-0.217-0.051-0.408-0.121-0.578-0.213
						c-0.172-0.092-0.322-0.195-0.453-0.312c-0.135-0.113-0.256-0.238-0.365-0.377c-0.193-0.229-0.34-0.506-0.441-0.832
						s-0.172-0.668-0.213-1.031s-0.064-0.73-0.068-1.1c-0.006-0.373-0.008-0.725-0.008-1.055s0.002-0.684,0.008-1.059
						c0.004-0.377,0.027-0.746,0.068-1.109c0.041-0.361,0.111-0.705,0.213-1.031s0.248-0.607,0.441-0.846
						c0.109-0.139,0.23-0.264,0.365-0.379c0.131-0.113,0.281-0.219,0.453-0.311c0.17-0.09,0.361-0.162,0.578-0.213
						c0.215-0.049,0.461-0.076,0.736-0.076c0.412,0,0.77,0.059,1.072,0.174c0.305,0.113,0.578,0.291,0.826,0.529
						c0.256,0.24,0.461,0.545,0.613,0.922c0.15,0.375,0.234,0.799,0.254,1.266h-1.955c-0.008-0.137-0.021-0.271-0.041-0.406
						c-0.018-0.131-0.055-0.248-0.109-0.352c-0.053-0.117-0.133-0.211-0.234-0.273c-0.102-0.064-0.242-0.096-0.426-0.096
						s-0.324,0.037-0.42,0.109c-0.096,0.074-0.174,0.166-0.227,0.275c-0.057,0.109-0.102,0.266-0.139,0.467
						c-0.037,0.203-0.064,0.432-0.082,0.688s-0.029,0.533-0.033,0.826c-0.006,0.295-0.01,0.588-0.01,0.881s0.004,0.588,0.01,0.881
						c0.004,0.295,0.016,0.568,0.033,0.826c0.018,0.254,0.045,0.486,0.082,0.688s0.082,0.357,0.139,0.467
						c0.053,0.111,0.131,0.203,0.227,0.275c0.096,0.074,0.236,0.109,0.42,0.109s0.328-0.033,0.434-0.102s0.186-0.162,0.24-0.283
						c0.057-0.1,0.092-0.217,0.111-0.35c0.018-0.133,0.031-0.268,0.041-0.406h1.953C183.314,22.154,183.23,22.578,183.072,22.957z"
						/>
					<path fill="#FFFFFF" d="M188.082,24.479v-4.1h-1.623v4.1h-1.955v-9.797h1.955v3.938h1.623v-3.938h1.953v9.797H188.082z"/>
				</g>
				<g>
					<path fill="#FFFFFF" d="M106.236,33.209c0,0.867-0.009,1.566-0.029,2.104c-0.018,0.539-0.053,0.967-0.104,1.293
						c-0.052,0.322-0.124,0.576-0.212,0.754c-0.088,0.18-0.209,0.344-0.36,0.496c-0.16,0.158-0.354,0.279-0.585,0.365
						s-0.482,0.127-0.755,0.127c-0.274,0-0.524-0.041-0.757-0.127c-0.23-0.086-0.425-0.207-0.584-0.365
						c-0.151-0.152-0.271-0.316-0.361-0.496c-0.089-0.178-0.158-0.432-0.211-0.754c-0.052-0.326-0.086-0.754-0.106-1.293
						c-0.019-0.537-0.028-1.236-0.028-2.104c0-0.865,0.01-1.564,0.028-2.104c0.021-0.537,0.055-0.965,0.106-1.289
						c0.053-0.326,0.122-0.578,0.211-0.756c0.09-0.178,0.21-0.344,0.361-0.496c0.159-0.158,0.354-0.281,0.584-0.365
						c0.232-0.086,0.482-0.129,0.757-0.129c0.272,0,0.524,0.043,0.755,0.129c0.23,0.084,0.425,0.207,0.585,0.365
						c0.151,0.152,0.272,0.318,0.36,0.496s0.16,0.43,0.212,0.756c0.052,0.324,0.087,0.752,0.104,1.289
						C106.228,31.645,106.236,32.344,106.236,33.209z M105.672,33.209c0-0.836-0.006-1.508-0.021-2.01
						c-0.014-0.504-0.039-0.904-0.076-1.203c-0.039-0.295-0.094-0.516-0.164-0.662c-0.07-0.145-0.162-0.279-0.275-0.402
						c-0.216-0.234-0.531-0.352-0.944-0.352c-0.415,0-0.731,0.117-0.945,0.352c-0.114,0.123-0.206,0.258-0.276,0.402
						c-0.07,0.146-0.125,0.367-0.162,0.662c-0.039,0.299-0.062,0.699-0.078,1.203c-0.015,0.502-0.02,1.174-0.02,2.01
						c0,0.838,0.005,1.51,0.02,2.014c0.016,0.504,0.039,0.902,0.078,1.199c0.037,0.297,0.092,0.516,0.162,0.666
						c0.07,0.143,0.162,0.275,0.276,0.398c0.214,0.236,0.53,0.352,0.945,0.352c0.413,0,0.729-0.115,0.944-0.352
						c0.113-0.123,0.205-0.256,0.275-0.398c0.07-0.15,0.125-0.369,0.164-0.666c0.037-0.297,0.062-0.695,0.076-1.199
						C105.666,34.719,105.672,34.047,105.672,33.209z"/>
					<path fill="#FFFFFF" d="M111.107,28.693v4.262h2.314v0.508h-2.314v4.773h-0.566V28.186h3.248v0.508H111.107z"/>
					<path fill="#FFFFFF" d="M124.756,28.693v9.543h-0.563v-9.543h-1.681v-0.508h3.926v0.508H124.756z"/>
					<path fill="#FFFFFF" d="M133.48,38.236v-4.857h-2.682v4.857h-0.564V28.186h0.564v4.686h2.682v-4.686h0.564v10.051H133.48z"/>
					<path fill="#FFFFFF" d="M138.549,38.236V28.186h3.246v0.508h-2.682v4.262h2.314v0.508h-2.314v4.264h2.682v0.51H138.549z"/>
					<path fill="#FFFFFF" d="M152.975,38.236h-0.535l-2.117-10.051h0.621l1.764,8.893l1.764-8.893h0.621L152.975,38.236z"/>
					<path fill="#FFFFFF" d="M161.586,38.236l-0.607-3.021h-2.344l-0.592,3.021h-0.623l2.16-10.051h0.508l2.119,10.051H161.586z
						 M159.805,29.342l-1.057,5.363h2.133L159.805,29.342z"/>
					<path fill="#FFFFFF" d="M165.748,38.236V28.186h0.566v9.541h2.684v0.51H165.748z"/>
					<path fill="#FFFFFF" d="M172.793,38.236V28.186h0.566v9.541h2.682v0.51H172.793z"/>
					<path fill="#FFFFFF" d="M179.838,38.236V28.186h3.248v0.508h-2.684v4.262h2.316v0.508h-2.316v4.264h2.684v0.51H179.838z"/>
					<path fill="#FFFFFF" d="M188.576,33.93v4.307h-0.566V33.93l-1.693-5.744h0.623l1.354,4.812l1.369-4.812h0.621L188.576,33.93z"
						/>
				</g>
				<path fill="#FFFFFF" d="M118.964,14.957"/>
			</g>
		</g>
	</g>
</g>
<g id="Icon">
	<g>
		<path fill="#FFFFFF" d="M15.707,15.379c-0.865-0.363-1.857,0.391-2.738,1.574c-0.695,0.941-1.25,3.191-0.268,3.701
			c1.403,0.723,2.725-1.045,3.237-1.934C16.555,17.672,16.861,15.877,15.707,15.379z"/>
		<path fill="#FFFFFF" d="M33.427,15.334c-0.864-0.371-1.862,0.389-2.735,1.57c-0.694,0.943-1.254,3.191-0.268,3.705
			c1.4,0.725,2.721-1.051,3.234-1.934C34.272,17.617,34.582,15.828,33.427,15.334z"/>
		<path fill="#FFFFFF" d="M60.807,14.842c-0.863-0.373-1.859,0.391-2.734,1.578c-0.699,0.938-1.256,3.189-0.27,3.695
			c1.406,0.729,2.725-1.049,3.236-1.928C61.652,17.131,61.967,15.342,60.807,14.842z"/>
		<path fill="#FFFFFF" d="M24.292,18.006c-1.354-1.619-12.707,3.371-13.412,8.662c-0.858,6.434,9.993,14.367,11.271,11.967
			c0.542-1.016-8.771-5.482-6.33-11.637C18.367,20.561,25.518,19.477,24.292,18.006z"/>
		<path fill="#FFFFFF" d="M41.898,18.047c-1.352-1.617-12.707,3.371-13.414,8.664c-0.856,6.434,9.498,14.504,11.269,11.967
			c0.663-0.943-8.771-5.48-6.329-11.641C35.971,20.596,43.123,19.518,41.898,18.047z"/>
		<path fill="#FFFFFF" d="M47.717,17.027c-1.025,0.051-1.129,0.285-1.211,0.652c-0.188,0.814,4.872,6.467,5.73,10.244
			c0.938,4.166,0.667,10.225,0.882,10.711c0.255,0.584,0.836,0.279,1.674,0.371c0.842,0.094,1.56,0.699,2.047,0.281
			c0.283-0.281,3.41-10.641,9.503-15.83c6.336-5.398,12.994-8.293,13.13-8.848c0.089-0.344-1.21-1.023-2.419-1.121
			c-1.215-0.096-7.801,3.006-12.482,7.357C59.701,25.385,57.122,31.09,56.281,31c-0.275-0.033-0.695-2.494-2.605-6.797
			C51.6,19.518,48.756,16.98,47.717,17.027z"/>
	</g>
</g>
</svg>
