<?xml version="1.0" encoding="utf-8"?>
<!-- Generator: Adobe Illustrator 16.0.0, SVG Export Plug-In . SVG Version: 6.00 Build 0)  -->
<!DOCTYPE svg PUBLIC "-//W3C//DTD SVG 1.1//EN" "http://www.w3.org/Graphics/SVG/1.1/DTD/svg11.dtd">
<svg version="1.1" id="Layer_1" xmlns="http://www.w3.org/2000/svg" xmlns:xlink="http://www.w3.org/1999/xlink" x="0px" y="0px"
	 width="178px" height="26px" viewBox="0 0 178 26" enable-background="new 0 0 178 26" xml:space="preserve">
<path fill="#333333" d="M9.9,1.92C9.035,1.558,8.043,2.312,7.162,3.494c-0.695,0.94-1.25,3.19-0.268,3.7
	C8.297,7.918,9.619,6.149,10.13,5.26C10.748,4.213,11.055,2.418,9.9,1.92z"/>
<path fill="#333333" d="M27.619,1.876c-0.864-0.371-1.862,0.389-2.735,1.57c-0.694,0.943-1.254,3.191-0.268,3.705
	c1.399,0.725,2.721-1.051,3.233-1.935C28.465,4.159,28.775,2.37,27.619,1.876z"/>
<path fill="#333333" d="M55,1.383c-0.863-0.373-1.859,0.392-2.734,1.578c-0.699,0.938-1.256,3.188-0.27,3.694
	c1.406,0.729,2.725-1.049,3.236-1.928C55.846,3.672,56.16,1.883,55,1.383z"/>
<path fill="#333333" d="M18.484,4.547C17.13,2.928,5.777,7.918,5.072,13.209c-0.858,6.434,9.992,14.367,11.271,11.967
	c0.542-1.016-8.771-5.48-6.329-11.637C12.561,7.103,19.71,6.019,18.484,4.547z"/>
<path fill="#333333" d="M36.091,4.588c-1.353-1.616-12.707,3.371-13.415,8.664c-0.855,6.434,9.498,14.504,11.27,11.967
	c0.662-0.941-8.771-5.479-6.329-11.641C30.163,7.137,37.316,6.06,36.091,4.588z"/>
<path fill="#333333" d="M41.909,3.569c-1.025,0.051-1.128,0.285-1.21,0.652c-0.188,0.813,4.871,6.467,5.73,10.243
	c0.938,4.166,0.666,10.228,0.881,10.711c0.256,0.584,0.836,0.279,1.674,0.371c0.843,0.095,1.561,0.699,2.048,0.281
	c0.282-0.281,3.409-10.644,9.503-15.83C66.871,4.6,73.529,1.704,73.664,1.148c0.089-0.344-1.209-1.022-2.418-1.121
	c-1.215-0.096-7.801,3.007-12.482,7.357c-4.869,4.539-7.449,10.244-8.289,10.154c-0.274-0.033-0.695-2.494-2.605-6.797
	C45.792,6.06,42.949,3.522,41.909,3.569z"/>
<path fill="#333333" d="M90.113,9.499c-0.154,0.383-0.36,0.691-0.618,0.932c-0.248,0.236-0.522,0.414-0.825,0.529
	c-0.303,0.113-0.661,0.172-1.074,0.172c-0.272,0-0.519-0.027-0.736-0.076c-0.213-0.051-0.407-0.121-0.577-0.213
	c-0.171-0.092-0.323-0.195-0.453-0.312c-0.136-0.112-0.255-0.237-0.365-0.377c-0.192-0.229-0.34-0.506-0.442-0.832
	c-0.1-0.325-0.17-0.668-0.211-1.03c-0.043-0.363-0.064-0.729-0.068-1.101c-0.004-0.373-0.008-0.725-0.008-1.055
	c0-0.33,0.004-0.684,0.008-1.059c0.004-0.377,0.027-0.746,0.068-1.109c0.041-0.361,0.111-0.705,0.211-1.031
	c0.103-0.326,0.25-0.606,0.442-0.846c0.11-0.139,0.229-0.264,0.365-0.379c0.13-0.113,0.282-0.219,0.453-0.311
	c0.169-0.09,0.362-0.162,0.577-0.213c0.218-0.05,0.463-0.076,0.736-0.076c0.413,0,0.771,0.059,1.074,0.174
	c0.303,0.113,0.577,0.291,0.825,0.529c0.257,0.239,0.46,0.545,0.612,0.922c0.148,0.375,0.234,0.799,0.254,1.266h-1.953
	c-0.01-0.137-0.021-0.271-0.042-0.406c-0.019-0.131-0.056-0.248-0.11-0.352c-0.055-0.117-0.133-0.211-0.234-0.273
	c-0.101-0.064-0.242-0.096-0.428-0.096c-0.182,0-0.32,0.037-0.418,0.109C87.079,3.06,87.005,3.151,86.95,3.26
	c-0.058,0.109-0.103,0.267-0.14,0.468c-0.037,0.202-0.062,0.432-0.082,0.688c-0.017,0.256-0.028,0.533-0.035,0.826
	c-0.004,0.295-0.006,0.588-0.006,0.881s0.002,0.588,0.006,0.881c0.007,0.295,0.019,0.568,0.035,0.826
	c0.02,0.254,0.045,0.486,0.082,0.688c0.037,0.202,0.082,0.357,0.14,0.467c0.055,0.111,0.129,0.203,0.226,0.275
	c0.098,0.074,0.237,0.109,0.418,0.109c0.187,0,0.328-0.033,0.437-0.102c0.104-0.068,0.186-0.162,0.239-0.283
	c0.057-0.101,0.093-0.217,0.11-0.351c0.019-0.133,0.033-0.269,0.042-0.405h1.954C90.359,8.696,90.271,9.12,90.113,9.499z"/>
<path fill="#333333" d="M95.124,11.021V6.92H93.5v4.101h-1.953V1.224H93.5v3.938h1.624V1.224h1.954v9.797H95.124z"/>
<path fill="#333333" d="M102.389,11.021l-1.195-3.812h-0.647v3.812h-1.953V1.224h2.792c0.532,0,0.977,0.067,1.328,0.207
	c0.354,0.137,0.633,0.332,0.84,0.584c0.209,0.254,0.354,0.563,0.436,0.938c0.082,0.369,0.123,0.791,0.123,1.258
	c0,0.266-0.016,0.52-0.041,0.762c-0.028,0.246-0.08,0.478-0.158,0.695c-0.079,0.221-0.191,0.426-0.338,0.613
	s-0.338,0.354-0.579,0.502l1.432,4.238H102.389L102.389,11.021z M102.154,4.209c0-0.14-0.006-0.278-0.021-0.426
	c-0.014-0.148-0.046-0.281-0.096-0.4c-0.051-0.118-0.129-0.215-0.232-0.289c-0.104-0.071-0.252-0.108-0.436-0.108h-0.827v2.463
	h0.827c0.184,0,0.328-0.039,0.436-0.117c0.104-0.078,0.184-0.176,0.232-0.295c0.05-0.121,0.082-0.254,0.096-0.4
	C102.146,4.489,102.154,4.347,102.154,4.209z"/>
<path fill="#333333" d="M105.525,11.021V1.224h1.955v9.797H105.525z"/>
<path fill="#333333" d="M114.208,8.228c0,0.496-0.041,0.922-0.122,1.271c-0.084,0.354-0.254,0.653-0.511,0.901
	c-0.222,0.213-0.511,0.386-0.873,0.523c-0.363,0.137-0.784,0.207-1.261,0.207c-0.484,0-0.903-0.066-1.262-0.193
	c-0.353-0.129-0.638-0.305-0.857-0.522c-0.238-0.235-0.405-0.533-0.502-0.888c-0.098-0.354-0.146-0.78-0.146-1.286h1.954
	c0,0.2,0.011,0.377,0.035,0.522c0.022,0.146,0.08,0.271,0.171,0.371c0.055,0.064,0.131,0.119,0.229,0.164
	c0.095,0.047,0.222,0.068,0.377,0.068c0.283,0,0.488-0.08,0.617-0.246c0.131-0.156,0.193-0.432,0.193-0.826
	c0-0.229-0.014-0.42-0.035-0.57c-0.021-0.149-0.062-0.274-0.129-0.371c-0.064-0.096-0.15-0.178-0.264-0.242
	c-0.109-0.062-0.25-0.133-0.426-0.207l-1.238-0.508c-0.246-0.1-0.461-0.215-0.641-0.344c-0.182-0.129-0.322-0.285-0.436-0.467
	c-0.109-0.186-0.189-0.41-0.246-0.676c-0.057-0.266-0.084-0.592-0.084-0.977c0-0.459,0.074-0.871,0.221-1.238
	c0.146-0.367,0.367-0.68,0.66-0.937c0.238-0.202,0.503-0.354,0.799-0.463c0.295-0.104,0.631-0.155,1.006-0.155
	c0.846,0,1.484,0.207,1.926,0.618c0.267,0.246,0.459,0.563,0.58,0.947c0.117,0.387,0.178,0.828,0.178,1.321h-1.955
	c0-0.174-0.006-0.336-0.02-0.487c-0.017-0.149-0.062-0.281-0.146-0.392c-0.055-0.073-0.127-0.135-0.214-0.18
	c-0.087-0.047-0.204-0.068-0.351-0.068c-0.142,0-0.254,0.023-0.347,0.074c-0.092,0.051-0.166,0.113-0.221,0.187
	c-0.11,0.146-0.164,0.383-0.164,0.702c0,0.156,0.007,0.287,0.026,0.394c0.019,0.104,0.049,0.193,0.096,0.269
	c0.047,0.072,0.115,0.141,0.208,0.199c0.092,0.061,0.206,0.116,0.344,0.172l1.228,0.496c0.312,0.129,0.564,0.264,0.769,0.405
	s0.366,0.32,0.489,0.537c0.125,0.213,0.212,0.476,0.262,0.774C114.182,7.415,114.208,7.788,114.208,8.228z"/>
<path fill="#333333" d="M118.557,2.985v8.035h-1.953V2.985h-1.649V1.224h5.257v1.762L118.557,2.985L118.557,2.985z"/>
<path fill="#333333" d="M121.253,4.622V1.224h1.955v1.953L121.253,4.622z"/>
<path fill="#333333" d="M129.95,8.228c0,0.496-0.041,0.922-0.123,1.271c-0.082,0.354-0.254,0.653-0.511,0.901
	c-0.221,0.213-0.512,0.386-0.873,0.523c-0.364,0.137-0.781,0.207-1.262,0.207c-0.482,0-0.902-0.066-1.259-0.193
	c-0.353-0.129-0.639-0.305-0.856-0.522c-0.239-0.235-0.406-0.533-0.504-0.888c-0.099-0.354-0.146-0.78-0.146-1.286h1.954
	c0,0.2,0.012,0.377,0.035,0.522c0.021,0.146,0.078,0.271,0.172,0.371c0.055,0.064,0.13,0.119,0.227,0.164
	c0.098,0.047,0.225,0.068,0.377,0.068c0.284,0,0.491-0.08,0.621-0.246c0.127-0.156,0.19-0.432,0.19-0.826
	c0-0.229-0.013-0.42-0.035-0.57c-0.021-0.149-0.063-0.274-0.13-0.371c-0.064-0.096-0.15-0.178-0.262-0.242
	c-0.109-0.062-0.252-0.133-0.43-0.207l-1.234-0.508c-0.248-0.1-0.461-0.215-0.641-0.344c-0.182-0.129-0.324-0.285-0.437-0.467
	c-0.109-0.186-0.193-0.41-0.247-0.676c-0.055-0.266-0.082-0.592-0.082-0.977c0-0.459,0.072-0.871,0.22-1.238
	c0.147-0.367,0.366-0.68,0.661-0.937c0.238-0.202,0.504-0.354,0.797-0.463c0.293-0.104,0.629-0.155,1.004-0.155
	c0.85,0,1.488,0.207,1.93,0.618c0.267,0.246,0.459,0.563,0.578,0.947c0.117,0.387,0.178,0.828,0.178,1.321h-1.952
	c0-0.174-0.009-0.336-0.021-0.487c-0.016-0.149-0.062-0.281-0.145-0.392c-0.057-0.073-0.127-0.135-0.214-0.18
	c-0.087-0.047-0.204-0.068-0.354-0.068c-0.139,0-0.251,0.023-0.342,0.074c-0.092,0.051-0.166,0.113-0.221,0.187
	c-0.109,0.146-0.164,0.383-0.164,0.702c0,0.156,0.008,0.287,0.027,0.394c0.018,0.104,0.051,0.193,0.097,0.269
	c0.046,0.072,0.114,0.141,0.207,0.199c0.092,0.061,0.204,0.116,0.343,0.172l1.225,0.496c0.312,0.129,0.568,0.264,0.771,0.405
	c0.201,0.142,0.365,0.32,0.488,0.537c0.125,0.213,0.211,0.476,0.262,0.774C129.925,7.415,129.95,7.788,129.95,8.228z"/>
<path fill="#333333" d="M138.605,9.499c-0.154,0.383-0.363,0.691-0.621,0.932c-0.248,0.236-0.521,0.414-0.823,0.529
	c-0.304,0.113-0.66,0.172-1.074,0.172c-0.272,0-0.521-0.027-0.733-0.076c-0.22-0.051-0.406-0.121-0.576-0.213
	c-0.174-0.092-0.324-0.195-0.455-0.312c-0.137-0.112-0.256-0.237-0.365-0.377c-0.191-0.229-0.338-0.506-0.441-0.832
	c-0.1-0.325-0.172-0.668-0.213-1.03c-0.039-0.363-0.062-0.729-0.066-1.101c-0.008-0.373-0.008-0.725-0.008-1.055
	c0-0.33,0.002-0.684,0.008-1.059c0.004-0.377,0.027-0.746,0.066-1.109c0.041-0.361,0.113-0.705,0.213-1.031
	c0.104-0.326,0.25-0.606,0.441-0.846c0.109-0.139,0.229-0.264,0.365-0.379c0.131-0.113,0.281-0.219,0.455-0.311
	c0.17-0.09,0.356-0.162,0.576-0.213c0.217-0.05,0.459-0.076,0.733-0.076c0.414,0,0.771,0.059,1.074,0.174
	c0.303,0.113,0.575,0.291,0.823,0.529c0.257,0.239,0.464,0.545,0.613,0.922c0.149,0.375,0.235,0.799,0.256,1.266h-1.957
	c-0.01-0.137-0.021-0.271-0.039-0.406c-0.021-0.131-0.059-0.248-0.11-0.352c-0.056-0.117-0.133-0.211-0.233-0.273
	c-0.103-0.064-0.242-0.096-0.427-0.096c-0.183,0-0.323,0.037-0.42,0.109c-0.097,0.074-0.171,0.166-0.226,0.274
	c-0.058,0.109-0.104,0.267-0.142,0.468c-0.034,0.202-0.062,0.432-0.079,0.688c-0.021,0.256-0.029,0.533-0.037,0.826
	c-0.004,0.295-0.007,0.588-0.007,0.881s0.001,0.588,0.007,0.881c0.008,0.295,0.018,0.568,0.037,0.826
	c0.018,0.254,0.045,0.486,0.079,0.688c0.038,0.201,0.084,0.357,0.142,0.467c0.055,0.111,0.129,0.203,0.226,0.275
	c0.097,0.074,0.237,0.109,0.42,0.109c0.185,0,0.328-0.033,0.437-0.102c0.104-0.07,0.185-0.162,0.238-0.283
	c0.059-0.101,0.094-0.217,0.111-0.351c0.016-0.133,0.031-0.269,0.039-0.405h1.953C138.848,8.696,138.762,9.12,138.605,9.499z"/>
<path fill="#333333" d="M143.613,11.021V6.92h-1.625v4.101h-1.952V1.224h1.952v3.938h1.625V1.224h1.953v9.797H143.613z"/>
<path fill="#333333" d="M152.357,9.472c-0.125,0.325-0.309,0.608-0.543,0.848c-0.523,0.541-1.201,0.812-2.033,0.812
	c-0.838,0-1.521-0.271-2.039-0.812c-0.236-0.238-0.42-0.521-0.543-0.848c-0.125-0.322-0.188-0.685-0.188-1.08V1.224h1.953V8.49
	c0,0.32,0.082,0.547,0.24,0.68c0.162,0.133,0.353,0.199,0.575,0.199c0.218,0,0.406-0.066,0.566-0.199
	c0.159-0.133,0.239-0.359,0.239-0.68V1.224h1.955v7.168C152.544,8.788,152.48,9.149,152.357,9.472z"/>
<path fill="#333333" d="M157.787,11.021l-1.197-3.812h-0.646v3.812h-1.953V1.224h2.793c0.531,0,0.977,0.067,1.328,0.207
	c0.352,0.137,0.633,0.332,0.84,0.584c0.205,0.254,0.35,0.563,0.434,0.938c0.082,0.369,0.123,0.791,0.123,1.258
	c0,0.266-0.016,0.52-0.041,0.762c-0.029,0.246-0.082,0.478-0.158,0.695c-0.076,0.221-0.189,0.426-0.336,0.613
	c-0.147,0.188-0.342,0.354-0.578,0.502l1.432,4.238H157.787L157.787,11.021z M157.552,4.209c0-0.14-0.005-0.278-0.02-0.426
	c-0.017-0.148-0.048-0.281-0.095-0.4c-0.054-0.118-0.131-0.215-0.232-0.289c-0.107-0.071-0.252-0.108-0.438-0.108h-0.824v2.463
	h0.824c0.186,0,0.328-0.039,0.438-0.117c0.104-0.078,0.182-0.176,0.232-0.295c0.047-0.121,0.08-0.254,0.095-0.4
	C157.546,4.489,157.552,4.347,157.552,4.209z"/>
<path fill="#333333" d="M166.016,9.499c-0.154,0.383-0.361,0.691-0.617,0.932c-0.25,0.236-0.521,0.414-0.828,0.529
	c-0.303,0.113-0.659,0.172-1.071,0.172c-0.274,0-0.521-0.027-0.735-0.076c-0.218-0.051-0.406-0.121-0.578-0.213
	c-0.172-0.092-0.322-0.195-0.451-0.312c-0.137-0.112-0.258-0.237-0.366-0.377c-0.193-0.229-0.339-0.506-0.441-0.832
	c-0.102-0.325-0.171-0.668-0.213-1.03c-0.041-0.363-0.062-0.729-0.067-1.101c-0.006-0.373-0.008-0.725-0.008-1.055
	c0-0.33,0-0.684,0.008-1.059c0.006-0.377,0.026-0.746,0.067-1.109c0.042-0.361,0.111-0.705,0.213-1.031
	c0.104-0.326,0.249-0.606,0.441-0.846c0.108-0.139,0.229-0.264,0.366-0.379c0.129-0.113,0.279-0.219,0.451-0.311
	c0.172-0.09,0.36-0.162,0.578-0.213c0.215-0.05,0.461-0.076,0.735-0.076c0.412,0,0.771,0.059,1.071,0.174
	c0.306,0.113,0.578,0.291,0.828,0.529c0.256,0.239,0.459,0.545,0.61,0.922c0.15,0.375,0.234,0.799,0.255,1.266h-1.955
	c-0.009-0.137-0.021-0.271-0.041-0.406c-0.019-0.131-0.056-0.248-0.107-0.352c-0.053-0.117-0.133-0.211-0.235-0.273
	c-0.101-0.064-0.241-0.096-0.425-0.096s-0.325,0.037-0.42,0.109c-0.096,0.074-0.173,0.166-0.229,0.274
	c-0.057,0.109-0.102,0.267-0.139,0.468c-0.037,0.202-0.062,0.432-0.082,0.688c-0.018,0.256-0.029,0.533-0.033,0.826
	c-0.006,0.295-0.01,0.588-0.01,0.881s0.003,0.588,0.01,0.881c0.004,0.295,0.019,0.568,0.033,0.826
	c0.02,0.254,0.045,0.486,0.082,0.688c0.038,0.201,0.082,0.357,0.139,0.467c0.056,0.111,0.133,0.203,0.229,0.275
	c0.096,0.074,0.236,0.109,0.42,0.109s0.328-0.033,0.434-0.102c0.105-0.068,0.188-0.162,0.239-0.283
	c0.06-0.101,0.093-0.217,0.112-0.351c0.018-0.133,0.031-0.269,0.041-0.405h1.953C166.257,8.696,166.173,9.12,166.016,9.499z"/>
<path fill="#333333" d="M171.025,11.021V6.92h-1.623v4.101h-1.955V1.224h1.955v3.938h1.623V1.224h1.951v9.797H171.025z"/>
<path fill="#333333" d="M89.055,19.951c0,0.867-0.01,1.564-0.029,2.104s-0.053,0.969-0.104,1.293
	c-0.052,0.322-0.124,0.576-0.212,0.754c-0.088,0.183-0.209,0.347-0.361,0.496c-0.16,0.158-0.354,0.279-0.584,0.365
	c-0.229,0.086-0.481,0.127-0.755,0.127c-0.274,0-0.399-0.041-0.632-0.127c-0.23-0.086-0.424-0.207-0.583-0.365
	c-0.151-0.149-0.271-0.313-0.362-0.496c-0.088-0.178-0.158-0.432-0.209-0.754c-0.053-0.324-0.087-0.754-0.106-1.293
	c-0.019-0.537-0.029-1.234-0.029-2.104c0-0.865,0.011-1.564,0.029-2.104c0.021-0.537,0.055-0.966,0.106-1.289
	c0.051-0.324,0.121-0.578,0.209-0.757c0.09-0.178,0.211-0.344,0.362-0.495c0.159-0.156,0.354-0.279,0.583-0.363
	c0.232-0.088,0.357-0.131,0.632-0.131c0.273,0,0.525,0.043,0.755,0.131c0.23,0.084,0.424,0.207,0.584,0.363
	c0.152,0.151,0.273,0.317,0.361,0.495c0.088,0.179,0.16,0.433,0.212,0.757c0.052,0.323,0.087,0.752,0.104,1.289
	C89.045,18.386,89.055,19.085,89.055,19.951z M88.489,19.951c0-0.836-0.005-1.508-0.021-2.01c-0.014-0.506-0.038-0.904-0.075-1.203
	c-0.039-0.295-0.095-0.519-0.164-0.662c-0.07-0.146-0.162-0.279-0.275-0.402c-0.217-0.232-0.531-0.352-0.945-0.352
	c-0.415,0-0.605,0.117-0.82,0.352c-0.113,0.123-0.205,0.258-0.275,0.402c-0.071,0.146-0.125,0.367-0.162,0.662
	c-0.04,0.299-0.062,0.697-0.078,1.203c-0.015,0.502-0.02,1.174-0.02,2.01c0,0.838,0.004,1.51,0.02,2.014
	c0.016,0.504,0.039,0.902,0.078,1.199c0.037,0.297,0.091,0.516,0.162,0.666c0.07,0.143,0.162,0.273,0.275,0.396
	c0.215,0.235,0.405,0.354,0.82,0.354c0.414,0,0.729-0.115,0.945-0.354c0.113-0.123,0.205-0.257,0.275-0.396
	c0.069-0.15,0.125-0.369,0.164-0.666c0.037-0.297,0.062-0.695,0.075-1.199C88.484,21.46,88.489,20.789,88.489,19.951z"/>
<path fill="#333333" d="M94.05,15.529v3.979h2.313v0.508H94.05v4.961h-0.563V15.02h3.248v0.511L94.05,15.529L94.05,15.529z"/>
<path fill="#333333" d="M107.699,15.529v9.447h-0.564v-9.447h-1.68v-0.51h3.926v0.51H107.699z"/>
<path fill="#333333" d="M116.423,24.979v-4.949h-2.681v4.949h-0.565V14.927h0.565v4.593h2.681v-4.593h0.565v10.052H116.423z"/>
<path fill="#333333" d="M121.492,24.979V14.927h3.246v0.509h-2.684v4.073h2.314v0.509h-2.314v4.45h2.684v0.511H121.492z"/>
<path fill="#333333" d="M135.75,24.979h-0.535l-2.117-10.052h0.621l1.766,8.896l1.765-8.896h0.621L135.75,24.979z"/>
<path fill="#333333" d="M144.404,24.729l-0.607-3.021h-2.344l-0.592,3.021h-0.623l2.16-10.052h0.508l2.119,10.052H144.404z
	 M142.622,15.834l-1.056,5.363h2.132L142.622,15.834z"/>
<path fill="#333333" d="M148.453,24.979V14.927h0.564v9.541h2.686v0.511H148.453z"/>
<path fill="#333333" d="M155.498,24.979V14.927h0.566v9.541h2.682v0.511H155.498z"/>
<path fill="#333333" d="M162.268,24.979V14.927h3.248v0.509h-2.684v4.073h2.316v0.509h-2.316v4.45h2.684v0.511H162.268z"/>
<path fill="#333333" d="M170.744,20.671v4.308h-0.566v-4.308l-1.691-5.744h0.623l1.354,4.812l1.369-4.812h0.621L170.744,20.671z"/>
<path fill="#333333" d="M101.906,1.499"/>
</svg>
