<svg width="100" height="100" viewBox="0 0 100 100" fill="none" xmlns="http://www.w3.org/2000/svg">
<path d="M100 91.6682V100C100 97.1613 99.765 94.3779 99.3088 91.6682C98.8295 88.8018 98.106 86.0138 97.1567 83.3364C96.1291 80.424 94.8387 77.6359 93.318 75.0046C92.7927 74.0968 92.2443 73.2074 91.6636 72.341C90.3364 70.3456 88.871 68.4516 87.2811 66.6728C86.0369 65.2857 84.7189 63.9631 83.3318 62.7235C81.553 61.1336 79.659 59.6682 77.6636 58.341C76.7927 57.765 75.9033 57.212 75 56.6866C72.3641 55.1659 69.5761 53.8756 66.6682 52.8479C63.9862 51.9032 61.2028 51.1797 58.3364 50.6959C55.6268 50.2442 52.8433 50.0046 50.0046 50.0046C52.8433 50.0046 55.6268 49.7696 58.3364 49.3134C61.2028 48.8341 63.9908 48.1106 66.6682 47.1613C69.5807 46.1336 72.3687 44.8433 75 43.3226C75.9079 42.7972 76.7973 42.2488 77.6636 41.6682C79.659 40.341 81.553 38.8756 83.3318 37.2857C84.7189 36.0415 86.0415 34.7235 87.2811 33.3364C88.871 31.5576 90.3364 29.6636 91.6636 27.6682C92.2397 26.7972 92.7927 25.9078 93.318 25.0046C94.8387 22.3687 96.1291 19.5806 97.1567 16.6728C98.1014 13.9908 98.8249 11.2074 99.3088 8.34101C99.7604 5.63134 100 2.84793 100 0.00921631V91.6774V91.6682Z" fill="#FF5F1E"/>
<path d="M41.6682 49.3088C44.3779 49.7604 47.1613 50 50 50C47.1613 50 44.3779 50.235 41.6682 50.6912C38.8019 51.1705 36.0139 51.894 33.3364 52.8433C30.424 53.871 27.636 55.1613 25.0046 56.682C24.0968 57.2074 23.2074 57.7558 22.341 58.3364C20.3457 59.6636 18.4516 61.129 16.6728 62.7189C15.2857 63.9631 13.9632 65.2811 12.7235 66.6682C11.1337 68.447 9.66823 70.341 8.34104 72.3364C7.76501 73.2074 7.21201 74.0968 6.68667 75C5.16593 77.6359 3.87561 80.424 2.84796 83.3318C1.90326 86.0138 1.17975 88.7972 0.695883 91.6636C0.24427 94.3733 0.00463867 97.1567 0.00463867 99.9954V0C0.00463867 2.83871 0.239662 5.62212 0.695883 8.3318C1.17515 11.1982 1.89865 13.9862 2.84796 16.6636C3.87561 19.576 5.16593 22.3641 6.68667 24.9954C7.21201 25.9032 7.7604 26.7926 8.34104 27.659C9.66823 29.6544 11.1337 31.5484 12.7235 33.3272C13.9678 34.7143 15.2857 36.0369 16.6728 37.2765C18.4516 38.8664 20.3457 40.3318 22.341 41.659C23.212 42.235 24.1014 42.788 25.0046 43.3134C27.6406 44.8341 30.4286 46.1244 33.3364 47.1521C36.0185 48.0968 38.8019 48.8203 41.6682 49.3041V49.3088Z" fill="#FF5F1E"/>
<path d="M100 100H0C0 97.1613 0.235023 94.3779 0.691244 91.6682C1.17051 88.8018 1.89401 86.0138 2.84332 83.3364C3.87097 80.424 5.16129 77.6359 6.68203 75.0046C7.20737 74.0968 7.75576 73.2074 8.33641 72.341C9.66359 70.3456 11.129 68.4516 12.7189 66.6728C13.9631 65.2857 15.2811 63.9631 16.6682 62.7235C18.447 61.1336 20.341 59.6682 22.3364 58.341C23.2074 57.765 24.0968 57.212 25 56.6866C27.6359 55.1659 30.424 53.8756 33.3318 52.8479C36.0138 51.9032 38.7972 51.1797 41.6636 50.6959C44.3733 50.2442 47.1567 50.0046 49.9954 50.0046C52.8341 50.0046 55.6175 50.2396 58.3272 50.6959C61.1936 51.1751 63.9816 51.8986 66.659 52.8479C69.5714 53.8756 72.3594 55.1659 74.9908 56.6866C75.8986 57.212 76.788 57.7604 77.6544 58.341C79.6498 59.6682 81.5438 61.1336 83.3226 62.7235C84.7097 63.9677 86.0323 65.2857 87.2719 66.6728C88.8618 68.4516 90.3272 70.3456 91.6544 72.341C92.2304 73.212 92.7834 74.1014 93.3088 75.0046C94.8295 77.6405 96.1198 80.4286 97.1475 83.3364C98.0922 86.0184 98.8157 88.8018 99.2995 91.6682C99.7512 94.3779 99.9908 97.1613 99.9908 100H100ZM83.3456 75C83.3456 75 83.3364 74.9862 83.3318 74.9816V75H83.3456ZM75 66.6682H75.0184C75.0184 66.6682 75.0046 66.659 75 66.6544V66.6682ZM25 66.6682V66.6544C25 66.6544 24.9862 66.6636 24.9816 66.6682H25ZM16.6682 75V74.9816C16.6682 74.9816 16.659 74.9954 16.6544 75H16.6682Z" fill="#FCE6EF"/>
<path d="M91.6682 0H100C100 2.83871 99.765 5.62212 99.3088 8.3318C98.8295 11.1982 98.106 13.9862 97.1567 16.6636C96.129 19.576 94.8387 22.3641 93.318 24.9954C92.7926 25.9032 92.2442 26.7926 91.6636 27.659C90.3364 29.6544 88.871 31.5484 87.2811 33.3272C86.0369 34.7143 84.7189 36.0369 83.3318 37.2765C81.553 38.8664 79.659 40.3318 77.6636 41.659C76.7926 42.235 75.9032 42.788 75 43.3134C72.3641 44.8341 69.576 46.1244 66.6682 47.1521C63.9862 48.0968 61.2028 48.8203 58.3364 49.3041C55.6267 49.7558 52.8433 49.9954 50.0046 49.9954C47.1659 49.9954 44.3825 49.7604 41.6728 49.3041C38.8065 48.8249 36.0184 48.1014 33.341 47.1521C30.4286 46.1244 27.6406 44.8341 25.0092 43.3134C24.1014 42.788 23.212 42.2396 22.3456 41.659C20.3502 40.3318 18.4562 38.8664 16.6774 37.2765C15.2903 36.0323 13.9677 34.7143 12.7281 33.3272C11.1382 31.5484 9.67281 29.6544 8.34562 27.659C7.76959 26.788 7.21659 25.8986 6.69124 24.9954C5.17051 22.3594 3.88018 19.5714 2.85253 16.6636C1.90783 13.9816 1.18433 11.1982 0.700461 8.3318C0.235023 5.62212 0 2.83871 0 0H91.6682ZM83.3364 25.0184C83.3364 25.0184 83.3456 25.0046 83.3502 25H83.3364V25.0184ZM75.0046 33.3456C75.0046 33.3456 75.0184 33.3364 75.023 33.3318H75.0046V33.3456ZM25.0046 33.3456V33.3318H24.9862C24.9862 33.3318 25 33.341 25.0046 33.3456ZM16.6728 25.0184V25H16.659C16.659 25 16.6682 25.0138 16.6728 25.0184Z" fill="#EE79C7"/>
</svg>
