<svg width="100" height="100" viewBox="0 0 100 100" fill="none" xmlns="http://www.w3.org/2000/svg">
<rect x="100" y="100" width="100" height="100" transform="rotate(-180 100 100)" fill="#EE79C7"/>
<path fill-rule="evenodd" clip-rule="evenodd" d="M0.00695888 100L50.007 50L0.00696762 -2.63416e-06L0.00695888 100Z" fill="#00449B"/>
<path fill-rule="evenodd" clip-rule="evenodd" d="M99.9904 0L49.9904 50L99.9904 100L99.9904 0Z" fill="#FF5F1E"/>
<path d="M50.0047 25.0184L50.0047 75.0184C48.5853 75.0184 47.1936 74.9009 45.8388 74.6728C44.4056 74.4332 43.0116 74.0714 41.6729 73.5968C40.2166 73.0829 38.8226 72.4378 37.507 71.6774C37.053 71.4147 36.6083 71.1406 36.1752 70.8502C35.1775 70.1866 34.2305 69.4539 33.3411 68.659C32.6475 68.0369 31.9862 67.3779 31.3664 66.6843C30.5715 65.7949 29.8388 64.8479 29.1752 63.8502C28.8871 63.4147 28.6106 62.97 28.348 62.5184C27.5876 61.2005 26.9424 59.8065 26.4286 58.3525C25.9563 57.0115 25.5945 55.6198 25.3526 54.1866C25.1268 52.8318 25.007 51.4401 25.007 50.0207C25.007 48.6014 25.1245 47.2097 25.3526 45.8548C25.5922 44.4217 25.954 43.0277 26.4286 41.6889C26.9424 40.2327 27.5876 38.8387 28.348 37.523C28.6106 37.0691 28.8848 36.6244 29.1752 36.1912C29.8388 35.1935 30.5715 34.2465 31.3664 33.3571C31.9885 32.6636 32.6475 32.0023 33.3411 31.3825C34.2305 30.5876 35.1775 29.8548 36.1752 29.1912C36.6106 28.9032 37.0553 28.6267 37.507 28.3641C38.8249 27.6037 40.2189 26.9585 41.6729 26.4447C43.0139 25.9723 44.4056 25.6106 45.8388 25.3687C47.1936 25.1429 48.5853 25.023 50.0047 25.023L50.0047 25.0184ZM37.5047 33.3456C37.5047 33.3456 37.4977 33.3502 37.4954 33.3525L37.5047 33.3525L37.5047 33.3456ZM33.3388 37.5184L33.3388 37.5092C33.3388 37.5092 33.3341 37.5161 33.3318 37.5184L33.3388 37.5184ZM33.3388 62.5184L33.3318 62.5184C33.3318 62.5184 33.3364 62.5253 33.3388 62.5276L33.3388 62.5184ZM37.5047 66.6843L37.4954 66.6843C37.4954 66.6843 37.5023 66.6889 37.5047 66.6912L37.5047 66.6843Z" fill="#FF5F1E"/>
<path d="M50.0046 75.0184L50.0046 25.0184C51.424 25.0184 52.8157 25.1359 54.1705 25.3641C55.6037 25.6037 56.9977 25.9654 58.3364 26.4401C59.7926 26.9539 61.1867 27.5991 62.5023 28.3594C62.9562 28.6221 63.4009 28.8963 63.8341 29.1866C64.8318 29.8502 65.7788 30.5829 66.6682 31.3779C67.3618 32 68.0231 32.659 68.6429 33.3525C69.4378 34.2419 70.1705 35.1889 70.8341 36.1866C71.1221 36.6221 71.3986 37.0668 71.6613 37.5184C72.4217 38.8364 73.0668 40.2304 73.5807 41.6843C74.053 43.0253 74.4148 44.4171 74.6567 45.8502C74.8825 47.2051 75.0023 48.5968 75.0023 50.0161C75.0023 51.4355 74.8848 52.8272 74.6567 54.182C74.4171 55.6152 74.0553 57.0092 73.5807 58.3479C73.0668 59.8041 72.4217 61.1982 71.6613 62.5138C71.3986 62.9677 71.1244 63.4124 70.8341 63.8456C70.1705 64.8433 69.4378 65.7903 68.6429 66.6797C68.0208 67.3733 67.3618 68.0346 66.6682 68.6544C65.7788 69.4493 64.8318 70.182 63.8341 70.8456C63.3986 71.1336 62.9539 71.4101 62.5023 71.6728C61.1843 72.4332 59.7903 73.0783 58.3364 73.5922C56.9954 74.0645 55.6037 74.4263 54.1705 74.6682C52.8157 74.894 51.424 75.0138 50.0046 75.0138L50.0046 75.0184ZM62.5046 66.6912C62.5046 66.6912 62.5115 66.6866 62.5138 66.6843L62.5046 66.6843L62.5046 66.6912ZM66.6705 62.5184L66.6705 62.5276C66.6705 62.5276 66.6751 62.5207 66.6774 62.5184L66.6705 62.5184ZM66.6705 37.5184L66.6774 37.5184C66.6774 37.5184 66.6728 37.5115 66.6705 37.5092L66.6705 37.5184ZM62.5046 33.3525L62.5138 33.3525C62.5138 33.3525 62.5069 33.3479 62.5046 33.3456L62.5046 33.3525Z" fill="#FCD2E2"/>
<path fill-rule="evenodd" clip-rule="evenodd" d="M100.019 100L50.0189 50L0.0189204 100L100.019 100Z" fill="#005BE1"/>
</svg>
