<svg width="100" height="100" viewBox="0 0 100 100" fill="none" xmlns="http://www.w3.org/2000/svg">
<rect x="100" y="100" width="100" height="100" transform="rotate(-180 100 100)" fill="#FF5F1E"/>
<path d="M100 0.00921619L100 100C98.1567 100 95.3733 99.7742 92.6636 99.318C89.7972 98.8387 87.0092 98.1152 84.3318 97.1659C81.4194 96.1382 78.6313 94.8479 76 93.3272C75.0922 92.8018 74.2028 92.2535 73.3364 91.6728C71.341 90.3456 69.447 88.8802 67.6682 87.2903C66.2811 86.0461 64.9585 84.7281 63.7189 83.341C62.129 81.5622 60.6636 79.6682 59.3364 77.6728C58.7604 76.8018 58.2074 75.9124 57.682 75.0092C56.1613 72.3733 54.871 69.5853 53.8433 66.6774C52.8986 63.9954 52.1751 61.212 51.6912 58.3456C51.2396 55.6359 51 52.8525 51 50.0138C51 47.1751 51.235 44.3917 51.6912 41.682C52.1705 38.8157 52.894 36.0277 53.8433 33.3502C54.871 30.4378 56.1613 27.6498 57.682 25.0184C58.2074 24.1106 58.7558 23.2212 59.3364 22.3548C60.6636 20.3594 62.129 18.4654 63.7189 16.6866C64.9631 15.2995 66.2811 13.977 67.6682 12.7373C69.447 11.1475 71.341 9.68203 73.3364 8.35484C74.2074 7.7788 75.0968 7.22581 76 6.70046C78.6359 5.17972 81.424 3.8894 84.3318 2.86175C87.0138 1.91705 89.7972 1.19355 92.6636 0.709679C95.3733 0.258066 98.1567 0.0184347 100 0.0184347L100 0.00921619ZM75.9954 16.6636C75.9954 16.6636 75.9816 16.6728 75.977 16.6774L75.9954 16.6774L75.9954 16.6636ZM67.6636 25.0092L67.6636 24.9908C67.6636 24.9908 67.6544 25.0046 67.6498 25.0092L67.6636 25.0092ZM67.6636 75.0092L67.6498 75.0092C67.6498 75.0092 67.659 75.023 67.6636 75.0276L67.6636 75.0092ZM75.9954 83.341L75.977 83.341C75.977 83.341 75.9908 83.3502 75.9954 83.3548L75.9954 83.341Z" fill="#EE79C7"/>
</svg>
