<svg width="100" height="100" viewBox="0 0 100 100" fill="none" xmlns="http://www.w3.org/2000/svg">
<rect x="100" y="0" width="100" height="100" transform="rotate(90 100 0)" fill="#EE79C7"/>
<rect x="100" y="0" width="100" height="49.9999" transform="rotate(90 100 0)" fill="#FF5F1E"/>
<path d="M49.9953 0.00500198L49.9953 100.005C47.1566 100.005 44.3732 99.77 41.6635 99.3138C38.7972 98.8345 36.0092 98.111 33.3317 97.1617C30.4193 96.134 27.6313 94.8437 24.9999 93.323C24.0921 92.7976 23.2027 92.2492 22.3363 91.6686C20.3409 90.3414 18.4469 88.876 16.6681 87.2861C15.281 86.0419 13.9585 84.7239 12.7188 83.3368C11.129 81.558 9.66353 79.664 8.33634 77.6686C7.7603 76.7976 7.20731 75.9082 6.68197 75.005C5.16123 72.3691 3.8709 69.581 2.84325 66.6732C1.89855 63.9912 1.17505 61.2078 0.691181 58.3414C0.239568 55.6317 -6.30964e-05 52.8483 -6.32205e-05 50.0096C-6.33446e-05 47.1709 0.23496 44.3875 0.691181 41.6778C1.17044 38.8115 1.89394 36.0234 2.84325 33.346C3.8709 30.4336 5.16123 27.6456 6.68196 25.0142C7.20731 24.1064 7.75569 23.217 8.33634 22.3506C9.66353 20.3552 11.129 18.4612 12.7188 16.6824C13.9631 15.2953 15.281 13.9727 16.6681 12.7331C18.4469 11.1433 20.3409 9.67781 22.3363 8.35063C23.2073 7.77459 24.0967 7.22159 24.9999 6.69625C27.6359 5.17551 30.4239 3.88519 33.3317 2.85754C36.0138 1.91284 38.7972 1.18934 41.6635 0.705465C44.3732 0.253852 47.1566 0.0142207 49.9953 0.0142205L49.9953 0.00500198ZM24.9953 16.6594C24.9953 16.6594 24.9815 16.6686 24.9769 16.6732L24.9953 16.6732L24.9953 16.6594ZM16.6635 25.005L16.6635 24.9866C16.6635 24.9866 16.6543 25.0004 16.6497 25.005L16.6635 25.005ZM16.6635 75.005L16.6497 75.005C16.6497 75.005 16.6589 75.0188 16.6635 75.0234L16.6635 75.005ZM24.9953 83.3368L24.9769 83.3368C24.9769 83.3368 24.9907 83.346 24.9953 83.3506L24.9953 83.3368Z" fill="#FCD2E2"/>
<path d="M49.9953 100.005L49.9953 0.0050027C52.834 0.00500282 55.6175 0.240026 58.3271 0.696247C61.1935 1.17551 63.9815 1.89901 66.6589 2.84832C69.5714 3.87597 72.3594 5.16629 74.9907 6.68703C75.8986 7.21238 76.788 7.76076 77.6543 8.34141C79.6497 9.6686 81.5437 11.134 83.3225 12.7239C84.7096 13.9681 86.0322 15.2861 87.2718 16.6732C88.8617 18.452 90.3271 20.346 91.6543 22.3414C92.2304 23.2124 92.7833 24.1018 93.3087 25.005C94.8294 27.6409 96.1198 30.429 97.1474 33.3368C98.0921 36.0188 98.8156 38.8022 99.2995 41.6686C99.7511 44.3783 99.9907 47.1617 99.9907 50.0004C99.9907 52.8391 99.7557 55.6225 99.2995 58.3322C98.8202 61.1986 98.0967 63.9866 97.1474 66.664C96.1198 69.5764 94.8294 72.3645 93.3087 74.9958C92.7833 75.9036 92.235 76.793 91.6543 77.6594C90.3271 79.6548 88.8617 81.5488 87.2718 83.3276C86.0276 84.7147 84.7096 86.0373 83.3225 87.2769C81.5437 88.8668 79.6497 90.3322 77.6543 91.6594C76.7833 92.2354 75.8939 92.7884 74.9907 93.3138C72.3548 94.8345 69.5668 96.1248 66.6589 97.1525C63.9769 98.0972 61.1935 98.8207 58.3271 99.3045C55.6174 99.7562 52.834 99.9958 49.9953 99.9958L49.9953 100.005ZM74.9953 83.3506C74.9953 83.3506 75.0091 83.3414 75.0138 83.3368L74.9953 83.3368L74.9953 83.3506ZM83.3271 75.005L83.3271 75.0234C83.3271 75.0234 83.3363 75.0096 83.341 75.005L83.3271 75.005ZM83.3271 25.005L83.341 25.005C83.341 25.005 83.3317 24.9912 83.3271 24.9866L83.3271 25.005ZM74.9953 16.6732L75.0138 16.6732C75.0138 16.6732 74.9999 16.664 74.9953 16.6594L74.9953 16.6732Z" fill="#EE79C7"/>
</svg>
