<svg width="100" height="100" viewBox="0 0 100 100" fill="none" xmlns="http://www.w3.org/2000/svg">
<rect x="100" y="100" width="100" height="100" transform="rotate(-180 100 100)" fill="#005BE1"/>
<path fill-rule="evenodd" clip-rule="evenodd" d="M0 4.91492e-05L-2.18557e-05 100C55.2285 100 100 55.2285 100 7.62939e-05L0 4.91492e-05Z" fill="#EE79C7"/>
<path d="M25 0.00272695L75 0.00273132C75 1.42209 74.8825 2.81379 74.6544 4.16863C74.4147 5.60181 74.053 6.99582 73.5783 8.33453C73.0645 9.79075 72.4194 11.1848 71.659 12.5004C71.3963 12.9543 71.1221 13.399 70.8318 13.8322C70.1682 14.8299 69.4355 15.7769 68.6406 16.6663C68.0184 17.3599 67.3594 18.0212 66.6659 18.641C65.7765 19.4359 64.8295 20.1686 63.8318 20.8322C63.3963 21.1202 62.9516 21.3967 62.5 21.6594C61.182 22.4198 59.788 23.0649 58.3341 23.5788C56.9931 24.0511 55.6014 24.4129 54.1682 24.6548C52.8134 24.8806 51.4217 25.0004 50.0023 25.0004C48.5829 25.0004 47.1912 24.8829 45.8364 24.6548C44.4032 24.4152 43.0092 24.0534 41.6705 23.5788C40.2143 23.0649 38.8203 22.4198 37.5046 21.6594C37.0507 21.3967 36.606 21.1225 36.1728 20.8322C35.1751 20.1686 34.2281 19.4359 33.3387 18.641C32.6452 18.0189 31.9839 17.3599 31.3641 16.6663C30.5691 15.7769 29.8364 14.8299 29.1728 13.8322C28.8848 13.3967 28.6083 12.952 28.3456 12.5004C27.5853 11.1825 26.9401 9.78844 26.4263 8.33453C25.9539 6.99351 25.5922 5.60181 25.3502 4.16863C25.1244 2.81379 25.0046 1.42208 25.0046 0.00272695L25 0.00272695ZM33.3272 12.5027C33.3272 12.5027 33.3318 12.5096 33.3341 12.5119L33.3341 12.5027L33.3272 12.5027ZM37.5 16.6686L37.4908 16.6686C37.4908 16.6686 37.4977 16.6732 37.5 16.6755L37.5 16.6686ZM62.5 16.6686L62.5 16.6755C62.5 16.6755 62.5069 16.6709 62.5092 16.6686L62.5 16.6686ZM66.6659 12.5027L66.6659 12.5119C66.6659 12.5119 66.6705 12.505 66.6728 12.5027L66.6659 12.5027Z" fill="#00449B"/>
</svg>
