<svg width="100" height="100" viewBox="0 0 100 100" fill="none" xmlns="http://www.w3.org/2000/svg">
<g clip-path="url(#clip0_6_62)">
<path d="M50 33.3318V41.6682H58.3318H66.6682H75H83.3318H91.6682H100V33.3318V25V16.6682V8.33183V3.05176e-05H91.6682H83.3318H75H66.6682H58.3318H50V8.33183V16.6682V25V33.3318Z" fill="#005BE1"/>
<path d="M0 91.6682V100H8.3318H16.6682H25H33.3318H41.6682H50V91.6682V83.3318V75V66.6682V58.3318V50V41.6682H41.6682H33.3318H25H16.6682H8.3318H0V50V58.3318V66.6682V75V83.3318V91.6682Z" fill="#005BE1"/>
<path d="M0 33.3318V41.6682H8.3318H16.6682H25H33.3318H41.6682H50V33.3318V25V16.6682V8.33183V3.05176e-05H41.6682V8.33183V16.6682V25V33.3318H33.3318H25H16.6682H8.3318H0Z" fill="#FF5F1E"/>
<path d="M50 91.6682V100H58.3318V91.6682V83.3318V75V66.6682V58.3318V50H66.6682H75H83.3318H91.6682H100V41.6682H91.6682H83.3318H75H66.6682H58.3318H50V50V58.3318V66.6682V75V83.3318V91.6682Z" fill="#FF5F1E"/>
<path d="M100 33.3318V41.6682H91.6682H83.3318H75H66.6682H58.3318H50V33.3318V25V16.6682V8.33183V3.05176e-05H58.3318V8.33183V16.6682V25V33.3318H66.6682H75H83.3318H91.6682H100Z" fill="#EE79C7"/>
<path d="M50 91.6682V100H41.6682V91.6682V83.3318V75V66.6682V58.3318V50H33.3318H25H16.6682H8.3318H0V41.6682H8.3318H16.6682H25H33.3318H41.6682H50V50V58.3318V66.6682V75V83.3318V91.6682Z" fill="#EE79C7"/>
<path d="M58.3318 91.6682V100H66.6682H75H83.3318H91.6682H100V91.6682V83.3318V75V66.6682V58.3318V50H91.6682H83.3318H75H66.6682H58.3318V58.3318V66.6682V75V83.3318V91.6682Z" fill="#005BE1"/>
<path d="M0 25V33.3318H8.3318H16.6682H25H33.3318H41.6682V25V16.6682V8.33183V3.05176e-05H33.3318H25H16.6682H8.3318H0V8.33183V16.6682V25Z" fill="#005BE1"/>
</g>
<defs>
<clipPath id="clip0_6_62">
<rect width="100" height="100" fill="white"/>
</clipPath>
</defs>
</svg>
