<svg width="100" height="100" viewBox="0 0 100 100" fill="none" xmlns="http://www.w3.org/2000/svg">
<rect x="0.00964355" y="-6.10352e-05" width="100" height="100" fill="#FCD2E2"/>
<path d="M100.01 -6.39358e-05L100.01 99.9999C97.171 99.9999 94.3876 99.7649 91.6779 99.3087C88.8115 98.8294 86.0235 98.1059 83.3461 97.1566C80.4336 96.129 77.6456 94.8386 75.0143 93.3179C74.1064 92.7926 73.217 92.2442 72.3507 91.6635C70.3553 90.3363 68.4613 88.8709 66.6825 87.281C65.2954 86.0368 63.9728 84.7188 62.7332 83.3317C61.1433 81.5529 59.6779 79.6589 58.3507 77.6635C57.7746 76.7926 57.2217 75.9032 56.6963 74.9999C55.1756 72.364 53.8852 69.576 52.8576 66.6681C51.9129 63.9861 51.1894 61.2027 50.7055 58.3363C50.2539 55.6267 50.0143 52.8433 50.0143 50.0045C50.0143 47.1658 50.2493 44.3824 50.7055 41.6727C51.1848 38.8064 51.9083 36.0184 52.8576 33.341C53.8852 30.4285 55.1756 27.6405 56.6963 25.0092C57.2217 24.1013 57.77 23.2119 58.3507 22.3456C59.6779 20.3502 61.1433 18.4562 62.7332 16.6774C63.9774 15.2903 65.2954 13.9677 66.6825 12.728C68.4613 11.1382 70.3553 9.67275 72.3507 8.34556C73.2216 7.76952 74.111 7.21653 75.0143 6.69118C77.6502 5.17045 80.4382 3.88012 83.3461 2.85247C86.0281 1.90777 88.8115 1.18427 91.6779 0.700399C94.3875 0.248786 97.171 0.00915475 100.01 0.00915462L100.01 -6.39358e-05ZM75.0097 16.6543C75.0097 16.6543 74.9958 16.6635 74.9912 16.6681L75.0097 16.6681L75.0097 16.6543ZM66.6779 24.9999L66.6779 24.9815C66.6779 24.9815 66.6687 24.9953 66.664 24.9999L66.6779 24.9999ZM66.6779 74.9999L66.664 74.9999C66.664 74.9999 66.6733 75.0138 66.6779 75.0184L66.6779 74.9999ZM75.0097 83.3317L74.9912 83.3317C74.9912 83.3317 75.0051 83.341 75.0097 83.3456L75.0097 83.3317Z" fill="#EE79C7"/>
<path d="M0.00963955 8.33174L0.00963918 -6.17504e-05C2.84835 -6.18745e-05 5.63176 0.234961 8.34144 0.691182C11.2078 1.17044 13.9958 1.89395 16.6732 2.84325C19.5857 3.8709 22.3737 5.16123 25.005 6.68196C25.9129 7.20731 26.8023 7.7557 27.6686 8.33634C29.664 9.66353 31.558 11.129 33.3368 12.7188C34.7239 13.9631 36.0465 15.281 37.2861 16.6681C38.876 18.4469 40.3414 20.341 41.6686 22.3363C42.2447 23.2073 42.7977 24.0967 43.323 24.9999C44.8437 27.6359 46.1341 30.4239 47.1617 33.3317C48.1064 36.0138 48.8299 38.7972 49.3138 41.6635C49.7654 44.3732 50.005 47.1566 50.005 49.9953C50.005 52.834 49.77 55.6174 49.3138 58.3271C48.8345 61.1935 48.111 63.9815 47.1617 66.6589C46.1341 69.5714 44.8437 72.3594 43.323 74.9907C42.7977 75.8986 42.2493 76.788 41.6686 77.6543C40.3414 79.6497 38.876 81.5437 37.2861 83.3225C36.0419 84.7096 34.7239 86.0322 33.3368 87.2718C31.558 88.8617 29.664 90.3271 27.6686 91.6543C26.7977 92.2304 25.9083 92.7833 25.005 93.3087C22.3691 94.8294 19.5811 96.1198 16.6732 97.1474C13.9912 98.0921 11.2078 98.8156 8.34144 99.2995C5.63176 99.7649 2.84835 99.9999 0.00964355 99.9999L0.00963955 8.33174ZM25.0281 16.6635C25.0281 16.6635 25.0142 16.6543 25.0096 16.6497L25.0096 16.6635L25.0281 16.6635ZM33.3553 24.9953C33.3553 24.9953 33.346 24.9815 33.3414 24.9769L33.3414 24.9953L33.3553 24.9953ZM33.3553 74.9953L33.3414 74.9953L33.3414 75.0138C33.3414 75.0138 33.3507 74.9999 33.3553 74.9953ZM25.0281 83.3271L25.0096 83.3271L25.0096 83.341C25.0096 83.341 25.0235 83.3317 25.0281 83.3271Z" fill="#005BE1"/>
</svg>
