<svg width="100" height="100" viewBox="0 0 100 100" fill="none" xmlns="http://www.w3.org/2000/svg">
<rect x="0.00463867" y="0.0410461" width="100" height="100" fill="#FF5F1E"/>
<path d="M100.005 0.0410432L100.005 100.041C97.166 100.041 94.3825 99.806 91.6729 99.3498C88.8065 98.8705 86.0185 98.147 83.3411 97.1977C80.4286 96.1701 77.6406 94.8798 75.0093 93.359C74.1014 92.8337 73.212 92.2853 72.3457 91.7046C70.3503 90.3775 68.4563 88.912 66.6775 87.3222C65.2904 86.0779 63.9678 84.7599 62.7282 83.3728C61.1383 81.594 59.6729 79.7 58.3457 77.7046C57.7696 76.8337 57.2166 75.9443 56.6913 75.041C55.1706 72.4051 53.8802 69.6171 52.8526 66.7092C51.9079 64.0272 51.1844 61.2438 50.7005 58.3774C50.2489 55.6678 50.0093 52.8844 50.0093 50.0457C50.0093 47.2069 50.2443 44.4235 50.7005 41.7139C51.1798 38.8475 51.9033 36.0595 52.8526 33.3821C53.8802 30.4696 55.1706 27.6816 56.6913 25.0503C57.2166 24.1424 57.765 23.253 58.3457 22.3867C59.6729 20.3913 61.1383 18.4973 62.7282 16.7185C63.9724 15.3314 65.2904 14.0088 66.6775 12.7692C68.4563 11.1793 70.3503 9.71386 72.3457 8.38667C73.2166 7.81063 74.106 7.25764 75.0093 6.73229C77.6452 5.21155 80.4332 3.92123 83.3411 2.89358C86.0231 1.94888 88.8065 1.22538 91.6729 0.741506C94.3825 0.289893 97.166 0.0502619 100.005 0.0502618L100.005 0.0410432ZM75.0047 16.6954C75.0047 16.6954 74.9908 16.7046 74.9862 16.7092L75.0047 16.7092L75.0047 16.6954ZM66.6729 25.041L66.6729 25.0226C66.6729 25.0226 66.6637 25.0364 66.659 25.041L66.6729 25.041ZM66.6729 75.041L66.659 75.041C66.659 75.041 66.6683 75.0549 66.6729 75.0595L66.6729 75.041ZM75.0047 83.3728L74.9862 83.3728C74.9862 83.3728 75.0001 83.3821 75.0047 83.3867L75.0047 83.3728Z" fill="#00449B"/>
<path d="M0.00463466 8.37284L0.0046343 0.0410454C2.84334 0.0410453 5.62675 0.276068 8.33643 0.732289C11.2028 1.21155 13.9908 1.93505 16.6682 2.88436C19.5807 3.91201 22.3687 5.20233 25 6.72307C25.9079 7.24842 26.7973 7.7968 27.6636 8.37745C29.659 9.70464 31.553 11.1701 33.3318 12.7599C34.7189 14.0042 36.0415 15.3221 37.2811 16.7092C38.871 18.488 40.3364 20.3821 41.6636 22.3774C42.2397 23.2484 42.7927 24.1378 43.318 25.041C44.8387 27.677 46.1291 30.465 47.1567 33.3728C48.1014 36.0549 48.8249 38.8383 49.3088 41.7046C49.7604 44.4143 50 47.1977 50 50.0364C50 52.8751 49.765 55.6586 49.3088 58.3682C48.8295 61.2346 48.106 64.0226 47.1567 66.7C46.1291 69.6125 44.8387 72.4005 43.318 75.0318C42.7927 75.9397 42.2443 76.8291 41.6636 77.6954C40.3364 79.6908 38.871 81.5848 37.2811 83.3636C36.0369 84.7507 34.7189 86.0733 33.3318 87.3129C31.553 88.9028 29.659 90.3682 27.6636 91.6954C26.7927 92.2715 25.9033 92.8245 25 93.3498C22.3641 94.8705 19.5761 96.1609 16.6682 97.1885C13.9862 98.1332 11.2028 98.8567 8.33644 99.3406C5.62676 99.806 2.84335 100.041 0.00463867 100.041L0.00463466 8.37284ZM25.0231 16.7046C25.0231 16.7046 25.0092 16.6954 25.0046 16.6908L25.0046 16.7046L25.0231 16.7046ZM33.3503 25.0364C33.3503 25.0364 33.341 25.0226 33.3364 25.018L33.3364 25.0364L33.3503 25.0364ZM33.3503 75.0364L33.3364 75.0364L33.3364 75.0549C33.3364 75.0549 33.3457 75.041 33.3503 75.0364ZM25.0231 83.3682L25.0046 83.3682L25.0046 83.3821C25.0046 83.3821 25.0185 83.3728 25.0231 83.3682Z" fill="#EE79C7"/>
</svg>
