<svg width="100" height="100" viewBox="0 0 100 100" fill="none" xmlns="http://www.w3.org/2000/svg">
<rect x="100" y="0" width="100" height="100" transform="rotate(90 100 0)" fill="#EE79C7"/>
<rect x="100" y="0" width="100" height="50" transform="rotate(90 100 0)" fill="#005BE1"/>
<path d="M50.0146 8.3776L50.0146 0.0458069C52.8534 0.0458068 55.6368 0.280831 58.3464 0.737053C61.2128 1.21632 64.0008 1.93981 66.6782 2.88912C69.5907 3.91677 72.3787 5.2071 75.01 6.72784C75.9179 7.25318 76.8073 7.80156 77.6736 8.38221C79.669 9.7094 81.563 11.1748 83.3418 12.7647C84.7289 14.0089 86.0515 15.3269 87.2911 16.714C88.881 18.4928 90.3464 20.3868 91.6736 22.3822C92.2497 23.2532 92.8027 24.1426 93.328 25.0458C94.8487 27.6817 96.1391 30.4698 97.1667 33.3776C98.1114 36.0596 98.8349 38.843 99.3188 41.7094C99.7704 44.4191 100.01 47.2025 100.01 50.0412C100.01 52.8799 99.775 55.6633 99.3188 58.373C98.8395 61.2394 98.116 64.0274 97.1667 66.7048C96.1391 69.6172 94.8487 72.4053 93.328 75.0366C92.8027 75.9444 92.2543 76.8338 91.6736 77.7002C90.3464 79.6956 88.881 81.5896 87.2911 83.3684C86.0469 84.7555 84.7289 86.0781 83.3418 87.3177C81.563 88.9076 79.669 90.373 77.6736 91.7002C76.8027 92.2762 75.9133 92.8292 75.01 93.3546C72.3741 94.8753 69.5861 96.1656 66.6782 97.1933C63.9962 98.138 61.2128 98.8615 58.3464 99.3453C55.6368 99.8108 52.8534 100.046 50.0146 100.046L50.0146 8.3776ZM75.0331 16.7094C75.0331 16.7094 75.0193 16.7002 75.0146 16.6956L75.0146 16.7094L75.0331 16.7094ZM83.3603 25.0412C83.3603 25.0412 83.3511 25.0274 83.3464 25.0228L83.3464 25.0412L83.3603 25.0412ZM83.3603 75.0412L83.3464 75.0412L83.3464 75.0596C83.3464 75.0596 83.3557 75.0458 83.3603 75.0412ZM75.0331 83.373L75.0146 83.373L75.0146 83.3868C75.0146 83.3868 75.0285 83.3776 75.0331 83.373Z" fill="#EE79C7"/>
<path fill-rule="evenodd" clip-rule="evenodd" d="M0.0146484 100.046L50.0146 0.0458069L100 100.046H50.0146H0.0146484Z" fill="#FCD2E2"/>
<path fill-rule="evenodd" clip-rule="evenodd" d="M0.0146484 100.046L25.0146 50.0458L50.0146 100.046H25.0146H0.0146484Z" fill="#FF5F1E"/>
<path fill-rule="evenodd" clip-rule="evenodd" d="M50.0146 100.046L75.0146 50.0458L100 100.046H75.0146H50.0146Z" fill="#FF5F1E"/>
</svg>
