<svg width="100" height="100" viewBox="0 0 100 100" fill="none" xmlns="http://www.w3.org/2000/svg">
<rect x="100" y="0" width="100" height="100" transform="rotate(90 100 0)" fill="#005BE1"/>
<path d="M100 100.046H0.0236816C0.0236816 97.2073 0.258705 94.4239 0.714926 91.7143C1.19419 88.8479 1.91769 86.0599 2.867 83.3825C3.89465 80.47 5.18497 77.682 6.70571 75.0507C7.23105 74.1428 7.77944 73.2534 8.36009 72.3871C9.68728 70.3917 11.1527 68.4977 12.7426 66.7189C13.9868 65.3318 15.3048 64.0092 16.6919 62.7696C18.4707 61.1797 20.3647 59.7143 22.3601 58.3871C23.2311 57.811 24.1205 57.258 25.0237 56.7327C27.6596 55.2119 30.4476 53.9216 33.3555 52.894C36.0375 51.9493 38.8209 51.2258 41.6873 50.7419C44.397 50.2903 47.1804 50.0507 50.0191 50.0507C52.8578 50.0507 55.6412 50.2857 58.3509 50.7419C61.2172 51.2212 64.0052 51.9447 66.6827 52.894C69.5951 53.9216 72.3831 55.2119 75.0145 56.7327C75.9223 57.258 76.8117 57.8064 77.6781 58.3871C79.6734 59.7143 81.5675 61.1797 83.3463 62.7696C84.7334 64.0138 86.0559 65.3318 87.2956 66.7189C88.8854 68.4977 90.3509 70.3917 91.6781 72.3871C92.2541 73.258 92.8071 74.1474 93.3324 75.0507C94.8532 77.6866 96.1435 80.4746 97.1711 83.3825C98.1158 86.0645 98.8393 88.8479 99.3232 91.7143C99.7748 94.4239 100.014 97.2073 100.014 100.046H100ZM83.3693 75.0461C83.3693 75.0461 83.3601 75.0322 83.3555 75.0276V75.0461H83.3693ZM75.0237 66.7143H75.0421C75.0421 66.7143 75.0283 66.705 75.0237 66.7004V66.7143ZM25.0237 66.7143V66.7004C25.0237 66.7004 25.0099 66.7096 25.0052 66.7143H25.0237ZM16.6919 75.0461V75.0276C16.6919 75.0276 16.6827 75.0414 16.6781 75.0461H16.6919Z" fill="#EE79C7"/>
<path d="M91.6919 0H100C100 2.88476 99.7887 5.66817 99.3324 8.37785C98.8532 11.2442 98.1297 14.0322 97.1804 16.7096C96.1527 19.6221 94.8624 22.4101 93.3417 25.0414C92.8163 25.9493 92.2679 26.8387 91.6873 27.705C90.3601 29.7004 88.8946 31.5944 87.3048 33.3732C86.0605 34.7603 84.7426 36.0829 83.3555 37.3225C81.5767 38.9124 79.6827 40.3778 77.6873 41.705C76.8163 42.2811 75.9269 42.8341 75.0237 43.3594C72.3877 44.8802 69.5997 46.1705 66.6919 47.1981C64.0099 48.1428 61.2264 48.8663 58.3601 49.3502C55.6504 49.8018 52.867 50.0414 50.0283 50.0414C47.1896 50.0414 44.4062 49.8064 41.6965 49.3502C38.8301 48.8709 36.0421 48.1474 33.3647 47.1981C30.4523 46.1705 27.6642 44.8802 25.0329 43.3594C24.1251 42.8341 23.2357 42.2857 22.3693 41.705C20.3739 40.3778 18.4799 38.9124 16.7011 37.3225C15.314 36.0783 13.9914 34.7603 12.7518 33.3732C11.1619 31.5944 9.69649 29.7004 8.3693 27.705C7.79327 26.8341 7.24027 25.9447 6.71493 25.0414C5.19419 22.4055 3.90387 19.6175 2.87622 16.7096C1.93152 14.0276 1.20801 11.2442 0.724142 8.37785C0.258705 5.66817 0.0236816 2.88476 0.0236816 0H91.6919ZM83.3601 25.0645C83.3601 25.0645 83.3693 25.0507 83.3739 25.0461H83.3601V25.0645ZM75.0283 33.3917C75.0283 33.3917 75.0421 33.3825 75.0467 33.3778H75.0283V33.3917ZM25.0283 33.3917V33.3778H25.0099C25.0099 33.3778 25.0237 33.3871 25.0283 33.3917ZM16.6965 25.0645V25.0461H16.6827C16.6827 25.0461 16.6919 25.0599 16.6965 25.0645Z" fill="#FF5F1E"/>
</svg>
