<svg width="100" height="100" viewBox="0 0 100 100" fill="none" xmlns="http://www.w3.org/2000/svg">
<rect x="100" y="0" width="100" height="100" transform="rotate(90 100 0)" fill="#005BE1"/>
<path d="M100 50.0461L0.0236789 50.0461C0.023679 47.2073 0.258702 44.4239 0.714924 41.7143C1.19419 38.8479 1.91769 36.0599 2.867 33.3825C3.89465 30.47 5.18497 27.682 6.70571 25.0507C7.23105 24.1428 7.77944 23.2534 8.36009 22.3871C9.68728 20.3917 11.1527 18.4977 12.7426 16.7189C13.9868 15.3318 15.3048 14.0092 16.6919 12.7696C18.4707 11.1797 20.3647 9.71425 22.3601 8.38706C23.2311 7.81103 24.1205 7.25803 25.0237 6.73269C27.6596 5.21195 30.4476 3.92163 33.3555 2.89398C36.0375 1.94928 38.8209 1.22578 41.6873 0.741906C44.397 0.290293 47.1804 0.0506618 50.0191 0.050662C52.8578 0.0506621 55.6412 0.285685 58.3509 0.741907C61.2172 1.22117 64.0052 1.94467 66.6827 2.89398C69.5951 3.92163 72.3831 5.21195 75.0145 6.73269C75.9223 7.25804 76.8117 7.80642 77.6781 8.38707C79.6734 9.71426 81.5675 11.1797 83.3463 12.7696C84.7334 14.0138 86.0559 15.3318 87.2956 16.7189C88.8854 18.4977 90.3509 20.3917 91.6781 22.3871C92.2541 23.258 92.8071 24.1474 93.3324 25.0507C94.8532 27.6866 96.1435 30.4746 97.1711 33.3825C98.1158 36.0645 98.8393 38.8479 99.3232 41.7143C99.7748 44.4239 100.014 47.2073 100.014 50.0461L100 50.0461ZM83.3693 25.0461C83.3693 25.0461 83.3601 25.0322 83.3555 25.0276L83.3555 25.0461L83.3693 25.0461ZM75.0237 16.7143L75.0421 16.7143C75.0421 16.7143 75.0283 16.705 75.0237 16.7004L75.0237 16.7143ZM25.0237 16.7143L25.0237 16.7004C25.0237 16.7004 25.0099 16.7096 25.0052 16.7143L25.0237 16.7143ZM16.6919 25.0461L16.6919 25.0276C16.6919 25.0276 16.6827 25.0414 16.6781 25.0461L16.6919 25.0461Z" fill="#00449B"/>
<path d="M100 100.046L0.0236789 100.046C0.023679 97.2073 0.258702 94.4239 0.714924 91.7143C1.19419 88.8479 1.91769 86.0599 2.867 83.3825C3.89465 80.47 5.18497 77.682 6.70571 75.0507C7.23105 74.1428 7.77944 73.2534 8.36009 72.3871C9.68728 70.3917 11.1527 68.4977 12.7426 66.7189C13.9868 65.3318 15.3048 64.0092 16.6919 62.7696C18.4707 61.1797 20.3647 59.7143 22.3601 58.3871C23.2311 57.811 24.1205 57.258 25.0237 56.7327C27.6596 55.212 30.4476 53.9216 33.3555 52.894C36.0375 51.9493 38.8209 51.2258 41.6873 50.7419C44.397 50.2903 47.1804 50.0507 50.0191 50.0507C52.8578 50.0507 55.6412 50.2857 58.3509 50.7419C61.2172 51.2212 64.0052 51.9447 66.6827 52.894C69.5951 53.9216 72.3831 55.212 75.0145 56.7327C75.9223 57.258 76.8117 57.8064 77.6781 58.3871C79.6734 59.7143 81.5675 61.1797 83.3463 62.7696C84.7334 64.0138 86.0559 65.3318 87.2956 66.7189C88.8854 68.4977 90.3509 70.3917 91.6781 72.3871C92.2541 73.258 92.8071 74.1474 93.3324 75.0507C94.8532 77.6866 96.1435 80.4746 97.1711 83.3825C98.1158 86.0645 98.8393 88.8479 99.3232 91.7143C99.7748 94.4239 100.014 97.2073 100.014 100.046L100 100.046ZM83.3693 75.0461C83.3693 75.0461 83.3601 75.0322 83.3555 75.0276L83.3555 75.0461L83.3693 75.0461ZM75.0237 66.7143L75.0421 66.7143C75.0421 66.7143 75.0283 66.705 75.0237 66.7004L75.0237 66.7143ZM25.0237 66.7143L25.0237 66.7004C25.0237 66.7004 25.0099 66.7096 25.0052 66.7143L25.0237 66.7143ZM16.6919 75.0461L16.6919 75.0276C16.6919 75.0276 16.6827 75.0414 16.6781 75.0461L16.6919 75.0461Z" fill="#00449B"/>
</svg>
