<svg width="100" height="100" viewBox="0 0 100 100" fill="none" xmlns="http://www.w3.org/2000/svg">
<rect width="100" height="100" fill="#00449B"/>
<path d="M49.9954 5.96189e-07L49.9954 100C47.1567 100 44.3733 99.765 41.6636 99.3088C38.7972 98.8295 36.0092 98.106 33.3318 97.1567C30.4194 96.129 27.6313 94.8387 25 93.318C24.0922 92.7926 23.2028 92.2442 22.3364 91.6636C20.341 90.3364 18.447 88.871 16.6682 87.2811C15.2811 86.0369 13.9585 84.7189 12.7189 83.3318C11.129 81.553 9.66359 79.659 8.3364 77.6636C7.76037 76.7926 7.20737 75.9032 6.68203 75C5.16129 72.3641 3.87097 69.576 2.84332 66.6682C1.89862 63.9862 1.17512 61.2028 0.691245 58.3364C0.239632 55.6267 5.62338e-07 52.8433 5.96189e-07 50.0046C6.3004e-07 47.1659 0.235024 44.3825 0.691245 41.6728C1.17051 38.8064 1.89401 36.0184 2.84332 33.341C3.87097 30.4286 5.16129 27.6406 6.68203 25.0092C7.20737 24.1014 7.75576 23.212 8.3364 22.3456C9.66359 20.3502 11.129 18.4562 12.7189 16.6774C13.9631 15.2903 15.2811 13.9677 16.6682 12.7281C18.447 11.1382 20.341 9.67281 22.3364 8.34562C23.2074 7.76958 24.0968 7.21659 25 6.69125C27.6359 5.17051 30.424 3.88019 33.3318 2.85253C36.0138 1.90784 38.7972 1.18433 41.6636 0.700463C44.3733 0.248848 47.1567 0.00921687 49.9954 0.0092169L49.9954 5.96189e-07ZM24.9954 16.6544C24.9954 16.6544 24.9816 16.6636 24.977 16.6682L24.9954 16.6682L24.9954 16.6544ZM16.6636 25L16.6636 24.9816C16.6636 24.9816 16.6544 24.9954 16.6498 25L16.6636 25ZM16.6636 75L16.6498 75C16.6498 75 16.659 75.0138 16.6636 75.0184L16.6636 75ZM24.9954 83.3318L24.977 83.3318C24.977 83.3318 24.9908 83.341 24.9954 83.3456L24.9954 83.3318Z" fill="#005BE1"/>
<path d="M99.9954 5.96189e-07L99.9954 100C97.1567 100 94.3733 99.765 91.6636 99.3088C88.7972 98.8295 86.0092 98.106 83.3318 97.1567C80.4194 96.129 77.6313 94.8387 75 93.318C74.0922 92.7926 73.2028 92.2442 72.3364 91.6636C70.341 90.3364 68.447 88.871 66.6682 87.2811C65.2811 86.0369 63.9585 84.7189 62.7189 83.3318C61.129 81.553 59.6636 79.659 58.3364 77.6636C57.7604 76.7926 57.2074 75.9032 56.682 75C55.1613 72.3641 53.871 69.576 52.8433 66.6682C51.8986 63.9862 51.1751 61.2028 50.6912 58.3364C50.2396 55.6267 50 52.8433 50 50.0046C50 47.1659 50.235 44.3825 50.6912 41.6728C51.1705 38.8064 51.894 36.0184 52.8433 33.341C53.871 30.4286 55.1613 27.6406 56.682 25.0092C57.2074 24.1014 57.7558 23.212 58.3364 22.3456C59.6636 20.3502 61.129 18.4562 62.7189 16.6774C63.9631 15.2903 65.2811 13.9677 66.6682 12.7281C68.447 11.1382 70.341 9.67281 72.3364 8.34562C73.2074 7.76958 74.0968 7.21659 75 6.69125C77.6359 5.17051 80.424 3.88019 83.3318 2.85253C86.0138 1.90784 88.7972 1.18433 91.6636 0.700463C94.3733 0.248848 97.1567 0.00921687 99.9954 0.0092169L99.9954 5.96189e-07ZM74.9954 16.6544C74.9954 16.6544 74.9816 16.6636 74.977 16.6682L74.9954 16.6682L74.9954 16.6544ZM66.6636 25L66.6636 24.9816C66.6636 24.9816 66.6544 24.9954 66.6498 25L66.6636 25ZM66.6636 75L66.6498 75C66.6498 75 66.659 75.0138 66.6636 75.0184L66.6636 75ZM74.9954 83.3318L74.977 83.3318C74.977 83.3318 74.9908 83.341 74.9954 83.3456L74.9954 83.3318Z" fill="#005BE1"/>
</svg>
