<svg width="100" height="100" viewBox="0 0 100 100" fill="none" xmlns="http://www.w3.org/2000/svg">
<rect x="100" width="100" height="100" transform="rotate(90 100 0)" fill="#00449B"/>
<path d="M100 49.9954L-2.78156e-06 49.9954C-2.62362e-06 47.1567 0.235021 44.3733 0.691242 41.6636C1.1705 38.7972 1.89401 36.0092 2.84332 33.3318C3.87097 30.4194 5.16129 27.6313 6.68203 25C7.20737 24.0922 7.75576 23.2028 8.3364 22.3364C9.66359 20.341 11.129 18.447 12.7189 16.6682C13.9631 15.2811 15.2811 13.9585 16.6682 12.7189C18.447 11.129 20.341 9.66359 22.3364 8.33641C23.2074 7.76037 24.0968 7.20737 25 6.68203C27.6359 5.16129 30.424 3.87097 33.3318 2.84332C36.0138 1.89862 38.7972 1.17512 41.6636 0.691247C44.3733 0.239634 47.1567 2.62362e-06 49.9954 2.78156e-06C52.8341 2.93949e-06 55.6175 0.235026 58.3272 0.691247C61.1936 1.17051 63.9816 1.89401 66.659 2.84332C69.5714 3.87097 72.3594 5.16129 74.9908 6.68203C75.8986 7.20738 76.788 7.75576 77.6544 8.33641C79.6498 9.6636 81.5438 11.129 83.3226 12.7189C84.7097 13.9631 86.0323 15.2811 87.2719 16.6682C88.8618 18.447 90.3272 20.341 91.6544 22.3364C92.2304 23.2074 92.7834 24.0968 93.3088 25C94.8295 27.6359 96.1198 30.424 97.1475 33.3318C98.0922 36.0138 98.8157 38.7972 99.2995 41.6636C99.7511 44.3733 99.9908 47.1567 99.9908 49.9954L100 49.9954ZM83.3456 24.9954C83.3456 24.9954 83.3364 24.9816 83.3318 24.977L83.3318 24.9954L83.3456 24.9954ZM75 16.6636L75.0184 16.6636C75.0184 16.6636 75.0046 16.6544 75 16.6498L75 16.6636ZM25 16.6636L25 16.6498C25 16.6498 24.9862 16.659 24.9816 16.6636L25 16.6636ZM16.6682 24.9954L16.6682 24.977C16.6682 24.977 16.659 24.9908 16.6544 24.9954L16.6682 24.9954Z" fill="#EE79C7"/>
<path d="M100 99.9954L-2.78156e-06 99.9954C-2.62362e-06 97.1567 0.235021 94.3733 0.691242 91.6636C1.1705 88.7972 1.89401 86.0092 2.84332 83.3318C3.87097 80.4194 5.16129 77.6313 6.68203 75C7.20737 74.0922 7.75576 73.2028 8.3364 72.3364C9.66359 70.341 11.129 68.447 12.7189 66.6682C13.9631 65.2811 15.2811 63.9585 16.6682 62.7189C18.447 61.129 20.341 59.6636 22.3364 58.3364C23.2074 57.7604 24.0968 57.2074 25 56.682C27.6359 55.1613 30.424 53.871 33.3318 52.8433C36.0138 51.8986 38.7972 51.1751 41.6636 50.6912C44.3733 50.2396 47.1567 50 49.9954 50C52.8341 50 55.6175 50.235 58.3272 50.6912C61.1936 51.1705 63.9816 51.894 66.659 52.8433C69.5714 53.871 72.3594 55.1613 74.9908 56.682C75.8986 57.2074 76.788 57.7558 77.6544 58.3364C79.6498 59.6636 81.5438 61.129 83.3226 62.7189C84.7097 63.9631 86.0323 65.2811 87.2719 66.6682C88.8618 68.447 90.3272 70.341 91.6544 72.3364C92.2304 73.2074 92.7834 74.0968 93.3088 75C94.8295 77.6359 96.1198 80.424 97.1475 83.3318C98.0922 86.0138 98.8157 88.7972 99.2995 91.6636C99.7511 94.3733 99.9908 97.1567 99.9908 99.9954L100 99.9954ZM83.3456 74.9954C83.3456 74.9954 83.3364 74.9816 83.3318 74.977L83.3318 74.9954L83.3456 74.9954ZM75 66.6636L75.0184 66.6636C75.0184 66.6636 75.0046 66.6544 75 66.6498L75 66.6636ZM25 66.6636L25 66.6498C25 66.6498 24.9862 66.659 24.9816 66.6636L25 66.6636ZM16.6682 74.9954L16.6682 74.977C16.6682 74.977 16.659 74.9908 16.6544 74.9954L16.6682 74.9954Z" fill="#FCD2E2"/>
</svg>
