<svg width="100" height="100" viewBox="0 0 100 100" fill="none" xmlns="http://www.w3.org/2000/svg">
<rect x="100" width="100" height="100" transform="rotate(90 100 0)" fill="#00449B"/>
<rect width="10" height="10" fill="#005BE1"/>
<rect x="20" width="10" height="10" fill="#005BE1"/>
<rect x="10" y="10" width="10" height="10" fill="#005BE1"/>
<rect x="30" y="10" width="10" height="10" fill="#005BE1"/>
<rect x="40" width="10" height="10" fill="#005BE1"/>
<rect y="20" width="10" height="10" fill="#005BE1"/>
<rect x="20" y="20" width="10" height="10" fill="#005BE1"/>
<rect x="10" y="30" width="10" height="10" fill="#005BE1"/>
<rect x="30" y="30" width="10" height="10" fill="#005BE1"/>
<rect x="40" y="20" width="10" height="10" fill="#005BE1"/>
<rect y="40" width="10" height="10" fill="#005BE1"/>
<rect x="20" y="40" width="10" height="10" fill="#005BE1"/>
<rect x="40" y="40" width="10" height="10" fill="#005BE1"/>
<rect x="50" y="50" width="10" height="10" fill="#005BE1"/>
<rect x="70" y="50" width="10" height="10" fill="#005BE1"/>
<rect x="60" y="60" width="10" height="10" fill="#005BE1"/>
<rect x="80" y="60" width="10" height="10" fill="#005BE1"/>
<rect x="90" y="50" width="10" height="10" fill="#005BE1"/>
<rect x="50" y="70" width="10" height="10" fill="#005BE1"/>
<rect x="70" y="70" width="10" height="10" fill="#005BE1"/>
<rect x="60" y="80" width="10" height="10" fill="#005BE1"/>
<rect x="80" y="80" width="10" height="10" fill="#005BE1"/>
<rect x="90" y="70" width="10" height="10" fill="#005BE1"/>
<rect x="50" y="90" width="10" height="10" fill="#005BE1"/>
<rect x="70" y="90" width="10" height="10" fill="#005BE1"/>
<rect x="90" y="90" width="10" height="10" fill="#005BE1"/>
<path d="M75 62.9977L25 62.9977C25 61.5783 25.1175 60.1866 25.3456 58.8318C25.5853 57.3986 25.947 56.0046 26.4217 54.6659C26.9355 53.2097 27.5806 51.8157 28.341 50.5C28.6037 50.0461 28.8779 49.6014 29.1682 49.1682C29.8318 48.1705 30.5645 47.2235 31.3594 46.3341C31.9816 45.6406 32.6406 44.9793 33.3341 44.3594C34.2235 43.5645 35.1705 42.8318 36.1682 42.1682C36.6037 41.8802 37.0484 41.6037 37.5 41.341C38.818 40.5806 40.212 39.9355 41.6659 39.4217C43.0069 38.9493 44.3986 38.5876 45.8318 38.3456C47.1866 38.1198 48.5783 38 49.9977 38C51.4171 38 52.8088 38.1175 54.1636 38.3456C55.5968 38.5853 56.9908 38.947 58.3295 39.4217C59.7857 39.9355 61.1797 40.5806 62.4954 41.341C62.9493 41.6037 63.394 41.8779 63.8272 42.1682C64.8249 42.8318 65.7719 43.5645 66.6613 44.3594C67.3548 44.9816 68.0161 45.6406 68.6359 46.3341C69.4309 47.2235 70.1636 48.1705 70.8272 49.1682C71.1152 49.6037 71.3917 50.0484 71.6544 50.5C72.4147 51.818 73.0599 53.212 73.5737 54.6659C74.0461 56.0069 74.4078 57.3986 74.6498 58.8318C74.8756 60.1866 74.9954 61.5783 74.9954 62.9977L75 62.9977ZM66.6728 50.4977C66.6728 50.4977 66.6682 50.4908 66.6659 50.4885L66.6659 50.4977L66.6728 50.4977ZM62.5 46.3318L62.5092 46.3318C62.5092 46.3318 62.5023 46.3272 62.5 46.3249L62.5 46.3318ZM37.5 46.3318L37.5 46.3249C37.5 46.3249 37.4931 46.3295 37.4908 46.3318L37.5 46.3318ZM33.3341 50.4977L33.3341 50.4885C33.3341 50.4885 33.3295 50.4954 33.3272 50.4977L33.3341 50.4977Z" fill="#FF5F1E"/>
</svg>
