<svg width="100" height="100" viewBox="0 0 100 100" fill="none" xmlns="http://www.w3.org/2000/svg">
<rect x="100" y="-0.00463867" width="100" height="100" transform="rotate(90 100 -0.00463867)" fill="#FF5F1E"/>
<rect x="100" y="50" width="49.9954" height="100" transform="rotate(90 100 50)" fill="#EE79C7"/>
<path d="M100 49.9954L-2.78156e-06 49.9954C-2.62362e-06 47.1567 0.235021 44.3733 0.691242 41.6636C1.1705 38.7972 1.89401 36.0092 2.84332 33.3318C3.87097 30.4194 5.16129 27.6313 6.68203 25C7.20737 24.0922 7.75576 23.2028 8.3364 22.3364C9.66359 20.341 11.129 18.447 12.7189 16.6682C13.9631 15.2811 15.2811 13.9585 16.6682 12.7189C18.447 11.129 20.341 9.66359 22.3364 8.33641C23.2074 7.76037 24.0968 7.20737 25 6.68203C27.6359 5.16129 30.424 3.87097 33.3318 2.84332C36.0138 1.89862 38.7972 1.17512 41.6636 0.691247C44.3733 0.239634 47.1567 2.62362e-06 49.9954 2.78156e-06C52.8341 2.93949e-06 55.6175 0.235026 58.3272 0.691247C61.1935 1.17051 63.9816 1.89401 66.659 2.84332C69.5714 3.87097 72.3594 5.16129 74.9908 6.68203C75.8986 7.20738 76.788 7.75576 77.6544 8.33641C79.6498 9.6636 81.5438 11.129 83.3226 12.7189C84.7097 13.9631 86.0323 15.2811 87.2719 16.6682C88.8618 18.447 90.3272 20.341 91.6544 22.3364C92.2304 23.2074 92.7834 24.0968 93.3088 25C94.8295 27.6359 96.1198 30.424 97.1475 33.3318C98.0922 36.0138 98.8157 38.7972 99.2995 41.6636C99.7511 44.3733 99.9908 47.1567 99.9908 49.9954L100 49.9954ZM83.3456 24.9954C83.3456 24.9954 83.3364 24.9816 83.3318 24.977L83.3318 24.9954L83.3456 24.9954ZM75 16.6636L75.0184 16.6636C75.0184 16.6636 75.0046 16.6544 75 16.6498L75 16.6636ZM25 16.6636L25 16.6498C25 16.6498 24.9862 16.659 24.9816 16.6636L25 16.6636ZM16.6682 24.9954L16.6682 24.977C16.6682 24.977 16.659 24.9908 16.6544 24.9954L16.6682 24.9954Z" fill="#EE79C7"/>
<path d="M75 99.9977L25 99.9977C25 98.5783 25.1175 97.1866 25.3456 95.8318C25.5853 94.3986 25.947 93.0046 26.4217 91.6659C26.9355 90.2097 27.5806 88.8157 28.341 87.5C28.6037 87.0461 28.8779 86.6014 29.1682 86.1682C29.8318 85.1705 30.5645 84.2235 31.3594 83.3341C31.9816 82.6406 32.6406 81.9793 33.3341 81.3594C34.2235 80.5645 35.1705 79.8318 36.1682 79.1682C36.6037 78.8802 37.0484 78.6037 37.5 78.341C38.818 77.5806 40.212 76.9355 41.6659 76.4217C43.0069 75.9493 44.3986 75.5876 45.8318 75.3456C47.1866 75.1198 48.5783 75 49.9977 75C51.4171 75 52.8088 75.1175 54.1636 75.3456C55.5968 75.5853 56.9908 75.947 58.3295 76.4217C59.7857 76.9355 61.1797 77.5806 62.4954 78.341C62.9493 78.6037 63.394 78.8779 63.8272 79.1682C64.8249 79.8318 65.7719 80.5645 66.6613 81.3594C67.3548 81.9816 68.0161 82.6406 68.6359 83.3341C69.4309 84.2235 70.1636 85.1705 70.8272 86.1682C71.1152 86.6037 71.3917 87.0484 71.6544 87.5C72.4147 88.818 73.0599 90.212 73.5737 91.6659C74.0461 93.0069 74.4078 94.3986 74.6498 95.8318C74.8756 97.1866 74.9954 98.5783 74.9954 99.9977L75 99.9977ZM66.6728 87.4977C66.6728 87.4977 66.6682 87.4908 66.6659 87.4885L66.6659 87.4977L66.6728 87.4977ZM62.5 83.3318L62.5092 83.3318C62.5092 83.3318 62.5023 83.3272 62.5 83.3249L62.5 83.3318ZM37.5 83.3318L37.5 83.3249C37.5 83.3249 37.4931 83.3295 37.4908 83.3318L37.5 83.3318ZM33.3341 87.4977L33.3341 87.4885C33.3341 87.4885 33.3295 87.4954 33.3272 87.4977L33.3341 87.4977Z" fill="#005BE1"/>
</svg>
