<svg width="100" height="100" viewBox="0 0 100 100" fill="none" xmlns="http://www.w3.org/2000/svg">
<rect x="100" y="-0.00463867" width="100" height="100" transform="rotate(90 100 -0.00463867)" fill="#FF5F1E"/>
<path d="M100 99.9954H0C0 97.1567 0.235023 94.3732 0.691244 91.6636C1.17051 88.7972 1.89401 86.0092 2.84332 83.3318C3.87097 80.4193 5.16129 77.6313 6.68203 75C7.20737 74.0921 7.75576 73.2027 8.33641 72.3364C9.66359 70.341 11.129 68.447 12.7189 66.6682C13.9631 65.2811 15.2811 63.9585 16.6682 62.7189C18.447 61.129 20.341 59.6636 22.3364 58.3364C23.2074 57.7603 24.0968 57.2073 25 56.682C27.6359 55.1613 30.424 53.8709 33.3318 52.8433C36.0138 51.8986 38.7972 51.1751 41.6636 50.6912C44.3733 50.2396 47.1567 50 49.9954 50C52.8341 50 55.6175 50.235 58.3272 50.6912C61.1935 51.1705 63.9816 51.894 66.659 52.8433C69.5714 53.8709 72.3594 55.1613 74.9908 56.682C75.8986 57.2073 76.788 57.7557 77.6544 58.3364C79.6498 59.6636 81.5438 61.129 83.3226 62.7189C84.7097 63.9631 86.0323 65.2811 87.2719 66.6682C88.8618 68.447 90.3272 70.341 91.6544 72.3364C92.2304 73.2073 92.7834 74.0967 93.3088 75C94.8295 77.6359 96.1198 80.4239 97.1475 83.3318C98.0922 86.0138 98.8157 88.7972 99.2995 91.6636C99.7512 94.3732 99.9908 97.1567 99.9908 99.9954H100ZM83.3456 74.9954C83.3456 74.9954 83.3364 74.9815 83.3318 74.9769V74.9954H83.3456ZM75 66.6636H75.0184C75.0184 66.6636 75.0046 66.6543 75 66.6497V66.6636ZM25 66.6636V66.6497C25 66.6497 24.9862 66.659 24.9816 66.6636H25ZM16.6682 74.9954V74.9769C16.6682 74.9769 16.659 74.9908 16.6544 74.9954H16.6682Z" fill="#EE79C7"/>
<path d="M91.6682 -0.00463867H100C100 2.83407 99.765 5.61748 99.3088 8.32716C98.8295 11.1935 98.106 13.9815 97.1567 16.659C96.129 19.5714 94.8387 22.3594 93.318 24.9908C92.7926 25.8986 92.2442 26.788 91.6636 27.6543C90.3364 29.6497 88.871 31.5437 87.2811 33.3226C86.0369 34.7096 84.7189 36.0322 83.3318 37.2719C81.553 38.8617 79.659 40.3272 77.6636 41.6543C76.7926 42.2304 75.9032 42.7834 75 43.3087C72.3641 44.8295 69.576 46.1198 66.6682 47.1474C63.9862 48.0921 61.2028 48.8156 58.3364 49.2995C55.6267 49.7511 52.8433 49.9908 50.0046 49.9908C47.1659 49.9908 44.3825 49.7557 41.6728 49.2995C38.8065 48.8202 36.0184 48.0967 33.341 47.1474C30.4286 46.1198 27.6406 44.8295 25.0092 43.3087C24.1014 42.7834 23.212 42.235 22.3456 41.6543C20.3502 40.3272 18.4562 38.8617 16.6774 37.2719C15.2903 36.0276 13.9677 34.7096 12.7281 33.3226C11.1382 31.5437 9.67281 29.6497 8.34562 27.6543C7.76959 26.7834 7.21659 25.894 6.69124 24.9908C5.17051 22.3548 3.88018 19.5668 2.85253 16.659C1.90783 13.9769 1.18433 11.1935 0.700461 8.32716C0.235023 5.61748 0 2.83407 0 -0.00463867H91.6682ZM83.3364 25.0138C83.3364 25.0138 83.3456 25 83.3502 24.9954H83.3364V25.0138ZM75.0046 33.341C75.0046 33.341 75.0184 33.3318 75.023 33.3272H75.0046V33.341ZM25.0046 33.341V33.3272H24.9862C24.9862 33.3272 25 33.3364 25.0046 33.341ZM16.6728 25.0138V24.9954H16.659C16.659 24.9954 16.6682 25.0092 16.6728 25.0138Z" fill="#EE79C7"/>
</svg>
