<svg width="100" height="100" viewBox="0 0 100 100" fill="none" xmlns="http://www.w3.org/2000/svg">
<rect x="100" y="-0.00463867" width="100" height="100" transform="rotate(90 100 -0.00463867)" fill="#FF5F1E"/>
<rect x="100" y="-0.00463867" width="100" height="50" transform="rotate(90 100 -0.00463867)" fill="#005BE1"/>
<path d="M50 8.3318L50 -7.15256e-07C52.8387 -8.3934e-07 55.6221 0.235022 58.3318 0.691243C61.1982 1.17051 63.9862 1.89401 66.6636 2.84332C69.576 3.87097 72.3641 5.16129 74.9954 6.68203C75.9032 7.20737 76.7926 7.75576 77.659 8.3364C79.6544 9.66359 81.5484 11.129 83.3272 12.7189C84.7143 13.9631 86.0369 15.2811 87.2765 16.6682C88.8664 18.447 90.3318 20.341 91.659 22.3364C92.235 23.2074 92.788 24.0968 93.3134 25C94.8341 27.6359 96.1244 30.424 97.1521 33.3318C98.0968 36.0138 98.8203 38.7972 99.3041 41.6636C99.7558 44.3733 99.9954 47.1567 99.9954 49.9954C99.9954 52.8341 99.7604 55.6175 99.3041 58.3272C98.8249 61.1935 98.1014 63.9816 97.1521 66.659C96.1244 69.5714 94.8341 72.3594 93.3134 74.9908C92.788 75.8986 92.2396 76.788 91.659 77.6544C90.3318 79.6498 88.8664 81.5438 87.2765 83.3226C86.0323 84.7097 84.7143 86.0323 83.3272 87.2719C81.5484 88.8617 79.6544 90.3272 77.659 91.6544C76.788 92.2304 75.8986 92.7834 74.9954 93.3088C72.3594 94.8295 69.5714 96.1198 66.6636 97.1475C63.9816 98.0922 61.1982 98.8157 58.3318 99.2995C55.6221 99.765 52.8387 100 50 100L50 8.3318ZM75.0184 16.6636C75.0184 16.6636 75.0046 16.6544 75 16.6498L75 16.6636L75.0184 16.6636ZM83.3456 24.9954C83.3456 24.9954 83.3364 24.9816 83.3318 24.977L83.3318 24.9954L83.3456 24.9954ZM83.3456 74.9954L83.3318 74.9954L83.3318 75.0138C83.3318 75.0138 83.341 75 83.3456 74.9954ZM75.0184 83.3272L75 83.3272L75 83.341C75 83.341 75.0138 83.3318 75.0184 83.3272Z" fill="#FF5F1E"/>
<path fill-rule="evenodd" clip-rule="evenodd" d="M0 100L50 0L100 100H50H0Z" fill="#FCD2E2"/>
<path fill-rule="evenodd" clip-rule="evenodd" d="M0 100L25 50L50 100H25H0Z" fill="#EE79C7"/>
<path fill-rule="evenodd" clip-rule="evenodd" d="M50 100L75 50L100 100H75H50Z" fill="#EE79C7"/>
</svg>
