<svg viewBox="0 0 369 96" fill="none" xmlns="http://www.w3.org/2000/svg">
<path d="M25.3213 9.45275H9.97849V16.5747H23.594V25.1601H9.97849V32.282H25.3253V40.9728H0V0.757996H25.3213V9.4487V9.45275Z" fill="#FCE6EF"/>
<path d="M73.8676 40.9728L71.224 33.3035H56.4529L53.8093 40.9728H43.178L57.6571 0.757996H69.9387L84.4746 40.9687H73.8676V40.9728ZM59.2547 25.1601H68.4222L63.8405 11.8605L59.2587 25.1601H59.2547Z" fill="#FCE6EF"/>
<path d="M101.301 35.0303L106.67 27.8313C109.524 30.8431 114.341 33.1982 117.824 33.1982C120.127 33.1982 121.36 32.1767 121.36 30.2918C121.36 28.2772 119.815 27.0976 114.447 24.6088C105.806 20.6566 102.741 17.4341 102.741 11.9132C102.741 4.68584 107.951 0 115.991 0C121.048 0 126.258 1.99027 130.316 5.41953L125.341 12.7766C122.645 10.3688 118.534 8.53667 115.626 8.53667C113.688 8.53667 112.614 9.34737 112.614 10.8391C112.614 12.4361 113.895 13.5103 119.109 15.8938C128.119 20.004 131.496 23.7211 131.496 29.6108C131.496 37.0449 126.128 41.7308 117.617 41.7308C111.543 41.7308 105.441 39.1933 101.301 35.0303Z" fill="#FCE6EF"/>
<path d="M178.652 0.757996V9.44869H168.779V40.9687H158.8V9.45275H148.927V0.757996H178.652Z" fill="#FCE6EF"/>
<path d="M223.03 9.45275H207.683V16.5747H221.299V25.1601H207.683V32.282H223.03V40.9728H197.709V0.757996H223.03V9.4487V9.45275Z" fill="#FCE6EF"/>
<path d="M266.573 40.9728L257.851 25.1601H253.87V40.9728H243.891V0.757996H260.025C269.634 0.757996 273.879 6.28291 273.879 13.0887C273.879 17.7219 271.495 21.5443 267.858 23.5873L278.23 40.9728H266.577H266.573ZM253.874 8.90147V17.0166H259.007C262.62 17.0166 263.905 15.3952 263.905 12.9307C263.905 10.4661 262.624 8.89742 259.007 8.89742H253.874V8.90147Z" fill="#FCE6EF"/>
<path d="M326.61 40.9728L322.71 31.1552H302.704L298.803 40.9728H294.769L310.898 0.757996H314.458L330.592 40.9687H326.61V40.9728ZM304.062 27.6732H321.347L312.707 5.8654L304.066 27.6732H304.062Z" fill="#FCE6EF"/>
<path d="M368.766 0.733704V4.23998H357.531V40.9687H353.837V4.23998H342.602V0.733704H368.762H368.766Z" fill="#FCE6EF"/>
<path d="M28.046 57.6083H37.3109V94.9491H27.8027L9.27299 71.0537V94.9491H0.00811768V57.6083H9.46761L28.046 81.4307V57.6083Z" fill="#EE79C7"/>
<path d="M72.0876 65.6788H57.8396V72.2901H70.486V80.2633H57.8396V86.8746H72.0876V94.9451H48.5747V57.6042H72.0876V65.6748V65.6788Z" fill="#EE79C7"/>
<path d="M92.8515 94.9491L79.6942 57.6083H89.4699L98.1752 83.1088L104.691 57.6083H112.861L119.377 83.1088L128.107 57.6083H137.858L124.725 94.9491H114.365L108.774 74.2844L103.207 94.9491H92.8474H92.8515Z" fill="#EE79C7"/>
<path d="M143.871 89.4282L148.854 82.744C151.506 85.5409 155.978 87.7258 159.214 87.7258C161.355 87.7258 162.498 86.7773 162.498 85.0261C162.498 83.1534 161.063 82.059 156.08 79.7525C148.056 76.0801 145.209 73.0927 145.209 67.9609C145.209 61.2524 150.046 56.8989 157.515 56.8989C162.206 56.8989 167.048 58.7473 170.818 61.9334L166.2 68.7635C163.694 66.526 159.879 64.8276 157.179 64.8276C155.378 64.8276 154.381 65.5815 154.381 66.9678C154.381 68.4514 155.573 69.4486 160.41 71.6577C168.775 75.4761 171.913 78.9256 171.913 84.3979C171.913 91.301 166.93 95.6544 159.023 95.6544C153.383 95.6544 147.715 93.2953 143.875 89.4323L143.871 89.4282Z" fill="#EE79C7"/>
<path d="M198.658 57.6083C206.584 57.6083 211.523 63.1737 211.523 70.0079C211.523 76.8421 206.584 82.1644 198.658 82.1644H190.95V94.9532H181.685V57.6123H198.658V57.6083ZM196.711 74.4789C200.555 74.4789 202.254 72.7521 202.254 69.862C202.254 66.9719 200.551 65.2653 196.711 65.2653H190.95V74.4789H196.711Z" fill="#EE79C7"/>
<path d="M241.896 94.9491L233.799 80.2673H230.101V94.9491H220.836V57.6083H235.814C244.739 57.6083 248.68 62.736 248.68 69.0594C248.68 73.3642 246.466 76.911 243.088 78.8081L252.718 94.9491H241.896ZM230.101 65.1681V72.7035H234.866C238.223 72.7035 239.415 71.1956 239.415 68.9094C239.415 66.6233 238.223 65.164 234.866 65.164H230.101V65.1681Z" fill="#EE79C7"/>
<path d="M261.326 94.9491V57.6083H270.591V94.9491H261.326Z" fill="#EE79C7"/>
<path d="M309.84 57.6083H319.105V94.9491H309.597L291.067 71.0537V94.9491H281.802V57.6083H291.262L309.84 81.4307V57.6083Z" fill="#EE79C7"/>
<path d="M368.953 76.23C368.953 87.5839 360.491 95.6544 348.89 95.6544C337.29 95.6544 328.804 87.5839 328.804 76.2787C328.804 64.9735 337.29 56.903 348.89 56.903C356.014 56.903 361.926 59.8944 365.474 64.9248L357.401 69.3472C355.455 66.8178 352.418 65.314 348.842 65.314C342.715 65.314 338.069 69.9552 338.069 76.2787C338.069 82.6021 342.711 87.2434 348.89 87.2434C353.63 87.2434 357.45 84.5194 358.982 80.3646H349.839V73.048H368.71C368.856 73.9479 368.953 75.0424 368.953 76.2341V76.23Z" fill="#EE79C7"/>
</svg>
