<?xml version="1.0" standalone="no"?>
<!DOCTYPE svg PUBLIC "-//W3C//DTD SVG 1.1//EN" "http://www.w3.org/Graphics/SVG/1.1/DTD/svg11.dtd" >
<svg xmlns="http://www.w3.org/2000/svg" xmlns:xlink="http://www.w3.org/1999/xlink" version="1.1">
<metadata></metadata>
<defs>
<font id="masqueregular" horiz-adv-x="1693" >
<font-face units-per-em="2048" ascent="1638" descent="-410" />
<missing-glyph horiz-adv-x="739" />
<glyph horiz-adv-x="0" />
<glyph unicode="&#xd;" horiz-adv-x="1024" />
<glyph unicode=" "  horiz-adv-x="739" />
<glyph unicode="&#x09;" horiz-adv-x="739" />
<glyph unicode="&#xa0;" horiz-adv-x="739" />
<glyph unicode="!" horiz-adv-x="722" d="M4 0h463l90 303h-461zM135 434h463l356 1094h-458z" />
<glyph unicode="&#x22;" horiz-adv-x="1075" d="M-70 874h463l234 658h-461zM496 877h462l234 657h-461z" />
<glyph unicode="'" horiz-adv-x="475" d="M-70 874h463l234 658h-461z" />
<glyph unicode="+" horiz-adv-x="917" d="M-12 590h221l-82 -262h463l80 262h256l92 301h-256l78 244h-459l-80 -244h-223z" />
<glyph unicode="," horiz-adv-x="475" d="M-166 -354h463l233 657h-460z" />
<glyph unicode="-" horiz-adv-x="784" d="M0 377h752l92 301h-754z" />
<glyph unicode="." horiz-adv-x="477" d="M8 0h461l92 303h-463z" />
<glyph unicode="0" d="M0 0h481l185 324h469v-324h424v1528h-443q-14 0 -51 -6t-88 -35t-111.5 -87.5t-124.5 -162.5z" />
<glyph unicode="1" horiz-adv-x="1705" d="M53 0h801q111 0 190.5 9t133.5 26q127 41 219 137t133 234q84 256 -127 356q57 20 112.5 58t101.5 86t81 104.5t53 115.5q35 111 5 202t-103 147q-18 14 -52 23t-78 15.5t-94.5 9.5t-101.5 5l2 4l-409 2q-178 2 -295 -21.5t-199 -78t-144.5 -143.5t-129.5 -218 q-4 -14 11 -18t25 10q39 47 98.5 82t137.5 57z" />
<glyph unicode="2" horiz-adv-x="1646" d="M8 -2l1047 2q66 0 126 23.5t113.5 63.5t98.5 92t82 108q23 33 49 101.5t55 154.5t55.5 182t48 184t34 160t12.5 113q0 61 -23 118.5t-64 100.5q-70 72 -160.5 99.5t-189.5 27.5h-835z" />
<glyph unicode="3" horiz-adv-x="1568" d="M57 371q-8 -92 15.5 -156.5t70.5 -109t111.5 -70t138.5 -38.5t149.5 -16.5t145.5 -3.5q96 0 191.5 8.5t191.5 24.5q119 20 219.5 92t151.5 185q96 221 157.5 447t96.5 462v55q-27 111 -100.5 169.5t-169 85t-201 30.5t-195.5 4q-182 0 -311 -27.5t-214 -71.5t-133 -97.5 t-69 -104.5q-39 -94 -78 -201.5t-72.5 -220t-59 -226.5t-36.5 -220z" />
<glyph unicode="4" horiz-adv-x="1570" d="M-4 0h457l133 434h528q66 0 126 24.5t113.5 64.5t98.5 92.5t82 107.5q66 102 100.5 219t34.5 238q0 61 -22.5 118.5t-63.5 100.5q-70 70 -161 98.5t-189 28.5h-776z" />
<glyph unicode="5" horiz-adv-x="1884" d="M87 303q9 -74 40 -136.5t85 -108.5t134 -66q72 -16 142.5 -20.5t138.5 -6.5q47 76 115.5 129t146.5 90q45 20 91 31.5t97 15.5q-104 -36 -188 -108q-68 -55 -117 -129t-70 -162q-4 -14 11.5 -18t25.5 10q72 88 209 132t330 44h514l88 291h-410q88 217 149.5 440t96.5 461 q0 84 -32.5 141.5t-87 94t-124 56t-144.5 29t-147.5 11.5t-131.5 2q-102 0 -212 -6.5t-209.5 -36t-179 -90t-124.5 -168.5q-76 -186 -137.5 -380t-98.5 -392q-10 -76 -1 -150z" />
<glyph unicode="6" horiz-adv-x="1568" d="M-4 0h442l131 434h283l147 -434h431l-156 475q78 41 142.5 107.5t111.5 140.5q68 102 101.5 219t33.5 238q0 88 -39 153.5t-100.5 108.5t-139 63.5t-155.5 20.5h-772z" />
<glyph unicode="7" horiz-adv-x="1478" d="M152 2h442q14 0 51 4t88 29.5t111.5 82t124.5 161.5l741 1249h-481l-662 -1188v1190h-415v-1528z" />
<glyph unicode="8" horiz-adv-x="2164" d="M135 2h443q14 0 51 4t87 29.5t111.5 82t122.5 161.5l4 4l154 -281h240q14 0 51 4t87 29.5t110.5 82t123.5 161.5l754 1249h-449l-706 -1188l-152 303l527 885h-482l-661 -1188v1192h-416v-1530z" />
<glyph unicode="9" horiz-adv-x="1521" d="M8 -2h461q6 0 8 2l332 1092q23 45 53.5 73.5t69.5 46t82 25.5t90 12q45 -6 87 -16t71.5 -29.5t43 -48.5t-0.5 -70l-330 -1085h434l356 1161q16 92 0 156.5t-56 108.5t-98.5 70t-126 39t-141 16t-143.5 3q-94 0 -211 -6t-230.5 -35.5t-211.5 -92t-160 -175.5z" />
<glyph unicode=":" horiz-adv-x="612" d="M-23 0h463l90 303h-460zM231 791h461l92 303h-462z" />
<glyph unicode=";" horiz-adv-x="612" d="M-166 -354h463l233 657h-460zM231 791h461l92 303h-462z" />
<glyph unicode="=" horiz-adv-x="841" d="M0 377h752l92 301h-754zM117 823h751l93 301h-754z" />
<glyph unicode="?" horiz-adv-x="1185" d="M0 0h463l90 303h-463zM121 430h739q66 0 126.5 23.5t113.5 63.5t98 92.5t82 107.5q66 102 101.5 223t35.5 242q0 61 -21.5 118.5t-64.5 100.5q-68 72 -160 99.5t-188 27.5h-530l-88 -277h499q29 0 52.5 -13t40 -34.5t25.5 -48.5t9 -51q0 -72 -27.5 -139.5t-74.5 -116.5 q-20 -25 -41 -44.5t-46.5 -33.5t-61 -22.5t-87.5 -6.5h-436z" />
<glyph unicode="A" d="M0 0h481l185 324h469v-324h424v1528h-443q-14 0 -51 -6t-88 -35t-111.5 -87.5t-124.5 -162.5zM821 600l322 576v-576h-322z" />
<glyph unicode="B" horiz-adv-x="1705" d="M53 0h801q111 0 190.5 9t133.5 26q127 41 219 137t133 234q24 73 24 133q0 151 -151 223q57 20 112.5 58t101.5 86t81 104.5t53 115.5q19 60 19 114q0 46 -14 88q-30 91 -103 147q-18 14 -52 23t-78 15.5t-94.5 9.5t-101.5 5l2 4l-409 2h-28q-160 0 -267 -22 q-117 -24 -199 -78t-144.5 -143t-129.5 -218q-4 -14 11 -18t25 10q39 47 98.5 82t137.5 57zM588 272l106 355h234q72 0 105.5 -7.5t60.5 -25.5q39 -28 39 -77q0 -26 -11 -58q-12 -43 -45 -83t-76 -67q-18 -10 -36.5 -17t-39 -11.5t-48 -6.5t-64.5 -2h-225zM778 899l105 342 h358v2q20 -4 41 -22q40 -29 40 -81q0 -25 -9 -55q-14 -43 -47 -82.5t-76 -66.5q-37 -23 -74 -30t-110 -7h-228z" />
<glyph unicode="C" horiz-adv-x="1409" d="M58 342q6 -88 36.5 -164t91 -129t156.5 -63q180 -20 359 -20q248 0 495 38l109 379q-168 -33 -339 -34h-13q-164 0 -330 24q-31 6 -52.5 28.5t-17.5 51.5q18 172 71.5 336.5t139.5 314.5q14 27 40.5 44t57.5 17h678l111 367h-906q-115 0 -204.5 -51t-160.5 -136 t-122 -194t-89 -222.5t-62.5 -224t-40.5 -196.5q-10 -56 -10 -117q0 -24 2 -49z" />
<glyph unicode="D" horiz-adv-x="1646" d="M8 -2l1047 2q66 0 126 23.5t113.5 63.5t98.5 92t82 108q23 33 49 101.5t55 154.5t55.5 182t48 184t34 160t12.5 113q0 61 -23 118.5t-64 100.5q-70 72 -160.5 99.5t-189.5 27.5h-835zM555 311l270 940h351q29 0 51 -13t38.5 -34.5t25.5 -48.5t9 -51q0 -25 -13 -79 t-33.5 -124t-45 -146.5t-49 -145t-45 -121t-31.5 -70.5q-18 -31 -35.5 -51.5t-43 -32.5t-63.5 -17.5t-93 -5.5h-293z" />
<glyph unicode="E" horiz-adv-x="1562" d="M72 997q-6 -12 6 -17t22 1q4 0 11 6q37 39 72.5 58.5t69.5 29.5t65.5 16.5t60.5 16.5q-63 -143 -109.5 -293.5t-74.5 -306.5q-11 -59 -11 -124q0 -21 2 -42q4 -88 35 -164t91.5 -129t156.5 -63q180 -20 360 -20q249 0 496 38l109 379q-170 -33 -346 -38q-28 -1 -56 -1 q-149 0 -295 23q-29 4 -51 30.5t-18 55.5q6 47 20 94t25 94h577l90 293q-176 0 -281.5 1t-164.5 1q-57 0 -83 -1t-44 -3q18 27 32.5 66.5t34 76.5t47 63.5t70.5 26.5h651l111 367h-881q-145 0 -265 -39t-218 -109.5t-177 -169t-140 -217.5z" />
<glyph unicode="F" horiz-adv-x="1323" d="M0 0h463l168 563h575l88 293h-282h-164q-57 0 -84 -1t-47 -3l86 313h583l121 363h-608v4h-2h-19q-166 0 -281 -33q-122 -35 -210 -103.5t-154.5 -169t-134.5 -229.5q-6 -12 6.5 -17t22.5 1q6 0 10 6q35 41 83 73t110 54z" />
<glyph unicode="G" horiz-adv-x="1540" d="M58 342q5 -88 36 -164t91.5 -129t156.5 -63q180 -20 359 -20q232 0 462 34h92l224 696h-457l-115 -348q-72 0 -143 -2h-24q-60 0 -117 8q-31 4 -53 37q-18 28 -18 53q0 4 1 9q18 172 71.5 336.5t139.5 314.5q14 27 40.5 44t57.5 17h678l111 367h-906q-63 0 -124.5 -20.5 t-116.5 -55.5t-99.5 -82t-72.5 -100q-94 -180 -162 -371.5t-104 -394.5q-10 -56 -10 -117q0 -24 2 -49z" />
<glyph unicode="H" horiz-adv-x="1597" d="M-82 594q-4 -14 11.5 -18.5t25.5 10.5q51 59 131 98t188 61l-227 -745h461l231 762h334l-233 -760h463l462 1526h-458l-136 -443h-333l133 441h-457l-143 -467q-82 -18 -144.5 -59.5t-115 -100.5t-98.5 -136t-95 -169z" />
<glyph unicode="I" horiz-adv-x="727" d="M0 0h463l461 1526h-457z" />
<glyph unicode="J" horiz-adv-x="1165" d="M-115 4h529v-2h2h19q166 0 281 33q122 35 210 103.5t154.5 169t133.5 229.5q6 12 -6 17t-22 -1q-8 0 -10 -8q-66 -78 -193 -125l330 1114h-463l-340 -1165h-504z" />
<glyph unicode="K" horiz-adv-x="1476" d="M16 0h451l197 643l270 -643h438l-399 831l794 701h-430l-565 -528l162 528h-451z" />
<glyph unicode="L" horiz-adv-x="1298" d="M82 526q-29 -111 -29 -200q1 -97 35 -167q66 -134 246 -157q174 -26 347 -26q36 0 73 2q209 6 436 45l108 378q-170 -35 -340 -47q-52 -4 -105 -4q-119 0 -239 19q-29 7 -55 39q-23 28 -22 53v8q4 53 17 102.5t24 102.5l258 854h-457q-70 -225 -119 -384t-81 -266.5 t-49 -171t-27.5 -99.5t-14.5 -52t-6 -29z" />
<glyph unicode="M" horiz-adv-x="1978" d="M0 0h453l319 1061l139 -729h101l585 710l-315 -1042h459l457 1526h-412q-80 0 -156 -38t-129 -104l-293 -368l-67 350q-8 37 -29.5 65.5t-52.5 50t-68 33t-73 11.5h-459z" />
<glyph unicode="N" horiz-adv-x="1857" d="M0 0h453l319 1061l215 -1061h545l457 1526h-439l-270 -885l-139 725q-8 37 -29.5 65.5t-52.5 50t-68 33t-73 11.5h-459z" />
<glyph unicode="O" horiz-adv-x="1568" d="M57 371q-2 -23 -2 -45q-1 -64 17 -112q24 -64 71 -108.5t111.5 -70t138.5 -38.5t149.5 -16.5t145.5 -3.5q96 0 191.5 8.5t191.5 24.5q119 20 219.5 92t151.5 185q96 221 157.5 447t96.5 462v55q-27 111 -100.5 169.5t-169 85t-201 30.5t-195.5 4q-182 0 -311 -27.5 t-214 -71.5t-133 -97.5t-69 -104.5q-39 -94 -78 -201.5t-72.5 -220t-59 -226.5t-36.5 -220zM523 374q-4 15 -4 32q0 19 5 40q37 174 90.5 344.5t114.5 329.5q14 39 45 62.5t69 37t79 17.5t75 4q31 0 74 -4t79 -17.5t56 -41.5q14 -18 14 -45q0 -13 -3 -29 q-35 -178 -90.5 -349t-127.5 -341q-10 -47 -44.5 -74t-81 -39t-96.5 -15t-89 -3q-12 -1 -23 -1q-29 0 -53 7q-34 10 -57 31.5t-32 53.5z" />
<glyph unicode="P" horiz-adv-x="1570" d="M-4 0h457l133 434h528q66 0 126 24.5t113.5 64.5t98.5 92.5t82 107.5q66 102 100.5 219t34.5 238q0 61 -22.5 118.5t-63.5 100.5q-70 70 -161 98.5t-189 28.5h-776zM678 748l153 501h285q29 0 51.5 -13t39 -34.5t25.5 -48.5t9 -51q0 -72 -25.5 -135.5t-72.5 -114.5 q-18 -20 -35.5 -39.5t-43.5 -34t-62.5 -22.5t-94.5 -8h-229z" />
<glyph unicode="Q" horiz-adv-x="1884" d="M87 303q9 -74 40 -136.5t85 -108.5t134 -66q72 -16 142.5 -20.5t138.5 -6.5q47 76 115.5 129t146.5 90q45 20 91 31.5t97 15.5q-104 -36 -188 -108q-68 -55 -117 -129t-70 -162q-4 -14 11.5 -18t25.5 10q72 88 209 132t330 44h514l88 291h-410q88 217 149.5 440t96.5 461 q0 84 -32.5 141.5t-87 94t-124 56t-144.5 29t-147.5 11.5t-131.5 2q-102 0 -212 -6.5t-209.5 -36t-179 -90t-124.5 -168.5q-76 -186 -137.5 -380t-98.5 -392q-5 -40 -5 -79q0 -36 4 -71zM542 349q-5 21 -5 41q0 21 6 42q41 174 91 344t118 330q16 45 53 71.5t84 36.5 q49 9 101 9q17 0 34 -1q69 -4 135 -10q18 -4 33.5 -17t27 -31.5t16.5 -39t1 -34.5q-41 -176 -95.5 -348.5t-121.5 -344.5q-20 -47 -64.5 -86t-97.5 -39q-59 -7 -119 -7h-15q-69 1 -130 26q-41 16 -52 58z" />
<glyph unicode="R" horiz-adv-x="1568" d="M-4 0h442l131 434h283l147 -434h431l-156 475q78 41 142.5 107.5t111.5 140.5q68 102 101.5 219t33.5 238q0 88 -39 153.5t-100.5 108.5t-139 63.5t-155.5 20.5h-772zM664 748l151 501h283q29 0 52.5 -13t39.5 -34.5t25.5 -48.5t9.5 -51q0 -72 -25.5 -135.5t-73.5 -114.5 q-18 -20 -35.5 -39.5t-43 -34t-63.5 -22.5t-95 -8h-225z" />
<glyph unicode="S" horiz-adv-x="1474" d="M8 0h561q184 0 301 13.5t189 47.5q117 55 185.5 161t109.5 231q31 87 31 168q-1 10 -1 21q-4 91 -43 144q-49 70 -147 98.5t-281 28.5h-73q-31 0 -53.5 1t-39 4.5t-32.5 11.5q-39 18 -53 52q-5 13 -4 27q0 25 14 58q20 47 72.5 67.5t123.5 28.5l658 2l88 367h-750h-19 q-166 0 -280 -34q-121 -36 -209 -104.5t-155.5 -169t-134.5 -229.5q-4 -12 8 -17t22 1q4 0 10 6q31 39 77 68.5t104 52.5q-19 -58 -23 -116q-1 -15 -1 -31q1 -41 7 -79q10 -52 25.5 -96.5t32.5 -81.5q14 -35 53 -57t91 -37.5t114.5 -22.5t123 -10.5t113.5 -3.5t90 2 q43 -23 57 -43q6 -9 6 -25q0 -19 -9 -48q-14 -43 -55.5 -63.5t-96.5 -28t-117 -7.5h-116h-486z" />
<glyph unicode="T" horiz-adv-x="1378" d="M4 997q-4 -14 11.5 -18t25.5 8q33 41 69.5 76t99 59.5t162.5 35.5q73 8 178 8q38 0 81 -1l-357 -1165h463l353 1165h380l111 363h-786v4h-19q-165 0 -279 -33q-120 -35 -207 -103.5t-152.5 -169t-133.5 -229.5z" />
<glyph unicode="U" horiz-adv-x="1521" d="M47 214q16 -64 56 -108.5t98.5 -70t126 -38.5t141.5 -16.5t143 -3.5q94 0 210 6.5t229.5 36t213 92t160.5 175.5l379 1247h-461q-6 0 -8 -2l-331 -1092q-23 -45 -53.5 -73.5t-69.5 -46t-82 -25.5t-90 -12q-45 6 -87 16t-72 29.5t-43 48.5q-6 14 -6 30q0 18 7 39l330 1086 h-435l-356 -1161q-8 -46 -8 -85.5t8 -71.5z" />
<glyph unicode="V" horiz-adv-x="1478" d="M152 2h442q14 0 51 4t88 29.5t111.5 82t124.5 161.5l741 1249h-481l-662 -1188l-2 741h-413v-1079z" />
<glyph unicode="W" horiz-adv-x="2164" d="M135 2h443q14 0 51 4t87 29.5t111.5 82t122.5 161.5l4 4l154 -281h240q14 0 51 4t87 29.5t110.5 82t123.5 161.5l754 1249h-449l-706 -1188l-152 303l527 885h-482l-661 -1188v750h-416v-1088z" />
<glyph unicode="X" horiz-adv-x="1329" d="M-203 0h422l393 369l82 -369h422l-153 737l786 795h-420l-440 -440l-90 442h-439l175 -797z" />
<glyph unicode="Y" horiz-adv-x="1343" d="M-18 1532l344 -860l-205 -670h450l201 660l905 870h-485l-578 -596l-194 596h-438z" />
<glyph unicode="Z" horiz-adv-x="1433" d="M-10 0h1353l91 274h-791l1090 981l94 283h-750v2h-29q-160 0 -266 -20q-116 -22 -198 -76.5t-144.5 -144t-130.5 -218.5q-4 -16 11.5 -19t25.5 9q72 90 209 134t330 44h282l-1091 -981z" />
<glyph unicode="^" horiz-adv-x="579" d="M18 1229h658l-240 303z" />
<glyph unicode="_" horiz-adv-x="921" d="M-94 -362h1020l92 301h-1022z" />
<glyph unicode="`" horiz-adv-x="1132" d="M326 1640h481l-391 304z" />
<glyph unicode="a" d="M0 0h481l185 324h469v-324h424v1528h-443q-14 0 -51 -6t-88 -35t-111.5 -87.5t-124.5 -162.5zM821 600l322 576v-576h-322z" />
<glyph unicode="b" horiz-adv-x="1536" d="M-10 0h801q111 0 190.5 9t132.5 26q127 41 219 137t133 234q24 73 24 133q0 151 -151 223q57 20 112.5 58t101.5 86t81 104.5t54 115.5q19 60 19 114q0 46 -14 88q-30 91 -104 147q-18 14 -52 23t-78 15.5t-94 9.5t-101 5l2 4l-410 2h-28q-160 0 -267 -22 q-117 -24 -198.5 -78t-144 -143t-130.5 -218q-4 -14 11.5 -18t25.5 10q39 47 98.5 82t136.5 57zM524 272l107 355h233q72 0 106 -7.5t60 -25.5q39 -29 39 -79q0 -25 -10 -56q-12 -43 -45 -83t-76 -67q-18 -10 -36.5 -17t-39 -11.5t-48.5 -6.5t-64 -2h-226zM715 899l104 342 h359v2q20 -4 41 -22q40 -29 40 -80q0 -25 -10 -56q-14 -43 -47 -82.5t-76 -66.5q-37 -23 -73.5 -30t-110.5 -7h-227z" />
<glyph unicode="c" horiz-adv-x="1409" d="M58 342q6 -88 36.5 -164t91 -129t156.5 -63q180 -20 359 -20q248 0 495 38l109 379q-168 -33 -339 -34h-13q-164 0 -330 24q-31 6 -52.5 28.5t-17.5 51.5q18 172 71.5 336.5t139.5 314.5q14 27 40.5 44t57.5 17h678l111 367h-906q-115 0 -204.5 -51t-160.5 -136 t-122 -194t-89 -222.5t-62.5 -224t-40.5 -196.5q-10 -56 -10 -117q0 -24 2 -49z" />
<glyph unicode="d" horiz-adv-x="1646" d="M8 -2l1047 2q66 0 126 23.5t113.5 63.5t98.5 92t82 108q23 33 49 101.5t55 154.5t55.5 182t48 184t34 160t12.5 113q0 61 -23 118.5t-64 100.5q-70 72 -160.5 99.5t-189.5 27.5h-835zM555 311l270 940h351q29 0 51 -13t38.5 -34.5t25.5 -48.5t9 -51q0 -25 -13 -79 t-33.5 -124t-45 -146.5t-49 -145t-45 -121t-31.5 -70.5q-18 -31 -35.5 -51.5t-43 -32.5t-63.5 -17.5t-93 -5.5h-293z" />
<glyph unicode="e" horiz-adv-x="1562" d="M72 997q-6 -12 6 -17t22 1q4 0 11 6q37 39 72.5 58.5t69.5 29.5t65.5 16.5t60.5 16.5q-63 -143 -109.5 -293.5t-74.5 -306.5q-11 -59 -11 -124q0 -21 2 -42q4 -88 35 -164t91.5 -129t156.5 -63q180 -20 360 -20q249 0 496 38l109 379q-170 -33 -346 -38q-28 -1 -56 -1 q-149 0 -295 23q-29 4 -51 30.5t-18 55.5q6 47 20 94t25 94h577l90 293q-176 0 -281.5 1t-164.5 1q-57 0 -83 -1t-44 -3q20 29 35.5 68.5t35 76.5t46 62.5t67.5 25.5h651l111 367h-881q-145 0 -265 -39t-218 -109.5t-177 -169t-140 -217.5z" />
<glyph unicode="f" horiz-adv-x="1323" d="M0 0h463l168 563h575l88 293h-282h-164q-57 0 -84 -1t-47 -3l86 313h583l121 363h-608v4h-2h-19q-166 0 -281 -33q-122 -35 -210 -103.5t-154.5 -169t-134.5 -229.5q-6 -12 6.5 -17t22.5 1q6 0 10 6q35 41 83 73t110 54z" />
<glyph unicode="g" horiz-adv-x="1527" d="M107 342q6 -88 36.5 -164t91 -129t156.5 -63q180 -20 359 -20q232 0 462 34h93l223 696h-457l-115 -348q-72 0 -144 -2h-23q-59 0 -117 8q-31 4 -52 37q-19 28 -19 53q0 4 1 9q18 172 71.5 336.5t139.5 314.5q14 27 41 44t57 17h678l111 367h-905q-63 0 -125 -20.5 t-117 -55.5t-99 -82t-73 -100q-94 -180 -161.5 -371.5t-104.5 -394.5q-10 -55 -10 -114q0 -26 2 -52z" />
<glyph unicode="h" horiz-adv-x="1597" d="M-82 594q-4 -14 11.5 -18.5t25.5 10.5q51 59 131 98t188 61l-227 -745h461l231 762h334l-233 -760h463l462 1526h-458l-136 -443h-333l133 441h-457l-143 -467q-82 -18 -144.5 -59.5t-115 -100.5t-98.5 -136t-95 -169z" />
<glyph unicode="i" horiz-adv-x="727" d="M0 0h463l461 1526h-457z" />
<glyph unicode="j" horiz-adv-x="1159" d="M-121 4h529v-2h2h19q166 0 281 33q121 35 209.5 103.5t155 169t133.5 229.5q6 12 -6 17t-22 -1q-8 0 -11 -8q-66 -78 -192 -125l330 1114h-463l-340 -1165h-504z" />
<glyph unicode="k" horiz-adv-x="1476" d="M16 0h451l197 643l270 -643h438l-399 831l794 701h-430l-565 -528l162 528h-451z" />
<glyph unicode="l" horiz-adv-x="1298" d="M82 526q-29 -111 -29 -200q1 -97 35 -167q66 -134 246 -157q174 -26 347 -26q36 0 73 2q209 6 436 45l108 378q-170 -35 -340 -47q-52 -4 -105 -4q-119 0 -239 19q-29 7 -55 39q-23 28 -22 53v8q4 53 17 102.5t24 102.5l258 854h-457q-70 -225 -119 -384t-81 -266.5 t-49 -171t-27.5 -99.5t-14.5 -52t-6 -29z" />
<glyph unicode="m" horiz-adv-x="1978" d="M0 0h453l319 1061l139 -729h101l585 710l-315 -1042h459l457 1526h-412q-80 0 -156 -38t-129 -104l-293 -368l-67 350q-8 37 -29.5 65.5t-52.5 50t-68 33t-73 11.5h-459z" />
<glyph unicode="n" horiz-adv-x="1857" d="M0 0h453l319 1061l215 -1061h545l457 1526h-439l-270 -885l-139 725q-8 37 -29.5 65.5t-52.5 50t-68 33t-73 11.5h-459z" />
<glyph unicode="o" horiz-adv-x="1568" d="M57 371q-2 -23 -2 -45q-1 -64 17 -112q24 -64 71 -108.5t111.5 -70t138.5 -38.5t149.5 -16.5t145.5 -3.5q96 0 191.5 8.5t191.5 24.5q119 20 219.5 92t151.5 185q96 221 157.5 447t96.5 462v55q-27 111 -100.5 169.5t-169 85t-201 30.5t-195.5 4q-182 0 -311 -27.5 t-214 -71.5t-133 -97.5t-69 -104.5q-39 -94 -78 -201.5t-72.5 -220t-59 -226.5t-36.5 -220zM523 374q-4 15 -4 32q0 19 5 40q37 174 90.5 344.5t114.5 329.5q14 39 45 62.5t69 37t79 17.5t75 4q31 0 74 -4t79 -17.5t56 -41.5q14 -18 14 -45q0 -13 -3 -29 q-35 -178 -90.5 -349t-127.5 -341q-10 -47 -44.5 -74t-81 -39t-96.5 -15t-89 -3q-12 -1 -23 -1q-29 0 -53 7q-34 10 -57 31.5t-32 53.5z" />
<glyph unicode="p" horiz-adv-x="1570" d="M-4 0h457l133 434h528q66 0 126 24.5t113.5 64.5t98.5 92.5t82 107.5q66 102 100.5 219t34.5 238q0 61 -22.5 118.5t-63.5 100.5q-70 70 -161 98.5t-189 28.5h-776zM678 748l153 501h285q29 0 51.5 -13t39 -34.5t25.5 -48.5t9 -51q0 -72 -25.5 -135.5t-72.5 -114.5 q-18 -20 -35.5 -39.5t-43.5 -34t-62.5 -22.5t-94.5 -8h-229z" />
<glyph unicode="q" horiz-adv-x="1884" d="M87 303q9 -74 40 -136.5t85 -108.5t134 -66q72 -16 142.5 -20.5t138.5 -6.5q47 76 115.5 129t146.5 90q45 20 91 31.5t97 15.5q-104 -36 -188 -108q-68 -55 -117 -129t-70 -162q-4 -14 11.5 -18t25.5 10q72 88 209 132t330 44h514l88 291h-410q88 217 149.5 440t96.5 461 q0 84 -32.5 141.5t-87 94t-124 56t-144.5 29t-147.5 11.5t-131.5 2q-102 0 -212 -6.5t-209.5 -36t-179 -90t-124.5 -168.5q-76 -186 -137.5 -380t-98.5 -392q-5 -40 -5 -79q0 -36 4 -71zM542 349q-5 21 -5 41q0 21 6 42q41 174 91 344t118 330q16 45 53 71.5t84 36.5 q49 9 101 9q17 0 34 -1q69 -4 135 -10q18 -4 33.5 -17t27 -31.5t16.5 -39t1 -34.5q-41 -176 -95.5 -348.5t-121.5 -344.5q-20 -47 -64.5 -86t-97.5 -39q-59 -7 -119 -7h-15q-69 1 -130 26q-41 16 -52 58z" />
<glyph unicode="r" horiz-adv-x="1585" d="M-4 0h442l131 434h283l147 -434h431l-156 475q78 41 142.5 107.5t111.5 140.5q68 102 101.5 219t33.5 238q0 88 -39 153.5t-100.5 108.5t-139 63.5t-155.5 20.5h-772zM664 748l151 501h283q29 0 52.5 -13t39.5 -34.5t25.5 -48.5t9.5 -51q0 -72 -25.5 -135.5t-73.5 -114.5 q-18 -20 -35.5 -39.5t-43 -34t-63.5 -22.5t-95 -8h-225z" />
<glyph unicode="s" horiz-adv-x="1474" d="M8 0h561q184 0 301 13.5t189 47.5q117 55 185.5 161t109.5 231q31 87 31 168q-1 10 -1 21q-4 91 -43 144q-49 70 -147 98.5t-281 28.5h-73q-31 0 -53.5 1t-39 4.5t-32.5 11.5q-39 18 -53 52q-5 13 -4 27q0 25 14 58q20 47 72.5 67.5t123.5 28.5h658l88 369h-750h-19 q-166 0 -280 -34q-121 -36 -209 -104.5t-155.5 -169t-134.5 -229.5q-4 -12 8 -17t22 1q4 0 10 6q31 39 77 68.5t104 52.5q-19 -58 -23 -116q-1 -15 -1 -31q1 -41 7 -79q10 -52 25.5 -96.5t32.5 -81.5q14 -35 53 -57t91 -37.5t114.5 -22.5t123 -10.5t113.5 -3.5t90 2 q43 -23 57 -43q6 -9 6 -25q0 -19 -9 -48q-14 -43 -55.5 -63.5t-96.5 -28t-117 -7.5h-116h-486z" />
<glyph unicode="t" horiz-adv-x="1378" d="M4 997q-4 -14 11.5 -18t25.5 8q33 41 69.5 76t99 59.5t162.5 35.5q73 8 178 8q38 0 81 -1l-357 -1165h463l353 1165h380l111 363h-786v4h-19q-165 0 -279 -33q-120 -35 -207 -103.5t-152.5 -169t-133.5 -229.5z" />
<glyph unicode="u" horiz-adv-x="1521" d="M47 214q16 -64 56 -108.5t98.5 -70t126 -38.5t141.5 -16.5t143 -3.5q94 0 210 6.5t229.5 36t213 92t160.5 175.5l379 1247h-461q-6 0 -8 -2l-331 -1092q-23 -45 -53.5 -73.5t-69.5 -46t-82 -25.5t-90 -12q-45 6 -87 16t-72 29.5t-43 48.5q-6 14 -6 30q0 18 7 39l330 1086 h-435l-356 -1161q-8 -46 -8 -85.5t8 -71.5z" />
<glyph unicode="v" horiz-adv-x="1478" d="M152 2h442q14 0 51 4t88 29.5t111.5 82t124.5 161.5l741 1249h-481l-662 -1188v741h-415v-1079z" />
<glyph unicode="w" horiz-adv-x="2164" d="M135 2h443q14 0 51 4t87 29.5t111.5 82t122.5 161.5l4 4l154 -281h240q14 0 51 4t87 29.5t110.5 82t123.5 161.5l754 1249h-449l-706 -1188l-152 303l527 885h-482l-661 -1188v750h-416v-1088z" />
<glyph unicode="x" horiz-adv-x="1329" d="M-203 0h422l393 369l82 -369h422l-153 737l786 795h-420l-440 -440l-90 442h-439l175 -797z" />
<glyph unicode="y" horiz-adv-x="1228" d="M20 1532l345 -860l-205 -670h450l201 660l905 870h-485l-578 -596l-194 596h-439z" />
<glyph unicode="z" horiz-adv-x="1433" d="M-10 0h1353l91 274h-791l1090 981l94 283h-750v2h-29q-160 0 -266 -20q-116 -22 -198 -76.5t-144.5 -144t-130.5 -218.5q-4 -16 11.5 -19t25.5 9q72 90 209 134t330 44l280 -4l-1089 -977z" />
<glyph unicode="~" horiz-adv-x="856" d="M-8 1255l114 -129q57 68 98.5 96.5t80.5 28.5q27 0 80 -18.5t108 -40t100 -38.5t54 -17q55 0 105 15t98.5 48t97.5 86t104 129l-114 127q-57 -66 -99.5 -94.5t-83.5 -28.5q-16 0 -68.5 18.5t-110.5 41t-108.5 41t-60.5 18.5q-195 0 -395 -283z" />
<glyph unicode="&#xa1;" horiz-adv-x="722" d="M4 0h459l360 1094h-463zM401 1225h461l92 303h-462z" />
<glyph unicode="&#xa8;" horiz-adv-x="1132" d="M207 1640h305l92 304h-307zM643 1640h305l92 304h-307z" />
<glyph unicode="&#xad;" horiz-adv-x="784" d="M0 377h752l92 301h-754z" />
<glyph unicode="&#xb1;" horiz-adv-x="952" d="M-86 0h938l92 301h-940zM59 590h222l-82 -262h463l79 262h256l93 301h-256l77 244h-458l-80 -244h-223z" />
<glyph unicode="&#xb4;" horiz-adv-x="1132" d="M289 1640h463l92 304z" />
<glyph unicode="&#xb6;" horiz-adv-x="1728" d="M39 1548q-6 -6 20 -6h164l2 -627h-164q-6 0 -6 -4v-899q-4 -6 1 -8t10 -2l602 -2q23 0 6 4l26 158h146l28 -154q-2 -4 4.5 -6t10.5 -2l520 2q141 0 204.5 48t61.5 145l8 133q-4 23 -8 40t-12 33q-16 33 -43 52.5t-80 29.5q78 23 106.5 68t26.5 96v78q-6 47 -18 84 q-35 61 -92 84l-4 84q0 4 -6.5 5t-10.5 1h-246l4 213h240q8 0 0 8l-2 160q4 8 -10 8h-230v172h250q6 0 6 4l7 166q0 2 -6.5 5t-10.5 3h-504q-4 0 -7 -2t1 -4l-8 -344h-119l6 342q2 2 -4 5t-16 3h-842q-4 0 -12 -4v-170zM315 180v627h160q6 0 10 4l4 731h156l-2 -629h-31 q-4 0 -9 -1t-7 -1l-160 -731h-121zM367 752q4 2 5 3t3 1l131 -2q16 0 14 -6l-100 -326q6 -6 0 -6l-35 6q-12 0 -15 3t-1 5zM731 336l45 348l45 -348h-90zM911 913v283h123l-6 -444q0 -6 8 -7q104 0 162.5 -1t87.5 -1t38 -1t15 -1h7q45 0 47 -26q8 -4 9 -8.5t3 -14.5l6 -8 q4 -10 1 -16t-3 -13q-4 -57 -14.5 -70.5t-44.5 -13.5h-328l-76 334q-2 8 -12 8h-23zM1288 393h47q29 0 44.5 -3t23.5 -17q12 -23 12 -82q-4 -72 -17.5 -91.5t-60.5 -19.5h-45z" />
<glyph unicode="&#xbf;" horiz-adv-x="1185" d="M0 346q0 -61 21.5 -118.5t64.5 -100.5q68 -72 160 -99.5t188 -27.5h531l88 276h-500q-29 0 -52.5 13.5t-40 35t-25.5 48t-9 51.5q0 72 27.5 139.5t74.5 116.5q20 25 41 44t46.5 33.5t61.5 22.5t87 6h436l96 312h-739q-66 0 -126 -24.5t-113.5 -64.5t-98.5 -91.5 t-82 -106.5q-66 -102 -101.5 -223t-35.5 -242zM864 1225h463l90 303h-463z" />
<glyph unicode="&#xc0;" d="M0 0h481l185 324h469v-324h424v1528h-443q-14 0 -51 -6t-88 -35t-111.5 -87.5t-124.5 -162.5zM821 600l322 576v-576h-322zM920 1636h481l-391 303z" />
<glyph unicode="&#xc1;" d="M0 0h481l185 324h469v-324h424v1528h-443q-14 0 -51 -6t-88 -35t-111.5 -87.5t-124.5 -162.5zM821 600l322 576v-576h-322zM1010 1640h463l92 304z" />
<glyph unicode="&#xc2;" d="M0 0h481l185 324h469v-324h424v1528h-443q-14 0 -51 -6t-88 -35t-111.5 -87.5t-124.5 -162.5zM821 600l322 576v-576h-322zM913 1624h658l-240 303z" />
<glyph unicode="&#xc3;" d="M0 0h481l185 324h469v-324h424v1528h-443q-14 0 -51 -6t-88 -35t-111.5 -87.5t-124.5 -162.5zM821 600l322 576v-576h-322zM967 1714l63 -72q33 39 55.5 54.5t42.5 15.5q14 0 44 -10t61 -21.5t56.5 -21.5t29.5 -10q63 0 114.5 34.5t110.5 120.5l-63 70 q-33 -37 -55.5 -52.5t-45.5 -15.5q-10 0 -38.5 10.5t-61.5 22.5t-60.5 22.5t-33.5 10.5q-106 0 -219 -158z" />
<glyph unicode="&#xc4;" d="M0 0h481l185 324h469v-324h424v1528h-443q-14 0 -51 -6t-88 -35t-111.5 -87.5t-124.5 -162.5zM774 1634h305l92 303h-307zM821 600l322 576v-576h-322zM1210 1634h306l92 303h-308z" />
<glyph unicode="&#xc5;" d="M0 0h481l185 324h469v-324h424v1528h-443q-14 0 -51 -6t-88 -35t-111.5 -87.5t-124.5 -162.5zM821 600l322 576v-576h-322zM1112 1829q-27 -82 13 -139.5t122 -57.5q39 0 80 15.5t75.5 42t61.5 62.5t39 77q12 39 7 74.5t-23.5 62.5t-48 42t-68.5 15q-41 0 -82 -15 t-76 -41t-61.5 -61.5t-38.5 -76.5zM1229 1829q10 33 38.5 55.5t61.5 22.5q35 0 51.5 -22.5t5.5 -55.5q-10 -35 -39.5 -57.5t-64.5 -22.5q-33 0 -48.5 22.5t-4.5 57.5z" />
<glyph unicode="&#xc6;" horiz-adv-x="2533" d="M-4 -2h481l207 324h496q6 -61 25.5 -119t53 -104t84 -76.5t119.5 -36.5q430 -47 856 18l107 379q-168 -33 -345 -38t-349 22q-29 4 -51.5 30.5t-18.5 55.5q6 47 20.5 94t24.5 94h578l90 293q-176 0 -281.5 1t-165.5 1q-59 0 -84.5 -1t-44.5 -3q18 27 33.5 66.5t34 76.5 t46 63.5t70.5 26.5h652l110 367h-1368q-14 0 -76.5 -7t-145.5 -38t-173 -90.5t-160 -163.5zM856 598q125 184 207 290.5t141.5 163t105.5 77t99 34.5q-27 -61 -57.5 -133t-58 -145.5t-51 -147t-38.5 -139.5h-348z" />
<glyph unicode="&#xc7;" horiz-adv-x="1409" d="M57.5 342q5.5 -88 36.5 -164t91.5 -129t156.5 -63q92 -10 184 -15.5t187 -3.5l-494 -270h463l82 270q217 6 432 37l109 379q-168 -33 -339 -34t-343 24q-31 6 -52.5 28.5t-17.5 51.5q18 172 71.5 336.5t139.5 314.5q14 27 40.5 44t57.5 17h678l111 367h-906 q-115 0 -204.5 -51t-160.5 -136t-122 -194t-89 -222.5t-62.5 -224t-40.5 -196.5q-14 -78 -8.5 -166z" />
<glyph unicode="&#xc8;" horiz-adv-x="1562" d="M72 997q-6 -12 6 -17t22 1q4 0 11 6q37 39 72.5 58.5t69.5 29.5t65.5 16.5t60.5 16.5q-63 -143 -109.5 -293.5t-74.5 -306.5q-14 -78 -9.5 -166t35.5 -164t91.5 -129t156.5 -63q430 -47 856 18l109 379q-170 -33 -346.5 -38t-350.5 22q-29 4 -51 30.5t-18 55.5 q6 47 20 94t25 94h577l90 293q-176 0 -281.5 1t-164.5 1q-57 0 -83 -1t-44 -3q18 27 32.5 66.5t34 76.5t47 63.5t70.5 26.5h651l111 367h-881q-145 0 -265 -39t-218 -109.5t-177 -169t-140 -217.5zM840 1640h481l-391 304z" />
<glyph unicode="&#xc9;" horiz-adv-x="1562" d="M72 997q-6 -12 6 -17t22 1q4 0 11 6q37 39 72.5 58.5t69.5 29.5t65.5 16.5t60.5 16.5q-63 -143 -109.5 -293.5t-74.5 -306.5q-14 -78 -9.5 -166t35.5 -164t91.5 -129t156.5 -63q430 -47 856 18l109 379q-170 -33 -346.5 -38t-350.5 22q-29 4 -51 30.5t-18 55.5 q6 47 20 94t25 94h577l90 293q-176 0 -281.5 1t-164.5 1q-57 0 -83 -1t-44 -3q18 27 32.5 66.5t34 76.5t47 63.5t70.5 26.5h651l111 367h-881q-145 0 -265 -39t-218 -109.5t-177 -169t-140 -217.5zM940 1640h463l92 304z" />
<glyph unicode="&#xca;" horiz-adv-x="1562" d="M72 997q-6 -12 6 -17t22 1q4 0 11 6q37 39 72.5 58.5t69.5 29.5t65.5 16.5t60.5 16.5q-63 -143 -109.5 -293.5t-74.5 -306.5q-14 -78 -9.5 -166t35.5 -164t91.5 -129t156.5 -63q430 -47 856 18l109 379q-170 -33 -346.5 -38t-350.5 22q-29 4 -51 30.5t-18 55.5 q6 47 20 94t25 94h577l90 293q-176 0 -281.5 1t-164.5 1q-57 0 -83 -1t-44 -3q18 27 32.5 66.5t34 76.5t47 63.5t70.5 26.5h651l111 367h-881q-145 0 -265 -39t-218 -109.5t-177 -169t-140 -217.5zM920 1638h657l-240 304z" />
<glyph unicode="&#xcb;" horiz-adv-x="1562" d="M72 997q-6 -12 6 -17t22 1q4 0 11 6q37 39 72.5 58.5t69.5 29.5t65.5 16.5t60.5 16.5q-63 -143 -109.5 -293.5t-74.5 -306.5q-14 -78 -9.5 -166t35.5 -164t91.5 -129t156.5 -63q430 -47 856 18l109 379q-170 -33 -346.5 -38t-350.5 22q-29 4 -51 30.5t-18 55.5 q6 47 20 94t25 94h577l90 293q-176 0 -281.5 1t-164.5 1q-57 0 -83 -1t-44 -3q18 27 32.5 66.5t34 76.5t47 63.5t70.5 26.5h651l111 367h-881q-145 0 -265 -39t-218 -109.5t-177 -169t-140 -217.5zM813 1640h305l92 304h-307zM1249 1640h305l93 304h-308z" />
<glyph unicode="&#xcc;" horiz-adv-x="727" d="M0 0h463l461 1526h-457zM408 1640h481l-391 304z" />
<glyph unicode="&#xcd;" horiz-adv-x="727" d="M0 0h463l461 1526h-457zM528 1640h463l92 304z" />
<glyph unicode="&#xce;" horiz-adv-x="727" d="M0 0h463l461 1526h-457zM373 1638h657l-239 304z" />
<glyph unicode="&#xcf;" horiz-adv-x="727" d="M0 0h463l461 1526h-457zM340 1640h305l92 304h-307zM776 1640h305l93 304h-308z" />
<glyph unicode="&#xd0;" horiz-adv-x="1675" d="M-133 506q-4 -14 11.5 -18.5t25.5 8.5q109 131 344 163l-195 -661l1049 2q66 0 126 23.5t113.5 63.5t98.5 92t82 108q23 33 49 101.5t55 154.5t55.5 182t47 184t33 160t12.5 113q0 61 -21.5 118.5t-64.5 100.5q-68 72 -160 99.5t-189 27.5h-835l-172 -586 q-88 -18 -152.5 -53t-117 -88t-98.5 -126t-97 -169zM602 311l103 363h251l88 289h-256l84 288h349q29 0 52 -13t39.5 -34.5t26 -48.5t9.5 -51q0 -25 -13.5 -79t-34 -124t-45 -146.5t-49 -145t-45 -121t-31.5 -70.5q-18 -31 -35.5 -51.5t-43 -32.5t-63.5 -17.5t-93 -5.5h-293 z" />
<glyph unicode="&#xd1;" horiz-adv-x="1857" d="M0 0h453l319 1061l215 -1061h545l457 1526h-439l-270 -885l-139 725q-8 37 -29.5 65.5t-52.5 50t-68 33t-73 11.5h-459zM1028 1708l64 -72q33 39 55 54.5t43 15.5q14 0 44 -10t60.5 -21.5t56 -22t29.5 -10.5q63 0 114.5 35t111.5 121l-64 70q-33 -37 -55.5 -52.5 t-44.5 -15.5q-10 0 -39 10.5t-61.5 22.5t-60.5 22.5t-34 10.5q-106 0 -219 -158z" />
<glyph unicode="&#xd2;" horiz-adv-x="1521" d="M57 371q-8 -92 15.5 -156.5t70.5 -109t111.5 -70t138.5 -38.5t149.5 -16.5t145.5 -3.5q96 0 191.5 8.5t191.5 24.5q119 20 219.5 92t151.5 185q96 221 157.5 447t96.5 462v55q-27 111 -100.5 169.5t-169 85t-201 30.5t-195.5 4q-182 0 -311 -27.5t-214 -71.5t-133 -97.5 t-69 -104.5q-39 -94 -78 -201.5t-72.5 -220t-59 -226.5t-36.5 -220zM523 374q-9 32 1 72q37 174 90.5 344.5t114.5 329.5q14 39 45 62.5t69 37t79 17.5t75 4q31 0 74 -4t79 -17.5t56.5 -41t10.5 -74.5q-35 -178 -90.5 -349t-127.5 -341q-10 -47 -44.5 -74t-81 -39t-96.5 -15 t-89 -3q-41 -4 -75.5 6t-57.5 31.5t-32 53.5zM764 1632h481l-391 303z" />
<glyph unicode="&#xd3;" horiz-adv-x="1521" d="M57 371q-8 -92 15.5 -156.5t70.5 -109t111.5 -70t138.5 -38.5t149.5 -16.5t145.5 -3.5q96 0 191.5 8.5t191.5 24.5q119 20 219.5 92t151.5 185q96 221 157.5 447t96.5 462v55q-27 111 -100.5 169.5t-169 85t-201 30.5t-195.5 4q-182 0 -311 -27.5t-214 -71.5t-133 -97.5 t-69 -104.5q-39 -94 -78 -201.5t-72.5 -220t-59 -226.5t-36.5 -220zM523 374q-9 32 1 72q37 174 90.5 344.5t114.5 329.5q14 39 45 62.5t69 37t79 17.5t75 4q31 0 74 -4t79 -17.5t56.5 -41t10.5 -74.5q-35 -178 -90.5 -349t-127.5 -341q-10 -47 -44.5 -74t-81 -39t-96.5 -15 t-89 -3q-41 -4 -75.5 6t-57.5 31.5t-32 53.5zM965 1630h462l93 303z" />
<glyph unicode="&#xd4;" horiz-adv-x="1568" d="M57 371q-8 -92 15.5 -156.5t70.5 -109t111.5 -70t138.5 -38.5t149.5 -16.5t145.5 -3.5q96 0 191.5 8.5t191.5 24.5q119 20 219.5 92t151.5 185q96 221 157.5 447t96.5 462v55q-27 111 -100.5 169.5t-169 85t-201 30.5t-195.5 4q-182 0 -311 -27.5t-214 -71.5t-133 -97.5 t-69 -104.5q-39 -94 -78 -201.5t-72.5 -220t-59 -226.5t-36.5 -220zM523 374q-9 32 1 72q37 174 90.5 344.5t114.5 329.5q14 39 45 62.5t69 37t79 17.5t75 4q31 0 74 -4t79 -17.5t56.5 -41t10.5 -74.5q-35 -178 -90.5 -349t-127.5 -341q-10 -47 -44.5 -74t-81 -39t-96.5 -15 t-89 -3q-41 -4 -75.5 6t-57.5 31.5t-32 53.5zM750 1640h657l-240 304z" />
<glyph unicode="&#xd5;" horiz-adv-x="1568" d="M57 371q-8 -92 15.5 -156.5t70.5 -109t111.5 -70t138.5 -38.5t149.5 -16.5t145.5 -3.5q96 0 191.5 8.5t191.5 24.5q119 20 219.5 92t151.5 185q96 221 157.5 447t96.5 462v55q-27 111 -100.5 169.5t-169 85t-201 30.5t-195.5 4q-182 0 -311 -27.5t-214 -71.5t-133 -97.5 t-69 -104.5q-39 -94 -78 -201.5t-72.5 -220t-59 -226.5t-36.5 -220zM523 374q-9 32 1 72q37 174 90.5 344.5t114.5 329.5q14 39 45 62.5t69 37t79 17.5t75 4q31 0 74 -4t79 -17.5t56.5 -41t10.5 -74.5q-35 -178 -90.5 -349t-127.5 -341q-10 -47 -44.5 -74t-81 -39t-96.5 -15 t-89 -3q-41 -4 -75.5 6t-57.5 31.5t-32 53.5zM750 1714l63 -72q33 39 55.5 54.5t43.5 15.5q14 0 43.5 -10.5t60.5 -21.5t56.5 -21.5t29.5 -10.5q63 0 114.5 35t110.5 121l-63 70q-33 -37 -55.5 -52.5t-45.5 -15.5q-10 0 -38.5 10t-61.5 22.5t-60.5 23t-33.5 10.5 q-106 0 -219 -158z" />
<glyph unicode="&#xd6;" horiz-adv-x="1568" d="M57 371q-8 -92 15.5 -156.5t70.5 -109t111.5 -70t138.5 -38.5t149.5 -16.5t145.5 -3.5q96 0 191.5 8.5t191.5 24.5q119 20 219.5 92t151.5 185q96 221 157.5 447t96.5 462v55q-27 111 -100.5 169.5t-169 85t-201 30.5t-195.5 4q-182 0 -311 -27.5t-214 -71.5t-133 -97.5 t-69 -104.5q-39 -94 -78 -201.5t-72.5 -220t-59 -226.5t-36.5 -220zM523 374q-9 32 1 72q37 174 90.5 344.5t114.5 329.5q14 39 45 62.5t69 37t79 17.5t75 4q31 0 74 -4t79 -17.5t56.5 -41t10.5 -74.5q-35 -178 -90.5 -349t-127.5 -341q-10 -47 -44.5 -74t-81 -39t-96.5 -15 t-89 -3q-41 -4 -75.5 6t-57.5 31.5t-32 53.5zM647 1640h305l92 304h-307zM1083 1640h306l92 304h-307z" />
<glyph unicode="&#xd8;" horiz-adv-x="1568" d="M57 371q-8 -92 15.5 -156.5t70.5 -109t111.5 -70t138.5 -38.5t149.5 -16.5t145.5 -3.5q96 0 191.5 8.5t191.5 24.5q119 20 219.5 92t151.5 185q96 221 157.5 447t96.5 462v55q-27 111 -100.5 169.5t-169 85t-201 30.5t-195.5 4q-182 0 -311 -27.5t-214 -71.5t-133 -97.5 t-69 -104.5q-39 -94 -78 -201.5t-72.5 -220t-59 -226.5t-36.5 -220zM524 446q37 174 90.5 344.5t114.5 329.5q23 63 84 88t125 31l-293 -956q-66 8 -102.5 49.5t-18.5 113.5zM803 287l287 948q27 -4 53 -13.5t44.5 -24.5t27 -37.5t2.5 -55.5q-35 -178 -90.5 -349 t-127.5 -341q-8 -33 -27.5 -55.5t-46 -37t-58 -22.5t-64.5 -12z" />
<glyph unicode="&#xd9;" horiz-adv-x="1521" d="M47 214.5q16 -64.5 56 -109t98.5 -70t126 -38.5t141.5 -16.5t143 -3.5q94 0 210 6.5t229.5 36t213 92t160.5 175.5l379 1247h-461q-6 0 -8 -2l-331 -1092q-23 -45 -53.5 -73.5t-69.5 -46t-82 -25.5t-90 -12q-45 6 -87 16t-72 29.5t-43 48.5t1 69l330 1086h-435 l-356 -1161q-16 -92 0 -156.5zM764 1632h481l-391 303z" />
<glyph unicode="&#xda;" horiz-adv-x="1521" d="M47 214.5q16 -64.5 56 -109t98.5 -70t126 -38.5t141.5 -16.5t143 -3.5q94 0 210 6.5t229.5 36t213 92t160.5 175.5l379 1247h-461q-6 0 -8 -2l-331 -1092q-23 -45 -53.5 -73.5t-69.5 -46t-82 -25.5t-90 -12q-45 6 -87 16t-72 29.5t-43 48.5t1 69l330 1086h-435 l-356 -1161q-16 -92 0 -156.5zM965 1630h462l93 303z" />
<glyph unicode="&#xdb;" horiz-adv-x="1521" d="M47 214.5q16 -64.5 56 -109t98.5 -70t126 -38.5t141.5 -16.5t143 -3.5q94 0 210 6.5t229.5 36t213 92t160.5 175.5l379 1247h-461q-6 0 -8 -2l-331 -1092q-23 -45 -53.5 -73.5t-69.5 -46t-82 -25.5t-90 -12q-45 6 -87 16t-72 29.5t-43 48.5t1 69l330 1086h-435 l-356 -1161q-16 -92 0 -156.5zM748 1638h657l-240 304z" />
<glyph unicode="&#xdc;" horiz-adv-x="1521" d="M47 214.5q16 -64.5 56 -109t98.5 -70t126 -38.5t141.5 -16.5t143 -3.5q94 0 210 6.5t229.5 36t213 92t160.5 175.5l379 1247h-461q-6 0 -8 -2l-331 -1092q-23 -45 -53.5 -73.5t-69.5 -46t-82 -25.5t-90 -12q-45 6 -87 16t-72 29.5t-43 48.5t1 69l330 1086h-435 l-356 -1161q-16 -92 0 -156.5zM702 1640h306l92 304h-307zM1139 1640h305l92 304h-307z" />
<glyph unicode="&#xdd;" horiz-adv-x="1230" d="M20 1532l345 -860l-205 -670h450l201 660l905 870h-485l-578 -596l-194 596h-439zM715 1640h463l92 304z" />
<glyph unicode="&#xde;" horiz-adv-x="1536" d="M0 0h463l59 199h531q66 0 126 24.5t113.5 64.5t98.5 92t82 107q66 102 100.5 219t34.5 238q0 61 -22.5 118.5t-63.5 100.5q-70 70 -161 98.5t-190 28.5h-319l72 236h-457zM616 512l154 502h285q29 0 51 -13.5t38.5 -35t26 -48t9.5 -51.5q0 -72 -26 -135t-73 -115 q-18 -20 -35.5 -39.5t-43 -34t-62.5 -22.5t-94 -8h-230z" />
<glyph unicode="&#xdf;" horiz-adv-x="2791" d="M8 0h561q184 0 301 13.5t189 47.5q117 55 185.5 161t109.5 231q35 98 30.5 189t-43.5 144q-49 70 -147 98.5t-281 28.5h-73q-31 0 -53.5 1t-39 4.5t-32.5 11.5q-39 18 -52.5 52t9.5 85q20 47 72.5 69.5t123.5 30.5h598q-25 -41 -48 -83t-48 -89q-4 -12 8.5 -17t22.5 1 q4 0 10 6q31 39 77 68.5t103 52.5q-20 -59 -23 -116.5t6 -109t25.5 -96.5t32.5 -82q14 -35 53 -57t91.5 -37.5t115 -22.5t123 -10.5t113.5 -3.5t90 2q43 -23 56.5 -43t-3.5 -73q-14 -43 -55 -63.5t-96.5 -28t-116.5 -7.5h-117h-485l-88 -358h561q184 0 301 13.5t188 47.5 q117 55 185.5 161t109.5 231q35 98 31 189t-43 144q-49 70 -147.5 98.5t-280.5 28.5h-74t-53.5 1t-38.5 4.5t-33 11.5q-39 18 -52 52t9 85q20 47 72.5 68.5t124.5 29.5l657 2l88 365h-2054q-178 2 -299 -34t-209 -104.5t-155.5 -169t-134.5 -229.5q-4 -12 8 -17t22 1 q4 0 10 6q31 39 77 68.5t104 52.5q-20 -59 -23.5 -116.5t6 -109t25.5 -96.5t33 -82q14 -35 53 -57t91 -37.5t114.5 -22.5t123 -10.5t113.5 -3.5t90 2q43 -23 56.5 -43t-2.5 -73q-14 -43 -55.5 -63.5t-96.5 -28t-117 -7.5h-116h-486z" />
<glyph unicode="&#xe0;" d="M0 0h481l185 324h469v-324h424v1528h-443q-14 0 -51 -6t-88 -35t-111.5 -87.5t-124.5 -162.5zM821 600l322 576v-576h-322zM920 1636h481l-391 303z" />
<glyph unicode="&#xe1;" d="M0 0h481l185 324h469v-324h424v1528h-443q-14 0 -51 -6t-88 -35t-111.5 -87.5t-124.5 -162.5zM821 600l322 576v-576h-322zM1010 1640h463l92 304z" />
<glyph unicode="&#xe2;" d="M0 0h481l185 324h469v-324h424v1528h-443q-14 0 -51 -6t-88 -35t-111.5 -87.5t-124.5 -162.5zM821 600l322 576v-576h-322zM913 1624h658l-240 303z" />
<glyph unicode="&#xe3;" d="M0 0h481l185 324h469v-324h424v1528h-443q-14 0 -51 -6t-88 -35t-111.5 -87.5t-124.5 -162.5zM821 600l322 576v-576h-322zM967 1714l63 -72q33 39 55.5 54.5t43.5 15.5q14 0 43.5 -10.5t60.5 -21.5t56.5 -21.5t29.5 -10.5q63 0 114.5 35t110.5 121l-63 70 q-33 -37 -55.5 -52.5t-45.5 -15.5q-10 0 -38.5 10t-61.5 22.5t-60.5 23t-33.5 10.5q-106 0 -219 -158z" />
<glyph unicode="&#xe4;" d="M0 0h481l185 324h469v-324h424v1528h-443q-14 0 -51 -6t-88 -35t-111.5 -87.5t-124.5 -162.5zM774 1634h305l92 303h-307zM821 600l322 576v-576h-322zM1210 1634h306l92 303h-308z" />
<glyph unicode="&#xe5;" d="M0 0h481l185 324h469v-324h424v1528h-443q-14 0 -51 -6t-88 -35t-111.5 -87.5t-124.5 -162.5zM821 600l322 576v-576h-322zM1112 1829q-27 -82 13 -139.5t122 -57.5q39 0 80 15.5t76 42t61.5 62.5t38.5 77q12 39 7 74.5t-23.5 62.5t-48 42t-68.5 15q-41 0 -82 -15 t-75.5 -40.5t-61.5 -61.5t-39 -77zM1229 1829q10 33 38.5 55.5t61.5 22.5q35 0 51.5 -22.5t5.5 -55.5q-10 -35 -39.5 -57.5t-64.5 -22.5q-33 0 -48 22.5t-5 57.5z" />
<glyph unicode="&#xe6;" horiz-adv-x="2533" d="M-4 -2h481l207 324h496q6 -61 25.5 -119t53 -104t84 -76.5t119.5 -36.5q430 -47 856 18l107 379q-168 -33 -345 -38t-349 22q-29 4 -51.5 30.5t-18.5 55.5q6 47 20.5 94t24.5 94h578l90 293q-176 0 -281.5 1t-165.5 1q-59 0 -84.5 -1t-44.5 -3q18 27 33.5 66.5t34 76.5 t46 63.5t70.5 26.5h652l110 367h-1368q-14 0 -76.5 -7t-145.5 -38t-173 -90.5t-160 -163.5zM856 598q125 184 207 290.5t141.5 163t105.5 77t99 34.5q-27 -61 -57.5 -133t-58 -145.5t-51 -147t-38.5 -139.5h-348z" />
<glyph unicode="&#xe7;" horiz-adv-x="1409" d="M57.5 342q5.5 -88 36.5 -164t91.5 -129t156.5 -63q92 -10 184 -15.5t187 -3.5l-494 -270h463l82 270q217 6 432 37l109 379q-168 -33 -339 -34t-343 24q-31 6 -52.5 28.5t-17.5 51.5q18 172 71.5 336.5t139.5 314.5q14 27 40.5 44t57.5 17h678l111 367h-906 q-115 0 -204.5 -51t-160.5 -136t-122 -194t-89 -222.5t-62.5 -224t-40.5 -196.5q-14 -78 -8.5 -166z" />
<glyph unicode="&#xe8;" horiz-adv-x="1562" d="M72 997q-6 -12 6 -17t22 1q4 0 11 6q37 39 72.5 58.5t69.5 29.5t65.5 16.5t60.5 16.5q-63 -143 -109.5 -293.5t-74.5 -306.5q-14 -78 -9.5 -166t35.5 -164t91.5 -129t156.5 -63q430 -47 856 18l109 379q-170 -33 -346.5 -38t-350.5 22q-29 4 -51 30.5t-18 55.5 q6 47 20 94t25 94h577l90 293q-176 0 -281.5 1t-164.5 1q-57 0 -83 -1t-44 -3q18 27 32.5 66.5t34 76.5t47 63.5t70.5 26.5h651l111 367h-881q-145 0 -265 -39t-218 -109.5t-177 -169t-140 -217.5zM840 1640h481l-391 304z" />
<glyph unicode="&#xe9;" horiz-adv-x="1562" d="M72 997q-6 -12 6 -17t22 1q4 0 11 6q37 39 72.5 58.5t69.5 29.5t65.5 16.5t60.5 16.5q-63 -143 -109.5 -293.5t-74.5 -306.5q-14 -78 -9.5 -166t35.5 -164t91.5 -129t156.5 -63q430 -47 856 18l109 379q-170 -33 -346.5 -38t-350.5 22q-29 4 -51 30.5t-18 55.5 q6 47 20 94t25 94h577l90 293q-176 0 -281.5 1t-164.5 1q-57 0 -83 -1t-44 -3q18 27 32.5 66.5t34 76.5t47 63.5t70.5 26.5h651l111 367h-881q-145 0 -265 -39t-218 -109.5t-177 -169t-140 -217.5zM940 1640h463l92 304z" />
<glyph unicode="&#xea;" horiz-adv-x="1562" d="M72 997q-6 -12 6 -17t22 1q4 0 11 6q37 39 72.5 58.5t69.5 29.5t65.5 16.5t60.5 16.5q-63 -143 -109.5 -293.5t-74.5 -306.5q-14 -78 -9.5 -166t35.5 -164t91.5 -129t156.5 -63q430 -47 856 18l109 379q-170 -33 -346.5 -38t-350.5 22q-29 4 -51 30.5t-18 55.5 q6 47 20 94t25 94h577l90 293q-176 0 -281.5 1t-164.5 1q-57 0 -83 -1t-44 -3q18 27 32.5 66.5t34 76.5t47 63.5t70.5 26.5h651l111 367h-881q-145 0 -265 -39t-218 -109.5t-177 -169t-140 -217.5zM920 1638h657l-240 304z" />
<glyph unicode="&#xeb;" horiz-adv-x="1562" d="M72 997q-6 -12 6 -17t22 1q4 0 11 6q37 39 72.5 58.5t69.5 29.5t65.5 16.5t60.5 16.5q-63 -143 -109.5 -293.5t-74.5 -306.5q-14 -78 -9.5 -166t35.5 -164t91.5 -129t156.5 -63q430 -47 856 18l109 379q-170 -33 -346.5 -38t-350.5 22q-29 4 -51 30.5t-18 55.5 q6 47 20 94t25 94h577l90 293q-176 0 -281.5 1t-164.5 1q-57 0 -83 -1t-44 -3q18 27 32.5 66.5t34 76.5t47 63.5t70.5 26.5h651l111 367h-881q-145 0 -265 -39t-218 -109.5t-177 -169t-140 -217.5zM813 1640h305l92 304h-307zM1249 1640h305l93 304h-308z" />
<glyph unicode="&#xec;" horiz-adv-x="727" d="M0 0h463l461 1526h-457zM408 1640h481l-391 304z" />
<glyph unicode="&#xed;" horiz-adv-x="727" d="M0 0h463l461 1526h-457zM528 1640h463l92 304z" />
<glyph unicode="&#xee;" horiz-adv-x="727" d="M0 0h463l461 1526h-457zM373 1638h657l-239 304z" />
<glyph unicode="&#xef;" horiz-adv-x="727" d="M0 0h463l461 1526h-457zM340 1640h305l92 304h-307zM776 1640h305l93 304h-308z" />
<glyph unicode="&#xf0;" horiz-adv-x="1675" d="M-133 506q-4 -14 11.5 -18.5t25.5 8.5q109 131 344 163l-195 -661l1049 2q66 0 126 23.5t113.5 63.5t98.5 92t82 108q23 33 49 101.5t55 154.5t55.5 182t47 184t33 160t12.5 113q0 61 -21.5 118.5t-64.5 100.5q-68 72 -160 99.5t-189 27.5h-835l-172 -586 q-88 -18 -152.5 -53t-117 -88t-98.5 -126t-97 -169zM602 311l103 363h251l88 289h-256l84 288h349q29 0 52 -13t39.5 -34.5t26 -48.5t9.5 -51q0 -25 -13.5 -79t-34 -124t-45 -146.5t-49 -145t-45 -121t-31.5 -70.5q-18 -31 -35.5 -51.5t-43 -32.5t-63.5 -17.5t-93 -5.5h-293 z" />
<glyph unicode="&#xf1;" horiz-adv-x="1857" d="M0 0h453l319 1061l215 -1061h545l457 1526h-439l-270 -885l-139 725q-8 37 -29.5 65.5t-52.5 50t-68 33t-73 11.5h-459zM1028 1708l63 -72q33 39 55.5 54.5t43.5 15.5q14 0 43.5 -10.5t60.5 -21.5t56.5 -21.5t29.5 -10.5q63 0 114.5 35t110.5 121l-63 70 q-33 -37 -55.5 -52.5t-45.5 -15.5q-10 0 -38.5 10t-61.5 22.5t-60.5 23t-33.5 10.5q-106 0 -219 -158z" />
<glyph unicode="&#xf2;" horiz-adv-x="1521" d="M57 371q-8 -92 15.5 -156.5t70.5 -109t111.5 -70t138.5 -38.5t149.5 -16.5t145.5 -3.5q96 0 191.5 8.5t191.5 24.5q119 20 219.5 92t151.5 185q96 221 157.5 447t96.5 462v55q-27 111 -100.5 169.5t-169 85t-201 30.5t-195.5 4q-182 0 -311 -27.5t-214 -71.5t-133 -97.5 t-69 -104.5q-39 -94 -78 -201.5t-72.5 -220t-59 -226.5t-36.5 -220zM523 374q-9 32 1 72q37 174 90.5 344.5t114.5 329.5q14 39 45 62.5t69 37t79 17.5t75 4q31 0 74 -4t79 -17.5t56.5 -41t10.5 -74.5q-35 -178 -90.5 -349t-127.5 -341q-10 -47 -44.5 -74t-81 -39t-96.5 -15 t-89 -3q-41 -4 -75.5 6t-57.5 31.5t-32 53.5zM764 1632h481l-391 303z" />
<glyph unicode="&#xf3;" horiz-adv-x="1521" d="M57 371q-8 -92 15.5 -156.5t70.5 -109t111.5 -70t138.5 -38.5t149.5 -16.5t145.5 -3.5q96 0 191.5 8.5t191.5 24.5q119 20 219.5 92t151.5 185q96 221 157.5 447t96.5 462v55q-27 111 -100.5 169.5t-169 85t-201 30.5t-195.5 4q-182 0 -311 -27.5t-214 -71.5t-133 -97.5 t-69 -104.5q-39 -94 -78 -201.5t-72.5 -220t-59 -226.5t-36.5 -220zM523 374q-9 32 1 72q37 174 90.5 344.5t114.5 329.5q14 39 45 62.5t69 37t79 17.5t75 4q31 0 74 -4t79 -17.5t56.5 -41t10.5 -74.5q-35 -178 -90.5 -349t-127.5 -341q-10 -47 -44.5 -74t-81 -39t-96.5 -15 t-89 -3q-41 -4 -75.5 6t-57.5 31.5t-32 53.5zM965 1630h462l93 303z" />
<glyph unicode="&#xf4;" horiz-adv-x="1568" d="M57 371q-8 -92 15.5 -156.5t70.5 -109t111.5 -70t138.5 -38.5t149.5 -16.5t145.5 -3.5q96 0 191.5 8.5t191.5 24.5q119 20 219.5 92t151.5 185q96 221 157.5 447t96.5 462v55q-27 111 -100.5 169.5t-169 85t-201 30.5t-195.5 4q-182 0 -311 -27.5t-214 -71.5t-133 -97.5 t-69 -104.5q-39 -94 -78 -201.5t-72.5 -220t-59 -226.5t-36.5 -220zM523 374q-9 32 1 72q37 174 90.5 344.5t114.5 329.5q14 39 45 62.5t69 37t79 17.5t75 4q31 0 74 -4t79 -17.5t56.5 -41t10.5 -74.5q-35 -178 -90.5 -349t-127.5 -341q-10 -47 -44.5 -74t-81 -39t-96.5 -15 t-89 -3q-41 -4 -75.5 6t-57.5 31.5t-32 53.5zM750 1640h657l-240 304z" />
<glyph unicode="&#xf5;" horiz-adv-x="1568" d="M57 371q-8 -92 15.5 -156.5t70.5 -109t111.5 -70t138.5 -38.5t149.5 -16.5t145.5 -3.5q96 0 191.5 8.5t191.5 24.5q119 20 219.5 92t151.5 185q96 221 157.5 447t96.5 462v55q-27 111 -100.5 169.5t-169 85t-201 30.5t-195.5 4q-182 0 -311 -27.5t-214 -71.5t-133 -97.5 t-69 -104.5q-39 -94 -78 -201.5t-72.5 -220t-59 -226.5t-36.5 -220zM523 374q-9 32 1 72q37 174 90.5 344.5t114.5 329.5q14 39 45 62.5t69 37t79 17.5t75 4q31 0 74 -4t79 -17.5t56.5 -41t10.5 -74.5q-35 -178 -90.5 -349t-127.5 -341q-10 -47 -44.5 -74t-81 -39t-96.5 -15 t-89 -3q-41 -4 -75.5 6t-57.5 31.5t-32 53.5zM750 1714l63 -72q33 39 55.5 54.5t42.5 15.5q14 0 44 -10t61 -21.5t56.5 -21.5t29.5 -10q63 0 114.5 34.5t110.5 120.5l-63 70q-33 -37 -55.5 -52.5t-45.5 -15.5q-10 0 -38.5 10.5t-61.5 22.5t-60.5 22.5t-33.5 10.5 q-106 0 -219 -158z" />
<glyph unicode="&#xf6;" horiz-adv-x="1568" d="M57 371q-8 -92 15.5 -156.5t70.5 -109t111.5 -70t138.5 -38.5t149.5 -16.5t145.5 -3.5q96 0 191.5 8.5t191.5 24.5q119 20 219.5 92t151.5 185q96 221 157.5 447t96.5 462v55q-27 111 -100.5 169.5t-169 85t-201 30.5t-195.5 4q-182 0 -311 -27.5t-214 -71.5t-133 -97.5 t-69 -104.5q-39 -94 -78 -201.5t-72.5 -220t-59 -226.5t-36.5 -220zM523 374q-9 32 1 72q37 174 90.5 344.5t114.5 329.5q14 39 45 62.5t69 37t79 17.5t75 4q31 0 74 -4t79 -17.5t56.5 -41t10.5 -74.5q-35 -178 -90.5 -349t-127.5 -341q-10 -47 -44.5 -74t-81 -39t-96.5 -15 t-89 -3q-41 -4 -75.5 6t-57.5 31.5t-32 53.5zM647 1640h305l92 304h-307zM1083 1640h306l92 304h-307z" />
<glyph unicode="&#xf8;" horiz-adv-x="1568" d="M57 371q-8 -92 15.5 -156.5t70.5 -109t111.5 -70t138.5 -38.5t149.5 -16.5t145.5 -3.5q96 0 191.5 8.5t191.5 24.5q119 20 219.5 92t151.5 185q96 221 157.5 447t96.5 462v55q-27 111 -100.5 169.5t-169 85t-201 30.5t-195.5 4q-182 0 -311 -27.5t-214 -71.5t-133 -97.5 t-69 -104.5q-39 -94 -78 -201.5t-72.5 -220t-59 -226.5t-36.5 -220zM524 446q37 174 90.5 344.5t114.5 329.5q23 63 84 88t125 31l-293 -956q-66 8 -102.5 49.5t-18.5 113.5zM803 287l287 948q27 -4 53 -13.5t44.5 -24.5t27 -37.5t2.5 -55.5q-35 -178 -90.5 -349 t-127.5 -341q-8 -33 -27.5 -55.5t-46 -37t-58 -22.5t-64.5 -12z" />
<glyph unicode="&#xf9;" horiz-adv-x="1521" d="M47 214.5q16 -64.5 56 -109t98.5 -70t126 -38.5t141.5 -16.5t143 -3.5q94 0 210 6.5t229.5 36t213 92t160.5 175.5l379 1247h-461q-6 0 -8 -2l-331 -1092q-23 -45 -53.5 -73.5t-69.5 -46t-82 -25.5t-90 -12q-45 6 -87 16t-72 29.5t-43 48.5t1 69l330 1086h-435 l-356 -1161q-16 -92 0 -156.5zM764 1632h481l-391 303z" />
<glyph unicode="&#xfa;" horiz-adv-x="1521" d="M47 214.5q16 -64.5 56 -109t98.5 -70t126 -38.5t141.5 -16.5t143 -3.5q94 0 210 6.5t229.5 36t213 92t160.5 175.5l379 1247h-461q-6 0 -8 -2l-331 -1092q-23 -45 -53.5 -73.5t-69.5 -46t-82 -25.5t-90 -12q-45 6 -87 16t-72 29.5t-43 48.5t1 69l330 1086h-435 l-356 -1161q-16 -92 0 -156.5zM965 1630h462l93 303z" />
<glyph unicode="&#xfb;" horiz-adv-x="1521" d="M47 214.5q16 -64.5 56 -109t98.5 -70t126 -38.5t141.5 -16.5t143 -3.5q94 0 210 6.5t229.5 36t213 92t160.5 175.5l379 1247h-461q-6 0 -8 -2l-331 -1092q-23 -45 -53.5 -73.5t-69.5 -46t-82 -25.5t-90 -12q-45 6 -87 16t-72 29.5t-43 48.5t1 69l330 1086h-435 l-356 -1161q-16 -92 0 -156.5zM748 1638h657l-240 304z" />
<glyph unicode="&#xfc;" horiz-adv-x="1521" d="M47 214.5q16 -64.5 56 -109t98.5 -70t126 -38.5t141.5 -16.5t143 -3.5q94 0 210 6.5t229.5 36t213 92t160.5 175.5l379 1247h-461q-6 0 -8 -2l-331 -1092q-23 -45 -53.5 -73.5t-69.5 -46t-82 -25.5t-90 -12q-45 6 -87 16t-72 29.5t-43 48.5t1 69l330 1086h-435 l-356 -1161q-16 -92 0 -156.5zM702 1640h306l92 304h-307zM1139 1640h305l92 304h-307z" />
<glyph unicode="&#xfd;" horiz-adv-x="1230" d="M20 1532l345 -860l-205 -670h450l201 660l905 870h-485l-578 -596l-194 596h-439zM715 1640h463l92 304z" />
<glyph unicode="&#xfe;" horiz-adv-x="1536" d="M0 0h463l59 199h531q66 0 126 24.5t113.5 64.5t98.5 92t82 107q66 102 100.5 219t34.5 238q0 61 -22.5 118.5t-63.5 100.5q-70 70 -161 98.5t-190 28.5h-319l72 236h-457zM616 512l154 502h285q29 0 51 -13.5t38.5 -35t26 -48t9.5 -51.5q0 -72 -26 -135t-73 -115 q-18 -20 -35.5 -39.5t-43 -34t-62.5 -22.5t-94 -8h-230z" />
<glyph unicode="&#xff;" horiz-adv-x="1359" d="M20 1532l345 -860l-205 -670h450l201 660l905 870h-485l-578 -596l-194 596h-439zM471 1640h305l92 304h-307zM907 1640h305l93 304h-308z" />
<glyph unicode="&#x152;" horiz-adv-x="2410" d="M57 371q-8 -92 15.5 -156.5t70.5 -109t111.5 -70t138.5 -38.5t149.5 -16.5t145.5 -3.5q96 0 191.5 8.5t191.5 24.5q29 4 59.5 12.5t59.5 22.5q59 -51 151 -59q430 -47 857 18l108 379q-170 -33 -346 -38t-350 22q-29 4 -51.5 30.5t-18.5 55.5q6 47 20.5 94t24.5 94 l578 -2l90 297h-283h-164q-57 0 -82.5 -1t-44.5 -3q18 27 32.5 66.5t34 76.5t47.5 63.5t71 26.5h651l111 367h-881q-74 0 -141.5 -11.5t-128.5 -31.5q-104 39 -223 45t-222 6q-182 0 -311 -27.5t-214 -71.5t-133 -97.5t-69 -104.5q-39 -94 -78 -201.5t-72.5 -220t-59 -226.5 t-36.5 -220zM523 374q-9 32 1 72q37 174 90.5 344.5t114.5 329.5q2 20 21.5 45t54.5 43.5t83 28.5t109 4q23 -2 49.5 -3t55.5 -5q-45 -53 -85 -111.5t-73 -124.5q-6 -12 6.5 -17t22.5 1q4 0 10 6q31 33 60.5 51.5t59.5 28.5t57.5 16.5t53.5 12.5q-10 -49 -20 -99.5 t-27 -99.5q-35 -123 -76 -244.5t-92 -238.5q-10 -47 -44.5 -74t-81 -39t-96.5 -15t-89 -3q-41 -4 -75.5 6t-57.5 31.5t-32 53.5z" />
<glyph unicode="&#x153;" horiz-adv-x="2410" d="M57 371q-8 -92 15.5 -156.5t70.5 -109t111.5 -70t138.5 -38.5t149.5 -16.5t145.5 -3.5q96 0 191.5 8.5t191.5 24.5q29 4 59.5 12.5t59.5 22.5q59 -51 151 -59q430 -47 857 18l108 379q-170 -33 -346 -38t-350 22q-29 4 -51.5 30.5t-18.5 55.5q6 47 20.5 94t24.5 94 l578 -2l90 297h-283h-164q-57 0 -82.5 -1t-44.5 -3q18 27 32.5 66.5t34 76.5t47.5 63.5t71 26.5h651l111 367h-881q-74 0 -141.5 -11.5t-128.5 -31.5q-104 39 -223 45t-222 6q-182 0 -311 -27.5t-214 -71.5t-133 -97.5t-69 -104.5q-39 -94 -78 -201.5t-72.5 -220t-59 -226.5 t-36.5 -220zM523 374q-9 32 1 72q37 174 90.5 344.5t114.5 329.5q2 20 21.5 45t54.5 43.5t83 28.5t109 4q23 -2 49.5 -3t55.5 -5q-45 -53 -85 -111.5t-73 -124.5q-6 -12 6.5 -17t22.5 1q4 0 10 6q31 33 60.5 51.5t59.5 28.5t57.5 16.5t53.5 12.5q-10 -49 -20 -99.5 t-27 -99.5q-35 -123 -76 -244.5t-92 -238.5q-10 -47 -44.5 -74t-81 -39t-96.5 -15t-89 -3q-41 -4 -75.5 6t-57.5 31.5t-32 53.5z" />
<glyph unicode="&#x178;" horiz-adv-x="1359" d="M20 1532l345 -860l-205 -670h450l201 660l905 870h-485l-578 -596l-194 596h-439zM471 1640h305l92 304h-307zM907 1640h305l93 304h-308z" />
<glyph unicode="&#x2c6;" horiz-adv-x="1142" d="M272 1638h658l-240 304z" />
<glyph unicode="&#x2dc;" horiz-adv-x="856" d="M203 1700l63 -72q33 39 55.5 54.5t43.5 15.5q14 0 43.5 -10.5t60.5 -21.5t56.5 -21.5t29.5 -10.5q63 0 114.5 35t110.5 121l-63 70q-33 -37 -55.5 -52.5t-45.5 -15.5q-10 0 -38.5 10t-61.5 22.5t-60.5 23t-33.5 10.5q-106 0 -219 -158z" />
<glyph unicode="&#x2000;" horiz-adv-x="1011" />
<glyph unicode="&#x2001;" horiz-adv-x="2023" />
<glyph unicode="&#x2002;" horiz-adv-x="1011" />
<glyph unicode="&#x2003;" horiz-adv-x="2023" />
<glyph unicode="&#x2004;" horiz-adv-x="674" />
<glyph unicode="&#x2005;" horiz-adv-x="505" />
<glyph unicode="&#x2006;" horiz-adv-x="337" />
<glyph unicode="&#x2007;" horiz-adv-x="337" />
<glyph unicode="&#x2008;" horiz-adv-x="252" />
<glyph unicode="&#x2009;" horiz-adv-x="404" />
<glyph unicode="&#x200a;" horiz-adv-x="112" />
<glyph unicode="&#x2010;" horiz-adv-x="784" d="M0 377h752l92 301h-754z" />
<glyph unicode="&#x2011;" horiz-adv-x="784" d="M0 377h752l92 301h-754z" />
<glyph unicode="&#x2012;" horiz-adv-x="784" d="M0 377h752l92 301h-754z" />
<glyph unicode="&#x2013;" horiz-adv-x="964" d="M0 377h912l112 301h-915z" />
<glyph unicode="&#x2014;" horiz-adv-x="1988" d="M0 377h1825l223 301h-1830z" />
<glyph unicode="&#x2026;" horiz-adv-x="1648" d="M8 0h461l92 303h-463zM600 0h461l92 303h-463zM1188 0h461l92 303h-463z" />
<glyph unicode="&#x202f;" horiz-adv-x="404" />
<glyph unicode="&#x205f;" horiz-adv-x="505" />
<glyph unicode="&#x25fc;" horiz-adv-x="1536" d="M0 0v1536h1536v-1536h-1536z" />
</font>
</defs>
</svg>
