<?xml version="1.0" encoding="utf-8"?>
<!-- Generator: Adobe Illustrator 18.1.1, SVG Export Plug-In . SVG Version: 6.00 Build 0)  -->
<svg version="1.2" baseProfile="tiny" id="Layer_1" xmlns="http://www.w3.org/2000/svg" xmlns:xlink="http://www.w3.org/1999/xlink"
	 x="0px" y="0px" viewBox="0 148.2 639.8 183.6" xml:space="preserve">
<g id="Standard_Logo">
	<g>
		<path fill="#FFFFFF" d="M147.9,247.9h20.6l7.2-12.6c-2.7-0.2-5.8-1-9.1-1.4v-31h70.2v30.8c-4.7,1.2-9.3,1.9-13.8,2.5l-19.4,26.6
			l21.7,32.2l13.2,2.3v31.2h-59.1v-30.4l-10.9-18h-20.6v15.1c4.5,0.8,8.7,1.4,13.4,2.3v31H90.7v-30.8c4.7-1,8.9-1.6,13.4-2.3v-96.9
			c-4.3-0.8-8.3-1.6-12.8-2.5v-31h56.8v83H147.9z"/>
		<path fill="#FFFFFF" d="M308.1,295.4c4.5,0.8,8.7,1.4,13.4,2.3v30.8h-70.6v-30.8c4.7-1,8.9-1.6,13.4-2.3v-58.9
			c-4.3-0.8-8.3-1.6-12.8-2.5v-31h56.8v92.5H308.1z M261.5,170.5c0-13.6,11.1-22.3,24.2-22.3c13.6,0,24.6,8.7,24.6,22.3
			c0,13.4-11.1,22.3-24.6,22.3C272.6,192.6,261.5,183.7,261.5,170.5z"/>
		<path fill="#FFFFFF" d="M466.7,297.3v30.8h-57.2v-16.3c-11.2,8.9-24.2,18.4-40.7,18.4h-3.5c-20.2,0-35.1-13.6-35.1-47.5v-40.3
			c0-27.3,16.9-41.9,37-41.9h3.5c17.1,0,24.2,3.5,38.8,11.2v-17.1c-3.3-0.8-7.6-1.9-13.8-2.7v-27.1h57.8v130.3L466.7,297.3z
			 M390.5,292.8c6.4,0,12.2-1.9,19-6v-45.9c-7.9-3.7-12.4-4.3-19-4.3h-3.1c-11.6,0-13.4,5.8-13.4,16.9v17.1
			c0,18.6,1.9,22.5,13.4,22.5h3.1V292.8z"/>
		<path fill="#FFFFFF" d="M477.1,237.2c0-25.8,16.9-37.2,52-37.2h4.3c16.7,0,39.6,2.1,55.6,7.6v35.1h-36.1l-3.1-12.2
			c-5.2-1.4-11.1-1.6-16.3-1.6c-10.3,0-15.7,2.1-15.7,7.8v1.4c0,6.8,5.6,6.4,38.6,12.6c27.1,5.2,36.6,15.1,36.6,31v8.1
			c0,29.3-16.7,42.1-51.8,42.1h-9.1c-16.7,0-40.1-2.1-55.3-12.6v-34.5H512l1.2,8.9c3.1,5.6,11.2,8.3,17.4,8.3h6.8
			c8.1,0,12.8-3.3,12.8-9.9v-1.9c0-6.8-4.1-7.9-36.3-13.8c-29.9-5.4-37.2-16.3-37.2-34.1v-5H477.1z"/>
	</g>
	<g>
		<path fill="#FF5000" d="M77.7,165.6l-64.2-0.8c-6,0-11.1,4.7-11.1,10.7L0,319c0,6,4.7,11.1,10.7,11.1l61.3,0.8
			C66.5,293.4,73.3,220.3,77.7,165.6z"/>
		<path fill="#FFFEFD" d="M24.6,304.7c-1,1.7-5,0.8-6.8-0.6c-2.1-1.7-3.5-3.5-2.7-5c1-2.1,4.3-1.6,6.2-0.4
			C22.9,299.8,26,302.1,24.6,304.7z"/>
		<path fill="#FFFEFD" d="M15.5,216.2c1-2.1,4.3-1.6,6.2-0.4c1.6,1,4.8,3.5,3.5,6c-1,1.7-5,0.8-6.8-0.6
			C16.1,219.7,14.7,217.8,15.5,216.2z"/>
		<path fill="#FFFEFD" d="M21.7,266.3c1.6,1,4.8,3.5,3.5,6c-1,1.7-5,0.8-6.8-0.6c-2.1-1.7-3.5-3.5-2.9-5.2
			C16.5,264.5,19.8,265.1,21.7,266.3z"/>
		<path fill="#FFFEFD" d="M35.7,308.3c-9.7-1.4-18.4-22.5-15.5-24.8c2.7-2.1,4.5,11.1,16.3,15.9c11.2,4.7,19.8-12.2,21.5-11.2
			C62.2,290.3,47.5,310.1,35.7,308.3z"/>
		<path fill="#FFFEFD" d="M36.3,276c-9.7-1.6-18.4-22.5-15.5-24.8c2.7-2.1,4.5,11.1,16.3,15.9c11.2,4.7,19.8-12.6,21.5-11.2
			C63.2,258.9,48.1,277.7,36.3,276z"/>
		<path fill="#FFFEFD" d="M59.7,228.1c-0.2,1.6,0.4,2.7-0.8,3.1c-1,0.4-12-0.4-19.8,1.4c-7,1.4-17.4,10.5-19,10.3
			c-0.6-0.2-1.2-0.4-1.2-2.3c0-1.9,4.7-7,13.4-10.7c7.9-3.3,12.4-4.1,12.6-4.5c0.2-1.6-10.3-6.4-18.4-15.5
			c-7.8-8.7-13.4-20.9-13.2-23.1c0.2-2.1,1.6-4.7,2.1-4.5c1,0.2,6.2,12.6,15.9,24.4c9.3,11.4,28.3,17.4,28.7,18
			C60.9,225.2,59.9,226.5,59.7,228.1z"/>
		<path fill="#FF5000" d="M598.7,308.9c0-11.4,9.3-18.8,20.6-18.8c11.4,0,20.6,7.4,20.6,18.8c0,11.2-9.1,18.6-20.6,18.6
			C608,327.5,598.7,320.2,598.7,308.9z"/>
	</g>
</g>
</svg>
