<?xml version="1.0" encoding="utf-8"?>
<!-- Generator: Adobe Illustrator 18.1.1, SVG Export Plug-In . SVG Version: 6.00 Build 0)  -->
<svg version="1.2" baseProfile="tiny" id="Layer_1" xmlns="http://www.w3.org/2000/svg" xmlns:xlink="http://www.w3.org/1999/xlink"
	 x="0px" y="0px" viewBox="0 0 330.1 94.7" xml:space="preserve">
<g id="Standard_Logo">
	<g>
		<path fill="#FFFFFF" d="M76.3,51.4h10.6l3.7-6.5c-1.4-0.1-3-0.5-4.7-0.7V28.2h36.2v15.9c-2.4,0.6-4.8,1-7.1,1.3l-10,13.7
			l11.2,16.6l6.8,1.2V93H92.5V77.3L86.9,68H76.3v7.8c2.3,0.4,4.5,0.7,6.9,1.2V93H46.8V77.1c2.4-0.5,4.6-0.8,6.9-1.2v-50
			c-2.2-0.4-4.3-0.8-6.6-1.3V8.6h29.3V51.4z"/>
		<path fill="#FFFFFF" d="M158.9,75.9c2.3,0.4,4.5,0.7,6.9,1.2V93h-36.4V77.1c2.4-0.5,4.6-0.8,6.9-1.2V45.5
			c-2.2-0.4-4.3-0.8-6.6-1.3V28.2h29.3V75.9z M134.9,11.5c0-7,5.7-11.5,12.5-11.5c7,0,12.7,4.5,12.7,11.5c0,6.9-5.7,11.5-12.7,11.5
			C140.6,22.9,134.9,18.3,134.9,11.5z"/>
		<path fill="#FFFFFF" d="M240.7,76.9v15.9h-29.5v-8.4c-5.8,4.6-12.5,9.5-21,9.5h-1.8c-10.4,0-18.1-7-18.1-24.5V48.6
			c0-14.1,8.7-21.6,19.1-21.6h1.8c8.8,0,12.5,1.8,20,5.8V24c-1.7-0.4-3.9-1-7.1-1.4v-14h29.8v67.2L240.7,76.9z M201.4,74.6
			c3.3,0,6.3-1,9.8-3.1V47.8c-4.1-1.9-6.4-2.2-9.8-2.2h-1.6c-6,0-6.9,3-6.9,8.7v8.8c0,9.6,1,11.6,6.9,11.6H201.4z"/>
		<path fill="#FFFFFF" d="M246.1,45.9c0-13.3,8.7-19.2,26.8-19.2h2.2c8.6,0,20.4,1.1,28.7,3.9v18.1h-18.6l-1.6-6.3
			c-2.7-0.7-5.7-0.8-8.4-0.8c-5.3,0-8.1,1.1-8.1,4v0.7c0,3.5,2.9,3.3,19.9,6.5c14,2.7,18.9,7.8,18.9,16V73
			c0,15.1-8.6,21.7-26.7,21.7h-4.7c-8.6,0-20.7-1.1-28.5-6.5V70.4h18.1l0.6,4.6c1.6,2.9,5.8,4.3,9,4.3h3.5c4.2,0,6.6-1.7,6.6-5.1v-1
			c0-3.5-2.1-4.1-18.7-7.1c-15.4-2.8-19.2-8.4-19.2-17.6V45.9z"/>
	</g>
	<g>
		<path fill="#FF5000" d="M40.1,9L7,8.6c-3.1,0-5.7,2.4-5.7,5.5L0,88.1c0,3.1,2.4,5.7,5.5,5.7l31.6,0.4C34.3,74.9,37.8,37.2,40.1,9z
			 M12.7,80.7c-0.5,0.9-2.6,0.4-3.5-0.3c-1.1-0.9-1.8-1.8-1.4-2.6c0.5-1.1,2.2-0.8,3.2-0.2C11.8,78.2,13.4,79.4,12.7,80.7z M8,35.1
			c0.5-1.1,2.2-0.8,3.2-0.2c0.8,0.5,2.5,1.8,1.8,3.1c-0.5,0.9-2.6,0.4-3.5-0.3C8.3,36.9,7.6,35.9,8,35.1z M11.2,60.9
			c0.8,0.5,2.5,1.8,1.8,3.1c-0.5,0.9-2.6,0.4-3.5-0.3C8.4,62.8,7.7,61.9,8,61C8.5,60,10.2,60.3,11.2,60.9z M18.4,82.6
			c-5-0.7-9.5-11.6-8-12.8c1.4-1.1,2.3,5.7,8.4,8.2c5.8,2.4,10.2-6.3,11.1-5.8C32.1,73.3,24.5,83.5,18.4,82.6z M18.7,65.9
			c-5-0.8-9.5-11.6-8-12.8c1.4-1.1,2.3,5.7,8.4,8.2c5.8,2.4,10.2-6.5,11.1-5.8C32.6,57.1,24.8,66.8,18.7,65.9z M30.8,41.2
			c-0.1,0.8,0.2,1.4-0.4,1.6c-0.5,0.2-6.2-0.2-10.2,0.7c-3.6,0.7-9,5.4-9.8,5.3c-0.3-0.1-0.6-0.2-0.6-1.2c0-1,2.4-3.6,6.9-5.5
			c4.1-1.7,6.4-2.1,6.5-2.3c0.1-0.8-5.3-3.3-9.5-8c-4-4.5-6.9-10.8-6.8-11.9c0.1-1.1,0.8-2.4,1.1-2.3c0.5,0.1,3.2,6.5,8.2,12.6
			c4.8,5.9,14.6,9,14.8,9.3C31.4,39.7,30.9,40.4,30.8,41.2z"/>
		<path fill="#FF5000" d="M308.8,82.9c0-5.9,4.8-9.7,10.6-9.7c5.9,0,10.6,3.8,10.6,9.7c0,5.8-4.7,9.6-10.6,9.6
			C313.6,92.5,308.8,88.7,308.8,82.9z"/>
	</g>
</g>
</svg>
