<?xml version="1.0" encoding="utf-8"?>
<!-- Generator: Adobe Illustrator 16.0.0, SVG Export Plug-In . SVG Version: 6.00 Build 0)  -->
<!DOCTYPE svg PUBLIC "-//W3C//DTD SVG 1.1//EN" "http://www.w3.org/Graphics/SVG/1.1/DTD/svg11.dtd">
<svg version="1.1" id="Layer_1" xmlns="http://www.w3.org/2000/svg" xmlns:xlink="http://www.w3.org/1999/xlink" x="0px" y="0px"
	 width="351.333px" height="353.333px" viewBox="0 0 351.333 353.333" enable-background="new 0 0 351.333 353.333"
	 xml:space="preserve">
<circle fill="none" stroke="#FFFFFF" stroke-width="10" stroke-miterlimit="10" cx="176.343" cy="176.96" r="168.031"/>
<path fill="#FFFFFF" d="M176.343,79.416c-53.872,0-97.545,43.672-97.545,97.545c0,53.872,43.673,97.543,97.545,97.543
	c53.871,0,97.543-43.672,97.543-97.543C273.886,123.087,230.214,79.416,176.343,79.416z M176.343,273.129
	c-53.028,0-96.17-43.141-96.17-96.168c0-53.028,43.142-96.17,96.17-96.17c53.027,0,96.169,43.142,96.169,96.17
	C272.512,229.988,229.37,273.129,176.343,273.129z"/>
<path fill="#FFFFFF" d="M176.343,99.986c-42.514,0-77.1,34.53-77.1,76.975c0,42.444,34.586,76.973,77.1,76.973
	c42.512,0,77.1-34.529,77.1-76.973C253.442,134.516,218.854,99.986,176.343,99.986z M176.343,252.514
	c-41.729,0-75.555-33.826-75.555-75.553c0-41.729,33.826-75.555,75.555-75.555c41.727,0,75.554,33.826,75.554,75.555
	C251.896,218.688,218.069,252.514,176.343,252.514z"/>
<path fill="none" d="M176.343,95.986c-44.719,0-81.1,36.325-81.1,80.975c0,44.649,36.381,80.973,81.1,80.973
	c44.718,0,81.1-36.324,81.1-80.973C257.442,132.311,221.061,95.986,176.343,95.986z"/>
<path fill="#FFFFFF" d="M176.343,84.791c-50.822,0-92.17,41.348-92.17,92.17c0,50.821,41.348,92.168,92.17,92.168
	s92.169-41.348,92.169-92.168C268.512,126.138,227.165,84.791,176.343,84.791z M259.618,153.963c1.62-0.39,3.23,0.61,3.62,2.221
	c0.38,1.609-0.61,3.229-2.229,3.609c-0.23,0.061-0.461,0.08-0.69,0.08c-1.36,0-2.59-0.92-2.92-2.3
	C257.019,155.963,258.009,154.343,259.618,153.963z M252.068,135.383c1.479-0.75,3.29-0.159,4.03,1.32
	c0.75,1.48,0.16,3.29-1.32,4.04c-0.43,0.21-0.9,0.32-1.35,0.32c-1.101,0-2.15-0.601-2.68-1.65
	C249.999,137.934,250.599,136.133,252.068,135.383z M240.438,119.064c1.27-1.07,3.16-0.91,4.23,0.359
	c1.06,1.261,0.899,3.16-0.361,4.221c-0.569,0.479-1.25,0.71-1.939,0.71c-0.85,0-1.699-0.36-2.29-1.07
	C239.009,122.024,239.169,120.124,240.438,119.064z M225.368,105.833c0.99-1.33,2.87-1.609,4.189-0.62
	c1.33,0.99,1.611,2.87,0.621,4.2c-0.59,0.79-1.49,1.21-2.41,1.21c-0.62,0-1.25-0.189-1.78-0.59
	C224.658,109.043,224.378,107.164,225.368,105.833z M207.648,96.434c0.659-1.521,2.42-2.221,3.94-1.57c0,0,0,0,0.01,0
	c1.52,0.65,2.22,2.42,1.57,3.939c-0.49,1.131-1.601,1.82-2.761,1.82c-0.399,0-0.8-0.08-1.19-0.25
	C207.698,99.713,206.999,97.954,207.648,96.434z M188.238,91.394c0.28-1.63,1.83-2.721,3.47-2.44c1.631,0.28,2.721,1.84,2.44,3.47
	c-0.25,1.46-1.521,2.49-2.95,2.49c-0.17,0-0.34-0.02-0.52-0.05C189.048,94.583,187.948,93.034,188.238,91.394z M171.009,87.793
	c1.66-0.1,3.08,1.16,3.17,2.82c0.1,1.65-1.16,3.07-2.811,3.17c-0.061,0-0.119,0-0.18,0c-1.58,0-2.9-1.23-3-2.82
	C168.089,89.314,169.358,87.894,171.009,87.793z M150.599,91.404c0,0,0,0-0.01,0c1.59-0.48,3.26,0.42,3.739,2.01
	s-0.42,3.26-2.01,3.74c-0.29,0.08-0.58,0.12-0.86,0.12c-1.289,0-2.49-0.83-2.88-2.13C148.108,93.553,149.009,91.883,150.599,91.404z
	 M131.568,99.654c1.431-0.83,3.271-0.351,4.101,1.09c0.83,1.43,0.34,3.271-1.091,4.1c-0.479,0.271-0.989,0.41-1.51,0.41
	c-1.03-0.01-2.04-0.54-2.59-1.5C129.648,102.324,130.128,100.484,131.568,99.654z M114.958,112.064c1.211-1.141,3.11-1.09,4.25,0.12
	c1.131,1.199,1.08,3.1-0.119,4.239c-0.58,0.551-1.32,0.82-2.061,0.82c-0.8,0-1.59-0.32-2.18-0.94
	C113.708,115.104,113.759,113.204,114.958,112.064z M101.648,127.954c0,0,0,0,0,0.01c0.909-1.39,2.771-1.77,4.149-0.859
	c1.391,0.899,1.771,2.77,0.86,4.149c-0.569,0.88-1.53,1.351-2.51,1.351c-0.56,0-1.14-0.16-1.64-0.49
	C101.118,131.204,100.738,129.343,101.648,127.954z M92.349,146.503c0.56-1.56,2.289-2.37,3.84-1.8c1.561,0.561,2.359,2.28,1.8,3.84
	c-0.44,1.221-1.59,1.98-2.819,1.98c-0.341,0-0.69-0.061-1.021-0.181C92.589,149.774,91.778,148.053,92.349,146.503z M87.599,166.694
	c0.189-1.65,1.68-2.83,3.32-2.641c1.649,0.19,2.83,1.681,2.639,3.32c-0.17,1.53-1.469,2.66-2.979,2.66c-0.11,0-0.22,0-0.34-0.02
	C88.599,169.833,87.408,168.343,87.599,166.694z M90.599,190.074c-1.5,0-2.791-1.13-2.971-2.65c-0.199-1.649,0.98-3.14,2.631-3.33
	c1.64-0.189,3.129,0.99,3.33,2.631c0.189,1.649-0.99,3.14-2.641,3.329C90.839,190.064,90.718,190.074,90.599,190.074z
	 M96.259,209.383c-0.34,0.131-0.681,0.19-1.03,0.19c-1.22,0-2.37-0.76-2.81-1.98c0,0,0,0-0.011,0c-0.56-1.55,0.24-3.27,1.79-3.84
	c1.561-0.569,3.28,0.23,3.85,1.79C98.618,207.093,97.818,208.814,96.259,209.383z M105.908,226.963c-0.51,0.34-1.08,0.5-1.649,0.5
	c-0.98,0-1.931-0.479-2.51-1.35c-0.91-1.379-0.531-3.24,0.85-4.15c1.38-0.92,3.25-0.539,4.16,0.852
	C107.669,224.193,107.288,226.053,105.908,226.963z M119.339,241.854c-0.59,0.621-1.391,0.939-2.19,0.939
	c-0.729,0-1.47-0.27-2.05-0.809c-1.211-1.141-1.271-3.041-0.131-4.25c1.141-1.201,3.041-1.26,4.24-0.121
	C120.419,238.744,120.468,240.645,119.339,241.854z M135.828,253.264c-0.56,0.961-1.569,1.5-2.6,1.5c-0.511,0-1.03-0.131-1.5-0.4
	c-1.44-0.83-1.931-2.67-1.101-4.1c0.83-1.439,2.67-1.93,4.101-1.1C136.169,249.994,136.658,251.824,135.828,253.264z
	 M154.509,260.553c-0.381,1.301-1.58,2.141-2.871,2.141c-0.279,0-0.569-0.039-0.859-0.119c-1.59-0.48-2.49-2.15-2.02-3.74
	c0.479-1.58,2.149-2.49,3.729-2.01h0.011C154.078,257.293,154.988,258.963,154.509,260.553z M171.378,266.145
	c-0.06,0-0.119,0-0.17-0.012c-1.66-0.09-2.92-1.51-2.83-3.158c0.09-1.66,1.51-2.922,3.17-2.83c1.65,0.1,2.91,1.51,2.82,3.17
	C174.278,264.914,172.958,266.145,171.378,266.145z M191.898,264.934c-0.181,0.029-0.351,0.041-0.521,0.041
	c-1.43,0-2.699-1.021-2.959-2.48c-0.281-1.631,0.81-3.191,2.439-3.471c1.63-0.289,3.189,0.801,3.47,2.43
	C194.618,263.084,193.528,264.645,191.898,264.934z M211.759,258.984c0,0,0,0,0.01,0c-0.391,0.17-0.79,0.25-1.19,0.25
	c-1.159,0-2.271-0.682-2.76-1.811c-0.66-1.52,0.04-3.291,1.56-3.949h0.01c1.521-0.66,3.281,0.039,3.94,1.568
	C213.988,256.553,213.278,258.324,211.759,258.984z M229.698,248.594c-0.529,0.41-1.16,0.6-1.79,0.6c-0.909,0-1.81-0.42-2.399-1.209
	c-0.99-1.33-0.721-3.211,0.609-4.191c1.33-1,3.21-0.719,4.2,0.611C231.298,245.725,231.028,247.604,229.698,248.594z
	 M176.343,257.934c-44.719,0-81.1-36.324-81.1-80.973c0-44.649,36.381-80.975,81.1-80.975c44.718,0,81.1,36.325,81.1,80.975
	C257.442,221.609,221.061,257.934,176.343,257.934z M244.778,234.363c-0.59,0.711-1.439,1.07-2.3,1.07
	c-0.681,0-1.37-0.23-1.931-0.699c-1.27-1.07-1.43-2.961-0.369-4.23c1.07-1.27,2.959-1.43,4.229-0.371
	C245.679,231.203,245.839,233.094,244.778,234.363z M256.188,217.043c-0.53,1.051-1.59,1.65-2.689,1.65
	c-0.451,0-0.91-0.1-1.341-0.311c-1.479-0.75-2.08-2.549-1.33-4.029c0.74-1.48,2.55-2.08,4.03-1.34
	C256.328,213.764,256.929,215.564,256.188,217.043z M263.278,197.553c-0.33,1.381-1.561,2.311-2.92,2.311
	c-0.221,0-0.46-0.03-0.689-0.08c-1.611-0.38-2.611-2-2.23-3.61c0.38-1.609,2-2.609,3.609-2.229
	C262.658,194.324,263.658,195.934,263.278,197.553z M265.669,176.963c0,1.65-1.351,3-3,3c-1.66,0-3-1.35-3-3c0-0.029,0-0.06,0-0.09
	s0-0.06,0-0.09c-0.011-1.66,1.33-3,2.989-3.01c1.66,0,3,1.34,3.011,3c0,0.029,0,0.06,0,0.09S265.669,176.934,265.669,176.963z"/>
<g>
	<path fill="#FFFFFF" d="M61.534,174.673l-31.225-2.369l0.473-6.229l25.611,1.943l0.619-8.156l5.613,0.426L61.534,174.673z"/>
	<path fill="#FFFFFF" d="M63.19,157.208l-30.486-7.151l3.294-14.044l5.481,1.285l-1.869,7.965l6.895,1.616l1.606-6.851l5.481,1.285
		l-1.607,6.852l7.15,1.677l1.868-7.964l5.481,1.285L63.19,157.208z"/>
	<path fill="#FFFFFF" d="M72.843,127.371l-4.884-1.004l-2.855,6.623l4.082,2.861l-2.577,5.979L41.04,122.041l2.438-5.653
		l31.941,5.007L72.843,127.371z M50.7,122.853l9.703,6.818l1.916-4.443L50.7,122.853z"/>
	<path fill="#FFFFFF" d="M73.907,95.792c1.187,0.809,2.289,1.587,3.306,2.333c1.017,0.747,1.927,1.481,2.728,2.206
		c0.803,0.725,1.475,1.456,2.016,2.197c0.541,0.742,0.908,1.517,1.104,2.323c0.283,1.044,0.375,2.171,0.276,3.382
		c-0.098,1.211-0.642,2.543-1.633,3.996l-4.979,7.305L50.85,101.898l4.979-7.305c0.99-1.453,2.031-2.447,3.122-2.98
		c1.092-0.533,2.175-0.859,3.249-0.979c0.822-0.113,1.672-0.059,2.548,0.166s1.791,0.574,2.746,1.047
		c0.954,0.473,1.966,1.047,3.032,1.721S72.72,94.983,73.907,95.792z M70.39,100.953c-0.728-0.496-1.452-0.98-2.176-1.456
		c-0.723-0.474-1.41-0.909-2.066-1.302c-0.654-0.393-1.271-0.725-1.85-0.995c-0.578-0.27-1.062-0.432-1.453-0.484
		c-0.454-0.062-0.893-0.005-1.312,0.169c-0.42,0.176-0.797,0.505-1.127,0.989l-1.387,2.035l16.571,11.296l1.388-2.035
		c0.33-0.484,0.5-0.955,0.508-1.41c0.01-0.455-0.098-0.883-0.322-1.285c-0.191-0.343-0.519-0.734-0.982-1.174
		c-0.463-0.439-1.002-0.896-1.619-1.371c-0.617-0.474-1.286-0.965-2.004-1.473C71.839,101.95,71.116,101.448,70.39,100.953z"/>
	<path fill="#FFFFFF" d="M89.313,102.027L66.819,80.242L76.854,69.88l4.045,3.916l-5.691,5.876l5.086,4.927l4.896-5.055l4.044,3.916
		l-4.896,5.055l5.276,5.109l5.691-5.876l4.043,3.916L89.313,102.027z"/>
	<path fill="#FFFFFF" d="M111.699,82.199l-10.267-7.592l-1.671,1.217l7.175,9.846l-5.047,3.678L83.446,64.041l7.216-5.258
		c1.374-1.002,2.647-1.657,3.818-1.967c1.171-0.309,2.261-0.332,3.269-0.069c1.009,0.264,1.969,0.797,2.881,1.601
		c0.913,0.805,1.81,1.811,2.69,3.02c0.501,0.688,0.944,1.371,1.331,2.051s0.686,1.377,0.899,2.092
		c0.213,0.717,0.307,1.455,0.282,2.217c-0.025,0.762-0.208,1.558-0.548,2.385l11.675,8.254L111.699,82.199z M98.273,65.044
		c-0.259-0.355-0.544-0.709-0.856-1.062c-0.312-0.354-0.646-0.637-1-0.85c-0.355-0.213-0.738-0.314-1.148-0.307
		c-0.41,0.01-0.854,0.188-1.326,0.532l-2.133,1.554l4.637,6.363l2.133-1.555c0.473-0.346,0.773-0.718,0.898-1.118
		c0.126-0.399,0.143-0.802,0.048-1.204s-0.262-0.807-0.503-1.213C98.782,65.781,98.532,65.4,98.273,65.044z"/>
	<path fill="#FFFFFF" d="M130.905,61.669c0.686,1.428,1.152,2.708,1.402,3.84s0.176,2.232-0.221,3.301
		c-0.344,0.912-0.942,1.817-1.797,2.715c-0.854,0.896-1.969,1.676-3.343,2.334c-1.401,0.672-2.7,1.067-3.895,1.186
		c-1.196,0.117-2.263,0.012-3.201-0.318c-1.018-0.357-1.908-0.979-2.675-1.864c-0.765-0.884-1.496-2.054-2.193-3.509l5.631-2.699
		c0.279,0.582,0.553,1.068,0.822,1.459c0.268,0.392,0.604,0.67,1.009,0.833c0.247,0.109,0.542,0.163,0.882,0.162
		c0.342-0.001,0.736-0.108,1.186-0.325c0.82-0.393,1.301-0.916,1.443-1.568c0.154-0.627-0.041-1.51-0.586-2.646
		c-0.316-0.66-0.613-1.193-0.889-1.598s-0.572-0.701-0.891-0.891c-0.318-0.188-0.68-0.299-1.086-0.332s-0.91-0.035-1.514-0.006
		l-4.273,0.244c-0.854,0.052-1.626,0.016-2.319-0.107c-0.692-0.123-1.325-0.372-1.896-0.749c-0.57-0.376-1.119-0.91-1.646-1.601
		c-0.525-0.691-1.055-1.592-1.588-2.702c-0.633-1.321-0.992-2.612-1.076-3.873c-0.084-1.26,0.119-2.464,0.61-3.609
		c0.408-0.911,0.962-1.722,1.663-2.432c0.7-0.709,1.592-1.324,2.676-1.845c2.432-1.166,4.568-1.458,6.408-0.877
		c1.108,0.346,2.102,0.992,2.978,1.938s1.656,2.133,2.341,3.561l-5.631,2.699c-0.241-0.502-0.486-0.962-0.734-1.379
		c-0.25-0.417-0.568-0.728-0.959-0.931c-0.26-0.136-0.547-0.208-0.861-0.221c-0.315-0.011-0.684,0.084-1.107,0.286
		c-0.396,0.191-0.691,0.422-0.887,0.693c-0.194,0.273-0.32,0.553-0.377,0.84c-0.115,0.576,0.051,1.326,0.494,2.251
		c0.215,0.45,0.422,0.814,0.621,1.093c0.198,0.278,0.414,0.492,0.648,0.64c0.233,0.149,0.523,0.245,0.87,0.29
		s0.757,0.052,1.229,0.02l4.214-0.264c1.076-0.061,2.003-0.025,2.782,0.104c0.777,0.132,1.494,0.422,2.148,0.872
		c0.655,0.449,1.264,1.076,1.828,1.879C129.711,59.365,130.298,60.4,130.905,61.669z"/>
	<path fill="#FFFFFF" d="M149.104,65.538l-3.391-12.659L140.7,54.22l3.393,12.66l-6.033,1.616l-8.104-30.247l6.033-1.616
		l3.254,12.149l5.014-1.342l-3.256-12.15l6.033-1.616l8.104,30.247L149.104,65.538z"/>
	<path fill="#FFFFFF" d="M159.65,63.476l-3.673-31.098l6.201-0.732l3.674,31.098L159.65,63.476z"/>
	<path fill="#FFFFFF" d="M188.396,41.191c-0.029,1.525-0.196,2.9-0.498,4.126c-0.304,1.226-0.801,2.265-1.491,3.116
		c-0.691,0.852-1.606,1.501-2.743,1.947c-1.139,0.447-2.558,0.654-4.258,0.621l-2.594-0.051l-0.223,11.344l-6.244-0.122
		l0.613-31.308l8.839,0.173c1.7,0.034,3.11,0.296,4.229,0.786c1.119,0.492,2.008,1.177,2.665,2.055s1.112,1.936,1.368,3.172
		C188.313,38.287,188.426,39.667,188.396,41.191z M182.151,41.07c0.01-0.498-0.002-1.005-0.035-1.52
		c-0.035-0.513-0.135-0.984-0.303-1.413c-0.168-0.428-0.433-0.778-0.793-1.049c-0.362-0.271-0.865-0.413-1.51-0.426l-2.418-0.048
		l-0.171,8.707l2.419,0.047c0.645,0.014,1.152-0.109,1.523-0.365c0.372-0.257,0.65-0.596,0.834-1.018
		c0.185-0.422,0.304-0.889,0.357-1.4C182.11,42.074,182.142,41.568,182.151,41.07z"/>
	<path fill="#FFFFFF" d="M198.625,64.433l6.888-30.547l6.092,1.373l-6.888,30.547L198.625,64.433z"/>
	<path fill="#FFFFFF" d="M221.177,71.341l-0.68-16.67l-5.516,14.277l-5.825-2.252l11.285-29.209l5.087,1.965l0.557,16.623
		l5.516-14.276l5.825,2.251l-11.285,29.209L221.177,71.341z"/>
	<path fill="#FFFFFF" d="M248.932,76.556c-0.835,1.344-1.663,2.428-2.482,3.246c-0.819,0.82-1.788,1.35-2.902,1.589
		c-0.954,0.202-2.038,0.184-3.255-0.054c-1.215-0.238-2.471-0.759-3.766-1.562c-1.32-0.82-2.352-1.703-3.094-2.646
		c-0.742-0.944-1.227-1.901-1.453-2.87c-0.246-1.05-0.201-2.136,0.133-3.257s0.926-2.367,1.777-3.736l5.305,3.295
		c-0.34,0.548-0.604,1.041-0.788,1.478c-0.186,0.437-0.238,0.87-0.159,1.298c0.041,0.268,0.154,0.545,0.338,0.832
		s0.488,0.562,0.912,0.824c0.771,0.48,1.471,0.604,2.098,0.372c0.611-0.206,1.25-0.845,1.916-1.917
		c0.387-0.621,0.676-1.158,0.869-1.607c0.193-0.45,0.283-0.86,0.271-1.23c-0.012-0.369-0.113-0.734-0.303-1.094
		c-0.191-0.359-0.462-0.787-0.811-1.279l-2.504-3.471c-0.502-0.692-0.889-1.363-1.157-2.014c-0.27-0.65-0.399-1.316-0.388-2.002
		c0.01-0.684,0.165-1.432,0.465-2.248c0.299-0.814,0.773-1.745,1.423-2.791c0.773-1.246,1.669-2.242,2.687-2.992
		c1.016-0.748,2.141-1.224,3.371-1.426c0.987-0.146,1.969-0.115,2.943,0.094s1.973,0.63,2.994,1.265
		c2.292,1.423,3.688,3.066,4.188,4.93c0.304,1.121,0.293,2.306-0.033,3.553s-0.906,2.543-1.741,3.888l-5.306-3.295
		c0.294-0.473,0.551-0.927,0.768-1.361c0.219-0.434,0.309-0.869,0.27-1.309c-0.025-0.291-0.119-0.572-0.277-0.845
		c-0.16-0.271-0.438-0.531-0.837-0.778c-0.374-0.232-0.728-0.357-1.062-0.375s-0.638,0.027-0.911,0.133
		c-0.546,0.213-1.091,0.756-1.632,1.627c-0.264,0.424-0.459,0.795-0.586,1.111c-0.129,0.318-0.193,0.615-0.191,0.891
		c0,0.277,0.075,0.574,0.225,0.891c0.146,0.316,0.362,0.666,0.643,1.047l2.49,3.41c0.63,0.875,1.1,1.676,1.408,2.402
		c0.307,0.726,0.447,1.486,0.421,2.28c-0.027,0.794-0.228,1.645-0.601,2.552C250.231,74.308,249.675,75.36,248.932,76.556z"/>
	<path fill="#FFFFFF" d="M271.247,73.538l-16.945,19.3l-4.693-4.12l16.946-19.3l-3.966-3.482l3.715-4.23l12.624,11.085l-3.714,4.23
		L271.247,73.538z"/>
	<path fill="#FFFFFF" d="M260.157,98.671l23.449-20.753l4.139,4.677l-23.449,20.753L260.157,98.671z"/>
	<path fill="#FFFFFF" d="M294.126,100.582l-21.223,14.466l-3.518-5.16l21.223-14.466l-2.973-4.361l4.652-3.17l9.462,13.882
		l-4.651,3.171L294.126,100.582z"/>
	<path fill="#FFFFFF" d="M292.166,134.394c-1.149,0.52-2.279,0.812-3.391,0.881s-2.172-0.088-3.181-0.469
		c-2.264-0.811-3.945-2.433-5.045-4.863c-1.098-2.432-1.203-4.765-0.315-7c0.38-1.01,0.964-1.908,1.749-2.697
		s1.753-1.443,2.902-1.963l20.881-9.436l2.571,5.691l-21.161,9.562c-0.936,0.422-1.491,0.955-1.667,1.598
		c-0.177,0.643-0.119,1.285,0.171,1.926c0.289,0.641,0.733,1.107,1.332,1.4s1.365,0.229,2.301-0.195l21.162-9.562l2.571,5.691
		L292.166,134.394z"/>
	<path fill="#FFFFFF" d="M313.106,145.25l-24.889,6.342l-1.543-6.052l24.89-6.342l-1.303-5.114l5.455-1.391l4.147,16.281
		l-5.455,1.39L313.106,145.25z"/>
	<path fill="#FFFFFF" d="M289.885,159.621l31.182-2.874l1.324,14.364l-5.606,0.518l-0.75-8.146l-7.051,0.65l0.646,7.007
		l-5.605,0.517l-0.646-7.007l-7.314,0.675l0.751,8.145l-5.605,0.518L289.885,159.621z"/>
</g>
<g>
	<path fill="#FFFFFF" d="M59.39,245.051c-0.704,0.342-1.398,0.549-2.082,0.621c-0.684,0.07-1.303,0.012-1.857-0.18
		c-0.547-0.176-1.022-0.438-1.427-0.787c-0.404-0.348-0.771-0.826-1.097-1.434c-0.42-0.785-0.622-1.502-0.606-2.154
		s0.14-1.25,0.37-1.791c0.174-0.424,0.418-0.811,0.733-1.164c0.315-0.352,0.7-0.697,1.153-1.035c0.453-0.34,0.971-0.674,1.551-1.002
		c0.581-0.328,1.216-0.678,1.904-1.047c0.689-0.371,1.332-0.707,1.927-1.008c0.595-0.303,1.159-0.547,1.692-0.738
		c0.533-0.189,1.033-0.318,1.502-0.387c0.467-0.068,0.926-0.059,1.374,0.031c0.579,0.107,1.146,0.334,1.697,0.682
		s1.038,0.914,1.458,1.697c0.326,0.609,0.522,1.178,0.59,1.707c0.066,0.529,0.021,1.072-0.134,1.625
		c-0.149,0.566-0.438,1.113-0.869,1.641s-0.983,0.988-1.657,1.385l-1.545-2.877c0.195-0.123,0.385-0.25,0.566-0.383
		c0.181-0.131,0.324-0.277,0.43-0.439c0.131-0.174,0.205-0.361,0.221-0.561c0.014-0.201-0.051-0.436-0.195-0.705
		c-0.146-0.271-0.312-0.451-0.5-0.541c-0.188-0.092-0.385-0.133-0.59-0.127s-0.472,0.061-0.798,0.166s-0.687,0.246-1.079,0.422
		s-0.807,0.377-1.242,0.602c-0.438,0.225-0.871,0.453-1.303,0.686c-0.434,0.232-0.863,0.467-1.292,0.707
		c-0.429,0.238-0.825,0.473-1.188,0.703c-0.365,0.229-0.681,0.451-0.949,0.664c-0.268,0.213-0.461,0.404-0.58,0.572
		s-0.192,0.355-0.221,0.562s0.029,0.445,0.176,0.715c0.145,0.27,0.307,0.453,0.488,0.547s0.381,0.135,0.601,0.121
		c0.192,0.002,0.394-0.037,0.604-0.115c0.21-0.076,0.421-0.164,0.631-0.26L59.39,245.051z"/>
	<path fill="#FFFFFF" d="M60.441,255.348l5.714-3.787l-1.5-2.262l-5.713,3.787l-1.805-2.723l13.65-9.047l1.805,2.721l-5.483,3.635
		l1.499,2.262l5.482-3.633l1.805,2.721l-13.649,9.049L60.441,255.348z"/>
	<path fill="#FFFFFF" d="M68.761,266.426l3.69-5.564l-0.681-0.84l-4.95,4.01l-2.056-2.539l12.725-10.307l2.939,3.629
		c0.559,0.689,0.936,1.338,1.129,1.941c0.192,0.604,0.234,1.172,0.123,1.705c-0.11,0.533-0.363,1.049-0.76,1.547
		c-0.395,0.498-0.896,0.994-1.504,1.486c-0.346,0.279-0.691,0.529-1.035,0.75c-0.346,0.219-0.701,0.395-1.07,0.525
		c-0.367,0.131-0.751,0.199-1.149,0.205c-0.399,0.008-0.819-0.066-1.261-0.221l-3.998,6.316L68.761,266.426z M77.36,258.955
		c0.18-0.145,0.356-0.303,0.533-0.475c0.176-0.172,0.314-0.354,0.416-0.545s0.145-0.395,0.13-0.607
		c-0.017-0.215-0.12-0.441-0.313-0.68l-0.868-1.072l-3.199,2.592l0.868,1.072c0.193,0.238,0.396,0.385,0.608,0.439
		s0.422,0.053,0.63-0.008c0.208-0.059,0.415-0.158,0.62-0.295C76.989,259.242,77.183,259.102,77.36,258.955z"/>
	<path fill="#FFFFFF" d="M73.044,271.336l11.963-11.182l2.23,2.385l-11.963,11.184L73.044,271.336z"/>
	<path fill="#FFFFFF" d="M87.416,278.969c-0.565,0.604-1.101,1.076-1.604,1.412c-0.504,0.338-1.054,0.51-1.65,0.52
		c-0.51,0.006-1.064-0.113-1.663-0.359c-0.6-0.244-1.19-0.641-1.772-1.184c-0.595-0.557-1.033-1.113-1.318-1.674
		c-0.285-0.559-0.436-1.1-0.453-1.619c-0.02-0.564,0.114-1.115,0.399-1.658c0.286-0.541,0.716-1.119,1.292-1.734l2.387,2.23
		c-0.23,0.246-0.416,0.471-0.555,0.678c-0.141,0.205-0.211,0.422-0.215,0.648c-0.006,0.143,0.023,0.295,0.089,0.461
		s0.192,0.338,0.384,0.516c0.348,0.326,0.693,0.461,1.039,0.404c0.334-0.043,0.727-0.305,1.178-0.787
		c0.262-0.279,0.465-0.525,0.609-0.736s0.232-0.412,0.264-0.604c0.032-0.191,0.018-0.389-0.044-0.592
		c-0.062-0.205-0.156-0.451-0.285-0.74l-0.931-2.035c-0.188-0.404-0.317-0.789-0.389-1.15c-0.072-0.359-0.07-0.715,0.004-1.064
		c0.075-0.35,0.23-0.719,0.468-1.107c0.236-0.387,0.574-0.816,1.015-1.287c0.523-0.561,1.084-0.98,1.682-1.26
		c0.598-0.281,1.223-0.41,1.875-0.389c0.521,0.025,1.021,0.141,1.5,0.348c0.479,0.205,0.948,0.523,1.408,0.953
		c1.029,0.963,1.578,1.947,1.645,2.955c0.043,0.605-0.084,1.213-0.377,1.818c-0.295,0.607-0.725,1.213-1.29,1.818l-2.386-2.23
		c0.199-0.213,0.377-0.42,0.532-0.621c0.156-0.199,0.247-0.414,0.271-0.643c0.017-0.152-0.003-0.307-0.057-0.463
		c-0.054-0.154-0.171-0.316-0.35-0.484c-0.168-0.156-0.337-0.258-0.507-0.301s-0.33-0.051-0.48-0.023
		c-0.303,0.053-0.637,0.275-1.003,0.668c-0.179,0.191-0.316,0.361-0.414,0.51c-0.099,0.15-0.161,0.297-0.188,0.438
		c-0.027,0.143-0.02,0.303,0.024,0.48s0.118,0.379,0.224,0.602l0.93,2.004c0.234,0.512,0.394,0.971,0.479,1.375
		c0.083,0.404,0.078,0.809-0.017,1.213s-0.284,0.82-0.568,1.248C88.312,277.947,87.919,278.43,87.416,278.969z"/>
	<path fill="#FFFFFF" d="M99.248,277.26l-8.335,10.533l-2.562-2.025l8.335-10.533l-2.164-1.713l1.826-2.309l6.891,5.451
		l-1.827,2.309L99.248,277.26z"/>
	<path fill="#FFFFFF" d="M101.554,282.375l3.235-4.67l2.685,1.859l-1.859,2.684L101.554,282.375z"/>
	<path fill="#FFFFFF" d="M111.141,295.586c-0.424,0.711-0.847,1.285-1.268,1.721c-0.421,0.438-0.922,0.723-1.503,0.857
		c-0.496,0.115-1.064,0.115-1.701,0.004c-0.639-0.113-1.301-0.375-1.984-0.783c-0.698-0.416-1.246-0.867-1.643-1.354
		c-0.397-0.488-0.659-0.982-0.787-1.488c-0.139-0.547-0.125-1.113,0.039-1.703s0.463-1.246,0.895-1.971l2.805,1.674
		c-0.173,0.289-0.306,0.549-0.398,0.779s-0.116,0.457-0.07,0.68c0.023,0.141,0.085,0.283,0.184,0.432
		c0.1,0.148,0.26,0.289,0.484,0.424c0.408,0.242,0.775,0.301,1.102,0.174c0.317-0.113,0.645-0.453,0.982-1.02
		c0.197-0.33,0.344-0.613,0.44-0.85s0.14-0.451,0.13-0.645s-0.065-0.383-0.168-0.57c-0.104-0.186-0.249-0.406-0.436-0.662
		l-1.342-1.791c-0.27-0.355-0.479-0.703-0.625-1.041s-0.221-0.686-0.221-1.043c-0.002-0.357,0.072-0.75,0.222-1.18
		c0.148-0.43,0.388-0.92,0.718-1.473c0.393-0.658,0.852-1.189,1.377-1.59c0.524-0.4,1.107-0.66,1.749-0.777
		c0.515-0.086,1.028-0.078,1.54,0.021s1.037,0.311,1.578,0.633c1.211,0.723,1.956,1.568,2.234,2.539
		c0.17,0.582,0.176,1.203,0.018,1.857c-0.16,0.654-0.451,1.338-0.875,2.049l-2.805-1.672c0.148-0.25,0.279-0.49,0.389-0.719
		c0.109-0.23,0.152-0.459,0.129-0.688c-0.018-0.152-0.068-0.299-0.154-0.439s-0.233-0.273-0.443-0.398
		c-0.198-0.119-0.385-0.18-0.56-0.188c-0.175-0.006-0.333,0.021-0.476,0.078c-0.283,0.117-0.562,0.406-0.838,0.867
		c-0.133,0.223-0.232,0.418-0.296,0.586s-0.095,0.322-0.091,0.467c0.002,0.146,0.044,0.301,0.125,0.465
		c0.08,0.164,0.196,0.344,0.347,0.541l1.333,1.76c0.338,0.451,0.591,0.865,0.76,1.242c0.167,0.377,0.248,0.773,0.24,1.189
		c-0.006,0.414-0.104,0.861-0.289,1.34C111.8,294.398,111.519,294.953,111.141,295.586z"/>
	<path fill="#FFFFFF" d="M126.052,302.658c-0.344,0.703-0.765,1.293-1.26,1.77c-0.496,0.477-1.021,0.811-1.575,1
		c-0.54,0.197-1.077,0.283-1.61,0.256c-0.533-0.025-1.115-0.178-1.746-0.457c-0.812-0.361-1.414-0.803-1.803-1.326
		s-0.658-1.07-0.809-1.641c-0.123-0.439-0.168-0.896-0.136-1.369c0.032-0.471,0.124-0.98,0.272-1.525
		c0.15-0.547,0.352-1.127,0.608-1.744c0.256-0.615,0.542-1.281,0.858-1.996s0.617-1.375,0.9-1.979s0.578-1.145,0.881-1.621
		c0.304-0.479,0.619-0.889,0.947-1.23c0.326-0.34,0.694-0.613,1.104-0.818c0.523-0.271,1.109-0.439,1.758-0.506
		c0.648-0.064,1.381,0.084,2.193,0.443c0.631,0.279,1.136,0.607,1.514,0.984c0.379,0.377,0.676,0.832,0.894,1.363
		c0.231,0.539,0.339,1.148,0.323,1.828c-0.017,0.68-0.169,1.385-0.457,2.111l-2.986-1.32c0.078-0.217,0.148-0.434,0.211-0.648
		c0.062-0.217,0.085-0.42,0.069-0.611c-0.003-0.219-0.061-0.412-0.171-0.58c-0.111-0.166-0.307-0.311-0.588-0.436
		c-0.28-0.123-0.522-0.164-0.727-0.119c-0.203,0.043-0.385,0.131-0.543,0.262s-0.334,0.34-0.527,0.623
		c-0.192,0.283-0.39,0.615-0.592,0.996c-0.201,0.379-0.404,0.793-0.61,1.238s-0.407,0.893-0.606,1.342
		c-0.198,0.447-0.394,0.898-0.585,1.35c-0.191,0.453-0.36,0.881-0.505,1.285c-0.146,0.406-0.26,0.775-0.34,1.107
		c-0.08,0.334-0.115,0.604-0.105,0.809c0.009,0.205,0.066,0.398,0.171,0.578c0.104,0.182,0.297,0.334,0.577,0.457
		c0.281,0.125,0.521,0.168,0.723,0.131c0.2-0.037,0.383-0.127,0.548-0.273c0.152-0.115,0.287-0.27,0.405-0.461
		s0.23-0.389,0.338-0.592L126.052,302.658z"/>
	<path fill="#FFFFFF" d="M133.233,310.137l2.174-6.5l-2.573-0.861l-2.175,6.5l-3.097-1.035l5.195-15.531l3.097,1.037l-2.086,6.238
		l2.573,0.859l2.087-6.238l3.098,1.037l-5.195,15.529L133.233,310.137z"/>
	<path fill="#FFFFFF" d="M150.33,310.092c-0.147,0.643-0.384,1.207-0.708,1.691c-0.324,0.482-0.725,0.875-1.203,1.174
		c-1.055,0.686-2.262,0.871-3.621,0.559s-2.363-1.008-3.013-2.086c-0.3-0.479-0.488-1.006-0.567-1.582
		c-0.08-0.576-0.046-1.188,0.102-1.83l2.688-11.678l3.183,0.734l-2.725,11.834c-0.12,0.523-0.074,0.922,0.137,1.199
		c0.212,0.277,0.497,0.457,0.855,0.539c0.359,0.082,0.693,0.047,1.006-0.111c0.311-0.156,0.527-0.496,0.646-1.018l2.725-11.836
		l3.184,0.734L150.33,310.092z"/>
	<path fill="#FFFFFF" d="M159.677,315.93l-1.15-6.578l-1.072-0.143l-0.832,6.316l-3.238-0.426l2.142-16.236l4.629,0.611
		c0.882,0.115,1.601,0.326,2.155,0.631c0.555,0.307,0.977,0.691,1.264,1.154c0.286,0.463,0.457,1.012,0.514,1.645
		c0.055,0.633,0.031,1.338-0.07,2.113c-0.059,0.441-0.137,0.859-0.236,1.256c-0.098,0.398-0.236,0.77-0.414,1.117
		c-0.177,0.348-0.408,0.662-0.691,0.941c-0.285,0.279-0.641,0.516-1.068,0.707l1.445,7.336L159.677,315.93z M160.778,304.59
		c0.03-0.227,0.05-0.465,0.059-0.711c0.01-0.246-0.015-0.473-0.072-0.682c-0.057-0.209-0.166-0.385-0.324-0.531
		c-0.158-0.145-0.391-0.236-0.693-0.275l-1.369-0.182l-0.538,4.082l1.368,0.18c0.304,0.041,0.552,0.008,0.744-0.098
		c0.191-0.107,0.342-0.254,0.452-0.439c0.109-0.188,0.192-0.4,0.247-0.641S160.748,304.818,160.778,304.59z"/>
	<path fill="#FFFFFF" d="M175.546,312.311c-0.062,0.779-0.236,1.482-0.522,2.107c-0.286,0.627-0.651,1.129-1.097,1.51
		c-0.43,0.383-0.898,0.658-1.403,0.83c-0.506,0.172-1.103,0.242-1.792,0.215c-0.889-0.035-1.611-0.227-2.164-0.57
		c-0.555-0.344-1.006-0.754-1.355-1.229c-0.276-0.363-0.486-0.771-0.629-1.223s-0.246-0.957-0.307-1.52
		c-0.062-0.562-0.088-1.178-0.076-1.846c0.012-0.666,0.033-1.391,0.065-2.172c0.031-0.781,0.068-1.506,0.11-2.172
		c0.043-0.664,0.117-1.275,0.225-1.832c0.105-0.555,0.249-1.053,0.428-1.49s0.421-0.826,0.727-1.168
		c0.386-0.443,0.869-0.816,1.449-1.115c0.579-0.299,1.313-0.43,2.202-0.395c0.689,0.029,1.279,0.148,1.77,0.359
		c0.49,0.213,0.935,0.525,1.331,0.939c0.414,0.416,0.737,0.943,0.973,1.582c0.234,0.639,0.352,1.35,0.352,2.133l-3.264-0.133
		c-0.006-0.23-0.02-0.457-0.041-0.68c-0.022-0.225-0.076-0.422-0.16-0.594c-0.084-0.203-0.209-0.361-0.373-0.477
		c-0.164-0.113-0.399-0.176-0.705-0.189c-0.307-0.012-0.547,0.041-0.721,0.156s-0.31,0.264-0.408,0.443
		c-0.1,0.18-0.188,0.438-0.262,0.771c-0.075,0.336-0.137,0.717-0.185,1.145s-0.086,0.887-0.113,1.377s-0.051,0.979-0.071,1.469
		c-0.02,0.492-0.035,0.982-0.047,1.473c-0.013,0.49-0.012,0.951,0.002,1.381c0.013,0.43,0.043,0.814,0.091,1.154
		s0.114,0.604,0.198,0.791s0.209,0.346,0.372,0.475c0.163,0.131,0.398,0.201,0.705,0.213c0.306,0.012,0.546-0.035,0.72-0.143
		c0.173-0.109,0.31-0.26,0.409-0.457c0.099-0.164,0.168-0.357,0.208-0.578c0.039-0.221,0.071-0.445,0.096-0.674L175.546,312.311z"/>
	<path fill="#FFFFFF" d="M184.922,316.648l-0.349-6.846l-2.711,0.139l0.349,6.844l-3.262,0.166l-0.832-16.354l3.262-0.166
		l0.335,6.568l2.71-0.137l-0.335-6.57l3.262-0.166l0.833,16.355L184.922,316.648z"/>
	<path fill="#FFFFFF" d="M204.364,305.814c0.138,0.771,0.254,1.486,0.348,2.146c0.096,0.66,0.153,1.273,0.176,1.838
		c0.023,0.564-0.006,1.08-0.086,1.545c-0.08,0.467-0.232,0.898-0.457,1.297c-0.282,0.518-0.674,0.984-1.176,1.402
		c-0.502,0.416-1.191,0.703-2.066,0.859c-0.875,0.154-1.621,0.125-2.236-0.092c-0.614-0.219-1.144-0.521-1.586-0.91
		c-0.35-0.295-0.643-0.648-0.879-1.057c-0.236-0.41-0.445-0.883-0.627-1.42c-0.182-0.535-0.338-1.131-0.47-1.785
		c-0.133-0.652-0.267-1.365-0.405-2.135c-0.137-0.77-0.256-1.484-0.358-2.145c-0.103-0.658-0.161-1.271-0.177-1.838
		c-0.015-0.564,0.018-1.08,0.098-1.547c0.081-0.465,0.233-0.898,0.459-1.297c0.281-0.518,0.673-0.984,1.175-1.4
		c0.501-0.418,1.19-0.703,2.065-0.859c0.876-0.156,1.621-0.125,2.236,0.092s1.145,0.52,1.588,0.908
		c0.348,0.297,0.641,0.648,0.877,1.059c0.237,0.408,0.442,0.883,0.616,1.42s0.331,1.133,0.47,1.785
		C204.089,304.334,204.228,305.045,204.364,305.814z M201.149,306.389c-0.086-0.482-0.176-0.965-0.27-1.447
		c-0.094-0.48-0.193-0.932-0.299-1.348c-0.106-0.418-0.219-0.787-0.338-1.107c-0.12-0.322-0.241-0.564-0.364-0.73
		c-0.123-0.164-0.278-0.293-0.466-0.385c-0.188-0.09-0.432-0.109-0.734-0.055c-0.302,0.053-0.525,0.156-0.67,0.307
		s-0.245,0.324-0.304,0.521c-0.058,0.197-0.088,0.467-0.089,0.809c-0.002,0.344,0.021,0.73,0.066,1.158s0.107,0.883,0.186,1.367
		s0.161,0.969,0.247,1.451c0.087,0.484,0.176,0.967,0.271,1.447c0.094,0.482,0.192,0.932,0.299,1.35
		c0.105,0.416,0.218,0.785,0.338,1.107c0.119,0.32,0.24,0.564,0.363,0.729c0.123,0.166,0.277,0.293,0.466,0.385
		c0.188,0.092,0.433,0.109,0.734,0.057c0.302-0.055,0.524-0.156,0.669-0.307s0.246-0.324,0.305-0.521s0.088-0.467,0.089-0.811
		s-0.021-0.729-0.065-1.156c-0.046-0.428-0.107-0.885-0.187-1.369S201.235,306.873,201.149,306.389z"/>
	<path fill="#FFFFFF" d="M208.957,299.225l0.957,3.576l3.556-0.951l0.76,2.844l-3.555,0.951l1.753,6.555l-3.155,0.844l-4.23-15.82
		l7.287-1.949l0.761,2.846L208.957,299.225z"/>
	<path fill="#FFFFFF" d="M223.854,294.25l4.889,12.512l-3.041,1.188l-4.889-12.51l-2.571,1.004l-1.071-2.742l8.184-3.197
		l1.071,2.742L223.854,294.25z"/>
	<path fill="#FFFFFF" d="M239.709,301.76l-3.05-6.139l-2.432,1.209l3.051,6.137l-2.925,1.455l-7.288-14.666l2.926-1.453l2.927,5.891
		l2.431-1.207l-2.928-5.891l2.925-1.455l7.288,14.666L239.709,301.76z"/>
	<path fill="#FFFFFF" d="M246.202,298.277l-8.543-13.971l6.436-3.936l1.536,2.512l-3.649,2.232l1.932,3.158l3.14-1.918l1.536,2.51
		l-3.14,1.92l2.003,3.277l3.65-2.23l1.535,2.51L246.202,298.277z"/>
	<path fill="#FFFFFF" d="M263.825,286.176l-2.68,2.1l-12.977-10.639l2.825-2.213l8.527,8.018l-5.721-10.215l2.825-2.213
		L263.825,286.176z"/>
	<path fill="#FFFFFF" d="M273.694,277.479l-2.133-1.5l-2.752,2.578l1.359,2.225l-2.484,2.328l-8.125-14.83l2.351-2.201l14.268,9.074
		L273.694,277.479z M264.021,270.688l3.229,5.297l1.847-1.73L264.021,270.688z"/>
	<path fill="#FFFFFF" d="M278.174,272.965l-12.188-10.938l2.182-2.432l9.997,8.971l2.857-3.184l2.19,1.967L278.174,272.965z"/>
	<path fill="#FFFFFF" d="M285.229,264.879l-12.986-9.977l1.989-2.59l10.651,8.184l2.607-3.393l2.334,1.793L285.229,264.879z"/>
	<path fill="#FFFFFF" d="M291.654,256.275l-13.718-8.945l4.121-6.318l2.466,1.607l-2.337,3.584l3.102,2.021l2.01-3.082l2.467,1.607
		l-2.01,3.084l3.217,2.098l2.337-3.584l2.466,1.607L291.654,256.275z"/>
	<path fill="#FFFFFF" d="M294.647,239.381l5.416,2.945l-1.561,2.869l-5.415-2.945l-10.565-1.947l1.715-3.152l5.872,1.623
		l-4.554-4.047l1.713-3.152L294.647,239.381z"/>
</g>
<polygon fill="#FFFFFF" points="307.239,223.557 299.782,214.326 288.017,215.852 294.491,205.908 289.403,195.189 300.86,198.275 
	309.483,190.123 310.089,201.974 320.507,207.656 309.423,211.895 "/>
<polygon fill="#FFFFFF" points="46.489,223.557 53.944,214.326 65.711,215.852 59.235,205.908 64.324,195.189 52.866,198.275 
	44.243,190.123 43.638,201.974 33.22,207.656 44.304,211.895 "/>
<g>
	<path fill="#FFFFFF" d="M121.282,156.386c-1.611-0.678-3.465,0.729-5.104,2.936c-1.301,1.758-2.335,5.955-0.5,6.906
		c2.615,1.348,5.079-1.951,6.037-3.607C122.864,160.666,123.437,157.316,121.282,156.386z"/>
	<path fill="#FFFFFF" d="M154.334,156.304c-1.611-0.693-3.472,0.727-5.101,2.928c-1.296,1.76-2.342,5.953-0.5,6.91
		c2.61,1.35,5.076-1.957,6.033-3.607C155.913,160.566,156.489,157.224,154.334,156.304z"/>
	<path fill="#FFFFFF" d="M205.401,155.388c-1.608-0.697-3.468,0.727-5.098,2.939c-1.305,1.75-2.342,5.949-0.502,6.895
		c2.621,1.357,5.08-1.955,6.036-3.596C206.983,159.654,207.566,156.316,205.401,155.388z"/>
	<path fill="#FFFFFF" d="M137.295,161.287c-2.522-3.02-23.698,6.289-25.015,16.158c-1.602,11.998,18.641,26.795,21.022,22.318
		c1.011-1.895-16.362-10.227-11.81-21.705C126.245,166.05,139.581,164.031,137.295,161.287z"/>
	<path fill="#FFFFFF" d="M170.136,161.363c-2.52-3.018-23.701,6.287-25.021,16.16c-1.597,12.002,17.718,27.055,21.02,22.322
		c1.236-1.762-16.359-10.225-11.807-21.715C159.079,166.123,172.421,164.107,170.136,161.363z"/>
	<path fill="#FFFFFF" d="M180.986,159.462c-1.912,0.096-2.104,0.531-2.257,1.217c-0.351,1.52,9.088,12.062,10.688,19.105
		c1.752,7.773,1.246,19.074,1.646,19.979c0.476,1.086,1.559,0.521,3.121,0.691c1.57,0.178,2.91,1.307,3.818,0.527
		c0.527-0.527,6.361-19.848,17.725-29.529c11.818-10.064,24.234-15.467,24.49-16.502c0.164-0.643-2.258-1.908-4.514-2.092
		c-2.264-0.176-14.548,5.611-23.281,13.725c-9.082,8.469-13.893,19.109-15.46,18.939c-0.515-0.061-1.298-4.652-4.859-12.678
		C188.229,164.105,182.926,159.375,180.986,159.462z"/>
</g>
</svg>
