<svg xmlns="http://www.w3.org/2000/svg" viewBox="0 0 30.2 14.66"><defs><style>.cls-1{fill:#7a1315}.cls-2{fill:#fff}</style></defs><title>logo</title><g id="Layer_2" data-name="Layer 2"><g id="Layer_1-2" data-name="Layer 1"><rect id="_Path_" data-name="&amp;lt;Path&amp;gt;" class="cls-1" width="30.2" height="14.66" rx="4.22" ry="4.22"/><path id="_Path_2" data-name="&amp;lt;Path&amp;gt;" class="cls-2" d="M10.06 4c.3-.41.65-.68 1-.55s.29.8.08 1.17-.64.93-1.13.67-.2-.97.05-1.29z"/><path id="_Path_3" data-name="&amp;lt;Path&amp;gt;" class="cls-2" d="M3.88 4c.31-.41.65-.68 1-.55s.3.8.08 1.16-.64.93-1.13.68-.2-.95.05-1.29z"/><path id="_Path_4" data-name="&amp;lt;Path&amp;gt;" class="cls-2" d="M4.87 7.51c-.87 2.15 2.4 3.71 2.21 4.06-.45.84-4.23-1.93-3.93-4.18.25-1.84 4.21-3.59 4.68-3s-2.08.88-2.96 3.12z"/><path id="_Path_5" data-name="&amp;lt;Path&amp;gt;" class="cls-2" d="M11 7.53c-.85 2.14 2.44 3.73 2.21 4.06-.61.88-4.21-1.93-3.92-4.18.25-1.84 4.21-3.58 4.68-3S11.9 5.28 11 7.53z"/><path id="_Path_6" data-name="&amp;lt;Path&amp;gt;" class="cls-2" d="M19.61 3.82c.3-.41.65-.68 1-.55s.29.8.08 1.17-.64.93-1.13.68-.2-.97.05-1.3z"/><path id="_Path_7" data-name="&amp;lt;Path&amp;gt;" class="cls-2" d="M27.07 3.19a47.19 47.19 0 0 0-4.58 3.09c-2.12 1.81-3.22 5.43-3.31 5.52s-.42-.07-.71-.1-.5.07-.58-.13a29.43 29.43 0 0 0-.31-3.74c-.3-1.32-2.06-3.29-2-3.57 0-.13.06-.21.42-.23s1.35.87 2.08 2.5.81 2.36.91 2.37c.29 0 1.19-2 2.89-3.54a11.07 11.07 0 0 1 4.34-2.56c.43.04.88.27.85.39z"/></g></g></svg>