<svg version="1.1" id="Vrstva_1" xmlns="http://www.w3.org/2000/svg" xmlns:xlink="http://www.w3.org/1999/xlink" x="0" y="0" width="5000" height="3750" viewBox="0 0 5000 3750" enable-background="new 0 0 5000 3750" xml:space="preserve"><g><path opacity="0" d="M3623.324,3664.574c-59.228,0-115.978-21.947-159.802-61.791l-503.162-458.106 c-4.602-4.199-10.607-6.518-16.834-6.518L624.994,2937.5L406.342,675.001c0-130.957,106.543-237.5,237.5-237.5l3361.281,127.08 c130.959,0,237.502,106.545,237.502,237.501l37.5,2074.994c0,130.956-106.543,237.499-237.5,237.499l-171.07,12.5 c-11.756,0-21.924,8.203-24.426,19.678l8.227,330.956c-18.018,82.617-79.248,149.902-159.803,175.635 C3672.006,3660.791,3647.689,3664.574,3623.324,3664.574z"/><path opacity=".048" fill="#040404" d="M3619.237,3645.421c-56.847,0-111.324-21.064-153.396-59.313l-497.1-453.578 c-4.603-4.199-10.607-6.518-16.834-6.518L625.292,2937.201l-209.426-2262.2c0-125.708,102.269-227.976,227.976-227.976 l3361.281,127.08c125.709,0,227.979,102.271,227.979,227.978l37.5,2074.994c0,125.707-102.269,227.975-227.977,227.975 l-178.739,12.5c-11.752,0-21.925,8.207-24.426,19.678l2.504,328.82c-17.296,79.307-76.068,143.891-153.396,168.592 C3665.965,3641.79,3642.623,3645.421,3619.237,3645.421z"/><path opacity=".095" fill="#070707" d="M3615.149,3626.268c-54.464,0-106.669-20.181-146.987-56.836l-491.038-449.051 c-4.604-4.199-10.606-6.518-16.835-6.518l-2334.7-176.959L425.39,675.001c0-120.458,97.995-218.453,218.452-218.453 l3361.281,127.081c120.461,0,218.455,97.997,218.455,218.453l37.5,2074.994c0,120.458-97.995,218.451-218.453,218.451 l-186.409,12.5c-11.747,0-21.925,8.211-24.426,19.678l-3.219,326.684c-16.573,75.994-72.889,137.879-146.987,161.548 C3659.924,3622.789,3637.557,3626.268,3615.149,3626.268z"/><path opacity=".143" fill="#0B0B0B" d="M3611.063,3607.114c-52.082,0-102.016-19.297-140.58-54.358l-484.977-444.522 c-4.604-4.198-10.606-6.518-16.834-6.518L625.887,2936.606L434.913,675.001c0-115.208,93.722-208.929,208.929-208.929 l3361.281,127.081c115.211,0,208.931,93.723,208.931,208.93l37.501,2074.994c0,115.209-93.721,208.928-208.93,208.928 l-194.078,12.5c-11.744,0-21.926,8.213-24.426,19.678l-8.941,324.546c-15.852,72.685-69.709,131.867-140.58,154.506 C3653.883,3603.788,3632.49,3607.114,3611.063,3607.114z"/><path opacity=".191" fill="#0E0E0E" d="M3606.975,3587.961c-49.7,0-97.361-18.413-134.172-51.882l-478.916-439.993 c-4.604-4.199-10.605-6.518-16.834-6.518l-2350.868-153.26L444.437,675.001c0-109.958,89.448-199.405,199.405-199.405 l3361.281,127.081c109.961,0,199.407,89.448,199.407,199.406l37.5,2074.994c0,109.96-89.446,199.404-199.405,199.404l-201.748,12.5 c-11.739,0-21.926,8.217-24.426,19.678l-14.664,322.408c-15.13,69.373-66.529,125.855-134.173,147.463 C3647.842,3584.787,3627.424,3587.961,3606.975,3587.961z"/><path opacity=".238" fill="#121212" d="M3602.887,3568.808c-47.317,0-92.707-17.53-127.765-49.404l-472.854-435.465 c-4.604-4.199-10.604-6.519-16.834-6.519L626.482,2936.012L453.961,675.001c0-104.708,85.173-189.881,189.881-189.881 l3361.282,127.081c104.71,0,189.882,85.174,189.882,189.882l37.5,2074.994c0,104.711-85.172,189.88-189.881,189.88l-209.418,12.5 c-11.735,0-21.926,8.221-24.426,19.678l-20.387,320.272c-14.407,66.063-63.35,119.844-127.765,140.42 C3641.8,3565.785,3622.357,3568.808,3602.887,3568.808z"/><path opacity=".286" fill="#161616" d="M3598.799,3549.654c-44.936,0-88.053-16.646-121.356-46.927l-466.792-430.937 c-4.605-4.199-10.604-6.519-16.834-6.519L626.78,2935.714L463.484,675.001c0-99.458,80.9-180.357,180.357-180.357l3361.281,127.081 c99.462,0,180.359,80.9,180.359,180.358l37.5,2074.994c0,99.462-80.897,180.356-180.357,180.356l-217.087,12.5 c-11.731,0-21.927,8.224-24.426,19.677l-26.11,318.137c-13.686,62.751-60.17,113.832-121.357,133.377 C3635.759,3546.785,3617.291,3549.654,3598.799,3549.654z"/><path opacity=".333" fill="#191919" d="M3594.712,3530.501c-42.554,0-83.398-15.763-114.95-44.449l-460.73-426.408 c-4.605-4.2-10.604-6.519-16.834-6.519l-2375.12-117.709L473.008,675.001c0-94.208,76.625-170.833,170.833-170.833 l3361.281,127.081c94.212,0,170.836,76.626,170.836,170.834l37.5,2074.994c0,94.213-76.624,170.832-170.834,170.832 l-224.757,12.501c-11.728,0-21.928,8.227-24.426,19.677l-31.832,315.999c-12.964,59.44-56.99,107.821-114.95,126.335 C3629.717,3527.783,3612.225,3530.501,3594.712,3530.501z"/><path opacity=".381" fill="#1D1D1D" d="M3590.624,3511.348c-40.172,0-78.744-14.88-108.542-41.972l-454.669-421.881 c-4.606-4.199-10.603-6.519-16.834-6.519L627.375,2935.119L482.532,675.001c0-88.958,72.352-161.31,161.31-161.31l3361.281,127.081 c88.963,0,161.313,72.352,161.313,161.31l37.498,2074.994c0,88.964-72.348,161.309-161.308,161.309l-232.427,12.5 c-11.724,0-21.929,8.23-24.426,19.678l-37.556,313.862c-12.241,56.129-53.811,101.809-108.542,119.291 C3623.676,3508.783,3607.158,3511.348,3590.624,3511.348z"/><path opacity=".429" fill="#212121" d="M3586.536,3492.194c-37.789,0-74.089-13.996-102.134-39.494l-448.607-417.353 c-4.607-4.199-10.603-6.519-16.834-6.519l-2391.288-94.008L492.056,675.001c0-83.708,68.078-151.786,151.786-151.786 l3361.281,127.081c83.713,0,151.788,68.078,151.788,151.787l37.5,2074.994c0,83.715-68.075,151.785-151.786,151.785l-240.096,12.5 c-11.719,0-21.929,8.234-24.426,19.678l-43.278,311.725c-11.519,52.818-50.631,95.798-102.135,112.249 C3617.635,3489.781,3602.092,3492.194,3586.536,3492.194z"/><path opacity=".476" fill="#242424" d="M3582.449,3473.041c-35.408,0-69.436-13.112-95.728-37.018L3044.176,3023.2 c-4.607-4.199-10.602-6.519-16.834-6.519l-2399.371-82.158L501.58,675.001c0-78.458,63.804-142.262,142.262-142.262 L4005.123,659.82c78.463,0,142.264,63.804,142.264,142.262l37.5,2074.994c0,78.466-63.801,142.262-142.262,142.262l-247.766,12.5 c-11.715,0-21.93,8.237-24.426,19.677l-49,309.589c-10.798,49.507-47.451,89.786-95.728,105.205 C3611.594,3470.78,3597.025,3473.041,3582.449,3473.041z"/><path opacity=".524" fill="#282828" d="M3578.361,3453.888c-33.025,0-64.781-12.229-89.319-34.54l-436.484-408.295 c-4.608-4.199-10.601-6.52-16.834-6.52l-2407.456-70.308L511.104,675.001c0-73.208,59.53-132.738,132.738-132.738l3361.281,127.081 c73.213,0,132.74,59.53,132.74,132.739l37.5,2074.994c0,73.217-59.526,132.737-132.738,132.737l-255.435,12.5 c-11.711,0-21.931,8.241-24.426,19.678l-54.724,307.452c-10.076,46.195-44.271,83.773-89.319,98.162 C3605.553,3451.779,3591.959,3453.888,3578.361,3453.888z"/><path opacity=".571" fill="#2B2B2B" d="M3574.273,3434.734c-30.644,0-60.127-11.346-82.912-32.063l-430.422-403.768 c-4.609-4.199-10.601-6.518-16.834-6.518l-2415.54-58.459L520.627,675.001c0-67.958,55.256-123.214,123.214-123.214 l3361.281,127.081c67.964,0,123.217,55.256,123.217,123.214l37.5,2074.994c0,67.968-55.253,123.213-123.215,123.213 l-263.104,12.501c-11.706,0-21.931,8.244-24.426,19.677l-60.446,305.315c-9.354,42.885-41.092,77.763-82.912,91.12 C3599.511,3432.778,3586.893,3434.734,3574.273,3434.734z"/><path opacity=".619" fill="#2F2F2F" d="M3570.186,3415.581c-28.261,0-55.473-10.462-76.504-29.585l-424.36-399.239 c-4.61-4.198-10.601-6.519-16.834-6.519l-2423.624-46.607l-98.712-2258.63c0-62.708,50.982-113.69,113.69-113.69l3361.281,127.081 c62.714,0,113.693,50.982,113.693,113.691l37.498,2074.994c0,62.719-50.977,113.689-113.688,113.689l-270.774,12.5 c-11.703,0-21.932,8.248-24.426,19.678l-66.17,303.178c-8.631,39.574-37.912,71.752-76.504,84.078 C3593.47,3413.777,3581.826,3415.581,3570.186,3415.581z"/><path opacity=".667" fill="#333" d="M3566.099,3396.428c-25.88,0-50.818-9.579-70.097-27.107l-418.299-394.711 c-4.611-4.199-10.6-6.52-16.834-6.52l-2431.708-34.757L539.675,675.001c0-57.458,46.708-104.167,104.167-104.167l3361.281,127.081 c57.465,0,104.169,46.708,104.169,104.167l37.5,2074.994c0,57.47-46.704,104.166-104.167,104.166l-278.443,12.5 c-11.699,0-21.932,8.251-24.426,19.678l-71.892,301.041c-7.909,36.263-34.732,65.739-70.097,77.034 C3587.429,3394.776,3576.759,3396.428,3566.099,3396.428z"/><path opacity=".714" fill="#363636" d="M3562.012,3377.274c-23.498,0-46.164-8.695-63.69-24.63l-412.237-390.183 c-4.611-4.199-10.599-6.519-16.834-6.519l-2439.792-22.908l-80.26-2258.034c0-52.208,42.435-94.643,94.643-94.643l3361.281,127.082 c52.215,0,94.645,42.434,94.645,94.643l37.501,2074.994c0,52.221-42.431,94.643-94.644,94.643l-286.113,12.5 c-11.694,0-21.932,8.255-24.426,19.677l-77.614,298.905c-7.188,32.952-31.552,59.728-63.688,69.991 C3581.388,3375.775,3571.693,3377.274,3562.012,3377.274z"/><path opacity=".762" fill="#3A3A3A" d="M3557.924,3358.121c-21.116,0-41.51-7.813-57.282-22.152l-406.176-385.654 c-4.612-4.199-10.599-6.52-16.834-6.52l-2447.876-11.058L558.723,675.001c0-46.958,38.161-85.119,85.119-85.119l3361.282,127.082 c46.965,0,85.12,38.16,85.12,85.119l37.5,2074.994c0,46.972-38.156,85.119-85.119,85.119l-293.783,12.499 c-11.689,0-21.933,8.259-24.425,19.678l-83.337,296.768c-6.467,29.642-28.373,53.716-57.283,62.949 C3575.346,3356.773,3566.627,3358.121,3557.924,3358.121z"/><path opacity=".809" fill="#3E3E3E" d="M3553.836,3338.968c-18.733,0-36.855-6.929-50.874-19.675l-400.114-381.127 c-4.613-4.199-10.598-6.52-16.834-6.52l-2455.96,0.793L568.247,675.001c0-41.708,33.887-75.595,75.595-75.595l3361.282,127.082 c41.715,0,75.597,33.885,75.597,75.595l37.5,2074.993c0,41.724-33.882,75.596-75.596,75.596l-301.452,12.5 c-11.687,0-21.933,8.261-24.426,19.678l-89.06,294.631c-5.744,26.33-25.193,47.704-50.875,55.905 C3569.305,3337.773,3561.56,3338.968,3553.836,3338.968z"/><path opacity=".857" fill="#414141" d="M3549.748,3319.814c-16.352,0-32.201-6.045-44.467-17.197l-394.052-376.599 c-4.614-4.199-10.598-6.519-16.835-6.519l-2464.043,12.643L577.771,675.001c0-36.458,29.612-66.071,66.071-66.071l3361.281,127.082 c36.467,0,66.074,29.611,66.074,66.071l37.5,2074.994c0,36.474-29.608,66.07-66.072,66.07l-309.121,12.5 c-11.683,0-21.935,8.266-24.426,19.678l-94.783,292.494c-5.021,23.02-22.014,41.693-44.467,48.863 C3563.264,3318.771,3556.493,3319.814,3549.748,3319.814z"/><path opacity=".905" fill="#454545" d="M3545.66,3300.661c-13.969,0-27.547-5.161-38.059-14.72l-387.99-372.07 c-4.614-4.199-10.598-6.52-16.834-6.52l-2472.128,24.493L587.294,675.001c0-31.209,25.339-56.548,56.548-56.548l3361.281,127.082 c31.217,0,56.55,25.337,56.55,56.547l37.501,2074.994c0,31.225-25.334,56.547-56.549,56.547l-316.791,12.5 c-11.678,0-21.935,8.269-24.426,19.678l-100.506,290.357c-4.299,19.708-18.834,35.682-38.059,41.82 C3557.223,3299.771,3551.428,3300.661,3545.66,3300.661z"/><path opacity=".952" fill="#484848" d="M3541.573,3281.508c-11.588,0-22.894-4.277-31.651-12.243l-381.93-367.541 c-4.614-4.2-10.596-6.52-16.834-6.52l-2480.212,36.343L596.818,675.001c0-25.959,21.065-47.023,47.024-47.023l3361.281,127.082 c25.967,0,47.026,21.063,47.026,47.023l37.499,2074.994c0,25.976-21.059,47.023-47.023,47.023l-324.461,12.5 c-11.674,0-21.936,8.271-24.426,19.678l-106.229,288.221c-3.576,16.396-15.653,29.669-31.65,34.777 C3551.181,3280.77,3546.36,3281.508,3541.573,3281.508z"/><path fill="#4C4C4C" d="M3537.485,3262.354c-9.205,0-18.238-3.395-25.244-9.766l-375.867-363.013 c-4.615-4.199-10.596-6.52-16.834-6.52L631.244,2931.25L606.342,675.001c0-20.709,16.791-37.5,37.5-37.5l3361.281,127.082 c20.717,0,37.502,16.789,37.502,37.5l37.5,2074.994c0,20.727-16.785,37.5-37.5,37.5l-332.131,12.5 c-11.67,0-21.936,8.275-24.426,19.677l-111.95,286.084c-2.855,13.086-12.475,23.658-25.244,27.734 C3545.14,3261.769,3541.294,3262.354,3537.485,3262.354z"/></g><linearGradient id="SVGID_1_" gradientUnits="userSpaceOnUse" x1="1489.978" y1="3436.899" x2="3510.01" y2="-61.898"><stop offset="0" stop-color="#0064BF"/><stop offset="1" stop-color="#00D2FF"/></linearGradient><polygon fill="url(#SVGID_1_)" points="4374.996,437.501 4374.996,2937.5 4092.867,2937.5 3965.621,3520.494 3325.241,2937.5 624.994,2937.5 624.994,437.501"/><g><path fill="#FFF" d="M1525.093,2064.141c-16.113,36.484-38.555,64.082-67.344,82.793 c-28.789,18.691-63.926,28.066-105.41,28.066c-81.504,0-139.082-32.441-172.754-97.363s-50.508-179.863-50.508-344.863 c0-170.82,16.348-288.574,49.043-353.262c32.695-64.668,89.297-97.012,169.805-97.012c40,0,73.672,7.832,100.996,23.477 s49.043,39.355,65.156,71.133V1025h197.5v1127.5h-186.484V2064.141z M1327.827,1716.348c0,130.879,6.348,213.164,19.063,246.855 c12.695,33.711,36.406,50.547,71.133,50.547c39.102,0,65.878-15,80.293-45.039c14.414-30.039,21.641-91.699,21.641-184.98 c0-149.922-7.227-243.438-21.641-280.547c-14.415-37.109-41.191-55.684-80.293-55.684c-34.219,0-57.813,15.996-70.762,47.988 C1334.292,1527.48,1327.827,1601.094,1327.827,1716.348z"/><path fill="#FFF" d="M1856.587,1729.122c0-170.84,21.992-287.989,65.976-351.446c43.985-63.438,121.465-95.176,232.403-95.176 c111.426,0,189.141,31.738,233.125,95.176c43.984,63.457,65.996,180.605,65.996,351.446c0,170.839-22.012,287.871-65.996,351.074 S2266.392,2175,2154.966,2175c-110.938,0-188.418-31.602-232.403-94.805C1878.579,2016.992,1856.587,1899.961,1856.587,1729.122z M2057.837,1720.215V1740c0,131.406,6.563,211.758,19.707,241.055c13.145,29.297,38.477,43.945,75.977,43.945 c38.945,0,65.234-13.789,78.867-41.387s20.449-99.277,20.449-215.039v-34.434v-48.359c0-110.859-6.953-180.586-20.82-209.16 s-39.551-42.871-77.051-42.871c-37.012,0-62.461,13.066-76.328,39.199c-13.867,26.133-20.801,89.023-20.801,188.653V1720.215z"/><path fill="#FFF" d="M2599.877,2152.5V1305h191.856v85.801c20.527-35.605,45.703-62.559,75.527-80.859 c29.824-18.281,63.809-27.441,101.953-27.441c61.602,0,108.77,17.578,141.523,52.734s49.141,85.703,49.141,151.602V2152.5h-188.75 v-568.281c0-49.785-6.387-84.805-19.121-105.078c-12.754-20.254-34.083-30.391-63.965-30.391 c-32.851,0-56.368,12.461-70.585,37.363c-14.221,24.902-21.329,67.129-21.329,126.68V2152.5H2599.877z"/><path fill="#FFF" d="M3700.024,1861.25h185.019c0,3.906,0.235,9.532,0.723,16.855c0.489,7.344,0.743,12.715,0.743,16.133 c0,96.758-23.105,167.754-69.298,212.949c-46.19,45.215-119.374,67.813-219.569,67.813c-52.793,0-97.031-6.602-132.715-19.766 c-35.683-13.164-65-33.672-87.968-61.504c-27.385-32.695-46.681-73.945-57.932-123.73 c-11.248-49.785-16.854-139.355-16.854-268.711c0-102.969,4.884-176.68,14.668-221.094c9.766-44.414,26.387-80.781,49.844-109.101 c24.434-29.278,56.328-51.368,95.684-66.25c39.337-14.883,86.152-22.344,140.411-22.344c52.304,0,97.382,7.93,135.272,23.789 c37.871,15.859,69.276,39.902,94.219,72.109c21.015,28.301,36.036,63.809,45.078,106.504s13.574,111.621,13.574,206.777v64.57 h-386.25c-0.977,6.348-1.602,13.047-1.836,20.117c-0.233,7.07-0.352,18.398-0.352,33.984c0,80.43,7.46,136.738,22.402,168.906 c14.922,32.169,40.254,48.242,75.996,48.242c34.766,0,59.981-13.047,75.645-39.18 C3692.192,1962.207,3700.024,1919.844,3700.024,1861.25z M3502.485,1621.25h190.938v-35.84c0-58.047-7.11-98.027-21.31-119.98 c-14.198-21.954-39.159-32.93-74.883-32.93c-34.766,0-59.491,11.348-74.179,34.023c-14.688,22.695-22.031,62.324-22.031,118.887 C3501.996,1601.504,3502.485,1613.457,3502.485,1621.25z"/></g><linearGradient id="SVGID_2_" gradientUnits="userSpaceOnUse" x1="2938.098" y1="52.485" x2="2061.895" y2="3322.517"><stop offset="0" stop-color="#B3B3B3"/><stop offset=".01" stop-color="#B6B6B6"/><stop offset=".166" stop-color="#EBEBEB"/><stop offset=".242" stop-color="#FFFFFF"/><stop offset=".5" stop-color="#FFFFFF"/><stop offset=".562" stop-color="#F6F6F6"/><stop offset=".663" stop-color="#DEDEDE"/><stop offset=".79" stop-color="#B6B6B6"/><stop offset=".937" stop-color="#7F7F7F"/><stop offset="1" stop-color="#666666"/></linearGradient><polygon opacity=".4" fill="url(#SVGID_2_)" points="4374.996,437.501 4374.996,2937.5 4092.867,2937.5 3965.621,3520.508 3325.253,2937.5 624.994,2937.5 624.994,437.501"/></svg>