<?xml version="1.0" encoding="utf-8"?>
<!-- Generator: Adobe Illustrator 24.2.1, SVG Export Plug-In . SVG Version: 6.00 Build 0)  -->
<svg version="1.1" id="Layer_1" xmlns="http://www.w3.org/2000/svg" xmlns:xlink="http://www.w3.org/1999/xlink" x="0px" y="0px"
	 viewBox="0 0 511.1 148.1" style="enable-background:new 0 0 511.1 148.1;" xml:space="preserve">
<style type="text/css">
	.st0{fill:#0A2540;}
	.st1{fill:#4BA9DF;}
</style>
<g>
	<g>
		<path class="st0" d="M147.9,93.3v-25h-10.3V57.2h10.3V44.3l13.2-3v15.9h14.3v11.1h-14.3v22.3c0,2.4,0.5,4.1,1.5,5
			c1,1,2.8,1.4,5.4,1.4c1.2,0,2.4-0.1,3.5-0.2c1.1-0.2,2.3-0.5,3.6-0.9v10.8c-1.4,0.5-3.1,0.8-5.1,1.1c-2,0.3-3.7,0.4-5.1,0.4
			c-5.6,0-9.8-1.3-12.7-3.8C149.3,101.9,147.9,98.2,147.9,93.3z"/>
		<path class="st0" d="M182,107.5V57.2h13.2v5.5c1.6-2.2,3.6-3.8,5.8-5c2.3-1.1,4.8-1.7,7.6-1.7c1.3,0.1,2.4,0.2,3.2,0.3
			c0.9,0.2,1.6,0.4,2.3,0.8v11.6c-1-0.5-2-0.8-3.2-1s-2.4-0.3-3.6-0.3c-2.6,0-4.9,0.6-7.1,1.9c-2.2,1.3-3.9,3.2-5.1,5.6v32.6
			C195.1,107.5,182,107.5,182,107.5z"/>
		<path class="st0" d="M227.9,51.2c-2.1,0-3.8-0.7-5.3-2.2s-2.2-3.3-2.2-5.3c0-2.1,0.7-3.8,2.2-5.3s3.3-2.2,5.3-2.2
			c2.1,0,3.8,0.7,5.3,2.2s2.2,3.3,2.2,5.3c0,2.1-0.7,3.8-2.2,5.3C231.8,50.4,230,51.2,227.9,51.2z M234.6,57.2v50.4h-13.2V57.2
			H234.6z"/>
		<path class="st0" d="M257.8,57.2v29.3c0,3.2,0.9,5.8,2.9,7.7c1.9,1.9,4.4,2.9,7.6,2.9c2.3,0,4.3-0.4,6-1.3
			c1.8-0.9,3.2-2.1,4.4-3.7V57.2h13.2v50.4h-13.2v-4.1c-1.9,1.6-4.1,2.9-6.5,3.7c-2.4,0.9-5,1.3-7.7,1.3c-5.8,0-10.6-1.9-14.3-5.7
			c-3.7-3.8-5.6-8.6-5.6-14.4V57.2H257.8z"/>
		<path class="st0" d="M302.3,107.5V57.2h13.2V61c1.8-1.5,3.8-2.7,6-3.5s4.6-1.2,7.2-1.2c3.2,0,6.1,0.7,8.7,2s4.8,3.2,6.4,5.6
			c2-2.4,4.4-4.3,7.2-5.6c2.8-1.3,6-1.9,9.4-1.9c5.6,0,10.2,1.9,13.8,5.6c3.6,3.7,5.4,8.5,5.4,14.4v31.3h-13.2V78.2
			c0-3.2-0.9-5.7-2.6-7.6s-4-2.9-6.9-2.9c-2,0-3.8,0.4-5.5,1.3c-1.6,0.9-3,2.1-4.2,3.7c0.1,0.6,0.1,1.2,0.2,1.7
			c0.1,0.6,0.1,1.2,0.1,1.8v31.3h-13.2V78.2c0-3.2-0.9-5.7-2.6-7.6s-4-2.9-6.9-2.9c-2,0-3.8,0.4-5.3,1.2c-1.5,0.8-2.9,1.9-4.1,3.4
			v35.4h-13.1V107.5z"/>
		<path class="st0" d="M389.8,127.7V57.2h13v4.2c2-1.6,4.2-2.8,6.7-3.6c2.4-0.8,5-1.2,7.6-1.2c3.5,0,6.9,0.7,10,2
			c3.1,1.4,5.8,3.2,8.2,5.5c2.3,2.3,4.1,5.1,5.5,8.2c1.3,3.2,2,6.5,2,10.1s-0.7,7-2,10.1c-1.4,3.2-3.2,5.9-5.5,8.2
			c-2.3,2.3-5.1,4.1-8.3,5.5s-6.6,2-10.2,2c-2.4,0-4.8-0.3-7.2-1c-2.4-0.7-4.5-1.7-6.5-2.9v23.5L389.8,127.7L389.8,127.7z M415,67.8
			c-2.4,0-4.6,0.4-6.7,1.2c-2.1,0.8-3.8,2-5.3,3.5v19.8c1.4,1.4,3.2,2.5,5.3,3.4c2.1,0.8,4.3,1.3,6.7,1.3c4.1,0,7.6-1.4,10.4-4.2
			c2.8-2.8,4.3-6.3,4.3-10.4s-1.4-7.6-4.3-10.4C422.6,69.2,419.1,67.8,415,67.8z"/>
		<path class="st0" d="M450.9,107.5V39.9l13.2-2.9v24.2c1.9-1.6,4.1-2.8,6.4-3.7c2.4-0.8,4.9-1.3,7.7-1.3c5.8,0,10.6,1.9,14.3,5.6
			c3.7,3.7,5.6,8.5,5.6,14.4v31.3h-13.2V78.2c0-3.2-1-5.7-2.9-7.6s-4.4-2.9-7.6-2.9c-2.2,0-4.2,0.4-5.9,1.3
			c-1.8,0.9-3.2,2.1-4.4,3.7v34.9L450.9,107.5L450.9,107.5z"/>
	</g>
</g>
<g>
	<polygon class="st1" points="110.6,124.3 110.6,70.9 65,124.3 	"/>
	<polygon class="st1" points="92.9,30.4 16.6,30.4 16.6,119.8 	"/>
</g>
</svg>