<svg width="313" height="74" viewBox="0 0 313 74" fill="none" xmlns="http://www.w3.org/2000/svg">
<g clip-path="url(#clip0_1709_5629)">
<path d="M31.3502 32.6206C28.5942 29.6492 24.7415 28.1475 19.8444 28.1475C8.53209 28.1455 0 37.9601 0 50.9753C0 57.3583 2.04835 63.2225 5.76803 67.4865C9.43329 71.6882 14.3626 74.0002 19.6488 74.0002C24.4431 74.0002 28.5337 72.3537 31.3542 69.3823L31.2393 73.1176H46.7713V29.028H31.2373L31.3502 32.6185V32.6206ZM31.4712 50.9753C31.4712 56.7853 28.6325 60.1165 23.681 60.1165C18.7295 60.1165 16.0864 56.7853 16.0864 50.9753C16.0864 45.1653 18.8545 42.1276 23.681 42.1276C28.5075 42.1276 31.4712 45.3523 31.4712 50.9753Z" fill="white"/>
<path d="M79.4439 28.1455C74.8049 28.1455 71.1134 29.8805 68.424 33.3122L68.5349 29.0281H52.9102V73.1177H68.5046V53.428C68.5046 46.9365 69.8574 42.9137 76.5911 42.9137C78.0891 42.9137 79.4721 43.2615 81.212 44.0778L82.3753 44.6226L87.3571 30.4132L86.476 29.9488C85.0103 29.1748 82.6878 28.1475 79.4419 28.1475L79.4439 28.1455Z" fill="white"/>
<path d="M134.306 29.0278H116.48L104.843 42.622C105.006 40.7805 105.093 38.9471 105.093 37.2443V0H89.4983V73.1174H105.093V60.3596L107.31 58.0255L117.276 73.1174H135.499L118.371 47.3424L134.308 29.0299L134.306 29.0278Z" fill="white"/>
<path d="M200.692 29.0278H182.865L171.228 42.622C171.392 40.7805 171.478 38.9471 171.478 37.2443V0H155.884V73.1174H171.478V60.3596L173.696 58.0255L183.66 73.1174H201.883L184.754 47.3424L200.692 29.0299V29.0278Z" fill="white"/>
<path d="M220.324 5.49219H204.73V49.5818H220.324V5.49219Z" fill="white"/>
<path d="M212.478 73.1174C217.871 73.1174 222.094 68.9921 222.094 63.7249C222.094 58.4577 217.871 54.2339 212.478 54.2339C207.085 54.2339 202.96 58.4034 202.96 63.7249C202.96 69.0464 207.141 73.1174 212.478 73.1174Z" fill="white"/>
<path d="M255.705 32.7189C252.721 29.6129 248.858 28.1453 243.783 28.1453C238.435 28.1453 233.445 30.419 229.729 34.5483C225.931 38.7701 223.84 44.6043 223.84 50.9751C223.84 57.346 225.953 63.2244 229.792 67.4984C233.556 71.6921 238.596 74 243.981 74C248.983 74 253.003 72.5143 255.816 69.6616L255.648 73.1174H271.301V0H255.707V32.7189H255.705ZM256.098 50.9751C256.098 56.6987 253.001 60.1163 247.816 60.1163C242.63 60.1163 239.828 56.7851 239.828 50.9751C239.828 45.1651 242.814 42.1275 247.816 42.1275C252.818 42.1275 256.098 45.517 256.098 50.9751Z" fill="white"/>
<path d="M307.936 48.6754C304.871 46.4057 300.986 45.3483 298.327 44.7492C297.712 44.6125 297.131 44.4858 296.585 44.3672C292.029 43.3761 290.871 43.0102 290.871 41.9547C290.871 41.6351 290.871 40.658 294.236 40.658C296.7 40.658 299.436 41.7276 301.551 43.5208L302.393 44.2345L310.984 35.0732L310.214 34.2831C306.244 30.2121 300.835 28.1475 294.14 28.1475C283.253 28.1475 276.753 33.5292 276.753 42.5418C276.753 50.0204 280.995 54.7488 289.716 56.9964C291.198 57.3824 292.466 57.6799 293.585 57.9433C297.4 58.8379 298.291 59.1274 298.291 59.8994C298.291 60.3859 298.291 61.2946 293.744 61.2946C290.279 61.2946 286.863 59.8431 284.124 57.2055L283.353 56.4636L273.936 64.7846L274.662 65.647C279.404 71.2701 285.934 74.0022 294.629 74.0022C303.325 74.0022 313 71.3867 313 58.9203C313 54.6141 311.296 51.1663 307.936 48.6754Z" fill="white"/>
</g>
<defs>
<clipPath id="clip0_1709_5629">
<rect width="313" height="74" fill="white"/>
</clipPath>
</defs>
</svg>
