<svg width="366" height="286" viewBox="0 0 366 286" fill="none" xmlns="http://www.w3.org/2000/svg">
<g clip-path="url(#clip0_1466_4304)">
<path d="M285.413 231.566L366.003 207.094L356.563 175.961L275.972 200.432L285.413 231.566Z" fill="#0D9DDB"/>
<path d="M108.914 55.5916L189.504 31.1196L180.064 -0.013582L99.4734 24.4584L108.914 55.5916Z" fill="#73C92D"/>
<path d="M159.498 167.461L237.317 135.236L224.886 105.174L147.067 137.399L159.498 167.461Z" fill="#73C92D"/>
<path d="M60.5673 215.134L144.737 212.267L143.631 179.75L59.4611 182.618L60.5673 215.134Z" fill="#AD2AF0"/>
<path d="M211.7 99.2802L212.823 66.7646L128.655 63.8527L127.531 96.3683L211.7 99.2802Z" fill="#DC413A"/>
<path d="M306.133 47.4138L311.471 15.3203L228.395 1.48279L223.057 33.5763L306.133 47.4138Z" fill="#0D9DDB"/>
<path d="M88.2472 285.978L167.576 257.679L156.659 227.033L77.3304 255.332L88.2472 285.978Z" fill="#0D9DDB"/>
<path d="M201.068 280.902L264.212 225.134L242.699 200.74L179.555 256.508L201.068 280.902Z" fill="#73C92D"/>
<path d="M284.158 133.987L347.303 78.2188L325.79 53.8252L262.645 109.593L284.158 133.987Z" fill="#DC413A"/>
<path d="M36.1637 126.541L109.377 84.8867L93.3082 56.6033L20.095 98.2579L36.1637 126.541Z" fill="#AD2AF0"/>
<path d="M218.188 186.499L302.157 180.018L299.657 147.579L215.688 154.06L218.188 186.499Z" fill="#DC413A"/>
<path d="M9.76701 184.536L90.0967 159.221L80.3311 128.188L0.0013862 153.503L9.76701 184.536Z" fill="#DC413A"/>
<path d="M268.094 246.733C257.134 246.733 248.552 255.168 248.552 265.936C248.552 276.704 257.137 285.312 268.094 285.312C279.052 285.312 287.46 276.798 287.46 265.933C287.46 255.068 278.952 246.73 268.094 246.73L268.094 246.733Z" fill="#DC413A"/>
<path d="M202.711 197.484C202.711 186.716 194.203 178.281 183.345 178.281C172.488 178.281 163.803 186.716 163.803 197.484C163.803 208.252 172.388 216.863 183.345 216.863C194.303 216.863 202.711 208.349 202.711 197.484Z" fill="#0D9DDB"/>
<path d="M42.2077 226.7C31.247 226.7 22.6653 235.134 22.6653 245.902C22.6653 256.671 31.2504 265.282 42.2077 265.282C53.1651 265.282 61.5732 256.767 61.5732 245.902C61.5732 235.037 53.065 226.7 42.2077 226.7Z" fill="#DC413A"/>
<path d="M134.311 128.367C134.311 117.599 125.802 109.165 114.945 109.165C104.088 109.165 95.4026 117.599 95.4026 128.367C95.4026 139.135 103.988 147.747 114.945 147.747C125.902 147.747 134.311 139.232 134.311 128.367Z" fill="#73C92D"/>
<path d="M270.109 76.6128C270.109 65.8446 261.601 57.4103 250.744 57.4103C239.887 57.4103 231.201 65.8446 231.201 76.6128C231.201 87.381 239.786 95.9922 250.744 95.9922C261.701 95.9922 270.109 87.4778 270.109 76.6128Z" fill="#AD2AF0"/>
<path d="M24.8581 72.2856C35.7187 72.2856 44.2236 63.7713 44.2236 52.9062C44.2236 42.0412 35.7154 33.7038 24.8581 33.7038C14.0009 33.7038 5.31572 42.138 5.31572 52.9062C5.31572 63.6744 13.9008 72.2856 24.8581 72.2856Z" fill="#0D9DDB"/>
<path d="M315.95 145.396C315.95 156.264 324.536 164.775 335.493 164.775C346.45 164.775 354.858 156.261 354.858 145.396C354.858 134.531 346.35 126.194 335.493 126.194C324.636 126.194 315.95 134.628 315.95 145.396Z" fill="#73C92D"/>
</g>
<defs>
<clipPath id="clip0_1466_4304">
<rect width="366" height="286" fill="white" transform="translate(366 286) rotate(-180)"/>
</clipPath>
</defs>
</svg>
