<svg width="76" height="517" viewBox="0 0 76 517" fill="none" xmlns="http://www.w3.org/2000/svg">
<path opacity="0.25" d="M75.3584 516.325L43.643 516.325C28.4328 495.763 21.6019 471.753 24.4589 448.342C28.1382 418.068 47.2811 389.683 50.1519 359.362C53.1391 327.591 38.5866 295.88 25.9937 265.477C13.661 235.672 8.94725 205.971 17.032 175.378C21.1428 159.824 29.2549 145.324 37.1341 130.436C58.2297 90.5761 85.1491 37.4332 39.4088 -0.000360348L75.3584 -0.000361919L75.3584 516.325Z" fill="#959050"/>
<path opacity="0.5" d="M75.3584 516.325L64.5263 516.325C50.0628 510.732 36.401 504.432 25.9937 495.806C-0.877726 473.552 -0.692736 445.33 12.6128 419.695C19.567 406.292 30.4745 393.84 39.8816 381.112C52.8993 363.506 71.3983 344.656 73.9127 324.82C75.8654 309.218 67.4587 294.314 52.2895 282.395C34.8937 268.726 9.81054 255.581 2.27394 237.806C-5.11878 220.406 6.85756 202.804 18.9093 186.548C30.961 170.292 45.6299 154.209 48.4048 136.241C52.4129 110.541 32.7286 87.4996 21.7937 63.5679C15.8604 50.5737 17.5664 38.1819 26.9323 26.0956C34.3935 16.4446 45.3833 5.44257 60.6689 -0.000361277L75.3584 -0.000361919L75.3584 516.325Z" fill="#959050"/>
<path d="M75.9814 516.325L72.1241 516.325C35.5579 451.815 27.1169 381.181 46.8148 311.589C52.0493 293.088 60.5999 275.347 64.9437 256.682C70.8565 231.296 56.5576 208.285 40.6896 185.447C23.0745 160.091 10.7282 135.105 14.3183 107.051C19.1144 69.8198 45.6363 32.8465 72.4255 -0.000361764L75.9814 -0.000361919L75.9814 516.325Z" fill="#959050"/>
</svg>
