<svg width="3842" height="48" viewBox="0 0 3842 48" fill="none" xmlns="http://www.w3.org/2000/svg">
<path d="M0 48L0 45.0274C240.013 16.848 502.806 10.343 761.724 25.523C830.56 29.5569 896.563 36.1464 966.007 39.4939C1060.46 44.0506 1146.07 33.0312 1231.04 20.8027C1325.38 7.22778 1418.34 -2.28679 1522.71 0.479935C1662.18 -1.23132 1773 42 1921 42V48L0 48Z" fill="#1864EA"/>
<path d="M1921 48V42C2000 42 2423.81 10.343 2682.72 25.523C2751.56 29.5569 2817.56 36.1464 2887.01 39.4939C2981.46 44.0506 3067.07 33.0312 3152.04 20.8027C3246.38 7.22778 3339.34 -2.28679 3443.71 0.479935C3582.23 4.17594 3719.79 24.6148 3842 45.2597V48L1921 48Z" fill="#1864EA"/>
</svg>
