<svg id="Layer_1" data-name="Layer 1" xmlns="http://www.w3.org/2000/svg" viewBox="0 0 242.19 60.89"><defs><style>.cls-1{fill:#fff;}</style></defs><title>logo</title><path class="cls-1" d="M60.64,28.57v-.08h0A30.4,30.4,0,0,0,43.25,3h0c-.43-.21-.86-.4-1.31-.58-.66-.28-1.33-.53-2-.77l-.19-.07h-.07A30,30,0,0,0,5.23,13.27a29.72,29.72,0,0,0-3.7,7.62c0,.06-.05.11-.07.16a.13.13,0,0,1,0,.06c-.23.74-.43,1.49-.61,2.26a30.23,30.23,0,0,0,28,37.35l0,0,31.85,0ZM19.35,21.4V49.17a21.78,21.78,0,1,1,25.47-2.56l0-25.21h-8l.48,21-10.92-21ZM27.3,39l7.55,12.71a21.46,21.46,0,0,1-7.51.27Z"/><path class="cls-1" d="M82.11,43.92l-8.54-13.4v13.4H67V17.26h5.73l8.54,13.41V17.26h6.55V43.92Z"/><path class="cls-1" d="M97.06,35.83A3.23,3.23,0,0,0,100.62,39a5,5,0,0,0,4.15-1.69L108.44,41a9.79,9.79,0,0,1-7.82,3.19c-4.46,0-9.59-1.61-9.59-10.3,0-6.59,3.74-10.3,9-10.3,5.84,0,9.07,4.27,9.07,9.55v2.73Zm5.65-5.65a3,3,0,0,0-5.32,0,3.5,3.5,0,0,0-.33,1.57h6A3.51,3.51,0,0,0,102.71,30.18Z"/><path class="cls-1" d="M132.37,43.92h-4.9l-3.64-11-3.63,11h-4.9l-6.07-20.15h6.48l2.51,10.45,3.48-10.45H126l3.48,10.45L132,23.77h6.48Z"/><path class="cls-1" d="M150.76,34.41h-4v9.51H140.2V17.26h10.56c5.92,0,9.1,4.19,9.1,8.57S156.68,34.41,150.76,34.41Zm-.3-11.27h-3.71v5.39h3.71a2.7,2.7,0,1,0,0-5.39Z"/><path class="cls-1" d="M176.45,41.56a9.39,9.39,0,0,1-12.95,0c-1.69-1.83-2.21-3.74-2.21-7.71s.52-5.88,2.21-7.72a9.42,9.42,0,0,1,12.95,0c1.69,1.84,2.21,3.79,2.21,7.72S178.14,39.73,176.45,41.56Zm-4.83-11.91a2.7,2.7,0,0,0-3.29,0c-.79.79-.9,2.21-.9,4.2s.11,3.41.9,4.19a2.66,2.66,0,0,0,3.29,0c.79-.78.9-2.21.9-4.19S172.41,30.44,171.62,29.65Z"/><path class="cls-1" d="M181.66,43.92V24.56h6.14V43.92Z"/><path class="cls-1" d="M202.59,43.92V31.86a2.49,2.49,0,1,0-4.94,0V43.92h-6.14V23.77h6v1.65a6.86,6.86,0,0,1,4.68-1.87,6.22,6.22,0,0,1,4.53,1.72,7.39,7.39,0,0,1,2,5.77V43.92Z"/><path class="cls-1" d="M219,43.92c-4.46,0-6.25-3.18-6.25-6V29.28h-1.84V24.56h1.84V18.79h6.14v5.77H222v4.72h-3.18v8.24a1.11,1.11,0,0,0,1.23,1.24H222v5.16Z"/><path class="cls-1" d="M230.05,35.83A3.23,3.23,0,0,0,233.61,39a5,5,0,0,0,4.15-1.69L241.43,41a9.79,9.79,0,0,1-7.82,3.19c-4.46,0-9.59-1.61-9.59-10.3,0-6.59,3.74-10.3,9-10.3,5.84,0,9.06,4.27,9.06,9.55v2.73Zm5.65-5.65a3,3,0,0,0-5.32,0,3.5,3.5,0,0,0-.33,1.57h6A3.51,3.51,0,0,0,235.7,30.18Z"/><path class="cls-1" d="M71.33,60.89a5,5,0,0,1-3.71-1.5c-1.41-1.41-1.35-3.28-1.35-5.28s-.06-3.89,1.35-5.29a5,5,0,0,1,3.71-1.5A4.74,4.74,0,0,1,75,48.8L72.85,51a1.87,1.87,0,0,0-1.52-.73,1.53,1.53,0,0,0-1.27.56c-.3.39-.51.86-.51,3.3s.21,2.9.51,3.29a1.54,1.54,0,0,0,1.27.57,1.9,1.9,0,0,0,1.52-.73L75,59.41A4.74,4.74,0,0,1,71.33,60.89Z"/><path class="cls-1" d="M84.44,59.39a5.39,5.39,0,0,1-7.46,0c-1.4-1.41-1.35-3.28-1.35-5.28s0-3.89,1.35-5.29a5.39,5.39,0,0,1,7.46,0c1.41,1.4,1.35,3.28,1.35,5.29S85.85,58,84.44,59.39ZM82,50.83a1.77,1.77,0,0,0-2.62,0c-.3.39-.49.84-.49,3.28s.19,2.86.49,3.25a1.71,1.71,0,0,0,2.62,0c.3-.39.49-.82.49-3.25S82.32,51.22,82,50.83Z"/><path class="cls-1" d="M97.08,60.78V54.39l-1.89,3.29h-2.1L91.2,54.39v6.39H87.92V47.44h3.22l3,5.88,3-5.88h3.22V60.78Z"/><path class="cls-1" d="M112.08,60.78V54.39l-1.89,3.29h-2.1l-1.89-3.29v6.39h-3.28V47.44h3.22l3,5.88,3-5.88h3.22V60.78Z"/><path class="cls-1" d="M122.73,60.89a4.76,4.76,0,0,1-5-4.8V47.44H121V56A1.72,1.72,0,0,0,122.73,58a1.74,1.74,0,0,0,1.8-1.95V47.44h3.28v8.65A4.79,4.79,0,0,1,122.73,60.89Z"/><path class="cls-1" d="M137.7,60.78l-4.27-6.71v6.71h-3.29V47.44H133l4.27,6.7v-6.7h3.28V60.78Z"/><path class="cls-1" d="M143.12,60.78V47.44h3.28V60.78Z"/><path class="cls-1" d="M154.74,50.36V60.78h-3.28V50.36h-3.28V47.44H158v2.92Z"/><path class="cls-1" d="M165.75,55.34v5.44h-3.28V55.34l-4-7.9H162l2.1,4.79,2.08-4.79h3.58Z"/><path class="cls-1" d="M179.64,60.89a5,5,0,0,1-3.71-1.5c-1.4-1.41-1.35-3.28-1.35-5.28s-.05-3.89,1.35-5.29a5,5,0,0,1,3.71-1.5,4.74,4.74,0,0,1,3.69,1.48L181.16,51a1.87,1.87,0,0,0-1.52-.73,1.53,1.53,0,0,0-1.27.56c-.3.39-.51.86-.51,3.3s.21,2.9.51,3.29a1.54,1.54,0,0,0,1.27.57,1.9,1.9,0,0,0,1.52-.73l2.17,2.17A4.74,4.74,0,0,1,179.64,60.89Z"/><path class="cls-1" d="M191.89,60.78V55.49h-3.48v5.29h-3.29V47.44h3.29v5.13h3.48V47.44h3.28V60.78Z"/><path class="cls-1" d="M202.54,60.89a4.76,4.76,0,0,1-5-4.8V47.44h3.28V56A1.72,1.72,0,0,0,202.54,58a1.74,1.74,0,0,0,1.8-1.95V47.44h3.28v8.65A4.79,4.79,0,0,1,202.54,60.89Z"/><path class="cls-1" d="M216.7,60.78l-2.36-5h-1.1v5H210V47.44h5.28a4.26,4.26,0,0,1,4.55,4.29,3.83,3.83,0,0,1-2.17,3.48l2.89,5.57Zm-1.61-10.4h-1.85v2.7h1.85a1.35,1.35,0,1,0,0-2.7Z"/><path class="cls-1" d="M226.66,60.89a5,5,0,0,1-3.71-1.5c-1.4-1.41-1.35-3.28-1.35-5.28s0-3.89,1.35-5.29a5,5,0,0,1,3.71-1.5,4.74,4.74,0,0,1,3.69,1.48L228.18,51a1.87,1.87,0,0,0-1.52-.73,1.53,1.53,0,0,0-1.27.56c-.3.39-.51.86-.51,3.3s.21,2.9.51,3.29a1.54,1.54,0,0,0,1.27.57,1.9,1.9,0,0,0,1.52-.73l2.17,2.17A4.74,4.74,0,0,1,226.66,60.89Z"/><path class="cls-1" d="M238.91,60.78V55.49h-3.48v5.29h-3.28V47.44h3.28v5.13h3.48V47.44h3.28V60.78Z"/><path class="cls-1" d="M184.57,22.51h0a2.89,2.89,0,0,1-.81-.15,3.08,3.08,0,0,1-2-3.64l.06-.23h0v0a2.91,2.91,0,0,1,.38-.77,3,3,0,0,1,1.34-1.11,3.16,3.16,0,0,1,1.19-.24,3.07,3.07,0,0,1,1,.16h0l.2.07.13.06h0a3.09,3.09,0,0,1,1.76,2.59h0v3.27Z"/></svg>