<svg id="lion" xmlns="http://www.w3.org/2000/svg" viewBox="0 0 500 332.7"><defs><style>.cls-1{fill:#fff}.cls-3{fill:#f15a29}.cls-4{fill:#8b5e3c}.cls-6{fill:#fbe1c3}.cls-7{fill:#fbb040}.cls-8{fill:#231f20}.cls-9{fill:#f8be6f}.cls-10{fill:#c87e2a}.cls-11{fill:#9b7257}.cls-12{fill:#56351f}.cls-15{fill:#cea376}.cls-17{fill:#bb3626}</style></defs><path class="cls-1" d="M357.9 155.4v-1.8a6 6 0 000-.7 1.5 1.5 0 00-.3 0 6.1 6.1 0 00-.8.5 14.3 14.3 0 00-1.4 1 20.4 20.4 0 00-2.4 2l-.9.8a10 10 0 001.2 1 9.2 9.2 0 003.7 1.5 7.9 7.9 0 001.6.2 4.5 4.5 0 01-.3-1 15 15 0 01-.4-3.5zM396.3 157.6l-.2-1.1a1.8 1.8 0 00-.2-.3l-.3.5-.9 1.7a28.5 28.5 0 01-1.8 2.9 9.1 9.1 0 01-.7.8l.4.2a15.4 15.4 0 011.7.8l.8.4h.1l.3.1.1.1a1.5 1.5 0 00.3.2 1.5 1.5 0 00.2 0 1.9 1.9 0 00.3-.6 11 11 0 00.2-2.7 31.2 31.2 0 00-.3-3z"/><path d="M391.4 157.2a19 19 0 00-1.1-2.4 25.6 25.6 0 00-3-4 6.2 6.2 0 00-.4-.5l2-.6.9-.4a5.4 5.4 0 001.4 2 8.3 8.3 0 003.8 1.9l.5.1.2.7a.8.8 0 00-.2.1 1.7 1.7 0 00-.5.6l-.3.5-.5.9-.8 1.6-1.2 2.3v-.5a16 16 0 00-.8-2.3z" fill="#6c0c18"/><path class="cls-3" d="M350 126.7a14.6 14.6 0 00-.3-2.5 9.7 9.7 0 00-.9-2.2l-.6-1.1-.4-.6h-.2a38 38 0 01.8 3.8l.3 2.5h.8l.5.1zM350.2 136l-.1-1.6-.1-5.2v-1.7h-.6l-.7-.1.2 1.7.2 6.5v.6l1.1-.2zM391.4 160.5a8.4 8.4 0 01-.2-.8 18.6 18.6 0 00-.8-2l-1.2-2.3a45.5 45.5 0 00-2.6-4 8.8 8.8 0 01-.6-.9 44.1 44.1 0 01-5.5 1.1 51.4 51.4 0 01-11.3.3 33.4 33.4 0 01-5.6-1 23.3 23.3 0 01-2.8-.8 19.5 19.5 0 01-2.7-1.2 16.2 16.2 0 01-4.6-3.8 16.5 16.5 0 01-1.7-2.5l-.6-1.4-.5-1.4v-.2l-.4-2.9-1.2.2.1 6.3.3 8.5a8 8 0 001.8 4.6 7.5 7.5 0 01.6-1 15.8 15.8 0 012.5-2.3 14.3 14.3 0 011.6-1 7.8 7.8 0 01.9-.4 3.1 3.1 0 011.2-.4h.5a1 1 0 01.2.2 1 1 0 01.2.2 1.9 1.9 0 01.2.6v.3a10.4 10.4 0 01.2 1v1.9a19.8 19.8 0 000 3c0 .5.2.9.3 1.2a.3.3 0 010 .2 10.4 10.4 0 001.4-.1l4.7-.7a44 44 0 014.9-.3 64.3 64.3 0 0117.9 2.3l1 .3 1 .3.4.2.5-.8a4.3 4.3 0 000-.5z"/><path class="cls-4" d="M381.3 113.9h.2l1.2.5 2.5 1a57.8 57.8 0 0010.2 2.5 47.7 47.7 0 0010.6.3 29.4 29.4 0 005.2-1l1.2-.3 1-.4h.1a2 2 0 01.6.5c1.7 1.7 2.3 5 .8 6.4l-.2.3-.4.3-.8.7-1.5 1.4a150 150 0 01-8.8 6.3l-4.6 2.5a12.3 12.3 0 01-1.8.8 9.4 9.4 0 01-1.4.3 9.6 9.6 0 01-1 0h-.2a2 2 0 00-.4-.2 2.9 2.9 0 01-.8-.4c-.6-.4-1.3-1.5-2.4-2.5-2.1-2-5-5.1-8.8-8.6a83.6 83.6 0 00-6.4-5.5l-1-.7-.5-.3a1 1 0 01.1-.3 10 10 0 013.2-2.5 8 8 0 013.7-1.2l.3.1c0 .1.1 0 .1 0z"/><path d="M285 62.8a2 2 0 011.1-.6.7.7 0 01.4.2 1.3 1.3 0 01.5.5l.2.3.2.4.4.8 1 1.5a21.6 21.6 0 002 2.6 14 14 0 002 1.7 20.6 20.6 0 001.9 1h.2l-1.8 2.3-2 3c-1 1.7-2.2 3.3-3.3 4.9a12.7 12.7 0 01-1.3-1 11.8 11.8 0 01-1.7-1.9 13 13 0 01-2.3-5.8 19 19 0 01-.2-3.5 11 11 0 01.8-3.5 8.7 8.7 0 011.9-2.9z" fill="#f6b98e"/><path class="cls-4" d="M70.3 65.9v-.5l-.4-1.4a14.7 14.7 0 00-.8-2.7l-1-2.4-1.3-2.4-1.6-2.2c-.5-.8-1.2-1.4-1.8-2.1l-2-2-.7-.5.1.6a18.7 18.7 0 01.4 3.8 17 17 0 010 1.9 15.3 15.3 0 01-.3 1.9 12.5 12.5 0 01-.4 1.9 14 14 0 01-.6 1.8 11.2 11.2 0 01-.8 1.7 15.6 15.6 0 01-2.3 3.2l-.7.7-.8.6a10 10 0 01-1.6 1.1 12.7 12.7 0 01-1.7 1l-1.7.7-3.6 1.4 1.7-3.6.5-1 .3-1 .2-1v-1l-.2-1a7.3 7.3 0 00-.3-.9 8.4 8.4 0 00-1.1-1.5 8.8 8.8 0 00-.7-.8 7 7 0 00-.9-.7 14 14 0 00-1.3-1 19.3 19.3 0 01.7 1.9 11.6 11.6 0 01.5 4 6.4 6.4 0 01-1.6 4l-1 .8a9.4 9.4 0 01-1 .5l-1.6.7-3 1.4c-2.1 1-4.1 2.2-6 3.4a46.1 46.1 0 00-5.6 4 27.7 27.7 0 00-2.4 2.2 17.5 17.5 0 00-2 2.6 8.5 8.5 0 00-1.1 2.9 6 6 0 00.2 2.8 8.7 8.7 0 001.6 2.6l1.1 1.1.7.5a4.7 4.7 0 01.7-.5 6.7 6.7 0 011.7-.7l.9-.3h2l.9.3a4.4 4.4 0 011.7 1.1 3 3 0 01.7 1 3.9 3.9 0 01.3 1 4 4 0 01-.1 1.1 4.2 4.2 0 01-.4 1l-.1.3 4.4.6 3 .3 3 .1a26.4 26.4 0 003 0h1.4l1.4-.2 1.4-.2 1.5-.3a17.5 17.5 0 002.7-.8 18.1 18.1 0 002.7-1.1l.6-.3.6-.4 1.2-.8a19.3 19.3 0 002.2-1.7 20.4 20.4 0 002-2.1 18.8 18.8 0 001.7-2.4 16.2 16.2 0 001.4-2.5l.7-1.4a10.3 10.3 0 01-1.1.3 9.6 9.6 0 01-1.2.2h-3.9l.3-1.5a5.5 5.5 0 01.3-1.3l.5-.8 1-1.3 1.8-2.2 1.8-2.2c.6-.7 1-1.5 1.5-2.2l.6-1.2.5-1.2a12.9 12.9 0 00.6-2.5 6.6 6.6 0 00.1-1.3 6.7 6.7 0 000-1.3zM428.8 79.9a52.7 52.7 0 00-6.7-22.5 41.4 41.4 0 00-3.3-4.9 29 29 0 00-4-4.2 15.4 15.4 0 00-10-4.3h-1.2l-.2-1.2-.8-4.9-1.2-4.8a45.2 45.2 0 00-3.9-9 37.9 37.9 0 00-5.8-7.8 41 41 0 00-7.6-6 46.5 46.5 0 00-8.9-4.1 55 55 0 00-9.6-2.4 70.6 70.6 0 00-9.8-1 97 97 0 00-10 .4 108 108 0 00-19.6 3.4 95.3 95.3 0 00-9.5 3.1l-9.2 4-4.7 2.1-4.8 1.8-2.4.9-2.5.7c-1.7.4-3.3 1-5 1.3l-5.1.8c-1.7.2-3.5.3-5.3.2a31.2 31.2 0 01-4-.5l.3.3 1.1.6 1.2.7 1.2.5 1.2.5 1.3.3 1.2.3a11 11 0 001.3.2h1.3l.7.1h3.3l4.6-.3L289 27a37.2 37.2 0 01-4.5 3.3 41.3 41.3 0 01-4.9 2.7c-.8.4-1.6.8-2.5 1l-2.7 1-3 .6H266l-2.7-.3a135.5 135.5 0 00-10.4-.8 39.7 39.7 0 00-5.2.3 30.9 30.9 0 00-5 1c-.8.2-1.5.6-2.3.9l-2.3 1-2.2 1.3-2.5 1.4a17.4 17.4 0 01-2.8 1l-1.4.3-1.4.2a7.2 7.2 0 01-1.5 0h-1.5a19 19 0 01-2.9-.4 18.4 18.4 0 01-5.3-2.3 20.5 20.5 0 01-3.4-2.6 14.3 14.3 0 001.2 2 13.5 13.5 0 001 1.2 13.7 13.7 0 001 1c.4.5.8.8 1.2 1a15 15 0 001.2 1l1.3.8a15 15 0 001.4.7 23.1 23.1 0 003 1l1.5.3 1.6.3 7.3 1.1-7.2 1.9A34.3 34.3 0 00224 50a26.2 26.2 0 00-3.6 1.6l-1.7 1-1.7 1-3.3 2.3c-2.2 1.6-4.4 3.4-6.8 4.9-1.1.8-2.4 1.5-3.6 2.2l-1.9 1-2 1-2 .7a8.6 8.6 0 01-1 .3l-1 .3a26.6 26.6 0 01-4.2.9l-2.2.1h-2.2l-2.2-.2-2.2-.5a20.6 20.6 0 01-4.2-1.6 14.4 14.4 0 01-2-1.1 17 17 0 01-1.7-1.3l-1.7-1.5-.6-.7v.5c.2 2 .5 3.9.9 5.8l.6 2.9.8 2.8a53.9 53.9 0 002 5.5A45.6 45.6 0 00179 83a43.8 43.8 0 007.3 9 44.9 44.9 0 004.5 3.8l2.4 1.7 2.5 1.5c.9.4 1.7 1 2.6 1.3l2.7 1.2a56.9 56.9 0 005.5 2 56.2 56.2 0 005.8 1.3l2.9.5 2.9.4a58.2 58.2 0 006 .3c2 0 3.8 0 5.8-.2l5.9-.7 4-.6-2.7 2.9-1.8 2a9.6 9.6 0 01-1 .9l-1 .8a25.1 25.1 0 01-2.3 1.5c-.7.5-1.6.8-2.4 1.3a25.5 25.5 0 01-2.5 1l-2.5.7-1.2.3 1.2.5 2.5.7 2.6.5 2.7.2 2.7.1h5.4a102 102 0 0111.2 0c1 0 2 .2 2.9.3s1.9.4 2.8.7a30.5 30.5 0 012.9 1.1l1.2.7.6.4h.1l.2.2.3.2a15.2 15.2 0 013.8 4.7 25.6 25.6 0 012.2 5.4 62 62 0 012 11c.4 3.8.6 7.4.8 11.1l.4 4.8.4-1.4 2.2-7.2.9-2.8 1.1 2.7 1.7 3.6 1.4 3.7 1.3 3.8c.5 1.3.7 2.5 1 3.8l.6 4 .4 4v4a32.2 32.2 0 01-.5 4 24.8 24.8 0 01-1 3.9l-.7 1.9-1 1.9-1.1 1.6c-.3.6-.8 1-1.2 1.6l-2.4 3.1-8.4 10.8h.4l9 .8 4.6.5 4.5.7 8.9 1.4 1.1.2 1.2.3 2.3.5 4.4 1.5a67 67 0 018.3 3.9 86.9 86.9 0 017.9 4.8l7 5h1l2.2-.3 2-.5 2.2-.5a42.6 42.6 0 008.1-3l2-1 1.8-1.1a36.5 36.5 0 003.4-2.6 35 35 0 003.1-3l1.4-1.7 1.3-1.7 8.5-11.9-6 13.3a23.1 23.1 0 00-2 6.7 11.3 11.3 0 000 1.3l1-1.3c.7-1 1.3-1.9 2.1-2.7l2.3-2.4 1.2-1.1 1-1.1a31 31 0 004.9-8l1.2-2.9 1.1-3a61.8 61.8 0 001.7-6.1l.6-3.2a40.8 40.8 0 00.7-6.3 13.6 13.6 0 00.1-1.7l-.7-.1-2.3-.5-2.2-.3-9.2-1-4.7-.6-2.3-.2h-.7l-.6-.2a9.5 9.5 0 01-1.3-.3 7.4 7.4 0 01-4.2-3.8 16.7 16.7 0 01-1.5-4.8c-.6-3.2-.8-6.4-1-9.5A123 123 0 00339 140l-2.9 1.2-2.7 1.5-2.3 1.4-2 1.3c-.6.3-1 .8-1.4 1.1l-1.3 1a15.4 15.4 0 011-1.3 11.4 11.4 0 011.4-1.2l1.9-1.4 2.3-1.5a30.7 30.7 0 015.8-2.8 13 13 0 00-.5-1.6 18.3 18.3 0 00-.8-2 21.6 21.6 0 00-2.3-3.7 31.1 31.1 0 00-2.9-3.2 32.9 32.9 0 00-3.7 1.2l-1.8.6-1.5.7-2.8 1.2-2 1-1.9.8 1.6-1.2 2-1.1 2.8-1.4 1.6-.7 1.7-.6 3.3-1.1-2.9-2.5c-2.4-1.9-5-3.6-7.5-5.7a21.1 21.1 0 01-3.5-3.6 10 10 0 01-.9-1.6 1 1 0 000 .2l-.6 1-1 2-.7 2.3a18.5 18.5 0 00-.5 2.2 15 15 0 00-.3 2.2 20 20 0 000 2.2 5.8 5.8 0 00.1 1l.3 1 2 9.8-4.8-8.6-1-1.8-1-1.9a20 20 0 01-.7-1.9 19.3 19.3 0 01-.7-1.9c-.5-1.3-.8-2.6-1-4l-.4-2c-.2-.6-.2-1.3-.3-2l-.2-2v-2a31.3 31.3 0 01.2-4c0-.8.1-1.5.3-2.1l.4-2 .1-.3-1 .1h-1a13 13 0 01-2 0 14 14 0 01-3.7-1.2 11.3 11.3 0 01-1.8-.9 8.1 8.1 0 01-.8-.6 7.4 7.4 0 01-.8-.8l-2.7-2.8 4 .3a9.7 9.7 0 002.9-.3 17.3 17.3 0 003-1 19.8 19.8 0 005.4-3.2 16.1 16.1 0 004-4.8l1.4-3c.4-1 1-2 1.6-3.1a97.5 97.5 0 017.4-11.8 56 56 0 019.5-10.2 30.2 30.2 0 013.7-2.6 19 19 0 012.4-1.3 17 17 0 013.5-1 14.7 14.7 0 013.7-.3 68 68 0 017 .5 63.5 63.5 0 016.8 1.4 50.9 50.9 0 016.7 2.2 42.2 42.2 0 016.2 3.2 36.2 36.2 0 015.6 4.2 33.2 33.2 0 014.1 4.5l.7-.5 1.4-1a41.8 41.8 0 004-3.4l1.1-1.2 1.2-1.3a15.3 15.3 0 001-1.3 16.9 16.9 0 001-1.4 14.7 14.7 0 001-1.5 15 15 0 00.8-1.5 16.8 16.8 0 00.7-1.6 14.6 14.6 0 00.6-1.6c0-.6.3-1.2.4-1.7l.3-1.8.2-1.8.2 1.8.1 1.8a12.6 12.6 0 01-.1 1.9 13.8 13.8 0 01-.3 1.8 4.4 4.4 0 01-.2.5l.3.2 2.1 1.1c1 .5 2 1.3 3.3 2.2a49.2 49.2 0 013.9 3 44.4 44.4 0 014.1 4.3 32.7 32.7 0 013.9 5.6 17.6 17.6 0 012.3 7 12 12 0 01-.3 4 8.8 8.8 0 01-.7 2l-.3.5-.1.3-.4.8-.8 1.6a13.3 13.3 0 00-.5 1.5 15.3 15.3 0 00-.7 3.1 16.6 16.6 0 00.5 6.2 39.6 39.6 0 002.3 5.8c.9 1.8 1.8 3.6 2.4 5.3a23.4 23.4 0 011.5 4.9l.2 2v1.8l.3-1.6.9-3c.5-2 1.2-4 1.9-5.9l2-5.7c.8-1.8 1.5-3.7 2-5.6l1.7-5.8a37.2 37.2 0 00.8-5.8 43.2 43.2 0 000-5.8zm-101-23.7a59.5 59.5 0 00-7 1.6 69.5 69.5 0 00-6.5 2.4 46 46 0 00-6.2 3.2 33.9 33.9 0 00-3 2 28.2 28.2 0 00-2.6 2.1 38.4 38.4 0 00-4.9 5l-2 2.8-2 3-4 6a76.8 76.8 0 01-9.3 11.3 37.6 37.6 0 01-12.4 8.3 28.5 28.5 0 01-7.3 1.8 33.9 33.9 0 01-7.5 0 45.1 45.1 0 01-6-1l1.8 1.1 3.1 1.8 3.2 1.5c1.1.5 2.2.9 3.4 1.2a31.7 31.7 0 003.4.8 26 26 0 003.5.5 30 30 0 003.6.1h1.7l1.8-.2 1.8-.2 1.7-.3 1.8-.3 1.7-.5 1.7-.5 1.7-.7c1.2-.4 2.3-.7 3.4-1.3s2.3-.9 3.4-1.4l3.4-1.5-3 2.3c-1 .8-2 1.3-3.1 2a26.4 26.4 0 01-3.4 1.7l-1.7.7-1.8.7-1.7.6-1.9.5-1.8.4-1.8.3-1.9.3h-1.9a25.5 25.5 0 01-3.8 0 26.7 26.7 0 01-3.8-.5 31.8 31.8 0 01-3.7-.8c-1.3-.3-2.5-.8-3.6-1.2l-3.5-1.6-3.4-1.9-3-2-3-2.4-.5-.3-2.4-2.2-6.8-6 8.4 3.5a52.5 52.5 0 006.6 2.4 37.7 37.7 0 006.7 1.4 29.9 29.9 0 006.9 0 26.1 26.1 0 006.5-1.7 34.6 34.6 0 0011.3-7.6 68.8 68.8 0 007.2-8.4l-1-.3-.7-.4-.8-.4a10.7 10.7 0 01-1.5-1.2 14.2 14.2 0 01-3.2-3.6 21.7 21.7 0 01-3-11.4l.2-3.3c0-.6.2-1.1.3-1.7a13.4 13.4 0 01.3-1.6 15.3 15.3 0 013.1-6.6 10.8 10.8 0 016.4-3.8 10.2 10.2 0 013.8 0 9.4 9.4 0 011.8.5 10 10 0 011.6.7c1.7 1 3.4 1.8 5.1 2.6s3.3 1.3 4.8 1.9 3 1 4.2 1.3l3.2.8a6.5 6.5 0 001.2.3h.1l2.2-1a45.8 45.8 0 017-2 54 54 0 017.2-1.1 31 31 0 017.3.3z"/><path class="cls-6" d="M214 171.3l-2.6-1.9c-1-.7-2-1.3-3-2.2l-3.2-2.6c-1.1-.8-2.2-1.9-3.3-3l-3.4-3.3-7.3-7.2-3.9-3.7-4.1-3.6a40.4 40.4 0 00-4.5-3.4 16.1 16.1 0 00-5-2.3 4.2 4.2 0 00-2.5.1 3.5 3.5 0 00-1.8 1.8 14.7 14.7 0 00-1 5.4v11a187.7 187.7 0 01-1.2 19.3c0 1.1-.2 2.1-.4 3.2a34.9 34.9 0 017-10.4l1.4-1.3c.5-.5 1.1-.8 1.7-1.2a9.9 9.9 0 011.6-1l.8-.5.4-.2a1 1 0 01.2 0h.1l.3-.2a13.2 13.2 0 017.7-.6l1.8.5 1.7.8a9.5 9.5 0 011.5.9l1.5 1a34.3 34.3 0 014.6 4.4 70 70 0 016.6 8.8 151.1 151.1 0 016.9 11.6l1.2-1.9 1-1.4.7-1.4a25 25 0 001.3-2.7 39.5 39.5 0 002.7-9.6l-3.2-1.8-2.3-1.4zM346.7 126.4l.1-2.2a34.7 34.7 0 01.4-3.6l-.6.4-.7.7a16.3 16.3 0 00-2.5 3.4 12.2 12.2 0 00-.7 1.3h4zM346.4 136.8v-1.2l.2-6.4v-2l-1.5-.1h-2.8l-.6 1.5a25.6 25.6 0 00-1 3.5 23.6 23.6 0 00-.3 2.8 16.5 16.5 0 01.7 1.8 11.4 11.4 0 01.4 1.4l.5-.2 4.4-1.1zM399.3 153.8h-.7l-2-.4a14.7 14.7 0 011 2.1 23.7 23.7 0 011.3 5 10.4 10.4 0 010 3.4 3.7 3.7 0 01-1.1 2.2 2.4 2.4 0 01-1.7.6 3 3 0 01-1.4-.3 2.4 2.4 0 01-.5-.3H393.9l-.8-.5a18 18 0 00-1.7-.7l-1.7-.6-.9-.3-1-.2a59.4 59.4 0 00-8.2-1.4 70.3 70.3 0 00-8.9-.4 43.3 43.3 0 00-4.5.3l-4.7.6-2.6.2a16.6 16.6 0 01-2.6-.3 11.8 11.8 0 01-4.9-2 11.3 11.3 0 01-5-8.9v-8.6-5.7c-1.4.3-2.7.7-4 1.2l-.7.2v.2a127.5 127.5 0 012.7 18.7c.2 3.1.4 6.3.9 9.2s1.5 5.7 3.8 6.4a22.6 22.6 0 004.3.7l4.7.5c3.1.4 6.2.6 9.4 1.2l2.3.4 2.3.5 2.3.5 2.3.6a23.3 23.3 0 008.8 1.4 19 19 0 008.2-3 16.2 16.2 0 006.1-6.2 15.3 15.3 0 001.4-8.6 31.7 31.7 0 00-1.9-7.7z"/><path class="cls-6" d="M416.6 132.4h1.4a30.6 30.6 0 00-.1-4.8 22.4 22.4 0 00-.5-2.6l-.3.3-.5.5-.4.4-.8.7-1.7 1.3-3.3 2.5a47.8 47.8 0 01-6.2 3.6 14.7 14.7 0 01-5.3 1.7 18.6 18.6 0 01-3.6.1l-.6-.1H394l-1.1-.5a15.2 15.2 0 01-3.4-1.4l-4.3-3.3-5.4-4.5a81.7 81.7 0 00-7.1-5.8l-.5-.3-.3-.2-.2-.2a2.5 2.5 0 01-1-2l-.6.2a7.6 7.6 0 01-1.3.4 20.5 20.5 0 01-3 .4c-2.4.2-5 .1-7.8.1h-2.2l.3.1a34.4 34.4 0 013.3 1.9 25.3 25.3 0 012.7 2 19 19 0 012.2 1.8l.8.8.7.8a13 13 0 011.1 1.5 14 14 0 01-1.4-1.2l-.7-.7-.9-.8c-.7-.5-1.3-1.2-2.2-1.7a31.6 31.6 0 00-2.7-2 40.5 40.5 0 00-4.8-2.5 5.7 5.7 0 01-.6 0 19.6 19.6 0 00-4.3.7 7.3 7.3 0 00-1.5.6 8.8 8.8 0 011.5 1.3 7.3 7.3 0 01.8 1 6.4 6.4 0 01.6 1.3 13.2 13.2 0 01.8 3.1l1.8.3 3.5 1a34.2 34.2 0 015 1.8 11.7 11.7 0 011.7 1l-1.9-.6-2.2-.8-2.9-.8-3.4-.9-1.6-.2.2 1.4.5 5 .2 1.5 2-.3c1.7-.2 3.1-.2 4.2-.2a8.2 8.2 0 011.5.1 12 12 0 01-1.5.3 217.4 217.4 0 00-6 .8c0 1 .2 1.9.4 2.8l.4 1.1.5 1.1a12.3 12.3 0 001.5 2 14.3 14.3 0 004 3 16.9 16.9 0 002.3 1 18.7 18.7 0 002.4.8 31.9 31.9 0 005.2.8 51.5 51.5 0 0015.9-1.5l2.4-.8a14.2 14.2 0 002.2-1l1.3-.8.3-.4a13.8 13.8 0 001-2 24.2 24.2 0 001.2-4.2 7.5 7.5 0 01.4-1.4 1.4 1.4 0 01.4-.5 1.2 1.2 0 01.4.6 5.5 5.5 0 01.1 1.5 14.3 14.3 0 01-1 4.6 9.6 9.6 0 01-1.3 2.2 8 8 0 01-.5.6v1a3 3 0 001 2 5.6 5.6 0 002.4 1.2l3.3.5c1.1.2 2.3.3 3.4.3a14.2 14.2 0 006.1-.9 10.4 10.4 0 002.6-1.5 7.2 7.2 0 00.6-.5l.6-.6a14.4 14.4 0 001-1.2 22.4 22.4 0 001.3-1.8l-.6-.3a12.4 12.4 0 00-1.3-.6l-.8-.4a1.8 1.8 0 00-.3-.1 3.9 3.9 0 011.2.1 16 16 0 012.1.7 22.8 22.8 0 002.2-5.3h-.2l-1.8-.3-1.1-.2-.4-.1h.4a9.8 9.8 0 011.2 0h1.8a.6.6 0 00.2 0 28.6 28.6 0 00.7-3.7v-1.2h-3a9.6 9.6 0 01-1.5 0 7.8 7.8 0 011.5-.4z"/><path class="cls-7" d="M340.7 128.4a24.8 24.8 0 00-.8 3.6l-.2 1.5a26.8 26.8 0 00-2.2-3.4l-1.8-2.1.7-.1 2.2-.4 2.2-.2h.3l-.4 1zM282.7 81.1l.7.7a5.7 5.7 0 01.6.6l1.1 1 .8.7 1.2-1.6.2-.4a9 9 0 01-1.5-.8 10 10 0 01-2-1.9A13.7 13.7 0 01281 73a21.4 21.4 0 01-.3-3.9 12.4 12.4 0 01.9-4 9.8 9.8 0 012.3-3.5 3.3 3.3 0 012.2-.9 2.3 2.3 0 011.3.5 3.3 3.3 0 01.8.9l.8 1.6c.2.6.6 1 .9 1.4l.8 1.3 1 1.2a20.1 20.1 0 001.8 1.7 15.2 15.2 0 001.4 1.3l.3.2v-.2a44.1 44.1 0 015.3-5.2 33.4 33.4 0 013-2.3 30 30 0 013-2l2-1a17.6 17.6 0 01-2.5-.2 30.4 30.4 0 01-4.5-1 57.6 57.6 0 01-10.6-4.3 10.3 10.3 0 00-1.2-.5 7.5 7.5 0 00-1.2-.3 7.5 7.5 0 00-7.3 2.7 12 12 0 00-2.4 5.2 12.6 12.6 0 00-.3 1.5l-.2 1.5-.2 3a19.6 19.6 0 002.1 10 16.7 16.7 0 002.4 3.4zM301.6 98.7a11.1 11.1 0 001.8.5 7.7 7.7 0 001.6 0 4.5 4.5 0 00.7 0 5.5 5.5 0 00.7 0 4.7 4.7 0 00.7-.2l.6-.3a5.5 5.5 0 001.1-.7l5.7-4.3-3.4 6.3a10.8 10.8 0 00-.7 1.5 13 13 0 00-.5 1.7l-.4 1.8a22 22 0 00-.3 1.9 27.7 27.7 0 00-.1 3.7v2c0 .6 0 1.2.2 1.8s0 1.3.2 2l.4 1.8a35.7 35.7 0 001 3.6 1.1 1.1 0 000 .2 21.1 21.1 0 01.7-2.5 20.6 20.6 0 01.8-2.5l1-2.3.6-1.1.6-1.1 1.4-2.2 2.6-3.9.2 4.7c.1 2.5 2 4.7 4.4 6.6l7.3 5.7a49.2 49.2 0 014.5 4l1.3-.2 2.2-.4 2.2-.2h.7a18.4 18.4 0 011-2 16.5 16.5 0 012.6-3.6l1-.8c.2-.3.6-.5.9-.7a9 9 0 012.2-1 16 16 0 012.8-.5c-1.1-.4-2.3-.9-3.5-1.2l-4-1.1-3.9-.8-3.7-.6c-1.2-.2-2.2-.2-3.3-.2l-2.8-.2h-4.1l2-.3a35.7 35.7 0 015-.2c1 0 2.1 0 3.3.2l3.7.5a59.8 59.8 0 018 1.9l3.9 1.4 1 .5 4.5-.1h7.7l3-.2a6.9 6.9 0 001.2-.2 9 9 0 001-.3 4.5 4.5 0 01.5-1.4 12.4 12.4 0 014.1-3.5 10.2 10.2 0 015.5-1.5 3.7 3.7 0 011 .1 1.6 1.6 0 01.4.2l.4.2 1 .5 2.3.8a55 55 0 009.6 2.3 44.4 44.4 0 009.9.3 32 32 0 004.6-.8c.4 0 .8-.2 1.1-.3l.6-.2.2-.1h.8v-.2a22.4 22.4 0 00-1.9-2.1 33.9 33.9 0 00-4.4-3.6l-5-3.1-2.6-1.4-2.6-1.3-2.7-1.2-1.4-.6-.6-.4-.8-.4a6.5 6.5 0 01-2.2-2.7 6.6 6.6 0 01-.6-3.2A7.8 7.8 0 01391 88a8.6 8.6 0 00-1.6 5.4 5.3 5.3 0 002.5 4.2l.5.3.7.2 1.4.6 1.4.5a5.2 5.2 0 01.8-.2 25.3 25.3 0 014.8-.4 17.4 17.4 0 012.6.1 9.3 9.3 0 012.3.7 2.5 2.5 0 01.8.5 1.6 1.6 0 01.6.5 1.6 1.6 0 01.2.7 2.7 2.7 0 01-.7-.1l-1.4-.4a16.8 16.8 0 00-4.4-.5c-1 0-2.1 0-3 .2l1.6.7 2.7 1.3 2.7 1.5 2.6 1.6a35.2 35.2 0 014.9 4 28 28 0 012 2.1l-2.6-5.1a38.3 38.3 0 01-2.6-6.2 17.9 17.9 0 01-.8-7.4 24.5 24.5 0 011.5-5.6l.8-1.6.4-.8v-.2l.2-.2.1-.4a5.8 5.8 0 00.5-1.4 8.8 8.8 0 00.3-3 15.5 15.5 0 00-2-6 31.3 31.3 0 00-3.3-5 51.7 51.7 0 00-3.8-4.1c-1.2-1.3-2.5-2.3-3.5-3.3s-2-1.7-2.9-2.2-1.3-1-1.8-1.4l-.5 1.4a15.2 15.2 0 01-.8 1.6 13.2 13.2 0 01-1 1.7 18.5 18.5 0 01-1 1.5 15.7 15.7 0 01-1.1 1.5 24.5 24.5 0 01-2.4 2.6 24.2 24.2 0 01-3 2.3l-1.6 1c-.6.4-1.2.5-1.7.8l-.7.4-.6-.7a34.7 34.7 0 00-9.9-8.8 43.1 43.1 0 00-6-3 50.6 50.6 0 00-6.3-2 58.5 58.5 0 00-6.6-1.2 66.9 66.9 0 00-6.6-.5 12.9 12.9 0 00-6.1 1.2 23.7 23.7 0 00-5.4 3.5 55.4 55.4 0 00-9 9.8 94.1 94.1 0 00-7.1 11.4l-1.6 3-1.4 3.2a18.7 18.7 0 01-4.6 5.7 22.9 22.9 0 01-6.3 3.8 21.6 21.6 0 01-2.6.8zm40.9 1.4a1.7 1.7 0 01.3-.7 6 6 0 01.8-.9 6.3 6.3 0 011.3-.9 13.7 13.7 0 011.6-.7 15.8 15.8 0 011.8-.6l2-.5c.7-.2 1.5-.2 2.2-.2a20.9 20.9 0 014.2.2l2 .3 1.6.5a10 10 0 012.4 1 3.7 3.7 0 01.8.8 4.3 4.3 0 01-1 0 6.8 6.8 0 01-1.1-.2 12.5 12.5 0 01-1.4-.3 30.9 30.9 0 00-3.4-.6 26 26 0 00-4 0 20.5 20.5 0 00-7.1 1.6 23.7 23.7 0 00-2.1 1l-.7.4h-.3l.1-.2zM496.9 310a25 25 0 00-1-5.5l-1.2-1.5-1.6-1.7a21.2 21.2 0 00-2-1.5 23.2 23.2 0 00-2.2-1.3l-2.1-1.1a42.2 42.2 0 00-4-1.7l-2.9-1.1a3.8 3.8 0 01-1-.7 2.8 2.8 0 011.2 0l1.4.1 1.7.5a34.2 34.2 0 014.2 1.5 20.2 20.2 0 012.3 1.2 19.3 19.3 0 012.3 1.3 16.2 16.2 0 011.8 1.3l-.3-.3a19.2 19.2 0 00-8.4-6.8l-5.5-2.3-5.6-2.3-5.4-2.8-5.2-3.2-4.9-3.6-4.5-4a25.4 25.4 0 01-2-2.2l-2-2.3c-.7-.8-1.5-1.5-2-2.3l-2-2.4-7-9.6c-1.1-1.6-2.4-3-3.6-4.6l-1.8-2.3-2-2.2c-2.6-3-5.3-5.8-8.2-8.5l-4.3-4-4.6-3.9-9.3-7.2-9.6-7.2a128 128 0 01-4.6-3.8l-2.4-1.9-2.2-2-2.2-2-2-2.2a54.4 54.4 0 01-4-4.6 22.7 22.7 0 01-1.7-2.5l-1.6-2.6-1.4-2.9a51.3 51.3 0 01-1.6 6.3l-1 3.1c-.3 1-.8 2.1-1.3 3.1l-1.5 3c-.5 1-1 2-1.7 3a30.3 30.3 0 01-2 2.7l-1.2 1.3-1.2 1.2a36 36 0 00-4.2 4.7l-.8 1.2a13.3 13.3 0 00-.7 1.3 4.2 4.2 0 00-.3 2.2l.9 4-3.2-2.4a6.2 6.2 0 01-.7-.5l-.4-.5a6.7 6.7 0 01-.7-1.2 10.6 10.6 0 01-.5-2.2 17.8 17.8 0 010-4v-.7l-1.5 1.4a42 42 0 01-3.8 2.8c-.6.5-1.3.8-2 1.2l-2 1.1-2.2 1-.3.1.6 1 1.2 2 2.4 4a170.3 170.3 0 0010.7 15.6c2 2.4 4 4.8 6.2 7q1.6 1.8 3.3 3.4l3.5 3 3.7 2.8 4 2.6a196.8 196.8 0 0016.3 9.6l16.7 9.1c2.8 1.5 5.6 3 8.3 4.7a83.5 83.5 0 018.2 5.3l1 .7 1 1a4.2 4.2 0 01.5.5l.4.5a9.6 9.6 0 01.7 1l2.6 4.1c1.6 2.8 3.2 5.5 5 8a44 44 0 005.8 7 33.3 33.3 0 007.3 5.4c4.4 1.8 8.7 3.6 13.2 5l3.3 1a25.5 25.5 0 003.3.6 15.3 15.3 0 001.6.2 7.4 7.4 0 001.5-.2 2.1 2.1 0 00.6-.1 1.5 1.5 0 00.5-.3 2.1 2.1 0 00.7-.7l.7-.9v-.5l.2-1.5.3-1.9v-2.3a18.1 18.1 0 00-.2-2.4 16.2 16.2 0 00-.6-2.6 17.1 17.1 0 00-1.1-2.5 13.8 13.8 0 00-1.6-2.2 18.6 18.6 0 00-1.8-2l-2-1.5-1.9-1.2-1.7-.9-1.4-.7a7 7 0 01-1.1-.7 6.2 6.2 0 011.4 0 11.3 11.3 0 011.5.4l1.9.8a23.7 23.7 0 012.1 1.1l2.2 1.6a15.5 15.5 0 012 2 18 18 0 011.7 2.5 18.3 18.3 0 011.2 2.8 15.8 15.8 0 01.7 2.9 19.6 19.6 0 01.1 2.7 17.8 17.8 0 01-.2 2.4 16.5 16.5 0 01-.5 2 13 13 0 01-.5 1.5l-.2.3h.5l3 .7 3 .3a26.3 26.3 0 002.9 0 19.7 19.7 0 002.9-.6l1.3-.4 1.3-.5 1.2-.7 1.2-.8 1-1 .8-1 .8-1.2.6-1.2a32.5 32.5 0 001.5-11.1zM104.6 217.8L101 215a14 14 0 00-.4 1.8l-.4 2.8-.7 5.8-.8 5.8-.5 2.9-.6 2.9-.3 1.4-.5 1.5a21.4 21.4 0 01-2.7 5.5 17.3 17.3 0 01-2.1 2.4 12.5 12.5 0 01-2.6 2 7.8 7.8 0 01-1.5.7 6.9 6.9 0 01-1.2.4l-1.3 5.8-.6 3.2-.3 1.5-.2 1.6a20.5 20.5 0 00-.3 3.1 8 8 0 00.1 1.5 9.3 9.3 0 00.3 1.4 6.7 6.7 0 00.5 1.2 4 4 0 00.7 1 7.8 7.8 0 001 .8l1.3.7.7.4v.5l2-.3 1.4-.2a9.2 9.2 0 001.6-.5l.7-.4.8-.5a6.7 6.7 0 001.1-1.2 8 8 0 001-1.6 11.8 11.8 0 00.6-1.7 13.5 13.5 0 00.5-1.7l.4-1.5.6-2.3a3.4 3.4 0 01.5-.8 3 3 0 01.3.9 10.1 10.1 0 01-.1 2.4 15.8 15.8 0 01-.3 1.7 15.4 15.4 0 01-.4 1.8 10 10 0 01-.7 1.8 11 11 0 01-1 1.9A8.5 8.5 0 0196 273l-.9.6-1 .5a10.4 10.4 0 01-1.8.5 13.1 13.1 0 01-1.7.1 8.6 8.6 0 01-1.8-.1v.6l.4 1.1.5 1.2c.1.4.5.7.7 1l.7 1 .9 1c.3.4.6.5 1 .8a8.5 8.5 0 001 .7 7.4 7.4 0 001 .5 8 8 0 001.2.4 7 7 0 001.2.3 7.8 7.8 0 001.1.1 11.3 11.3 0 001.2 0l1.1-.3 1-.5 1-.6.4-.3h.4l2.4-.3.3-.2.6-.4c.3-.1.3-.4.5-.6a7.5 7.5 0 001-1.2l1-1.5.8-1.7.6-1.8a12.2 12.2 0 00.5-1.7l.8-3.2a13.5 13.5 0 01.6-2.3 3 3 0 01.5-.8 3 3 0 01.2.9 15.1 15.1 0 010 2.4c-.1 1-.4 2.1-.7 3.3a12 12 0 01-.4 2l-.7 1.8-.8 1.8a14.3 14.3 0 01-1.1 1.7 5 5 0 01-.9 1 14.1 14.1 0 002.8-1 10 10 0 003.2-2l.6-.6.6-.7a11 11 0 001-1.7l.8-1.8c.3-.6.4-1.3.6-2a33.6 33.6 0 00.7-4l.3-4.2.2-4.3.5-8.7c0-1.5.3-2.9.4-4.4l.4-4.4.5-4.3.6-4.4.7-4.3.6-2.8a32.7 32.7 0 01-9.2-2 41.8 41.8 0 01-9.6-5.4z"/><path class="cls-7" d="M349.1 252.8a40.7 40.7 0 00-5.4-6.8 240.5 240.5 0 00-19.9-18c-2.3-2-4.7-3.7-7.2-5.4a88.2 88.2 0 00-7.6-4.6 71 71 0 00-8-3.8l-4.2-1.4-2-.6-1-.2-1.2-.2-9-1.6-4.4-.8-4.4-.6-9-1.1-9-1c-1.4-.3-3-.4-4.4-.5l-4.5-.6c3-.2 6-.5 9-.4l6.9.3 8.8-11.8 2.4-3.1 1.1-1.6 1-1.6.8-1.6.7-1.8a24 24 0 00.8-3.6 29.4 29.4 0 00.4-3.8v-3.8a37.4 37.4 0 00-.4-3.8 43.1 43.1 0 00-1.7-7.5l-1.2-3.6-1.4-3.6-.4-.8-1.2 4.2-1 3.6-.3 1.8a6.4 6.4 0 00-.1.8v.8l-.5 5.5-1.9-5a25.6 25.6 0 01-1.2-5.7l-.5-5.6-.9-11a59.7 59.7 0 00-2-10.6c-1-3.4-2.6-6.6-5.1-8.6l-.3-.2v-.1l-.7-.3-1.2-.7-2.2-1c-.7-.3-1.7-.4-2.6-.5l-2.6-.3a91.7 91.7 0 00-10.8 0l-5.6.1H231l-2.8-.3-2.9-.5-2.8-.8-2.7-1.2-2.5-1.6-3.2-1.9 3.8-.6 2.5-.4 2.3-.5 2.4-.7a23.6 23.6 0 002.2-.9 20.1 20.1 0 002.1-1l2-1.4.5-.4-1.8.2a84.5 84.5 0 01-15.4-.5l-3-.5a55.9 55.9 0 01-6-1.4 57.5 57.5 0 01-5.8-2L197 103l-2.7-1.4-2.7-1.6-2.6-1.7a45.6 45.6 0 01-4.8-4 46.5 46.5 0 01-7.7-9.7 44.5 44.5 0 01-2.9-5.5 57.2 57.2 0 01-2.1-5.9l-.7-2.4-2.3-.4a67 67 0 00-7.6-.8 73.8 73.8 0 00-11.7-.1 55.2 55.2 0 00-14.8 3 53 53 0 00-15.5 8.8 67.7 67.7 0 00-7.2 6.6 44 44 0 00-3.3 3.9 318.7 318.7 0 01-32.5 38 119.8 119.8 0 01-17.7 14.5 51.3 51.3 0 01-20.8 8.4A28.8 28.8 0 0117 148a22.5 22.5 0 01-2-1.7 22.4 22.4 0 01-1.7-2 16.7 16.7 0 01-2.4-4.5 19.4 19.4 0 01-.6-9.4 43 43 0 015.7-14.8 81.7 81.7 0 017-9.9 62.8 62.8 0 017.2-7.7l.5-.5.3-.5a2 2 0 00.2-.5 1.9 1.9 0 000-.5c0-.1 0-.3-.2-.4a1 1 0 00-.2-.4 2.5 2.5 0 00-1-.6l-.6-.1H28l-.6.2a5 5 0 00-1.2.6 8.1 8.1 0 00-1.1.8l-.8.6-.7.6-3.6 4.1s-3.3 4-5.1 6.6a84.1 84.1 0 00-5.9 9.1 52.8 52.8 0 00-4.9 11.7 26.6 26.6 0 00-.4 13.6 23 23 0 008 11.8 37 37 0 003.1 2.3 37.9 37.9 0 003.4 1.9 34.7 34.7 0 007.2 2.6 44.2 44.2 0 0015.4.6 68.3 68.3 0 0014.7-3.7 109.5 109.5 0 0024-12.6 138 138 0 0019.7-16.5c.2-1.6.5-3.1.6-4.7s.7-3.3 1-4.9 1-3.2 1.4-4.8 1.3-3 2-4.6l2.4-4.3-1.7 4.7c-.6 1.6-1 3-1.3 4.6s-.8 3.2-1 4.8l-.4 2.4-.3 2.4c-.1 1.6-.4 3.2-.4 4.8s0 3.2 0 4.8l.1 2.5.2 2.4c0 1.6.3 3.2.4 4.8l.6 4.9.8 4.8.9 4.8.9 5a24.2 24.2 0 01.3 2.4V168.2a5.8 5.8 0 01-.7 3.2 2.7 2.7 0 01-2.2 1.1 5 5 0 01-1.8-.4 26.3 26.3 0 01-4.4-2.8 18.4 18.4 0 00-3.8-2.3 10.6 10.6 0 00-5-.2 9.2 9.2 0 00-4.4 2.5 23 23 0 00-3.3 4.4 46.2 46.2 0 00-2.4 5.2l-2 5.5L74 190c-.6 1.9-1.4 3.7-2.1 5.6s-1.7 3.7-2.6 5.5c-1.8 3.6-3.7 7-5.6 10.4-1 1.8-1.9 3.4-2.7 5.2l-1.3 2.7-1 2.6a30.4 30.4 0 00-1.6 5.4 15.6 15.6 0 000 5.4 10.3 10.3 0 002.2 4.6 15.4 15.4 0 004.2 3.4l.4.2a9 9 0 00.7-.7 15.4 15.4 0 002.8-4.8A45.4 45.4 0 0069 230a15.1 15.1 0 01.6-1.8 2.5 2.5 0 01.5-.7 2.4 2.4 0 01.3.8 8 8 0 010 2 35 35 0 01-.6 2.7 23.3 23.3 0 01-1 3.1 20.6 20.6 0 01-1.4 3 9.6 9.6 0 01-2 2.2 3.9 3.9 0 01-1 .7 2 2 0 01-.2 0l.1 1a9.6 9.6 0 00.4 1.2 6.7 6.7 0 00.5 1 6 6 0 00.7 1 6.2 6.2 0 00.9 1 9.8 9.8 0 002 1.3 7.6 7.6 0 001.2.5 6.5 6.5 0 001.2.3 6.6 6.6 0 001.3.2 9.2 9.2 0 001.3.1 9 9 0 001.2 0 8.2 8.2 0 001.3-.3 6.6 6.6 0 001.2-.3 8 8 0 001-.5l1-.7.8-.4.8.2.8-1a7 7 0 00.7-1 10.6 10.6 0 00.7-1.3l.6-1.3.6-1.5.4-1.5.4-1.5a20.7 20.7 0 00.6-2.7 10 10 0 01.6-1.9 2.7 2.7 0 01.5-.6 2.3 2.3 0 01.3.8 10.6 10.6 0 010 2 18.3 18.3 0 01-.5 2.7l-.3 1.6a13.3 13.3 0 01-.5 1.6l-.6 1.6-.7 1.4a8.7 8.7 0 01-.9 1.4 6.9 6.9 0 01-.8 1 4 4 0 01-.7.7l1.2.3H86a6 6 0 001.1-.4 4.4 4.4 0 001.2-.5 10.4 10.4 0 002-1.5 15.6 15.6 0 001.8-2 19.1 19.1 0 001.4-2.3 22.9 22.9 0 001.1-2.5l.5-1.3.3-1.4.7-2.8.5-2.8a245.5 245.5 0 002-11.6l.5-2.9a18.3 18.3 0 01.7-2.5l-1.6-1.6-2.1-2.2c-.6-.6-1-1.4-1.4-1.9l-1.2-1.5a33.2 33.2 0 003.3 2.6l2.4 2c1.8 1.3 4 3 6.6 4.7a46.5 46.5 0 009.4 4.7 29.1 29.1 0 0012 1.7 30 30 0 0012.8-4 44.8 44.8 0 0011.3-9.3 63.8 63.8 0 008.6-12.6c2.2-4.5 3.6-9.7 5.6-14.5l.5-1.2.7-5c.6-5.7.9-12.3 1-19.4 0-3.6-.2-7.2 0-11a15.5 15.5 0 011-5.7 4.4 4.4 0 012.2-2.2 5 5 0 013-.2 16.6 16.6 0 015.2 2.5 41.5 41.5 0 014.5 3.4c1.4 1.3 2.9 2.4 4.2 3.7l4 3.7 7.2 7.3 3.4 3.3 3.2 3 3.1 2.6c1 .9 2 1.5 3 2.2l2.5 2 2.3 1.4 3 2 .2-.7a59.7 59.7 0 00.6-8.5v-5.6-2l.6 1.9a31.6 31.6 0 011 5.6 49.1 49.1 0 010 8.8 38.3 38.3 0 01-2.5 11.3 22.4 22.4 0 01-1.4 3l-.8 1.5-.9 1.4-3.5 6a107 107 0 00-6.6 13 40.6 40.6 0 00-3.5 14.9v2l.3 1.8a20 20 0 00.8 3.7 10.6 10.6 0 00.8 1.8 15 15 0 00.8 1.7l1.1 1.6.6.7a7.2 7.2 0 00.6.8 36 36 0 002.7 3l1.4 1.4 1.6 1.2a42.6 42.6 0 006.5 4.5 50.2 50.2 0 0014.5 5 80 80 0 0014.6 1.1c4.7 0 9.1-.2 13.2-.6 8.2-.7 15-1.6 20-1.4a17 17 0 016 1 22.6 22.6 0 01-.5-2.3 11.2 11.2 0 010-3.5 21.9 21.9 0 001 3.2l1.2 3.1a53 53 0 003 6 68 68 0 003.7 5.6c.6 1 1.3 1.8 2 2.7l2.1 2.5a44.7 44.7 0 004.8 4.6 29 29 0 002.6 2 26.1 26.1 0 002.8 1.7 22.8 22.8 0 002.9 1.4 21.9 21.9 0 003 .9l1.5.2 1.6.1h1.6l1.5-.2h.4l.5.1a22.6 22.6 0 001-2.7c.2-.7.5-1.3.6-2.1a18.5 18.5 0 00.2-2.3 23.8 23.8 0 000-2.5 23.4 23.4 0 00-.5-2.6 24.4 24.4 0 00-.7-2.5 20.4 20.4 0 00-1.1-2.3l-.6-1-.6-1a13.6 13.6 0 00-1.3-1.8l-1.1-1.4a10.5 10.5 0 01-1-1.1 4.7 4.7 0 01-.6-1.1 5.6 5.6 0 011.2.5 11.5 11.5 0 011.2.9 19 19 0 011.3 1.3 14.7 14.7 0 011.4 1.8l.8 1c.3.3.4.7.6 1.1a16.8 16.8 0 011.2 2.5 22.1 22.1 0 01.9 2.7 20.2 20.2 0 01.5 5.5 19.8 19.8 0 01-.4 2.5 15.5 15.5 0 01-.7 2.2 11 11 0 01-.9 1.8 5.8 5.8 0 01-.6.9l.7.3 1.6.4 1.7.4a16 16 0 001.6.2l1.7.1a15.6 15.6 0 001.7 0 13.1 13.1 0 001.6-.2 19.5 19.5 0 003.2-.8 10.6 10.6 0 001.5-.6 8.8 8.8 0 001.4-.8 7.6 7.6 0 001.3-1 8 8 0 001-1 9.8 9.8 0 001-1.3l.5-1.3.4-1.5.1-.8h.1v-.5-1.7a30.5 30.5 0 000-4.1 19.6 19.6 0 00-.2-2.3 14.9 14.9 0 00-.7-2.3l-.4-1.1-.6-1-1.2-2a36.6 36.6 0 00-2.5-3.3L339 255a12.3 12.3 0 01-.8-1 6 6 0 01-.5-1.1 4.4 4.4 0 011 .5 16.7 16.7 0 012.4 2 32 32 0 012.7 3.4 18.9 18.9 0 011.4 2.1l.6 1.2.5 1.2a16.2 16.2 0 01.7 2.5 14.6 14.6 0 01.3 2.5v2.3c0 .7 0 1.5-.2 2l-.2 1.4a11.6 11.6 0 004.6-5.4 14.4 14.4 0 00.6-8 24 24 0 00-3-7.9z"/><path class="cls-8" d="M344.9 97.6a13.7 13.7 0 011.6-.7 15.8 15.8 0 011.8-.6l2-.5c.7-.2 1.5-.2 2.2-.2a20.9 20.9 0 014.2.2l2 .3 1.6.5a10 10 0 012.4 1 3.7 3.7 0 01.8.8 4.3 4.3 0 01-1 0 6.8 6.8 0 01-1.1-.2 12.5 12.5 0 01-1.4-.3 30.9 30.9 0 00-3.4-.6 26 26 0 00-4 0 20.5 20.5 0 00-7.1 1.6 23.7 23.7 0 00-2.1 1l-.7.4h-.3l.1-.2a1.7 1.7 0 01.3-.7 6 6 0 01.8-.9 6.3 6.3 0 011.3-.9zM284.8 78.6a11.8 11.8 0 001.6 1.8 12.7 12.7 0 001.4 1l3.3-4.8 2-3 1.7-2.3h-.1a20.6 20.6 0 01-1.9-1 14 14 0 01-2.1-1.8 21.6 21.6 0 01-2-2.5l-1-1.5c0-.3-.2-.5-.4-.8l-.2-.4-.2-.3a1.3 1.3 0 00-.4-.5.7.7 0 00-.4-.2 2 2 0 00-1.1.6 8.7 8.7 0 00-1.9 3 11 11 0 00-.8 3.4 19 19 0 00.2 3.6 13 13 0 002.3 5.7zm-4.5-.8a16.7 16.7 0 002.4 3.3l.7.7a5.7 5.7 0 01.6.5l1.1 1 .8.8 1.2-1.6.2-.4a9 9 0 01-1.5-.8 10 10 0 01-2-1.9A13.7 13.7 0 01281 73a21.4 21.4 0 01-.3-3.9 12.4 12.4 0 01.9-4 9.8 9.8 0 012.3-3.5 3.3 3.3 0 012.2-.9 2.3 2.3 0 011.3.5 3.3 3.3 0 01.8.9l.8 1.6c.2.6.6 1 .9 1.4l.8 1.3 1 1.2a20.1 20.1 0 001.8 1.7 15.2 15.2 0 001.4 1.3l.3.2v-.2a44.1 44.1 0 015.3-5.2 33.4 33.4 0 013-2.3 30 30 0 013-2l2-1a17.6 17.6 0 01-2.5-.2 30.4 30.4 0 01-4.5-1 57.6 57.6 0 01-10.6-4.3 10.3 10.3 0 00-1.2-.5 7.5 7.5 0 00-1.2-.3 7.5 7.5 0 00-7.3 2.7 12 12 0 00-2.4 5.2 12.6 12.6 0 00-.3 1.5l-.2 1.5-.2 3a19.6 19.6 0 002.1 10zm-26.9 24.9a29.9 29.9 0 006.8 0 26.1 26.1 0 006.6-1.7 34.6 34.6 0 0011.3-7.6 68.8 68.8 0 007.2-8.4l-1-.3-.7-.4-.8-.4a10.7 10.7 0 01-1.5-1.2 14.2 14.2 0 01-3.2-3.6 21.7 21.7 0 01-3-11.4l.2-3.3c0-.6.2-1.1.3-1.7a13.4 13.4 0 01.3-1.6 15.3 15.3 0 013.1-6.6 10.8 10.8 0 016.4-3.8 10.2 10.2 0 013.8 0 9.4 9.4 0 011.8.5 10 10 0 011.6.7c1.7 1 3.4 1.8 5.1 2.6s3.3 1.3 4.8 1.9 3 1 4.2 1.3l3.2.8a6.5 6.5 0 001.2.3h.1l2.2-1a45.8 45.8 0 017-2 54 54 0 017.2-1.1 31 31 0 017.3.3l-7.1 1.2a59.5 59.5 0 00-6.9 1.6 69.5 69.5 0 00-6.6 2.4 46 46 0 00-6.2 3.2 33.9 33.9 0 00-2.9 2 28.2 28.2 0 00-2.7 2.1 38.4 38.4 0 00-4.8 5l-2 2.8-2 3-4 6a76.8 76.8 0 01-9.4 11.3A37.6 37.6 0 01268 104a28.5 28.5 0 01-7.3 1.9 33.9 33.9 0 01-7.5 0 45.1 45.1 0 01-6-1.2l1.8 1.2 3.1 1.8 3.3 1.5c1 .5 2.2.9 3.3 1.2a31.7 31.7 0 003.4.8 26 26 0 003.5.5 30 30 0 003.6.1h1.8l1.7-.2 1.8-.2 1.8-.3 1.7-.3 1.7-.5 1.8-.5 1.7-.6c1.1-.5 2.2-.8 3.3-1.4s2.3-.8 3.4-1.4l3.4-1.5-3 2.3c-1 .8-2 1.3-3 2a26.4 26.4 0 01-3.4 1.7l-1.8.8-1.7.6-1.8.6-1.8.5-1.9.4-1.8.3-1.9.3h-1.9a25.5 25.5 0 01-3.8 0 26.7 26.7 0 01-3.8-.5 31.8 31.8 0 01-3.7-.8c-1.3-.3-2.5-.8-3.6-1.2l-3.5-1.6-3.4-1.9-3-2-3-2.4-.5-.3-2.4-2.2-6.8-6 8.4 3.5a52.5 52.5 0 006.6 2.4 37.7 37.7 0 006.7 1.4z"/><path class="cls-8" d="M392.6 162.3a15.4 15.4 0 011.7.8l.8.4h.1l.3.1.1.1a1.5 1.5 0 00.3.2 1.5 1.5 0 00.2 0 1.9 1.9 0 00.3-.5 11 11 0 00.2-2.8 31.2 31.2 0 00-.3-3.1l-.3-1a1.8 1.8 0 00-.1-.4l-.3.6-1 1.6a28.5 28.5 0 01-1.7 3 9.1 9.1 0 01-.8.8zm-2.8-13l-1 .3c-.6.3-1.2.5-1.9.6a6.2 6.2 0 01.5.6 25.6 25.6 0 012.9 4 19 19 0 011.1 2.4 16 16 0 01.7 2.2v.5l1.3-2.3.8-1.6.5-1 .3-.4a1.7 1.7 0 01.5-.5.8.8 0 01.2-.1l-.2-.8-.5-.1a8.3 8.3 0 01-3.8-1.9 5.4 5.4 0 01-1.4-2zm-36.9 7l-.8.8a10 10 0 001.1 1 9.2 9.2 0 003.7 1.6 7.9 7.9 0 001.7.1 4.5 4.5 0 01-.4-1 15 15 0 01-.3-3.3v-1.8a6 6 0 000-.8 1.5 1.5 0 00-.3 0 6.1 6.1 0 00-.8.5 14.3 14.3 0 00-1.4 1 20.4 20.4 0 00-2.5 1.9zm-5-36.1a8.8 8.8 0 011.5 1.3 7.3 7.3 0 01.8 1.1 6.4 6.4 0 01.6 1.2 13.2 13.2 0 01.8 3.2l1.8.3c1.2.3 2.4.5 3.5.9a34.2 34.2 0 015 1.9 11.7 11.7 0 011.7 1l-1.9-.7-2.2-.7-2.8-.9-3.5-.8-1.5-.3.1 1.4.5 5.1.2 1.4 2-.2 4.2-.3a8.2 8.2 0 011.6.2 12 12 0 01-1.6.2 217.4 217.4 0 00-6 .8c0 1 .2 1.9.4 2.8l.4 1.2.6 1a12.3 12.3 0 001.4 2 14.3 14.3 0 004 3 16.9 16.9 0 002.3 1 18.7 18.7 0 002.5.8 31.9 31.9 0 005.1.8 51.5 51.5 0 0015.9-1.5l2.5-.8a14.2 14.2 0 002.2-1l1.2-.7.3-.5a13.8 13.8 0 001-2 24.2 24.2 0 001.2-4.1 7.5 7.5 0 01.4-1.4 1.4 1.4 0 01.5-.6 1.2 1.2 0 01.3.6 5.5 5.5 0 01.2 1.6 14.3 14.3 0 01-1.1 4.5 9.6 9.6 0 01-1.3 2.3 8 8 0 01-.5.6l.1 1a3 3 0 001 2 5.6 5.6 0 002.4 1.1l3.3.5 3.3.4a14.2 14.2 0 006.1-1 10.4 10.4 0 002.7-1.5 7.2 7.2 0 00.5-.5l.7-.6a14.4 14.4 0 001-1.1 22.4 22.4 0 001.3-1.9l-.7-.3a12.4 12.4 0 00-1.2-.6l-.9-.3a1.8 1.8 0 00-.3-.2 3.9 3.9 0 011.3.2 16 16 0 012 .7 22.8 22.8 0 002.2-5.3h-.2l-1.7-.4-1.2-.2h-.4l.4-.1a9.8 9.8 0 011.2 0l1.8.1a.6.6 0 00.2 0 28.6 28.6 0 00.7-3.8V133h-3a9.6 9.6 0 01-1.5 0 7.8 7.8 0 011.5-.4l1.7-.2h1.4a30.6 30.6 0 00-.1-4.8 22.4 22.4 0 00-.4-2.6c-.2 0-.2.2-.4.3l-.5.5-.4.4-.8.7-1.7 1.3-3.3 2.4a47.8 47.8 0 01-6.1 3.7 14.7 14.7 0 01-5.3 1.7 18.6 18.6 0 01-3.6.1l-.7-.1h-.4a9.6 9.6 0 001 0 9.4 9.4 0 001.5-.3 12.3 12.3 0 001.8-.8l4.6-2.5c1.7-1 3.7-2.4 5.7-3.9l3.1-2.4 1.6-1.3.8-.7.4-.4.2-.3c1.5-1.4.9-4.6-.8-6.4a2 2 0 00-.6-.4h.2H413.4l-1 .3-1.3.4a29.4 29.4 0 01-5.2 1 47.7 47.7 0 01-10.5-.4 57.8 57.8 0 01-10.2-2.4l-2.6-1-1.1-.6h-.2-.4a8 8 0 00-3.8 1 10 10 0 00-3.1 2.6 1 1 0 00-.2.2l.5.4 1 .7a83.6 83.6 0 016.4 5.5c3.8 3.5 6.7 6.6 8.9 8.6 1 1 1.7 2 2.4 2.5a2.9 2.9 0 00.8.4 2 2 0 01.3.1l-1.2-.4a15.2 15.2 0 01-3.3-1.4l-4.4-3.3c-1.7-1.3-3.4-2.8-5.3-4.5a81.7 81.7 0 00-7.1-5.8l-.5-.3-.3-.1-.2-.2a2.5 2.5 0 01-1-2l-.6.2a7.6 7.6 0 01-1.3.4 20.5 20.5 0 01-3 .4c-2.4.2-5 .1-7.8.1h-2.2l.3.1a34.4 34.4 0 013.3 1.9 25.3 25.3 0 012.7 2 19 19 0 012.2 1.8l.8.8.7.8a13 13 0 011.1 1.5 14 14 0 01-1.4-1.2l-.7-.7-.9-.8c-.7-.5-1.3-1.2-2.2-1.7a31.6 31.6 0 00-2.7-2 40.5 40.5 0 00-4.8-2.5 5.7 5.7 0 01-.6 0 19.6 19.6 0 00-4.3.7 7.3 7.3 0 00-1.5.6zm1.2 16l1.1-.2-.1-1.6-.1-5.2v-1.7l-.6-.1h-.7l.2 1.7a239 239 0 01.2 7zm.1 7l.2 8.5a8 8 0 001.9 4.6 7.5 7.5 0 01.6-1 15.8 15.8 0 012.5-2.3 14.3 14.3 0 011.5-1 7.8 7.8 0 011-.5 3.1 3.1 0 011.2-.3h.5a1 1 0 01.2.2 1 1 0 01.2.2 1.9 1.9 0 01.2.6v.3a10.4 10.4 0 01.1 1v1.8a19.8 19.8 0 00.2 3.1c0 .5 0 .8.2 1.2a.3.3 0 010 .1 10.4 10.4 0 001.4 0l4.7-.7a44 44 0 014.8-.3 64.3 64.3 0 0118 2.3l1 .3 1 .3.4.2.5-.8a4.3 4.3 0 00-.1-.4 8.4 8.4 0 01-.3-.9 18.6 18.6 0 00-.7-2l-1.2-2.2a45.5 45.5 0 00-2.6-4 8.8 8.8 0 01-.6-1 44.1 44.1 0 01-5.5 1.1 51.4 51.4 0 01-11.3.4 33.4 33.4 0 01-5.7-1 23.3 23.3 0 01-2.7-.9 19.5 19.5 0 01-2.7-1.2 16.2 16.2 0 01-4.6-3.8 16.5 16.5 0 01-1.7-2.5l-.7-1.3-.5-1.4v-.2l-.3-3-1.2.3.1 6.2zm-1.7-22.8a38 38 0 01.8 3.7l.3 2.5h.8l.5.1a14.6 14.6 0 00-.3-2.5 9.7 9.7 0 00-.9-2.3c-.1-.4-.4-.7-.6-1l-.4-.6h-.2zm-3.1 37.4c.3 3.1.4 6.3 1 9.2s1.4 5.7 3.8 6.4a22.6 22.6 0 004.3.7l4.6.5 9.4 1.2 2.4.4 2.3.5 2.3.5 2.3.7a23.3 23.3 0 008.7 1.3 19 19 0 008.2-3 16.2 16.2 0 006.1-6.2 15.3 15.3 0 001.4-8.5 31.7 31.7 0 00-1.9-7.7l-.7-.1-2-.3a14.7 14.7 0 011 2 23.7 23.7 0 011.3 5 10.4 10.4 0 010 3.5 3.7 3.7 0 01-1.1 2.2 2.4 2.4 0 01-1.7.6 3 3 0 01-1.4-.4 2.4 2.4 0 01-.5-.3H393.9l-.8-.4a18 18 0 00-1.7-.8l-1.7-.5-.9-.3-1-.2a59.4 59.4 0 00-8.2-1.5 70.3 70.3 0 00-8.9-.4 43.3 43.3 0 00-4.5.3l-4.7.7-2.6.1a16.6 16.6 0 01-2.6-.3 11.8 11.8 0 01-4.9-2 11.3 11.3 0 01-5-8.8v-8.6-5.7l-4 1.1-.7.2v.2a127.5 127.5 0 012.7 18.8zm1.5-36.1a16.3 16.3 0 00-2.5 3.3 12.2 12.2 0 00-.7 1.4h4l.1-2.2a34.7 34.7 0 01.4-3.6l-.6.4zm-.8 5.4h-2.8l-.6 1.5a25.6 25.6 0 00-.8 3.5 23.6 23.6 0 00-.5 2.8 16.5 16.5 0 01.7 1.8 11.4 11.4 0 01.4 1.4l.6-.2 4.3-1.2v-1.1l.2-6.5v-2zm-5.5 97.4l.6 1 1.2 2 2.5 4a170.3 170.3 0 0010.7 15.5c2 2.5 4 4.9 6.1 7.2l3.3 3.3 3.5 3c1.2 1 2.4 1.9 3.8 2.8l4 2.6a196.8 196.8 0 0016.2 9.6l16.7 9.1c2.8 1.5 5.6 3 8.4 4.7a83.5 83.5 0 018.1 5.2l1 .8 1 1a4.2 4.2 0 01.5.5l.4.5a9.6 9.6 0 01.7 1l2.7 4.1c1.6 2.8 3.1 5.5 4.9 8a44 44 0 005.8 7 33.3 33.3 0 007.3 5.4c4.4 1.8 8.8 3.6 13.2 5l3.3 1a25.5 25.5 0 003.3.6 15.3 15.3 0 001.7.1 7.4 7.4 0 001.4 0 2.1 2.1 0 00.6-.3 1.5 1.5 0 00.5-.2 2.1 2.1 0 00.7-.7l.7-.9v-.5l.2-1.5.3-1.9v-2.3a18.1 18.1 0 00-.2-2.4 16.2 16.2 0 00-.6-2.6 17.1 17.1 0 00-1.1-2.5 13.8 13.8 0 00-1.6-2.2 18.6 18.6 0 00-1.8-2l-2-1.5-1.9-1.2-1.7-.9-1.4-.7a7 7 0 01-1.1-.7 6.2 6.2 0 011.4 0 11.3 11.3 0 011.5.4l1.9.8a23.7 23.7 0 012.1 1.1l2.2 1.6a15.5 15.5 0 012 2 18 18 0 011.7 2.5 18.3 18.3 0 011.2 2.8 15.8 15.8 0 01.7 2.9 19.6 19.6 0 01.1 2.7 17.8 17.8 0 01-.2 2.4 16.5 16.5 0 01-.5 2 13 13 0 01-.5 1.5l-.2.3h.5l3 .7 3 .3a26.3 26.3 0 002.9 0 19.7 19.7 0 002.9-.6l1.3-.4 1.3-.5 1.2-.7 1.2-.8 1-1 .8-1 .8-1.2.6-1.2a32.5 32.5 0 001.5-11.1 25 25 0 00-1-5.5l-1.2-1.5-1.6-1.7a21.2 21.2 0 00-2-1.5 23.2 23.2 0 00-2.2-1.3l-2.1-1.1a42.2 42.2 0 00-4-1.7l-2.9-1.1a3.8 3.8 0 01-1-.7 2.8 2.8 0 011.2 0l1.4.1 1.7.5a34.2 34.2 0 014.2 1.5 20.2 20.2 0 012.3 1.2 19.3 19.3 0 012.3 1.3 16.2 16.2 0 011.8 1.3l-.3-.3a19.2 19.2 0 00-8.4-6.8l-5.5-2.3-5.6-2.3-5.4-2.8-5.2-3.2-4.9-3.6-4.5-4a25.4 25.4 0 01-2-2.2l-2-2.3c-.7-.8-1.5-1.5-2-2.3l-2-2.4-7-9.6c-1.1-1.6-2.4-3-3.6-4.6l-1.8-2.3-2-2.2c-2.6-3-5.3-5.8-8.2-8.5l-4.3-4-4.6-3.9-9.3-7.2-9.6-7.2a128 128 0 01-4.6-3.8l-2.4-1.9-2.2-2-2.2-2-2-2.2a54.4 54.4 0 01-4-4.6 22.7 22.7 0 01-1.7-2.5l-1.6-2.6-1.4-2.9a51.3 51.3 0 01-1.6 6.3l-1 3.1c-.3 1-.8 2.1-1.3 3.1l-1.5 3c-.5 1-1 2-1.7 3a30.3 30.3 0 01-2 2.7l-1.2 1.3-1.2 1.2a36 36 0 00-4.2 4.7l-.8 1.2a13.3 13.3 0 00-.7 1.3 4.2 4.2 0 00-.3 2.2l.9 4-3.2-2.4a6.2 6.2 0 01-.7-.5l-.4-.5a6.7 6.7 0 01-.7-1.2 10.6 10.6 0 01-.5-2.2 17.8 17.8 0 010-4v-.7l-1.5 1.4a42 42 0 01-3.8 2.8c-.6.5-1.3.8-2 1.2l-2 1.1-2.2 1-.3.2zm1.1-96.2l.4-1h-.3l-2.2.1-2.2.4-.7.1c.6.7 1.3 1.4 1.8 2.2a26.8 26.8 0 012.2 3.4c0-.5 0-1 .2-1.6a24.8 24.8 0 01.8-3.5zm-30.2-34.2a22.9 22.9 0 01-6.2 3.8 21.6 21.6 0 01-2.7.8 11.1 11.1 0 001.8.5 7.7 7.7 0 001.6 0 4.5 4.5 0 00.7 0 5.5 5.5 0 00.7 0 4.7 4.7 0 00.7-.2l.6-.3a5.5 5.5 0 001.1-.7l5.7-4.3-3.4 6.3a10.8 10.8 0 00-.7 1.5 13 13 0 00-.5 1.7l-.4 1.8a22 22 0 00-.3 1.9 27.7 27.7 0 00-.1 3.7v2c0 .6 0 1.2.2 1.8s0 1.3.2 2l.4 1.8a35.7 35.7 0 001 3.6 1.1 1.1 0 000 .2 21.1 21.1 0 01.7-2.5 20.6 20.6 0 01.8-2.5l1-2.3.6-1.1.6-1.1 1.4-2.2 2.6-3.9.2 4.7c.1 2.5 2 4.7 4.4 6.6l7.3 5.7a49.2 49.2 0 014.5 4l1.3-.2 2.2-.4 2.2-.2h.7a18.4 18.4 0 011-2 16.5 16.5 0 012.6-3.6l1-.8c.2-.3.6-.5.9-.7a9 9 0 012.2-1 16 16 0 012.8-.5c-1.1-.4-2.3-.9-3.5-1.2l-4-1.1-3.9-.8-3.7-.6c-1.2-.2-2.2-.2-3.3-.2l-2.8-.2h-4.1l2-.3a35.7 35.7 0 015-.2c1 0 2.1 0 3.3.2l3.7.5a59.8 59.8 0 018 1.9l3.9 1.4 1 .5 4.5-.1h7.7l3-.2a6.9 6.9 0 001.2-.2 9 9 0 001-.3 4.5 4.5 0 01.5-1.4 12.4 12.4 0 014.1-3.5 10.2 10.2 0 015.5-1.5 3.7 3.7 0 011 .1 1.6 1.6 0 01.4.2l.4.2 1 .5 2.3.8a55 55 0 009.6 2.3 44.4 44.4 0 009.9.3 32 32 0 004.6-.8c.4 0 .8-.2 1.1-.3l.6-.2.2-.1h.8v-.2a22.4 22.4 0 00-1.9-2.1 33.9 33.9 0 00-4.4-3.6l-5-3.1-2.6-1.4-2.6-1.3-2.7-1.2-1.4-.6-.6-.4-.8-.4a6.5 6.5 0 01-2.2-2.7 6.6 6.6 0 01-.6-3.2A7.8 7.8 0 01391 88a8.6 8.6 0 00-1.6 5.4 5.3 5.3 0 002.5 4.2l.5.3.7.2 1.4.6 1.4.5a5.2 5.2 0 01.8-.2 25.3 25.3 0 014.8-.4 17.4 17.4 0 012.6.1 9.3 9.3 0 012.3.7 2.5 2.5 0 01.8.5 1.6 1.6 0 01.6.5 1.6 1.6 0 01.2.7 2.7 2.7 0 01-.7-.1l-1.4-.4a16.8 16.8 0 00-4.4-.5c-1 0-2.1 0-3 .2l1.6.7 2.7 1.3 2.7 1.5 2.6 1.6a35.2 35.2 0 014.9 4 28 28 0 012 2.1l-2.6-5.1a38.3 38.3 0 01-2.6-6.2 17.9 17.9 0 01-.8-7.4 24.5 24.5 0 011.5-5.6l.8-1.6.4-.8v-.2l.2-.2.1-.4a5.8 5.8 0 00.5-1.4 8.8 8.8 0 00.3-3 15.5 15.5 0 00-2-6 31.3 31.3 0 00-3.3-5 51.7 51.7 0 00-3.8-4.1c-1.2-1.3-2.5-2.3-3.5-3.3s-2-1.7-2.9-2.2-1.3-1-1.8-1.4l-.5 1.4a15.2 15.2 0 01-.8 1.6 13.2 13.2 0 01-1 1.7 18.5 18.5 0 01-1 1.5 15.7 15.7 0 01-1.1 1.5 24.5 24.5 0 01-2.4 2.6 24.2 24.2 0 01-3 2.3l-1.6 1c-.6.4-1.2.5-1.7.8l-.7.4-.6-.7a34.7 34.7 0 00-9.9-8.8 43.1 43.1 0 00-6-3 50.6 50.6 0 00-6.3-2 58.5 58.5 0 00-6.6-1.2 66.9 66.9 0 00-6.6-.5 12.9 12.9 0 00-6.1 1.2 23.7 23.7 0 00-5.4 3.5 55.4 55.4 0 00-9 9.8 94.1 94.1 0 00-7.1 11.4l-1.6 3-1.4 3.2a18.7 18.7 0 01-4.6 5.7zM186.6 67.3l-2.2-.2-2.2-.5a20.6 20.6 0 01-4-1.6 14.4 14.4 0 01-2-1.1 17 17 0 01-1.8-1.3l-1.7-1.5-.6-.7v.5c.2 2 .5 3.9.9 5.8l.6 2.9.8 2.8a53.9 53.9 0 002 5.5A45.6 45.6 0 00179 83a43.8 43.8 0 007.3 9 44.9 44.9 0 004.5 3.8l2.4 1.7 2.5 1.5c.9.4 1.7 1 2.6 1.3l2.7 1.2a56.9 56.9 0 005.5 2 56.2 56.2 0 005.8 1.3l2.9.5 2.9.4a58.2 58.2 0 006 .3c2 0 3.8 0 5.8-.2l5.9-.7 4-.6-2.7 2.9-1.8 2a9.6 9.6 0 01-1 .9l-1 .8a25.1 25.1 0 01-2.3 1.5c-.7.5-1.6.8-2.4 1.3a25.5 25.5 0 01-2.5 1l-2.5.7-1.2.3 1.2.5 2.5.7 2.6.5 2.7.2 2.7.1h5.4a102 102 0 0111.2 0c1 0 2 .2 2.9.3s1.9.4 2.8.7a30.5 30.5 0 012.9 1.1l1.2.7.6.4h.1l.2.2.3.2a15.2 15.2 0 013.8 4.7 25.6 25.6 0 012.2 5.4 62 62 0 012 11c.4 3.8.6 7.4.8 11.1l.4 4.8.4-1.4 2.2-7.2.9-2.8 1.1 2.7 1.7 3.6 1.4 3.7 1.3 3.8c.5 1.3.7 2.5 1 3.8l.6 4 .4 4v4a32.2 32.2 0 01-.5 4 24.8 24.8 0 01-1 3.9l-.7 1.9-1 1.9-1.1 1.6c-.3.6-.8 1-1.2 1.6l-2.4 3.1-8.4 10.8h.4l9 .8 4.6.5 4.5.7 8.9 1.4 1.1.2 1.2.3 2.3.5 4.4 1.5a67 67 0 018.3 3.9 86.9 86.9 0 017.9 4.8l7 5h1l2.2-.3 2-.5 2.2-.5a42.6 42.6 0 008.1-3l2-1 1.8-1.1a36.5 36.5 0 003.4-2.6 35 35 0 003.1-3l1.4-1.7 1.3-1.7 8.5-11.9-6 13.3a23.1 23.1 0 00-2 6.7 11.3 11.3 0 000 1.3l1-1.3c.7-1 1.3-1.9 2.1-2.7l2.3-2.4 1.2-1.1 1-1.1a31 31 0 004.9-8l1.2-2.9 1.1-3a61.8 61.8 0 001.7-6.1l.6-3.2a40.8 40.8 0 00.7-6.3 13.6 13.6 0 00.1-1.7l-.7-.1-2.3-.5-2.2-.3-9.2-1-4.7-.6-2.3-.2h-.7l-.6-.2a9.5 9.5 0 01-1.3-.3 7.4 7.4 0 01-4.2-3.8 16.7 16.7 0 01-1.5-4.8c-.6-3.2-.8-6.4-1-9.5A123 123 0 00339 140l-2.9 1.2-2.7 1.5-2.3 1.4-2 1.3c-.6.3-1 .8-1.4 1.1l-1.3 1a15.4 15.4 0 011-1.3 11.4 11.4 0 011.4-1.2l1.9-1.4 2.3-1.5a30.7 30.7 0 015.8-2.8 13 13 0 00-.5-1.6 18.3 18.3 0 00-.8-2 21.6 21.6 0 00-2.3-3.7 31.1 31.1 0 00-2.9-3.2 32.9 32.9 0 00-3.7 1.2l-1.8.6-1.5.7-2.8 1.2-2 1-1.9.8 1.6-1.2 2-1.1 2.8-1.4 1.6-.7 1.7-.6 3.3-1.1-2.9-2.5c-2.4-1.9-5-3.6-7.5-5.7a21.1 21.1 0 01-3.5-3.6 10 10 0 01-.9-1.6 1 1 0 000 .2l-.6 1-1 2-.7 2.3a18.5 18.5 0 00-.5 2.2 15 15 0 00-.3 2.2 20 20 0 000 2.2 5.8 5.8 0 00.1 1l.3 1 2 9.8-4.8-8.6-1-1.8-1-1.9a20 20 0 01-.7-1.9 19.3 19.3 0 01-.7-1.9c-.5-1.3-.8-2.6-1-4l-.4-2c-.2-.6-.2-1.3-.3-2l-.2-2v-2a31.3 31.3 0 01.2-4c0-.8.1-1.5.3-2.1l.4-2 .1-.3-1 .1h-1a13 13 0 01-2 0 14 14 0 01-3.7-1.2 11.3 11.3 0 01-1.8-.9 8.1 8.1 0 01-.8-.6 7.4 7.4 0 01-.8-.8l-2.7-2.8 4 .3a9.7 9.7 0 002.9-.3 17.3 17.3 0 003-1 19.8 19.8 0 005.4-3.2 16.1 16.1 0 004-4.8l1.4-3c.4-1 1-2 1.6-3.1a97.5 97.5 0 017.4-11.8 56 56 0 019.5-10.2 30.2 30.2 0 013.7-2.6 19 19 0 012.4-1.3 17 17 0 013.5-1 14.7 14.7 0 013.7-.3 68 68 0 017 .5 63.5 63.5 0 016.8 1.4 50.9 50.9 0 016.7 2.2 42.2 42.2 0 016.2 3.2 36.2 36.2 0 015.6 4.2 33.2 33.2 0 014.1 4.5l.7-.5 1.4-1a41.8 41.8 0 004-3.4l1.1-1.2 1.2-1.3a15.3 15.3 0 001-1.3 16.9 16.9 0 001-1.4 14.7 14.7 0 001-1.5 15 15 0 00.8-1.5 16.8 16.8 0 00.7-1.6 14.6 14.6 0 00.6-1.6c0-.6.3-1.2.4-1.7l.3-1.8.2-1.8.2 1.8.1 1.8a12.6 12.6 0 01-.1 1.9 13.8 13.8 0 01-.3 1.8 4.4 4.4 0 01-.2.5l.3.2 2.1 1.1c1 .5 2 1.3 3.3 2.2a49.2 49.2 0 013.9 3 44.4 44.4 0 014.1 4.3 32.7 32.7 0 013.9 5.6 17.6 17.6 0 012.3 7 12 12 0 01-.3 4 8.8 8.8 0 01-.7 2l-.3.5-.1.3-.4.8-.8 1.6a13.3 13.3 0 00-.5 1.5 15.3 15.3 0 00-.7 3.1 16.6 16.6 0 00.5 6.2 39.6 39.6 0 002.3 5.8c.9 1.8 1.8 3.6 2.4 5.3a23.4 23.4 0 011.5 4.9l.2 2v1.8l.3-1.6.9-3c.5-2 1.2-4 1.9-5.9l2-5.7c.8-1.8 1.5-3.7 2-5.6l1.7-5.8a37.2 37.2 0 00.8-5.8 43.2 43.2 0 000-6 52.7 52.7 0 00-6.7-22.4 41.4 41.4 0 00-3.3-4.9 29 29 0 00-4-4.2 15.4 15.4 0 00-10-4.3h-1.2l-.2-1.2-.8-4.9c-.4-1.6-.7-3.2-1.2-4.7a45.2 45.2 0 00-3.9-9 37.9 37.9 0 00-5.7-7.9 41 41 0 00-7.7-6 46.5 46.5 0 00-8.9-4.1 55 55 0 00-9.5-2.4 70.6 70.6 0 00-10-1 97 97 0 00-9.9.4 108 108 0 00-19.6 3.4 95.3 95.3 0 00-9.5 3.1l-9.2 4-4.6 2.1-4.9 2-2.4.8-2.5.7c-1.7.4-3.3 1-5 1.3l-5.1.8c-1.7.2-3.5.3-5.3.2a31.2 31.2 0 01-4-.5l.3.3 1.1.6 1.2.7 1.2.5 1.2.5 1.3.3 1.2.3a11 11 0 001.3.2h1.3l.7.1h3.3l4.6-.3L289 27a37.2 37.2 0 01-4.5 3.3 41.3 41.3 0 01-4.9 2.7c-.8.4-1.6.8-2.5 1l-2.7 1-3 .6H266l-2.7-.3a135.5 135.5 0 00-10.4-.8 39.7 39.7 0 00-5.2.3 30.9 30.9 0 00-5 1c-.8.2-1.5.6-2.3.9l-2.3 1-2.2 1.3-2.5 1.4a17.4 17.4 0 01-2.8 1l-1.4.3-1.4.2a7.2 7.2 0 01-1.5 0h-1.5a19 19 0 01-2.9-.4 18.4 18.4 0 01-5.3-2.3 20.5 20.5 0 01-3.4-2.6 14.3 14.3 0 001.2 2 13.5 13.5 0 001 1.2 13.7 13.7 0 001 1c.4.5.8.8 1.2 1a15 15 0 001.2 1l1.3.8a15 15 0 001.4.7 23.1 23.1 0 003 1l1.5.3 1.6.3 7.3 1.1-7.2 1.9A34.3 34.3 0 00224 50a26.2 26.2 0 00-3.6 1.6l-1.7 1-1.7 1-3.3 2.3c-2.2 1.6-4.4 3.4-6.8 4.9-1.1.8-2.4 1.5-3.6 2.2l-1.9 1-2 1-2 .7a8.6 8.6 0 01-1 .3l-1 .3a26.6 26.6 0 01-4.2.9l-2.2.1h-2.3zm-18.2 78.1c-.2 3.7 0 7.4 0 11a187.7 187.7 0 01-1.2 19.3l-.4 3.2a34.9 34.9 0 017-10.4l1.4-1.3 1.7-1.2a9.9 9.9 0 011.6-1l.8-.4.4-.2a1 1 0 01.2 0l.1-.1.2-.1a13.2 13.2 0 017.8-.7l1.8.6 1.7.7a9.5 9.5 0 011.5 1c.5.2 1 .5 1.5 1a34.3 34.3 0 014.6 4.4 70 70 0 016.6 8.8 151.1 151.1 0 016.9 11.6l1.2-2 .9-1.4.8-1.3a25 25 0 001.3-2.7 39.5 39.5 0 002.7-9.7l-3.2-1.8c-.8-.4-1.6-.8-2.4-1.4l-2.6-1.9-3-2.1-3.2-2.6-3.3-3-3.4-3.3-7.3-7.3-3.9-3.7-4.1-3.6a40.4 40.4 0 00-4.5-3.4 16.1 16.1 0 00-5-2.3 4.2 4.2 0 00-2.5.1 3.5 3.5 0 00-1.7 1.9 14.7 14.7 0 00-1 5.3zM85.7 271.2a7.8 7.8 0 001 .9l1.3.7.7.4v.4l2-.2 1.4-.3a9.2 9.2 0 001.6-.5l.7-.3.8-.5a6.7 6.7 0 001.1-1.3 8 8 0 001-1.6 11.8 11.8 0 00.6-1.7 13.5 13.5 0 00.5-1.6l.4-1.5.6-2.3a3.4 3.4 0 01.5-.9 3 3 0 01.3 1 10.1 10.1 0 01-.1 2.4 15.8 15.8 0 01-.3 1.6 15.4 15.4 0 01-.4 1.8 10 10 0 01-.7 1.9 11 11 0 01-1 1.8A8.5 8.5 0 0196 273l-.9.6-1 .5a10.4 10.4 0 01-1.8.5 13.1 13.1 0 01-1.7.1 8.6 8.6 0 01-1.8-.1v.6l.4 1.1.5 1.2c.1.4.5.7.7 1l.7 1 .9 1c.3.4.6.5 1 .8a8.5 8.5 0 001 .7 7.4 7.4 0 001 .5 8 8 0 001.2.4 7 7 0 001.2.3 7.8 7.8 0 001.1.1 11.3 11.3 0 001.2 0l1.1-.3 1-.5 1-.6.4-.3h.4l2.4-.3.3-.2.6-.4c.3-.1.3-.4.5-.6a7.5 7.5 0 001-1.2l1-1.5.8-1.7.6-1.8a12.2 12.2 0 00.5-1.7l.8-3.2a13.5 13.5 0 01.6-2.3 3 3 0 01.5-.8 3 3 0 01.2.9 15.1 15.1 0 010 2.4c-.1 1-.4 2.1-.7 3.3a12 12 0 01-.4 2l-.7 1.8-.8 1.8a14.3 14.3 0 01-1.1 1.7 5 5 0 01-.9 1 14.1 14.1 0 002.8-1 10 10 0 003.2-2l.6-.6.6-.7a11 11 0 001-1.7l.8-1.8c.3-.6.4-1.3.6-2a33.6 33.6 0 00.7-4l.3-4.2.2-4.3.5-8.7c0-1.5.3-2.9.4-4.4l.4-4.4.5-4.3.6-4.4.7-4.3.6-2.8a32.7 32.7 0 01-9.2-2 41.8 41.8 0 01-9.7-5.4l-3.4-2.8a14 14 0 00-.4 1.8l-.4 2.8-.7 5.8-.9 5.8c0 1-.3 2-.5 2.9l-.5 2.9-.3 1.4-.5 1.5a21.4 21.4 0 01-2.7 5.5 17.3 17.3 0 01-2.1 2.4 12.5 12.5 0 01-2.6 2 7.8 7.8 0 01-1.5.7 6.9 6.9 0 01-1.2.4l-1.3 5.8-.6 3.2-.3 1.5-.2 1.6a20.5 20.5 0 00-.3 3.1 8 8 0 00.1 1.5 9.3 9.3 0 00.3 1.4 6.7 6.7 0 00.5 1.2 4 4 0 00.7 1zM23 105.7a62.8 62.8 0 017.2-7.7l.5-.5.3-.5a2 2 0 00.2-.5 1.9 1.9 0 000-.5c0-.1 0-.3-.2-.4a1 1 0 00-.2-.4 2.5 2.5 0 00-1-.6l-.6-.1H28l-.6.2a5 5 0 00-1.2.6 8.1 8.1 0 00-1.1.8l-.8.6-.7.6-3.6 4.1s-3.3 4-5.1 6.6a84.1 84.1 0 00-5.9 9.1 52.8 52.8 0 00-4.9 11.7 26.6 26.6 0 00-.4 13.6 23 23 0 008 11.8 37 37 0 003.1 2.3 37.9 37.9 0 003.4 1.9 34.7 34.7 0 007.2 2.6 44.2 44.2 0 0015.4.6 68.3 68.3 0 0014.7-3.7 109.5 109.5 0 0024-12.6 138 138 0 0019.7-16.5c.2-1.6.5-3.1.6-4.7s.7-3.3 1-4.9 1-3.2 1.4-4.8 1.3-3 2-4.6l2.4-4.3-1.7 4.7c-.6 1.6-1 3-1.3 4.6s-.8 3.2-1 4.8l-.4 2.4-.3 2.4c-.1 1.6-.4 3.2-.4 4.8s0 3.2 0 4.8l.1 2.5.2 2.4c0 1.6.3 3.2.4 4.8l.6 4.9.8 4.8.9 4.8.9 5a24.2 24.2 0 01.3 2.4V168.2a5.8 5.8 0 01-.7 3.2 2.7 2.7 0 01-2.2 1.1 5 5 0 01-1.8-.4 26.3 26.3 0 01-4.4-2.8 18.4 18.4 0 00-3.8-2.3 10.6 10.6 0 00-5-.2 9.2 9.2 0 00-4.4 2.5 23 23 0 00-3.3 4.4 46.2 46.2 0 00-2.4 5.2l-2 5.5L74 190c-.6 1.9-1.4 3.7-2.1 5.6s-1.7 3.7-2.6 5.5c-1.8 3.6-3.7 7-5.6 10.4-1 1.8-1.9 3.4-2.7 5.2l-1.3 2.7-1 2.6a30.4 30.4 0 00-1.6 5.4 15.6 15.6 0 000 5.4 10.3 10.3 0 002.2 4.6 15.4 15.4 0 004.2 3.4l.4.2a9 9 0 00.7-.7 15.4 15.4 0 002.8-4.8A45.4 45.4 0 0069 230a15.1 15.1 0 01.6-1.8 2.5 2.5 0 01.5-.7 2.4 2.4 0 01.3.8 8 8 0 010 2 35 35 0 01-.6 2.7 23.3 23.3 0 01-1 3.1 20.6 20.6 0 01-1.4 3 9.6 9.6 0 01-2 2.2 3.9 3.9 0 01-1 .7 2 2 0 01-.2 0l.1 1a9.6 9.6 0 00.4 1.2 6.7 6.7 0 00.5 1 6 6 0 00.7 1 6.2 6.2 0 00.9 1 9.8 9.8 0 002 1.3 7.6 7.6 0 001.2.5 6.5 6.5 0 001.2.3 6.6 6.6 0 001.3.2 9.2 9.2 0 001.3.1 9 9 0 001.2 0 8.2 8.2 0 001.3-.3 6.6 6.6 0 001.2-.3 8 8 0 001-.5l1-.7.8-.4.8.2.8-1a7 7 0 00.7-1 10.6 10.6 0 00.7-1.3l.6-1.3.6-1.5.4-1.5.4-1.5a20.7 20.7 0 00.6-2.7 10 10 0 01.6-1.9 2.7 2.7 0 01.5-.6 2.3 2.3 0 01.3.8 10.6 10.6 0 010 2 18.3 18.3 0 01-.5 2.7l-.3 1.6a13.3 13.3 0 01-.5 1.6l-.6 1.6-.7 1.4a8.7 8.7 0 01-.9 1.4 6.9 6.9 0 01-.8 1 4 4 0 01-.7.7l1.2.3H86a6 6 0 001.1-.4 4.4 4.4 0 001.2-.5 10.4 10.4 0 002-1.5 15.6 15.6 0 001.8-2 19.1 19.1 0 001.4-2.3 22.9 22.9 0 001.1-2.5l.5-1.3.3-1.4.7-2.8.5-2.8a245.5 245.5 0 002-11.6l.5-2.9a18.3 18.3 0 01.7-2.5l-1.6-1.6-2.1-2.2c-.6-.6-1-1.4-1.4-1.9l-1.2-1.5a33.2 33.2 0 003.3 2.6l2.4 2c1.8 1.3 4 3 6.6 4.7a46.5 46.5 0 009.4 4.7 29.1 29.1 0 0012 1.7 30 30 0 0012.8-4 44.8 44.8 0 0011.3-9.3 63.8 63.8 0 008.6-12.6c2.2-4.5 3.6-9.7 5.6-14.5l.5-1.2.7-5c.6-5.7.9-12.3 1-19.4 0-3.6-.2-7.2 0-11a15.5 15.5 0 011-5.7 4.4 4.4 0 012.2-2.2 5 5 0 013-.2 16.6 16.6 0 015.2 2.5 41.5 41.5 0 014.5 3.4c1.4 1.3 2.9 2.4 4.2 3.7l4 3.7 7.2 7.3 3.4 3.3 3.2 3 3.1 2.6c1 .9 2 1.5 3 2.2l2.5 2 2.3 1.4 3 2 .2-.7a59.7 59.7 0 00.6-8.5v-5.6-2l.6 1.9a31.6 31.6 0 011 5.6 49.1 49.1 0 010 8.8 38.3 38.3 0 01-2.5 11.3 22.4 22.4 0 01-1.4 3l-.8 1.5-.9 1.4-3.5 6a107 107 0 00-6.6 13 40.6 40.6 0 00-3.5 14.9v2l.3 1.8a20 20 0 00.8 3.7 10.6 10.6 0 00.8 1.8 15 15 0 00.8 1.7l1.1 1.6.6.7a7.2 7.2 0 00.6.8 36 36 0 002.7 3l1.4 1.4 1.6 1.2a42.6 42.6 0 006.5 4.5 50.2 50.2 0 0014.5 5 80 80 0 0014.6 1.1c4.7 0 9.1-.2 13.2-.6 8.2-.7 15-1.6 20-1.4a17 17 0 016 1 22.6 22.6 0 01-.5-2.3 11.2 11.2 0 010-3.5 21.9 21.9 0 001 3.2l1.2 3.1a53 53 0 003 6 68 68 0 003.7 5.6c.6 1 1.3 1.8 2 2.7l2.1 2.5a44.7 44.7 0 004.8 4.6 29 29 0 002.6 2 26.1 26.1 0 002.8 1.7 22.8 22.8 0 002.9 1.4 21.9 21.9 0 003 .9l1.5.2 1.6.1h1.6l1.5-.2h.4l.5.1a22.6 22.6 0 001-2.7c.2-.7.5-1.3.6-2.1a18.5 18.5 0 00.2-2.3 23.8 23.8 0 000-2.5 23.4 23.4 0 00-.5-2.6 24.4 24.4 0 00-.7-2.5 20.4 20.4 0 00-1.1-2.3l-.6-1-.6-1a13.6 13.6 0 00-1.3-1.8l-1.1-1.4a10.5 10.5 0 01-1-1.1 4.7 4.7 0 01-.6-1.1 5.6 5.6 0 011.2.5 11.5 11.5 0 011.2.9 19 19 0 011.3 1.3 14.7 14.7 0 011.4 1.8l.8 1c.3.3.4.7.6 1.1a16.8 16.8 0 011.2 2.5 22.1 22.1 0 01.9 2.7 20.2 20.2 0 01.5 5.5 19.8 19.8 0 01-.4 2.5 15.5 15.5 0 01-.7 2.2 11 11 0 01-.9 1.8 5.8 5.8 0 01-.6.9l.7.3 1.6.4 1.7.4a16 16 0 001.6.2l1.7.1a15.6 15.6 0 001.7 0 13.1 13.1 0 001.6-.2 19.5 19.5 0 003.2-.8 10.6 10.6 0 001.5-.6 8.8 8.8 0 001.4-.8 7.6 7.6 0 001.3-1 8 8 0 001-1 9.8 9.8 0 001-1.3l.5-1.3.4-1.5.1-.8h.1v-.5-1.7a30.5 30.5 0 000-4.1 19.6 19.6 0 00-.2-2.3 14.9 14.9 0 00-.7-2.3l-.4-1.1-.6-1-1.2-2a36.6 36.6 0 00-2.5-3.3L339 255a12.3 12.3 0 01-.8-1 6 6 0 01-.5-1.1 4.4 4.4 0 011 .5 16.7 16.7 0 012.4 2 32 32 0 012.7 3.4 18.9 18.9 0 011.4 2.1l.6 1.2.5 1.2a16.2 16.2 0 01.7 2.5 14.6 14.6 0 01.3 2.5v2.3c0 .7 0 1.5-.2 2l-.2 1.4a11.6 11.6 0 004.6-5.4 14.4 14.4 0 00.6-8 24 24 0 00-3.1-7.8 40.7 40.7 0 00-5.4-6.8 240.5 240.5 0 00-20-18.1c-2.3-1.9-4.7-3.6-7.2-5.3a88.2 88.2 0 00-7.5-4.7 71 71 0 00-8-3.8l-4.2-1.4-2-.6-1-.2-1.2-.2-9-1.6-4.4-.8-4.4-.6-9-1.1-9-1c-1.4-.3-3-.4-4.4-.5l-4.5-.6c3-.2 6-.5 9-.4l6.9.3 8.8-11.8 2.4-3.1 1.1-1.6 1-1.6.8-1.6.7-1.8a24 24 0 00.8-3.6 29.4 29.4 0 00.4-3.8v-3.8a37.4 37.4 0 00-.4-3.8 43.1 43.1 0 00-1.7-7.5l-1.2-3.6-1.4-3.6-.4-.8-1.2 4.2-1 3.6-.3 1.8a6.4 6.4 0 00-.1.8v.8l-.5 5.5-1.9-5a25.6 25.6 0 01-1.2-5.7l-.5-5.6-.9-11a59.7 59.7 0 00-2-10.6c-1-3.4-2.6-6.6-5.1-8.6l-.3-.2v-.1l-.7-.3-1.2-.7-2.2-1c-.7-.3-1.7-.4-2.6-.5l-2.6-.3a91.7 91.7 0 00-10.8 0l-5.6.1H231l-2.8-.3-2.9-.5-2.8-.8-2.7-1.2-2.5-1.6-3.2-1.9 3.8-.6 2.5-.4 2.3-.5 2.4-.7a23.6 23.6 0 002.2-.9 20.1 20.1 0 002.1-1l2-1.4.5-.4-1.8.2a84.5 84.5 0 01-15.4-.5l-3-.5a55.9 55.9 0 01-6-1.4 57.5 57.5 0 01-5.8-2L197 103l-2.7-1.4-2.7-1.6-2.6-1.7a45.6 45.6 0 01-4.8-4 46.5 46.5 0 01-7.7-9.7 44.5 44.5 0 01-2.9-5.5 57.2 57.2 0 01-2.1-5.9l-.7-2.4-2.3-.4a67 67 0 00-7.6-.8 73.8 73.8 0 00-11.7-.1 55.2 55.2 0 00-14.8 3 53 53 0 00-15.5 8.8 67.7 67.7 0 00-7.2 6.6 44 44 0 00-3.3 3.9 318.7 318.7 0 01-32.5 38 119.8 119.8 0 01-17.7 14.5 51.3 51.3 0 01-20.8 8.4A28.8 28.8 0 0117 148a22.5 22.5 0 01-2-1.7 22.4 22.4 0 01-1.7-2 16.7 16.7 0 01-2.4-4.5 19.4 19.4 0 01-.6-9.4 43 43 0 015.7-14.8 81.7 81.7 0 017-9.9zM22 84a8.5 8.5 0 00-1.2 2.9 6 6 0 00.2 2.8 8.7 8.7 0 001.6 2.6l1.1 1.1.7.5a4.7 4.7 0 01.7-.5 6.7 6.7 0 011.7-.7l.9-.3h2l.9.3a4.4 4.4 0 011.7 1.1 3 3 0 01.7 1 3.9 3.9 0 01.3 1 4 4 0 01-.1 1.1 4.2 4.2 0 01-.4 1l-.1.3 4.4.6 3 .3 3 .1a26.4 26.4 0 003 0h1.4l1.4-.2 1.4-.2 1.5-.3a17.5 17.5 0 002.7-.8 18.1 18.1 0 002.7-1.1l.6-.3.6-.4 1.2-.8a19.3 19.3 0 002.2-1.7 20.4 20.4 0 002-2.1 18.8 18.8 0 001.7-2.4 16.2 16.2 0 001.4-2.5l.7-1.4a10.3 10.3 0 01-1.1.3 9.6 9.6 0 01-1.2.2h-3.9l.3-1.5a5.5 5.5 0 01.3-1.3l.5-.8 1-1.3 1.8-2.2 1.8-2.2c.6-.7 1-1.5 1.5-2.2l.6-1.2.5-1.2a12.9 12.9 0 00.6-2.5 6.6 6.6 0 00.1-1.3 6.7 6.7 0 000-1.3V65.4l-.5-1.4a14.7 14.7 0 00-.8-2.7l-1-2.4-1.3-2.4-1.6-2.2c-.5-.8-1.2-1.4-1.8-2.1l-2-2-.7-.5.1.6a18.7 18.7 0 01.4 3.8 17 17 0 010 1.9 15.3 15.3 0 01-.3 1.9 12.5 12.5 0 01-.4 1.9 14 14 0 01-.6 1.8 11.2 11.2 0 01-.8 1.7 15.6 15.6 0 01-2.3 3.2l-.7.7-.8.6a10 10 0 01-1.6 1.1 12.7 12.7 0 01-1.7 1l-1.7.7-3.6 1.4 1.7-3.6.5-1 .3-1 .2-1v-1l-.2-1a7.3 7.3 0 00-.3-.9 8.4 8.4 0 00-1.1-1.5 8.8 8.8 0 00-.7-.8 7 7 0 00-.9-.7 14 14 0 00-1.3-1 19.3 19.3 0 01.7 1.9 11.6 11.6 0 01.5 4 6.4 6.4 0 01-1.6 4l-1 .8a9.4 9.4 0 01-1 .5l-1.6.7-3 1.4c-2.1 1-4.1 2.2-6 3.4a46.1 46.1 0 00-5.6 4 27.7 27.7 0 00-2.4 2.2 17.5 17.5 0 00-2 2.6zm-1.4 63l2 1 2.3.8 2.4.6a28.2 28.2 0 009.8.4c6.8-1 13.4-4.1 19.5-8a118.4 118.4 0 0017.2-14.3A321.9 321.9 0 00106.3 90a47.4 47.4 0 013.5-4 72.8 72.8 0 017.5-7 56.2 56.2 0 0116.3-9.2 59.2 59.2 0 0115.6-3.1 77.2 77.2 0 0112.2.1l4.4.5 3.3.4 1.2.2-.1-.7a65.4 65.4 0 01-1.3-12.2l-.3-7.3 3.2 6.7a15.3 15.3 0 002 3.1 17 17 0 001.2 1.6l1.4 1.3a19 19 0 001.5 1 15.5 15.5 0 001.7 1 18.8 18.8 0 003.5 1.4l1.9.3 1.9.3h1.9l2-.2a26.1 26.1 0 003.7-.7l1-.3.9-.3 1.9-.7 1.8-.8 1.7-1 3.4-2 6.6-4.8a67.9 67.9 0 017.1-4.6l2.8-1.3a14.2 14.2 0 01-1.4-.5 15.1 15.1 0 01-1.6-.8 16.4 16.4 0 01-1.6-1l-1.5-1-1.3-1.2c-.4-.5-1-.8-1.3-1.3l-1.1-1.4a17.2 17.2 0 01-1.8-3.2 11.2 11.2 0 01-.7-1.8 11.7 11.7 0 01-.4-1.8 16.3 16.3 0 01-.3-1.8V23l3 6.3a16.3 16.3 0 002.8 4 17.5 17.5 0 003.8 3.2 15 15 0 004.4 2 14.6 14.6 0 002.4.4 12 12 0 001.2 0 4.4 4.4 0 001.2 0l1.2-.2 1.1-.3a15.5 15.5 0 002.3-.9l2.1-1.1 2.4-1.4 2.6-1.2 2.7-1a34.2 34.2 0 015.5-1 46.5 46.5 0 015.5-.4 61.8 61.8 0 0110.8.8l2.6.3 1.4.1h3.7l2.4-.5 2.4-.8 2.3-1a38 38 0 004.5-2.5l.4-.3h-1l-1.6-.3-1.4-.3-1.5-.4-1.4-.6-1.4-.5-1.3-.8c-.5-.2-1-.4-1.3-.7l-1.2-1a9 9 0 01-1.2-.9l-1.1-1c-.8-.7-1.4-1.5-2-2.2l-5-5.2 6.8 2.9a25.8 25.8 0 009.2 2c1.6.1 3.2 0 4.9-.1l4.8-.8 4.8-1.2 2.4-.7 2.3-.8 4.7-1.7 4.6-2c3-1.4 6-3 9.3-4.2a96.7 96.7 0 019.8-3.1 112 112 0 0120-3.6A97.7 97.7 0 01356 0 78.5 78.5 0 01366 1a58 58 0 0110 2.5 49 49 0 019.5 4.4 44.1 44.1 0 018.1 6.5 40.5 40.5 0 016.3 8.4 47.4 47.4 0 014 9.6l1.3 5 .6 4a15.7 15.7 0 015.3 1.3 22.4 22.4 0 015.4 3.6 32.4 32.4 0 014.2 4.6 43.9 43.9 0 013.5 5.2 54.8 54.8 0 016.8 23.7 44.4 44.4 0 010 6.2 38.5 38.5 0 01-1 6.2c-.5 2-1 3.9-1.7 5.8l-2 5.8-2.2 5.7-2 5.7-.8 2.8-.6 3-.3 1.4-.1 1.5-.1.8a23.5 23.5 0 01.4 2.6 34 34 0 01.2 5.1c1.1 0 2.3 0 3.5.2l3.1.5 3.2.7 3.2 1c1 .3 2 .8 2.9 1.4l1.3.7 1.2.8a22.4 22.4 0 012.2 1.6 22 22 0 011.6 1.6 7.3 7.3 0 011 1.4 10 10 0 01.8 1.3l-1-1-1.2-1.3a16.4 16.4 0 00-1.7-1.5 19.9 19.9 0 00-2-1.5l-1.2-.8-1.4-.7c-.8-.5-1.8-.8-2.8-1.3s-2-.7-3-1l-3.2-.7-3.1-.5-3-.2h-.4l-.1 1.4a32.2 32.2 0 01-.7 4.1 52.9 52.9 0 0111 4.5c1 .6 2 1.2 3 2a26.4 26.4 0 012.6 2 22.5 22.5 0 012.2 2.2 27 27 0 011.8 2.2l1.2 2a9 9 0 01.8 1.7 13.9 13.9 0 01.5 1.5 15 15 0 01-.8-1.3 15 15 0 00-1-1.6 22.3 22.3 0 00-1.2-2 21.3 21.3 0 00-1.8-2 20.6 20.6 0 00-2.2-2.2 26.4 26.4 0 00-2.6-2l-2.9-1.8a31 31 0 00-6-3 45.6 45.6 0 00-4.7-1.5 25.3 25.3 0 01-2.3 6l2 1.3a39.8 39.8 0 014.2 3.2 29 29 0 013.6 3.8 16.1 16.1 0 011.4 2 15.8 15.8 0 011 1.9 12.8 12.8 0 01.7 1.7 6.6 6.6 0 01.3 1.3 9.6 9.6 0 01.1 1.2 10.3 10.3 0 01-.4-1 9.6 9.6 0 00-.5-1.4 11.5 11.5 0 00-.8-1.6 17.7 17.7 0 00-1-1.8 16.3 16.3 0 00-1.4-1.9 28.2 28.2 0 00-3.5-3.6 37.5 37.5 0 00-4-3.2l-2-1.3a21.6 21.6 0 01-1.7 2.4 19.2 19.2 0 01-1.3 1.4l-.6.6-.8.7a13 13 0 01-3.3 2 17 17 0 01-7.5 1.1l-1.1-.1a31.5 31.5 0 012 7.3 16.6 16.6 0 01-1.4 9.7 18.2 18.2 0 01-6.7 7.2l-2.1 1.2-.3.1-.2.1h-.1l-.6.3-1 .5a13.4 13.4 0 01-2.4.8 12.3 12.3 0 01-2.5.4 26 26 0 01-9.7-1.3l-2-.5a10.9 10.9 0 01.1 1.3v3.3l-.2 3.4v.2l2.6 5.2 1.6 2.4a22.7 22.7 0 001.6 2.4 50 50 0 003.8 4.5l2 2c.7.8 1.5 1.4 2.2 2l2.2 2 2.3 2 4.7 3.6c3 2.4 6.3 4.7 9.5 7s6.4 4.8 9.5 7.3l4.6 3.8 4.5 4c3 2.8 5.8 5.6 8.4 8.6l2 2.3 2 2.3c1.2 1.6 2.6 3.1 3.7 4.7l7 9.5 1.9 2.4 2 2.2 2 2.1a22.4 22.4 0 002 2.1l4.3 3.9 4.7 3.5 5 3 5.2 2.6 5.4 2.3c1.9.8 3.7 1.4 5.5 2.3a22.3 22.3 0 019.9 7.9 24.1 24.1 0 013.8 12 35.2 35.2 0 01-1.5 12.3l-.8 1.7-1 1.5-1 1.3-1.4 1.3-1.4 1-1.5.8-1.6.7-1.7.5a24.8 24.8 0 01-3.4.6 31.7 31.7 0 01-3.3 0l-3.4-.3-2.2-.5a4.3 4.3 0 01-1 .9 4 4 0 01-1 .5 4.4 4.4 0 01-1.2.3 4.6 4.6 0 01-1 .1 6 6 0 01-1 0 15.6 15.6 0 01-2-.1 29.2 29.2 0 01-3.7-.8l-3.5-1c-4.7-1.5-9.1-3.3-13.5-5.2h-.1a35.5 35.5 0 01-8-5.8 46.4 46.4 0 01-6.3-7.5c-1.8-2.7-3.4-5.5-5-8.3l-2.4-3.8a11.9 11.9 0 00-3-3.2 74.5 74.5 0 00-7.8-5l-8.3-4.7-16.8-9.2a395 395 0 01-20.5-12.4l-3.9-2.9c-1.3-1-2.4-2.1-3.6-3.2l-3.5-3.4a111.4 111.4 0 01-12-15 143 143 0 01-5.1-8.1l-2.5-4.1-1.2-2-.8-1.4c-1.2.4-2.4.8-3.7 1a33.9 33.9 0 01-4.6.7h-1l5 4.1c4.6 4 9 8.2 13.3 12.5a42.5 42.5 0 015.8 7.3 26.8 26.8 0 013.6 9 17.5 17.5 0 01-.8 9.7 14.7 14.7 0 01-6 7l-.3 1.2-.9 2a15.7 15.7 0 01-1.1 1.6 11.6 11.6 0 01-1.5 1.5 13.2 13.2 0 01-1.6 1.2 10.8 10.8 0 01-1.8 1 9.8 9.8 0 01-1.8.7 13.7 13.7 0 01-1.9.5 14 14 0 01-1.8.4 15.8 15.8 0 01-2 .1 17.5 17.5 0 01-1.9 0h-1.9c-.7 0-1.2-.2-1.9-.3l-1.8-.5-1.9-.5-1.3-.6-1.4.2H318c-.6 0-1.2-.3-1.8-.4a23 23 0 01-3.5-1 26.1 26.1 0 01-3.2-1.5 25.6 25.6 0 01-3-2 29.5 29.5 0 01-2.8-2.1 49 49 0 01-4.9-5 57.9 57.9 0 01-7.6-11.5 48.2 48.2 0 01-2.2-5l-.1.1a4 4 0 00-.4-.2 4.2 4.2 0 00-1.2-.5 15.7 15.7 0 00-5.1-.7c-4.7-.1-11.5.9-19.8 1.7-4.1.5-8.6.9-13.4 1A78.4 78.4 0 01234 257a53.1 53.1 0 01-15.5-5.3 46.9 46.9 0 01-7-4.7l-1.6-1.4-1.6-1.5a36.7 36.7 0 01-2.9-3 8.7 8.7 0 01-.7-.9l-.6-.9-1.3-1.8a19.2 19.2 0 01-1-2 12 12 0 01-.8-2 24 24 0 01-1-4.3l-.3-2.2V225a42.9 42.9 0 013.7-16 110.7 110.7 0 017-13.4l.7-1.3-.6-1.1-2.7-4.6c-1.1-2-2.6-4.4-4.4-7a67.4 67.4 0 00-6.4-8.4 19.5 19.5 0 00-9.5-6.5 10.3 10.3 0 00-6 .5h-.2l-.4.3-.8.4a8.7 8.7 0 00-1.5.8l-1.3 1-1.2 1.1a36 36 0 00-7.6 12.4c-1 2.3-1.8 4.7-2.7 7.2a71.5 71.5 0 01-3 7.5 66.4 66.4 0 01-9.2 13.2 47.3 47.3 0 01-12 9.9 32.3 32.3 0 01-14.2 4.3h-1.8l-.5 3.1c-.3 1.4-.4 2.9-.5 4.3l-.5 4.3-.4 4.3-.3 4.3c-.1 1.4-.3 2.8-.3 4.3l-.3 8.6-.2 4.3-.3 4.5a34.4 34.4 0 01-.8 4.5l-.6 2.2c-.2.8-.6 1.4-1 2.2a16.1 16.1 0 01-1.2 2l-.7 1-.8.9a12.8 12.8 0 01-4.1 2.7 20.2 20.2 0 01-4.5 1.3l-4 .6-1 .6-1.6.7-1.6.4a13.4 13.4 0 01-1.7 0 15 15 0 01-1.6 0 10 10 0 01-1.6-.5 8.9 8.9 0 01-1.5-.5 11 11 0 01-1.4-.8 13.2 13.2 0 01-1.3-.9 15.4 15.4 0 01-2.3-2.2l-.9-1.3a13.5 13.5 0 01-.8-1.4l-.6-1.4-.4-1.6-.1-.8a5.3 5.3 0 01-1-.6 8.6 8.6 0 01-1.4-1.2 7.8 7.8 0 01-1.1-1.6 9.2 9.2 0 01-.7-1.9 10.8 10.8 0 01-.3-1.8 13.5 13.5 0 010-1.8 25.5 25.5 0 01.4-3.4 57 57 0 011.5-6.5l1.6-5h-.3a15.4 15.4 0 01-1.9-.1l-1.6-.4-.8-.2a8 8 0 01-.7.4 12.4 12.4 0 01-1.5.7 10 10 0 01-1.5.5 11.2 11.2 0 01-1.6.2 14.3 14.3 0 01-1.6.1 13.6 13.6 0 01-1.6 0 10.1 10.1 0 01-1.5-.3 9.2 9.2 0 01-1.6-.4 12.7 12.7 0 01-2.8-1.4 9.1 9.1 0 01-1.4-1 9.2 9.2 0 01-1.1-1.1 9.8 9.8 0 01-1-1.4 9 9 0 01-.8-1.4 15 15 0 01-.5-1.6l-.1-.8a17 17 0 01-4.5-3.7 13.1 13.1 0 01-2.8-6 18.3 18.3 0 010-6.4 37 37 0 011.7-6c.3-1 .7-1.8 1.2-2.8l1.2-2.7c.8-1.8 1.8-3.6 2.7-5.3l2.9-5.2 2.7-5.2c.9-1.7 1.7-3.5 2.4-5.3s1.6-3.5 2.2-5.3l1.9-5.6a72 72 0 012-5.7 47.8 47.8 0 012.6-5.5 25.3 25.3 0 013.8-5 12.2 12.2 0 015.8-3.3 13.4 13.4 0 016.6.3 19.6 19.6 0 014.6 2.7 24.9 24.9 0 003.8 2.6 2.2 2.2 0 00.5.1 4.1 4.1 0 00.3-1.4V166.5l-.1-.6-.3-2.4-.8-4.8-.9-4.8-.7-5-.6-4.9-.3-5v-5-2A78.8 78.8 0 0190 141a121 121 0 01-8.8 6.7 113.5 113.5 0 01-24.7 13 71.8 71.8 0 01-15.3 4 46.7 46.7 0 01-16.5-.6 37.5 37.5 0 01-8-2.9c-1.4-.6-2.3-1.3-3.6-2a39.2 39.2 0 01-3.4-2.5 25.8 25.8 0 01-9-13.4 29.5 29.5 0 01.6-15.2 53.6 53.6 0 015.4-12.2A91.4 91.4 0 0118.5 100l3.9-4 .5-.5-.6-.5-1.4-1.3a10.5 10.5 0 01-2-3.3 8.2 8.2 0 01-.4-4 10.4 10.4 0 011.4-3.6 18.1 18.1 0 012.2-3 31.5 31.5 0 012.6-2.6 49.5 49.5 0 015.7-4.3c2-1.3 4.1-2.4 6.2-3.5l3.2-1.6 1.6-.7a4 4 0 00.5-.3l.5-.4c1-1 1-3.2.4-5.2a16.4 16.4 0 00-1.2-3 10.4 10.4 0 00-1.7-2.4l-5.6-5.4 7.1 2.9a40.7 40.7 0 014.6 2.3 16.8 16.8 0 012.2 1.5 9.4 9.4 0 011 1 9.8 9.8 0 01.9 1 10.3 10.3 0 011.5 2.3 11.1 11.1 0 01.5 1.4 13.1 13.1 0 01.3 1.4v1.9a8.2 8.2 0 001-.8l.7-.5.5-.5a5.8 5.8 0 001-1.2 7 7 0 00.8-1.4 9.6 9.6 0 00.6-1.3 11.5 11.5 0 00.5-1.5 10.7 10.7 0 00.3-1.6 9.3 9.3 0 00.2-1.6 11 11 0 000-1.6 15 15 0 000-1.6l-.2-1.7-.3-1.6-.5-1.5-.5-1.5-1.8-5 4 3 2.5 1.8 2.3 2 2.1 2 2 2.3 1.8 2.5 1.5 2.7 1.2 2.9a16.8 16.8 0 01.8 2.8l.3 1.4v.8l.1.8a7.8 7.8 0 010 1.6 9.5 9.5 0 01-.1 1.6 15.7 15.7 0 01-.9 3.1l-.6 1.5-.7 1.4a26.3 26.3 0 01-1.5 2.6l-2 2.3-1.7 2.1a5.9 5.9 0 00.8-.2 7.3 7.3 0 001.5-.8 15.4 15.4 0 001.4-1l4.3-3.7-2 5.2-1 2.9a19 19 0 01-1.4 2.9 17.5 17.5 0 01-1.6 2.7 23 23 0 01-2 2.6 26.9 26.9 0 01-2.1 2.3 23.1 23.1 0 01-2.6 2l-1.4.8-.7.5-.7.3a19.5 19.5 0 01-3 1.2 22 22 0 01-3 .8l-1.6.3-1.6.1-1.5.2H46l-3.1-.1-3.1-.3-3-.4-5.4-1-1.7 1.7c-1.2 1.2-3 3.1-5 5.7a79.5 79.5 0 00-6.7 9.7 40.6 40.6 0 00-5.3 14 17 17 0 00.7 8.1 14.1 14.1 0 002 3.8 18.5 18.5 0 001.5 1.6 17.6 17.6 0 001.7 1.4l1 .7.3.2z"/><path class="cls-7" d="M391 99.3a4.3 4.3 0 01-2.6-4.2 6 6 0 00.5 1.5 6.5 6.5 0 002.2 2.7zM285.8 81.3a9 9 0 001.5.8l-.2.4-1.1 1.6-.9-.8-.5-.4a47.2 47.2 0 01-2.2-5.5 11.8 11.8 0 001.3 2 10 10 0 002 2zM221.8 164.1a33.8 33.8 0 010 1 32.9 32.9 0 00-.7-4.6 24.6 24.6 0 01.7 3.6zM70.2 230.8a3 3 0 01.1 1l-.7 1.6.1-.4.5-2.2z"/><path class="cls-9" d="M370.2 99.8c-2.1-7.3-2-10.9-2-10.9-1.2 14.6-4.2 21.5 1.5 28.5a1 1 0 00.3 0 9 9 0 00.9-.2 4.5 4.5 0 01.6-1.4 13.8 13.8 0 017.6-4.9 26.4 26.4 0 01-8.9-11.2zM328 97.2c-7.4 13.8-3.7 17 16.1 16-18.8-2.8-16.3-15.2-16.1-16zM289.8 54a7.5 7.5 0 00-1.2-.2 7.5 7.5 0 00-7.2 2.7 12 12 0 00-2.5 5.2 12.6 12.6 0 00-.3 1.5l-.2 1.5-.2 3a19.6 19.6 0 002.1 10 16.7 16.7 0 002.4 3.4l.7.7a5.7 5.7 0 01.6.5l.6.6a47.2 47.2 0 01-2.2-5.6 14.4 14.4 0 01-1.3-4.3 21.4 21.4 0 01-.3-3.9 8 8 0 01.2-1.4 12.4 12.4 0 015.7-10 14 14 0 016-2.3l-1.7-.8a10.3 10.3 0 00-1.2-.5zM242 125c-20.4 1-21.7 19.9-19.7 39.1l.4 2.9c-.4-30.7 19.6-41 27.9-41.5a44.6 44.6 0 00-8.6-.5zM218.5 187a12.4 12.4 0 01-.6 1.2l-.8 1.5-.9 1.4-3.5 6a107 107 0 00-6.6 13 40.6 40.6 0 00-3.4 14.9v2l.3 1.8a20 20 0 00.8 3.7 10.6 10.6 0 00.8 1.8 15 15 0 00.8 1.7l1.1 1.6.6.7a7.2 7.2 0 00.6.8 36 36 0 002.7 3l1.3 1.2a37.8 37.8 0 0015.8 5.5v-.2c-31.1-6-15-47.6-9-61.6zM168.6 70.5a67 67 0 00-7.6-1 73.8 73.8 0 00-11.7 0 55.2 55.2 0 00-14.8 3 53 53 0 00-15.5 8.8 67.7 67.7 0 00-7.2 6.6 44 44 0 00-3.3 3.9 72.3 72.3 0 00-5 6.3 96.4 96.4 0 0167.7-26l-.3-1.3-2.3-.3zM105 110.1l-1.4 4.7c-.4 1.6-.8 3.1-1 4.7l-.4 2.4-.3 2.4c-.1 1.6-.3 3.2-.3 4.9s-.2 3.2 0 4.8v2.4l.2 2.5c0 1.6.3 3.2.5 4.8l.5 4.8.8 4.8.9 4.9.9 4.9a24.2 24.2 0 01.3 2.4v2.7a5.8 5.8 0 01-.7 3.2 2.7 2.7 0 01-2.2 1.1h-.3a36.1 36.1 0 013.4 2.5c6.5 5.3 1.6-16-1.1-28.7s.1-36.2.1-36.2zM92.8 167a10.6 10.6 0 00-5-.3 9.2 9.2 0 00-4.4 2.6 23 23 0 00-3.3 4.4 46.2 46.2 0 00-2.4 5.2l-2 5.5L74 190c-.6 1.9-1.4 3.7-2.1 5.6s-1.7 3.7-2.6 5.5c-1.8 3.6-3.7 7-5.6 10.4-1 1.8-1.9 3.4-2.7 5.2l-1.3 2.7-1 2.6a30.4 30.4 0 00-1.6 5.4l-.2 1.5c1.4-4.6 5.8-11.2 9.4-17.7 4.2-7.5 13.4-30.5 18.1-38.6 2.9-4.8 7.8-4.9 12.7-3l-.5-.3a18.4 18.4 0 00-3.7-2.4z"/><path class="cls-10" d="M216.5 172.4l3 2 .2-.7a59.7 59.7 0 00.6-8.6v-5.5-1c-3 3.5-5 9-10.4 9.2l1.7 1.2 2.6 2 2.3 1.4zM496.9 310a25 25 0 00-1-5.5l-1.2-1.5-1.6-1.7a21.2 21.2 0 00-2-1.5 23.2 23.2 0 00-2.2-1.3l-2.1-1.1a42.2 42.2 0 00-4-1.7l-2.9-1.1-.6-.3a3 3 0 01-.4-.4 2.8 2.8 0 011.2 0l1.4.1 1.7.5a34.2 34.2 0 014.2 1.5 20.2 20.2 0 012.3 1.2 19.3 19.3 0 012.3 1.3 16.2 16.2 0 011.8 1.3l-.3-.3a19.2 19.2 0 00-8.4-6.8l-5.5-2.3-5.6-2.3-5.4-2.8-5.2-3.2-4.9-3.6-4.5-4a25.4 25.4 0 01-2-2.2l-2-2.3c-.7-.8-1.5-1.5-2-2.3l-2-2.4-7-9.6c-1.1-1.6-2.4-3-3.6-4.6l-1.8-2.3-2-2.2c-2.6-3-5.3-5.8-8.2-8.5l-4.3-4-4.6-3.9-9.3-7.2-9.6-7.2a128 128 0 01-4.6-3.8l-2.4-1.9-2.2-2-2.2-2-2-2.2a54.4 54.4 0 01-4-4.6 22.7 22.7 0 01-1.7-2.5l-1.6-2.6-1.4-2.9a51.3 51.3 0 01-1.6 6.3l-1 3.1c-.3 1-.8 2.1-1.3 3.1l-1.5 3c-.5 1-1 2-1.7 3a30.3 30.3 0 01-2 2.7l-1.2 1.3-1.2 1.2a36 36 0 00-4.2 4.7l-.8 1.2a13.3 13.3 0 00-.7 1.3 4.2 4.2 0 00-.3 2.2l.9 4-3.2-2.4a6.2 6.2 0 01-.7-.5l-.4-.5a6.7 6.7 0 01-.7-1.2 10.6 10.6 0 01-.5-2.2 17.8 17.8 0 010-4v-.7l-1.5 1.4a42 42 0 01-3.8 2.8c-.6.5-1.3.8-2 1.2l-2 1.1-2.2 1-.3.1.6 1 1.2 2 2.4 4a170.3 170.3 0 0010.7 15.6l3.4 4c-2.2-4.1-4-8-4.4-10.5a12 12 0 014.2-11.4c3.5-3.1 9.5-5.2 18.6-5.1 18.6.3 44.3 14.7 56.9 29.6s20.1 27.8 33 33.5a92 92 0 0113 7c7 4.6 12 10.2 13.4 18.2 2.1 12.6-10.2 10-12.3 9.7a21.1 21.1 0 00-11.8-15.3l2.1 1.6a15.5 15.5 0 012 2 18 18 0 011.7 2.5 18.3 18.3 0 011.2 2.8 15.8 15.8 0 01.7 2.9 19.6 19.6 0 01.1 2.7 17.8 17.8 0 01-.2 2.4 16.5 16.5 0 01-.4 2 13 13 0 01-.6 1.5l-.2.3h.5l3 .7 3 .3a26.3 26.3 0 002.9 0 19.7 19.7 0 002.9-.6l1.3-.4 1.3-.5 1.2-.7 1.2-.8 1-1 .8-1 .8-1.2.6-1.2a32.5 32.5 0 001.5-11.1z"/><path class="cls-10" d="M474.1 316.2a17.1 17.1 0 00-1.1-2.5 13.8 13.8 0 00-1.6-2.2 18.6 18.6 0 00-1.8-2l-2-1.5-1.9-1.2-1.7-.9-1.4-.7c7.2 6.2 8.5 17.2 8.5 19.8 0 2.4-4.5 3.2-12 1.8l3 1 3.3 1a25.5 25.5 0 003.4.7 15.3 15.3 0 001.6.1 7.4 7.4 0 001.4-.1 2.1 2.1 0 00.7-.2 1.5 1.5 0 00.5-.3 2.1 2.1 0 00.7-.7l.7-.9v-.5l.2-1.5.3-1.9v-2.3a18.1 18.1 0 00-.2-2.4 16.2 16.2 0 00-.6-2.6zM398.7 74.6c.8 4.9-4.9 9.8-7.4 12.6a10.6 10.6 0 00-1.6 2.4 7.8 7.8 0 011.5-1.6 8.6 8.6 0 00-1.6 5.4 5.3 5.3 0 002.5 4.2l.5.3.7.3 1.4.5 1.4.6a5.2 5.2 0 01.8-.2 25.3 25.3 0 014.8-.5 17.4 17.4 0 012.6.2 9.3 9.3 0 012.3.6 2.5 2.5 0 01.8.5 1.6 1.6 0 01.6.5 1.6 1.6 0 01.2.7 2.7 2.7 0 01-.7 0l-1.4-.5a16.8 16.8 0 00-4.4-.4l-3 .1 1.6.7 2.7 1.4 2.7 1.4c.9.6 1.8 1 2.6 1.7a35.2 35.2 0 014.9 3.9 28 28 0 012 2.2l-2.6-5.2a38.3 38.3 0 01-2.6-6.1 17.9 17.9 0 01-.8-7.4 24.5 24.5 0 011.5-5.7l.8-1.6.4-.8.1-.2v-.2l.2-.4a5.8 5.8 0 00.5-1.4 8.8 8.8 0 00.3-3 15.5 15.5 0 00-1.9-5.9 31.3 31.3 0 00-3.4-5.1 51.7 51.7 0 00-3.8-4.1c-1.2-1.3-2.4-2.3-3.5-3.2l-2.9-2.3-1.8-1.3-.5 1.3a15.2 15.2 0 01-.8 1.7 13.2 13.2 0 01-1 1.6 18.5 18.5 0 01-1 1.6 15.7 15.7 0 01-1.1 1.4 24.5 24.5 0 01-2.6 2.7 20.3 20.3 0 01-2.3 1.8 64 64 0 005.3-3.4c3.1-2.4 6.2 3.3 7 8.2zM345.7 266.2a14.9 14.9 0 00-.7-2.3l-.5-1.1-.5-1-1.2-2a36.6 36.6 0 00-2.5-3.4l-1.1-1.3a9 9 0 01-.8-1c4.1 8.8 3.8 17 2 24.4-1.8 7.6-12.3 3.9-12.3 3.9a22.7 22.7 0 00-1.3-12.4 17.1 17.1 0 01.5 2.6 19.3 19.3 0 010 2.8 19.8 19.8 0 01-.4 2.5 15.5 15.5 0 01-.6 2.2 11 11 0 01-1 1.8 5.8 5.8 0 01-.6.8l.8.3 1.6.5 1.6.4a16 16 0 001.7.2h1.6a15.6 15.6 0 001.7 0 13.1 13.1 0 001.7-.1 19.5 19.5 0 003.2-.8 10.6 10.6 0 001.5-.6 8.8 8.8 0 001.4-.8 7.6 7.6 0 001.2-1 8 8 0 001.1-1 9.8 9.8 0 00.9-1.3l.6-1.4.3-1.4.2-.9v-.4l.1-1.7a30.5 30.5 0 000-4.2 19.6 19.6 0 00-.2-2.3zM325.5 277.6a18.5 18.5 0 00.3-2.4 23.8 23.8 0 000-2.5 23.4 23.4 0 00-.5-2.6 24.4 24.4 0 00-.8-2.4 20.4 20.4 0 00-1-2.3l-.6-1.1-.7-1a13.6 13.6 0 00-1.2-1.7l-1.1-1.4c4.3 11.3 5 18.7-3 22l1.5.2h3.1l1.6-.1h.8a22.6 22.6 0 001.2-2.7c0-.6.3-1.3.4-2z"/><path class="cls-10" d="M349.1 252.8a40.7 40.7 0 00-5.4-6.8 240.5 240.5 0 00-19.9-18c-2.3-2-4.7-3.7-7.2-5.4a88.2 88.2 0 00-7.6-4.6 71 71 0 00-8-3.8l-4.2-1.4-2-.6-1-.2-1.2-.2-9-1.6-4.4-.8-4.4-.6-4.4-.5a106.7 106.7 0 0168.5 37.9c6.7 8.3 6.6 8.6 5.7 13.4l.8 1.4.6 1.1.5 1.2a16.2 16.2 0 01.7 2.6 14.6 14.6 0 01.3 2.5v2.3c0 .7 0 1.4-.2 2l-.2 1.4a11.6 11.6 0 004.6-5.4 14.4 14.4 0 00.6-8 24 24 0 00-3.2-7.9zM263.7 205.5l9-11.8 2.3-3.1 1-1.5c.3-.4.8-1.1 1-1.7l.9-1.6.6-1.8a24 24 0 00.9-3.6 29.4 29.4 0 00.4-3.8v-3.8a37.4 37.4 0 00-.4-3.8 43.1 43.1 0 00-1.7-7.5l-1.2-3.6-1.4-3.6-.4-.8-1.2 4.3-1 3.5-.3 1.8a6.4 6.4 0 00-.1.8v.8l-.6 5.5-1.8-5a23.2 23.2 0 01-1.1-5 71.5 71.5 0 01-3.2 15 132.9 132.9 0 01-15.3 30.2 75.2 75.2 0 0113.6 0zM287.6 249.9a14.5 14.5 0 01-.9-3.2c-7.6-2.4-16-1.9-37.7 1.5a75.3 75.3 0 01-21.5.5 37.8 37.8 0 01-15.8-5.4h.1c.5.5 1 1 1.6 1.3a42.6 42.6 0 006.5 4.5 50.2 50.2 0 0014.5 5 80 80 0 0014.6 1.2c4.7 0 9.1-.2 13.2-.6 8.2-.7 15-1.6 20-1.4a17 17 0 016 1 22.6 22.6 0 01-.5-2.3 13.2 13.2 0 01-.1-2.1zM157.3 146.6c1.8 21 .5 65.5-27.5 65.8a69.7 69.7 0 01-34.5-9.4 22.6 22.6 0 01-8-8.2c.3 14.4 7.4 42.6-.6 44l-.4 1.6a13.3 13.3 0 01-.5 1.5l-.5 1.6-.7 1.5a8.7 8.7 0 01-.9 1.3 6.9 6.9 0 01-.8 1.1 4 4 0 01-.7.6l1.2.3 1.2.1 1.3-.1a6 6 0 001.1-.4 4.4 4.4 0 001.2-.5 10.4 10.4 0 002.1-1.4 15.6 15.6 0 001.8-2 19.1 19.1 0 001.4-2.3 22.9 22.9 0 001.1-2.5l.5-1.3.3-1.4.7-2.8.5-2.8a245.5 245.5 0 002-11.6l.5-2.9a18.3 18.3 0 01.7-2.5l-1.6-1.6-2.1-2.2c-.6-.6-1-1.4-1.4-1.9l-1.2-1.5a33.2 33.2 0 003.3 2.6l2.4 2c1.8 1.3 4 3 6.6 4.7a46.5 46.5 0 009.4 4.7 29.1 29.1 0 0012 1.7 30 30 0 0012.8-4 44.8 44.8 0 0011.3-9.3 63.8 63.8 0 008.6-12.6c2.2-4.5 3.6-9.7 5.6-14.5l.5-1.2.7-5c.6-5.7.9-12.3 1-19.4 0-3.6-.2-7.2 0-11a15.5 15.5 0 011-5.7 4.4 4.4 0 012.2-2.2 3.8 3.8 0 01.6-.2 232 232 0 00-12.9-29c-6.6-11.5-3.2 17.3-1.3 38.3z"/><path class="cls-10" d="M104.6 217.8L101 215a14 14 0 00-.4 1.8l-.4 2.8-.7 5.8-.8 5.8-.5 2.9c-2 17.3-.7 27.8-4.7 34.6a9 9 0 01-5 4.4l.2.5 1.9-.2 1.5-.3a9.2 9.2 0 001.5-.5l.8-.3.7-.5a6.7 6.7 0 001.2-1.3 8 8 0 00.9-1.6 11.8 11.8 0 00.7-1.7 13.5 13.5 0 00.5-1.6l.3-1.5.7-2.3a3.4 3.4 0 01.5-.9 3 3 0 01.2 1 10.1 10.1 0 010 2.4 15.8 15.8 0 01-.4 1.6 15.4 15.4 0 01-.4 1.8 10 10 0 01-.7 1.9 11 11 0 01-1 1.8A8.5 8.5 0 0196 273l-.9.6-1 .5a10.4 10.4 0 01-1.8.5 13.1 13.1 0 01-1.7.1 8.6 8.6 0 01-1.8-.1v.6l.4 1.1.5 1.2c.1.4.5.7.7 1l.7 1 .9 1c.3.4.6.5 1 .8a8.5 8.5 0 001 .7 7.4 7.4 0 001 .5 8 8 0 001.2.4 7 7 0 001.2.3 7.8 7.8 0 001.1.1 11.3 11.3 0 001.2 0l1.1-.3 1-.5 1-.6.4-.3h.4l2.4-.3.3-.2.6-.4c.3-.1.3-.4.5-.6a7.5 7.5 0 001-1.2l1-1.5.8-1.7.6-1.8a12.2 12.2 0 00.5-1.7l.8-3.2a13.5 13.5 0 01.6-2.3 3 3 0 01.5-.8 3 3 0 01.2.9 15.1 15.1 0 010 2.4c-.1 1-.4 2.1-.7 3.3a12 12 0 01-.4 2l-.7 1.8-.8 1.8a14.3 14.3 0 01-1.1 1.7 5 5 0 01-.9 1 14.1 14.1 0 002.8-1 10 10 0 003.2-2l.6-.6.6-.7a11 11 0 001-1.7l.8-1.8c.3-.6.4-1.3.6-2a33.6 33.6 0 00.7-4l.3-4.2.2-4.3.5-8.7c0-1.5.3-2.9.4-4.4l.4-4.4.5-4.3.6-4.4.7-4.3.6-2.8a32.7 32.7 0 01-9.2-2 41.8 41.8 0 01-9.6-5.4zM83.2 244.3l.7-1.4.5-1.5.5-1.5c0-.5.2-1 .4-1.5a20.7 20.7 0 00.6-2.6 10 10 0 01.6-2c-.2-1.5-.4-2.7-1-2.3-1.3.8-5.5 15.5-12.6 12.3-4.6-2-4.4-6.1-3.7-9l-.5 1.4a20.6 20.6 0 01-1.4 3 9.6 9.6 0 01-1.9 2.2 3.9 3.9 0 01-1 .6 2 2 0 01-.3.1l.2 1a9.6 9.6 0 00.3 1.2 6.7 6.7 0 00.6 1 6 6 0 00.7 1 6.2 6.2 0 00.8.9 9.8 9.8 0 002.1 1.3 7.6 7.6 0 001.2.5 6.5 6.5 0 001.2.3 6.6 6.6 0 001.3.2 9.2 9.2 0 001.3.1 9 9 0 001.2 0 8.2 8.2 0 001.3-.3 6.6 6.6 0 001.2-.3 8 8 0 001-.5l1-.7.8-.4.8.2.8-1a7 7 0 00.7-1 10.6 10.6 0 00.6-1.3zM64.5 240.3a15.4 15.4 0 002.8-4.8A45.4 45.4 0 0069 230l.5-1.6-1-3c-1.8 6.8-5.2 12.8-10.8 9.6a10.4 10.4 0 001.5 2.4 15.4 15.4 0 004.2 3.4l.4.2a9 9 0 00.7-.7zM88.3 138.8a179 179 0 0011-10c0-1.6.4-3.1.5-4.7s.7-3.3 1-5 1-3.1 1.4-4.7l.5-1.3C96 121.9 74.5 148 51 157.3a45.2 45.2 0 01-32.2 1.3 36 36 0 006.7 2.4 44.2 44.2 0 0015.4.6 68.3 68.3 0 0014.7-3.7 109.5 109.5 0 0024-12.6 160 160 0 008.8-6.5z"/><path class="cls-8" d="M360.8 73.7l-.6.3a3 3 0 01-1.1.3l-1 .2a3.6 3.6 0 01-1-.1l-1.3-.3c-.5 0-.8 0-1.3-.2s-.9 0-1.4 0a11.6 11.6 0 00-1.4 0 22.2 22.2 0 00-2.8.4c-.5 0-.9.2-1.3.3l-1.2.5a4 4 0 01-1 .3 3.4 3.4 0 01-1.2 0 6 6 0 01-1.1-.4l-.5-.2-.2-.5a3.6 3.6 0 01-.2-1.2 2.7 2.7 0 01.4-1.2 6.4 6.4 0 011-1.3l1.4-1c.5-.4 1.2-.8 1.8-1a12 12 0 012.1-.8 13.5 13.5 0 012.3-.3 16 16 0 012.3 0 14.3 14.3 0 012.2.3 10.6 10.6 0 012 .7 11 11 0 011.7 1 4.4 4.4 0 011.2 1 6.1 6.1 0 01.6 1.4 3 3 0 01-.2 1.1zM349.8 89.7c0 4 2.5 7.3 5.8 7.4s5.8-3.2 5.8-7.3-2.5-7.3-5.7-7.4-5.9 3.3-5.9 7.3z"/><path class="cls-1" d="M351.2 90.5a2.5 2.5 0 102.5-2.4 2.4 2.4 0 00-2.5 2.4z"/><path class="cls-8" d="M399.4 78.5V78a2.5 2.5 0 01.4-1 6.5 6.5 0 01.7-1 3.3 3.3 0 011.2-.6 11.7 11.7 0 013.2-.7 12.6 12.6 0 011.9 0 12 12 0 012 .4 12.2 12.2 0 012.2.7 9.2 9.2 0 011.8 1.3 8 8 0 011.4 1.6 5.5 5.5 0 01.9 1.7 4.3 4.3 0 01.2 1.6 2.7 2.7 0 01-.5 1.2 3.2 3.2 0 01-.8.8l-.4.2h-.6a10.6 10.6 0 01-1-.4 2.5 2.5 0 01-.9-.5 3.6 3.6 0 01-.7-.5 3 3 0 00-.6-.5 2.1 2.1 0 00-.7-.4l-.8-.4c-.2-.2-.6-.3-1-.3a7 7 0 00-1.1-.2c-.4-.1-.9 0-1.3-.2l-2.4-.1a3.2 3.2 0 01-1-.3l-1-.5a3.7 3.7 0 01-.7-.8l-.4-.5zM396.3 92.6c0 3.9 2.4 7 5.5 7s5.6-3 5.6-7-2.4-7-5.5-7-5.6 3.1-5.6 7z"/><path class="cls-1" d="M397.6 93.3A2.4 2.4 0 10400 91a2.3 2.3 0 00-2.4 2.3z"/><path class="cls-4" d="M294 91.5c-2.8 3-4 3-4.7 3.2a38.4 38.4 0 004.6-3.2zM199.2 90q3.4.8 7 1.3a20.2 20.2 0 01-7-1.3z"/><path class="cls-11" d="M345.8 3.2a108 108 0 00-19.6 3.4 95.3 95.3 0 00-9.5 3.1l-9.2 4-4.7 2.1-4.8 1.8-2.4.9-2.5.7c-1.7.4-3.3 1-5 1.3l-5.1.8c-1.7.2-3.5.3-5.3.2a31.2 31.2 0 01-4-.5l.3.3 1.1.6 1.2.7 1.2.5 1.2.5 1.3.3 1.2.3a11 11 0 001.3.2h1.3l.7.1h3.3l4.6-.3L289 27a37.2 37.2 0 01-4.5 3.3 41.3 41.3 0 01-4.9 2.7c-.8.4-1.6.8-2.5 1l-2.7 1-3 .6H266l-2.7-.3a135.5 135.5 0 00-10.4-.8 39.7 39.7 0 00-5.2.3 30.9 30.9 0 00-5 1c-.8.2-1.5.6-2.3.9l-2.3 1-2.2 1.3-2.5 1.4a17.4 17.4 0 01-2.8 1l-1.4.3-1.4.2a7.2 7.2 0 01-1.5 0h-1.5a19 19 0 01-2.9-.4 18.4 18.4 0 01-5.3-2.3 20.5 20.5 0 01-3.4-2.6 14.3 14.3 0 001.2 2 13.5 13.5 0 001 1.2 13.7 13.7 0 001 1c.4.5.8.8 1.2 1a15 15 0 001.2 1l1.3.8a15 15 0 001.4.7 23.1 23.1 0 003 1l1.5.3 1.6.3 6.8 1a54 54 0 0123.3-7.7 63 63 0 0036.7-12 105.9 105.9 0 0156.5-24.3l-5 .3zM223.9 50a26.2 26.2 0 00-3.6 1.6l-1.7 1-1.7 1-3.3 2.3c-2.2 1.6-4.4 3.4-6.8 4.9-1.1.8-2.4 1.5-3.6 2.2l-1.9 1-2 1-2 .7a8.6 8.6 0 01-1 .3l-1 .3a26.6 26.6 0 01-4.2.9l-2.2.1h-2.2l-2.2-.2-2.2-.5a20.6 20.6 0 01-4.2-1.6 14.4 14.4 0 01-2-1.1 17 17 0 01-1.7-1.3l-1.7-1.5-.6-.7v.5c.2 2 .5 3.9.9 5.8l.6 2.9.8 2.8a53.9 53.9 0 002 5.5A45.6 45.6 0 00179 83a43.8 43.8 0 007.3 9 44.9 44.9 0 004.5 3.8l2.4 1.7 2.5 1.5c.9.4 1.7 1 2.6 1.3l2.7 1.2a56.9 56.9 0 005.5 2c1.8.5 3.7 1 5.5 1.3-24.7-8.2-29-26-30.7-32.7 9.5 4.4 28-7.6 36.7-14.2a151.1 151.1 0 0115.7-10.7l-6.1 1.6a34.3 34.3 0 00-3.7 1.1z"/><path class="cls-12" d="M428.8 79.9a52.7 52.7 0 00-6.7-22.5 41.4 41.4 0 00-3.3-4.9 29 29 0 00-4-4.2 15.4 15.4 0 00-10-4.3h-1.2l-.2-1.2-.8-4.9-1.2-4.8a45.2 45.2 0 00-3.9-9 37.9 37.9 0 00-5.8-7.8 41 41 0 00-7.6-6c-1.5-1-3-1.7-4.6-2.5 10.1 6.9 21.2 19.7 20.7 35a28.5 28.5 0 01-1.9 9.7l-1.6-2.9v2.1a12.6 12.6 0 01-.1 1.9 13.8 13.8 0 01-.3 1.8 4.4 4.4 0 01-.1.5l.2.2 2.2 1.1 3.2 2.2a49.2 49.2 0 014 3 44.4 44.4 0 014 4.3 32.7 32.7 0 014 5.6 17.6 17.6 0 012.3 7 12 12 0 01-.4 4 8.8 8.8 0 01-.7 2l-.2.5-.2.3-.4.8-.7 1.6a13.3 13.3 0 00-.6 1.5 15.3 15.3 0 00-.7 3.1 16.6 16.6 0 00.6 6.2 39.6 39.6 0 002.3 5.8l2.4 5.3a23.4 23.4 0 011.4 4.9l.3 2v1.8l.3-1.6.8-3c.5-2 1.3-4 2-5.9l2-5.7 2-5.6 1.6-5.8a37.2 37.2 0 00.9-5.8 43.2 43.2 0 000-5.8z"/><path class="cls-12" d="M396.4 49c-2.4-4.3-4.5-8.2-9.8-12 3.4 10.2 2.8 17.8-.8 24.1a154 154 0 00-17-16.5c6.8 11.3 6.8 15.7 6.5 15a82.2 82.2 0 00-51.6-8.4c7 0 11.8 1 14.8 3.8a17 17 0 013.5-1 14.7 14.7 0 013.7-.3 68 68 0 017 .5 63.5 63.5 0 016.8 1.4 50.9 50.9 0 016.7 2.2 42.2 42.2 0 016.2 3.2 36.2 36.2 0 015.6 4.2 33.2 33.2 0 014.1 4.5l.7-.5 1.4-1a41.8 41.8 0 004-3.4l1.1-1.2 1.2-1.3a15.3 15.3 0 001-1.3 16.9 16.9 0 001-1.4 14.7 14.7 0 001-1.5 15 15 0 00.8-1.5 16.8 16.8 0 00.7-1.6 14.6 14.6 0 00.6-1.6c0-.6.3-1.2.4-1.7l.3-1.8zM306.6 57.7l3.2.8a6.5 6.5 0 001.3.3l2.2-1a45.8 45.8 0 017-2l2.1-.5a40 40 0 00-16.6-.2l-4.8.7 1.5.6 4.1 1.3z"/><path class="cls-12" d="M296.8 96.3h.4a9.7 9.7 0 003-.3 17.3 17.3 0 003-1 19.8 19.8 0 005.4-3.3 16.1 16.1 0 003.9-4.7l1.4-3c.4-1 1-2 1.6-3.1a97.5 97.5 0 017.4-11.8 56 56 0 019.5-10.2 30.2 30.2 0 013.7-2.6l1.4-.8-2.1.9c-9.8 3.8-22.4 5.7-31.7 21a89 89 0 01-9.7 14c7.6-6 15.8-15.7 21-18-2.1 3.1-9.1 13.6-18.2 22.9zM369.3 178.8l-2.3-.3c-3-.4-6-.8-9.2-1l-4.7-.6-2.3-.2-.6-.1-.6-.1a9.5 9.5 0 01-1.4-.4 7.4 7.4 0 01-4.1-3.7 16.7 16.7 0 01-1.6-4.9c-.5-3.2-.7-6.3-1-9.4A123 123 0 00339 140l-2.9 1.2-2.7 1.5-2.3 1.4-2 1.3c-.6.3-1 .8-1.4 1.1l-1.3 1a15.4 15.4 0 011-1.3 11.4 11.4 0 011.4-1.2l1.9-1.4 2.3-1.5a30.7 30.7 0 015.8-2.8 13 13 0 00-.5-1.6 18.3 18.3 0 00-.8-2 21.6 21.6 0 00-2.3-3.7 31.1 31.1 0 00-2.9-3.2 32.9 32.9 0 00-3.7 1.2l-1.8.6-1.5.7-2.8 1.2-2 1-1.9.8 1.6-1.2 2-1.1 2.8-1.4 1.6-.7 1.7-.6 3.3-1.1-2.9-2.5c-2.4-1.9-5-3.6-7.5-5.7a21.1 21.1 0 01-3.5-3.6 10 10 0 01-.9-1.6 1 1 0 000 .2l-.6 1-1 2-.7 2.3a18.5 18.5 0 00-.5 2.2 15 15 0 00-.3 2.2 20 20 0 000 2.2 5.8 5.8 0 00.1 1l.3 1 2 9.8-4.8-8.6-1-1.8-1-1.9a20 20 0 01-.7-1.9 19.3 19.3 0 01-.7-1.9c-.5-1.3-.8-2.6-1-4l-.4-2c-.2-.6-.2-1.3-.3-2l-.2-2v-2a31.3 31.3 0 01.2-4c0-.8.1-1.5.3-2.1l.4-2 .1-.3-1 .1h-1a13 13 0 01-2 0 14 14 0 01-3.7-1.2 11.3 11.3 0 01-1.8-.9 8.1 8.1 0 01-.8-.6 7.4 7.4 0 01-.8-.8l-.8-.8a58.4 58.4 0 01-18.2 12.8l1-.2 1.7-.5 1.7-.4 1.7-.7 3.4-1.3 3.4-1.4 3.3-1.5-2.9 2.2-3.1 2a26.6 26.6 0 01-3.2 1.7 62.3 62.3 0 0012.4-4.5c-10 8.7-14.9 21.3-13.6 40.6 1.3 19 2.8 34 1 37.8 2.4-4.4 7.4-17 7.4-17a66.3 66.3 0 01-20 38.5l4 .3 4.4.5 4.5.7 9 1.4 1.1.2 1.2.3 2.3.5 4.4 1.5a67 67 0 018.3 3.9 86.9 86.9 0 017.9 4.8l7 5h1l2.2-.3 2-.5 2.2-.5a42.6 42.6 0 008.1-3l2-1 1.8-1.1a36.5 36.5 0 003.4-2.6 35 35 0 003.1-3l1.4-1.7 1.3-1.7 8.5-11.9-6 13.3a23.1 23.1 0 00-2 6.7 11.3 11.3 0 000 1.3l1-1.3c.7-1 1.3-1.9 2.1-2.7l2.3-2.4 1.2-1.1 1-1.1a31 31 0 004.9-8l1.2-2.9 1.1-3a61.8 61.8 0 001.7-6.1l.6-3.2a40.8 40.8 0 00.7-6.3 13.6 13.6 0 00.1-1.7l-.7-.1-2.1-.5zM285.3 85l-1-.3-.7-.4-.8-.4a10.7 10.7 0 01-1.5-1.2 14.2 14.2 0 01-3.2-3.6 21.7 21.7 0 01-3-11.4l.2-3.3c0-.6.2-1.1.3-1.7a13.4 13.4 0 01.3-1.6l.2-.9a95.2 95.2 0 00-31.3 11 118 118 0 0121.5-3c-15.4 6.3-42.2 23.5-60 23.1 21 3.2 47.9.7 61.9-5.2a81 81 0 01-28.7 12.6l.6.3a52.5 52.5 0 006.6 2.4 37.7 37.7 0 006.8 1.3 29.9 29.9 0 006.8 0 26.1 26.1 0 006.5-1.7 34.6 34.6 0 0011.3-7.6 68.8 68.8 0 007.2-8.4zM236.2 99.4a44 44 0 01-8.4 1 60 60 0 0012.3 2.8 4.1 4.1 0 00.5 0l-2.2-1.8zM70.3 65.9v-.5l-.4-1.4a14.7 14.7 0 00-.8-2.7l-1-2.4-1.3-2.4-1.6-2.2c-.5-.8-1.2-1.4-1.8-2.1l-2-2-.7-.5.1.6a18.7 18.7 0 01.4 3.8 13 13 0 010 1.5c1.6 9.6 1.3 23-12.5 26.5a21.6 21.6 0 00-8.2 4.5A44 44 0 0059 81.5c.4 1.3-13 9-14.3 9A50 50 0 0062 86.7c-7.1 9-22.6 10.3-29.2 8a3.9 3.9 0 01.3 1.1 4 4 0 010 1.1 4.2 4.2 0 01-.4 1l-.2.3 4.4.6 3 .3 3 .1a26.4 26.4 0 003 0h1.5l1.4-.2 1.4-.2 1.5-.3a17.5 17.5 0 002.7-.8 18.1 18.1 0 002.7-1.1l.6-.3.6-.4 1.2-.8a19.3 19.3 0 002.2-1.7 20.4 20.4 0 002-2.1 18.8 18.8 0 001.7-2.4 16.2 16.2 0 001.4-2.5l.7-1.4a10.3 10.3 0 01-1.1.3 9.6 9.6 0 01-1.2.2H61.4l.3-1.5a5.5 5.5 0 01.3-1.3l.5-.8 1-1.3 1.8-2.2 1.8-2.2c.6-.7 1-1.5 1.5-2.2l.6-1.2.5-1.2a12.9 12.9 0 00.6-2.5 6.6 6.6 0 00.1-1.3 6.7 6.7 0 000-1.3zM26.1 92.3a2.4 2.4 0 01-.1.6l.7-.2 1-.3h2l.9.3a4.5 4.5 0 011 .5c-1.7-2.5-2.8-6.8.3-10-3.2.2-5.3 6.3-5.8 9z"/><path class="cls-4" d="M24.6 93.8a1.6 1.6 0 00-.3.1l-.3-.3a3.2 3.2 0 00.6.2z"/><path class="cls-11" d="M396.7 38l-.4-2-.4-2-.6-2a13.1 13.1 0 00-.7-1.8l-.9-1.9a9.8 9.8 0 00-1-1.7l-1.1-1.6-.6-.8-.7-.8L389 22a11.7 11.7 0 00-1.4-1.4l-1.6-1.3a9.8 9.8 0 00-1.5-1.2 31 31 0 00-3.4-2l-3.6-1.6 3.1 2.4 1.5 1.2 1.4 1.3a12 12 0 011.5 1.2l1.3 1.4a9.3 9.3 0 011.2 1.4l1.2 1.5.6.7.4.8 1 1.6a10.6 10.6 0 01.9 1.6l.7 1.7a11.7 11.7 0 01.6 1.8v.2a25.5 25.5 0 00-2-2.2l-1.5-1.5-1.7-1.4-1.7-1.5-1.8-1.2-1.8-1.1-2-1-2-1a20.5 20.5 0 00-2-.8l-2-.7-1-.4-1-.2-4.3-.9-9.6-2 8.7 5 1.7 1 1.6 1.1 1.4 1.2 1.5 1.4 1.2 1.4 1.2 1.5 1 1.7 1 1.6a24.7 24.7 0 012.4 7.4l.2 1.9V44.7l-.7-.8a21 21 0 00-1.7-1.7 22.6 22.6 0 00-1.8-1.6l-1.8-1.5-2-1.4-2-1.3-2.1-1.1a55.9 55.9 0 00-18-5.8l-6.6-1 5.6 3.6 2.4 1.6 1.2.8 1 .9a22.2 22.2 0 012.2 1.8l1 1a11.4 11.4 0 011 1l.9 1 .9 1.2.7 1.1a9.6 9.6 0 01.8 1.2l.9 1.9-.6-.3-2-.9-2.1-.7-1-.3-1-.2-2.2-.4a12.8 12.8 0 00-2.1-.2l-2.3-.2a13.9 13.9 0 00-2.1 0l-2.2.1a12.7 12.7 0 00-2.1.3l-2 .4-2.2.4-2 .7-4 1.4 4.3-.5 2-.4 2-.1 2-.2a11.6 11.6 0 012 0h2a12.5 12.5 0 012 0l2 .2a12.1 12.1 0 012 .3l2 .5 1 .2 1 .3 1.9.7 1.8.9a16.7 16.7 0 011.8.9l1.7 1 3 1.7-.9-3.1-.4-1.5-.6-1.5a23.8 23.8 0 00-1.3-2.8 11 11 0 00-.8-1.3l-.8-1.3-1-1.2-1-1.2a13.8 13.8 0 00-1-1.1L358 35a11.7 11.7 0 00-1.4-1.3 51.7 51.7 0 0110.1 4l2 1.2 1.9 1.2 1.8 1.3 1.7 1.4 1.7 1.5a19.4 19.4 0 011.5 1.5l1.5 1.7 1.3 1.7 2.2 2.8.6-3.3.4-2.2a19.8 19.8 0 00.1-4.4c0-.7 0-1.5-.2-2.2a28 28 0 00-2.7-8.2l-1-2-1.3-1.7c-.5-.5-.8-1.2-1.3-1.8l-1.4-1.6-.5-.4h.3a15 15 0 012 .8l1.7.8c.6.3 1.3.6 1.8 1l1.7 1 1.7 1.1 1.6 1.3 1.5 1.2 1.5 1.4 2.8 3 2.7 3.1 3.3 3.9z"/><path d="M356 182.7l-.5 1.2-.6 1.2a17.1 17.1 0 01-1.2 2.3l-.6 1-.7 1.2-.8 1-.7 1-1.6 2-.9 1-.7.7a55 55 0 00.3-6.4l-.1-2.4a9.7 9.7 0 00-.2-1.2c0-.4 0-.8-.2-1.2l-.3-1.2-.5-1.2-.6-1.2a14.3 14.3 0 00-1-1l-1.3-1.4-.8 2-.8 2.4a21 21 0 01-1.1 2.2 20.6 20.6 0 01-1.4 2.1 20 20 0 01-1.5 2 37.6 37.6 0 01-3.5 3.8l-2 1.7c-.6.5-1.2 1.1-2 1.6a94 94 0 01-13.8 9l.2-.5.5-1.6 1-3.2.7-3.3c.3-1 .4-2.1.6-3.2l.4-3.2.3-3.3.3-3.3.1-3.2v-3.3c0-2.2 0-4.4-.2-6.6l-.7-6.5-.6-3.3-.8-3.2-1.7-7-1.3 7.3a13 13 0 01-.3 1.8 12.2 12.2 0 01-.6 1.8 18.5 18.5 0 01-.7 1.8l-1 1.8-1 1.7-1 1.7-1.3 1.6-1.3 1.6-2.7 3c-.5.4-1 1-1.5 1.3l-1.5 1.4-3.2 2.4-.4.2a18.6 18.6 0 00.2-2.3 27 27 0 000-3v-3l-.3-3c0-1-.2-1.8-.3-2.8l-.7-5.7-.6-5.7-.2-2.8-.2-2.8v-2.8l.1-2.8.3-2.7.5-2.8.3-2.2-2 .6a7.3 7.3 0 00-.8.2l-.7.3a12.5 12.5 0 00-1.4.7 11.6 11.6 0 00-2.5 2 10.2 10.2 0 00-.7.9 69.2 69.2 0 01-.3-13.3l.2-2.2.4-2.2 1.1-4.4.8-2.1.8-2.1 1-2 1.1-2-1.5 1.7-1.3 2c-.5.7-.8 1.3-1.1 2l-1 2.1-.9 2.2-.6 2.2-.5 2.3-.4 2.3q-.4 2.3-.5 4.7l-.1 4.6a81.9 81.9 0 00.8 9.3l1 6.3 1.6-6.3a10.5 10.5 0 01.3-1.1 5.5 5.5 0 01.4-1.1 7 7 0 011.4-1.9 10 10 0 011.9-1.4l-.1.4-.3 3-.1 2.8v5.9l.3 2.9c.1 2 .4 3.8.6 5.7l.6 5.7.3 2.9.2 2.8.1 2.8v2.7a19.3 19.3 0 01-.4 2.7 20.8 20.8 0 01-.6 2.5l-.9 3.6 3-1.7 2-1 1.8-1.2 3.5-2.6 1.6-1.4c.6-.4 1-1 1.6-1.5l3-3.1 1.3-1.7 1.3-1.7 1.2-1.8 1.1-2 1-2 .1-.2v.2a87.6 87.6 0 011 12.6v3.2l-.2 3.2-.2 3.1-.3 3.2-.4 3.2-.6 3-.7 3.2-.8 3-.5 1.4-.6 1.4a21.3 21.3 0 01-1.3 2.7l-2.2 4.1 4-2a118 118 0 0014-8l2.1-1.7 2.2-1.6 2-1.8 2-1.8a40.5 40.5 0 003.8-4 24 24 0 001.6-2.2 22.8 22.8 0 001.5-2.4 25.7 25.7 0 001.2-2.5v-.1l.1.3.3 1 .2 1a9 9 0 01.2 1l.2 2.3a55 55 0 01-.4 8.8l-.3 3 2-2 2-2 .8-1 .8-1 1.6-2.2.7-1.1.6-1.2.7-1.2.5-1.2a18.3 18.3 0 001-2.5l.4-1.2.3-1.3a6.5 6.5 0 00.1-1.4v-1.3l-.2 1.3a5.5 5.5 0 01-.3 1.2z" fill="#684831"/><path class="cls-11" d="M345 13.6l-2.5-.4c-.9 0-1.7-.2-2.6-.3a20.1 20.1 0 00-2.5-.1h-2.6a20 20 0 00-2.6 0l-2.5.2a24.6 24.6 0 00-2.6.3l-2.6.3a24.8 24.8 0 00-2.5.5l-2.5.6a18.7 18.7 0 00-2.5.7l-2.5.9a15.7 15.7 0 00-2.4 1l-2.4 1.2-7.2 3.5 8.2-.6 1.9-.2h1.9l2 .2c.7 0 1.3.2 2 .3a60.8 60.8 0 00-5.6 1.5l-3.3 1.2-3 1.6a17 17 0 00-2.9 2 11.4 11.4 0 00-1.2 1.3 7 7 0 00-.9 1.5l1.5-.9 1.4-.7 3-1.4 3-1.1 3.1-1a58.6 58.6 0 019.6-1.7h8.5l-4.2-2.7a21 21 0 00-1.3-.8l-1-.4a20 20 0 00-2.1-.7L321 19l-2-.4-1.3-.2h.2a17 17 0 012.4-.8l2.4-.6a22 22 0 012.4-.4l2.4-.5a22.2 22.2 0 012.5-.3l2.4-.2a18.6 18.6 0 012.5-.2h9.9a18.9 18.9 0 005.1-.2 18.6 18.6 0 00-4.8-1.6zM314.2 33a23 23 0 00-2.8.4 30.9 30.9 0 00-5.6 1.7l-5.2 2.3c-1.7.8-3.3 1.7-5 2.3a27 27 0 01-5.1 1.6 17.9 17.9 0 01-2.7.3 19.9 19.9 0 01-2.6.1l-5.6-.1c-7.5-.4-15.1-.8-22.8 0l-5.7 1c-1 .1-1.8.4-2.8.6a27.7 27.7 0 00-2.8.8 44.7 44.7 0 00-5.4 2.1l-2.6 1.3L235 49l-9 5.3 10.3-2.5 1.9-.4c.6-.2 1.2-.2 1.9-.3a15.7 15.7 0 012-.3h2c1.3-.2 2.6 0 3.9 0l2 .1c.7 0 1.3.2 2 .3l2 .3 2 .5 1.8.6c.6.3 1.3.4 1.9.6a23.8 23.8 0 012.8 1.3l-4.3.3-2.3.4-2.2.5a43.7 43.7 0 00-4.6 1.4l-2 .8-2.2 1-4 2a87.7 87.7 0 00-7.5 4.9l-7 5.2a76.5 76.5 0 01-7.2 5 33.4 33.4 0 01-3.8 2 24.6 24.6 0 01-4 1.4 20.5 20.5 0 01-4.2.6H205l-2.2-.2a16.7 16.7 0 004.3 1.2 12.3 12.3 0 002.3 0 14.4 14.4 0 002.3 0l2.2-.5c.7-.1 1.5-.4 2.2-.7a31.4 31.4 0 004.1-2 71.6 71.6 0 007.6-4.7l7.2-5.2a86.6 86.6 0 017.3-4.6 49 49 0 015.9-2.8l2-.7c1.3-.5 2.7-.9 4-1.2l2.1-.5 2.1-.3a40.1 40.1 0 014.3-.3l4.2.1 3.8.1-2.5-2.5-.8-1-1-.7a21.6 21.6 0 00-1.8-1.2 29.1 29.1 0 00-4-1.9 28.6 28.6 0 00-6-1.8l-2.1-.4-2.1-.3-2.1-.3h-3l1.3-.5a25.3 25.3 0 012.6-.8l2.7-.6a61.4 61.4 0 0110.9-1.3l5.6-.1 11.2.2 5.7.2a22.3 22.3 0 002.9-.2 20.6 20.6 0 002.8-.4l1.4-.3 1.5-.5a29.3 29.3 0 002.7-1c1.8-.8 3.5-1.6 5.1-2.5l5-2.6a36.1 36.1 0 015-1.9 22 22 0 012.8-.6 28 28 0 012.7-.4l5.6-.7a28.9 28.9 0 00-5.7-.6 21.4 21.4 0 00-2.9.1z"/><path class="cls-4" d="M61.1 55.6c1.7 9.6 1.3 23-12.4 26.5a21.6 21.6 0 00-8.2 4.5A44 44 0 0059 81.5c.4 1.3-13 9-14.3 9A50 50 0 0062 86.7c-7.1 9-22.6 10.3-29.2 8a3 3 0 00-.6-.9 2.4 2.4 0 00-.7-.6c-1.7-2.5-2.8-6.8.3-10-3.2.2-5.4 6.3-5.8 9a2.4 2.4 0 01-.1.7 5.3 5.3 0 00-1 .5 3.1 3.1 0 00-.5.3 3.2 3.2 0 01-.5-.1l-.3-.2-.8-.8c-2.8-12 16.8-19.2 24.3-21.7l-.5 1.1 3.6-1.5 1.7-.7a12.7 12.7 0 001.7-.9 10 10 0 001.6-1.1l.8-.6.6-.8a15.6 15.6 0 002.3-3.1 11.2 11.2 0 00.8-1.8 14 14 0 00.7-1.8 12.5 12.5 0 00.4-1.9A15.3 15.3 0 0061 56v-.4z"/><path class="cls-11" d="M49.4 64.6v1l-.2 1c0 .4-.2.6-.3 1l-.5 1-1.2 2.3c-7.5 2.6-27.1 9.8-24.2 21.8a3.8 3.8 0 01-.4-.4 8.7 8.7 0 01-1.6-2.6 6 6 0 01-.2-2.9A8.5 8.5 0 0122 84a17.5 17.5 0 012-2.6 27.7 27.7 0 012.4-2.3 46.1 46.1 0 015.6-4 74.4 74.4 0 019-4.7l1.7-.7a9.4 9.4 0 001-.6l1-.7a6.4 6.4 0 001.5-4.1 11.6 11.6 0 00-.5-4 19.3 19.3 0 00-.6-1.9 14 14 0 011.3 1 7 7 0 01.8.8 8.8 8.8 0 01.7.8 8.4 8.4 0 011.1 1.7 7.3 7.3 0 01.3 1l.2.9z"/><path class="cls-12" d="M414.1 117c1.7 1.7 2.4 5 .9 6.4l-.3.3-.4.3-.8.7-1.5 1.4a150 150 0 01-8.8 6.3l-4.6 2.5a12.3 12.3 0 01-1.8.8 9.4 9.4 0 01-1.4.3 9.6 9.6 0 01-1 0h-.2a2 2 0 00-.4-.2 2.9 2.9 0 01-.8-.4c-.6-.4-1.3-1.5-2.4-2.5l-3.3-3.2c6.2 1.9 17.2-2 23.1-6.2 2.5-1.7 3-4.3 2.7-6.8l.3-.1h.1a2 2 0 01.6.4z"/><path class="cls-11" d="M382.7 114.5l2.5 1 1 .3c-6 .7-7 4.2-5.5 7.5-1.6-1.5-3.4-3-5.3-4.5l-1-.7-.5-.3a1 1 0 01.1-.3 10 10 0 013.2-2.5 8 8 0 013.7-1.1h.6l1.2.6z"/><path d="M364.4 124.7a10 10 0 016.4 1.3c11.8 7-.4 18.5-9 12.4a9 9 0 01-2.8-2.9 11.9 11.9 0 001.3-.2 9.2 9.2 0 00-1.5-.2 6.9 6.9 0 01-.3-5.8l1.1.4 2.2.7 1.9.7a11.7 11.7 0 00-1.8-1c-.8-.4-1.8-.9-3.1-1.3a7.5 7.5 0 014.9-4l.4.3.8.8.8.7a14 14 0 001.4 1.3 13 13 0 00-1.2-1.6l-.6-.7-.9-.9z" fill="#f8e8d9"/><path class="cls-6" d="M353.8 140.8a2.9 2.9 0 01-.3-.5l-.4-1.2a7.3 7.3 0 01.7 1.7z"/><path class="cls-15" d="M399.3 153.8h-.7l-1-.2-1-.2a14.7 14.7 0 011 2.1 23.7 23.7 0 011.3 5 10.4 10.4 0 010 3.4 3.7 3.7 0 01-1.1 2.2 2.4 2.4 0 01-1.7.6 3 3 0 01-.9-.1c-1.2.2-3.4.2-7.2-.6a63.6 63.6 0 00-25.4-.8c-7 1.3-13 8.7-17 3.4.6 2.3 1.6 4.3 3.6 4.9a22.6 22.6 0 004.3.6l4.6.6c3.1.3 6.2.6 9.4 1.2l2.4.3 2.3.5 2.3.5 2.3.7a23.3 23.3 0 008.7 1.3 19 19 0 008.3-3 16.2 16.2 0 006-6.1 15.3 15.3 0 001.4-8.6 31.7 31.7 0 00-1.9-7.7zM416.6 132.4h1.4a30.6 30.6 0 00-.1-4.8 22.4 22.4 0 00-.5-2.6l-.3.3-.5.5-.4.4-.8.7-1.7 1.3-3.3 2.5a47.8 47.8 0 01-6.2 3.6 14.7 14.7 0 01-5.3 1.7c3 .4 7.1 1.7 7.3 6.2.3 7.4-4.8 7.8-8.1 7-2.2-.5-3-5-3.1-9.4a15.1 15.1 0 01-1 3.3 9.6 9.6 0 01-1.2 2.2 8 8 0 01-.5.7v.9a3 3 0 001 2 5.6 5.6 0 002.4 1.2l2.3.4 1 .1 3.3.3a14.2 14.2 0 006.2-.9 10.4 10.4 0 002.6-1.5 7.2 7.2 0 00.6-.5l.6-.6a14.4 14.4 0 001-1.1 22.4 22.4 0 001.3-2l-.7-.2a12.4 12.4 0 00-1.2-.6l-.8-.4a1.8 1.8 0 00-.3-.1 3.9 3.9 0 011.2.1 16 16 0 012.1.7 22.8 22.8 0 002.2-5.3h-.2l-1.8-.3-1.1-.2h-.4l.4-.2a9.8 9.8 0 011.2 0l1.8.2a.6.6 0 00.2 0 28.6 28.6 0 00.7-3.8V133h-3a9.6 9.6 0 01-1.5 0 7.8 7.8 0 011.5-.4zM361.8 147.4a18.7 18.7 0 002.5.8 31.9 31.9 0 005.2.8 51.5 51.5 0 0015.8-1.5l2.5-.8a14.2 14.2 0 002.2-1l1.2-.8.3-.4a13.8 13.8 0 001-2 24.2 24.2 0 001.2-4.1 7.5 7.5 0 01.5-1.5 1.4 1.4 0 01.4-.5 1.2 1.2 0 01.3.6v-.9a3 3 0 01-.3-.1h-.5l-1.2-.5a15.2 15.2 0 01-3.3-1.4l-1.1-.8c1 2.4 2 5.6 1.8 7.5-.4 3.4-8.5 8-23 6.7-4.7-.4-7.7-1.2-9.7-2.2a12.7 12.7 0 001.8 1 16.9 16.9 0 002.4 1.1zM214 171.3l-2.6-1.9-1.9-1.3c-1.8.6-4.9.7-9.6-1.4-8.2-3.6-22.3-18.6-28-28.7a2.8 2.8 0 00-.7.2 3.5 3.5 0 00-1.8 1.9 14.7 14.7 0 00-1 5.3v11a187.7 187.7 0 01-1.1 19.3l-.5 3.2a34.9 34.9 0 017-10.4l1.4-1.3 1.7-1.2a9.9 9.9 0 011.6-1l.8-.4.4-.2a1 1 0 01.2 0l.1-.1.3-.1a13.2 13.2 0 017.7-.7l1.8.6 1.7.7a9.5 9.5 0 011.5 1c.5.2 1 .5 1.5 1a34.3 34.3 0 014.6 4.4 70 70 0 016.6 8.8 151.1 151.1 0 016.9 11.6l1.2-2 1-1.4.7-1.3a25 25 0 001.3-2.7 39.5 39.5 0 002.7-9.7l-3.2-1.8-2.3-1.4z"/><path d="M294.7 71.3h.2l-1.8 2.3-.8 1.2c-2-3.8-3.6-8.2-7.3-7.7-3.1.5-2.6 5-1.7 8.8a14.8 14.8 0 01-.8-3.2 19 19 0 01-.2-3.5 11 11 0 01.8-3.5 8.7 8.7 0 011.9-2.9 2 2 0 011.1-.6.7.7 0 01.4.2 1.3 1.3 0 01.5.5l.2.3.2.4.4.8 1 1.5a21.6 21.6 0 002 2.6 14 14 0 002 1.7 20.6 20.6 0 001.9 1z" fill="#e19b6a"/><path class="cls-17" d="M391.4 160.5a8.4 8.4 0 01-.2-.8 18.6 18.6 0 00-.8-2l-1.2-2.3a45.5 45.5 0 00-2.6-4 8.8 8.8 0 01-.6-.9l-3.7.8a17 17 0 015.9 9.6h.4l1 .3 1 .4.4.2.5-.8a4.3 4.3 0 000-.5zM351.2 141.2l-.5-1.4v-.1l-.4-3-1.2.2.1 6.3v3.1a10.8 10.8 0 014-1.6 16.8 16.8 0 01-1.4-2.1l-.6-1.4zM350.2 136l-.1-1.6-.1-5.2v-1.7h-.6l-.7-.1.2 1.7.2 6.5v.6l1.1-.2zM350 126.7a14.6 14.6 0 00-.3-2.5 9.7 9.7 0 00-.9-2.2l-.6-1.1-.4-.6h-.2a38 38 0 01.8 3.8l.3 2.5h.8l.5.1z"/></svg>