<svg width="1215" height="239" viewBox="0 0 1215 239" fill="none" xmlns="http://www.w3.org/2000/svg">
<rect width="1215" height="239" fill="#0A2540"/>
<path d="M525.285 170V161.06H522.33V159.89H529.62V161.06H526.68V170H525.285ZM531.214 170V159.32H532.564V163.46C533.104 162.6 533.909 162.17 534.979 162.17C535.749 162.17 536.329 162.395 536.719 162.845C537.119 163.295 537.319 163.95 537.319 164.81V170H535.969V164.915C535.969 164.365 535.854 163.965 535.624 163.715C535.394 163.455 535.034 163.325 534.544 163.325C533.794 163.325 533.134 163.615 532.564 164.195V170H531.214ZM542.814 170.21C540.474 170.21 539.304 168.89 539.304 166.25C539.304 164.94 539.589 163.935 540.159 163.235C540.739 162.525 541.559 162.17 542.619 162.17C543.649 162.17 544.424 162.505 544.944 163.175C545.474 163.845 545.739 164.835 545.739 166.145V166.655H540.654C540.694 167.485 540.894 168.09 541.254 168.47C541.624 168.85 542.184 169.04 542.934 169.04C543.674 169.04 544.374 168.855 545.034 168.485L545.409 169.535C544.699 169.985 543.834 170.21 542.814 170.21ZM542.604 163.265C541.394 163.265 540.744 164.075 540.654 165.695H544.389C544.379 164.075 543.784 163.265 542.604 163.265ZM551.165 170V162.365H552.275L552.425 163.76C552.995 162.77 553.915 162.275 555.185 162.275H555.365V163.58H555.2C554.57 163.58 554.045 163.66 553.625 163.82C553.205 163.97 552.835 164.21 552.515 164.54V170H551.165ZM559.982 170.21C557.642 170.21 556.472 168.89 556.472 166.25C556.472 164.94 556.757 163.935 557.327 163.235C557.907 162.525 558.727 162.17 559.787 162.17C560.817 162.17 561.592 162.505 562.112 163.175C562.642 163.845 562.907 164.835 562.907 166.145V166.655H557.822C557.862 167.485 558.062 168.09 558.422 168.47C558.792 168.85 559.352 169.04 560.102 169.04C560.842 169.04 561.542 168.855 562.202 168.485L562.577 169.535C561.867 169.985 561.002 170.21 559.982 170.21ZM559.772 163.265C558.562 163.265 557.912 164.075 557.822 165.695H561.557C561.547 164.075 560.952 163.265 559.772 163.265ZM564.906 170V162.365H566.016L566.166 163.535C566.646 162.625 567.406 162.17 568.446 162.17C569.546 162.17 570.256 162.635 570.576 163.565C571.146 162.635 571.936 162.17 572.946 162.17C574.486 162.17 575.256 163.06 575.256 164.84V170H573.906V164.96C573.906 164.4 573.796 163.99 573.576 163.73C573.356 163.46 573.011 163.325 572.541 163.325C571.841 163.325 571.236 163.615 570.726 164.195C570.746 164.385 570.756 164.59 570.756 164.81V170H569.406V164.93C569.406 163.86 568.946 163.325 568.026 163.325C567.356 163.325 566.766 163.615 566.256 164.195V170H564.906ZM580.574 170.21C579.494 170.21 578.664 169.865 578.084 169.175C577.514 168.475 577.229 167.475 577.229 166.175C577.229 164.865 577.514 163.87 578.084 163.19C578.654 162.51 579.484 162.17 580.574 162.17C581.654 162.17 582.479 162.51 583.049 163.19C583.619 163.87 583.904 164.865 583.904 166.175C583.904 167.475 583.614 168.475 583.034 169.175C582.464 169.865 581.644 170.21 580.574 170.21ZM580.574 169.085C581.234 169.085 581.719 168.85 582.029 168.38C582.349 167.9 582.509 167.165 582.509 166.175C582.509 165.185 582.349 164.46 582.029 164C581.719 163.53 581.234 163.295 580.574 163.295C579.914 163.295 579.424 163.53 579.104 164C578.784 164.46 578.624 165.185 578.624 166.175C578.624 167.165 578.784 167.9 579.104 168.38C579.424 168.85 579.914 169.085 580.574 169.085ZM588.583 170.12C587.723 170.12 587.113 169.925 586.753 169.535C586.393 169.135 586.213 168.475 586.213 167.555V163.4H584.848V162.425L585.733 162.38C585.953 162.36 586.108 162.315 586.198 162.245C586.288 162.175 586.338 162.045 586.348 161.855L586.468 160.16H587.548V162.365H590.008V163.4H587.548V167.66C587.548 168.19 587.638 168.555 587.818 168.755C588.008 168.945 588.358 169.04 588.868 169.04C589.018 169.04 589.168 169.035 589.318 169.025C589.468 169.005 589.663 168.975 589.903 168.935V169.97C589.563 170.07 589.123 170.12 588.583 170.12ZM594.758 170.21C592.418 170.21 591.248 168.89 591.248 166.25C591.248 164.94 591.533 163.935 592.103 163.235C592.683 162.525 593.503 162.17 594.563 162.17C595.593 162.17 596.368 162.505 596.888 163.175C597.418 163.845 597.683 164.835 597.683 166.145V166.655H592.598C592.638 167.485 592.838 168.09 593.198 168.47C593.568 168.85 594.128 169.04 594.878 169.04C595.618 169.04 596.318 168.855 596.978 168.485L597.353 169.535C596.643 169.985 595.778 170.21 594.758 170.21ZM594.548 163.265C593.338 163.265 592.688 164.075 592.598 165.695H596.333C596.323 164.075 595.728 163.265 594.548 163.265ZM606.064 170.21C603.794 170.21 602.659 168.885 602.659 166.235C602.659 164.925 602.959 163.92 603.559 163.22C604.169 162.52 605.039 162.17 606.169 162.17C606.939 162.17 607.619 162.325 608.209 162.635L607.849 163.7C607.559 163.57 607.289 163.475 607.039 163.415C606.799 163.355 606.544 163.325 606.274 163.325C605.514 163.325 604.954 163.56 604.594 164.03C604.234 164.5 604.054 165.24 604.054 166.25C604.054 167.2 604.229 167.905 604.579 168.365C604.939 168.815 605.489 169.04 606.229 169.04C606.849 169.04 607.409 168.905 607.909 168.635L608.224 169.685C607.684 170.035 606.964 170.21 606.064 170.21ZM612.932 170.21C611.852 170.21 611.022 169.865 610.442 169.175C609.872 168.475 609.587 167.475 609.587 166.175C609.587 164.865 609.872 163.87 610.442 163.19C611.012 162.51 611.842 162.17 612.932 162.17C614.012 162.17 614.837 162.51 615.407 163.19C615.977 163.87 616.262 164.865 616.262 166.175C616.262 167.475 615.972 168.475 615.392 169.175C614.822 169.865 614.002 170.21 612.932 170.21ZM612.932 169.085C613.592 169.085 614.077 168.85 614.387 168.38C614.707 167.9 614.867 167.165 614.867 166.175C614.867 165.185 614.707 164.46 614.387 164C614.077 163.53 613.592 163.295 612.932 163.295C612.272 163.295 611.782 163.53 611.462 164C611.142 164.46 610.982 165.185 610.982 166.175C610.982 167.165 611.142 167.9 611.462 168.38C611.782 168.85 612.272 169.085 612.932 169.085ZM620.728 170.195C619.818 170.195 619.118 169.85 618.628 169.16C618.138 168.47 617.893 167.48 617.893 166.19C617.893 164.88 618.133 163.885 618.613 163.205C619.103 162.515 619.803 162.17 620.713 162.17C621.763 162.17 622.558 162.565 623.098 163.355V159.32H624.448V170H623.323L623.203 168.905C622.923 169.315 622.568 169.635 622.138 169.865C621.718 170.085 621.248 170.195 620.728 170.195ZM621.133 169.055C621.893 169.055 622.548 168.77 623.098 168.2V164.18C622.548 163.61 621.893 163.325 621.133 163.325C620.513 163.325 620.048 163.56 619.738 164.03C619.438 164.49 619.288 165.21 619.288 166.19C619.288 167.17 619.438 167.895 619.738 168.365C620.038 168.825 620.503 169.055 621.133 169.055ZM630.016 170.21C627.676 170.21 626.506 168.89 626.506 166.25C626.506 164.94 626.791 163.935 627.361 163.235C627.941 162.525 628.761 162.17 629.821 162.17C630.851 162.17 631.626 162.505 632.146 163.175C632.676 163.845 632.941 164.835 632.941 166.145V166.655H627.856C627.896 167.485 628.096 168.09 628.456 168.47C628.826 168.85 629.386 169.04 630.136 169.04C630.876 169.04 631.576 168.855 632.236 168.485L632.611 169.535C631.901 169.985 631.036 170.21 630.016 170.21ZM629.806 163.265C628.596 163.265 627.946 164.075 627.856 165.695H631.591C631.581 164.075 630.986 163.265 629.806 163.265ZM634.697 166.43V165.185H638.957V166.43H634.697ZM644.167 170.21C641.827 170.21 640.657 168.89 640.657 166.25C640.657 164.94 640.942 163.935 641.512 163.235C642.092 162.525 642.912 162.17 643.972 162.17C645.002 162.17 645.777 162.505 646.297 163.175C646.827 163.845 647.092 164.835 647.092 166.145V166.655H642.007C642.047 167.485 642.247 168.09 642.607 168.47C642.977 168.85 643.537 169.04 644.287 169.04C645.027 169.04 645.727 168.855 646.387 168.485L646.762 169.535C646.052 169.985 645.187 170.21 644.167 170.21ZM643.957 163.265C642.747 163.265 642.097 164.075 642.007 165.695H645.742C645.732 164.075 645.137 163.265 643.957 163.265ZM651.49 170.195C650.58 170.195 649.88 169.85 649.39 169.16C648.9 168.47 648.655 167.48 648.655 166.19C648.655 164.88 648.895 163.885 649.375 163.205C649.865 162.515 650.565 162.17 651.475 162.17C652.525 162.17 653.32 162.565 653.86 163.355V159.32H655.21V170H654.085L653.965 168.905C653.685 169.315 653.33 169.635 652.9 169.865C652.48 170.085 652.01 170.195 651.49 170.195ZM651.895 169.055C652.655 169.055 653.31 168.77 653.86 168.2V164.18C653.31 163.61 652.655 163.325 651.895 163.325C651.275 163.325 650.81 163.56 650.5 164.03C650.2 164.49 650.05 165.21 650.05 166.19C650.05 167.17 650.2 167.895 650.5 168.365C650.8 168.825 651.265 169.055 651.895 169.055ZM657.898 160.76V159.275H659.398V160.76H657.898ZM658.048 170V163.4H656.893V162.365H659.383V170H658.048ZM664.638 170.12C663.778 170.12 663.168 169.925 662.808 169.535C662.448 169.135 662.268 168.475 662.268 167.555V163.4H660.903V162.425L661.788 162.38C662.008 162.36 662.163 162.315 662.253 162.245C662.343 162.175 662.393 162.045 662.403 161.855L662.523 160.16H663.603V162.365H666.063V163.4H663.603V167.66C663.603 168.19 663.693 168.555 663.873 168.755C664.063 168.945 664.413 169.04 664.923 169.04C665.073 169.04 665.223 169.035 665.373 169.025C665.523 169.005 665.718 168.975 665.958 168.935V169.97C665.618 170.07 665.178 170.12 664.638 170.12ZM670.647 170.21C669.567 170.21 668.737 169.865 668.157 169.175C667.587 168.475 667.302 167.475 667.302 166.175C667.302 164.865 667.587 163.87 668.157 163.19C668.727 162.51 669.557 162.17 670.647 162.17C671.727 162.17 672.552 162.51 673.122 163.19C673.692 163.87 673.977 164.865 673.977 166.175C673.977 167.475 673.687 168.475 673.107 169.175C672.537 169.865 671.717 170.21 670.647 170.21ZM670.647 169.085C671.307 169.085 671.792 168.85 672.102 168.38C672.422 167.9 672.582 167.165 672.582 166.175C672.582 165.185 672.422 164.46 672.102 164C671.792 163.53 671.307 163.295 670.647 163.295C669.987 163.295 669.497 163.53 669.177 164C668.857 164.46 668.697 165.185 668.697 166.175C668.697 167.165 668.857 167.9 669.177 168.38C669.497 168.85 669.987 169.085 670.647 169.085ZM676.043 170V162.365H677.153L677.303 163.76C677.873 162.77 678.793 162.275 680.063 162.275H680.243V163.58H680.078C679.448 163.58 678.923 163.66 678.503 163.82C678.083 163.97 677.713 164.21 677.393 164.54V170H676.043ZM685.633 170V163.4H684.223V162.365H685.633V161.765C685.633 160.035 686.483 159.17 688.183 159.17C688.393 159.17 688.598 159.18 688.798 159.2C688.998 159.22 689.193 159.255 689.383 159.305V160.34C689.183 160.3 689.013 160.275 688.873 160.265C688.743 160.255 688.593 160.25 688.423 160.25C687.843 160.25 687.448 160.36 687.238 160.58C687.038 160.79 686.938 161.2 686.938 161.81V162.365H689.383V163.4H686.953V170H685.633ZM693.733 170.21C692.653 170.21 691.823 169.865 691.243 169.175C690.673 168.475 690.388 167.475 690.388 166.175C690.388 164.865 690.673 163.87 691.243 163.19C691.813 162.51 692.643 162.17 693.733 162.17C694.813 162.17 695.638 162.51 696.208 163.19C696.778 163.87 697.063 164.865 697.063 166.175C697.063 167.475 696.773 168.475 696.193 169.175C695.623 169.865 694.803 170.21 693.733 170.21ZM693.733 169.085C694.393 169.085 694.878 168.85 695.188 168.38C695.508 167.9 695.668 167.165 695.668 166.175C695.668 165.185 695.508 164.46 695.188 164C694.878 163.53 694.393 163.295 693.733 163.295C693.073 163.295 692.583 163.53 692.263 164C691.943 164.46 691.783 165.185 691.783 166.175C691.783 167.165 691.943 167.9 692.263 168.38C692.583 168.85 693.073 169.085 693.733 169.085ZM699.129 170V162.365H700.239L700.389 163.76C700.959 162.77 701.879 162.275 703.149 162.275H703.329V163.58H703.164C702.534 163.58 702.009 163.66 701.589 163.82C701.169 163.97 700.799 164.21 700.479 164.54V170H699.129ZM708.449 170V159.89H711.794C714.004 159.89 715.109 160.915 715.109 162.965C715.109 164.535 714.444 165.47 713.114 165.77L715.859 170H714.239L711.704 165.965H709.829V170H708.449ZM711.704 161.03H709.829V164.84H711.719C712.429 164.84 712.939 164.69 713.249 164.39C713.559 164.09 713.714 163.61 713.714 162.95C713.714 162.28 713.554 161.795 713.234 161.495C712.924 161.185 712.414 161.03 711.704 161.03ZM720.159 170.21C719.079 170.21 718.249 169.865 717.669 169.175C717.099 168.475 716.814 167.475 716.814 166.175C716.814 164.865 717.099 163.87 717.669 163.19C718.239 162.51 719.069 162.17 720.159 162.17C721.239 162.17 722.064 162.51 722.634 163.19C723.204 163.87 723.489 164.865 723.489 166.175C723.489 167.475 723.199 168.475 722.619 169.175C722.049 169.865 721.229 170.21 720.159 170.21ZM720.159 169.085C720.819 169.085 721.304 168.85 721.614 168.38C721.934 167.9 722.094 167.165 722.094 166.175C722.094 165.185 721.934 164.46 721.614 164C721.304 163.53 720.819 163.295 720.159 163.295C719.499 163.295 719.009 163.53 718.689 164C718.369 164.46 718.209 165.185 718.209 166.175C718.209 167.165 718.369 167.9 718.689 168.38C719.009 168.85 719.499 169.085 720.159 169.085ZM728.51 170.21C726.24 170.21 725.105 168.885 725.105 166.235C725.105 164.925 725.405 163.92 726.005 163.22C726.615 162.52 727.485 162.17 728.615 162.17C729.385 162.17 730.065 162.325 730.655 162.635L730.295 163.7C730.005 163.57 729.735 163.475 729.485 163.415C729.245 163.355 728.99 163.325 728.72 163.325C727.96 163.325 727.4 163.56 727.04 164.03C726.68 164.5 726.5 165.24 726.5 166.25C726.5 167.2 726.675 167.905 727.025 168.365C727.385 168.815 727.935 169.04 728.675 169.04C729.295 169.04 729.855 168.905 730.355 168.635L730.67 169.685C730.13 170.035 729.41 170.21 728.51 170.21ZM732.484 170V159.32H733.804V165.785L736.864 162.365H738.349L735.199 165.875L738.784 170H737.239L733.804 166.025V170H732.484ZM743.737 170V159.89H747.082C749.292 159.89 750.397 160.915 750.397 162.965C750.397 164.535 749.732 165.47 748.402 165.77L751.147 170H749.527L746.992 165.965H745.117V170H743.737ZM746.992 161.03H745.117V164.84H747.007C747.717 164.84 748.227 164.69 748.537 164.39C748.847 164.09 749.002 163.61 749.002 162.95C749.002 162.28 748.842 161.795 748.522 161.495C748.212 161.185 747.702 161.03 746.992 161.03ZM752.98 170V159.89H754.75L757.84 167.195L760.93 159.89H762.7V170H761.425V161.615L758.5 168.455H757.165L754.255 161.705V170H752.98ZM767.965 170.21C766.735 170.21 765.69 169.975 764.83 169.505L765.205 168.38C765.985 168.8 766.89 169.01 767.92 169.01C768.66 169.01 769.205 168.875 769.555 168.605C769.915 168.325 770.095 167.895 770.095 167.315C770.095 166.825 769.97 166.45 769.72 166.19C769.47 165.92 769.04 165.71 768.43 165.56L767.545 165.35C766.685 165.15 766.065 164.835 765.685 164.405C765.305 163.965 765.115 163.36 765.115 162.59C765.115 161.66 765.405 160.945 765.985 160.445C766.575 159.935 767.41 159.68 768.49 159.68C768.96 159.68 769.44 159.735 769.93 159.845C770.42 159.955 770.87 160.105 771.28 160.295L770.95 161.405C770.62 161.235 770.25 161.105 769.84 161.015C769.44 160.925 769.03 160.88 768.61 160.88C767.2 160.88 766.495 161.44 766.495 162.56C766.495 162.99 766.61 163.325 766.84 163.565C767.07 163.795 767.48 163.99 768.07 164.15L768.82 164.33C769.78 164.58 770.47 164.935 770.89 165.395C771.31 165.845 771.52 166.47 771.52 167.27C771.52 169.23 770.335 170.21 767.965 170.21Z" fill="white" fill-opacity="0.81"/>
<path d="M529.569 97.1042H532.453L551.557 133.602L570.66 97.1042H573.544L581.113 147.896H572.607L568.137 118.872L552.999 147.896H550.115L534.904 118.872L530.507 147.896H522L529.569 97.1042Z" fill="white"/>
<path d="M604.697 112.269H611.618L604.697 97.1042H613.781L636.849 147.896H627.91L624.666 140.785H600.733L597.489 147.896H588.477L604.697 112.269ZM620.918 132.658L612.699 114.664L604.481 132.658H620.918Z" fill="white"/>
<path d="M639.558 122.5C639.558 119.162 640.087 115.921 641.144 112.777C642.249 109.584 643.883 106.755 646.046 104.288C648.209 101.821 650.924 99.8373 654.192 98.3377C657.46 96.7898 661.257 96.0158 665.582 96.0158C668.274 96.0158 670.917 96.4754 673.512 97.3945C676.107 98.2652 678.486 99.5229 680.649 101.168L675.603 108.278C674.545 107.311 673.152 106.464 671.422 105.739C669.739 105.013 667.817 104.65 665.654 104.65C661.858 104.65 658.686 105.545 656.139 107.335C653.639 109.077 651.765 111.277 650.516 113.938C649.266 116.55 648.641 119.404 648.641 122.5C648.641 125.596 649.266 128.474 650.516 131.135C651.765 133.747 653.639 135.948 656.139 137.737C658.686 139.479 661.858 140.35 665.654 140.35C667.673 140.35 669.355 140.132 670.701 139.697C672.094 139.213 673.224 138.657 674.089 138.028V128.305H662.266V120.178H682.812V142.889C680.697 144.582 678.126 146.033 675.098 147.243C672.07 148.404 668.898 148.984 665.582 148.984C661.257 148.984 657.46 148.234 654.192 146.735C650.924 145.187 648.209 143.179 646.046 140.712C643.883 138.197 642.249 135.367 641.144 132.223C640.087 129.03 639.558 125.789 639.558 122.5Z" fill="white"/>
<path d="M693.019 97.1042H695.974L725.531 129.103V97.1042H734.182V147.896H731.298L701.669 115.752V147.896H693.019V114.083H700.155L693.019 106.392V97.1042Z" fill="white"/>
<path d="M744.394 97.1042H753.044V128.595C753.044 130.578 753.381 132.32 754.054 133.819C754.727 135.27 755.616 136.504 756.721 137.52C757.826 138.487 759.076 139.213 760.47 139.697C761.911 140.18 763.353 140.422 764.795 140.422C766.285 140.422 767.727 140.18 769.12 139.697C770.514 139.213 771.764 138.487 772.869 137.52C773.974 136.504 774.864 135.27 775.536 133.819C776.209 132.32 776.546 130.578 776.546 128.595V97.1042H785.196V128.595C785.196 132.078 784.596 135.15 783.394 137.81C782.241 140.422 780.703 142.623 778.78 144.413C776.906 146.154 774.743 147.46 772.292 148.331C769.841 149.202 767.342 149.637 764.795 149.637C762.248 149.637 759.749 149.202 757.298 148.331C754.847 147.46 752.66 146.154 750.738 144.413C748.863 142.623 747.325 140.422 746.124 137.81C744.97 135.15 744.394 132.078 744.394 128.595V97.1042Z" fill="white"/>
<path d="M796.171 105.086C796.748 103.393 797.565 101.917 798.623 100.66C799.728 99.4019 801.026 98.3619 802.515 97.5396C804.005 96.6689 805.615 96.04 807.345 95.653C809.076 95.2177 810.878 95 812.752 95C816.068 95 819.264 95.6772 822.34 97.0317C825.464 98.3377 828.179 100.152 830.486 102.474L824.791 108.859C823.109 107.166 821.211 105.86 819.096 104.941C817.029 104.022 814.819 103.562 812.464 103.562C811.358 103.562 810.301 103.683 809.292 103.925C808.283 104.118 807.369 104.481 806.552 105.013C805.783 105.497 805.159 106.174 804.678 107.045C804.197 107.867 803.957 108.907 803.957 110.165C803.957 110.697 804.053 111.157 804.246 111.544L796.171 105.086ZM804.606 112.269C805.279 113.333 806.408 114.277 807.994 115.099C809.628 115.921 811.454 116.744 813.473 117.566C815.54 118.388 817.654 119.283 819.817 120.251C821.98 121.17 823.95 122.331 825.728 123.734C827.554 125.088 829.044 126.708 830.198 128.595C831.399 130.482 832 132.779 832 135.488C832 137.955 831.447 140.108 830.342 141.946C829.237 143.736 827.819 145.235 826.089 146.445C824.359 147.654 822.388 148.549 820.177 149.129C818.015 149.71 815.852 150 813.689 150C811.815 150 809.941 149.831 808.066 149.492C806.24 149.153 804.462 148.621 802.732 147.896C801.05 147.17 799.464 146.251 797.974 145.139C796.484 144.026 795.162 142.696 794.009 141.148L800.713 135.851C802.299 137.979 804.27 139.455 806.624 140.277C809.027 141.051 811.478 141.438 813.978 141.438C814.939 141.438 815.972 141.341 817.077 141.148C818.183 140.954 819.216 140.616 820.177 140.132C821.139 139.648 821.931 139.019 822.556 138.245C823.181 137.423 823.493 136.407 823.493 135.198C823.493 133.65 822.869 132.344 821.619 131.28C820.37 130.167 818.784 129.175 816.861 128.305C814.939 127.386 812.824 126.491 810.517 125.62C808.258 124.701 806.096 123.661 804.029 122.5C801.963 121.291 800.16 119.888 798.623 118.292C797.085 116.647 796.099 114.639 795.667 112.269H804.606Z" fill="white"/>
<path d="M499.241 124.457C498.871 122.608 496.344 122.177 495.42 123.903L492.956 128.338C489.816 133.882 481.929 129.446 485.07 123.903L487.536 119.467C488.46 117.742 486.795 115.769 485.07 116.45C482.73 117.311 480.634 119.036 479.403 121.439C477.189 125.554 478.028 130.618 481.095 133.896L479.117 137.55L477 136.655L475.724 139.804L475.56 140.21C474.465 139.903 473.225 139.599 471.837 139.311C470.065 138.943 468.052 138.606 465.789 138.331C465.638 138.315 465.484 138.296 465.328 138.279C465.062 138.249 464.793 138.219 464.521 138.191C462.502 137.988 460.294 137.843 457.889 137.783C457.894 137.772 457.9 137.761 457.902 137.75C458.02 137.448 458.086 137.119 458.086 136.779V136.499C461.169 136.45 463.885 136.4 466.052 136.329H466.066C468.872 136.172 470.759 135.975 471.371 135.742C471.374 135.742 471.379 135.739 471.382 135.736C471.398 135.728 471.415 135.72 471.429 135.709C472.507 134.982 474.161 119.042 475.036 102.166C475.96 84.2866 476.01 65.3592 473.565 62.3637C473.483 62.265 473.395 62.1827 473.308 62.1196C473.258 62.0839 473.206 62.0565 473.154 62.0318C473.124 62.0181 473.091 62.0044 473.055 61.9879C473.039 61.9824 473.025 61.977 473.009 61.9715C472.976 61.9605 472.943 61.9468 472.91 61.9358C470.759 61.1842 464.269 60.2625 456.254 59.3491C452.548 58.9266 448.515 58.5069 444.434 58.1037C443.849 58.0461 443.265 57.9912 442.681 57.9336C441.976 57.865 441.268 57.7965 440.56 57.7306C440.242 57.7005 439.921 57.6703 439.603 57.6401C439.288 57.6127 438.972 57.5825 438.657 57.5523C438.089 57.5002 437.521 57.4481 436.956 57.396C436.21 57.3274 435.466 57.2616 434.731 57.1957C434.364 57.1628 433.996 57.1299 433.631 57.097C433.324 57.0695 433.017 57.0421 432.712 57.0147C428.312 56.6306 424.195 56.2878 420.752 56.0134C420.621 56.0025 420.492 55.9942 420.366 55.9833C420.111 55.9613 419.858 55.9421 419.611 55.9229C419.595 55.9229 419.578 55.9202 419.562 55.9202C419.257 55.8955 418.958 55.8735 418.668 55.8516C418.344 55.8269 418.031 55.805 417.727 55.7803C417.458 55.7611 417.195 55.7419 416.942 55.7227C416.684 55.7035 416.438 55.687 416.196 55.6678C416.117 55.6651 416.04 55.6596 415.963 55.6514C415.796 55.6404 415.628 55.6294 415.466 55.6157C415.307 55.6047 415.148 55.5937 414.995 55.5828C414.262 55.5334 413.62 55.4923 413.074 55.4593C412.932 55.4511 412.795 55.4429 412.663 55.4346C412.331 55.4154 412.046 55.4017 411.81 55.3908C411.697 55.3853 411.599 55.3825 411.508 55.3798C411.289 55.3716 411.135 55.3688 411.053 55.3743C410.981 55.3798 410.899 55.3908 410.798 55.4127C410.658 55.4429 410.49 55.4868 410.298 55.5416C410.235 55.5608 410.167 55.58 410.098 55.602C410.008 55.6294 409.912 55.6596 409.813 55.6952C409.733 55.7227 409.648 55.7501 409.563 55.7803C409.478 55.8105 409.388 55.8406 409.297 55.8735C408.987 55.9833 408.647 56.1122 408.282 56.2548C408.104 56.3234 407.92 56.3947 407.731 56.4715C407.539 56.5483 407.347 56.6252 407.147 56.7074C406.85 56.8309 406.54 56.9598 406.222 57.0915C406.101 57.1409 405.984 57.193 405.86 57.2451C405.619 57.3466 405.372 57.4508 405.122 57.5578C405.122 57.5606 405.119 57.5606 405.117 57.5606C404.867 57.6703 404.615 57.78 404.357 57.8897C404.357 57.8897 404.355 57.8906 404.351 57.8925C404.094 58.0049 403.833 58.1201 403.572 58.2354C403.438 58.2957 403.306 58.3533 403.172 58.4137C403.054 58.4658 402.936 58.5206 402.818 58.5728C397.277 61.058 390.847 64.2647 389.615 65.3537C387.52 67.4495 383.578 127.268 396.514 133.306C397.321 133.679 398.629 134.019 400.341 134.326C400.714 134.392 401.104 134.458 401.512 134.521C401.798 134.565 402.094 134.609 402.396 134.653C402.59 134.68 402.785 134.708 402.985 134.735C403.101 134.752 403.213 134.765 403.331 134.779C403.542 134.806 403.759 134.834 403.978 134.861C404.634 134.941 405.322 135.018 406.038 135.092V135.1C406.143 136.348 407.092 137.344 408.37 137.517C409.585 137.651 410.803 137.78 412.024 137.901C412.156 143.403 412.391 151.427 412.581 157.651C412.592 157.991 412.6 158.326 412.611 158.652C412.614 158.8 412.619 158.946 412.622 159.091C412.63 159.269 412.636 159.442 412.638 159.618C412.638 159.651 412.641 159.684 412.641 159.717C412.647 159.9 412.652 160.081 412.658 160.262C412.743 162.951 412.808 165.079 412.844 166.168C412.844 166.201 412.847 166.231 412.847 166.262C412.86 166.717 412.869 166.967 412.869 166.967L414.314 167.386H414.328V167.397C414.122 170.299 413.98 173.24 413.889 176.057C413.875 176.46 413.864 176.861 413.853 177.259C413.851 177.363 413.848 177.464 413.845 177.566C413.837 177.87 413.832 178.175 413.823 178.477C413.812 178.938 413.804 179.393 413.796 179.843C413.79 180.131 413.788 180.416 413.782 180.701C413.774 181.28 413.766 181.851 413.76 182.408C413.76 182.512 413.757 182.616 413.757 182.72C413.725 186.525 413.766 189.715 413.801 191.698C409.256 193.278 404.5 198.084 404.181 200.048H423.218C423.218 200.048 423.213 199.865 423.186 199.574C423.18 199.522 423.175 199.47 423.169 199.412C423.166 199.401 423.166 199.39 423.166 199.379C423.153 199.278 423.142 199.168 423.125 199.05C423.12 199.012 423.114 198.97 423.109 198.927C423.09 198.803 423.07 198.669 423.046 198.526C423.04 198.493 423.032 198.457 423.029 198.422C422.991 198.208 422.944 197.977 422.892 197.736C422.771 197.209 422.609 196.628 422.39 196.035C422.343 195.912 422.297 195.788 422.245 195.665C422.217 195.605 422.193 195.544 422.168 195.484C422.14 195.424 422.113 195.36 422.086 195.3C421.954 195.012 421.808 194.721 421.641 194.442C421.595 194.365 421.548 194.285 421.501 194.208C421.452 194.132 421.403 194.055 421.353 193.978C420.64 192.925 419.655 192 418.297 191.487C418.278 191.479 418.256 191.471 418.231 191.465C418.19 191.449 418.149 191.435 418.108 191.421C418.1 191.419 418.089 191.416 418.081 191.413C418.064 191.408 418.045 191.402 418.029 191.399C418.004 191.391 417.979 191.383 417.954 191.375C417.979 191.38 418.007 191.388 418.031 191.397C418.733 187.019 419.905 179.941 421.104 173.63C421.367 172.233 421.633 170.876 421.896 169.592V169.586L421.937 169.6H421.94L423.465 170.042L436.218 173.742L446.069 169.479C446.069 169.479 446.063 169.455 446.06 169.444L446.115 169.419C446.115 169.419 446.121 169.441 446.123 169.455L446.069 169.479C447.706 177.322 449.478 188.028 450.268 192.947C447.369 195.585 447.369 200.048 447.369 200.048H469.36C468.798 197.582 460.366 190.859 454.358 191.224V191.202C454.44 187.419 454.495 180.128 454.136 172.456C454.128 172.228 454.117 171.997 454.103 171.77C454.103 171.742 454.103 171.712 454.1 171.682C453.993 169.847 453.873 167.99 453.733 166.163L453.744 166.157L455.006 165.611L454.989 165.055L454.693 154.581C460.366 154.444 465.086 153.986 468.162 153.602L467.638 154.828L469.311 155.654L468.118 157.857C464.469 156.828 460.453 158.32 458.396 161.73C457.285 163.576 456.918 165.672 457.285 167.644C457.595 169.123 459.565 169.49 460.366 168.135L462.461 164.624C465.111 160.188 471.272 163.886 468.746 168.322L466.65 171.833C465.849 173.188 467.144 174.85 468.622 174.296C470.532 173.682 472.257 172.327 473.305 170.354C475.14 167.09 474.611 163.066 472.241 160.413L473.766 157.848L473.771 157.838L476.138 159.02L477.636 155.429L478.275 153.898L479.71 150.456L478.366 150.105L479.968 147.406L481.252 148.113L484.886 139.983L484.477 139.81L486.197 136.919C490.756 138.084 495.738 136.098 498.193 131.789C499.364 129.446 499.735 126.799 499.241 124.457V124.457ZM473.066 148.717L470.532 148.053L470.202 148.826C469.975 148.783 469.733 148.772 469.484 148.791C466.392 149.054 460.955 149.411 454.545 149.402L454.391 143.979H454.388V143.911C454.388 143.911 454.386 143.911 454.388 143.911C457.211 143.787 459.825 143.804 462.22 143.916C467.569 144.163 471.813 144.876 474.786 145.543L473.066 148.717Z" stroke="white" stroke-width="10" stroke-miterlimit="10"/>
<path d="M449.832 140.844C449.648 142.63 450.94 144.108 452.913 143.985C465.295 143.244 473.919 145.216 477.677 146.264C478.909 146.635 480.327 145.957 480.942 144.846C481.682 143.615 481.249 142.196 480.017 141.705C476.383 140.227 467.882 137.577 453.587 137.7C451.678 137.7 450.076 139.055 449.829 140.841L449.832 140.844Z" fill="#0F294B"/>
<path d="M471.889 139.305C467.393 138.381 461.416 137.643 453.653 137.766C451.804 137.766 450.142 139.184 449.895 140.907C449.711 142.693 451.003 144.171 452.976 144.048C456.303 143.864 459.444 143.864 462.217 143.988C462.341 141.648 466.469 139.736 471.889 139.305V139.305Z" fill="#091B2A"/>
<path d="M415.519 156.617L424.019 161.113C421.8 166.72 417.365 195.613 417.365 195.613L413.853 193.887C413.853 193.816 413.113 170.9 415.516 156.614L415.519 156.617Z" fill="#0F294B"/>
<path d="M420.947 174.392C422.033 169.112 423.186 163.483 424.028 161.085L415.527 156.589C414.232 164.413 413.823 174.9 413.76 182.723C415.856 178.595 418.36 175.44 420.947 174.392Z" fill="#091B2A"/>
<path d="M452.605 156.617L443.918 161.113C446.197 166.72 450.693 195.613 450.693 195.613L454.268 193.887C454.328 193.827 455.069 170.908 452.605 156.614V156.617Z" fill="#0F294B"/>
<path d="M454.147 172.45C453.84 166.967 453.406 161.239 452.668 156.556L443.981 161.052C445.276 164.256 447.245 174.853 448.724 183.477C449.772 178.117 451.681 173.989 454.144 172.45H454.147Z" fill="#091B2A"/>
<path d="M411.944 131.542C411.76 132.096 412.869 166.967 412.869 166.967L436.218 173.742L455.008 165.609L454.084 133.204L411.944 131.542V131.542Z" fill="#78ADDC"/>
<path d="M451.988 153.597C451.988 145.834 451.557 138.688 450.88 133.144L442.686 132.774C441.946 138.381 441.455 145.65 441.455 153.597C441.455 160.065 441.762 166.042 442.256 171.092L451.497 167.087C451.867 163.022 451.991 158.463 451.991 153.597H451.988Z" fill="#ABC7E7"/>
<path d="M430.518 167.274C424.425 167.274 418.503 166.846 412.844 166.168L412.86 166.967L436.218 173.742L455.008 165.609L454.992 165.055C447.547 166.473 439.255 167.274 430.518 167.274V167.274Z" fill="#3980B1"/>
<path d="M443.674 141.522C447.616 141.522 451.313 143.247 454.454 146.204L454.084 133.268L411.944 131.542C411.76 132.096 412.869 166.967 412.869 166.967L423.465 170.047C424.203 154.03 433.014 141.524 443.671 141.524L443.674 141.522Z" fill="#3980B1"/>
<path d="M412.131 141.892C412.438 152.365 412.844 166.969 412.844 166.969L418.761 168.676C418.821 167.444 418.786 166.163 418.786 164.868C418.725 152.793 415.829 142.874 412.131 141.889V141.892Z" fill="#649ECD"/>
<path d="M406.03 130.247V134.867C406.03 136.222 407.015 137.33 408.37 137.517C423.833 139.242 439.482 139.856 455.436 139.489C456.854 139.489 458.086 138.257 458.086 136.779V132.159C458.086 130.741 456.978 129.509 455.499 129.509L408.801 127.6C407.262 127.54 406.027 128.772 406.027 130.25L406.03 130.247Z" fill="#1E5390"/>
<path d="M396.514 133.306C405.015 137.248 469.149 137.311 471.428 135.709C473.708 134.17 478.574 64.5525 473.154 62.0261C467.67 59.6259 413.272 55.2506 411.055 55.3713C408.776 55.5579 391.711 63.5047 389.615 65.3535C387.52 67.4492 383.578 127.268 396.514 133.306Z" fill="#78ADDC"/>
<path d="M473.154 62.0263C467.273 59.6124 413.272 55.2509 411.056 55.3716C410.131 55.4319 406.609 56.8775 402.821 58.57C404.483 67.7484 405.416 78.9293 405.416 90.9414C405.416 108.313 403.424 123.914 400.344 134.326C417.063 137.319 469.366 137.155 471.519 135.67C473.738 134.132 478.637 64.4924 473.154 62.0291V62.0263Z" fill="#5799CB"/>
<path d="M469.363 200.048H447.369C447.369 200.048 447.369 193.273 452.789 191.484C458.766 189.575 468.806 197.399 469.36 200.048H469.363Z" fill="#649ECD"/>
<path d="M404.184 200.048H423.221C423.221 200.048 423.037 193.273 418.292 191.484C413.116 189.575 404.615 197.399 404.184 200.048Z" fill="#649ECD"/>
<path d="M422.234 147.436C422.604 143.924 420.755 140.597 418.105 139.98C415.455 139.363 413.052 141.519 412.745 145.033C412.375 148.544 414.224 151.871 416.874 152.488C419.523 153.106 421.926 150.826 422.234 147.436Z" fill="#0F294B"/>
<path d="M413.67 144.542C412.929 146.081 413.73 147.929 415.395 148.607C436.896 157.171 462.771 154.398 470.041 153.35C471.149 153.226 472.013 152.302 472.136 151.131C472.197 149.776 471.028 148.667 469.486 148.791C460.799 149.531 433.571 151.01 418.352 143C416.566 142.139 414.471 142.877 413.67 144.539V144.542Z" fill="#0F294B"/>
<path d="M431.412 149.348C431.412 148.73 431.843 148.116 432.644 147.562C427.591 146.577 422.788 145.159 418.906 143.066C417.181 142.141 415.088 142.942 414.287 144.605C413.546 146.144 414.347 147.993 416.012 148.67C424.76 152.181 434.248 153.723 442.873 154.337C435.911 153.166 431.415 151.32 431.415 149.348H431.412Z" fill="#091B2A"/>
<path d="M470.655 163.085L487.413 134.87L482.236 131.789L466.219 161.36L470.655 163.085V163.085Z" fill="#3B89B6"/>
<path d="M499.241 124.457C498.871 122.608 496.344 122.177 495.422 123.903L492.959 128.338C489.818 133.882 481.932 129.446 485.073 123.903L487.536 119.467C488.46 117.742 486.795 115.769 485.073 116.45C482.733 117.311 480.637 119.036 479.405 121.439C476.756 126.369 478.481 132.65 483.164 135.61C488.34 138.874 495.176 137.089 498.196 131.792C499.367 129.452 499.735 126.802 499.244 124.459L499.241 124.457Z" fill="#6291B9"/>
<path d="M457.288 167.644C457.595 169.123 459.567 169.493 460.368 168.138L462.464 164.627C465.114 160.191 471.275 163.886 468.749 168.324L466.653 171.836C465.852 173.191 467.147 174.853 468.625 174.299C470.534 173.682 472.26 172.327 473.308 170.357C475.527 166.415 474.292 161.362 470.534 158.959C466.406 156.249 460.922 157.541 458.399 161.733C457.291 163.582 456.92 165.675 457.291 167.647L457.288 167.644Z" fill="#6291B9"/>
<path d="M467.638 154.828L476.138 159.017L479.713 150.453L470.534 148.05L467.638 154.826V154.828Z" fill="#649ECD"/>
<path d="M473.982 144.111L481.252 148.116L484.886 139.983L477 136.655L473.982 144.111V144.111Z" fill="#649ECD"/>
<path d="M473.154 62.0318C469.026 60.183 436.693 57.278 420.366 55.9833C415.313 56.4139 409.698 57.0421 408.526 58.09C406.431 59.9388 401.564 127.213 414.564 133.251C419.06 135.347 439.021 136.332 457.134 136.515C465.081 136.392 470.82 136.271 471.437 135.841C473.84 134.302 478.635 64.4979 473.151 62.0318H473.154Z" fill="#ABC7E7"/>
<path d="M475.085 102.128C476.07 83.3375 476.051 63.3211 473.154 62.0263C471.429 61.2253 467.185 60.4765 456.254 59.3353C456.437 69.0075 454.024 79.7907 448.787 90.0197C439.362 108.44 423.345 120.391 408.312 121.81C409.668 127.724 411.64 131.976 414.534 133.331C417.551 134.477 424.916 135.286 434.772 135.841" fill="#CBD7ED"/>
<path d="M396.728 114.354C399.993 114.354 402.705 107.699 402.705 99.5054C402.705 91.3117 399.995 84.657 396.728 84.657C393.461 84.657 390.751 91.3117 390.751 99.5054C390.751 107.699 393.461 114.354 396.728 114.354Z" fill="#1E5390"/>
<path d="M469.486 68.703C466.159 67.1642 439.545 64.0837 426.055 62.7258C421.866 62.9096 417.244 63.343 416.199 64.2044C414.413 65.6829 409.667 121.807 420.634 126.86C424.392 128.585 441.087 129.446 456.119 129.633C462.651 129.573 467.33 129.263 467.824 128.892C469.673 127.721 473.922 70.7357 469.486 68.703V68.703Z" fill="#081C34"/>
<path d="M465.665 71.5367C462.648 70.1185 438.744 67.348 426.546 66.1163C422.788 66.3001 418.599 66.6704 417.735 67.4714C416.196 68.8265 411.881 119.59 421.74 124.149C425.067 125.688 440.1 126.489 453.653 126.613C459.507 126.552 463.696 126.242 464.187 125.996C465.726 124.948 469.607 73.4459 465.665 71.5339V71.5367Z" fill="#0F294B"/>
<path d="M434.556 122.978C440.901 105.666 453.653 93.2209 467.393 88.9719C467.517 79.7934 467.21 72.2142 465.668 71.5998C463.759 70.6753 452.978 69.1968 442.382 67.9021C442.505 75.1713 441.334 82.8108 438.563 90.3873C434.128 102.399 426.672 112.135 417.924 118.296C418.849 121.313 420.143 123.409 421.866 124.21C423.528 125.011 427.964 125.565 433.694 125.996C433.818 124.948 434.125 123.963 434.556 122.978V122.978Z" fill="#14355C"/>
<path d="M427.901 78.6825C426.176 78.6825 424.697 80.2213 424.637 82.2567L423.589 108.687C423.528 110.659 424.884 112.261 426.606 112.261C428.329 112.261 429.81 110.722 429.87 108.687L430.918 82.2567C430.979 80.2844 429.624 78.6825 427.901 78.6825V78.6825Z" fill="#2F70B5"/>
<path d="M459.074 81.0854C457.348 81.0854 455.87 82.6243 455.809 84.6597L454.761 111.09C454.701 113.062 456.056 114.664 457.779 114.664C459.501 114.664 460.983 113.125 461.043 111.09L462.091 84.6597C462.091 82.7505 460.796 81.0854 459.074 81.0854V81.0854Z" fill="#2F70B5"/>
<path d="M452.737 191.52C451.999 191.704 451.445 192.071 450.891 192.439C451.261 194.771 456.001 197.901 462.59 200.046H469.363C468.749 197.346 458.711 189.553 452.737 191.517V191.52Z" fill="#ABC7E7"/>
<path d="M418.297 191.487C418.004 191.377 417.411 191.169 416.32 191.188C413.486 192.42 411.577 194.757 411.577 197.464C411.577 198.389 411.76 199.25 412.194 200.048H423.221C423.221 199.988 422.983 193.21 418.3 191.487H418.297Z" fill="#ABC7E7"/>
<path d="M453.283 195.489C453.59 194.195 452.976 193.21 452.051 193.21C451.127 193.21 450.202 194.195 449.895 195.489C449.588 196.784 450.202 197.769 451.127 197.769C452.051 197.829 452.976 196.784 453.283 195.489Z" fill="#0F294B"/>
<path d="M420.692 195.059C420.198 193.951 419.46 193.086 419.214 193.273C418.843 193.396 419.03 194.568 419.521 195.676C420.014 196.784 420.752 197.648 420.999 197.462C421.37 197.338 421.246 196.23 420.692 195.059Z" fill="#0F294B"/>
<path d="M479.713 150.456L473.192 148.75C472.575 150.168 472.197 151.874 472.197 153.723C472.197 155.018 472.38 156.186 472.69 157.297L476.141 159.023L479.715 150.459L479.713 150.456Z" fill="#ABC7E7"/>
<path d="M479.754 137.816C479.2 139.234 478.912 140.904 478.912 142.753C478.912 144.416 479.087 145.864 479.518 147.156L481.254 148.113L484.889 139.98L479.757 137.813L479.754 137.816Z" fill="#ABC7E7"/>
<path d="M475.118 141.305L479.896 143.124L480.451 141.585L475.724 139.804L475.118 141.305Z" fill="#1E5390"/>
<path d="M478.275 153.898L474.536 152.488L473.919 154.027L477.633 155.429L478.273 153.898H478.275Z" fill="#1E5390"/>
<path d="M460.615 80.962C458.829 80.962 457.351 82.6243 457.288 84.5966L456.24 111.581C456.18 113.553 457.535 115.215 459.32 115.215C461.106 115.215 462.585 113.553 462.648 111.581L463.696 84.5966C463.756 82.564 462.401 80.962 460.615 80.962V80.962Z" fill="white"/>
<path d="M429.503 77.5139C427.717 77.5139 426.239 79.2393 426.176 81.3323L425.128 109.795C425.067 111.951 426.422 113.613 428.208 113.613C429.994 113.613 431.472 111.888 431.536 109.795L432.583 81.3323C432.644 79.2997 431.289 77.5139 429.503 77.5139Z" fill="white"/>
<path d="M408.557 130.187C408.186 128.525 407.262 127.353 406.584 127.477C405.844 127.6 405.599 129.139 406.03 130.741C406.4 132.403 407.325 133.575 408.002 133.451C408.62 133.328 408.927 131.789 408.557 130.187Z" fill="#1E5390"/>
<path d="M396.975 110.289C399.378 110.289 401.287 105.422 401.287 99.5685C401.287 93.7147 399.378 88.8484 396.975 88.8484C394.572 88.8484 392.663 93.7147 392.663 99.5685C392.663 105.422 394.572 110.289 396.975 110.289Z" fill="#3980B1"/>
<path d="M392.91 88.8484H396.975L397.713 89.3422V109.858L396.975 110.289H393.154L392.91 88.8484Z" fill="#3980B1"/>
<path d="M393.094 110.289C395.497 110.289 397.406 105.422 397.406 99.5685C397.406 93.7147 395.497 88.8484 393.094 88.8484C390.691 88.8484 388.781 93.7147 388.781 99.5685C388.781 105.422 390.691 110.289 393.094 110.289Z" fill="#649ECD"/>
<path opacity="0.85" d="M389.028 103.203L395.62 90.8207C395.62 90.8207 395.743 90.9442 396.174 92.0524C396.728 93.4706 396.668 93.5912 396.668 93.5912L389.459 105.606L389.152 104.435C388.968 103.327 389.028 103.203 389.028 103.203V103.203Z" fill="#CBD7ED"/>
<path opacity="0.5" d="M397.406 97.5358L390.751 108.44C390.751 108.44 390.567 108.069 390.444 107.886C390.32 107.702 390.26 107.515 390.26 107.515L397.036 96.488L397.282 96.1176L397.343 96.8583L397.403 97.5358H397.406Z" fill="#CBD7ED"/>
<path opacity="0.5" d="M399.625 78.0049C399.625 78.0049 399.995 77.3877 400.179 74.6775C400.363 71.0429 400.179 69.8113 400.179 69.8113L394.449 78.8663L399.625 78.0049Z" fill="#CBD7ED"/>
<path opacity="0.5" d="M399.562 63.7737L391.552 67.9021C391.552 67.9021 391.058 68.3327 390.628 71.8439C390.134 75.3551 390.444 78.559 390.444 78.559L399.562 63.7737Z" fill="#CBD7ED"/>
<g clip-path="url(#clip0_135_67414)">
<path d="M571.63 18H549V40.1875H571.63V18Z" fill="white"/>
<path d="M580.627 32.8728V26.961H578.136V24.3346H580.627V21.2995L583.816 20.591V24.3346H587.261V26.9586H583.816V32.2327C583.816 32.7948 583.939 33.1916 584.19 33.4207C584.438 33.6498 584.871 33.7632 585.493 33.7632C585.787 33.7632 586.066 33.7443 586.331 33.7065C586.594 33.6687 586.883 33.5955 587.194 33.4892V36.0448C586.852 36.151 586.44 36.2384 585.96 36.3069C585.479 36.3754 585.067 36.4109 584.727 36.4109C583.376 36.4109 582.357 36.1109 581.665 35.5086C580.971 34.9087 580.627 34.0301 580.627 32.8728Z" fill="white"/>
<path d="M588.844 36.229V24.3346H592.033V25.636C592.421 25.1187 592.891 24.7266 593.443 24.4597C593.994 24.1928 594.604 24.0606 595.271 24.0606C595.582 24.0747 595.842 24.1031 596.051 24.1409C596.261 24.1787 596.444 24.2448 596.598 24.3346V27.0743C596.365 26.9681 596.109 26.8878 595.83 26.8334C595.55 26.7791 595.264 26.7531 594.967 26.7531C594.346 26.7531 593.775 26.9066 593.257 27.209C592.737 27.5136 592.33 27.9553 592.036 28.534V36.2266H588.844V36.229Z" fill="white"/>
<path d="M599.903 22.9198C599.407 22.9198 598.981 22.745 598.622 22.3955C598.265 22.0459 598.087 21.6278 598.087 21.1389C598.087 20.6524 598.265 20.2343 598.622 19.8824C598.978 19.5329 599.405 19.3581 599.903 19.3581C600.4 19.3581 600.826 19.5329 601.185 19.8824C601.541 20.232 601.72 20.65 601.72 21.1389C601.72 21.6255 601.541 22.0435 601.185 22.3955C600.826 22.745 600.4 22.9198 599.903 22.9198ZM601.51 24.3346V36.2266H598.321V24.3346H601.51Z" fill="white"/>
<path d="M607.099 24.3346V31.2525C607.099 32.013 607.328 32.6224 607.785 33.0782C608.243 33.5341 608.852 33.7632 609.614 33.7632C610.156 33.7632 610.642 33.6616 611.069 33.4562C611.495 33.2507 611.849 32.9578 612.129 32.5775V24.3346H615.318V36.2266H612.129V35.2677C611.664 35.648 611.143 35.9408 610.57 36.1463C609.997 36.3518 609.375 36.4534 608.708 36.4534C607.311 36.4534 606.162 36.0093 605.263 35.1189C604.362 34.2285 603.912 33.0924 603.912 31.706V24.3346H607.099Z" fill="white"/>
<path d="M617.806 36.229V24.3346H620.996V25.225C621.43 24.8589 621.911 24.5826 622.439 24.3912C622.966 24.1999 623.54 24.1055 624.161 24.1055C624.937 24.1055 625.64 24.2613 626.269 24.5731C626.898 24.8849 627.413 25.3218 627.818 25.8863C628.3 25.3077 628.88 24.866 629.565 24.5613C630.246 24.2566 631 24.1055 631.824 24.1055C633.176 24.1055 634.284 24.5471 635.153 25.4305C636.023 26.3138 636.456 27.4475 636.456 28.8316V36.2266H633.267V29.2898C633.267 28.5434 633.062 27.9435 632.65 27.4853C632.238 27.0295 631.684 26.8004 630.986 26.8004C630.504 26.8004 630.066 26.9043 629.67 27.1098C629.275 27.3153 628.938 27.6081 628.659 27.9884C628.673 28.1254 628.69 28.2624 628.705 28.3994C628.719 28.5363 628.729 28.6804 628.729 28.8339V36.229H625.539V29.2898C625.539 28.5434 625.332 27.9435 624.922 27.4853C624.511 27.0295 623.956 26.8004 623.258 26.8004C622.776 26.8004 622.35 26.8925 621.976 27.0743C621.603 27.2562 621.278 27.5231 620.998 27.8727V36.2266H617.806V36.229Z" fill="white"/>
<path d="M638.902 41V24.3346H642.045V25.3171C642.527 24.9368 643.062 24.6511 643.652 24.4621C644.242 24.2732 644.854 24.1763 645.492 24.1763C646.345 24.1763 647.15 24.3369 647.901 24.6558C648.653 24.9746 649.311 25.4092 649.869 25.9572C650.428 26.5051 650.867 27.1523 651.185 27.8986C651.503 28.645 651.662 29.4433 651.662 30.296C651.662 31.1486 651.498 31.9469 651.173 32.6933C650.848 33.4396 650.404 34.0868 649.845 34.6324C649.287 35.1803 648.624 35.6102 647.856 35.9219C647.087 36.2337 646.268 36.3896 645.398 36.3896C644.808 36.3896 644.23 36.3093 643.664 36.1511C643.098 35.9904 642.573 35.759 642.093 35.4543V41.0024H638.902V41ZM644.977 26.8476C644.404 26.8476 643.866 26.9421 643.37 27.1334C642.874 27.3247 642.448 27.601 642.089 27.9671V32.646C642.431 32.9814 642.852 33.2483 643.358 33.4443C643.862 33.6427 644.401 33.7419 644.977 33.7419C645.969 33.7419 646.808 33.4113 647.492 32.7499C648.174 32.0886 648.516 31.269 648.516 30.296C648.516 29.3229 648.171 28.5033 647.48 27.842C646.791 27.1783 645.955 26.8476 644.977 26.8476Z" fill="white"/>
<path d="M653.615 36.229V20.2485L656.805 19.5636V25.2699C657.27 24.8896 657.788 24.6015 658.354 24.4031C658.92 24.2047 659.537 24.1055 660.204 24.1055C661.601 24.1055 662.75 24.5471 663.649 25.4305C664.55 26.3138 665 27.4475 665 28.8316V36.2266H661.811V29.2898C661.811 28.5434 661.582 27.9435 661.124 27.4853C660.666 27.0295 660.057 26.8004 659.296 26.8004C658.768 26.8004 658.291 26.9043 657.865 27.1098C657.438 27.3153 657.084 27.6081 656.805 27.9884V36.229H653.615Z" fill="white"/>
<path d="M571.63 40.1875V27.568L560.65 40.1875H571.63Z" fill="#4BA9DF"/>
<path d="M567.387 18H549V39.1318L567.387 18Z" fill="#4BA9DF"/>
</g>
<defs>
<clipPath id="clip0_135_67414">
<rect width="116" height="23" fill="white" transform="translate(549 18)"/>
</clipPath>
</defs>
</svg>
