<svg width="423" height="114" viewBox="0 0 423 114" fill="none" xmlns="http://www.w3.org/2000/svg">
<path d="M236 77C231.581 77 228 80.5806 228 85C228 89.4194 231.581 93 236 93C240.419 93 244 89.4194 244 85C244 80.5806 240.419 77 236 77Z" fill="#D4442E"/>
<path d="M236 49C231.581 49 228 52.5806 228 57C228 61.4194 231.581 65 236 65C240.419 65 244 61.4194 244 57C244 52.5806 240.419 49 236 49Z" fill="#FFC870"/>
<path d="M236 18C231.581 18 228 21.5806 228 26C228 30.4194 231.581 34 236 34C240.419 34 244 30.4194 244 26C244 21.5806 240.419 18 236 18Z" fill="#16C98D"/>
<path d="M260.873 31H259.602L258.562 28.252H254.406L253.429 31H252.15L255.91 21.1973H257.1L260.873 31ZM258.187 27.2197L256.648 23.043C256.598 22.9062 256.548 22.6875 256.498 22.3867H256.471C256.425 22.6647 256.373 22.8835 256.313 23.043L254.789 27.2197H258.187ZM266.943 30.6787C266.406 31.0023 265.768 31.1641 265.029 31.1641C264.031 31.1641 263.225 30.8405 262.609 30.1934C261.999 29.5417 261.693 28.6986 261.693 27.6641C261.693 26.5111 262.024 25.5859 262.685 24.8887C263.345 24.1868 264.227 23.8359 265.33 23.8359C265.945 23.8359 266.488 23.9499 266.957 24.1777V25.3262C266.438 24.9616 265.882 24.7793 265.289 24.7793C264.574 24.7793 263.986 25.0368 263.525 25.5518C263.07 26.0622 262.842 26.7344 262.842 27.5684C262.842 28.3887 263.056 29.0358 263.484 29.5098C263.917 29.9837 264.496 30.2207 265.221 30.2207C265.831 30.2207 266.406 30.0179 266.943 29.6123V30.6787ZM273.41 30.6787C272.872 31.0023 272.234 31.1641 271.496 31.1641C270.498 31.1641 269.691 30.8405 269.076 30.1934C268.465 29.5417 268.16 28.6986 268.16 27.6641C268.16 26.5111 268.491 25.5859 269.151 24.8887C269.812 24.1868 270.694 23.8359 271.797 23.8359C272.412 23.8359 272.954 23.9499 273.424 24.1777V25.3262C272.904 24.9616 272.348 24.7793 271.756 24.7793C271.04 24.7793 270.452 25.0368 269.992 25.5518C269.536 26.0622 269.309 26.7344 269.309 27.5684C269.309 28.3887 269.523 29.0358 269.951 29.5098C270.384 29.9837 270.963 30.2207 271.688 30.2207C272.298 30.2207 272.872 30.0179 273.41 29.6123V30.6787ZM280.731 27.7803H275.789C275.807 28.5596 276.017 29.1611 276.418 29.585C276.819 30.0088 277.37 30.2207 278.072 30.2207C278.861 30.2207 279.585 29.9609 280.246 29.4414V30.4941C279.631 30.9408 278.817 31.1641 277.806 31.1641C276.817 31.1641 276.04 30.8473 275.475 30.2139C274.91 29.5758 274.627 28.6803 274.627 27.5273C274.627 26.4382 274.935 25.5518 275.55 24.8682C276.17 24.18 276.938 23.8359 277.854 23.8359C278.77 23.8359 279.478 24.1322 279.979 24.7246C280.481 25.3171 280.731 26.1396 280.731 27.1924V27.7803ZM279.583 26.8301C279.578 26.1829 279.421 25.6794 279.111 25.3193C278.806 24.9593 278.38 24.7793 277.833 24.7793C277.304 24.7793 276.855 24.9684 276.486 25.3467C276.117 25.7249 275.889 26.2194 275.803 26.8301H279.583ZM283.582 29.9883H283.555V34.2197H282.434V24H283.555V25.2305H283.582C284.133 24.3008 284.94 23.8359 286.002 23.8359C286.904 23.8359 287.608 24.1504 288.114 24.7793C288.62 25.4036 288.873 26.2422 288.873 27.2949C288.873 28.4661 288.588 29.4049 288.019 30.1113C287.449 30.8132 286.67 31.1641 285.681 31.1641C284.774 31.1641 284.074 30.7721 283.582 29.9883ZM283.555 27.165V28.1426C283.555 28.7214 283.742 29.2135 284.115 29.6191C284.493 30.0202 284.972 30.2207 285.551 30.2207C286.23 30.2207 286.761 29.9609 287.144 29.4414C287.531 28.9219 287.725 28.1995 287.725 27.2744C287.725 26.4951 287.545 25.8844 287.185 25.4424C286.825 25.0003 286.337 24.7793 285.722 24.7793C285.07 24.7793 284.546 25.0072 284.149 25.4629C283.753 25.9141 283.555 26.4814 283.555 27.165ZM293.911 30.9316C293.647 31.0775 293.298 31.1504 292.865 31.1504C291.639 31.1504 291.026 30.4668 291.026 29.0996V24.957H289.823V24H291.026V22.291L292.147 21.9287V24H293.911V24.957H292.147V28.9014C292.147 29.3708 292.227 29.7057 292.387 29.9062C292.546 30.1068 292.811 30.207 293.18 30.207C293.462 30.207 293.706 30.1296 293.911 29.9746V30.9316ZM301.034 27.7803H296.092C296.11 28.5596 296.32 29.1611 296.721 29.585C297.122 30.0088 297.673 30.2207 298.375 30.2207C299.163 30.2207 299.888 29.9609 300.549 29.4414V30.4941C299.934 30.9408 299.12 31.1641 298.108 31.1641C297.119 31.1641 296.342 30.8473 295.777 30.2139C295.212 29.5758 294.93 28.6803 294.93 27.5273C294.93 26.4382 295.237 25.5518 295.853 24.8682C296.472 24.18 297.24 23.8359 298.156 23.8359C299.072 23.8359 299.781 24.1322 300.282 24.7246C300.784 25.3171 301.034 26.1396 301.034 27.1924V27.7803ZM299.886 26.8301C299.881 26.1829 299.724 25.6794 299.414 25.3193C299.109 24.9593 298.683 24.7793 298.136 24.7793C297.607 24.7793 297.158 24.9684 296.789 25.3467C296.42 25.7249 296.192 26.2194 296.105 26.8301H299.886ZM308.711 31H307.59V29.8105H307.562C307.043 30.7129 306.241 31.1641 305.156 31.1641C304.277 31.1641 303.573 30.8519 303.044 30.2275C302.52 29.5986 302.258 28.7441 302.258 27.6641C302.258 26.5065 302.549 25.5791 303.133 24.8818C303.716 24.1846 304.493 23.8359 305.464 23.8359C306.425 23.8359 307.125 24.2142 307.562 24.9707H307.59V20.6367H308.711V31ZM307.59 27.835V26.8027C307.59 26.2376 307.403 25.7591 307.029 25.3672C306.656 24.9753 306.182 24.7793 305.607 24.7793C304.924 24.7793 304.386 25.0299 303.994 25.5312C303.602 26.0326 303.406 26.7253 303.406 27.6094C303.406 28.416 303.593 29.054 303.967 29.5234C304.345 29.9883 304.851 30.2207 305.484 30.2207C306.109 30.2207 306.615 29.9951 307.002 29.5439C307.394 29.0928 307.59 28.5231 307.59 27.835ZM316.121 31H314.973V21.1973H316.121V31ZM324.365 31H323.244V27.0078C323.244 25.5221 322.702 24.7793 321.617 24.7793C321.057 24.7793 320.592 24.9912 320.223 25.415C319.858 25.8343 319.676 26.3652 319.676 27.0078V31H318.555V24H319.676V25.1621H319.703C320.232 24.278 320.997 23.8359 322 23.8359C322.766 23.8359 323.351 24.0843 323.757 24.5811C324.162 25.0732 324.365 25.7865 324.365 26.7207V31ZM331.987 24L329.198 31H328.098L325.445 24H326.676L328.453 29.0859C328.585 29.4596 328.667 29.7855 328.699 30.0635H328.727C328.772 29.7126 328.845 29.3958 328.945 29.1133L330.805 24H331.987ZM333.771 22.2227C333.571 22.2227 333.4 22.1543 333.259 22.0176C333.118 21.8809 333.047 21.7077 333.047 21.498C333.047 21.2884 333.118 21.1152 333.259 20.9785C333.4 20.8372 333.571 20.7666 333.771 20.7666C333.977 20.7666 334.15 20.8372 334.291 20.9785C334.437 21.1152 334.51 21.2884 334.51 21.498C334.51 21.6986 334.437 21.8695 334.291 22.0107C334.15 22.152 333.977 22.2227 333.771 22.2227ZM334.318 31H333.197V24H334.318V31ZM339.835 30.9316C339.571 31.0775 339.222 31.1504 338.789 31.1504C337.563 31.1504 336.95 30.4668 336.95 29.0996V24.957H335.747V24H336.95V22.291L338.071 21.9287V24H339.835V24.957H338.071V28.9014C338.071 29.3708 338.151 29.7057 338.311 29.9062C338.47 30.1068 338.734 30.207 339.104 30.207C339.386 30.207 339.63 30.1296 339.835 29.9746V30.9316ZM346.958 27.7803H342.016C342.034 28.5596 342.243 29.1611 342.645 29.585C343.046 30.0088 343.597 30.2207 344.299 30.2207C345.087 30.2207 345.812 29.9609 346.473 29.4414V30.4941C345.857 30.9408 345.044 31.1641 344.032 31.1641C343.043 31.1641 342.266 30.8473 341.701 30.2139C341.136 29.5758 340.854 28.6803 340.854 27.5273C340.854 26.4382 341.161 25.5518 341.776 24.8682C342.396 24.18 343.164 23.8359 344.08 23.8359C344.996 23.8359 345.705 24.1322 346.206 24.7246C346.707 25.3171 346.958 26.1396 346.958 27.1924V27.7803ZM345.81 26.8301C345.805 26.1829 345.648 25.6794 345.338 25.3193C345.033 24.9593 344.606 24.7793 344.06 24.7793C343.531 24.7793 343.082 24.9684 342.713 25.3467C342.344 25.7249 342.116 26.2194 342.029 26.8301H345.81Z" fill="black"/>
<path d="M254.434 61H253.285V51.1973H254.434V61ZM262.678 61H261.557V57.0078C261.557 55.5221 261.014 54.7793 259.93 54.7793C259.369 54.7793 258.904 54.9912 258.535 55.415C258.171 55.8343 257.988 56.3652 257.988 57.0078V61H256.867V54H257.988V55.1621H258.016C258.544 54.278 259.31 53.8359 260.312 53.8359C261.078 53.8359 261.664 54.0843 262.069 54.5811C262.475 55.0732 262.678 55.7865 262.678 56.7207V61ZM270.3 54L267.511 61H266.41L263.758 54H264.988L266.766 59.0859C266.898 59.4596 266.98 59.7855 267.012 60.0635H267.039C267.085 59.7126 267.158 59.3958 267.258 59.1133L269.117 54H270.3ZM272.084 52.2227C271.883 52.2227 271.713 52.1543 271.571 52.0176C271.43 51.8809 271.359 51.7077 271.359 51.498C271.359 51.2884 271.43 51.1152 271.571 50.9785C271.713 50.8372 271.883 50.7666 272.084 50.7666C272.289 50.7666 272.462 50.8372 272.604 50.9785C272.749 51.1152 272.822 51.2884 272.822 51.498C272.822 51.6986 272.749 51.8695 272.604 52.0107C272.462 52.152 272.289 52.2227 272.084 52.2227ZM272.631 61H271.51V54H272.631V61ZM278.147 60.9316C277.883 61.0775 277.535 61.1504 277.102 61.1504C275.876 61.1504 275.263 60.4668 275.263 59.0996V54.957H274.06V54H275.263V52.291L276.384 51.9287V54H278.147V54.957H276.384V58.9014C276.384 59.3708 276.464 59.7057 276.623 59.9062C276.783 60.1068 277.047 60.207 277.416 60.207C277.699 60.207 277.942 60.1296 278.147 59.9746V60.9316ZM285.271 57.7803H280.328C280.346 58.5596 280.556 59.1611 280.957 59.585C281.358 60.0088 281.91 60.2207 282.611 60.2207C283.4 60.2207 284.124 59.9609 284.785 59.4414V60.4941C284.17 60.9408 283.356 61.1641 282.345 61.1641C281.356 61.1641 280.579 60.8473 280.014 60.2139C279.449 59.5758 279.166 58.6803 279.166 57.5273C279.166 56.4382 279.474 55.5518 280.089 54.8682C280.709 54.18 281.477 53.8359 282.393 53.8359C283.309 53.8359 284.017 54.1322 284.519 54.7246C285.02 55.3171 285.271 56.1396 285.271 57.1924V57.7803ZM284.122 56.8301C284.118 56.1829 283.96 55.6794 283.65 55.3193C283.345 54.9593 282.919 54.7793 282.372 54.7793C281.843 54.7793 281.395 54.9684 281.025 55.3467C280.656 55.7249 280.428 56.2194 280.342 56.8301H284.122ZM292.113 57.2949V61H290.965V51.1973H293.658C294.706 51.1973 295.518 51.4525 296.092 51.9629C296.671 52.4733 296.96 53.1934 296.96 54.123C296.96 55.0527 296.639 55.8138 295.996 56.4062C295.358 56.9987 294.494 57.2949 293.405 57.2949H292.113ZM292.113 52.2363V56.2559H293.316C294.109 56.2559 294.713 56.0758 295.128 55.7158C295.547 55.3512 295.757 54.8385 295.757 54.1777C295.757 52.8835 294.991 52.2363 293.46 52.2363H292.113ZM303.769 57.7803H298.826C298.844 58.5596 299.054 59.1611 299.455 59.585C299.856 60.0088 300.408 60.2207 301.109 60.2207C301.898 60.2207 302.622 59.9609 303.283 59.4414V60.4941C302.668 60.9408 301.854 61.1641 300.843 61.1641C299.854 61.1641 299.077 60.8473 298.512 60.2139C297.947 59.5758 297.664 58.6803 297.664 57.5273C297.664 56.4382 297.972 55.5518 298.587 54.8682C299.207 54.18 299.975 53.8359 300.891 53.8359C301.807 53.8359 302.515 54.1322 303.017 54.7246C303.518 55.3171 303.769 56.1396 303.769 57.1924V57.7803ZM302.62 56.8301C302.616 56.1829 302.458 55.6794 302.148 55.3193C301.843 54.9593 301.417 54.7793 300.87 54.7793C300.341 54.7793 299.893 54.9684 299.523 55.3467C299.154 55.7249 298.926 56.2194 298.84 56.8301H302.62ZM311.281 61H310.16V57.0078C310.16 55.5221 309.618 54.7793 308.533 54.7793C307.973 54.7793 307.508 54.9912 307.139 55.415C306.774 55.8343 306.592 56.3652 306.592 57.0078V61H305.471V54H306.592V55.1621H306.619C307.148 54.278 307.913 53.8359 308.916 53.8359C309.682 53.8359 310.267 54.0843 310.673 54.5811C311.078 55.0732 311.281 55.7865 311.281 56.7207V61ZM319.375 61H318.254V59.8105H318.227C317.707 60.7129 316.905 61.1641 315.82 61.1641C314.941 61.1641 314.237 60.8519 313.708 60.2275C313.184 59.5986 312.922 58.7441 312.922 57.6641C312.922 56.5065 313.214 55.5791 313.797 54.8818C314.38 54.1846 315.157 53.8359 316.128 53.8359C317.09 53.8359 317.789 54.2142 318.227 54.9707H318.254V50.6367H319.375V61ZM318.254 57.835V56.8027C318.254 56.2376 318.067 55.7591 317.693 55.3672C317.32 54.9753 316.846 54.7793 316.271 54.7793C315.588 54.7793 315.05 55.0299 314.658 55.5312C314.266 56.0326 314.07 56.7253 314.07 57.6094C314.07 58.416 314.257 59.054 314.631 59.5234C315.009 59.9883 315.515 60.2207 316.148 60.2207C316.773 60.2207 317.279 59.9951 317.666 59.5439C318.058 59.0928 318.254 58.5231 318.254 57.835ZM322.219 52.2227C322.018 52.2227 321.847 52.1543 321.706 52.0176C321.565 51.8809 321.494 51.7077 321.494 51.498C321.494 51.2884 321.565 51.1152 321.706 50.9785C321.847 50.8372 322.018 50.7666 322.219 50.7666C322.424 50.7666 322.597 50.8372 322.738 50.9785C322.884 51.1152 322.957 51.2884 322.957 51.498C322.957 51.6986 322.884 51.8695 322.738 52.0107C322.597 52.152 322.424 52.2227 322.219 52.2227ZM322.766 61H321.645V54H322.766V61ZM330.846 61H329.725V57.0078C329.725 55.5221 329.182 54.7793 328.098 54.7793C327.537 54.7793 327.072 54.9912 326.703 55.415C326.339 55.8343 326.156 56.3652 326.156 57.0078V61H325.035V54H326.156V55.1621H326.184C326.712 54.278 327.478 53.8359 328.48 53.8359C329.246 53.8359 329.832 54.0843 330.237 54.5811C330.643 55.0732 330.846 55.7865 330.846 56.7207V61ZM338.939 60.4395C338.939 63.0098 337.709 64.2949 335.248 64.2949C334.382 64.2949 333.626 64.1309 332.979 63.8027V62.6816C333.767 63.1191 334.519 63.3379 335.234 63.3379C336.957 63.3379 337.818 62.4219 337.818 60.5898V59.8242H337.791C337.258 60.7174 336.456 61.1641 335.385 61.1641C334.514 61.1641 333.812 60.8542 333.279 60.2344C332.751 59.61 332.486 58.7738 332.486 57.7256C332.486 56.5361 332.771 55.5905 333.341 54.8887C333.915 54.1868 334.699 53.8359 335.692 53.8359C336.636 53.8359 337.335 54.2142 337.791 54.9707H337.818V54H338.939V60.4395ZM337.818 57.835V56.8027C337.818 56.2467 337.629 55.7705 337.251 55.374C336.877 54.9775 336.41 54.7793 335.85 54.7793C335.157 54.7793 334.615 55.0322 334.223 55.5381C333.831 56.0394 333.635 56.7435 333.635 57.6504C333.635 58.4297 333.822 59.054 334.195 59.5234C334.574 59.9883 335.073 60.2207 335.692 60.2207C336.321 60.2207 336.832 59.9974 337.224 59.5508C337.62 59.1042 337.818 58.5322 337.818 57.835Z" fill="black"/>
<path d="M253.285 91V81.1973H255.992C259.447 81.1973 261.174 82.79 261.174 85.9756C261.174 87.4886 260.693 88.7054 259.731 89.626C258.774 90.542 257.492 91 255.883 91H253.285ZM254.434 82.2363V89.9609H255.896C257.182 89.9609 258.182 89.6169 258.897 88.9287C259.613 88.2406 259.971 87.2653 259.971 86.0029C259.971 83.4919 258.635 82.2363 255.965 82.2363H254.434ZM268.577 87.7803H263.635C263.653 88.5596 263.863 89.1611 264.264 89.585C264.665 90.0088 265.216 90.2207 265.918 90.2207C266.706 90.2207 267.431 89.9609 268.092 89.4414V90.4941C267.477 90.9408 266.663 91.1641 265.651 91.1641C264.662 91.1641 263.885 90.8473 263.32 90.2139C262.755 89.5758 262.473 88.6803 262.473 87.5273C262.473 86.4382 262.78 85.5518 263.396 84.8682C264.015 84.18 264.783 83.8359 265.699 83.8359C266.615 83.8359 267.324 84.1322 267.825 84.7246C268.326 85.3171 268.577 86.1396 268.577 87.1924V87.7803ZM267.429 86.8301C267.424 86.1829 267.267 85.6794 266.957 85.3193C266.652 84.9593 266.226 84.7793 265.679 84.7793C265.15 84.7793 264.701 84.9684 264.332 85.3467C263.963 85.7249 263.735 86.2194 263.648 86.8301H267.429ZM275.051 90.6787C274.513 91.0023 273.875 91.1641 273.137 91.1641C272.139 91.1641 271.332 90.8405 270.717 90.1934C270.106 89.5417 269.801 88.6986 269.801 87.6641C269.801 86.5111 270.131 85.5859 270.792 84.8887C271.453 84.1868 272.335 83.8359 273.438 83.8359C274.053 83.8359 274.595 83.9499 275.064 84.1777V85.3262C274.545 84.9616 273.989 84.7793 273.396 84.7793C272.681 84.7793 272.093 85.0368 271.633 85.5518C271.177 86.0622 270.949 86.7344 270.949 87.5684C270.949 88.3887 271.163 89.0358 271.592 89.5098C272.025 89.9837 272.604 90.2207 273.328 90.2207C273.939 90.2207 274.513 90.0179 275.051 89.6123V90.6787ZM277.867 91H276.746V80.6367H277.867V91ZM280.711 82.2227C280.51 82.2227 280.34 82.1543 280.198 82.0176C280.057 81.8809 279.986 81.7077 279.986 81.498C279.986 81.2884 280.057 81.1152 280.198 80.9785C280.34 80.8372 280.51 80.7666 280.711 80.7666C280.916 80.7666 281.089 80.8372 281.23 80.9785C281.376 81.1152 281.449 81.2884 281.449 81.498C281.449 81.6986 281.376 81.8695 281.23 82.0107C281.089 82.152 280.916 82.2227 280.711 82.2227ZM281.258 91H280.137V84H281.258V91ZM289.338 91H288.217V87.0078C288.217 85.5221 287.674 84.7793 286.59 84.7793C286.029 84.7793 285.564 84.9912 285.195 85.415C284.831 85.8343 284.648 86.3652 284.648 87.0078V91H283.527V84H284.648V85.1621H284.676C285.204 84.278 285.97 83.8359 286.973 83.8359C287.738 83.8359 288.324 84.0843 288.729 84.5811C289.135 85.0732 289.338 85.7865 289.338 86.7207V91ZM297.083 87.7803H292.141C292.159 88.5596 292.368 89.1611 292.77 89.585C293.171 90.0088 293.722 90.2207 294.424 90.2207C295.212 90.2207 295.937 89.9609 296.598 89.4414V90.4941C295.982 90.9408 295.169 91.1641 294.157 91.1641C293.168 91.1641 292.391 90.8473 291.826 90.2139C291.261 89.5758 290.979 88.6803 290.979 87.5273C290.979 86.4382 291.286 85.5518 291.901 84.8682C292.521 84.18 293.289 83.8359 294.205 83.8359C295.121 83.8359 295.83 84.1322 296.331 84.7246C296.832 85.3171 297.083 86.1396 297.083 87.1924V87.7803ZM295.935 86.8301C295.93 86.1829 295.773 85.6794 295.463 85.3193C295.158 84.9593 294.731 84.7793 294.185 84.7793C293.656 84.7793 293.207 84.9684 292.838 85.3467C292.469 85.7249 292.241 86.2194 292.154 86.8301H295.935ZM304.76 91H303.639V89.8105H303.611C303.092 90.7129 302.29 91.1641 301.205 91.1641C300.326 91.1641 299.621 90.8519 299.093 90.2275C298.569 89.5986 298.307 88.7441 298.307 87.6641C298.307 86.5065 298.598 85.5791 299.182 84.8818C299.765 84.1846 300.542 83.8359 301.513 83.8359C302.474 83.8359 303.174 84.2142 303.611 84.9707H303.639V80.6367H304.76V91ZM303.639 87.835V86.8027C303.639 86.2376 303.452 85.7591 303.078 85.3672C302.704 84.9753 302.23 84.7793 301.656 84.7793C300.973 84.7793 300.435 85.0299 300.043 85.5312C299.651 86.0326 299.455 86.7253 299.455 87.6094C299.455 88.416 299.642 89.054 300.016 89.5234C300.394 89.9883 300.9 90.2207 301.533 90.2207C302.158 90.2207 302.663 89.9951 303.051 89.5439C303.443 89.0928 303.639 88.5231 303.639 87.835ZM312.17 91H311.021V81.1973H312.17V91ZM320.414 91H319.293V87.0078C319.293 85.5221 318.751 84.7793 317.666 84.7793C317.105 84.7793 316.641 84.9912 316.271 85.415C315.907 85.8343 315.725 86.3652 315.725 87.0078V91H314.604V84H315.725V85.1621H315.752C316.281 84.278 317.046 83.8359 318.049 83.8359C318.814 83.8359 319.4 84.0843 319.806 84.5811C320.211 85.0732 320.414 85.7865 320.414 86.7207V91ZM328.036 84L325.247 91H324.146L321.494 84H322.725L324.502 89.0859C324.634 89.4596 324.716 89.7855 324.748 90.0635H324.775C324.821 89.7126 324.894 89.3958 324.994 89.1133L326.854 84H328.036ZM329.82 82.2227C329.62 82.2227 329.449 82.1543 329.308 82.0176C329.166 81.8809 329.096 81.7077 329.096 81.498C329.096 81.2884 329.166 81.1152 329.308 80.9785C329.449 80.8372 329.62 80.7666 329.82 80.7666C330.025 80.7666 330.199 80.8372 330.34 80.9785C330.486 81.1152 330.559 81.2884 330.559 81.498C330.559 81.6986 330.486 81.8695 330.34 82.0107C330.199 82.152 330.025 82.2227 329.82 82.2227ZM330.367 91H329.246V84H330.367V91ZM335.884 90.9316C335.619 91.0775 335.271 91.1504 334.838 91.1504C333.612 91.1504 332.999 90.4668 332.999 89.0996V84.957H331.796V84H332.999V82.291L334.12 81.9287V84H335.884V84.957H334.12V88.9014C334.12 89.3708 334.2 89.7057 334.359 89.9062C334.519 90.1068 334.783 90.207 335.152 90.207C335.435 90.207 335.679 90.1296 335.884 89.9746V90.9316ZM343.007 87.7803H338.064C338.083 88.5596 338.292 89.1611 338.693 89.585C339.094 90.0088 339.646 90.2207 340.348 90.2207C341.136 90.2207 341.861 89.9609 342.521 89.4414V90.4941C341.906 90.9408 341.093 91.1641 340.081 91.1641C339.092 91.1641 338.315 90.8473 337.75 90.2139C337.185 89.5758 336.902 88.6803 336.902 87.5273C336.902 86.4382 337.21 85.5518 337.825 84.8682C338.445 84.18 339.213 83.8359 340.129 83.8359C341.045 83.8359 341.754 84.1322 342.255 84.7246C342.756 85.3171 343.007 86.1396 343.007 87.1924V87.7803ZM341.858 86.8301C341.854 86.1829 341.697 85.6794 341.387 85.3193C341.081 84.9593 340.655 84.7793 340.108 84.7793C339.58 84.7793 339.131 84.9684 338.762 85.3467C338.393 85.7249 338.165 86.2194 338.078 86.8301H341.858Z" fill="black"/>
<path d="M8 49C3.58065 49 0 52.5806 0 57C0 61.4194 3.58065 65 8 65C12.4194 65 16 61.4194 16 57C16 52.5806 12.4194 49 8 49ZM3.74194 58.2903C3.52903 58.2903 3.35484 58.1161 3.35484 57.9032V56.0968C3.35484 55.8839 3.52903 55.7097 3.74194 55.7097H12.2581C12.471 55.7097 12.6452 55.8839 12.6452 56.0968V57.9032C12.6452 58.1161 12.471 58.2903 12.2581 58.2903H3.74194Z" fill="#AEAEAE"/>
<path d="M8 78C3.58065 78 0 81.5806 0 86C0 90.4194 3.58065 94 8 94C12.4194 94 16 90.4194 16 86C16 81.5806 12.4194 78 8 78Z" fill="#AEAEAE"/>
<path d="M16 27C16 31.4183 12.4183 35 8 35C3.58171 35 0 31.4183 0 27C0 22.5817 3.58171 19 8 19C12.4183 19 16 22.5817 16 27ZM7.07464 31.2359L13.0101 25.3005C13.2117 25.0989 13.2117 24.7721 13.0101 24.5705L12.2802 23.8406C12.0787 23.6391 11.7519 23.6391 11.5503 23.8406L6.70968 28.6812L4.44971 26.4213C4.24816 26.2197 3.92135 26.2197 3.71977 26.4213L2.98987 27.1512C2.78832 27.3527 2.78832 27.6795 2.98987 27.8811L6.34471 31.2359C6.54629 31.4375 6.87306 31.4375 7.07464 31.2359V31.2359Z" fill="#AEAEAE"/>
<path d="M35.2793 32H34.1377V25.4238C34.1377 24.9043 34.1696 24.2686 34.2334 23.5166H34.2061C34.0967 23.9587 33.9987 24.2754 33.9121 24.4668L30.5625 32H30.002L26.6592 24.5215C26.5635 24.3027 26.4655 23.9678 26.3652 23.5166H26.3379C26.3743 23.9085 26.3926 24.5488 26.3926 25.4375V32H25.2852V22.1973H26.8027L29.8105 29.0332C30.043 29.5573 30.1934 29.9492 30.2617 30.209H30.3027C30.4987 29.6712 30.6559 29.2702 30.7744 29.0059L33.8438 22.1973H35.2793V32ZM42.7236 32H41.6025V30.9062H41.5752C41.0876 31.7448 40.3698 32.1641 39.4219 32.1641C38.7246 32.1641 38.1777 31.9795 37.7812 31.6104C37.3893 31.2412 37.1934 30.7513 37.1934 30.1406C37.1934 28.8327 37.9635 28.0716 39.5039 27.8574L41.6025 27.5635C41.6025 26.374 41.1217 25.7793 40.1602 25.7793C39.3171 25.7793 38.556 26.0664 37.877 26.6406V25.4922C38.5651 25.0547 39.3581 24.8359 40.2559 24.8359C41.901 24.8359 42.7236 25.7064 42.7236 27.4473V32ZM41.6025 28.459L39.9141 28.6914C39.3945 28.7643 39.0026 28.8942 38.7383 29.0811C38.474 29.2633 38.3418 29.5892 38.3418 30.0586C38.3418 30.4004 38.4626 30.6807 38.7041 30.8994C38.9502 31.1136 39.276 31.2207 39.6816 31.2207C40.2376 31.2207 40.6956 31.027 41.0557 30.6396C41.4202 30.2477 41.6025 29.7533 41.6025 29.1562V28.459ZM48.083 31.9316C47.8187 32.0775 47.4701 32.1504 47.0371 32.1504C45.8112 32.1504 45.1982 31.4668 45.1982 30.0996V25.957H43.9951V25H45.1982V23.291L46.3193 22.9287V25H48.083V25.957H46.3193V29.9014C46.3193 30.3708 46.3991 30.7057 46.5586 30.9062C46.7181 31.1068 46.9824 31.207 47.3516 31.207C47.6341 31.207 47.8779 31.1296 48.083 30.9746V31.9316ZM54.3516 31.6787C53.8138 32.0023 53.1758 32.1641 52.4375 32.1641C51.4395 32.1641 50.6328 31.8405 50.0176 31.1934C49.4069 30.5417 49.1016 29.6986 49.1016 28.6641C49.1016 27.5111 49.432 26.5859 50.0928 25.8887C50.7536 25.1868 51.6354 24.8359 52.7383 24.8359C53.3535 24.8359 53.8958 24.9499 54.3652 25.1777V26.3262C53.8457 25.9616 53.2897 25.7793 52.6973 25.7793C51.9818 25.7793 51.3939 26.0368 50.9336 26.5518C50.4779 27.0622 50.25 27.7344 50.25 28.5684C50.25 29.3887 50.4642 30.0358 50.8926 30.5098C51.3255 30.9837 51.9043 31.2207 52.6289 31.2207C53.2396 31.2207 53.8138 31.0179 54.3516 30.6123V31.6787ZM61.8574 32H60.7363V27.9668C60.7363 26.5085 60.194 25.7793 59.1094 25.7793C58.5625 25.7793 58.1022 25.9912 57.7285 26.415C57.3548 26.8343 57.168 27.3743 57.168 28.0352V32H56.0469V21.6367H57.168V26.1621H57.1953C57.7331 25.278 58.4987 24.8359 59.4922 24.8359C61.069 24.8359 61.8574 25.7861 61.8574 27.6865V32ZM69.6025 28.7803H64.6602C64.6784 29.5596 64.888 30.1611 65.2891 30.585C65.6901 31.0088 66.2415 31.2207 66.9434 31.2207C67.7318 31.2207 68.4564 30.9609 69.1172 30.4414V31.4941C68.502 31.9408 67.6885 32.1641 66.6768 32.1641C65.6878 32.1641 64.9108 31.8473 64.3457 31.2139C63.7806 30.5758 63.498 29.6803 63.498 28.5273C63.498 27.4382 63.8057 26.5518 64.4209 25.8682C65.0407 25.18 65.8086 24.8359 66.7246 24.8359C67.6406 24.8359 68.3493 25.1322 68.8506 25.7246C69.3519 26.3171 69.6025 27.1396 69.6025 28.1924V28.7803ZM68.4541 27.8301C68.4495 27.1829 68.2923 26.6794 67.9824 26.3193C67.6771 25.9593 67.251 25.7793 66.7041 25.7793C66.1755 25.7793 65.7266 25.9684 65.3574 26.3467C64.9883 26.7249 64.7604 27.2194 64.6738 27.8301H68.4541ZM70.8809 31.7471V30.5439C71.4915 30.9951 72.1637 31.2207 72.8975 31.2207C73.8818 31.2207 74.374 30.8926 74.374 30.2363C74.374 30.0495 74.3307 29.8923 74.2441 29.7646C74.1621 29.6325 74.0482 29.5163 73.9023 29.416C73.7611 29.3158 73.5924 29.2269 73.3965 29.1494C73.2051 29.0674 72.9977 28.9831 72.7744 28.8965C72.4645 28.7734 72.1911 28.6504 71.9541 28.5273C71.7217 28.3997 71.5257 28.2585 71.3662 28.1035C71.2113 27.944 71.0928 27.764 71.0107 27.5635C70.9333 27.363 70.8945 27.1283 70.8945 26.8594C70.8945 26.5312 70.9697 26.2419 71.1201 25.9912C71.2705 25.736 71.471 25.5241 71.7217 25.3555C71.9723 25.1823 72.2572 25.0524 72.5762 24.9658C72.8997 24.8792 73.2324 24.8359 73.5742 24.8359C74.1803 24.8359 74.7227 24.9408 75.2012 25.1504V26.2852C74.6862 25.9479 74.0938 25.7793 73.4238 25.7793C73.2142 25.7793 73.0251 25.8044 72.8564 25.8545C72.6878 25.9001 72.542 25.9661 72.4189 26.0527C72.3005 26.1393 72.207 26.2441 72.1387 26.3672C72.0749 26.4857 72.043 26.6178 72.043 26.7637C72.043 26.946 72.0749 27.0986 72.1387 27.2217C72.207 27.3447 72.305 27.4541 72.4326 27.5498C72.5602 27.6455 72.7152 27.7321 72.8975 27.8096C73.0798 27.887 73.2871 27.9714 73.5195 28.0625C73.8294 28.181 74.1074 28.304 74.3535 28.4316C74.5996 28.5547 74.8092 28.696 74.9824 28.8555C75.1556 29.0104 75.2878 29.1904 75.3789 29.3955C75.4746 29.6006 75.5225 29.8444 75.5225 30.127C75.5225 30.4733 75.445 30.7741 75.29 31.0293C75.1396 31.2845 74.9368 31.4964 74.6816 31.665C74.4264 31.8337 74.1325 31.959 73.7998 32.041C73.4671 32.123 73.1185 32.1641 72.7539 32.1641C72.0339 32.1641 71.4095 32.0251 70.8809 31.7471ZM82.3926 28.2949V32H81.2441V22.1973H83.9375C84.9857 22.1973 85.7969 22.4525 86.3711 22.9629C86.9499 23.4733 87.2393 24.1934 87.2393 25.123C87.2393 26.0527 86.918 26.8138 86.2754 27.4062C85.6374 27.9987 84.7738 28.2949 83.6846 28.2949H82.3926ZM82.3926 23.2363V27.2559H83.5957C84.3887 27.2559 84.9925 27.0758 85.4072 26.7158C85.8265 26.3512 86.0361 25.8385 86.0361 25.1777C86.0361 23.8835 85.2705 23.2363 83.7393 23.2363H82.3926ZM92.5918 26.1348C92.3958 25.9844 92.1133 25.9092 91.7441 25.9092C91.2656 25.9092 90.8646 26.1348 90.541 26.5859C90.222 27.0371 90.0625 27.6523 90.0625 28.4316V32H88.9414V25H90.0625V26.4424H90.0898C90.2493 25.9502 90.4932 25.5674 90.8213 25.2939C91.1494 25.016 91.5163 24.877 91.9219 24.877C92.2135 24.877 92.4368 24.9089 92.5918 24.9727V26.1348ZM99.4346 28.7803H94.4922C94.5104 29.5596 94.7201 30.1611 95.1211 30.585C95.5221 31.0088 96.0736 31.2207 96.7754 31.2207C97.5638 31.2207 98.2884 30.9609 98.9492 30.4414V31.4941C98.334 31.9408 97.5205 32.1641 96.5088 32.1641C95.5199 32.1641 94.7428 31.8473 94.1777 31.2139C93.6126 30.5758 93.3301 29.6803 93.3301 28.5273C93.3301 27.4382 93.6377 26.5518 94.2529 25.8682C94.8727 25.18 95.6406 24.8359 96.5566 24.8359C97.4727 24.8359 98.1813 25.1322 98.6826 25.7246C99.1839 26.3171 99.4346 27.1396 99.4346 28.1924V28.7803ZM98.2861 27.8301C98.2816 27.1829 98.1243 26.6794 97.8145 26.3193C97.5091 25.9593 97.083 25.7793 96.5361 25.7793C96.0075 25.7793 95.5586 25.9684 95.1895 26.3467C94.8203 26.7249 94.5924 27.2194 94.5059 27.8301H98.2861ZM104.596 22.6211C104.377 22.498 104.129 22.4365 103.851 22.4365C103.067 22.4365 102.675 22.931 102.675 23.9199V25H104.315V25.957H102.675V32H101.561V25.957H100.364V25H101.561V23.8652C101.561 23.1315 101.772 22.5527 102.196 22.1289C102.62 21.7005 103.149 21.4863 103.782 21.4863C104.124 21.4863 104.395 21.5273 104.596 21.6094V22.6211ZM111.151 28.7803H106.209C106.227 29.5596 106.437 30.1611 106.838 30.585C107.239 31.0088 107.79 31.2207 108.492 31.2207C109.281 31.2207 110.005 30.9609 110.666 30.4414V31.4941C110.051 31.9408 109.237 32.1641 108.226 32.1641C107.237 32.1641 106.46 31.8473 105.895 31.2139C105.329 30.5758 105.047 29.6803 105.047 28.5273C105.047 27.4382 105.354 26.5518 105.97 25.8682C106.59 25.18 107.357 24.8359 108.273 24.8359C109.189 24.8359 109.898 25.1322 110.399 25.7246C110.901 26.3171 111.151 27.1396 111.151 28.1924V28.7803ZM110.003 27.8301C109.998 27.1829 109.841 26.6794 109.531 26.3193C109.226 25.9593 108.8 25.7793 108.253 25.7793C107.724 25.7793 107.275 25.9684 106.906 26.3467C106.537 26.7249 106.309 27.2194 106.223 27.8301H110.003ZM116.504 26.1348C116.308 25.9844 116.025 25.9092 115.656 25.9092C115.178 25.9092 114.777 26.1348 114.453 26.5859C114.134 27.0371 113.975 27.6523 113.975 28.4316V32H112.854V25H113.975V26.4424H114.002C114.161 25.9502 114.405 25.5674 114.733 25.2939C115.062 25.016 115.428 24.877 115.834 24.877C116.126 24.877 116.349 24.9089 116.504 24.9727V26.1348ZM123.347 28.7803H118.404C118.423 29.5596 118.632 30.1611 119.033 30.585C119.434 31.0088 119.986 31.2207 120.688 31.2207C121.476 31.2207 122.201 30.9609 122.861 30.4414V31.4941C122.246 31.9408 121.433 32.1641 120.421 32.1641C119.432 32.1641 118.655 31.8473 118.09 31.2139C117.525 30.5758 117.242 29.6803 117.242 28.5273C117.242 27.4382 117.55 26.5518 118.165 25.8682C118.785 25.18 119.553 24.8359 120.469 24.8359C121.385 24.8359 122.093 25.1322 122.595 25.7246C123.096 26.3171 123.347 27.1396 123.347 28.1924V28.7803ZM122.198 27.8301C122.194 27.1829 122.036 26.6794 121.727 26.3193C121.421 25.9593 120.995 25.7793 120.448 25.7793C119.92 25.7793 119.471 25.9684 119.102 26.3467C118.732 26.7249 118.505 27.2194 118.418 27.8301H122.198ZM130.859 32H129.738V28.0078C129.738 26.5221 129.196 25.7793 128.111 25.7793C127.551 25.7793 127.086 25.9912 126.717 26.415C126.352 26.8343 126.17 27.3652 126.17 28.0078V32H125.049V25H126.17V26.1621H126.197C126.726 25.278 127.492 24.8359 128.494 24.8359C129.26 24.8359 129.845 25.0843 130.251 25.5811C130.657 26.0732 130.859 26.7865 130.859 27.7207V32ZM137.75 31.6787C137.212 32.0023 136.574 32.1641 135.836 32.1641C134.838 32.1641 134.031 31.8405 133.416 31.1934C132.805 30.5417 132.5 29.6986 132.5 28.6641C132.5 27.5111 132.83 26.5859 133.491 25.8887C134.152 25.1868 135.034 24.8359 136.137 24.8359C136.752 24.8359 137.294 24.9499 137.764 25.1777V26.3262C137.244 25.9616 136.688 25.7793 136.096 25.7793C135.38 25.7793 134.792 26.0368 134.332 26.5518C133.876 27.0622 133.648 27.7344 133.648 28.5684C133.648 29.3887 133.863 30.0358 134.291 30.5098C134.724 30.9837 135.303 31.2207 136.027 31.2207C136.638 31.2207 137.212 31.0179 137.75 30.6123V31.6787ZM145.071 28.7803H140.129C140.147 29.5596 140.357 30.1611 140.758 30.585C141.159 31.0088 141.71 31.2207 142.412 31.2207C143.201 31.2207 143.925 30.9609 144.586 30.4414V31.4941C143.971 31.9408 143.157 32.1641 142.146 32.1641C141.157 32.1641 140.38 31.8473 139.814 31.2139C139.249 30.5758 138.967 29.6803 138.967 28.5273C138.967 27.4382 139.274 26.5518 139.89 25.8682C140.509 25.18 141.277 24.8359 142.193 24.8359C143.109 24.8359 143.818 25.1322 144.319 25.7246C144.821 26.3171 145.071 27.1396 145.071 28.1924V28.7803ZM143.923 27.8301C143.918 27.1829 143.761 26.6794 143.451 26.3193C143.146 25.9593 142.72 25.7793 142.173 25.7793C141.644 25.7793 141.195 25.9684 140.826 26.3467C140.457 26.7249 140.229 27.2194 140.143 27.8301H143.923Z" fill="black"/>
<path d="M25.2852 62V52.1973H27.9922C31.4466 52.1973 33.1738 53.79 33.1738 56.9756C33.1738 58.4886 32.693 59.7054 31.7314 60.626C30.7744 61.542 29.4915 62 27.8828 62H25.2852ZM26.4336 53.2363V60.9609H27.8965C29.1816 60.9609 30.182 60.6169 30.8975 59.9287C31.613 59.2406 31.9707 58.2653 31.9707 57.0029C31.9707 54.4919 30.6354 53.2363 27.9648 53.2363H26.4336ZM37.877 62.1641C36.8424 62.1641 36.0153 61.8382 35.3955 61.1865C34.7803 60.5303 34.4727 59.6621 34.4727 58.582C34.4727 57.4062 34.7939 56.488 35.4365 55.8271C36.0791 55.1663 36.9473 54.8359 38.041 54.8359C39.0846 54.8359 39.8981 55.1572 40.4814 55.7998C41.0693 56.4424 41.3633 57.3333 41.3633 58.4727C41.3633 59.5892 41.0465 60.4847 40.4131 61.1592C39.7842 61.8291 38.9388 62.1641 37.877 62.1641ZM37.959 55.7793C37.2389 55.7793 36.6693 56.0254 36.25 56.5176C35.8307 57.0052 35.6211 57.6797 35.6211 58.541C35.6211 59.3704 35.833 60.0244 36.2568 60.5029C36.6807 60.9814 37.248 61.2207 37.959 61.2207C38.6836 61.2207 39.2396 60.986 39.627 60.5166C40.0189 60.0472 40.2148 59.3796 40.2148 58.5137C40.2148 57.6387 40.0189 56.9642 39.627 56.4902C39.2396 56.0163 38.6836 55.7793 37.959 55.7793ZM48.7803 58.7803H43.8379C43.8561 59.5596 44.0658 60.1611 44.4668 60.585C44.8678 61.0088 45.4193 61.2207 46.1211 61.2207C46.9095 61.2207 47.6341 60.9609 48.2949 60.4414V61.4941C47.6797 61.9408 46.8662 62.1641 45.8545 62.1641C44.8656 62.1641 44.0885 61.8473 43.5234 61.2139C42.9583 60.5758 42.6758 59.6803 42.6758 58.5273C42.6758 57.4382 42.9834 56.5518 43.5986 55.8682C44.2184 55.18 44.9863 54.8359 45.9023 54.8359C46.8184 54.8359 47.527 55.1322 48.0283 55.7246C48.5296 56.3171 48.7803 57.1396 48.7803 58.1924V58.7803ZM47.6318 57.8301C47.6273 57.1829 47.4701 56.6794 47.1602 56.3193C46.8548 55.9593 46.4287 55.7793 45.8818 55.7793C45.3532 55.7793 44.9043 55.9684 44.5352 56.3467C44.166 56.7249 43.9382 57.2194 43.8516 57.8301H47.6318ZM50.0586 61.7471V60.5439C50.6693 60.9951 51.3415 61.2207 52.0752 61.2207C53.0596 61.2207 53.5518 60.8926 53.5518 60.2363C53.5518 60.0495 53.5085 59.8923 53.4219 59.7646C53.3398 59.6325 53.2259 59.5163 53.0801 59.416C52.9388 59.3158 52.7702 59.2269 52.5742 59.1494C52.3828 59.0674 52.1755 58.9831 51.9521 58.8965C51.6423 58.7734 51.3688 58.6504 51.1318 58.5273C50.8994 58.3997 50.7035 58.2585 50.5439 58.1035C50.389 57.944 50.2705 57.764 50.1885 57.5635C50.111 57.363 50.0723 57.1283 50.0723 56.8594C50.0723 56.5312 50.1475 56.2419 50.2979 55.9912C50.4482 55.736 50.6488 55.5241 50.8994 55.3555C51.1501 55.1823 51.4349 55.0524 51.7539 54.9658C52.0775 54.8792 52.4102 54.8359 52.752 54.8359C53.3581 54.8359 53.9004 54.9408 54.3789 55.1504V56.2852C53.8639 55.9479 53.2715 55.7793 52.6016 55.7793C52.3919 55.7793 52.2028 55.8044 52.0342 55.8545C51.8656 55.9001 51.7197 55.9661 51.5967 56.0527C51.4782 56.1393 51.3848 56.2441 51.3164 56.3672C51.2526 56.4857 51.2207 56.6178 51.2207 56.7637C51.2207 56.946 51.2526 57.0986 51.3164 57.2217C51.3848 57.3447 51.4827 57.4541 51.6104 57.5498C51.738 57.6455 51.8929 57.7321 52.0752 57.8096C52.2575 57.887 52.4648 57.9714 52.6973 58.0625C53.0072 58.181 53.2852 58.304 53.5312 58.4316C53.7773 58.5547 53.987 58.696 54.1602 58.8555C54.3333 59.0104 54.4655 59.1904 54.5566 59.3955C54.6523 59.6006 54.7002 59.8444 54.7002 60.127C54.7002 60.4733 54.6227 60.7741 54.4678 61.0293C54.3174 61.2845 54.1146 61.4964 53.8594 61.665C53.6042 61.8337 53.3102 61.959 52.9775 62.041C52.6449 62.123 52.2962 62.1641 51.9316 62.1641C51.2116 62.1641 50.5872 62.0251 50.0586 61.7471ZM68.3242 62H66.916L61.8711 54.1865C61.7435 53.9906 61.6387 53.7855 61.5566 53.5713H61.5156C61.5521 53.7809 61.5703 54.2298 61.5703 54.918V62H60.4219V52.1973H61.9121L66.8203 59.8877C67.0254 60.2067 67.1576 60.4255 67.2168 60.5439H67.2441C67.1986 60.2614 67.1758 59.7806 67.1758 59.1016V52.1973H68.3242V62ZM73.6699 62.1641C72.6354 62.1641 71.8083 61.8382 71.1885 61.1865C70.5732 60.5303 70.2656 59.6621 70.2656 58.582C70.2656 57.4062 70.5869 56.488 71.2295 55.8271C71.8721 55.1663 72.7402 54.8359 73.834 54.8359C74.8776 54.8359 75.6911 55.1572 76.2744 55.7998C76.8623 56.4424 77.1562 57.3333 77.1562 58.4727C77.1562 59.5892 76.8395 60.4847 76.2061 61.1592C75.5771 61.8291 74.7318 62.1641 73.6699 62.1641ZM73.752 55.7793C73.0319 55.7793 72.4622 56.0254 72.043 56.5176C71.6237 57.0052 71.4141 57.6797 71.4141 58.541C71.4141 59.3704 71.626 60.0244 72.0498 60.5029C72.4736 60.9814 73.041 61.2207 73.752 61.2207C74.4766 61.2207 75.0326 60.986 75.4199 60.5166C75.8118 60.0472 76.0078 59.3796 76.0078 58.5137C76.0078 57.6387 75.8118 56.9642 75.4199 56.4902C75.0326 56.0163 74.4766 55.7793 73.752 55.7793ZM82.1943 61.9316C81.93 62.0775 81.5814 62.1504 81.1484 62.1504C79.9225 62.1504 79.3096 61.4668 79.3096 60.0996V55.957H78.1064V55H79.3096V53.291L80.4307 52.9287V55H82.1943V55.957H80.4307V59.9014C80.4307 60.3708 80.5104 60.7057 80.6699 60.9062C80.8294 61.1068 81.0938 61.207 81.4629 61.207C81.7454 61.207 81.9893 61.1296 82.1943 60.9746V61.9316ZM97.6777 62H96.5361V55.4238C96.5361 54.9043 96.568 54.2686 96.6318 53.5166H96.6045C96.4951 53.9587 96.3971 54.2754 96.3105 54.4668L92.9609 62H92.4004L89.0576 54.5215C88.9619 54.3027 88.8639 53.9678 88.7637 53.5166H88.7363C88.7728 53.9085 88.791 54.5488 88.791 55.4375V62H87.6836V52.1973H89.2012L92.209 59.0332C92.4414 59.5573 92.5918 59.9492 92.6602 60.209H92.7012C92.8971 59.6712 93.0544 59.2702 93.1729 59.0059L96.2422 52.1973H97.6777V62ZM105.122 62H104.001V60.9062H103.974C103.486 61.7448 102.768 62.1641 101.82 62.1641C101.123 62.1641 100.576 61.9795 100.18 61.6104C99.7878 61.2412 99.5918 60.7513 99.5918 60.1406C99.5918 58.8327 100.362 58.0716 101.902 57.8574L104.001 57.5635C104.001 56.374 103.52 55.7793 102.559 55.7793C101.715 55.7793 100.954 56.0664 100.275 56.6406V55.4922C100.964 55.0547 101.757 54.8359 102.654 54.8359C104.299 54.8359 105.122 55.7064 105.122 57.4473V62ZM104.001 58.459L102.312 58.6914C101.793 58.7643 101.401 58.8942 101.137 59.0811C100.872 59.2633 100.74 59.5892 100.74 60.0586C100.74 60.4004 100.861 60.6807 101.103 60.8994C101.349 61.1136 101.674 61.2207 102.08 61.2207C102.636 61.2207 103.094 61.027 103.454 60.6396C103.819 60.2477 104.001 59.7533 104.001 59.1562V58.459ZM110.481 61.9316C110.217 62.0775 109.868 62.1504 109.436 62.1504C108.21 62.1504 107.597 61.4668 107.597 60.0996V55.957H106.394V55H107.597V53.291L108.718 52.9287V55H110.481V55.957H108.718V59.9014C108.718 60.3708 108.798 60.7057 108.957 60.9062C109.117 61.1068 109.381 61.207 109.75 61.207C110.033 61.207 110.276 61.1296 110.481 60.9746V61.9316ZM116.75 61.6787C116.212 62.0023 115.574 62.1641 114.836 62.1641C113.838 62.1641 113.031 61.8405 112.416 61.1934C111.805 60.5417 111.5 59.6986 111.5 58.6641C111.5 57.5111 111.83 56.5859 112.491 55.8887C113.152 55.1868 114.034 54.8359 115.137 54.8359C115.752 54.8359 116.294 54.9499 116.764 55.1777V56.3262C116.244 55.9616 115.688 55.7793 115.096 55.7793C114.38 55.7793 113.792 56.0368 113.332 56.5518C112.876 57.0622 112.648 57.7344 112.648 58.5684C112.648 59.3887 112.863 60.0358 113.291 60.5098C113.724 60.9837 114.303 61.2207 115.027 61.2207C115.638 61.2207 116.212 61.0179 116.75 60.6123V61.6787ZM124.256 62H123.135V57.9668C123.135 56.5085 122.592 55.7793 121.508 55.7793C120.961 55.7793 120.501 55.9912 120.127 56.415C119.753 56.8343 119.566 57.3743 119.566 58.0352V62H118.445V51.6367H119.566V56.1621H119.594C120.132 55.278 120.897 54.8359 121.891 54.8359C123.467 54.8359 124.256 55.7861 124.256 57.6865V62ZM131.516 58.2949V62H130.367V52.1973H133.061C134.109 52.1973 134.92 52.4525 135.494 52.9629C136.073 53.4733 136.362 54.1934 136.362 55.123C136.362 56.0527 136.041 56.8138 135.398 57.4062C134.76 57.9987 133.897 58.2949 132.808 58.2949H131.516ZM131.516 53.2363V57.2559H132.719C133.512 57.2559 134.116 57.0758 134.53 56.7158C134.95 56.3512 135.159 55.8385 135.159 55.1777C135.159 53.8835 134.394 53.2363 132.862 53.2363H131.516ZM141.715 56.1348C141.519 55.9844 141.236 55.9092 140.867 55.9092C140.389 55.9092 139.988 56.1348 139.664 56.5859C139.345 57.0371 139.186 57.6523 139.186 58.4316V62H138.064V55H139.186V56.4424H139.213C139.372 55.9502 139.616 55.5674 139.944 55.2939C140.272 55.016 140.639 54.877 141.045 54.877C141.337 54.877 141.56 54.9089 141.715 54.9727V56.1348ZM148.558 58.7803H143.615C143.633 59.5596 143.843 60.1611 144.244 60.585C144.645 61.0088 145.197 61.2207 145.898 61.2207C146.687 61.2207 147.411 60.9609 148.072 60.4414V61.4941C147.457 61.9408 146.644 62.1641 145.632 62.1641C144.643 62.1641 143.866 61.8473 143.301 61.2139C142.736 60.5758 142.453 59.6803 142.453 58.5273C142.453 57.4382 142.761 56.5518 143.376 55.8682C143.996 55.18 144.764 54.8359 145.68 54.8359C146.596 54.8359 147.304 55.1322 147.806 55.7246C148.307 56.3171 148.558 57.1396 148.558 58.1924V58.7803ZM147.409 57.8301C147.405 57.1829 147.247 56.6794 146.938 56.3193C146.632 55.9593 146.206 55.7793 145.659 55.7793C145.131 55.7793 144.682 55.9684 144.312 56.3467C143.943 56.7249 143.715 57.2194 143.629 57.8301H147.409ZM153.719 52.6211C153.5 52.498 153.252 52.4365 152.974 52.4365C152.19 52.4365 151.798 52.931 151.798 53.9199V55H153.438V55.957H151.798V62H150.684V55.957H149.487V55H150.684V53.8652C150.684 53.1315 150.896 52.5527 151.319 52.1289C151.743 51.7005 152.272 51.4863 152.905 51.4863C153.247 51.4863 153.518 51.5273 153.719 51.6094V52.6211ZM160.274 58.7803H155.332C155.35 59.5596 155.56 60.1611 155.961 60.585C156.362 61.0088 156.913 61.2207 157.615 61.2207C158.404 61.2207 159.128 60.9609 159.789 60.4414V61.4941C159.174 61.9408 158.36 62.1641 157.349 62.1641C156.36 62.1641 155.583 61.8473 155.018 61.2139C154.452 60.5758 154.17 59.6803 154.17 58.5273C154.17 57.4382 154.478 56.5518 155.093 55.8682C155.713 55.18 156.48 54.8359 157.396 54.8359C158.312 54.8359 159.021 55.1322 159.522 55.7246C160.024 56.3171 160.274 57.1396 160.274 58.1924V58.7803ZM159.126 57.8301C159.121 57.1829 158.964 56.6794 158.654 56.3193C158.349 55.9593 157.923 55.7793 157.376 55.7793C156.847 55.7793 156.398 55.9684 156.029 56.3467C155.66 56.7249 155.432 57.2194 155.346 57.8301H159.126ZM165.627 56.1348C165.431 55.9844 165.148 55.9092 164.779 55.9092C164.301 55.9092 163.9 56.1348 163.576 56.5859C163.257 57.0371 163.098 57.6523 163.098 58.4316V62H161.977V55H163.098V56.4424H163.125C163.285 55.9502 163.528 55.5674 163.856 55.2939C164.185 55.016 164.551 54.877 164.957 54.877C165.249 54.877 165.472 54.9089 165.627 54.9727V56.1348ZM172.47 58.7803H167.527C167.546 59.5596 167.755 60.1611 168.156 60.585C168.557 61.0088 169.109 61.2207 169.811 61.2207C170.599 61.2207 171.324 60.9609 171.984 60.4414V61.4941C171.369 61.9408 170.556 62.1641 169.544 62.1641C168.555 62.1641 167.778 61.8473 167.213 61.2139C166.648 60.5758 166.365 59.6803 166.365 58.5273C166.365 57.4382 166.673 56.5518 167.288 55.8682C167.908 55.18 168.676 54.8359 169.592 54.8359C170.508 54.8359 171.216 55.1322 171.718 55.7246C172.219 56.3171 172.47 57.1396 172.47 58.1924V58.7803ZM171.321 57.8301C171.317 57.1829 171.16 56.6794 170.85 56.3193C170.544 55.9593 170.118 55.7793 169.571 55.7793C169.043 55.7793 168.594 55.9684 168.225 56.3467C167.855 56.7249 167.628 57.2194 167.541 57.8301H171.321ZM179.982 62H178.861V58.0078C178.861 56.5221 178.319 55.7793 177.234 55.7793C176.674 55.7793 176.209 55.9912 175.84 56.415C175.475 56.8343 175.293 57.3652 175.293 58.0078V62H174.172V55H175.293V56.1621H175.32C175.849 55.278 176.615 54.8359 177.617 54.8359C178.383 54.8359 178.968 55.0843 179.374 55.5811C179.78 56.0732 179.982 56.7865 179.982 57.7207V62ZM186.873 61.6787C186.335 62.0023 185.697 62.1641 184.959 62.1641C183.961 62.1641 183.154 61.8405 182.539 61.1934C181.928 60.5417 181.623 59.6986 181.623 58.6641C181.623 57.5111 181.953 56.5859 182.614 55.8887C183.275 55.1868 184.157 54.8359 185.26 54.8359C185.875 54.8359 186.417 54.9499 186.887 55.1777V56.3262C186.367 55.9616 185.811 55.7793 185.219 55.7793C184.503 55.7793 183.915 56.0368 183.455 56.5518C182.999 57.0622 182.771 57.7344 182.771 58.5684C182.771 59.3887 182.986 60.0358 183.414 60.5098C183.847 60.9837 184.426 61.2207 185.15 61.2207C185.761 61.2207 186.335 61.0179 186.873 60.6123V61.6787ZM194.194 58.7803H189.252C189.27 59.5596 189.48 60.1611 189.881 60.585C190.282 61.0088 190.833 61.2207 191.535 61.2207C192.324 61.2207 193.048 60.9609 193.709 60.4414V61.4941C193.094 61.9408 192.28 62.1641 191.269 62.1641C190.28 62.1641 189.503 61.8473 188.938 61.2139C188.372 60.5758 188.09 59.6803 188.09 58.5273C188.09 57.4382 188.397 56.5518 189.013 55.8682C189.632 55.18 190.4 54.8359 191.316 54.8359C192.232 54.8359 192.941 55.1322 193.442 55.7246C193.944 56.3171 194.194 57.1396 194.194 58.1924V58.7803ZM193.046 57.8301C193.041 57.1829 192.884 56.6794 192.574 56.3193C192.269 55.9593 191.843 55.7793 191.296 55.7793C190.767 55.7793 190.318 55.9684 189.949 56.3467C189.58 56.7249 189.352 57.2194 189.266 57.8301H193.046Z" fill="black"/>
<path d="M33.1875 92H31.7793L26.7344 84.1865C26.6068 83.9906 26.502 83.7855 26.4199 83.5713H26.3789C26.4154 83.7809 26.4336 84.2298 26.4336 84.918V92H25.2852V82.1973H26.7754L31.6836 89.8877C31.8887 90.2067 32.0208 90.4255 32.0801 90.5439H32.1074C32.0618 90.2614 32.0391 89.7806 32.0391 89.1016V82.1973H33.1875V92ZM38.5332 92.1641C37.4987 92.1641 36.6715 91.8382 36.0518 91.1865C35.4365 90.5303 35.1289 89.6621 35.1289 88.582C35.1289 87.4062 35.4502 86.488 36.0928 85.8271C36.7354 85.1663 37.6035 84.8359 38.6973 84.8359C39.7409 84.8359 40.5544 85.1572 41.1377 85.7998C41.7256 86.4424 42.0195 87.3333 42.0195 88.4727C42.0195 89.5892 41.7028 90.4847 41.0693 91.1592C40.4404 91.8291 39.5951 92.1641 38.5332 92.1641ZM38.6152 85.7793C37.8952 85.7793 37.3255 86.0254 36.9062 86.5176C36.487 87.0052 36.2773 87.6797 36.2773 88.541C36.2773 89.3704 36.4893 90.0244 36.9131 90.5029C37.3369 90.9814 37.9043 91.2207 38.6152 91.2207C39.3398 91.2207 39.8958 90.986 40.2832 90.5166C40.6751 90.0472 40.8711 89.3796 40.8711 88.5137C40.8711 87.6387 40.6751 86.9642 40.2832 86.4902C39.8958 86.0163 39.3398 85.7793 38.6152 85.7793ZM48.9512 88.2949V92H47.8027V82.1973H50.4961C51.5443 82.1973 52.3555 82.4525 52.9297 82.9629C53.5085 83.4733 53.7979 84.1934 53.7979 85.123C53.7979 86.0527 53.4766 86.8138 52.834 87.4062C52.196 87.9987 51.3324 88.2949 50.2432 88.2949H48.9512ZM48.9512 83.2363V87.2559H50.1543C50.9473 87.2559 51.5511 87.0758 51.9658 86.7158C52.3851 86.3512 52.5947 85.8385 52.5947 85.1777C52.5947 83.8835 51.8291 83.2363 50.2979 83.2363H48.9512ZM59.1504 86.1348C58.9544 85.9844 58.6719 85.9092 58.3027 85.9092C57.8242 85.9092 57.4232 86.1348 57.0996 86.5859C56.7806 87.0371 56.6211 87.6523 56.6211 88.4316V92H55.5V85H56.6211V86.4424H56.6484C56.8079 85.9502 57.0518 85.5674 57.3799 85.2939C57.708 85.016 58.0749 84.877 58.4805 84.877C58.7721 84.877 58.9954 84.9089 59.1504 84.9727V86.1348ZM65.9932 88.7803H61.0508C61.069 89.5596 61.2786 90.1611 61.6797 90.585C62.0807 91.0088 62.6322 91.2207 63.334 91.2207C64.1224 91.2207 64.847 90.9609 65.5078 90.4414V91.4941C64.8926 91.9408 64.0791 92.1641 63.0674 92.1641C62.0785 92.1641 61.3014 91.8473 60.7363 91.2139C60.1712 90.5758 59.8887 89.6803 59.8887 88.5273C59.8887 87.4382 60.1963 86.5518 60.8115 85.8682C61.4313 85.18 62.1992 84.8359 63.1152 84.8359C64.0312 84.8359 64.7399 85.1322 65.2412 85.7246C65.7425 86.3171 65.9932 87.1396 65.9932 88.1924V88.7803ZM64.8447 87.8301C64.8402 87.1829 64.6829 86.6794 64.373 86.3193C64.0677 85.9593 63.6416 85.7793 63.0947 85.7793C62.5661 85.7793 62.1172 85.9684 61.748 86.3467C61.3789 86.7249 61.151 87.2194 61.0645 87.8301H64.8447ZM71.1543 82.6211C70.9355 82.498 70.6872 82.4365 70.4092 82.4365C69.6253 82.4365 69.2334 82.931 69.2334 83.9199V85H70.874V85.957H69.2334V92H68.1191V85.957H66.9229V85H68.1191V83.8652C68.1191 83.1315 68.3311 82.5527 68.7549 82.1289C69.1787 81.7005 69.7074 81.4863 70.3408 81.4863C70.6826 81.4863 70.9538 81.5273 71.1543 81.6094V82.6211ZM77.71 88.7803H72.7676C72.7858 89.5596 72.9954 90.1611 73.3965 90.585C73.7975 91.0088 74.349 91.2207 75.0508 91.2207C75.8392 91.2207 76.5638 90.9609 77.2246 90.4414V91.4941C76.6094 91.9408 75.7959 92.1641 74.7842 92.1641C73.7952 92.1641 73.0182 91.8473 72.4531 91.2139C71.888 90.5758 71.6055 89.6803 71.6055 88.5273C71.6055 87.4382 71.9131 86.5518 72.5283 85.8682C73.1481 85.18 73.916 84.8359 74.832 84.8359C75.748 84.8359 76.4567 85.1322 76.958 85.7246C77.4593 86.3171 77.71 87.1396 77.71 88.1924V88.7803ZM76.5615 87.8301C76.557 87.1829 76.3997 86.6794 76.0898 86.3193C75.7845 85.9593 75.3584 85.7793 74.8115 85.7793C74.2829 85.7793 73.834 85.9684 73.4648 86.3467C73.0957 86.7249 72.8678 87.2194 72.7812 87.8301H76.5615ZM83.0625 86.1348C82.8665 85.9844 82.584 85.9092 82.2148 85.9092C81.7363 85.9092 81.3353 86.1348 81.0117 86.5859C80.6927 87.0371 80.5332 87.6523 80.5332 88.4316V92H79.4121V85H80.5332V86.4424H80.5605C80.7201 85.9502 80.9639 85.5674 81.292 85.2939C81.6201 85.016 81.987 84.877 82.3926 84.877C82.6842 84.877 82.9076 84.9089 83.0625 84.9727V86.1348ZM89.9053 88.7803H84.9629C84.9811 89.5596 85.1908 90.1611 85.5918 90.585C85.9928 91.0088 86.5443 91.2207 87.2461 91.2207C88.0345 91.2207 88.7591 90.9609 89.4199 90.4414V91.4941C88.8047 91.9408 87.9912 92.1641 86.9795 92.1641C85.9906 92.1641 85.2135 91.8473 84.6484 91.2139C84.0833 90.5758 83.8008 89.6803 83.8008 88.5273C83.8008 87.4382 84.1084 86.5518 84.7236 85.8682C85.3434 85.18 86.1113 84.8359 87.0273 84.8359C87.9434 84.8359 88.652 85.1322 89.1533 85.7246C89.6546 86.3171 89.9053 87.1396 89.9053 88.1924V88.7803ZM88.7568 87.8301C88.7523 87.1829 88.5951 86.6794 88.2852 86.3193C87.9798 85.9593 87.5537 85.7793 87.0068 85.7793C86.4782 85.7793 86.0293 85.9684 85.6602 86.3467C85.291 86.7249 85.0632 87.2194 84.9766 87.8301H88.7568ZM97.418 92H96.2969V88.0078C96.2969 86.5221 95.7546 85.7793 94.6699 85.7793C94.1094 85.7793 93.6445 85.9912 93.2754 86.415C92.9108 86.8343 92.7285 87.3652 92.7285 88.0078V92H91.6074V85H92.7285V86.1621H92.7559C93.2845 85.278 94.0501 84.8359 95.0527 84.8359C95.8184 84.8359 96.404 85.0843 96.8096 85.5811C97.2152 86.0732 97.418 86.7865 97.418 87.7207V92ZM104.309 91.6787C103.771 92.0023 103.133 92.1641 102.395 92.1641C101.396 92.1641 100.59 91.8405 99.9746 91.1934C99.3639 90.5417 99.0586 89.6986 99.0586 88.6641C99.0586 87.5111 99.389 86.5859 100.05 85.8887C100.711 85.1868 101.592 84.8359 102.695 84.8359C103.311 84.8359 103.853 84.9499 104.322 85.1777V86.3262C103.803 85.9616 103.247 85.7793 102.654 85.7793C101.939 85.7793 101.351 86.0368 100.891 86.5518C100.435 87.0622 100.207 87.7344 100.207 88.5684C100.207 89.3887 100.421 90.0358 100.85 90.5098C101.283 90.9837 101.861 91.2207 102.586 91.2207C103.197 91.2207 103.771 91.0179 104.309 90.6123V91.6787ZM111.63 88.7803H106.688C106.706 89.5596 106.915 90.1611 107.316 90.585C107.717 91.0088 108.269 91.2207 108.971 91.2207C109.759 91.2207 110.484 90.9609 111.145 90.4414V91.4941C110.529 91.9408 109.716 92.1641 108.704 92.1641C107.715 92.1641 106.938 91.8473 106.373 91.2139C105.808 90.5758 105.525 89.6803 105.525 88.5273C105.525 87.4382 105.833 86.5518 106.448 85.8682C107.068 85.18 107.836 84.8359 108.752 84.8359C109.668 84.8359 110.377 85.1322 110.878 85.7246C111.379 86.3171 111.63 87.1396 111.63 88.1924V88.7803ZM110.481 87.8301C110.477 87.1829 110.32 86.6794 110.01 86.3193C109.704 85.9593 109.278 85.7793 108.731 85.7793C108.203 85.7793 107.754 85.9684 107.385 86.3467C107.016 86.7249 106.788 87.2194 106.701 87.8301H110.481Z" fill="black"/>
</svg>
