<svg width="172" height="49" viewBox="0 0 172 49" fill="none" xmlns="http://www.w3.org/2000/svg">
<path d="M38.6543 15H37.5059V10.5293H32.4336V15H31.2852V5.19727H32.4336V9.49707H37.5059V5.19727H38.6543V15ZM46.085 15H44.9639V13.9062H44.9365C44.4489 14.7448 43.7311 15.1641 42.7832 15.1641C42.0859 15.1641 41.5391 14.9795 41.1426 14.6104C40.7507 14.2412 40.5547 13.7513 40.5547 13.1406C40.5547 11.8327 41.3249 11.0716 42.8652 10.8574L44.9639 10.5635C44.9639 9.37402 44.4831 8.7793 43.5215 8.7793C42.6784 8.7793 41.9173 9.06641 41.2383 9.64062V8.49219C41.9264 8.05469 42.7194 7.83594 43.6172 7.83594C45.2624 7.83594 46.085 8.70638 46.085 10.4473V15ZM44.9639 11.459L43.2754 11.6914C42.7559 11.7643 42.3639 11.8942 42.0996 12.0811C41.8353 12.2633 41.7031 12.5892 41.7031 13.0586C41.7031 13.4004 41.8239 13.6807 42.0654 13.8994C42.3115 14.1136 42.6374 14.2207 43.043 14.2207C43.599 14.2207 44.057 14.027 44.417 13.6396C44.7816 13.2477 44.9639 12.7533 44.9639 12.1562V11.459ZM47.7734 14.7471V13.5439C48.3841 13.9951 49.0563 14.2207 49.79 14.2207C50.7744 14.2207 51.2666 13.8926 51.2666 13.2363C51.2666 13.0495 51.2233 12.8923 51.1367 12.7646C51.0547 12.6325 50.9408 12.5163 50.7949 12.416C50.6536 12.3158 50.485 12.2269 50.2891 12.1494C50.0977 12.0674 49.8903 11.9831 49.667 11.8965C49.3571 11.7734 49.0837 11.6504 48.8467 11.5273C48.6143 11.3997 48.4183 11.2585 48.2588 11.1035C48.1038 10.944 47.9854 10.764 47.9033 10.5635C47.8258 10.363 47.7871 10.1283 47.7871 9.85938C47.7871 9.53125 47.8623 9.24186 48.0127 8.99121C48.1631 8.736 48.3636 8.52409 48.6143 8.35547C48.8649 8.18229 49.1497 8.05241 49.4688 7.96582C49.7923 7.87923 50.125 7.83594 50.4668 7.83594C51.0729 7.83594 51.6152 7.94076 52.0938 8.15039V9.28516C51.5788 8.94792 50.9863 8.7793 50.3164 8.7793C50.1068 8.7793 49.9176 8.80436 49.749 8.85449C49.5804 8.90007 49.4346 8.96615 49.3115 9.05273C49.193 9.13932 49.0996 9.24414 49.0312 9.36719C48.9674 9.48568 48.9355 9.61784 48.9355 9.76367C48.9355 9.94596 48.9674 10.0986 49.0312 10.2217C49.0996 10.3447 49.1976 10.4541 49.3252 10.5498C49.4528 10.6455 49.6077 10.7321 49.79 10.8096C49.9723 10.887 50.1797 10.9714 50.4121 11.0625C50.722 11.181 51 11.304 51.2461 11.4316C51.4922 11.5547 51.7018 11.696 51.875 11.8555C52.0482 12.0104 52.1803 12.1904 52.2715 12.3955C52.3672 12.6006 52.415 12.8444 52.415 13.127C52.415 13.4733 52.3376 13.7741 52.1826 14.0293C52.0322 14.2845 51.8294 14.4964 51.5742 14.665C51.319 14.8337 51.0251 14.959 50.6924 15.041C50.3597 15.123 50.0111 15.1641 49.6465 15.1641C48.9264 15.1641 48.3021 15.0251 47.7734 14.7471ZM62.9971 15H61.876V13.9062H61.8486C61.361 14.7448 60.6432 15.1641 59.6953 15.1641C58.998 15.1641 58.4512 14.9795 58.0547 14.6104C57.6628 14.2412 57.4668 13.7513 57.4668 13.1406C57.4668 11.8327 58.237 11.0716 59.7773 10.8574L61.876 10.5635C61.876 9.37402 61.3952 8.7793 60.4336 8.7793C59.5905 8.7793 58.8294 9.06641 58.1504 9.64062V8.49219C58.8385 8.05469 59.6315 7.83594 60.5293 7.83594C62.1745 7.83594 62.9971 8.70638 62.9971 10.4473V15ZM61.876 11.459L60.1875 11.6914C59.668 11.7643 59.276 11.8942 59.0117 12.0811C58.7474 12.2633 58.6152 12.5892 58.6152 13.0586C58.6152 13.4004 58.736 13.6807 58.9775 13.8994C59.2236 14.1136 59.5495 14.2207 59.9551 14.2207C60.5111 14.2207 60.9691 14.027 61.3291 13.6396C61.6937 13.2477 61.876 12.7533 61.876 12.1562V11.459ZM68.5273 14.7471V13.5439C69.138 13.9951 69.8102 14.2207 70.5439 14.2207C71.5283 14.2207 72.0205 13.8926 72.0205 13.2363C72.0205 13.0495 71.9772 12.8923 71.8906 12.7646C71.8086 12.6325 71.6947 12.5163 71.5488 12.416C71.4076 12.3158 71.2389 12.2269 71.043 12.1494C70.8516 12.0674 70.6442 11.9831 70.4209 11.8965C70.111 11.7734 69.8376 11.6504 69.6006 11.5273C69.3682 11.3997 69.1722 11.2585 69.0127 11.1035C68.8577 10.944 68.7393 10.764 68.6572 10.5635C68.5798 10.363 68.541 10.1283 68.541 9.85938C68.541 9.53125 68.6162 9.24186 68.7666 8.99121C68.917 8.736 69.1175 8.52409 69.3682 8.35547C69.6188 8.18229 69.9036 8.05241 70.2227 7.96582C70.5462 7.87923 70.8789 7.83594 71.2207 7.83594C71.8268 7.83594 72.3691 7.94076 72.8477 8.15039V9.28516C72.3327 8.94792 71.7402 8.7793 71.0703 8.7793C70.8607 8.7793 70.6715 8.80436 70.5029 8.85449C70.3343 8.90007 70.1885 8.96615 70.0654 9.05273C69.9469 9.13932 69.8535 9.24414 69.7852 9.36719C69.7214 9.48568 69.6895 9.61784 69.6895 9.76367C69.6895 9.94596 69.7214 10.0986 69.7852 10.2217C69.8535 10.3447 69.9515 10.4541 70.0791 10.5498C70.2067 10.6455 70.3617 10.7321 70.5439 10.8096C70.7262 10.887 70.9336 10.9714 71.166 11.0625C71.4759 11.181 71.7539 11.304 72 11.4316C72.2461 11.5547 72.4557 11.696 72.6289 11.8555C72.8021 12.0104 72.9342 12.1904 73.0254 12.3955C73.1211 12.6006 73.1689 12.8444 73.1689 13.127C73.1689 13.4733 73.0915 13.7741 72.9365 14.0293C72.7861 14.2845 72.5833 14.4964 72.3281 14.665C72.0729 14.8337 71.779 14.959 71.4463 15.041C71.1136 15.123 70.765 15.1641 70.4004 15.1641C69.6803 15.1641 69.056 15.0251 68.5273 14.7471ZM79.6699 14.6787C79.1322 15.0023 78.4941 15.1641 77.7559 15.1641C76.7578 15.1641 75.9512 14.8405 75.3359 14.1934C74.7253 13.5417 74.4199 12.6986 74.4199 11.6641C74.4199 10.5111 74.7503 9.58594 75.4111 8.88867C76.0719 8.18685 76.9538 7.83594 78.0566 7.83594C78.6719 7.83594 79.2142 7.94987 79.6836 8.17773V9.32617C79.1641 8.96159 78.6081 8.7793 78.0156 8.7793C77.3001 8.7793 76.7122 9.03678 76.252 9.55176C75.7962 10.0622 75.5684 10.7344 75.5684 11.5684C75.5684 12.3887 75.7826 13.0358 76.2109 13.5098C76.6439 13.9837 77.2227 14.2207 77.9473 14.2207C78.5579 14.2207 79.1322 14.0179 79.6699 13.6123V14.6787ZM87.1758 15H86.0547V10.9668C86.0547 9.50846 85.5124 8.7793 84.4277 8.7793C83.8809 8.7793 83.4206 8.99121 83.0469 9.41504C82.6732 9.83431 82.4863 10.3743 82.4863 11.0352V15H81.3652V4.63672H82.4863V9.16211H82.5137C83.0514 8.27799 83.8171 7.83594 84.8105 7.83594C86.3874 7.83594 87.1758 8.78613 87.1758 10.6865V15ZM94.9209 11.7803H89.9785C89.9967 12.5596 90.2064 13.1611 90.6074 13.585C91.0085 14.0088 91.5599 14.2207 92.2617 14.2207C93.0501 14.2207 93.7747 13.9609 94.4355 13.4414V14.4941C93.8203 14.9408 93.0068 15.1641 91.9951 15.1641C91.0062 15.1641 90.2292 14.8473 89.6641 14.2139C89.099 13.5758 88.8164 12.6803 88.8164 11.5273C88.8164 10.4382 89.124 9.55176 89.7393 8.86816C90.359 8.18001 91.127 7.83594 92.043 7.83594C92.959 7.83594 93.6676 8.13216 94.1689 8.72461C94.6702 9.31706 94.9209 10.1396 94.9209 11.1924V11.7803ZM93.7725 10.8301C93.7679 10.1829 93.6107 9.67936 93.3008 9.31934C92.9954 8.95931 92.5693 8.7793 92.0225 8.7793C91.4938 8.7793 91.0449 8.96842 90.6758 9.34668C90.3066 9.72493 90.0788 10.2194 89.9922 10.8301H93.7725ZM102.598 15H101.477V13.8105H101.449C100.93 14.7129 100.128 15.1641 99.043 15.1641C98.1634 15.1641 97.4593 14.8519 96.9307 14.2275C96.4066 13.5986 96.1445 12.7441 96.1445 11.6641C96.1445 10.5065 96.4362 9.5791 97.0195 8.88184C97.6029 8.18457 98.3799 7.83594 99.3506 7.83594C100.312 7.83594 101.012 8.21419 101.449 8.9707H101.477V4.63672H102.598V15ZM101.477 11.835V10.8027C101.477 10.2376 101.29 9.75911 100.916 9.36719C100.542 8.97526 100.068 8.7793 99.4941 8.7793C98.8105 8.7793 98.2728 9.02995 97.8809 9.53125C97.4889 10.0326 97.293 10.7253 97.293 11.6094C97.293 12.416 97.4798 13.054 97.8535 13.5234C98.2318 13.9883 98.7376 14.2207 99.3711 14.2207C99.9954 14.2207 100.501 13.9951 100.889 13.5439C101.281 13.0928 101.477 12.5231 101.477 11.835ZM110.527 15H109.406V13.8926H109.379C108.914 14.7402 108.194 15.1641 107.219 15.1641C105.551 15.1641 104.717 14.1706 104.717 12.1836V8H105.831V12.0059C105.831 13.4824 106.396 14.2207 107.526 14.2207C108.073 14.2207 108.522 14.0202 108.873 13.6191C109.229 13.2135 109.406 12.6849 109.406 12.0332V8H110.527V15ZM113.918 15H112.797V4.63672H113.918V15ZM121.813 11.7803H116.871C116.889 12.5596 117.099 13.1611 117.5 13.585C117.901 14.0088 118.452 14.2207 119.154 14.2207C119.943 14.2207 120.667 13.9609 121.328 13.4414V14.4941C120.713 14.9408 119.899 15.1641 118.888 15.1641C117.899 15.1641 117.122 14.8473 116.557 14.2139C115.992 13.5758 115.709 12.6803 115.709 11.5273C115.709 10.4382 116.017 9.55176 116.632 8.86816C117.252 8.18001 118.02 7.83594 118.936 7.83594C119.852 7.83594 120.56 8.13216 121.062 8.72461C121.563 9.31706 121.813 10.1396 121.813 11.1924V11.7803ZM120.665 10.8301C120.66 10.1829 120.503 9.67936 120.193 9.31934C119.888 8.95931 119.462 8.7793 118.915 8.7793C118.386 8.7793 117.938 8.96842 117.568 9.34668C117.199 9.72493 116.971 10.2194 116.885 10.8301H120.665ZM132.129 14.6787C131.591 15.0023 130.953 15.1641 130.215 15.1641C129.217 15.1641 128.41 14.8405 127.795 14.1934C127.184 13.5417 126.879 12.6986 126.879 11.6641C126.879 10.5111 127.209 9.58594 127.87 8.88867C128.531 8.18685 129.413 7.83594 130.516 7.83594C131.131 7.83594 131.673 7.94987 132.143 8.17773V9.32617C131.623 8.96159 131.067 8.7793 130.475 8.7793C129.759 8.7793 129.171 9.03678 128.711 9.55176C128.255 10.0622 128.027 10.7344 128.027 11.5684C128.027 12.3887 128.242 13.0358 128.67 13.5098C129.103 13.9837 129.682 14.2207 130.406 14.2207C131.017 14.2207 131.591 14.0179 132.129 13.6123V14.6787ZM136.75 15.1641C135.715 15.1641 134.888 14.8382 134.269 14.1865C133.653 13.5303 133.346 12.6621 133.346 11.582C133.346 10.4062 133.667 9.48796 134.31 8.82715C134.952 8.16634 135.82 7.83594 136.914 7.83594C137.958 7.83594 138.771 8.15723 139.354 8.7998C139.942 9.44238 140.236 10.3333 140.236 11.4727C140.236 12.5892 139.92 13.4847 139.286 14.1592C138.657 14.8291 137.812 15.1641 136.75 15.1641ZM136.832 8.7793C136.112 8.7793 135.542 9.02539 135.123 9.51758C134.704 10.0052 134.494 10.6797 134.494 11.541C134.494 12.3704 134.706 13.0244 135.13 13.5029C135.554 13.9814 136.121 14.2207 136.832 14.2207C137.557 14.2207 138.113 13.986 138.5 13.5166C138.892 13.0472 139.088 12.3796 139.088 11.5137C139.088 10.6387 138.892 9.96419 138.5 9.49023C138.113 9.01628 137.557 8.7793 136.832 8.7793ZM147.838 15H146.717V11.0078C146.717 9.52214 146.174 8.7793 145.09 8.7793C144.529 8.7793 144.064 8.99121 143.695 9.41504C143.331 9.83431 143.148 10.3652 143.148 11.0078V15H142.027V8H143.148V9.16211H143.176C143.704 8.27799 144.47 7.83594 145.473 7.83594C146.238 7.83594 146.824 8.08431 147.229 8.58105C147.635 9.07324 147.838 9.78646 147.838 10.7207V15ZM153.416 5.62109C153.197 5.49805 152.949 5.43652 152.671 5.43652C151.887 5.43652 151.495 5.93099 151.495 6.91992V8H153.136V8.95703H151.495V15H150.381V8.95703H149.185V8H150.381V6.86523C150.381 6.13151 150.593 5.55273 151.017 5.12891C151.44 4.70052 151.969 4.48633 152.603 4.48633C152.944 4.48633 153.215 4.52734 153.416 4.60938V5.62109ZM155.467 15H154.346V4.63672H155.467V15ZM158.311 6.22266C158.11 6.22266 157.939 6.1543 157.798 6.01758C157.657 5.88086 157.586 5.70768 157.586 5.49805C157.586 5.28841 157.657 5.11523 157.798 4.97852C157.939 4.83724 158.11 4.7666 158.311 4.7666C158.516 4.7666 158.689 4.83724 158.83 4.97852C158.976 5.11523 159.049 5.28841 159.049 5.49805C159.049 5.69857 158.976 5.86947 158.83 6.01074C158.689 6.15202 158.516 6.22266 158.311 6.22266ZM158.857 15H157.736V8H158.857V15ZM165.898 14.6787C165.361 15.0023 164.723 15.1641 163.984 15.1641C162.986 15.1641 162.18 14.8405 161.564 14.1934C160.954 13.5417 160.648 12.6986 160.648 11.6641C160.648 10.5111 160.979 9.58594 161.64 8.88867C162.3 8.18685 163.182 7.83594 164.285 7.83594C164.9 7.83594 165.443 7.94987 165.912 8.17773V9.32617C165.393 8.96159 164.837 8.7793 164.244 8.7793C163.529 8.7793 162.941 9.03678 162.48 9.55176C162.025 10.0622 161.797 10.7344 161.797 11.5684C161.797 12.3887 162.011 13.0358 162.439 13.5098C162.872 13.9837 163.451 14.2207 164.176 14.2207C164.786 14.2207 165.361 14.0179 165.898 13.6123V14.6787ZM170.841 14.9316C170.576 15.0775 170.228 15.1504 169.795 15.1504C168.569 15.1504 167.956 14.4668 167.956 13.0996V8.95703H166.753V8H167.956V6.29102L169.077 5.92871V8H170.841V8.95703H169.077V12.9014C169.077 13.3708 169.157 13.7057 169.316 13.9062C169.476 14.1068 169.74 14.207 170.109 14.207C170.392 14.207 170.636 14.1296 170.841 13.9746V14.9316Z" fill="black"/>
<path d="M38.6543 45H37.5059V40.5293H32.4336V45H31.2852V35.1973H32.4336V39.4971H37.5059V35.1973H38.6543V45ZM46.085 45H44.9639V43.9062H44.9365C44.4489 44.7448 43.7311 45.1641 42.7832 45.1641C42.0859 45.1641 41.5391 44.9795 41.1426 44.6104C40.7507 44.2412 40.5547 43.7513 40.5547 43.1406C40.5547 41.8327 41.3249 41.0716 42.8652 40.8574L44.9639 40.5635C44.9639 39.374 44.4831 38.7793 43.5215 38.7793C42.6784 38.7793 41.9173 39.0664 41.2383 39.6406V38.4922C41.9264 38.0547 42.7194 37.8359 43.6172 37.8359C45.2624 37.8359 46.085 38.7064 46.085 40.4473V45ZM44.9639 41.459L43.2754 41.6914C42.7559 41.7643 42.3639 41.8942 42.0996 42.0811C41.8353 42.2633 41.7031 42.5892 41.7031 43.0586C41.7031 43.4004 41.8239 43.6807 42.0654 43.8994C42.3115 44.1136 42.6374 44.2207 43.043 44.2207C43.599 44.2207 44.057 44.027 44.417 43.6396C44.7816 43.2477 44.9639 42.7533 44.9639 42.1562V41.459ZM47.7734 44.7471V43.5439C48.3841 43.9951 49.0563 44.2207 49.79 44.2207C50.7744 44.2207 51.2666 43.8926 51.2666 43.2363C51.2666 43.0495 51.2233 42.8923 51.1367 42.7646C51.0547 42.6325 50.9408 42.5163 50.7949 42.416C50.6536 42.3158 50.485 42.2269 50.2891 42.1494C50.0977 42.0674 49.8903 41.9831 49.667 41.8965C49.3571 41.7734 49.0837 41.6504 48.8467 41.5273C48.6143 41.3997 48.4183 41.2585 48.2588 41.1035C48.1038 40.944 47.9854 40.764 47.9033 40.5635C47.8258 40.363 47.7871 40.1283 47.7871 39.8594C47.7871 39.5312 47.8623 39.2419 48.0127 38.9912C48.1631 38.736 48.3636 38.5241 48.6143 38.3555C48.8649 38.1823 49.1497 38.0524 49.4688 37.9658C49.7923 37.8792 50.125 37.8359 50.4668 37.8359C51.0729 37.8359 51.6152 37.9408 52.0938 38.1504V39.2852C51.5788 38.9479 50.9863 38.7793 50.3164 38.7793C50.1068 38.7793 49.9176 38.8044 49.749 38.8545C49.5804 38.9001 49.4346 38.9661 49.3115 39.0527C49.193 39.1393 49.0996 39.2441 49.0312 39.3672C48.9674 39.4857 48.9355 39.6178 48.9355 39.7637C48.9355 39.946 48.9674 40.0986 49.0312 40.2217C49.0996 40.3447 49.1976 40.4541 49.3252 40.5498C49.4528 40.6455 49.6077 40.7321 49.79 40.8096C49.9723 40.887 50.1797 40.9714 50.4121 41.0625C50.722 41.181 51 41.304 51.2461 41.4316C51.4922 41.5547 51.7018 41.696 51.875 41.8555C52.0482 42.0104 52.1803 42.1904 52.2715 42.3955C52.3672 42.6006 52.415 42.8444 52.415 43.127C52.415 43.4733 52.3376 43.7741 52.1826 44.0293C52.0322 44.2845 51.8294 44.4964 51.5742 44.665C51.319 44.8337 51.0251 44.959 50.6924 45.041C50.3597 45.123 50.0111 45.1641 49.6465 45.1641C48.9264 45.1641 48.3021 45.0251 47.7734 44.7471ZM62.9971 45H61.876V43.9062H61.8486C61.361 44.7448 60.6432 45.1641 59.6953 45.1641C58.998 45.1641 58.4512 44.9795 58.0547 44.6104C57.6628 44.2412 57.4668 43.7513 57.4668 43.1406C57.4668 41.8327 58.237 41.0716 59.7773 40.8574L61.876 40.5635C61.876 39.374 61.3952 38.7793 60.4336 38.7793C59.5905 38.7793 58.8294 39.0664 58.1504 39.6406V38.4922C58.8385 38.0547 59.6315 37.8359 60.5293 37.8359C62.1745 37.8359 62.9971 38.7064 62.9971 40.4473V45ZM61.876 41.459L60.1875 41.6914C59.668 41.7643 59.276 41.8942 59.0117 42.0811C58.7474 42.2633 58.6152 42.5892 58.6152 43.0586C58.6152 43.4004 58.736 43.6807 58.9775 43.8994C59.2236 44.1136 59.5495 44.2207 59.9551 44.2207C60.5111 44.2207 60.9691 44.027 61.3291 43.6396C61.6937 43.2477 61.876 42.7533 61.876 42.1562V41.459ZM70.0996 43.9883H70.0723V45H68.9512V34.6367H70.0723V39.2305H70.0996C70.651 38.3008 71.4577 37.8359 72.5195 37.8359C73.4173 37.8359 74.1191 38.1504 74.625 38.7793C75.1354 39.4036 75.3906 40.2422 75.3906 41.2949C75.3906 42.4661 75.1058 43.4049 74.5361 44.1113C73.9665 44.8132 73.1872 45.1641 72.1982 45.1641C71.2731 45.1641 70.5736 44.7721 70.0996 43.9883ZM70.0723 41.165V42.1426C70.0723 42.7214 70.2591 43.2135 70.6328 43.6191C71.0111 44.0202 71.4896 44.2207 72.0684 44.2207C72.7474 44.2207 73.2783 43.9609 73.6611 43.4414C74.0485 42.9219 74.2422 42.1995 74.2422 41.2744C74.2422 40.4951 74.0622 39.8844 73.7021 39.4424C73.3421 39.0003 72.8545 38.7793 72.2393 38.7793C71.5876 38.7793 71.0635 39.0072 70.667 39.4629C70.2705 39.9141 70.0723 40.4814 70.0723 41.165ZM78.3027 45H77.1816V34.6367H78.3027V45ZM83.498 45.1641C82.4635 45.1641 81.6364 44.8382 81.0166 44.1865C80.4014 43.5303 80.0938 42.6621 80.0938 41.582C80.0938 40.4062 80.415 39.488 81.0576 38.8271C81.7002 38.1663 82.5684 37.8359 83.6621 37.8359C84.7057 37.8359 85.5192 38.1572 86.1025 38.7998C86.6904 39.4424 86.9844 40.3333 86.9844 41.4727C86.9844 42.5892 86.6676 43.4847 86.0342 44.1592C85.4053 44.8291 84.5599 45.1641 83.498 45.1641ZM83.5801 38.7793C82.86 38.7793 82.2904 39.0254 81.8711 39.5176C81.4518 40.0052 81.2422 40.6797 81.2422 41.541C81.2422 42.3704 81.4541 43.0244 81.8779 43.5029C82.3018 43.9814 82.8691 44.2207 83.5801 44.2207C84.3047 44.2207 84.8607 43.986 85.248 43.5166C85.64 43.0472 85.8359 42.3796 85.8359 41.5137C85.8359 40.6387 85.64 39.9642 85.248 39.4902C84.8607 39.0163 84.3047 38.7793 83.5801 38.7793ZM93.5469 44.6787C93.0091 45.0023 92.3711 45.1641 91.6328 45.1641C90.6348 45.1641 89.8281 44.8405 89.2129 44.1934C88.6022 43.5417 88.2969 42.6986 88.2969 41.6641C88.2969 40.5111 88.6273 39.5859 89.2881 38.8887C89.9489 38.1868 90.8307 37.8359 91.9336 37.8359C92.5488 37.8359 93.0911 37.9499 93.5605 38.1777V39.3262C93.041 38.9616 92.485 38.7793 91.8926 38.7793C91.1771 38.7793 90.5892 39.0368 90.1289 39.5518C89.6732 40.0622 89.4453 40.7344 89.4453 41.5684C89.4453 42.3887 89.6595 43.0358 90.0879 43.5098C90.5208 43.9837 91.0996 44.2207 91.8242 44.2207C92.4349 44.2207 93.0091 44.0179 93.5469 43.6123V44.6787ZM101.053 45H99.4805L96.3906 41.6367H96.3633V45H95.2422V34.6367H96.3633V41.2061H96.3906L99.3301 38H100.8L97.5527 41.377L101.053 45ZM108.969 45.1641C107.934 45.1641 107.107 44.8382 106.487 44.1865C105.872 43.5303 105.564 42.6621 105.564 41.582C105.564 40.4062 105.886 39.488 106.528 38.8271C107.171 38.1663 108.039 37.8359 109.133 37.8359C110.176 37.8359 110.99 38.1572 111.573 38.7998C112.161 39.4424 112.455 40.3333 112.455 41.4727C112.455 42.5892 112.138 43.4847 111.505 44.1592C110.876 44.8291 110.031 45.1641 108.969 45.1641ZM109.051 38.7793C108.331 38.7793 107.761 39.0254 107.342 39.5176C106.923 40.0052 106.713 40.6797 106.713 41.541C106.713 42.3704 106.925 43.0244 107.349 43.5029C107.772 43.9814 108.34 44.2207 109.051 44.2207C109.775 44.2207 110.331 43.986 110.719 43.5166C111.111 43.0472 111.307 42.3796 111.307 41.5137C111.307 40.6387 111.111 39.9642 110.719 39.4902C110.331 39.0163 109.775 38.7793 109.051 38.7793ZM119.906 45H118.785V43.8926H118.758C118.293 44.7402 117.573 45.1641 116.598 45.1641C114.93 45.1641 114.096 44.1706 114.096 42.1836V38H115.21V42.0059C115.21 43.4824 115.775 44.2207 116.905 44.2207C117.452 44.2207 117.901 44.0202 118.252 43.6191C118.607 43.2135 118.785 42.6849 118.785 42.0332V38H119.906V45ZM125.423 44.9316C125.159 45.0775 124.81 45.1504 124.377 45.1504C123.151 45.1504 122.538 44.4668 122.538 43.0996V38.957H121.335V38H122.538V36.291L123.659 35.9287V38H125.423V38.957H123.659V42.9014C123.659 43.3708 123.739 43.7057 123.898 43.9062C124.058 44.1068 124.322 44.207 124.691 44.207C124.974 44.207 125.218 44.1296 125.423 43.9746V44.9316ZM136.736 45H135.615V43.8105H135.588C135.068 44.7129 134.266 45.1641 133.182 45.1641C132.302 45.1641 131.598 44.8519 131.069 44.2275C130.545 43.5986 130.283 42.7441 130.283 41.6641C130.283 40.5065 130.575 39.5791 131.158 38.8818C131.742 38.1846 132.519 37.8359 133.489 37.8359C134.451 37.8359 135.15 38.2142 135.588 38.9707H135.615V34.6367H136.736V45ZM135.615 41.835V40.8027C135.615 40.2376 135.428 39.7591 135.055 39.3672C134.681 38.9753 134.207 38.7793 133.633 38.7793C132.949 38.7793 132.411 39.0299 132.02 39.5312C131.628 40.0326 131.432 40.7253 131.432 41.6094C131.432 42.416 131.618 43.054 131.992 43.5234C132.37 43.9883 132.876 44.2207 133.51 44.2207C134.134 44.2207 134.64 43.9951 135.027 43.5439C135.419 43.0928 135.615 42.5231 135.615 41.835ZM144.017 45H142.896V43.9062H142.868C142.381 44.7448 141.663 45.1641 140.715 45.1641C140.018 45.1641 139.471 44.9795 139.074 44.6104C138.682 44.2412 138.486 43.7513 138.486 43.1406C138.486 41.8327 139.257 41.0716 140.797 40.8574L142.896 40.5635C142.896 39.374 142.415 38.7793 141.453 38.7793C140.61 38.7793 139.849 39.0664 139.17 39.6406V38.4922C139.858 38.0547 140.651 37.8359 141.549 37.8359C143.194 37.8359 144.017 38.7064 144.017 40.4473V45ZM142.896 41.459L141.207 41.6914C140.688 41.7643 140.296 41.8942 140.031 42.0811C139.767 42.2633 139.635 42.5892 139.635 43.0586C139.635 43.4004 139.756 43.6807 139.997 43.8994C140.243 44.1136 140.569 44.2207 140.975 44.2207C141.531 44.2207 141.989 44.027 142.349 43.6396C142.713 43.2477 142.896 42.7533 142.896 42.1562V41.459ZM149.376 44.9316C149.112 45.0775 148.763 45.1504 148.33 45.1504C147.104 45.1504 146.491 44.4668 146.491 43.0996V38.957H145.288V38H146.491V36.291L147.612 35.9287V38H149.376V38.957H147.612V42.9014C147.612 43.3708 147.692 43.7057 147.852 43.9062C148.011 44.1068 148.275 44.207 148.645 44.207C148.927 44.207 149.171 44.1296 149.376 43.9746V44.9316ZM156.499 41.7803H151.557C151.575 42.5596 151.785 43.1611 152.186 43.585C152.587 44.0088 153.138 44.2207 153.84 44.2207C154.628 44.2207 155.353 43.9609 156.014 43.4414V44.4941C155.398 44.9408 154.585 45.1641 153.573 45.1641C152.584 45.1641 151.807 44.8473 151.242 44.2139C150.677 43.5758 150.395 42.6803 150.395 41.5273C150.395 40.4382 150.702 39.5518 151.317 38.8682C151.937 38.18 152.705 37.8359 153.621 37.8359C154.537 37.8359 155.246 38.1322 155.747 38.7246C156.248 39.3171 156.499 40.1396 156.499 41.1924V41.7803ZM155.351 40.8301C155.346 40.1829 155.189 39.6794 154.879 39.3193C154.574 38.9593 154.147 38.7793 153.601 38.7793C153.072 38.7793 152.623 38.9684 152.254 39.3467C151.885 39.7249 151.657 40.2194 151.57 40.8301H155.351Z" fill="black"/>
<path d="M14.175 9.125C12.0606 9.125 10.35 10.8859 10.35 13.0625C10.35 15.2391 12.0606 17 14.175 17C16.2894 17 18 15.2391 18 13.0625C18 10.8859 16.2894 9.125 14.175 9.125ZM15.875 13.2348C15.875 13.3797 15.7581 13.5 15.6173 13.5H14.0077C13.8669 13.5 13.75 13.3797 13.75 13.2348V11.1402C13.75 10.9953 13.8669 10.875 14.0077 10.875H14.3423C14.4831 10.875 14.6 10.9953 14.6 11.1402V12.625H15.6173C15.7581 12.625 15.875 12.7453 15.875 12.8902V13.2348ZM9.5 13.0625C9.5 12.3023 9.67797 11.5832 9.98344 10.9434C9.77094 10.9023 9.55313 10.875 9.33 10.875H8.88641C8.29672 11.1539 7.64062 11.3125 6.95 11.3125C6.25938 11.3125 5.60594 11.1539 5.01359 10.875H4.57C2.59906 10.875 1 12.5211 1 14.55V15.6875C1 16.4121 1.57109 17 2.275 17H11.4948C10.2916 16.1277 9.5 14.6895 9.5 13.0625ZM6.95 10C8.82797 10 10.35 8.4332 10.35 6.5C10.35 4.5668 8.82797 3 6.95 3C5.07203 3 3.55 4.5668 3.55 6.5C3.55 8.4332 5.07203 10 6.95 10Z" fill="#767676"/>
<path d="M16.5844 37.5625L17.8671 36.3156C18.0443 36.1434 18.0443 35.8645 17.8671 35.6922L17.2258 35.0687C17.0486 34.8965 16.7617 34.8965 16.5844 35.0687L15.3018 36.3156L14.0191 35.0687C13.8419 34.8965 13.555 34.8965 13.3778 35.0687L12.7365 35.6922C12.5593 35.8645 12.5593 36.1434 12.7365 36.3156L14.0191 37.5625L12.7365 38.8094C12.5593 38.9816 12.5593 39.2605 12.7365 39.4328L13.3778 40.0562C13.555 40.2285 13.8419 40.2285 14.0191 40.0562L15.3018 38.8094L16.5844 40.0562C16.7617 40.2285 17.0486 40.2285 17.2258 40.0562L17.8671 39.4328C18.0443 39.2605 18.0443 38.9816 17.8671 38.8094L16.5844 37.5625ZM6.30074 38C8.28941 38 9.90116 36.4332 9.90116 34.5C9.90116 32.5668 8.28941 31 6.30074 31C4.31207 31 2.70032 32.5668 2.70032 34.5C2.70032 36.4332 4.31207 38 6.30074 38ZM8.82103 38.875H8.35129C7.72684 39.1539 7.03207 39.3125 6.30074 39.3125C5.5694 39.3125 4.87745 39.1539 4.25019 38.875H3.78044C1.69332 38.875 0 40.5211 0 42.55V43.6875C0 44.4121 0.604758 45 1.35016 45H11.2513C11.9967 45 12.6015 44.4121 12.6015 43.6875V42.55C12.6015 40.5211 10.9082 38.875 8.82103 38.875Z" fill="#767676"/>
</svg>
