<?xml version="1.0" encoding="utf-8"?>
<!-- Generator: Adobe Illustrator 18.1.1, SVG Export Plug-In . SVG Version: 6.00 Build 0)  -->
<svg version="1.2" baseProfile="tiny" id="Layer_1" xmlns="http://www.w3.org/2000/svg" xmlns:xlink="http://www.w3.org/1999/xlink"
	 x="0px" y="0px" viewBox="0 0 238.2 50" xml:space="preserve">
<g id="Box_with_Bleed">
	<rect x="128.8" y="0" width="109.4" height="50"/>
	<rect x="0" y="0" fill="#7A1315" width="130.8" height="50"/>
	<path fill="#FFFFFF" d="M61.1,14.5c-0.8-0.3-1.8,0.4-2.6,1.5c-0.7,0.9-1.2,3-0.3,3.5c1.3,0.7,2.6-1,3.1-1.8
		C61.9,16.7,62.2,15,61.1,14.5"/>
	<path fill="#FFFFFF" d="M77.8,14.5c-0.8-0.3-1.8,0.4-2.6,1.5c-0.7,0.9-1.2,3-0.3,3.5c1.3,0.7,2.6-1,3.1-1.8
		C78.6,16.6,78.9,15,77.8,14.5"/>
	<path fill="#FFFFFF" d="M103.7,14c-0.8-0.4-1.8,0.4-2.6,1.5c-0.7,0.9-1.2,3-0.3,3.5c1.3,0.7,2.6-1,3.1-1.8
		C104.5,16.2,104.8,14.5,103.7,14"/>
	<path fill="#FFFFFF" d="M69.2,17c-1.3-1.5-12,3.2-12.7,8.2c-0.8,6.1,9.4,13.6,10.6,11.3c0.5-1-8.3-5.2-6-11
		C63.6,19.4,70.3,18.4,69.2,17"/>
	<path fill="#FFFFFF" d="M85.8,17.1c-1.3-1.5-12,3.2-12.7,8.2c-0.8,6.1,9,13.7,10.6,11.3c0.6-0.9-8.3-5.2-6-11
		C80.2,19.5,87,18.4,85.8,17.1"/>
	<path fill="#FFFFFF" d="M91.3,16.1c-1,0-1.1,0.3-1.1,0.6c-0.2,0.8,4.6,6.1,5.4,9.7c0.9,3.9,0.6,9.7,0.8,10.1
		c0.2,0.6,0.8,0.3,1.6,0.3c0.8,0.1,1.5,0.7,1.9,0.3c0.3-0.3,3.2-10.1,9-15c6-5.1,12.3-7.8,12.4-8.4c0.1-0.3-1.1-1-2.3-1.1
		c-1.1-0.1-7.4,2.8-11.8,7c-4.6,4.3-7,9.7-7.8,9.6c-0.3,0-0.7-2.4-2.5-6.4C95,18.4,92.3,16,91.3,16.1"/>
	<path fill="#FFFFFF" d="M147.5,21.7c-0.1,0.4-0.3,0.7-0.6,0.9c-0.2,0.2-0.5,0.4-0.8,0.5c-0.3,0.1-0.6,0.2-1,0.2
		c-0.3,0-0.5,0-0.7-0.1c-0.2,0-0.4-0.1-0.5-0.2c-0.2-0.1-0.3-0.2-0.4-0.3c-0.1-0.1-0.2-0.2-0.3-0.4c-0.2-0.2-0.3-0.5-0.4-0.8
		c-0.1-0.3-0.2-0.6-0.2-1c0-0.3-0.1-0.7-0.1-1c0-0.4,0-0.7,0-1c0-0.3,0-0.6,0-1c0-0.4,0-0.7,0.1-1c0-0.3,0.1-0.7,0.2-1
		c0.1-0.3,0.2-0.6,0.4-0.8c0.1-0.1,0.2-0.2,0.3-0.4c0.1-0.1,0.3-0.2,0.4-0.3c0.2-0.1,0.3-0.2,0.5-0.2c0.2,0,0.4-0.1,0.7-0.1
		c0.4,0,0.7,0.1,1,0.2c0.3,0.1,0.5,0.3,0.8,0.5c0.2,0.2,0.4,0.5,0.6,0.9c0.1,0.4,0.2,0.8,0.2,1.2h-1.8c0-0.1,0-0.3,0-0.4
		c0-0.1-0.1-0.2-0.1-0.3c-0.1-0.1-0.1-0.2-0.2-0.3c-0.1-0.1-0.2-0.1-0.4-0.1c-0.2,0-0.3,0-0.4,0.1c-0.1,0.1-0.2,0.2-0.2,0.3
		c-0.1,0.1-0.1,0.3-0.1,0.4c0,0.2-0.1,0.4-0.1,0.7c0,0.2,0,0.5,0,0.8c0,0.3,0,0.6,0,0.8c0,0.3,0,0.6,0,0.8c0,0.3,0,0.5,0,0.8
		c0,0.2,0,0.5,0.1,0.6c0,0.2,0.1,0.3,0.1,0.4c0.1,0.1,0.1,0.2,0.2,0.3c0.1,0.1,0.2,0.1,0.4,0.1c0.2,0,0.3,0,0.4-0.1
		c0.1-0.1,0.2-0.2,0.2-0.3c0.1-0.1,0.1-0.2,0.1-0.3c0-0.1,0-0.3,0-0.4h1.8C147.7,20.9,147.6,21.3,147.5,21.7"/>
	<polygon fill="#FFFFFF" points="152.2,23.1 152.2,19.3 150.7,19.3 150.7,23.1 148.8,23.1 148.8,13.9 150.7,13.9 150.7,17.6
		152.2,17.6 152.2,13.9 154.1,13.9 154.1,23.1 	"/>
	<path fill="#FFFFFF" d="M159.1,23.1l-1.1-3.6h-0.6v3.6h-1.8v-9.3h2.6c0.5,0,0.9,0.1,1.3,0.2c0.3,0.1,0.6,0.3,0.8,0.6
		c0.2,0.2,0.3,0.5,0.4,0.9c0.1,0.3,0.1,0.7,0.1,1.2c0,0.3,0,0.5,0,0.7c0,0.2-0.1,0.4-0.1,0.7c-0.1,0.2-0.2,0.4-0.3,0.6
		c-0.1,0.2-0.3,0.3-0.5,0.5l1.4,4H159.1z M158.9,16.7c0-0.1,0-0.3,0-0.4c0-0.1,0-0.3-0.1-0.4c0-0.1-0.1-0.2-0.2-0.3
		c-0.1-0.1-0.2-0.1-0.4-0.1h-0.8v2.3h0.8c0.2,0,0.3,0,0.4-0.1c0.1-0.1,0.2-0.2,0.2-0.3c0-0.1,0.1-0.2,0.1-0.4
		C158.9,17,158.9,16.8,158.9,16.7"/>
	<rect x="162" y="13.9" fill="#FFFFFF" width="1.8" height="9.3"/>
	<path fill="#FFFFFF" d="M170.3,20.5c0,0.5,0,0.9-0.1,1.2c-0.1,0.3-0.2,0.6-0.5,0.9c-0.2,0.2-0.5,0.4-0.8,0.5
		c-0.3,0.1-0.7,0.2-1.2,0.2c-0.5,0-0.9-0.1-1.2-0.2c-0.3-0.1-0.6-0.3-0.8-0.5c-0.2-0.2-0.4-0.5-0.5-0.8c-0.1-0.3-0.1-0.7-0.1-1.2
		h1.8c0,0.2,0,0.4,0,0.5c0,0.1,0.1,0.3,0.2,0.4c0.1,0.1,0.1,0.1,0.2,0.2c0.1,0,0.2,0.1,0.4,0.1c0.3,0,0.5-0.1,0.6-0.2
		c0.1-0.1,0.2-0.4,0.2-0.8c0-0.2,0-0.4,0-0.5c0-0.1-0.1-0.3-0.1-0.4c-0.1-0.1-0.1-0.2-0.2-0.2c-0.1-0.1-0.2-0.1-0.4-0.2l-1.2-0.5
		c-0.2-0.1-0.4-0.2-0.6-0.3c-0.2-0.1-0.3-0.3-0.4-0.4c-0.1-0.2-0.2-0.4-0.2-0.6c-0.1-0.3-0.1-0.6-0.1-0.9c0-0.4,0.1-0.8,0.2-1.2
		c0.1-0.3,0.3-0.6,0.6-0.9c0.2-0.2,0.5-0.3,0.8-0.4c0.3-0.1,0.6-0.1,0.9-0.1c0.8,0,1.4,0.2,1.8,0.6c0.3,0.2,0.4,0.5,0.5,0.9
		c0.1,0.4,0.2,0.8,0.2,1.2h-1.8c0-0.2,0-0.3,0-0.5c0-0.1-0.1-0.3-0.1-0.4c-0.1-0.1-0.1-0.1-0.2-0.2c-0.1,0-0.2-0.1-0.3-0.1
		c-0.1,0-0.2,0-0.3,0.1c-0.1,0-0.2,0.1-0.2,0.2c-0.1,0.1-0.2,0.4-0.2,0.7c0,0.1,0,0.3,0,0.4c0,0.1,0,0.2,0.1,0.3
		c0,0.1,0.1,0.1,0.2,0.2c0.1,0.1,0.2,0.1,0.3,0.2l1.2,0.5c0.3,0.1,0.5,0.2,0.7,0.4c0.2,0.1,0.3,0.3,0.5,0.5c0.1,0.2,0.2,0.4,0.2,0.7
		C170.2,19.7,170.3,20.1,170.3,20.5"/>
	<polygon fill="#FFFFFF" points="174.4,15.5 174.4,23.1 172.5,23.1 172.5,15.5 171,15.5 171,13.9 175.9,13.9 175.9,15.5 	"/>
	<polygon fill="#FFFFFF" points="176.9,17.1 176.9,13.9 178.8,13.9 178.8,15.7 	"/>
	<path fill="#FFFFFF" d="M185.1,20.5c0,0.5,0,0.9-0.1,1.2c-0.1,0.3-0.2,0.6-0.5,0.9c-0.2,0.2-0.5,0.4-0.8,0.5
		c-0.3,0.1-0.7,0.2-1.2,0.2c-0.5,0-0.9-0.1-1.2-0.2c-0.3-0.1-0.6-0.3-0.8-0.5c-0.2-0.2-0.4-0.5-0.5-0.8c-0.1-0.3-0.1-0.7-0.1-1.2
		h1.8c0,0.2,0,0.4,0,0.5c0,0.1,0.1,0.3,0.2,0.4c0.1,0.1,0.1,0.1,0.2,0.2c0.1,0,0.2,0.1,0.4,0.1c0.3,0,0.5-0.1,0.6-0.2
		c0.1-0.1,0.2-0.4,0.2-0.8c0-0.2,0-0.4,0-0.5c0-0.1-0.1-0.3-0.1-0.4c-0.1-0.1-0.1-0.2-0.2-0.2c-0.1-0.1-0.2-0.1-0.4-0.2l-1.2-0.5
		c-0.2-0.1-0.4-0.2-0.6-0.3c-0.2-0.1-0.3-0.3-0.4-0.4c-0.1-0.2-0.2-0.4-0.2-0.6c-0.1-0.3-0.1-0.6-0.1-0.9c0-0.4,0.1-0.8,0.2-1.2
		c0.1-0.3,0.3-0.6,0.6-0.9c0.2-0.2,0.5-0.3,0.8-0.4c0.3-0.1,0.6-0.1,0.9-0.1c0.8,0,1.4,0.2,1.8,0.6c0.3,0.2,0.4,0.5,0.5,0.9
		c0.1,0.4,0.2,0.8,0.2,1.2h-1.8c0-0.2,0-0.3,0-0.5c0-0.1-0.1-0.3-0.1-0.4c-0.1-0.1-0.1-0.1-0.2-0.2c-0.1,0-0.2-0.1-0.3-0.1
		c-0.1,0-0.2,0-0.3,0.1c-0.1,0-0.2,0.1-0.2,0.2c-0.1,0.1-0.2,0.4-0.2,0.7c0,0.1,0,0.3,0,0.4c0,0.1,0,0.2,0.1,0.3
		c0,0.1,0.1,0.1,0.2,0.2c0.1,0.1,0.2,0.1,0.3,0.2l1.2,0.5c0.3,0.1,0.5,0.2,0.7,0.4c0.2,0.1,0.3,0.3,0.5,0.5c0.1,0.2,0.2,0.4,0.2,0.7
		C185.1,19.7,185.1,20.1,185.1,20.5"/>
	<path fill="#FFFFFF" d="M193.3,21.7c-0.1,0.4-0.3,0.7-0.6,0.9c-0.2,0.2-0.5,0.4-0.8,0.5c-0.3,0.1-0.6,0.2-1,0.2
		c-0.3,0-0.5,0-0.7-0.1c-0.2,0-0.4-0.1-0.5-0.2c-0.2-0.1-0.3-0.2-0.4-0.3c-0.1-0.1-0.2-0.2-0.3-0.4c-0.2-0.2-0.3-0.5-0.4-0.8
		c-0.1-0.3-0.2-0.6-0.2-1c0-0.3-0.1-0.7-0.1-1c0-0.4,0-0.7,0-1c0-0.3,0-0.6,0-1c0-0.4,0-0.7,0.1-1c0-0.3,0.1-0.7,0.2-1
		c0.1-0.3,0.2-0.6,0.4-0.8c0.1-0.1,0.2-0.2,0.3-0.4c0.1-0.1,0.3-0.2,0.4-0.3c0.2-0.1,0.3-0.2,0.5-0.2c0.2,0,0.4-0.1,0.7-0.1
		c0.4,0,0.7,0.1,1,0.2c0.3,0.1,0.5,0.3,0.8,0.5c0.2,0.2,0.4,0.5,0.6,0.9c0.1,0.4,0.2,0.8,0.2,1.2h-1.8c0-0.1,0-0.3,0-0.4
		c0-0.1-0.1-0.2-0.1-0.3c-0.1-0.1-0.1-0.2-0.2-0.3c-0.1-0.1-0.2-0.1-0.4-0.1c-0.2,0-0.3,0-0.4,0.1c-0.1,0.1-0.2,0.2-0.2,0.3
		c-0.1,0.1-0.1,0.3-0.1,0.4c0,0.2-0.1,0.4-0.1,0.7c0,0.2,0,0.5,0,0.8c0,0.3,0,0.6,0,0.8c0,0.3,0,0.6,0,0.8c0,0.3,0,0.5,0,0.8
		c0,0.2,0,0.5,0.1,0.6c0,0.2,0.1,0.3,0.1,0.4c0.1,0.1,0.1,0.2,0.2,0.3c0.1,0.1,0.2,0.1,0.4,0.1c0.2,0,0.3,0,0.4-0.1
		c0.1-0.1,0.2-0.2,0.2-0.3c0.1-0.1,0.1-0.2,0.1-0.3c0-0.1,0-0.3,0-0.4h1.8C193.5,20.9,193.4,21.3,193.3,21.7"/>
	<polygon fill="#FFFFFF" points="198,23.1 198,19.3 196.5,19.3 196.5,23.1 194.7,23.1 194.7,13.9 196.5,13.9 196.5,17.6 198,17.6
		198,13.9 199.9,13.9 199.9,23.1 	"/>
	<path fill="#FFFFFF" d="M206.3,21.7c-0.1,0.3-0.3,0.6-0.5,0.8c-0.5,0.5-1.1,0.8-1.9,0.8c-0.8,0-1.4-0.3-1.9-0.8
		c-0.2-0.2-0.4-0.5-0.5-0.8c-0.1-0.3-0.2-0.6-0.2-1v-6.8h1.8v6.9c0,0.3,0.1,0.5,0.2,0.6c0.2,0.1,0.3,0.2,0.5,0.2
		c0.2,0,0.4-0.1,0.5-0.2c0.2-0.1,0.2-0.3,0.2-0.6v-6.9h1.8v6.8C206.5,21,206.4,21.4,206.3,21.7"/>
	<path fill="#FFFFFF" d="M211.4,23.1l-1.1-3.6h-0.6v3.6h-1.8v-9.3h2.6c0.5,0,0.9,0.1,1.3,0.2c0.3,0.1,0.6,0.3,0.8,0.6
		c0.2,0.2,0.3,0.5,0.4,0.9c0.1,0.3,0.1,0.7,0.1,1.2c0,0.3,0,0.5,0,0.7c0,0.2-0.1,0.4-0.1,0.7c-0.1,0.2-0.2,0.4-0.3,0.6
		c-0.1,0.2-0.3,0.3-0.5,0.5l1.4,4H211.4z M211.2,16.7c0-0.1,0-0.3,0-0.4c0-0.1,0-0.3-0.1-0.4c0-0.1-0.1-0.2-0.2-0.3
		c-0.1-0.1-0.2-0.1-0.4-0.1h-0.8v2.3h0.8c0.2,0,0.3,0,0.4-0.1c0.1-0.1,0.2-0.2,0.2-0.3c0-0.1,0.1-0.2,0.1-0.4
		C211.2,17,211.2,16.8,211.2,16.7"/>
	<path fill="#FFFFFF" d="M219.2,21.7c-0.1,0.4-0.3,0.7-0.6,0.9c-0.2,0.2-0.5,0.4-0.8,0.5c-0.3,0.1-0.6,0.2-1,0.2
		c-0.3,0-0.5,0-0.7-0.1c-0.2,0-0.4-0.1-0.5-0.2c-0.2-0.1-0.3-0.2-0.4-0.3c-0.1-0.1-0.2-0.2-0.3-0.4c-0.2-0.2-0.3-0.5-0.4-0.8
		c-0.1-0.3-0.2-0.6-0.2-1c0-0.3-0.1-0.7-0.1-1c0-0.4,0-0.7,0-1c0-0.3,0-0.6,0-1c0-0.4,0-0.7,0.1-1c0-0.3,0.1-0.7,0.2-1
		c0.1-0.3,0.2-0.6,0.4-0.8c0.1-0.1,0.2-0.2,0.3-0.4c0.1-0.1,0.3-0.2,0.4-0.3c0.2-0.1,0.3-0.2,0.5-0.2c0.2,0,0.4-0.1,0.7-0.1
		c0.4,0,0.7,0.1,1,0.2c0.3,0.1,0.5,0.3,0.8,0.5c0.2,0.2,0.4,0.5,0.6,0.9c0.1,0.4,0.2,0.8,0.2,1.2h-1.8c0-0.1,0-0.3,0-0.4
		c0-0.1-0.1-0.2-0.1-0.3c-0.1-0.1-0.1-0.2-0.2-0.3c-0.1-0.1-0.2-0.1-0.4-0.1c-0.2,0-0.3,0-0.4,0.1c-0.1,0.1-0.2,0.2-0.2,0.3
		c-0.1,0.1-0.1,0.3-0.1,0.4c0,0.2-0.1,0.4-0.1,0.7c0,0.2,0,0.5,0,0.8c0,0.3,0,0.6,0,0.8c0,0.3,0,0.6,0,0.8c0,0.3,0,0.5,0,0.8
		c0,0.2,0,0.5,0.1,0.6c0,0.2,0.1,0.3,0.1,0.4c0.1,0.1,0.1,0.2,0.2,0.3c0.1,0.1,0.2,0.1,0.4,0.1c0.2,0,0.3,0,0.4-0.1
		c0.1-0.1,0.2-0.2,0.2-0.3c0.1-0.1,0.1-0.2,0.1-0.3c0-0.1,0-0.3,0-0.4h1.8C219.4,20.9,219.3,21.3,219.2,21.7"/>
	<polygon fill="#FFFFFF" points="223.9,23.1 223.9,19.3 222.4,19.3 222.4,23.1 220.6,23.1 220.6,13.9 222.4,13.9 222.4,17.6
		223.9,17.6 223.9,13.9 225.8,13.9 225.8,23.1 	"/>
	<path fill="#FFFFFF" d="M146.6,31.4c0,0.8,0,1.5,0,2c0,0.5-0.1,0.9-0.1,1.2c-0.1,0.3-0.1,0.5-0.2,0.7c-0.1,0.2-0.2,0.3-0.3,0.5
		c-0.2,0.1-0.3,0.3-0.6,0.3c-0.2,0.1-0.5,0.1-0.7,0.1c-0.3,0-0.5,0-0.7-0.1c-0.2-0.1-0.4-0.2-0.6-0.3c-0.1-0.1-0.3-0.3-0.3-0.5
		c-0.1-0.2-0.1-0.4-0.2-0.7c0-0.3-0.1-0.7-0.1-1.2c0-0.5,0-1.2,0-2c0-0.8,0-1.5,0-2c0-0.5,0.1-0.9,0.1-1.2c0-0.3,0.1-0.5,0.2-0.7
		c0.1-0.2,0.2-0.3,0.3-0.5c0.1-0.1,0.3-0.3,0.6-0.3c0.2-0.1,0.5-0.1,0.7-0.1c0.3,0,0.5,0,0.7,0.1c0.2,0.1,0.4,0.2,0.6,0.3
		c0.1,0.1,0.3,0.3,0.3,0.5c0.1,0.2,0.1,0.4,0.2,0.7c0,0.3,0.1,0.7,0.1,1.2C146.6,29.9,146.6,30.6,146.6,31.4 M146.1,31.4
		c0-0.8,0-1.4,0-1.9c0-0.5,0-0.9-0.1-1.1c0-0.3-0.1-0.5-0.2-0.6c-0.1-0.1-0.2-0.3-0.3-0.4c-0.2-0.2-0.5-0.3-0.9-0.3
		c-0.4,0-0.7,0.1-0.9,0.3c-0.1,0.1-0.2,0.2-0.3,0.4c-0.1,0.1-0.1,0.3-0.2,0.6c0,0.3-0.1,0.7-0.1,1.1c0,0.5,0,1.1,0,1.9
		c0,0.8,0,1.4,0,1.9c0,0.5,0,0.9,0.1,1.1c0,0.3,0.1,0.5,0.2,0.6c0.1,0.1,0.2,0.3,0.3,0.4c0.2,0.2,0.5,0.3,0.9,0.3
		c0.4,0,0.7-0.1,0.9-0.3c0.1-0.1,0.2-0.2,0.3-0.4c0.1-0.1,0.1-0.4,0.2-0.6c0-0.3,0.1-0.7,0.1-1.1C146.1,32.8,146.1,32.2,146.1,31.4"
		/>
	<polygon fill="#FFFFFF" points="151.2,27.1 151.2,31.1 153.4,31.1 153.4,31.6 151.2,31.6 151.2,36.1 150.7,36.1 150.7,26.6
		153.7,26.6 153.7,27.1 	"/>
	<polygon fill="#FFFFFF" points="164.1,27.1 164.1,36.1 163.6,36.1 163.6,27.1 162,27.1 162,26.6 165.7,26.6 165.7,27.1 	"/>
	<polygon fill="#FFFFFF" points="172.3,36.1 172.3,31.5 169.8,31.5 169.8,36.1 169.3,36.1 169.3,26.6 169.8,26.6 169.8,31.1
		172.3,31.1 172.3,26.6 172.9,26.6 172.9,36.1 	"/>
	<polygon fill="#FFFFFF" points="177.1,36.1 177.1,26.6 180.2,26.6 180.2,27.1 177.7,27.1 177.7,31.1 179.9,31.1 179.9,31.6
		177.7,31.6 177.7,35.6 180.2,35.6 180.2,36.1 	"/>
	<polygon fill="#FFFFFF" points="190.8,36.1 190.3,36.1 188.3,26.6 188.8,26.6 190.5,35 192.2,26.6 192.8,26.6 	"/>
	<path fill="#FFFFFF" d="M198.9,36.1l-0.6-2.9h-2.2l-0.6,2.9H195l2-9.5h0.5l2,9.5H198.9z M197.2,27.7l-1,5.1h2L197.2,27.7z"/>
	<polygon fill="#FFFFFF" points="202.8,36.1 202.8,26.6 203.4,26.6 203.4,35.6 205.9,35.6 205.9,36.1 	"/>
	<polygon fill="#FFFFFF" points="209.5,36.1 209.5,26.6 210,26.6 210,35.6 212.6,35.6 212.6,36.1 	"/>
	<polygon fill="#FFFFFF" points="216.1,36.1 216.1,26.6 219.2,26.6 219.2,27.1 216.7,27.1 216.7,31.1 218.9,31.1 218.9,31.6
		216.7,31.6 216.7,35.6 219.2,35.6 219.2,36.1 	"/>
	<polygon fill="#FFFFFF" points="224.4,32.1 224.4,36.1 223.9,36.1 223.9,32.1 222.3,26.6 222.9,26.6 224.1,31.2 225.4,26.6
		226,26.6 	"/>
</g>
</svg>
