<?xml version="1.0" standalone="no"?>
<!DOCTYPE svg PUBLIC "-//W3C//DTD SVG 20010904//EN"
 "http://www.w3.org/TR/2001/REC-SVG-20010904/DTD/svg10.dtd">
<svg version="1.0" xmlns="http://www.w3.org/2000/svg"
 width="901.000000pt" height="600.000000pt" viewBox="0 0 901.000000 600.000000"
 preserveAspectRatio="xMidYMid meet">

<g transform="translate(0.000000,600.000000) scale(0.100000,-0.100000)"
fill="#000000" stroke="none">
<path d="M4868 4167 c-389 -518 -720 -957 -735 -976 l-29 -33 -539 716 c-296
394 -542 713 -546 709 -31 -35 -2730 -3675 -2727 -3679 3 -2 1900 -3 4217 -2
l4213 3 -1567 2103 c-862 1156 -1570 2102 -1574 2102 -3 0 -324 -424 -713
-943z m2198 -1257 c765 -1026 1393 -1871 1398 -1878 6 -9 -169 -12 -811 -12
l-818 0 -783 1050 c-431 578 -787 1050 -790 1050 -4 0 -131 -169 -282 -375
-151 -206 -278 -375 -281 -375 -4 0 -118 148 -254 330 -161 214 -244 334 -239
342 6 11 816 1106 1262 1706 l113 153 48 -63 c26 -35 673 -902 1437 -1928z
m-3189 328 c450 -598 820 -1087 823 -1087 3 0 130 171 284 380 153 210 282
377 286 372 18 -21 1400 -1884 1400 -1888 0 -3 -1386 -5 -3080 -5 l-3079 0
1257 1679 c1239 1655 1257 1679 1274 1658 9 -12 385 -511 835 -1109z"/>
</g>
</svg>
