<svg width="79" viewBox="0 0 79 79" fill="none" xmlns="http://www.w3.org/2000/svg">
<path d="M0 79H79V0H0V79ZM22.8711 57.1101L41.1409 45.3362L41.3101 45.2347L41.4116 45.4039L42.5619 47.5353L42.6634 47.7045L42.4942 47.7722L23.0741 57.4146L22.9049 57.1101H22.8711ZM55.3846 53.1516L37.6561 60.5272L37.4869 60.1889L54.2681 50.8848L54.4373 50.7833L54.5388 50.9525L55.4861 52.8809L55.5876 53.0501L55.4184 53.1178L55.3846 53.1516ZM56.0612 48.0767L31.7353 60.8317H31.7015L30.9233 60.8994L30.2128 60.967L30.8218 60.561L54.7756 45.0317L54.9109 44.9302L55.0124 45.0655L55.1139 45.2009V45.2347L56.1627 47.8398L56.2304 48.009L56.0951 48.0767H56.0612ZM63.7075 57.1777L56.7041 38.3328L45.573 45.5392L42.5281 39.4493L15.2248 57.1777V17.4578H63.7075V57.1439V57.1777Z" fill="#EFEFEF"/>
</svg>
