<svg width="250" height="33" viewBox="0 0 250 33" fill="none" xmlns="http://www.w3.org/2000/svg">
<g clip-path="url(#clip0_2998_20609)">
<path d="M0 32.6532H32.65V0.195312H0V32.6532ZM9.45243 23.6595L17.0032 18.8221L17.0731 18.7804L17.1151 18.8499L17.5905 19.7256L17.6324 19.7951L17.5625 19.8229L9.53633 23.7846L9.46641 23.6595H9.45243ZM22.89 22.0331L15.563 25.0635L15.493 24.9245L22.4286 21.1018L22.4985 21.0601L22.5404 21.1296L22.9319 21.9219L22.9739 21.9914L22.904 22.0192L22.89 22.0331ZM23.1696 19.9481L13.1159 25.1886H13.102L12.7804 25.2164L12.4867 25.2442L12.7384 25.0774L22.6383 18.697L22.6942 18.6553L22.7362 18.7109L22.7781 18.7665V18.7804L23.2116 19.8507L23.2396 19.9202L23.1836 19.9481H23.1696ZM26.3298 23.6873L23.4353 15.9447L18.8349 18.9055L17.5765 16.4034L6.2923 23.6873V7.36802H26.3298V23.6734V23.6873Z" fill="#EFEFEF"/>
<path d="M48.9963 32.6531L46.6611 22.3945H43.8366V32.6531H39.7676V0.320312H46.7031C51.3035 0.320312 52.1844 2.18299 52.1844 6.43657V16.5284C52.1844 18.9471 51.4433 20.5318 50.031 21.4075L52.7157 32.6531H49.0103H48.9963ZM45.7802 19.2251C47.612 19.2251 48.1853 18.6691 48.1853 16.5562V6.39487C48.1853 4.28198 47.626 3.72596 45.7802 3.72596H43.8366V19.2251H45.7802Z" fill="#EFEFEF"/>
<path d="M59.5397 3.72596V14.763H64.6295V18.1409H59.5397V29.2474H64.6994V32.6531H55.4707V0.320312H64.6994V3.72596H59.5397Z" fill="#EFEFEF"/>
<path d="M80.6397 6.43657V26.5368C80.6397 30.7904 79.7588 32.6531 75.0885 32.6531H68.125V0.320312H75.0885C79.7588 0.320312 80.6397 2.18299 80.6397 6.43657ZM76.5707 6.39487C76.5707 4.32368 76.0113 3.72596 74.2076 3.72596H72.194V29.2474H74.2076C76.0113 29.2474 76.5707 28.6497 76.5707 26.5785V6.39487Z" fill="#EFEFEF"/>
<path d="M93.3361 32.6531L91.001 22.3945H88.1764V32.6531H84.1074V0.320312H91.0429C95.6433 0.320312 96.5242 2.18299 96.5242 6.43657V16.5284C96.5242 18.9471 95.7831 20.5318 94.3709 21.4075L97.0556 32.6531H93.3501H93.3361ZM90.1201 19.2251C91.9518 19.2251 92.5251 18.6691 92.5251 16.5562V6.39487C92.5251 4.28198 91.9658 3.72596 90.1201 3.72596H88.1764V19.2251H90.1201Z" fill="#EFEFEF"/>
<path d="M112.353 6.07456V26.8837C112.353 31.4848 109.738 32.9583 106.06 32.9583C102.383 32.9583 99.7959 31.4848 99.7959 26.8837V6.07456C99.7959 1.47346 102.411 0 106.06 0C109.71 0 112.353 1.47346 112.353 6.07456ZM106.06 3.43345C104.858 3.43345 103.865 4.03117 103.865 6.10236V26.842C103.865 28.9132 104.858 29.511 106.06 29.511C107.263 29.511 108.256 28.9132 108.256 26.842V6.11626C108.256 4.04507 107.305 3.44735 106.06 3.44735V3.43345Z" fill="#EFEFEF"/>
<path d="M128.335 26.9254C128.335 31.5265 125.72 33 122.043 33C118.365 33 115.778 31.5265 115.778 26.9254V6.07456C115.778 1.47346 118.393 0 122.043 0C125.692 0 128.335 1.47346 128.335 6.07456V11.0649H124.238V6.11626C124.238 4.04507 123.287 3.44735 122.043 3.44735C120.798 3.44735 119.847 4.04507 119.847 6.11626V26.9254C119.847 28.9688 120.84 29.5944 122.043 29.5944C123.245 29.5944 124.238 28.9549 124.238 26.9254V21.8239H128.335V26.9254Z" fill="#EFEFEF"/>
<path d="M137.703 17.7517L135.83 23.4092V32.6531H131.761V0.320312H135.83V16.0697H136.04L141.199 0.320312H145.268L140.668 15.0132L145.618 32.6531H141.689L137.689 17.7517H137.703Z" fill="#EFEFEF"/>
<path d="M155.685 10.8286V6.08846C155.685 4.04507 154.734 3.41955 153.49 3.41955C152.246 3.41955 151.295 4.05897 151.295 6.08846V10.2308C151.295 15.7077 159.67 14.7624 159.67 22.5607V26.9254C159.67 31.4987 157.126 32.9722 153.49 32.9722C149.854 32.9722 147.338 31.4987 147.338 26.9254V22.1436H151.267V26.8837C151.267 28.9271 152.218 29.5527 153.462 29.5527C154.707 29.5527 155.657 28.9132 155.657 26.8837V22.7414C155.657 17.2645 147.31 18.2098 147.31 10.3976V6.04676C147.31 1.47346 149.854 0 153.462 0C157.07 0 159.615 1.47346 159.615 6.04676V10.8286H155.685Z" fill="#EFEFEF"/>
<path d="M174.507 27.3425C174.507 31.6655 172.102 33 168.955 33C165.809 33 163.362 31.6655 163.362 27.3425V5.65754C163.362 1.33446 165.767 0 168.955 0C172.144 0 174.507 1.33446 174.507 5.65754V10.6062H171.57V5.65754C171.57 3.26664 170.368 2.48821 168.955 2.48821C167.543 2.48821 166.341 3.26664 166.341 5.65754V27.3008C166.341 29.7195 167.501 30.4701 168.955 30.4701C170.41 30.4701 171.57 29.7334 171.57 27.3008V22.2687H174.507V27.3286V27.3425Z" fill="#EFEFEF"/>
<path d="M189.734 0.320312V32.6531H186.77V17.8629H181.47V32.6531H178.506V0.320312H181.47V15.4025H186.77V0.320312H189.734Z" fill="#EFEFEF"/>
<path d="M204.905 27.3153C204.905 31.6383 202.5 32.9728 199.354 32.9728C196.208 32.9728 193.761 31.6383 193.761 27.3153V0.320312H196.725V27.3153C196.725 29.7062 197.886 30.4846 199.34 30.4846C200.794 30.4846 201.955 29.7062 201.955 27.3153V0.320312H204.891V27.3153H204.905Z" fill="#EFEFEF"/>
<path d="M217.658 32.6531L215.225 21.9635H211.869V32.6531H208.904V0.320312H214.777C219.084 0.320312 219.867 2.11349 219.867 6.01955V16.4172C219.867 18.8776 219.196 20.4206 217.714 21.2685L220.37 32.6531H217.686H217.658ZM214.861 19.656C216.455 19.517 216.944 18.7108 216.944 16.4867V5.93615C216.944 3.47575 216.301 2.76682 214.19 2.76682H211.855V19.6699L214.861 19.6282V19.656Z" fill="#EFEFEF"/>
<path d="M234.773 27.3425C234.773 31.6655 232.368 33 229.222 33C226.076 33 223.629 31.6655 223.629 27.3425V5.65754C223.629 1.33446 226.034 0 229.222 0C232.41 0 234.773 1.33446 234.773 5.65754V10.6062H231.837V5.65754C231.837 3.26664 230.634 2.48821 229.222 2.48821C227.81 2.48821 226.607 3.26664 226.607 5.65754V27.3008C226.607 29.7195 227.768 30.4701 229.222 30.4701C230.676 30.4701 231.837 29.7334 231.837 27.3008V22.2687H234.773V27.3286V27.3425Z" fill="#EFEFEF"/>
<path d="M250.001 0.320312V32.6531H247.036V17.8629H241.737V32.6531H238.772V0.320312H241.737V15.4025H247.036V0.320312H250.001Z" fill="#EFEFEF"/>
</g>
<defs>
<clipPath id="clip0_2998_20609">
<rect width="250" height="33" fill="white"/>
</clipPath>
</defs>
</svg>
