<svg width="32" height="32" viewBox="0 0 32 32" fill="none" xmlns="http://www.w3.org/2000/svg">
<path d="M28 5H4C2.9 5 2 5.9 2 7V23C2 24.1 2.9 25 4 25H12V27H8V29H24V27H20V25H28C29.1 25 30 24.1 30 23V7C30 5.9 29.1 5 28 5ZM18 27H14V25H18V27ZM28 23H4V7H28V23Z" fill="#25EE45"/>
<path d="M8 11L24 11L24 15L8 15L8 11ZM6 11L6 15C6 15.5304 6.21071 16.0391 6.58579 16.4142C6.96086 16.7893 7.46957 17 8 17L24 17C24.5304 17 25.0391 16.7893 25.4142 16.4142C25.7893 16.0391 26 15.5304 26 15L26 11C26 10.4696 25.7893 9.96086 25.4142 9.58579C25.0391 9.21071 24.5304 9 24 9L8 9C7.46957 9 6.96086 9.21071 6.58579 9.58579C6.21071 9.96086 6 10.4696 6 11Z" fill="#25EE45"/>
<path d="M19 19H7V21H19V19Z" fill="#25EE45"/>
<path d="M25 19H21V21H25V19Z" fill="#25EE45"/>
</svg>
