<svg width="32" height="32" viewBox="0 0 32 32" fill="none" xmlns="http://www.w3.org/2000/svg">
<path d="M6 13H16V15H6V13ZM6 17H16V19H6V17Z" fill="#25EE45"/>
<path d="M6 21H12V23H6V21Z" fill="#25EE45"/>
<path d="M28 4H4C3.46957 4 2.96086 4.21071 2.58579 4.58579C2.21071 4.96086 2 5.46957 2 6V26C2 26.5304 2.21071 27.0391 2.58579 27.4142C2.96086 27.7893 3.46957 28 4 28H28C28.5304 28 29.0391 27.7893 29.4142 27.4142C29.7893 27.0391 30 26.5304 30 26V6C30 5.46957 29.7893 4.96086 29.4142 4.58579C29.0391 4.21071 28.5304 4 28 4ZM28 6V8H4V6H28ZM4 26V10H28V26H4Z" fill="#25EE45"/>
<path d="M24 14V22H20V14H24ZM24 12H20C19.4696 12 18.9609 12.2107 18.5858 12.5858C18.2107 12.9609 18 13.4696 18 14V22C18 22.5304 18.2107 23.0391 18.5858 23.4142C18.9609 23.7893 19.4696 24 20 24H24C24.5304 24 25.0391 23.7893 25.4142 23.4142C25.7893 23.0391 26 22.5304 26 22V14C26 13.4696 25.7893 12.9609 25.4142 12.5858C25.0391 12.2107 24.5304 12 24 12Z" fill="#25EE45"/>
</svg>
