<svg width="32" height="32" viewBox="0 0 32 32" fill="none" xmlns="http://www.w3.org/2000/svg">
<g clip-path="url(#clip0_170_67604)">
<path d="M28 4H4C3.46957 4 2.96086 4.21071 2.58579 4.58579C2.21071 4.96086 2 5.46957 2 6V26C2 26.5304 2.21071 27.0391 2.58579 27.4142C2.96086 27.7893 3.46957 28 4 28H28C28.5304 28 29.0391 27.7893 29.4142 27.4142C29.7893 27.0391 30 26.5304 30 26V6C30 5.46957 29.7893 4.96086 29.4142 4.58579C29.0391 4.21071 28.5304 4 28 4V4ZM28 6V8H4V6H28ZM4 26V10H28V26H4Z" fill="#009CE3"/>
<path d="M21 14H17V11H15V14H11C10.4698 14.0006 9.9614 14.2115 9.58646 14.5865C9.21152 14.9614 9.00061 15.4698 9 16V19H11V16H15V19H17V16H21V19H23V16C22.9994 15.4698 22.7885 14.9614 22.4135 14.5865C22.0386 14.2115 21.5302 14.0006 21 14Z" fill="#009CE3"/>
<path d="M12 20H8V24H12V20Z" fill="#009CE3"/>
<path d="M18 20H14V24H18V20Z" fill="#009CE3"/>
<path d="M24 20H20V24H24V20Z" fill="#009CE3"/>
</g>
<defs>
<clipPath id="clip0_170_67604">
<rect width="32" height="32" fill="white"/>
</clipPath>
</defs>
</svg>
