<svg width="32" height="32" viewBox="0 0 32 32" fill="none" xmlns="http://www.w3.org/2000/svg">
<path d="M28 4H4C3.46957 4 2.96086 4.21071 2.58579 4.58579C2.21071 4.96086 2 5.46957 2 6V26C2 26.5304 2.21071 27.0391 2.58579 27.4142C2.96086 27.7893 3.46957 28 4 28H28C28.5304 28 29.0391 27.7893 29.4142 27.4142C29.7893 27.0391 30 26.5304 30 26V6C30 5.46957 29.7893 4.96086 29.4142 4.58579C29.0391 4.21071 28.5304 4 28 4V4ZM28 6V8H4V6H28ZM4 26V10H28V26H4Z" fill="#009CE3"/>
<path d="M18.2426 22.2426L19.6569 23.6568L25.3137 18L19.6569 12.3431L18.2426 13.7574L22.4853 18L18.2426 22.2426Z" fill="#009CE3"/>
<path d="M6.68629 18L12.3431 23.6568L13.7574 22.2426L9.51471 18L13.7574 13.7574L12.3431 12.3431L6.68629 18Z" fill="#009CE3"/>
</svg>
