<svg width="32" height="32" viewBox="0 0 32 32" fill="none" xmlns="http://www.w3.org/2000/svg">
<path d="M8 21H4C3.46975 20.9994 2.9614 20.7885 2.58646 20.4135C2.21152 20.0386 2.00061 19.5302 2 19V13C2.00053 12.4697 2.21141 11.9613 2.58637 11.5864C2.96133 11.2114 3.46973 11.0005 4 11H8V13H4V19H6V17H5V15H8V21Z" fill="#E1E1E1"/>
<path d="M21 13V11.024H19V21H21V19V17V15V13Z" fill="#E1E1E1"/>
<path d="M17 19L17 11L13.5 11L11.75 11L10 11L10 16L10 19C10.0007 19.5302 10.2117 20.0385 10.5866 20.4134C10.9615 20.7883 11.4698 20.9993 12 21L15 21C15.5302 20.9994 16.0386 20.7885 16.4135 20.4135C16.7885 20.0386 16.9994 19.5302 17 19ZM12 11L15 11L15 19L12 19.001L12 11Z" fill="#E1E1E1"/>
<path d="M28 11H23V21H25H28C28.5302 20.9993 29.0385 20.7883 29.4134 20.4134C29.7883 20.0385 29.9993 19.5302 30 19V13C29.9994 12.4698 29.7885 11.9614 29.4135 11.5865C29.0386 11.2115 28.5302 11.0006 28 11ZM25 19V13H28L28.001 19H25Z" fill="#E1E1E1"/>
</svg>
