<svg width="32" height="32" viewBox="0 0 32 32" fill="none" xmlns="http://www.w3.org/2000/svg">
<path d="M28 24H4V26H28V24Z" fill="#AD63E7"/>
<path d="M26 18H6V14H26V18ZM28 18V14C28 13.4696 27.7893 12.9609 27.4142 12.5858C27.0391 12.2107 26.5304 12 26 12H6C5.46957 12 4.96086 12.2107 4.58579 12.5858C4.21071 12.9609 4 13.4696 4 14V18C4 18.5304 4.21071 19.0391 4.58579 19.4142C4.96086 19.7893 5.46957 20 6 20H26C26.5304 20 27.0391 19.7893 27.4142 19.4142C27.7893 19.0391 28 18.5304 28 18Z" fill="#AD63E7"/>
<path d="M28 6H4V8H28V6Z" fill="#AD63E7"/>
</svg>
