<svg width="32" height="32" viewBox="0 0 32 32" fill="none" xmlns="http://www.w3.org/2000/svg">
<path d="M19 24H13V26H19V24Z" fill="#AD63E7"/>
<path d="M25 30H7C5.9 30 5 29.1 5 28V4C5 2.9 5.9 2 7 2H25C26.1 2 27 2.9 27 4V28C27 29.1 26.1 30 25 30ZM7 4V28H25V4H7Z" fill="#AD63E7"/>
<path d="M11 8L21 8L21 12L11 12L11 8ZM9 8L9 12C9 12.5304 9.21071 13.0391 9.58579 13.4142C9.96086 13.7893 10.4696 14 11 14L21 14C21.5304 14 22.0391 13.7893 22.4142 13.4142C22.7893 13.0391 23 12.5304 23 12L23 8C23 7.46957 22.7893 6.96086 22.4142 6.58579C22.0391 6.21071 21.5304 6 21 6L11 6C10.4696 6 9.96086 6.21071 9.58579 6.58579C9.21071 6.96086 9 7.46957 9 8Z" fill="#AD63E7"/>
<path d="M9 16H23V18H9V16ZM9 20H23V22H9V20Z" fill="#AD63E7"/>
</svg>
