<svg width="32" height="32" viewBox="0 0 32 32" fill="none" xmlns="http://www.w3.org/2000/svg">
<path d="M19 24H13V26H19V24Z" fill="#AD63E7"/>
<path d="M25 30H7C5.9 30 5 29.1 5 28V4C5 2.9 5.9 2 7 2H25C26.1 2 27 2.9 27 4V28C27 29.1 26.1 30 25 30ZM7 4V28H25V4H7Z" fill="#AD63E7"/>
<path d="M19 6H15V10H19V6Z" fill="#AD63E7"/>
<path d="M23 6H21V16H23V6Z" fill="#AD63E7"/>
<path d="M13 12H9V16H13V12Z" fill="#AD63E7"/>
<path d="M19 12H15V16H19V12Z" fill="#AD63E7"/>
<path d="M13 18H9V22H13V18Z" fill="#AD63E7"/>
<path d="M19 18H15V22H19V18Z" fill="#AD63E7"/>
<path d="M13 6H9V10H13V6Z" fill="#AD63E7"/>
</svg>
