<svg width="32" height="32" viewBox="0 0 32 32" fill="none" xmlns="http://www.w3.org/2000/svg">
<path d="M28 4H4C3.46975 4.00061 2.9614 4.21152 2.58646 4.58646C2.21152 4.9614 2.00061 5.46975 2 6V26C2.00061 26.5302 2.21152 27.0386 2.58646 27.4135C2.9614 27.7885 3.46975 27.9994 4 28H28C28.5302 27.9994 29.0386 27.7885 29.4135 27.4135C29.7885 27.0386 29.9994 26.5302 30 26V6C29.9994 5.46975 29.7885 4.9614 29.4135 4.58646C29.0386 4.21152 28.5302 4.00061 28 4ZM28 6V10H4V6H28ZM4 12H10V26H4V12ZM12 26V12H28V26H12Z" fill="#AD63E7"/>
</svg>
