<svg width="32" height="32" viewBox="0 0 32 32" fill="none" xmlns="http://www.w3.org/2000/svg">
<path d="M26 6V10H6V6H26ZM26 4H6C5.46957 4 4.96086 4.21071 4.58579 4.58579C4.21071 4.96086 4 5.46957 4 6V10C4 10.5304 4.21071 11.0391 4.58579 11.4142C4.96086 11.7893 5.46957 12 6 12H26C26.5304 12 27.0391 11.7893 27.4142 11.4142C27.7893 11.0391 28 10.5304 28 10V6C28 5.46957 27.7893 4.96086 27.4142 4.58579C27.0391 4.21071 26.5304 4 26 4Z" fill="#AD63E7"/>
<path d="M26 16V26H6V16H26ZM26 14H6C5.46957 14 4.96086 14.2107 4.58579 14.5858C4.21071 14.9609 4 15.4696 4 16V26C4 26.5304 4.21071 27.0391 4.58579 27.4142C4.96086 27.7893 5.46957 28 6 28H26C26.5304 28 27.0391 27.7893 27.4142 27.4142C27.7893 27.0391 28 26.5304 28 26V16C28 15.4696 27.7893 14.9609 27.4142 14.5858C27.0391 14.2107 26.5304 14 26 14Z" fill="#AD63E7"/>
</svg>
