<svg width="32" height="32" viewBox="0 0 32 32" fill="none" xmlns="http://www.w3.org/2000/svg">
<path d="M9 7C9.55228 7 10 6.55228 10 6C10 5.44772 9.55228 5 9 5C8.44772 5 8 5.44772 8 6C8 6.55228 8.44772 7 9 7Z" fill="#C5C5C5"/>
<path d="M26 10H6C5.46974 9.99944 4.96135 9.78855 4.5864 9.4136C4.21145 9.03865 4.00056 8.53026 4 8V4C4.00056 3.46974 4.21145 2.96135 4.5864 2.5864C4.96135 2.21145 5.46974 2.00056 6 2H26C26.5303 2.00056 27.0386 2.21145 27.4136 2.5864C27.7886 2.96135 27.9994 3.46974 28 4V8C27.9994 8.53026 27.7886 9.03865 27.4136 9.4136C27.0386 9.78855 26.5303 9.99944 26 10ZM6 4V8H26V4H6Z" fill="#C5C5C5"/>
<path d="M9 17C9.55228 17 10 16.5523 10 16C10 15.4477 9.55228 15 9 15C8.44772 15 8 15.4477 8 16C8 16.5523 8.44772 17 9 17Z" fill="#C5C5C5"/>
<path d="M26 20H6C5.46974 19.9994 4.96135 19.7886 4.5864 19.4136C4.21145 19.0386 4.00056 18.5303 4 18V14C4.00056 13.4697 4.21145 12.9614 4.5864 12.5864C4.96135 12.2114 5.46974 12.0006 6 12H26C26.5303 12.0006 27.0386 12.2114 27.4136 12.5864C27.7886 12.9614 27.9994 13.4697 28 14V18C27.9994 18.5303 27.7886 19.0386 27.4136 19.4136C27.0386 19.7886 26.5303 19.9994 26 20V20ZM6 14V18H26V14H6Z" fill="#C5C5C5"/>
<path d="M9 27C9.55228 27 10 26.5523 10 26C10 25.4477 9.55228 25 9 25C8.44772 25 8 25.4477 8 26C8 26.5523 8.44772 27 9 27Z" fill="#C5C5C5"/>
<path d="M26 30H6C5.46974 29.9994 4.96135 29.7886 4.5864 29.4136C4.21145 29.0386 4.00056 28.5303 4 28V24C4.00056 23.4697 4.21145 22.9614 4.5864 22.5864C4.96135 22.2114 5.46974 22.0006 6 22H26C26.5303 22.0006 27.0386 22.2114 27.4136 22.5864C27.7886 22.9614 27.9994 23.4697 28 24V28C27.9994 28.5303 27.7886 29.0386 27.4136 29.4136C27.0386 29.7886 26.5303 29.9994 26 30ZM6 24V28H26V24H6Z" fill="#C5C5C5"/>
</svg>
