<svg width="32" height="32" viewBox="0 0 32 32" fill="none" xmlns="http://www.w3.org/2000/svg">
<path d="M25.7 17.3L20.7 12.3C20.5 12.1 20.3 12 20 12H14C12.9 12 12 12.9 12 14V28C12 29.1 12.9 30 14 30H24C25.1 30 26 29.1 26 28V18C26 17.7 25.9 17.5 25.7 17.3ZM23.6 18H20V14.4L23.6 18ZM14 28V14H18V18C18 19.1 18.9 20 20 20H24V28H14Z" fill="#30B8B0"/>
<path d="M8 27H4C2.9 27 2 26.1 2 25V5C2 3.9 2.9 3 4 3H11.6C12.1 3 12.6 3.2 13 3.6L16.4 7H28C29.1 7 30 7.9 30 9V17H28V9H15.6L11.6 5H4V25H8V27Z" fill="#30B8B0"/>
</svg>
