<svg width="32" height="32" viewBox="0 0 32 32" fill="none" xmlns="http://www.w3.org/2000/svg">
<g clip-path="url(#clip0_110_75049)">
<path d="M13.7165 2.64322C13.9276 2.51112 14.148 2.39445 14.3759 2.29411C15.4978 1.82733 16.7496 1.77704 17.9054 2.15231C19.0612 2.52758 20.0447 3.30368 20.6784 4.34051L26.8706 14.2303C27.8166 15.716 28.182 17.4983 27.8968 19.2364C27.6117 20.9744 26.696 22.5465 25.3249 23.652C24.0812 24.6174 22.5471 25.1327 20.9729 25.1137L11.5756 25.1211C10.3297 25.1171 9.10766 24.7797 8.03621 24.144C6.96476 23.5082 6.083 22.5973 5.48244 21.5057C4.88189 20.4142 4.58444 19.1818 4.62097 17.9364C4.65751 16.6911 5.02669 15.4783 5.69019 14.4238L12.1371 4.21848C12.5376 3.58064 13.0777 3.04203 13.7165 2.64322ZM23.6946 22.3523C23.835 22.2644 23.9721 22.169 24.106 22.0662C25.0858 21.2659 25.7364 20.1327 25.9337 18.8831C26.131 17.6334 25.861 16.3549 25.1754 15.2917L18.9833 5.40187C18.606 4.77076 18.0158 4.2952 17.3188 4.06092C16.6219 3.82665 15.8642 3.84908 15.1824 4.12417C14.6252 4.36619 14.1538 4.77027 13.8294 5.28385L7.38082 15.4919C6.90826 16.2444 6.64558 17.1095 6.62002 17.9977C6.59447 18.8858 6.80697 19.7647 7.23549 20.543C7.66401 21.3214 8.29296 21.971 9.0571 22.4244C9.82124 22.8778 10.6928 23.1185 11.5813 23.1216L20.9829 23.1139C21.9413 23.1269 22.8831 22.8624 23.6946 22.3523V22.3523Z" fill="#EE7625"/>
<path d="M21.1448 8.12998L17.1419 10.8795C16.2716 11.4856 15.1965 11.7217 14.1524 11.536C13.1082 11.3503 12.1804 10.7581 11.5724 9.88919L11 9.06921L12 7.5L13.2123 8.74439C13.5163 9.17888 13.9802 9.47503 14.5023 9.56786C15.0244 9.66069 15.562 9.54262 15.9971 9.23955L20 6.49003L21.1448 8.12998Z" fill="#EE7625"/>
<path d="M25 13.9398L16.9895 18.8435C16.1193 19.4496 15.0441 19.6857 14 19.5C12.9559 19.3143 8.6804 15.7079 8.0724 14.839L7 13.9398L8.63995 12.795L9.71235 13.6942C10.0163 14.1287 13.8279 17.439 14.35 17.5319C14.872 17.6247 15.4096 17.5066 15.8447 17.2036L23.8552 12.2999L25 13.9398Z" fill="#EE7625"/>
</g>
<defs>
<clipPath id="clip0_110_75049">
<rect width="32" height="32" fill="white"/>
</clipPath>
</defs>
</svg>
