<svg width="32" height="32" viewBox="0 0 32 32" fill="none" xmlns="http://www.w3.org/2000/svg">
<path d="M26 28H6C5.46975 27.9994 4.9614 27.7885 4.58646 27.4135C4.21152 27.0386 4.00061 26.5302 4 26V6C4.00061 5.46975 4.21152 4.9614 4.58646 4.58646C4.9614 4.21152 5.46975 4.00061 6 4H26C26.5302 4.00061 27.0386 4.21152 27.4135 4.58646C27.7885 4.9614 27.9994 5.46975 28 6V26C27.9994 26.5302 27.7885 27.0386 27.4135 27.4135C27.0386 27.7885 26.5302 27.9994 26 28ZM6 6V26H26.0012L26 6H6Z" fill="#EE7625"/>
<path d="M22 13V10C21.9994 9.46975 21.7885 8.9614 21.4135 8.58646C21.0386 8.21152 20.5302 8.00061 20 8H18V10H20V13C20.0019 13.5699 20.1263 14.1327 20.3648 14.6504C20.6033 15.168 20.9503 15.6282 21.3823 16C20.9503 16.3718 20.6033 16.832 20.3648 17.3496C20.1263 17.8673 20.0019 18.4301 20 19V22H18V24H20C20.5302 23.9994 21.0386 23.7885 21.4135 23.4135C21.7885 23.0386 21.9994 22.5302 22 22V19C22.0006 18.4698 22.2115 17.9614 22.5865 17.5865C22.9614 17.2115 23.4698 17.0006 24 17V15C23.4698 14.9994 22.9614 14.7885 22.5865 14.4135C22.2115 14.0386 22.0006 13.5302 22 13Z" fill="#EE7625"/>
<path d="M10 13V10C10.0006 9.46975 10.2115 8.9614 10.5865 8.58646C10.9614 8.21152 11.4698 8.00061 12 8H14V10H12V13C11.9981 13.5699 11.8737 14.1327 11.6352 14.6504C11.3967 15.168 11.0497 15.6282 10.6177 16C11.0497 16.3718 11.3967 16.832 11.6352 17.3496C11.8737 17.8673 11.9981 18.4301 12 19V22H14V24H12C11.4698 23.9994 10.9614 23.7885 10.5865 23.4135C10.2115 23.0386 10.0006 22.5302 10 22V19C9.99939 18.4698 9.78848 17.9614 9.41354 17.5865C9.0386 17.2115 8.53025 17.0006 8 17V15C8.53025 14.9994 9.0386 14.7885 9.41354 14.4135C9.78848 14.0386 9.99939 13.5302 10 13Z" fill="#EE7625"/>
</svg>
