<?xml version="1.0" encoding="utf-8"?>
<!-- Generator: Adobe Illustrator 26.4.1, SVG Export Plug-In . SVG Version: 6.00 Build 0)  -->
<svg version="1.1" id="icon" xmlns="http://www.w3.org/2000/svg" xmlns:xlink="http://www.w3.org/1999/xlink" x="0px" y="0px"
	 viewBox="0 0 32 32" style="enable-background:new 0 0 32 32;" xml:space="preserve">
<style type="text/css">
	.st0{fill:#009CE3;}
	.st1{fill:none;}
</style>
<path class="st0" d="M30,15.5c0-3.1-2.2-5.7-5.2-6.4c-1-4.9-5.8-8-10.7-6.9c-3.5,0.7-6.2,3.5-6.9,6.9C4.2,9.8,2,12.4,2,15.5
	c0,1.6,0.6,3.2,1.7,4.4c-2.3,2.4-2.2,6.2,0.1,8.5C4.9,29.4,6.4,30,8,30h11c3.3,0,6-2.7,6-6c0-0.7-0.1-1.5-0.4-2.1
	C27.7,21.4,30,18.7,30,15.5z M19,28H8c-2.2,0-4-1.8-4-4c0-2,1.4-3.6,3.3-3.9L8,20l0.1-0.7c0.7-3,3.6-4.8,6.6-4.2
	c2.1,0.5,3.7,2.1,4.2,4.2L19,20l0.7,0.1c2.2,0.4,3.6,2.4,3.3,4.6C22.6,26.6,21,28,19,28z M23.5,20L23.5,20c-0.8-0.8-1.8-1.4-2.9-1.8
	c-1.2-3.9-5.5-6.1-9.4-4.9c-2.3,0.7-4.2,2.6-4.9,4.9c-0.4,0.1-0.7,0.2-1,0.4c-0.8-0.8-1.3-2-1.3-3.2c0-2.3,1.8-4.3,4.1-4.5L9,11
	l0.1-0.8c0.5-3.8,4-6.6,7.8-6.1c3.2,0.4,5.7,2.9,6.1,6.1L23,11l0.8,0.1c2.5,0.2,4.3,2.4,4.1,4.8C27.8,18.2,25.8,20,23.5,20L23.5,20z
	"/>
<rect id="_Transparent_Rectangle_" class="st1" width="32" height="32"/>
</svg>
