<?xml version="1.0" encoding="utf-8"?>
<!-- Generator: Adobe Illustrator 26.4.1, SVG Export Plug-In . SVG Version: 6.00 Build 0)  -->
<svg version="1.1" id="icon" xmlns="http://www.w3.org/2000/svg" xmlns:xlink="http://www.w3.org/1999/xlink" x="0px" y="0px"
	 viewBox="0 0 32 32" style="enable-background:new 0 0 32 32;" xml:space="preserve">
<style type="text/css">
	.st0{fill:#009CE3;}
	.st1{fill:none;}
</style>
<path class="st0" d="M16,7L16,7c0.5,0,1,0.1,1.5,0.2c3.2,0.6,5.7,3.1,6.4,6.3l0.3,1.4l1.4,0.2c3,0.5,5,3.4,4.5,6.4
	c-0.5,2.7-2.8,4.6-5.5,4.6h-17c-3,0-5.5-2.4-5.6-5.4c0-2.7,1.9-5,4.6-5.5l1.3-0.2l0.3-1.4C8.8,9.7,12.1,7,16,7 M16,5
	c-4.8,0-8.9,3.4-9.8,8.1c-4.1,0.7-6.8,4.6-6,8.7C0.8,25.4,3.9,28,7.5,28h17c4.1,0,7.5-3.4,7.5-7.5c0-3.6-2.6-6.7-6.2-7.4
	c-0.8-4-3.9-7.2-7.9-7.9C17.3,5.1,16.6,5,16,5z"/>
<rect class="st1" width="32" height="32"/>
</svg>
