<svg width="14" height="11" viewBox="0 0 14 11" fill="none" xmlns="http://www.w3.org/2000/svg">
<path fill-rule="evenodd" clip-rule="evenodd" d="M13.0002 1V2H1.00024V1H13.0002ZM1.00024 3H13.0002V10H1.00024V3ZM13.0002 0H1.00024C0.735034 0 0.480674 0.10536 0.293144 0.29289C0.105604 0.48043 0.000244141 0.73478 0.000244141 1V10C0.000244141 10.2652 0.105604 10.5196 0.293144 10.7071C0.480674 10.8946 0.735034 11 1.00024 11H13.0002C13.2655 11 13.5198 10.8946 13.7074 10.7071C13.8949 10.5196 14.0002 10.2652 14.0002 10V1C14.0002 0.73478 13.8949 0.48043 13.7074 0.29289C13.5198 0.10536 13.2655 0 13.0002 0Z" fill="#009CE3"/>
</svg>
