<svg xmlns="http://www.w3.org/2000/svg" viewBox="0 0 234 61.2"><path fill="#001a31" d="M73.6 14.7A7.4 7.4 0 1 0 66 7.4a7.7 7.7 0 0 0 7.5 7.3m78.1 3.8c-12.5 0-21.7 11.2-21.7 21.3s9.2 21.4 21.7 21.4 21.7-11.2 21.7-21.4-9.2-21.3-21.7-21.3m8.7 23.4c3.1 7.4 2.6 13.9-1.3 15.5s-9-2.5-12-10l-4.1-9.6c-3.1-7.5-2.5-14 1.3-15.6s9 2.5 12 10ZM79.8 20.2H67.3v31.5a7.8 7.8 0 0 0 7.8 7.8h9.5s-4.8-5.8-4.8-10.3Zm22.2 29v-48L89.6 3.9v47.8a7.8 7.8 0 0 0 7.8 7.8h9.5s-4.7-5.8-4.7-10.3m22 0v-48l-12.5 2.7v47.8a7.8 7.8 0 0 0 7.8 7.8h9.5s-4.8-5.8-4.8-10.3m-74.8-29L55 33.7h1a60.5 60.5 0 0 1 5.6-13.5ZM18.1 30.4c-2-5.1 2.7-10.2 2.7-10.2H0l16.2 39.3h3.2l2.5-6.6c3-8.8 2.9-6.3-.1-13.6Zm24.5 0c-2-5.1 2.7-10.2 2.7-10.2H24.5l16.2 39.3h3.2l2.5-6.6c3-8.8 2.9-6.3-.1-13.6Zm179.2-10.2 5.6 13.5h1a60.4 60.4 0 0 1 5.6-13.5Zm-31.3 10.2c-2-5.1 2.7-10.2 2.7-10.2h-20.8l16.2 39.3h3.2l2.5-6.6c3-8.8 2.9-6.3-.1-13.6Zm24.5 0c-2-5.1 2.7-10.2 2.7-10.2H197l16.2 39.3h3.2l2.5-6.6c3-8.8 2.9-6.3-.1-13.6Z"/></svg>