<svg xmlns="http://www.w3.org/2000/svg" xml:space="preserve" style="enable-background:new 0 0 253.2 194.9" viewBox="0 0 253.2 194.9"><path d="M79.6 16A8 8 0 1 0 79.3.1a8 8 0 0 0-7.8 8 8.4 8.4 0 0 0 8.1 7.9m84.4 4c-13.5 0-23.5 12.1-23.5 23.1s10 23.1 23.5 23.1 23.5-12.1 23.5-23.1S177.5 20 164 20m9.5 25.3c3.4 8.1 2.7 15.1-1.5 16.8s-9.6-2.7-13-10.8l-4.4-10.5c-3.4-8.1-2.7-15.1 1.5-16.8s9.6 2.7 13 10.8l4.4 10.5zM86.3 21.8H72.8v34.1c0 4.7 3.8 8.4 8.4 8.4h10.3s-5.1-6.2-5.1-11.1l-.1-31.4zm24.1 31.5v-52L96.9 4.2v51.7c0 4.7 3.8 8.4 8.4 8.4h10.3s-5.2-6.2-5.2-11m24 0v-52l-13.6 2.9v51.7c0 4.7 3.8 8.4 8.4 8.4h10.3c.1 0-5.1-6.2-5.1-11M53.5 21.8l6 14.6h1.2c1.4-5.1 3.4-10 6-14.6H53.5zM19.6 32.9c-2.1-5.5 2.9-11 2.9-11H0l17.5 42.5H21l2.7-7c3.3-9.5 3.1-6.9-.1-14.8l-4-9.7zm26.5 0c-2.1-5.5 2.9-11 2.9-11H26.5L44 64.3h3.5l2.7-7c3.3-9.5 3.1-6.9-.1-14.8l-4-9.6zM240 21.8l6 14.6h1.2c1.4-5.1 3.4-10 6-14.6H240zm-33.9 11.1c-2.1-5.5 2.9-11 2.9-11h-22.5L204 64.3h3.5l2.7-7c3.3-9.5 3.1-6.9-.1-14.8l-4-9.6zm26.6 0c-2.1-5.5 2.9-11 2.9-11h-22.5l17.5 42.5h3.5l2.7-7c3.3-9.5 3.1-6.9-.1-14.8l-4-9.7zM28 91.9c0-8 6-13.3 13.9-13.3 4.5-.1 8.7 2.3 10.7 6.3l-4.7 2.3a6.8 6.8 0 0 0-6-3.7c-4.7 0-8.1 3.6-8.1 8.5s3.4 8.5 8 8.5a7 7 0 0 0 6-3.7l4.8 2.3c-2.1 4-6.2 6.4-10.7 6.3C34 105.3 28 99.8 28 91.9zm61.8 12.9-5.1-9.2h-4v9.2h-5.5V79h12c5.5 0 8.8 3.5 8.8 8.3a7.4 7.4 0 0 1-5.7 7.6l5.8 9.8-6.3.1zm.5-17.5c0-2.1-1.7-3.4-3.8-3.4h-5.8v7h5.8c2-.1 3.8-1.4 3.8-3.6zm29 17.5V79h18.2v4.8h-12.7v5.4h12.5V94h-12.5v5.9h12.7v4.8l-18.2.1zm41.9 0V79h18.2v4.8h-12.7v5.4h12.5V94h-12.5v5.9h12.7v4.8l-18.2.1zm57.1 0-7.8-10.4-2 2.4v7.9H203V79h5.5v11.5l9.1-11.5h6.8l-10.3 12.1 11 13.7h-6.8zm-182 17.1a4.8 4.8 0 0 1 4.8-5h.3c1.7 0 3.2 1 4 2.4l-1.8.9a2.5 2.5 0 0 0-2.2-1.4 3.2 3.2 0 0 0-3 3.3 3.2 3.2 0 0 0 3 3c.9 0 1.8-.6 2.2-1.4l1.7.8a4.2 4.2 0 0 1-4 2.4c-2.6 0-5-2-5-4.6v-.4zm11.8 0a5 5 0 0 1 5-5.1 5 5 0 0 1 5 4.9 5 5 0 0 1-4.9 5c-2.7.2-4.9-2-5-4.5v-.3zm8 0a2.8 2.8 0 0 0-3.2-2.6 3 3 0 0 0-2.7 3 2.9 2.9 0 0 0 5.8-.2v-.2zm13.8 4.8v-6.9l-2.7 7h-1l-2.6-7v7h-2V117h2.9l2.3 6 2.3-6H72v9.6h-2.1zm14.2 0v-6.9l-2.7 7h-.9l-2.7-7v7h-2V117h3l2.2 6 2.3-6h3v9.6H84zm6-3.9v-5.7h2.1v5.7c0 1.2 1 2.2 2.2 2.2s2.2-1 2.2-2.2v-5.7h2.1v5.7c0 2.4-1.4 4-4.3 4s-4.3-1.6-4.3-4zm19.1 3.9-4.6-6.3v6.2h-2v-9.5h2.1l4.4 6v-6h2v9.6h-1.9zm5.8 0v-9.6h2v9.6h-2zm8.2 0V119h-2.8v-1.8h7.6v1.8h-2.8v7.8h-2zm10.8 0v-3.9l-3.6-5.7h2.3l2.4 3.8 2.4-3.8h2.3l-3.7 5.7v4h-2zm13.9-4.8a4.8 4.8 0 0 1 4.8-5h.3c1.7 0 3.2 1 4 2.4l-1.8.9a2.6 2.6 0 0 0-2.2-1.4 3.2 3.2 0 0 0-3 3.3 3.2 3.2 0 0 0 3 3c.9 0 1.8-.6 2.2-1.4l1.8.8a4.5 4.5 0 0 1-4 2.4c-2.7 0-5-2-5.1-4.6v-.4zm18.9 4.8v-4h-4.6v4h-2v-9.6h2v3.8h4.5v-3.8h2.1v9.6h-2zm5.9-3.9v-5.7h2v5.7c0 1.2 1 2.2 2.3 2.2s2.2-1 2.2-2.2v-5.7h2v5.7c0 2.4-1.3 4-4.2 4s-4.3-1.6-4.3-4zm17.9 3.9-1.9-3.4h-1.5v3.4h-2v-9.6h4.5c1.6 0 3.1 1.1 3.2 2.7v.3c.1 1.3-.8 2.5-2 2.8l2.1 3.6-2.4.2zm.2-6.5c0-.7-.6-1.3-1.3-1.3h-2.3v2.6h2.2c.7.1 1.3-.5 1.4-1.3 0 .1 0 0 0 0zm5.2 1.7a4.8 4.8 0 0 1 4.8-5h.3c1.7 0 3.2 1 4 2.4l-1.8.9a2.6 2.6 0 0 0-2.2-1.4 3.2 3.2 0 0 0-3 3.3 3.2 3.2 0 0 0 3 3c.9 0 1.8-.6 2.2-1.4l1.8.8a4.5 4.5 0 0 1-4 2.4c-2.7 0-5-2-5.1-4.6v-.4zm19 4.8v-4h-4.7v4h-2v-9.6h2v3.8h4.5v-3.8h2.1v9.6h-2zm-57.6 10.8 8.1 19.7h1.6a91.5 91.5 0 0 1 8-19.7h-17.7zm-45.8 14.9c-2.9-7.5 3.9-14.9 3.9-14.9l-30.4.1 23.6 57.3h4.7l3.7-9.5c4.5-12.8 4.2-9.3-.2-20l-5.3-13zm35.8 0c-2.9-7.5 3.9-14.9 3.9-14.9l-30.4.1 23.6 57.3h4.7l3.7-9.5c4.5-12.8 4.2-9.3-.2-20l-5.3-13z" class="st0"/></svg>