<svg width="32" height="32" viewBox="0 0 32 32" fill="none" xmlns="http://www.w3.org/2000/svg">
<path d="M7.5 15.1C9 15.1 9.2 14.3 9.2 13.6C9.2 13 9.1 12.5 9.1 11.9C9.1 11.3 9 10.7 9 10.2C9 8.1 10.3 7.2 12.4 7.2H13.2V9.1H12.8C11.8 9.1 11.5 9.7 11.5 10.7C11.5 11.1 11.6 11.5 11.6 12C11.6 12.4 11.7 12.9 11.7 13.5C11.7 15.2 11 15.8 9.8 16.1C11 16.4 11.7 17 11.7 18.7C11.7 19.3 11.6 19.8 11.6 20.2C11.6 20.6 11.5 21.1 11.5 21.4C11.5 22.4 11.8 23 12.8 23H13.2V24.9H12.4C10.4 24.9 9.1 24.1 9.1 21.9C9.1 21.3 9.1 20.8 9.2 20.2C9.3 19.6 9.3 19 9.3 18.5C9.3 17.9 9.1 17 7.6 17L7.5 15.1V15.1ZM24.5 16.8C23 16.8 22.8 17.7 22.8 18.3C22.8 18.9 22.9 19.4 22.9 20C23 20.6 23 21.2 23 21.7C23 23.9 21.6 24.7 19.6 24.7H18.8V23H19.2C20.2 23 20.5 22.4 20.5 21.4C20.5 21 20.5 20.6 20.4 20.2C20.4 19.7 20.3 19.2 20.3 18.7C20.3 17 21 16.4 22.2 16.1C21 15.8 20.3 15.2 20.3 13.5C20.3 12.9 20.4 12.4 20.4 12C20.5 11.5 20.5 11.1 20.5 10.7C20.5 9.7 20.1 9.2 19.2 9.1H18.8V7.2H19.6C21.7 7.2 23 8.1 23 10.2C23 10.8 22.9 11.3 22.9 11.9C22.8 12.5 22.8 13.1 22.8 13.6C22.8 14.3 23 15.1 24.5 15.1V16.8V16.8Z" fill="#EE7625"/>
</svg>
