<svg xmlns="http://www.w3.org/2000/svg" viewBox="0 0 712 271"><defs><linearGradient id="b" x1="356" y1="271" x2="356" gradientUnits="userSpaceOnUse"><stop offset=".2" stop-color="#fff"/><stop offset="1" stop-color="#fff" stop-opacity="0"/></linearGradient><clipPath id="a"><path fill="none" d="M0 0h712v271H0z"/></clipPath></defs><g clip-path="url(#a)"><path fill="url(#b)" d="M0 0h712v271H0z"/><path d="M0 234.4s6.5-11.7 29-15 48.5 13.2 48.5 13.2 10.6-7.4 21.6-8.2 17.4 3.5 17.4 3.5 18.8-21.4 51.3-24.1 70.2 15.3 70.2 15.3.2-10.1 20-12.7 27.5 7.7 27.5 7.7 21-19.6 53.1-18.3 45.3 8.1 45.3 8.1 5.3-5.1 10.7-6.7 12.1 2.5 12.1 2.5 11.1-8.4 23.5-8.6a89.4 89.4 0 0133.4 5.4c4.5-7.1 34-19.5 67-16.8s42.9 6.6 42.9 6.6 6.7-11.8 24-13.5 35.7 8.9 35.7 8.9 12.9-14.1 37.9-20.8 40.9-6.2 40.9-6.2v39.8l-598.7 63.7L0 244.8z" fill="#88bc5e"/><path d="M0 244.8l712-67.1V271H0z" fill="#94ca65"/><path d="M578.9 69.1s10.5-9.1 11.2-16a9.5 9.5 0 00-4.7-9.5s3.7-4.8 1.8-7.8a5.5 5.5 0 00-4.9-2.6s2.6-15.3-4.2-19.4-7.6 7.5-7.6 7.5-.4-8-3.3-9-3.8 4.7-3.8 4.7-4-18.4-16.9-17-9.1 17.6-9.3 17.6-.8-7.4-6.4-5.9-5.5 10.6-5.5 10.6-2.2-5.5-8.5.5 2.6 22.6 1.7 22.7-4.3-1.3-3.5 7.3S529.3 68 529.3 68z" fill="#422019"/><path d="M555.7 87.8s-1.4-.2-1.8-1a10.4 10.4 0 010-3.1l-11.9-.6a4.1 4.1 0 01-1.7 3.2c-2 3.7 1.5 10.5 9 8.6s6.4-7.1 6.4-7.1z" fill="#aa5943"/><path d="M541.5 84.7a6.8 6.8 0 005.3 4.1 8.9 8.9 0 007.4-1.6 2.1 2.1 0 01-.5-1.8c-4.2-1.2-11.9-1.6-11.9-1.6z" fill="#8c3e2c"/><path d="M560 87.5l-4.3.3a9.2 9.2 0 01-8.2 6.8c-6.9.8-7.2-8.3-7.2-8.3s-2.9-.9-3.2-.6-6.8 11.8-6.8 11.8a109.9 109.9 0 00-5.7 24.2c13.7 6.5 45-1.4 45-1.4l-5.9-19.7z" fill="#ffc639"/><path d="M526 130.1s2.7 4 12.6 6.4 13.7 1.9 20.4 15.7c2.6 5.3 16.7-15.9 16.7-15.9s-1.1-17-8-16.9-18.5 2.4-26.7-1.4-13.6-10.2-22.2-6.2c2.3 11.5 7.2 18.3 7.2 18.3z" fill="#58acba"/><path d="M525.6 37.7c4.4-10.4 12.1-16.8 30.6-14.2s24.1 10.9 25.5 22-4.5 29.8-12.3 35.3-18.4 4.7-21.3 4.7l-1.3-.2c-2.8-.7-13.9-3.9-19.1-10.3s-6.6-26.8-2.1-37.3z" fill="#aa5943"/><path d="M577.7 68a3.7 3.7 0 014.7.7c2.4 2.1.7 8.2-3.2 7.6s-3.7-4.4-3.7-4.4z" fill="#aa5943"/><path d="M582.1 72.2a2.2 2.2 0 00-2.3-1.4c-1.8.1-2.4 2.5-2.4 2.5s.6-1.3 1.5-1.4 1.5.9.9 2.1a1.5 1.5 0 00-.8-2.5 2.3 2.3 0 013.1.7zM549.9 67.5a2.1 2.1 0 001.3-.3 5.4 5.4 0 001.3-.7c.5-.1.4.2.1.4s1.1.2.9-.7-1.7-.1-3.4-.4a15.9 15.9 0 01-.2 1.7z" fill="#8c3e2c"/><path d="M572.1 50.4a17.4 17.4 0 00-3.8-2.5l-3.3-.6c-.5 0 1.4-1.6 3.8-1.3s5.1 5.8 3.3 4.4z" fill="#422019"/><path fill="none" d="M559.5 65h11.9v7.12h-11.9z"/><path d="M523.2 60.4a3.8 3.8 0 00-4.7-.7c-3 1.4-2.9 7.7.9 8.1s4.8-3.2 4.8-3.2z" fill="#aa5943"/><path d="M517.7 63.2a2.6 2.6 0 012.7-.8c1.6.6 1.5 3.1 1.5 3.1s-.1-1.5-1-1.7-1.7.5-1.5 1.8a1.4 1.4 0 011.5-2.1 2.4 2.4 0 00-3.2-.3zM549.9 67.5a2.4 2.4 0 01-1.2-.6l-1.1-1.1c-.3-.2-.3 0-.2.4s-1.1 0-.6-1 1.6.4 3.3.6a15.9 15.9 0 01-.2 1.7z" fill="#8c3e2c"/><path d="M533.1 44.6a15.9 15.9 0 014.3-1.3 23.8 23.8 0 013.5.3c.5.2-1-2-3.3-2.2s-6.7 4-4.5 3.2z" fill="#422019"/><path fill="none" d="M528.7 60.2h11.9v7.12h-11.9z"/><path d="M530.4 58.1a5.8 5.8 0 014.7-2.5c2.9.1 3.6 3.2 3.6 3.2a5 5 0 00-3.8-2.1 8.6 8.6 0 00-4.5 1.4z" fill="#190c09"/><path d="M530.4 58.1s-2-.2-2.3-1.4c.4 1.1 3.3.5 3.3.5zM532 56.9a2 2 0 01-2.4-1.6c.7 1 2.1 1 3.2.9s-.8.7-.8.7z" fill="#190c09"/><path d="M533.1 56.2s-1.5-.2-1.1-2c.1 1.1 1.1 1.5 1.8 1.7s-.7.3-.7.3zM570.9 63.2a5.2 5.2 0 00-3.9-3.5 4 4 0 00-4.3 2.1 4.8 4.8 0 014.2-1.1 8.4 8.4 0 014 2.5z" fill="#190c09"/><path d="M570.9 63.2s2 .4 2.6-.8c-.7.9-3.3-.5-3.3-.5z" fill="#190c09"/><path d="M569.7 61.7a2 2 0 002.7-1c-.9.9-2.2.5-3.4.1s.7.9.7.9z" fill="#190c09"/><path d="M568.9 60.7s1.4.1 1.5-1.6a1.7 1.7 0 01-2.1 1.1c-1-.1.6.5.6.5z" fill="#190c09"/><path d="M541.4 68.3s1.3 4.2 7.8 5 8.9-2.9 8.9-2.9.1 0 0 .2c-2.9 4.1-8.9 3.2-8.9 3.2s-6.1-.6-7.8-5.4c-.2-.2 0-.2 0-.1z" fill="#771a13"/><path d="M510.9 64a118.2 118.2 0 0026.2 21.9c.9 3.6-1.8 9.1-6.8 11.7-8.8-7.5-17.4-17.5-21.3-32z" fill="#aa5943"/><path d="M510.9 64a4.7 4.7 0 00.2-1.6 9.3 9.3 0 01-.4-2.2c.2-.4-.3-.7-.7-.2s-.1 1.6-.2 1.7-2.6-1.5-3.6-1.8-.9.2-.6.7l2.1 1.7s-2.3-1.8-3-1.6 2.1 2.3 2.1 2.3-2.2-1.6-2.5-1 1.9 1.7 1.9 1.7-1.9-1-1.9-.2 1.5.8 2.1 1.3 2.3 1.4 2.9.7zM590.7 72.9A121.8 121.8 0 01560 87.5c-1.9 3.3-.5 9.4 3.7 13.1 10.3-5.1 21.2-12.7 28.7-25.8a15.1 15.1 0 01-1.7-1.9z" fill="#aa5943"/><path d="M590.7 72.9a12.6 12.6 0 01.1-1.6 6.5 6.5 0 00.9-1.9c0-.5.4-.7.7 0s-.4 1.5-.1 1.6 2.8-.7 3.8-.8.9.5.3.8a14.5 14.5 0 01-2.4 1.1s2.8-1.2 3.4-.7-2.6 1.5-2.6 1.5 2.6-.9 2.6-.3-2.3 1.2-2.3 1.2 2-.4 1.9.2-1.5.4-2.2.7-2.7.8-3.1 0a16.8 16.8 0 00-1-1.8z" fill="#aa5943"/><path d="M572.6 130.6s-4.8-3-9.8 1.9-5.7 13-3.9 19.7c3.5 0 8.4-3.1 8.4-3.1l7.6-8c.2-.1 2.5-6.7-2.3-10.5z" fill="#6abfd3"/><path d="M565.4 167.5s9.4-20.8 9.9-28.1-7.2-11.4-12.6-3.7-.5 32-.5 32z" fill="#aa5943"/><path d="M571.6 152.5s-.6-1.6-4.4-1.9-6.9 2.7-6.9 2.7a90.2 90.2 0 001.9 14.4l3.4-.2s4-9.4 6-15z" fill="#f9ead7"/><path d="M571.1 153.7s-1.7-2.1-5.3-1.4a11.3 11.3 0 00-5.5 2.6v.6s3.4-2.6 6.1-2.7a6.5 6.5 0 014.5 1.4z" fill="#ffc639"/><path d="M567 164.6s-4.4 1.3-4.9 3.2a1.9 1.9 0 001.7 1.7c1.2.1 4.9-3.5 4.9-3.8s-.8-1.6-1.7-1.1z" fill="#352a28"/><path d="M518.3 112.1s4.8-3 9.8 1.9 5.5 13 3.6 19.8c-3.4 0-8.4-3.2-8.4-3.2l-7.6-8.1c0 .1-2.3-6.6 2.6-10.4z" fill="#6abfd3"/><path d="M525.1 149.2s-9.1-20.9-9.6-28.1 7.3-11.4 12.7-3.6.2 32.1.2 32.1z" fill="#aa5943"/><path d="M519 134.1s.8-1.6 4.4-1.9 6.9 2.8 6.9 2.8a95.5 95.5 0 01-2 14.3l-3.3-.2s-4.1-9.4-6-15z" fill="#f9ead7"/><path d="M519.5 135.3a5.7 5.7 0 015.4-1.4 10.2 10.2 0 015.3 2.7v.6s-3.2-2.6-5.9-2.8a6.8 6.8 0 00-4.5 1.4z" fill="#ffc639"/><path d="M523.6 146.2s4.3 1.3 4.8 3.2a1.9 1.9 0 01-1.6 1.7c-1.2.1-4.9-3.4-4.9-3.8a1.4 1.4 0 011.7-1.1z" fill="#352a28"/><path d="M530.8 112.6s5 3.2 7.5 6.2 6.4 9 14.1 9.2 8.2-1.6 13-3a9.8 9.8 0 018.5 1.7 15.2 15.2 0 00-2-4.8c-6.1 0-21.6-1.4-27.7-4.2a125.1 125.1 0 00-13.4-5.1z" fill="#4097a0"/><path d="M529.5 111.8a81.9 81.9 0 019.4 6.3c4 3.3 5.2 7.6 16.7 6.9s17.3-3.4 17.3-3.4a53.4 53.4 0 01-7.6-15.1c-15.6 0-35.8 5.3-35.8 5.3z" fill="#ffc639"/><path d="M548.6 126.8a19.5 19.5 0 01-1.3 5.2 40.6 40.6 0 01-3 5.8h.5a35.3 35.3 0 003.1-5.7 16.5 16.5 0 001.4-5.5z" fill="#4097a0"/><path d="M578.4 67.7s5.2-17.7-2.5-28.4c-.4 3.6-5.9 5.4-8.6 4.2s-3.6-4.5-3.6-4.5-2.5 4.1-7.9 2-6.8-10-6.8-10 1.1 6.4-4.2 7.3-9.9-5.1-9.9-4.4 3.3 4.3-1.7 7.5c-2.6 1.7-7.3 0-7.3 0s-4.1 7-3.1 18.6c-2-4.6-4.5-24.9 9.2-34.1s30.8-5.6 42 1.1 12.6 30 4.4 40.7z" fill="#422019"/><path d="M623.1 153.8l-.6-4.6-3.5 1.3 1.7 4zM680 173.6l-4.2-2.5-.5 4.3 4.2.7z" fill="#fdb082"/><path d="M620.2 121.1s-11.6-4.3-14.2 2.7 13.7 28.7 13.7 28.7l3.4-.8v-10s12 6.9 18 12.2 9.9 11.1 17.1 15.3 18.1 6.7 18.1 6.7 2.5-3.9 2-3.9-10.5-9.9-12.1-14.5-6.6-22.5-6.6-22.5z" fill="#5395e5"/><path d="M621.2 122.8a41 41 0 006.4 5.9c3.4 2.4 8 8.3 16.4 12a58.1 58.1 0 0017.9 4l-1.4-5.1-25.3-13.9z" fill="#3b84cc"/><path d="M653.1 100.7l.2-1.4-11.6-4.2-.7 1.9s-2.5 4 4.5 6.2 7.6-2.5 7.6-2.5z" fill="#e98146"/><path d="M675.8 25.3s2.3-4.8-2.6-6.8-9 5-9 5 .2-6.9-9.2-6.4-12.5 11.6-12.5 11.6-.9-4.4-5.1-3.1-4.2 11.2-4.2 11.2-5.9-.9-10.2 5.7.8 16.7.8 16.7a8.4 8.4 0 00.3 9.5c7.6 3.5 57.6 23.5 57.6 23.5s8-1.5 10.5-6.7.5-8.3.5-8.3 8.9-5 8.6-14-5.4-10.1-5.4-10.1 2.8-10-.3-15.9-10.7-2.8-10.7-2.8 5.9-6.2 1.8-10.9-10.9 1.8-10.9 1.8z" fill="#ff903e"/><path d="M635.8 45.4c6.8-9.5 16-14.3 34.2-7.4s21.9 16.4 20.8 28.1-11.3 29-20.5 32.8-19.5.7-22.5 0a3.5 3.5 0 01-1.3-.5c-2.6-1.3-13.2-7.1-17-14.8s-.6-28.7 6.3-38.2z" fill="#fdb082"/><path d="M681.6 87.9a4.3 4.3 0 014.8 1.8c1.9 2.7-1.2 8.4-5 7s-2.7-5.3-2.7-5.3z" fill="#fdb082"/><path d="M685.2 93.1a2.2 2.2 0 00-2-2c-1.8-.4-3 2-3 2s.8-1.2 1.7-1.1a1.5 1.5 0 01.6 2.4 1.5 1.5 0 00-.3-2.7 2.5 2.5 0 013 1.4z" fill="#e98146"/><path d="M670 78.3a3 3 0 111.8 3.9 3 3 0 01-1.8-3.9z" fill="#190c09"/><path d="M676.5 81a4.4 4.4 0 00-1-4.1 3.8 3.8 0 00-5.2-.3c2.3-.8 5.3.8 6.2 4.4z" fill="#190c09"/><path d="M671.2 77.3a.6.6 0 01.7-.3c.2.1.5.3.3.7s-.3.5-.7.3a.5.5 0 01-.3-.7z" fill="#fff"/><path d="M653.7 81a3.8 3.8 0 001.5.1l1.5-.3c.5 0 .4.2.1.4s1 .5 1-.6-1.7-.4-3.4-1z" fill="#e98146"/><path d="M660.7 86.7c1.7-.2 2.2-.4 2.4.7s-5.3 5.7-12.8 3c.2-.7.6-1.6.9-2.4 3 .9 4.9 1.2 6.8.5a6 6 0 002.7-1.8zM644.7 80.6c-1.1-1.1-1.4-1.6-2.1-1s.2 7.8 7.7 10.7a23.4 23.4 0 01.9-2.4c-2.8-1.2-4.3-2.4-5.4-4.1a5.4 5.4 0 01-1.1-3.2z" fill="#720f07"/><path d="M644.7 80.8l1 .9a24.7 24.7 0 003.9 2.9 16.7 16.7 0 005 1.9 40.5 40.5 0 004.8.4h1.3a5.5 5.5 0 01-2.8 1.7c-1.9.6-3.8.4-6.8-.5s-4.4-2.4-5.4-4a6.6 6.6 0 01-1-3.3z" fill="#fff"/><path d="M649 87.6a3.4 3.4 0 011.9 1.1 3.1 3.1 0 012.1.5c1.2.7 2.2 1.5 1.8 1.9s-3.3-.5-4.4-1-3.8-1.7-3.9-2.2 1.1-.5 2.5-.3z" fill="#b51612"/><path d="M680.4 70.6s-2-2.8-3.3-3.4a28.7 28.7 0 01-3.2-1.4c-.5-.1 1.8-1.3 4.2-.5s3.9 6.9 2.3 5.3z" fill="#ff903e"/><path fill="none" d="M664 81.6h11.9v8.3H664z"/><path d="M628.3 67.8a4.1 4.1 0 00-4.7-1.7c-3.3.8-4.6 7.1-.8 8.5s5.4-2.1 5.4-2.1z" fill="#fdb082"/><path d="M622.2 69.5a2.3 2.3 0 012.8-.2c1.6.9.8 3.4.8 3.4s.2-1.4-.5-1.9-1.9.1-2.1 1.4a1.5 1.5 0 012.1-1.8 2.2 2.2 0 00-3.1-.9z" fill="#e98146"/><path d="M643.3 68.3a3 3 0 10-3.9 1.8 3 3 0 003.9-1.8z" fill="#190c09"/><path d="M636.6 65.9a5 5 0 013.6-2.4 3.6 3.6 0 014 3.2c-1.3-2.1-4.5-2.7-7.6-.8z" fill="#190c09"/><path d="M639.4 66.2a.5.5 0 00-.4-.7c-.2-.2-.6 0-.7.3a.5.5 0 00.4.7.8.8 0 00.7-.3z" fill="#fff"/><path d="M653.7 81a2.2 2.2 0 01-1-.8 14.6 14.6 0 00-.9-1.3c-.3-.4-.3 0-.3.2s-1.1-.2-.4-1.1 1.6.8 3.2 1.5a15.1 15.1 0 01-.6 1.5z" fill="#e98146"/><path d="M640.7 55.3a17 17 0 014.7-.4l3.4 1.1c.4.1-.5-2.2-2.9-3.1s-7.5 2.6-5.2 2.4z" fill="#ff903e"/><path fill="none" d="M633.1 69.7H645V78h-11.9z"/><path d="M633.2 95.7s-11.6-2.6-16.8-7.9-9.5-15.8-9.5-15.8l-1.8 1.7s.1 14.1 4.8 21.8 17.7 12 17.7 12zM696.8 99.3a132.9 132.9 0 01-35.1 3.3c-3 2.6-3.8 8.9-1.1 14 11.9-1.3 25.2-4.9 37-14.8a8.3 8.3 0 01-.8-2.5z" fill="#fdb082"/><path d="M696.8 99.3a12.8 12.8 0 01.7-1.6l1.6-1.5c.1-.5.7-.5.7.2s-.9 1.3-.9 1.6 3.1.3 4.1.4.7.7.1 1l-2.7.2s2.9-.2 3.4.5-3.1.6-3.1.6 2.9 0 2.6.6-2.6.3-2.6.3 2.2.4 1.8.9-1.7-.1-2.5-.1-2.8-.2-3-1.1a18 18 0 00-.2-2zM607.6 74.2a5.2 5.2 0 00.7-1.5 10.5 10.5 0 01.3-2.1c.3-.4-.1-.9-.6-.5s-.5 1.4-.8 1.5-2.1-2.2-2.8-2.8-1.1-.1-.9.5 1.5 2.3 1.5 2.3-1.7-2.5-2.5-2.5 1.4 2.9 1.4 2.9-1.8-2.3-2-1.8 1.3 2.3 1.3 2.3-1.6-1.6-1.8-1 1.2 1.2 1.5 1.9 1.9 2.1 2.7 1.7z" fill="#fdb082"/><path d="M681.6 87.9s5.8-8.6 5-19-1.7-11.1-1.7-11.1a8.4 8.4 0 01-7.9 4.6c-9.1 0-6.9-8-6.9-8s-6.3 6.1-10.7 3.1-5.5-11.8-5.5-11.8-1.8 6.7-6.9 4.8a8.4 8.4 0 01-5.7-6.3s-10.9 9.2-13.7 23c-1.9-16.8 9.9-38.5 31.9-34.6s33.8 12.5 33.9 30.3-8 26.4-11.8 25z" fill="#ff903e"/><path d="M653.1 100.7a10.2 10.2 0 01-8 1.9A5 5 0 01641 97l-7.9-1.8a172.8 172.8 0 00-12.9 25.8c2.7 5.4 9.3 5.9 15.1 10.2s16.9 9.5 27.2 8.2c-2.2-12.7-.8-36.8-.8-36.8z" fill="#b0e2d8"/><path d="M634.2 95.6a57 57 0 01-8.9-2.9c-3.5-1.5-3.8-1.9-3.8-1.9s-2.7.4-5.3 4.1-2.3 5.8-2.3 5.8 0 .5 5.5 3.9a69.8 69.8 0 008.8 4.7zM653.7 100.8a56.8 56.8 0 0010.7 1.2h9a30.9 30.9 0 012.5 12c-7.7 3.2-17.9 4-17.9 4z" fill="#b0e2d8"/><path d="M625.8 108.3l4.2-8.4-4.3 7.4.7-6.7-1.3 7.2zM661.2 117.8l-.3-10.1 1 9.5 3-8.2-2.3 8.5z" fill="#94d3c7"/><path d="M653.1 100.7a9.7 9.7 0 01-5.5 1.8c-3.2.1-6.6-1.2-6.6-5.5l-1.3-.2a8.7 8.7 0 001 4c.9 1.9 2.6 3.1 6.7 3.2a9.6 9.6 0 006.9-3zM621.5 90.8s-2.2.2-4.9 3.4a11.2 11.2 0 00-2.7 6.6l.9.7a22.8 22.8 0 013-6.5 10.3 10.3 0 015.1-3.3zM673.3 102.2s1 1 1.9 5.1a20.1 20.1 0 01.6 6.9l-1.4.6a57.4 57.4 0 00-.6-7.1 21 21 0 00-1.9-5.3z" fill="#c9f2ea"/><path d="M633.9 131.9a37.2 37.2 0 00-2.8 8.4 15 15 0 00.3 6.5l.7.5s-1.4-2.7-.4-7.2a25.2 25.2 0 012.6-7.9zM622.8 141.6s-.2-6.9-3.7-11.6c3.7 5 5.3 12.6 5.3 12.6zM651 142s.5 5.2 4.6 7.2a17.6 17.6 0 008.1 1.7l-.2-1a13.5 13.5 0 01-7.4-1.4 9.4 9.4 0 01-4.1-5.9z" fill="#3b84cc"/><path d="M680.2 178.7a23 23 0 00-.7-2.6 19 19 0 01.3-2.5c.3.1 1.8.1 2.1.5a22 22 0 01-.5 5.7c-.3.5-1.1.5-1.2-1.1zM618.6 156.3a12.8 12.8 0 002-1.8s2.4-.9 2.4-.7.7 1.7.5 2-4.8 2.4-5.4 2.3-.8-1.1.5-1.8z" fill="#352a28"/><path d="M78.8 245.4s19.6-4.2 34.4-2.5 5.9 6-9.8 7.8-29.9 3.6-33.3 1.2 3.6-5.6 8.7-6.5z" fill="#93c964"/><path d="M69.2 250.7a17.2 17.2 0 01-1.2-3.5c0-.9 1.2.2 1.2.2s1.5-6.2 3.3-6.3 3.9 3 3.9 3 .4-2.2 1.3-1.6l3 1.6s0-6.2.9-5l3.6 4s-.7-3.3 1.2-2.3a16.4 16.4 0 012.8 1.6s2.5-4.7 4.2-3.7a24 24 0 013.9 3.7s-.1-3.1 1.3-2.4 2 2.3 2.1 1.9-1.1-4.3 2.3-3.4a18.7 18.7 0 015.9 3.2c.3.1-.2-2.2 1-2.1s3.2 2.3 3.2 2.3-1.1-4.6.8-3.3a54.5 54.5 0 014.3 3.7s-.6-2.4.6-1.3a10.1 10.1 0 011.5 2.5c.1-.3 1.8-2.9 2.6-2s-2.5 4.4-2.5 4.4z" fill="#93c964"/><path d="M69.7 252.7s-2.4-1.7-1.6-2.2 3.6 1.1 3.8 1.4-.1-1.4.5-1.2l1.8 1.2s2.2-4 3.6-3.7 3 3.7 3 3.7-.1-1.9.6-1.4a3.1 3.1 0 011.2 1.3s1.2-2.4 3.3-2.6 4.9 1.6 4.9 1.6 1.3-2.1 2-2.1 1.5 1.7 1.5 1.7 2.2-2.6 3.7-2.3a15 15 0 013.2 1.7c.1 0 1.9-3.5 3.5-3.6s.9 3.1.9 3.3 1.2-1.7 2-1.6 1 1.5 1 1.5 2-3.4 3.2-3.8 4.3 1.8 4.3 1.8-.2-1.2 1.7-1.5 5.3 1.1 5.3 1.1-7.8 7.8-34.1 11-28.4-1.8-28.4-1.8z" fill="#b4d782"/><path d="M244.8 228.8s19.6-4.2 34.4-2.5 6 6-9.8 7.8-29.9 3.6-33.3 1.2 3.6-5.7 8.7-6.5z" fill="#93c964"/><path d="M235.2 234a16.4 16.4 0 01-1.2-3.6c0-.8 1.2.3 1.2.3s1.5-6.2 3.3-6.3 3.9 3 3.9 3 .4-2.2 1.3-1.6l3 1.6s0-6.2 1-5 3.5 4 3.5 4-.7-3.3 1.2-2.4a29.6 29.6 0 012.9 1.7s2.4-4.7 4.1-3.7a24 24 0 013.9 3.7s-.1-3.1 1.3-2.4 2 2.3 2.2 1.9-1.2-4.4 2.2-3.4a17.7 17.7 0 016 3.2c.2.1-.3-2.3.9-2.2s3.2 2.4 3.2 2.4-1.1-4.6.8-3.3a54.5 54.5 0 014.3 3.7s-.6-2.4.6-1.3a10.1 10.1 0 011.5 2.5c.2-.3 1.8-2.9 2.7-2.1s-2.5 4.4-2.5 4.4z" fill="#93c964"/><path d="M235.7 236s-2.4-1.8-1.6-2.2 3.6 1 3.8 1.4-.1-1.4.5-1.2a9 9 0 011.8 1.2s2.2-4 3.7-3.7 2.9 3.7 2.9 3.7-.1-1.9.6-1.4a3.1 3.1 0 011.2 1.3s1.2-2.4 3.3-2.6 4.9 1.6 4.9 1.6 1.3-2.1 2-2.1 1.6 1.6 1.6 1.6 2.1-2.6 3.6-2.2a17.1 17.1 0 013.2 1.6c.2 0 1.9-3.4 3.5-3.5s.9 3.1.9 3.3 1.2-1.8 2-1.6 1 1.5 1 1.5 2-3.4 3.2-3.8 4.3 1.8 4.3 1.8-.1-1.2 1.8-1.6 5.2 1.2 5.2 1.2-7.7 7.7-34.1 10.9-28.3-1.7-28.3-1.7z" fill="#b4d782"/><path d="M439.4 210.6s19.6-4.1 34.4-2.5 6 6.1-9.8 7.9-29.9 3.5-33.2 1.2 3.5-5.6 8.6-6.6z" fill="#93c964"/><path d="M429.8 215.9a18.6 18.6 0 01-1.2-3.6c0-.8 1.2.2 1.2.2s1.6-6.1 3.3-6.3 3.9 3 3.9 3 .4-2.1 1.4-1.5a28 28 0 002.9 1.5s0-6.2 1-5 3.5 4.1 3.5 4.1-.7-3.4 1.2-2.4a21.8 21.8 0 012.9 1.6s2.5-4.7 4.1-3.6a20.9 20.9 0 013.9 3.6s-.1-3 1.3-2.3 2.1 2.2 2.2 1.9-1.2-4.4 2.2-3.5a20 20 0 016 3.2c.2.2-.3-2.2.9-2.1s3.2 2.4 3.2 2.4-1.1-4.7.8-3.3 4.3 3.6 4.3 3.6-.6-2.3.6-1.3 1.4 2.8 1.6 2.5 1.7-2.8 2.6-2-2.5 4.4-2.5 4.4z" fill="#93c964"/><path d="M430.3 217.9s-2.4-1.8-1.6-2.3 3.6 1.1 3.8 1.4-.1-1.4.5-1.1a10 10 0 011.8 1.1s2.2-4 3.7-3.6 2.9 3.6 2.9 3.6-.1-1.9.6-1.4a3.9 3.9 0 011.2 1.3s1.2-2.4 3.3-2.6 4.9 1.7 4.9 1.7 1.3-2.2 2-2.2 1.6 1.7 1.6 1.7 2.1-2.6 3.6-2.3a21.3 21.3 0 013.3 1.7c.1 0 1.8-3.4 3.4-3.6s.9 3.1.9 3.4 1.2-1.8 2.1-1.7.9 1.5.9 1.5 2-3.4 3.2-3.7 4.3 1.7 4.3 1.7-.1-1.2 1.8-1.5 5.2 1.2 5.2 1.2-7.7 7.7-34.1 10.9-28.3-1.8-28.3-1.8z" fill="#b4d782"/><path d="M155.8 237.2s25.6-4.2 45.1-2.5 7.7 6.1-12.8 7.8-39.2 3.6-43.7 1.2 4.8-5.6 11.4-6.5z" fill="#93c964"/><path d="M143.2 242.4s-1.5-2.7-1.5-3.5 1.5.2 1.5.2 2.2-6.2 4.3-6.3 5.1 3 5.1 3 .5-2.2 1.8-1.6l3.8 1.6s0-6.2 1.3-5 4.7 4 4.7 4-.9-3.3 1.6-2.3a24.7 24.7 0 013.7 1.6s3.2-4.7 5.4-3.7a26.3 26.3 0 015.1 3.7s-.2-3.1 1.7-2.4 2.6 2.3 2.7 1.9-1.5-4.3 3-3.4a28.7 28.7 0 017.8 3.2c.2.1-.3-2.2 1.3-2.1s4.2 2.3 4.2 2.3-1.5-4.6 1-3.3 5.7 3.7 5.7 3.7-.8-2.4.7-1.3 1.9 2.7 2.1 2.5 2.3-2.9 3.4-2-3.2 4.4-3.2 4.4z" fill="#93c964"/><path d="M143.8 244.4s-3.1-1.7-2.1-2.2 4.6 1 5 1.4-.1-1.4.7-1.2l2.4 1.2s2.9-4 4.7-3.7 3.9 3.7 3.9 3.7-.1-1.9.9-1.4a3.3 3.3 0 011.5 1.3 6 6 0 014.3-2.6c2.7-.3 6.4 1.6 6.4 1.6s1.8-2.1 2.7-2.1 2 1.7 2 1.7 2.7-2.6 4.9-2.3a19.1 19.1 0 014.1 1.7c.3 0 2.5-3.5 4.7-3.6s1.2 3.1 1.2 3.3 1.5-1.7 2.7-1.6 1.2 1.5 1.2 1.5 2.6-3.4 4.1-3.8 5.6 1.8 5.6 1.8-.1-1.2 2.4-1.5 6.9 1.1 6.9 1.1-10.1 7.7-44.7 11-37.2-1.8-37.2-1.8z" fill="#b4d782"/><path d="M336.5 221s25.7-4.2 45.1-2.5 7.7 6-12.8 7.8-39.1 3.5-43.7 1.2 4.8-5.6 11.4-6.5z" fill="#93c964"/><path d="M324 226.2s-1.6-2.8-1.6-3.6 1.6.2 1.6.2 2.1-6.1 4.2-6.2 5.1 2.9 5.1 2.9.5-2.1 1.8-1.5l3.8 1.5s0-6.1 1.3-5 4.8 4.1 4.8 4.1-1-3.3 1.5-2.4a30.9 30.9 0 013.7 1.7s3.2-4.8 5.4-3.7a26.3 26.3 0 015.1 3.7s-.2-3.1 1.7-2.4 2.6 2.2 2.7 1.9-1.5-4.4 3-3.4a25.5 25.5 0 017.8 3.2c.3.1-.3-2.3 1.3-2.2s4.2 2.4 4.2 2.4-1.4-4.6 1.1-3.3 5.7 3.6 5.7 3.6-.9-2.3.7-1.3 1.9 2.8 2 2.5 2.4-2.8 3.4-2-3.2 4.4-3.2 4.4z" fill="#93c964"/><path d="M324.6 228.2s-3.1-1.8-2.2-2.3 4.6 1.1 5 1.5-.1-1.5.7-1.2a12.8 12.8 0 012.4 1.2s3-4.1 4.7-3.7 3.9 3.7 3.9 3.7-.1-1.9.9-1.5a4.1 4.1 0 011.5 1.3 6.7 6.7 0 014.3-2.6c2.7-.2 6.4 1.7 6.4 1.7s1.8-2.1 2.7-2.1 2 1.6 2 1.6 2.8-2.6 4.9-2.2a17.7 17.7 0 014.2 1.6c.2 0 2.5-3.4 4.6-3.5s1.2 3 1.2 3.3 1.5-1.8 2.7-1.7 1.2 1.6 1.2 1.6 2.6-3.5 4.2-3.8 5.5 1.7 5.5 1.7-.1-1.1 2.4-1.5 6.9 1.2 6.9 1.2-10.1 7.7-44.6 10.9-37.3-1.8-37.3-1.8z" fill="#b4d782"/><path d="M531.3 202.4s25.6-4.1 45.1-2.4 7.7 6-12.9 7.8-39.1 3.5-43.6 1.2 4.6-5.7 11.4-6.6z" fill="#93c964"/><path d="M518.6 207.7s-1.6-2.8-1.6-3.6 1.6.2 1.6.2 2.1-6.1 4.2-6.2 5.1 2.9 5.1 2.9.5-2.1 1.8-1.5l3.8 1.5s0-6.1 1.3-5 4.8 4.1 4.8 4.1-1-3.3 1.5-2.4a30.9 30.9 0 013.7 1.7s3.2-4.8 5.5-3.7a30.3 30.3 0 015.1 3.7s-.3-3.1 1.6-2.4 2.6 2.2 2.8 1.9-1.6-4.4 2.9-3.4a25.5 25.5 0 017.8 3.2c.3.1-.3-2.3 1.4-2.2s4.1 2.4 4.1 2.4-1.4-4.6 1.1-3.3 5.7 3.6 5.7 3.6-.9-2.3.7-1.3 1.9 2.8 2 2.5 2.4-2.8 3.4-2-3.2 4.4-3.2 4.4z" fill="#93c964"/><path d="M519.2 209.7s-3.1-1.8-2.2-2.3 4.7 1.1 5 1.5-.1-1.5.7-1.2a10.1 10.1 0 012.4 1.2s3-4.1 4.7-3.7 4 3.7 4 3.7-.2-1.9.8-1.5a4.1 4.1 0 011.5 1.3 6.7 6.7 0 014.3-2.6c2.7-.2 6.4 1.7 6.4 1.7s1.8-2.1 2.7-2.1 2.1 1.6 2.1 1.6 2.7-2.6 4.8-2.2a15.9 15.9 0 014.2 1.6c.2 0 2.5-3.4 4.6-3.5s1.2 3 1.2 3.3 1.5-1.8 2.7-1.7 1.2 1.6 1.2 1.6 2.6-3.5 4.2-3.8 5.5 1.7 5.5 1.7-.1-1.1 2.4-1.5 6.9 1.2 6.9 1.2-10.1 7.7-44.6 10.9-37.3-1.8-37.3-1.8z" fill="#b4d782"/><path d="M636.5 190.6s25.7-4.2 45.1-2.5 7.7 6-12.8 7.8-39.2 3.6-43.7 1.2 4.7-5.6 11.4-6.5z" fill="#93c964"/><path d="M623.9 195.9s-1.5-2.7-1.5-3.5 1.5.2 1.5.2 2.2-6.2 4.3-6.3 5.1 3 5.1 3 .5-2.2 1.8-1.6l3.8 1.6s0-6.2 1.3-5 4.8 4 4.8 4-1-3.3 1.5-2.3a24.7 24.7 0 013.7 1.6s3.2-4.7 5.4-3.7a26.3 26.3 0 015.1 3.7s-.2-3.1 1.7-2.3 2.6 2.2 2.7 1.8-1.5-4.3 3-3.4a28.7 28.7 0 017.8 3.2c.3.1-.3-2.2 1.3-2.1s4.2 2.3 4.2 2.3-1.4-4.6 1.1-3.3l5.6 3.7s-.8-2.4.8-1.3 1.9 2.7 2 2.5 2.4-2.9 3.4-2-3.2 4.4-3.2 4.4z" fill="#93c964"/><path d="M624.5 197.8s-3-1.8-2.1-2.2 4.6 1 5 1.4-.1-1.4.7-1.2a12.8 12.8 0 012.4 1.2s2.9-4 4.7-3.7 3.9 3.7 3.9 3.7-.1-1.9.9-1.4a3.3 3.3 0 011.5 1.3 6.3 6.3 0 014.3-2.6c2.7-.3 6.4 1.6 6.4 1.6s1.8-2.1 2.7-2.1 2 1.7 2 1.7 2.8-2.7 4.9-2.3a24.6 24.6 0 014.2 1.7c.2 0 2.4-3.5 4.6-3.6s1.2 3.1 1.2 3.3 1.5-1.8 2.7-1.6 1.2 1.5 1.2 1.5 2.6-3.4 4.1-3.8 5.6 1.8 5.6 1.8-.1-1.2 2.4-1.6 6.9 1.2 6.9 1.2-10.1 7.7-44.6 10.9-37.3-1.7-37.3-1.7z" fill="#b4d782"/><path d="M230.5 101.8a29 29 0 01-13.1-20.3c-2.3-14.5 1.4-23.5 9.1-27.4s7.6-13.1 11.3-14.7 3 5.4 3 5.4 2.7-12.5 8.4-14.9 2.6 13.5 2.6 13.5 2.4-6 6.1-6.3 3 6.4 3 6.4 1.8-7.1 8.6-6.4-.2 6.7 4.6 10 23.5 15 12.4 40.2c-27.7 19.7-56 14.5-56 14.5z" fill="#775340"/><path d="M230.3 99.7a4.4 4.4 0 00-4.8 1.3c-2.3 2.5.3 8.5 4.2 7.5s3.2-4.8 3.2-4.8zM285.4 85.2a4.4 4.4 0 014.9-1.4c3.2 1.1 3.9 7.5 0 8.6s-5.3-2.6-5.3-2.6z" fill="#f49e73"/><path d="M280.1 62.1c-5.9-10.2-14.5-15.7-33.3-10.7s-23.5 14.2-23.5 25.8 8.5 30 17.1 34.6 19.5 2.6 22.4 2.2l1.4-.4c2.7-1 13.7-5.8 18.3-13s3.5-28.4-2.4-38.5z" fill="#fdb082"/><path d="M226.3 104.7a2.5 2.5 0 012.1-1.8c1.9-.1 2.8 2.3 2.8 2.3s-.7-1.3-1.6-1.2a1.4 1.4 0 00-.7 2.3c-.8-.9-.8-2.3.6-2.6a2.4 2.4 0 00-3.2 1z" fill="#e98146"/><path d="M242.8 91.4a3.1 3.1 0 00-3.8-2.1 3 3 0 00-2.1 3.8 2.9 2.9 0 003.8 2.1 3 3 0 002.1-3.8z" fill="#190c09"/><path d="M236 93.5a4.5 4.5 0 011.5-4.1c1.6-1.4 3.6-1 5.1.3-2.2-1.1-5.1.3-6.6 3.8z" fill="#190c09"/><path d="M241.8 90.4a.5.5 0 00-.7-.4.6.6 0 00-.3.7.5.5 0 00.7.4c.3-.1.3-.5.3-.7z" fill="#fff"/><path d="M258.7 95.7a2.3 2.3 0 01-1.4-.1c-.4-.1-1-.5-1.5-.6s-.3.2-.1.4-1 .4-.9-.8 1.6-.2 3.4-.7a8.5 8.5 0 01.5 1.8z" fill="#e98146"/><path d="M233.2 82.7s2.4-2.5 3.7-3l3.3-1.1c.5-.1-1.7-1.5-4.2-.8s-4.5 6.4-2.8 4.9z" fill="#775340"/><path fill="none" d="M236.8 94.6h11.9v8.3h-11.9z"/><path d="M291.3 87.4a2.2 2.2 0 00-2.7-.5c-1.7.9-1.2 3.4-1.2 3.4s0-1.5.7-1.9 1.9.3 1.8 1.6c.4-1.2-.4-2.4-1.8-2a2.2 2.2 0 013.2-.6z" fill="#e98146"/><path d="M270.3 84.1a3.1 3.1 0 012.2-3.8 3.1 3.1 0 111.6 5.9 3.1 3.1 0 01-3.8-2.1z" fill="#190c09"/><path d="M277.2 82.4a4.6 4.6 0 00-3.3-2.8 3.7 3.7 0 00-4.3 2.7c1.4-1.8 4.8-2.1 7.6.1z" fill="#190c09"/><path d="M274.5 82.3a.7.7 0 01.3-.7.6.6 0 01.7.4c.2.2-.1.5-.3.7s-.6 0-.7-.4z" fill="#fff"/><path d="M258.7 95.7a2.1 2.1 0 001.2-.7 3.8 3.8 0 01.9-1.2c.4-.2.4 0 .4.2s1.1-.1.5-1-1.6.6-3.4 1a12 12 0 01.4 1.7z" fill="#e98146"/><path d="M274.4 71.4s-3.4-1-4.7-.8l-3.4.7c-.5.1.7-2.2 3.1-2.7s7.1 3.3 5 2.8z" fill="#775340"/><path fill="none" d="M267.6 86.3h13.1v8.3h-13.1z"/><path d="M294.5 84a127.5 127.5 0 01-20.5 28.7c0 4 4.3 8.6 9.9 9.9 6.7-9.7 12.8-22.1 13-37.7zM219.2 99.1a123.7 123.7 0 0030.2 18.2c1.6 3.7-.4 9.7-5.1 13-10.1-6.2-20.5-15.3-26.9-29.4a10.8 10.8 0 001.8-1.8z" fill="#fdb082"/><path d="M277.8 108.5a12.4 12.4 0 003.8 4.6 18 18 0 006.8 2.4l-1.6 2.6c-2.4.3-10.3-8.2-10.3-8.2zM245 115.5s.6 1.2-1 5.1a13.4 13.4 0 01-5.7 5.9l2.8 2.1 5.8-8.8v-3.6z" fill="#e98146"/><path d="M260.5 190l-14.9 20.9-2.9-1.1 1.5-26.1zM294.5 84a6.4 6.4 0 01-.7-1.6 11.5 11.5 0 00-.2-2.1c-.3-.5.1-.8.6-.4s.4 1.6.7 1.7 2.2-2.1 3.1-2.7 1 0 .7.4l-1.7 2.3s1.8-2.4 2.6-2.3-1.5 2.8-1.5 2.8 1.9-2.2 2.1-1.7-1.4 2.1-1.4 2.1 1.7-1.4 1.9-.8-1.2 1.2-1.7 1.8-2 2-2.7 1.5zM219.2 99.1a7.9 7.9 0 000-1.6c-.1-.6-.7-1.6-.7-2.1s-.5-.8-.7-.2.1 1.6 0 1.8-2.9-1.1-4-1.3-.9.4-.4.8a21.1 21.1 0 002.3 1.5s-2.6-1.6-3.3-1.1 2.6 1.9 2.6 1.9-2.6-1.2-2.6-.6 2.3 1.4 2.3 1.4-2.2-.6-2 0 1.5.6 2.2 1 2.6 1 3.1.3a10.5 10.5 0 011.2-1.8z" fill="#fdb082"/><path d="M259.6 99a32 32 0 01-5.2.7c-2.5.3-4.5-.9-4.6-.4s1.3 9.1 11.6 6.4z" fill="#720f07"/><path d="M259.6 99a35.2 35.2 0 004.9-1.9c2.3-1 3.4-3.1 3.9-2.7s3.3 8.5-7 11.3z" fill="#720f07"/><path d="M264.2 101.5c-.9-.3-2.5-.2-2.9.3l-.8.7a3 3 0 01-1.2-.3 3.3 3.3 0 00-2.5 1.2c-.6.7-1.1 2.2.5 2.5a16.9 16.9 0 003.9-.2 11.2 11.2 0 003.5-1.7c1.5-1.1.3-2.1-.5-2.5z" fill="#b51612"/><path d="M259.6 99s-5.1 1.3-8.7.4c0 0 .2 1.4.9 1.8a2 2 0 001.3.1 1.6 1.6 0 001.7.8 2.4 2.4 0 001.4-.7s.2.7 1.8.6 2.1-.7 2.1-1.3 1.1.8 2.5.1 1.3-1.4 1.3-1.4a4.9 4.9 0 001.6-.1c1-.3.9-1.6.9-1.6a2.1 2.1 0 001.2-.7 3.9 3.9 0 00-.1-2c-2.8 2.6-7.9 4-7.9 4z" fill="#fefefe"/><path d="M247.1 115.6s5.4 3.4 15.5 1.6 13.7-7.6 13.7-7.6l10.8 8.5-3.5 6.3s-2.4 15.9-4.7 26.3-3.7 13.8-3.7 13.8-11.5-.6-19.6-6.6-15.5-15.9-15.5-15.9l3.9-10.6-3.7-2.7c0-.1 4.6-8.2 6.8-13.1z" fill="#e4ef56"/><path d="M256.4 114.6a13.3 13.3 0 01.2 3.1c2 1.5 6.8 5.4 7.9 4.5s4.6-7 4.6-7-.7-1.9-1-3.2c-4.4 2.3-11.7 2.6-11.7 2.6z" fill="#e98146"/><path d="M263.7 122.4s-6.7 3.9-7.3 3.6-1.7-7.4-1.6-8 1.3-2 1.6-1.8 7.3 6.2 7.3 6.2zM264.5 122.2s7.6 1.6 8 1.1-1.3-8-1.7-8.6-1.8-.8-2-.5-4.3 8-4.3 8z" fill="#fff"/><path d="M222.6 134.6s2.2-7.6 9.7-5.6 9.9 11.9 18 21.4 21.3 13.7 21.3 13.7-5.9 16.2-10.4 27c-7.4-1.2-17.8-5.8-17.8-5.8a57.1 57.1 0 00-.3-16.9c-1.5-8.2-12.4-16.5-12.4-16.5s-11-8.8-8.1-17.3z" fill="#ff9239"/><path d="M241.8 137.8a82.4 82.4 0 0010.6 17.8 52.1 52.1 0 0017.3 13.6l1.9-5.2a45.4 45.4 0 01-16.7-9.3c-7.8-6.9-13.1-16.9-13.1-16.9z" fill="#f4812c"/><path d="M253.2 155.1a14.4 14.4 0 01-5.7 6.6c-4.4 2.6-6.1 1.7-6.1 1.7l-.4-.4s2.3.9 6.3-1.7a16.1 16.1 0 005.6-6.2zM243.1 185.4s2.1 1.5 9.2 3.8 8.8 2.7 9 2.3 2.3-4.5 2-4.7-4.6-1.2-9.9-3-9.7-3.4-9.8-3.2-.8 4.5-.5 4.8zM229 128.6s5.7-.3 8.1 6.1-.6 13.4-5.2 17.9c-3.2-1.6-6.3-6.6-6.3-6.6l-3.5-10.2c0 .1.8-6.4 6.9-7.2z" fill="#f4812c"/><path d="M219.1 162.1s.7-21.4 3.4-27.6 11.7-5.8 13.3 3-13.8 26.3-13.8 26.3z" fill="#fdb082"/><path d="M265.7 130.3a1 1 0 00-1.1-1 .9.9 0 00-1 1 1 1 0 001 1.1 1.1 1.1 0 001.1-1.1zM265.2 137.1a1.1 1.1 0 00-1-1.1 1.1 1.1 0 100 2.2 1.2 1.2 0 001-1.1z" fill="#fff"/><path d="M283.5 124.4l-3-5.4 2.3 5.6-4.8-2.6 5 5.7zM244 131.3l6-3.7-5.2 2.3 1.2-4.2-3.3 4.6z" fill="#d7e05f"/><path d="M220.1 147.1s1.3-1.1 4.9.6a10.5 10.5 0 015.1 5.4 66.7 66.7 0 01-8.1 10.8l-2.8-1.8s.2-9.6.9-15zM243.5 195.7s2.5 5.2 9.7 4.5c-2.2 3.2-7.6 10.7-7.6 10.7l-2.9-1.1z" fill="#f9ead7"/><path d="M220 148.1a6.6 6.6 0 015.6 1.5 10.5 10.5 0 013.8 4.7l-.3.5s-1.9-3.7-4.2-5.1a7.8 7.8 0 00-4.9-1.1zM243.4 197.1a7.1 7.1 0 004.3 3.9c3.2 1.1 4.7.4 4.7.4l-.4.6s-1.6.6-4.6-.5a6.5 6.5 0 01-3.9-3.8z" fill="#d7e05f"/><path d="M218.9 159s3.5 3.1 3.1 5a1.7 1.7 0 01-2.2.6c-1.2-.5-3-5.1-2.9-5.4s1.4-.9 2-.2zM242.7 209.8a12.1 12.1 0 00-.6 3c-.3 2-.4 3.5.9 3.4s2.6-2.4 2.8-5.4a28.2 28.2 0 01-3.1-1z" fill="#352a28"/><path d="M242.7 209.8a1.7 1.7 0 001.2 1.7 1.6 1.6 0 001.9-.7 3.4 3.4 0 00-3.1-1z" fill="#f9ead7"/><path d="M230.3 99.7s-4.7-13.6.5-23.4 11.4-1.6 17.6-.5 5.1-6.2 5.1-6.2.7 3.8 5.7 1a13 13 0 006-8s.4 4.8 6.8 4.8 6.2-2.1 6.2-2.1a31.1 31.1 0 017.2 19.9c3-11.5-1.1-38-27.9-37.9s-36.4 12.4-35.7 28.8 5.6 22.5 8.5 23.6z" fill="#775340"/><path d="M191.6 154.4l13.3 29.2-1 1.3a137.2 137.2 0 01-24.5-20.2c3-7.2 12.2-10.3 12.2-10.3z" fill="#fdb082"/><path d="M194.5 160.7s-2.5-.6-5.3 2.6-2.7 8.2-2.7 8.2l-4.7-4.5 11.7-8.7z" fill="#e98146"/><path d="M198.3 169.2s-4.2.3-7.2 6.4c4.8 4.2 10.2 8.2 12.7 9.4a10.2 10.2 0 001-1.3z" fill="#f9ead7"/><path d="M198.8 170.1a7.5 7.5 0 00-4.2 2.2 12.1 12.1 0 00-2.7 3.9l.2.3a15.5 15.5 0 012.6-3.8 9.2 9.2 0 014.1-2.3z" fill="#f24730"/><path d="M206.1 179.6s-2.9 3.5-2.2 5.3a2.1 2.1 0 002.3.2c1.1-.7 2.2-5.4 1.9-5.7s-1.5-.7-2 .2z" fill="#352a28"/><path d="M148.2 162l-2.7 31.9 1.4 1a144.2 144.2 0 0016.3-27.2c-5.3-5.8-15-5.7-15-5.7z" fill="#fdb082"/><path d="M161.1 171.9l-2 3.7s-1.2-2.9-5.5-4.1-6.5 1.2-6.5 1.2l.4-4.1 5.6-1.4z" fill="#e98146"/><path d="M183.2 136.5l11.8 20.2s-6.8 7.9-15.1 11c-4.5-4.7-8.4-9.1-10.8-7.9s-5.8 12.1-5.8 12.1a34.2 34.2 0 01-17.9-4.3c2.6-12.8 3.6-20.8 3.6-20.8z" fill="#6abfd3"/><path d="M153.1 154.9s11.3 5.2 16.2 4 11-9.3 11-9.3a33.5 33.5 0 01-8.4 9.6c4.1-1.2 6.9-2.3 6.9-2.3l-6.9 3.4a2.8 2.8 0 00-2.2-.5 3.8 3.8 0 00-2.1 1.7l-10.5-.6 8.8-.4c.2-.3-5.8-1.6-12.8-5.6zM178 141.7a8.5 8.5 0 004.4 2.3 7.3 7.3 0 004.6-1.1l.3.4s-1.3 1.3-4.9 1-4.8-2.3-4.8-2.3zM154.1 149.6a5.6 5.6 0 01-2.4 2.1 8.7 8.7 0 01-3.4.6v.3a6.2 6.2 0 003.9-.7 5.3 5.3 0 002.8-2.5z" fill="#4dadbc"/><path d="M146.8 178.3s4-1.2 8.9 3.5c-3.2 5.6-6.9 11.2-8.8 13.1l-1.4-1z" fill="#f9ead7"/><path d="M146.8 179.2a7.5 7.5 0 014.6.7 11.1 11.1 0 013.8 2.7v.3a12 12 0 00-3.8-2.7 9.9 9.9 0 00-4.6-.9z" fill="#f24730"/><path d="M143 190.6s3.9 2.4 3.9 4.3a1.8 1.8 0 01-2.1.9c-1.2-.2-3.9-4.4-3.8-4.7s1.2-1.1 2-.5z" fill="#352a28"/><path d="M148.3 151.8a49 49 0 0021.3-3.2c13.5-5.1 14.3-10.7 14.3-10.7l-.3-.6-34.9 11.9z" style="isolation:isolate" fill="#4dadbc" opacity=".25999999"/><path d="M117.5 107.5a127.1 127.1 0 0033.7 9.4c2.5 3.1 2.1 9.4-1.4 13.9-11.4-3.3-23.8-9.2-33.5-21.1z" fill="#fdb082"/><path d="M142.2 115.3s2 1.4 1.1 5.7a8.7 8.7 0 01-4 5.9l2.7 1.2 4.2-4.9-1.7-7.4z" fill="#e98146"/><path d="M195.7 90.1a126.8 126.8 0 01-26.2 23.3c-.9 3.9 2.1 9.4 7.3 11.8 8.8-7.9 17.3-18.6 20.9-33.6z" fill="#fdb082"/><path d="M177.3 107.7a7.3 7.3 0 008.5 7.9 28 28 0 01-2.7 3.2c-3.8 0-7.7-9.7-7.7-9.7z" fill="#e98146"/><path d="M126 98.8s-6.4-2.5-7.1-7.1 3.8-1.7 3.8-1.7a22.2 22.2 0 01-9.5-17.3c-.7-12 6.2-9.7 7.5-6.3-1.6-11-.3-17.3 5.1-22s7.9 1.1 7.9 1.1A23.9 23.9 0 01148 33.7c10.1-2.9 16.6-1.1 14.8 8.4 6.9-6 13.2-3 14.4 4.7 3.9-2.1 10.3 1 7.8 16.2 3.1-2.4 8.1 3.3 1.4 14.2 3.9 0 4.3 7.5-2 12.1-13.4 4.3-58.4 9.5-58.4 9.5z" fill="#9b664b"/><path d="M117.5 107.5a4.5 4.5 0 00-.5-1.7 8 8 0 01-1.2-1.8c-.1-.5-.6-.6-.7.1s.6 1.5.5 1.7-3.1-.2-4.2-.2-.8.5-.2.8l2.6.7s-3-.7-3.4-.1 2.9 1.2 2.9 1.2-2.8-.5-2.7.1 2.5.8 2.5.8-2.1 0-1.9.6 1.7.1 2.4.4 2.8.3 3-.6a15 15 0 01.9-2zM195.7 90.1a5.8 5.8 0 01-.4-1.6 19.2 19.2 0 00.3-2.2c-.2-.4.3-.8.7-.2s.1 1.5.3 1.8 2.6-1.6 3.6-2 1.1.2.6.7l-2 1.8s2.2-1.9 3.1-1.7-2.2 2.4-2.2 2.4 2.3-1.7 2.5-1.1-1.9 1.8-1.9 1.8 1.9-1 2-.4-1.4.9-2 1.4-2.4 1.6-3 .9z" fill="#fdb082"/><path d="M164.8 115.2s8.6-4.3 10.5-6.3c2.1 3.9 8.2 10.4 8.2 10.4l-5.7 6.2 6.6 11.2a45.3 45.3 0 01-16.8 10.2 41.9 41.9 0 01-19.1 2.4l.9-17.8-7.6-2.9a33.2 33.2 0 002.3-7.2c.2-2.6.6-5.9.6-5.9a76.5 76.5 0 0010.8 1.3 30.4 30.4 0 009.3-1.6z" fill="#f24730"/><path d="M155.5 116.8a7 7 0 00.2-3.2 29.3 29.3 0 017.9-1.2 8.5 8.5 0 001.2 2.9c-2.3 2.9-7.6 2.8-9.3 1.5z" fill="#e98146"/><path d="M180 63.9c-5.1-10.4-13.3-16.6-32.1-12.9s-24.2 12.5-25 24.1 6.3 30.3 14.6 35.4 19.1 3.9 22.1 3.7l1.3-.2c2.9-1 14.1-4.9 19.1-11.8s5.1-27.8 0-38.3z" fill="#fdb082"/><path d="M128.2 98a4 4 0 00-4.9.9c-2.4 2.4-.2 8.4 3.7 7.7s3.5-4.6 3.5-4.6z" fill="#fdb082"/><path d="M123.8 102.5a2.3 2.3 0 012.2-1.7c1.8 0 2.5 2.5 2.5 2.5s-.6-1.3-1.5-1.3a1.4 1.4 0 00-1 2.2 1.5 1.5 0 01.7-2.6 2.1 2.1 0 00-2.9.9z" fill="#e98146"/><path d="M141.1 90.5a3.1 3.1 0 00-3.6-2.4 3 3 0 00-2.3 3.6 2.9 2.9 0 003.5 2.3 2.9 2.9 0 002.4-3.5z" fill="#190c09"/><path d="M134.2 92a4.6 4.6 0 011.7-3.9 3.6 3.6 0 015 .6c-1.9-1.2-5 0-6.7 3.3z" fill="#190c09"/><path d="M140.1 89.3a.6.6 0 00-.5-.5c-.3 0-.5.4-.5.6a.6.6 0 00.6.5c.3 0 .6-.4.4-.6z" fill="#fff"/><path d="M156.5 95.8a3.8 3.8 0 01-1.4-.1c-.4-.1-1-.6-1.4-.6s-.4.1-.1.4-1.1.3-.9-.7 1.7-.2 3.5-.5c.1.3.3 1.5.3 1.5z" fill="#e98146"/><path d="M148.7 100.2c-1.6-.5-2-.7-2.4.3s4.3 6.5 12.1 4.9c-.1-.7-.3-1.6-.5-2.5-3 .5-4.9.4-6.6-.5a6.7 6.7 0 01-2.6-2.2z" fill="#720f07"/><path d="M165.5 97c1.3-1.1 1.7-1.4 2.3-.6s-1.5 7.6-9.4 9.2a22.1 22.1 0 00-.5-2.5c3-.7 4.8-1.6 6-3.1a7 7 0 001.6-3z" fill="#720f07"/><path d="M165.5 97l-1 .8a20.1 20.1 0 01-4.4 2.2 13.7 13.7 0 01-5.2 1 36.8 36.8 0 01-4.9-.3 4 4 0 01-1.3-.4 6.8 6.8 0 002.5 2.2c1.6.9 3.7 1 6.6.6s4.8-1.6 6-3.1a6.7 6.7 0 001.7-3z" fill="#fff"/><path d="M160.2 103.2a2.9 2.9 0 00-2 .7 3.1 3.1 0 00-2.2.1c-1.3.5-2.3 1.2-2 1.6s3.4.1 4.5-.2 4.1-1 4.3-1.5-1.3-.8-2.6-.7z" fill="#b51612"/><path d="M132.1 81.1s2.5-2.3 3.8-2.7a19.1 19.1 0 013.4-.8c.5-.2-1.5-1.7-4-1.1s-4.9 6.2-3.2 4.6z" fill="#9b664b"/><path fill="none" d="M134.7 93.4h11.9v8.3h-11.9z"/><path d="M183.7 87.1a4.1 4.1 0 014.9-1c3 1.3 3.3 7.7-.6 8.5s-5-2.9-5-2.9z" fill="#fdb082"/><path d="M189.4 89.8a2.3 2.3 0 00-2.7-.6c-1.7.7-1.5 3.2-1.5 3.2s.2-1.4 1-1.8a1.3 1.3 0 011.6 1.7c.4-1.2-.2-2.4-1.6-2.2a2.2 2.2 0 013.2-.3z" fill="#e98146"/><path d="M168.9 85a2.9 2.9 0 012.3-3.5 3 3 0 013.6 2.3 2.9 2.9 0 01-2.4 3.6 2.9 2.9 0 01-3.5-2.4z" fill="#190c09"/><path d="M175.9 83.8a4.7 4.7 0 00-3.1-2.9 3.6 3.6 0 00-4.4 2.4c1.4-1.8 4.7-1.8 7.5.5z" fill="#190c09"/><path d="M173.1 83.6c0-.2.2-.6.5-.6s.6.1.6.5-.1.6-.5.6a.6.6 0 01-.6-.5z" fill="#fff"/><path d="M156.5 95.8a2.1 2.1 0 001.2-.7l1.1-1.1c.3-.2.3 0 .2.4s1.1-.1.5-.9-1.6.4-3.3.8c.1.3.3 1.5.3 1.5z" fill="#e98146"/><path d="M173.6 72.7s-3.2-1.2-4.5-1.1l-3.4.5c-.5.1.8-2 3.3-2.5s6.7 3.8 4.6 3.1z" fill="#9b664b"/><path fill="none" d="M166.8 87.5h11.9v8.3h-11.9z"/><path d="M127.8 97.7a31.7 31.7 0 01-1.7-21.7c3.5-12 9.7-6.7 18.3-5.2s10.7-1.8 8.1-5.6c11.6 2.9 13.4 3 15.8.4a6.4 6.4 0 001.4-5.5s11.4 6.1 14.4 26.5c2.7-6.4 1.6-24.9-10.1-34.3s-33-5.2-43.1 3.1-12.8 26.3-3.1 42.3z" fill="#9b664b"/><path d="M149.5 131.5l1.8-8.9-1.9 7.3-1.2-6.2.6 7.6zM177.8 125.5l-5.9-7.3 5.2 5.6-1.9-6.7 2.9 8z" fill="#d83221"/><path d="M13.9 124.1c-.6.9-1.9 1.6-3.1-1.1a15 15 0 01-1-5.5l1.4-.4s3.8.8 4.7 1.5 2.1 3.3 2.1 3.3 4.9-.8 6.4.6a4.3 4.3 0 011.5 3.2s4.7-2.9 6.6-1.6a7.4 7.4 0 012.6 3.2 7.4 7.4 0 012.9-4.7c2.5-1.6 8.8-6.6 15 3.1 0 0 2.7 2.7-.5 6.1s-11.7 1.1-11.7 1.1.7 2.9-4.3 3.5c-3.2.5-6.2-3-6.2-3a2.6 2.6 0 01-3.8 1.9c-3.2-1.2-4.9-6.7-4.9-6.7a2.7 2.7 0 01-3.9.9 7.7 7.7 0 01-3.8-5.4z" fill="#ff903e"/><path d="M9.7 117.7a5.1 5.1 0 01-4.4-4.1c-.8-3.8 1.8-5.1.2-7.9-.2-1.1.7-1.1 2 0s1.4 2.6 1.6 2.8.5-1.6 2.8.3.1 9.3-1 9.2zM113.9 73.3c1.1 0 2.4-.7.7-3.2a13.6 13.6 0 00-4.1-3.7l-1.1.8s-1.3 3.7-1.2 4.9 1.7 3.7 1.7 3.7-3.2 3.7-2.9 5.7a4.2 4.2 0 001.9 2.8s-4.9 2.4-4.8 4.8a7.6 7.6 0 001.3 3.9 7 7 0 00-5.5 0c-2.7 1.2-10.2 3.9-5.3 14.3 0 0 .9 3.7 5.4 2.6s7.3-9.1 7.3-9.1 2 2.1 5.2-1.8.8-6.8.8-6.8A2.7 2.7 0 00117 90c.7-3.3-3.2-7.7-3.2-7.7a2.7 2.7 0 002.8-2.8 7.4 7.4 0 00-2.7-6.2z" fill="#ff903e"/><path d="M52 68.2s3.3-6.2 9.1-7.7.5 3.1.5 3.1 10.2-2.9 20.2 1.3S91.5 77 91.5 77a16.3 16.3 0 017.8 11c1.6 7.8-2.7 14.5-2.7 14.5l-49.4 23.7a25.6 25.6 0 01-13.4-7.2c-6-6.3-3.5-12.7-3.5-12.7s-6.7-7.7-3.7-16A33.5 33.5 0 0135.4 77S33 78.5 33 76s7.6-9.6 19-7.8z" fill="#ff903e"/><path d="M115.8 180.4a1.8 1.8 0 01.6 2.1c-.3 1.6-3 4.5-10.7 6.5s-27.5 14.6-27.5 14.6l-1.1-2.1c-.1 0 26.7-24.8 38.7-21.1z" fill="#edaf24"/><path d="M94.1 230.7a10.1 10.1 0 011.7 2.7c.7 1.5.9 2.7-.3 3s-2.8-1.7-3.2-3.8a1.9 1.9 0 011.8-1.9zM102.4 195.3a13 13 0 001.1 3.7c.8 1.9 1.5 3.1 2.5 2.5s.6-3.6-.9-5.7a2 2 0 00-2.7-.5z" fill="#352a28"/><path d="M102.8 193.6a15.8 15.8 0 01.9 7.8c-.6 4.5-2.2 6.7-5.9 8.4s-8.2-1.3-8.6-3.4c2.9-3.4 13.6-12.8 13.6-12.8z" fill="#e98146"/><path d="M85.6 195.7s.7 6 2.5 9.8 7.5 4.5 11.6.4 4-23.4 2.2-28.7-15.5 13.2-16.3 18.5z" fill="#fdb082"/><path d="M86.3 199.5a16.3 16.3 0 017.9-7.6c5.6-2.4 8.7 1.4 8.7 1.4s.3-5.1.1-8.8c-9.4-1.7-17 13.2-17 13.2z" fill="#e98146"/><path d="M81 193.8s2.8 11 6.1 19.9 7.1 17.1 7.1 17.1l-1.8 1.8s-12.4-7.4-20.8-15.8-10.2-12-10.2-12z" fill="#fdb082"/><path d="M69.1 214.2c.1.1-.3-4.6 5.3-7a12.7 12.7 0 0110.7.6l-2.3-7.5-18.1 8.9a57 57 0 004.4 5z" fill="#e98146"/><path d="M31.8 170.1a120.8 120.8 0 0021.5-26.4c3.7-.9 9.1 1.8 11.7 6.7-7.3 8.8-17.4 17.5-31.8 21.6a5.6 5.6 0 00-1.4-1.9z" fill="#fdb082"/><path d="M45.2 155.4a5.6 5.6 0 014.5 2.1 6.9 6.9 0 011.7 5.6l2-1.6-.8-5.4-6.4-2z" fill="#e98146"/><path d="M124.2 163.7a123.1 123.1 0 01-24.3-23.8c-3.8-.5-8.9 2.8-10.9 8 8.3 7.9 19.2 15.4 34.1 17.9a7.4 7.4 0 011.1-2.1z" fill="#fdb082"/><path d="M110.7 152.2s-1.9-.2-3.9 2.3a7.9 7.9 0 00-1.7 5.3l-1.5-.9s1.4-5.9 5.8-8z" fill="#e98146"/><path d="M70.7 133.5s.9-.1.7-1.7 10-4 10-4 1 4.2 1.3 4.8a3.3 3.3 0 001.6.9s1.1 5.1-6.5 6-7.1-6-7.1-6z" fill="#fdb082"/><path d="M85.8 77.8c-7.4-8.5-16.6-12.2-33.5-4S32.8 91.6 35 102.7s13.5 26.8 22.6 29.7 18.8-1.2 21.6-2.2a2.4 2.4 0 001.1-.6c2.4-1.5 12-8 15-15.7s-2.1-27.6-9.5-36.1z" fill="#fdb082"/><path d="M45.7 122.8a3.9 3.9 0 00-4.4 2.1c-1.7 2.8 1.9 7.9 5.5 6.3s2.1-5.2 2.1-5.2z" fill="#fdb082"/><path d="M42.7 128.2a2.2 2.2 0 011.7-2.1c1.8-.5 2.9 1.6 2.9 1.6s-.9-1-1.7-.8-1.2 1.4-.4 2.4c-.9-.7-1.2-2 0-2.6-1.3-.4-2.1.4-2.5 1.5zM71.8 113.7a2.1 2.1 0 01-1.3.3l-1.4-.3c-.5 0-.3.3 0 .4s-1 .6-1-.5 1.6-.6 3.1-1.3a11.3 11.3 0 00.6 1.4z" fill="#e98146"/><path d="M45.8 108.3s1.8-2.9 2.9-3.6l2.9-1.6c.4-.3-1.9-1.1-4 0s-3.1 7-1.8 5.2z" fill="#ff903e"/><path fill="none" d="M51.7 114.8h10.7v9.49H51.7z"/><path d="M95.1 98.7a4 4 0 014.3-2.2c3.2.5 5.1 6.4 1.7 8.1s-5.6-1.4-5.6-1.4z" fill="#fdb082"/><path d="M101.1 99.7a2.3 2.3 0 00-2.7.2c-1.4.9-.5 3.3-.5 3.3s-.2-1.4.4-1.9 1.9-.1 2 1.2c.1-1.2-.9-2.2-2-1.6a2.1 2.1 0 012.8-1.2zM71.8 113.7a1.7 1.7 0 00.9-.9 14.8 14.8 0 01.8-1.3c.2-.4.3-.1.3.2s1.1-.3.2-1-1.4.8-2.9 1.6z" fill="#e98146"/><path d="M82.6 88.7a17.4 17.4 0 00-4.5.1L75 90.1c-.4.3.2-2.1 2.5-3.2s7.2 1.9 5.1 1.8z" fill="#ff903e"/><path fill="none" d="M80.1 100.6h10.7v9.49H80.1z"/><path d="M87.5 98.8a5.9 5.9 0 00-5.3-1c-2.7 1-2.5 4.2-2.5 4.2a4.9 4.9 0 013-3.2 8.6 8.6 0 014.8 0z" fill="#190c09"/><path d="M87.5 98.8s1.9-.8 1.7-2.1c-.1 1.1-3 1.4-3 1.4zM85.6 98.1a2 2 0 001.7-2.3c-.3 1.3-1.6 1.7-2.8 1.9.3.5 1.1.4 1.1.4z" fill="#190c09"/><path d="M84.4 97.8s1.2-.5.3-2.2a1.7 1.7 0 01-1.2 2.1c-.8.4.9.1.9.1zM50.6 116.1a5.6 5.6 0 012.6-4.6c2.5-1.6 4.7.7 4.7.7a4.9 4.9 0 00-4.4.2 8.5 8.5 0 00-2.9 3.7z" fill="#190c09"/><path d="M50.6 116.1s-1.8 1-2.8 0c1 .6 3.1-1.4 3.1-1.4zM51.3 114.2a2.2 2.2 0 01-3-.1 3 3 0 003.2-1 1.3 1.3 0 01-.2 1.1z" fill="#190c09"/><path d="M51.9 113.1s-1.3.6-1.9-1.1a2 2 0 002.5.4c.5-.3-.6.7-.6.7z" fill="#190c09"/><path d="M80.2 111.8s.1 4.3-5.9 7.2-9.3 0-9.3 0-.1 0 0 .1c4.1 3.1 9.5.3 9.5.3s5.6-2.5 5.7-7.6z" fill="#a02620"/><path d="M124.2 163.7a5.8 5.8 0 011.6-.4 15.5 15.5 0 002.1.1c.5-.1.9.3.3.7s-1.6.3-1.7.5 1.7 2.4 2.1 3.3-.1 1.1-.6.6l-1.9-1.9s2.1 2.2 1.8 2.9-2.4-1.9-2.4-1.9 1.8 2.1 1.4 2.4-1.9-1.8-1.9-1.8 1 1.8.4 1.9-.9-1.3-1.4-1.9-1.7-2.2-1.1-2.9zM31.8 170.1a4.6 4.6 0 00-1.7-.3 5.6 5.6 0 01-2.1.4c-.5-.1-.7.3-.2.7s1.5.1 1.6.2-1.4 2.6-1.8 3.6.3.9.8.6l1.6-2s-1.8 2.2-1.4 3.1 2.1-2.2 2.1-2.2-1.5 2.3-.9 2.5 1.6-1.9 1.6-1.9-.8 1.9-.2 1.9.7-1.4 1.3-2 1.4-2.4.7-3a17.6 17.6 0 00-1.4-1.6z" fill="#fdb082"/><path d="M70.7 133.5s.3 5.3 6.6 5.4 6.6-5.5 7-5.5 6.4-.3 7.5 1.3 1 10 6 21.3 18.1 24.3 18.1 24.3-9.6.2-20.4 9-17.5 16.8-28.8 19.3-15.4-1.3-15.4-1.3-3-11.6 1.6-28.7 8.1-25.6 8.5-31.2-.2-11.1.8-12.2 5.8-1.8 8.5-1.7z" fill="#ffc639"/><path d="M90.4 134s4.9.8 7.6 3.8 8.2 9.3 11.8 12.7c-3.6 3.2-6.4 8.9-6.4 8.9a64.3 64.3 0 01-8-5.2c-2.7-2.3-9.6-13.8-5-20.2zM62.9 135s-4.8 1.5-7 4.8-6.8 10.3-9.7 14.3c4 2.7 7.6 7.8 7.6 7.8a64.8 64.8 0 007.1-6.3c2.5-2.6 7.6-14.8 2-20.6z" fill="#ffc639"/><path d="M97.7 155.8a63.7 63.7 0 01-4.9-15 119.7 119.7 0 004 11.5v-6.9s.4 4.2.6 6.6a25.3 25.3 0 00.7 4.3zM59.3 157.3a124.3 124.3 0 002.3-15.7c-1 7.2-2.7 14.4-2.7 14.4a56.3 56.3 0 00-.2-9.9 75.4 75.4 0 01-.7 12.3z" fill="#edaf24"/><path d="M71.4 132.4a49.5 49.5 0 005.1-1.2 18.7 18.7 0 005.1-2.4l.4 1.4a12.4 12.4 0 01-5.8 3.5c-3.6.9-5.5-.2-5.5-.2s.4 0 .7-1.1z" fill="#e98146"/><path d="M92.3 232.6a1.2 1.2 0 001.7.3c1.1-.7.3-1.9.1-2.2s-2 .3-1.8 1.9z" fill="#fdb082"/><path d="M50.3 196.9a27.3 27.3 0 0016.3-.4c8.8-2.9 13.3-12.1 22.3-18.8a44 44 0 0117.3-8.2l.7.9a41 41 0 00-11 3.9 58 58 0 00-12.4 9.3c-3 3.2-5.9 7.2-11.7 11.3s-13.2 5.3-21.5 3z" fill="#fff"/><path d="M53.3 201.7h-.4a1.9 1.9 0 01-1.5-.8 5.3 5.3 0 01-.6-3.1h.6a3.9 3.9 0 00.5 2.7 1.3 1.3 0 001.1.5c2.5.3 2.9-2.3 2.9-2.4h.6c-.1.1-.5 3.1-3.2 3.1zM59.1 202.1a1.9 1.9 0 01-1.4-.5 4.2 4.2 0 01-1.2-2.8h.6a4.8 4.8 0 00.9 2.5 2.4 2.4 0 001.2.3c2.5-.3 2.3-2.9 2.3-3.1h.6s.3 3.3-2.8 3.7zM65.6 201.1l-.9-.2c-1.3-.6-1.8-2.4-1.9-2.5h.6s.4 1.7 1.5 2.1a1 1 0 001.3 0c2.4-.9 1.4-3.4 1.4-3.4l.6-.2s1.2 3-1.7 4.2zM71.4 198.5h-.3a4.2 4.2 0 01-2.4-1.9l.5-.3a3.9 3.9 0 002 1.6c.5.2.8 0 1.2-.3a2.6 2.6 0 00.5-3.7l.4-.3s1.9 2.7-.6 4.5a2.5 2.5 0 01-1.3.4zM76.4 194.7a4 4 0 01-2.7-1.4l.5-.3a4.3 4.3 0 002.2 1.1 1.7 1.7 0 001.2-.5c1.7-1.9-.2-3.7-.3-3.8l.3-.5s2.5 2.2.4 4.6a2.3 2.3 0 01-1.6.8zM80.7 190.2a4 4 0 01-2.7-1.4l.4-.3a4.3 4.3 0 002.3 1.1 1.6 1.6 0 001.2-.6c1.6-1.9-.3-3.6-.4-3.7l.4-.5s2.5 2.2.3 4.6a1.6 1.6 0 01-1.5.8zM84.7 186a3.6 3.6 0 01-2.7-1.5l.5-.3a4.2 4.2 0 002.2 1.2 1.7 1.7 0 001.2-.6c1.7-1.9-.2-3.7-.3-3.8l.3-.5s2.5 2.3.4 4.6a1.8 1.8 0 01-1.6.9zM89.2 182.2H89a4.5 4.5 0 01-2.6-1.7l.5-.3a3.8 3.8 0 002.2 1.4 1.5 1.5 0 001.2-.5c1.9-1.7.1-3.7.1-3.8l.5-.3a3.4 3.4 0 01-.1 4.6 2 2 0 01-1.6.6zM94.2 178.7h-.5a3.9 3.9 0 01-2.3-2l.4-.3a3.8 3.8 0 002.1 1.6 2.1 2.1 0 001.3-.2 2.6 2.6 0 00.6-3.7l.4-.4s1.8 2.9-.7 4.6a2.2 2.2 0 01-1.3.4zM99.1 175.9h-.8a4.9 4.9 0 01-2.1-2.4l.6-.2a4.1 4.1 0 001.7 2 2 2 0 001.3-.1c2.4-1.1 1.2-3.5 1.2-3.6l.6-.2s1.3 3-1.6 4.3a1.6 1.6 0 01-.9.2z" fill="#fff"/><path d="M104.4 174.2h-.8a4.2 4.2 0 01-2-2.4l.6-.2a4.4 4.4 0 001.6 2 2 2 0 001.3-.1 1.8 1.8 0 001.2-1.2 2.6 2.6 0 00-.4-2.2l.4-.4a3.6 3.6 0 01.6 2.7 3 3 0 01-1.5 1.7zM70.7 133.5a7.5 7.5 0 002 3.7c1.7 1.6 5.3 2 7.8.9s3.5-4.7 3.5-4.7h.6a9.1 9.1 0 01-2.5 4.2c-2.1 1.9-5.6 2-8.3.9s-3.4-3.8-3.5-5.1z" fill="#fff"/><path d="M55.2 80.4s10.4 10.9 16.1 7.4S75 81 75 81s12.6 2 20.1 17.7c1.9-14.6-10.6-31-29.4-31.3s-36.9 14.8-32.9 33.5 12.8 22 12.8 22-10.4-13.6-4.4-25.8c.8 3.2 3.8 7.3 9.2 2.2s4.8-18.9 4.8-18.9zM110.7 66.4a4.9 4.9 0 00-1.1-5.9c-2.7-2.7-5.2-1.2-6.8-4.2-.9-.7-1.3.2-1.2 1.8a5.2 5.2 0 001.5 2.9c.1.2-1.6-.5-1.3 2.5s8 5.1 8.4 4.1.5-1.2.5-1.2z" fill="#ff903e"/><path d="M355.9 28.2c3.1 1.3 7.9-7.6 21.2-4.5s19.2 16 21.3 28.5 2.3 23.5 14.9 14.7c4.5-3.1 3 5.8.4 5.7 10.7 5 14.1 16.3 7.8 24.3s-26 8.3-26 8.3 10.3-.1 8.4 4-21 9.2-48.4 2.9-38.3-35.7-33.9-55.9 19.7-33.9 34.3-28z" fill="#ffdba1"/><path d="M383.6 145.8s1.4 1.6-2.2 5.5-13.7 2.5-19.2 4.5-5.4 7.3-17.2 10.1-24.2-7.6-24.2-7.6-17.5-4-15.7-8.7c21.9.4 68.2-7.6 68.2-7.6s7.7 0 10.3 3.8z" fill="#6e3d87"/><path d="M347.7 148.5s4.1 24.1 13.6 23.6 14.8-14.4 14.8-14.4l-2.4-1-6 2.8-.9-17.3z" fill="#fdb082"/><path d="M326.8 151.5s.1 13.8 5 21.3c6.9 10.4 33.6 11.6 33.6 11.6v-3.1s-15.6-11.2-16.7-13.1.2-19.7.2-19.7z" fill="#fdb082"/><path d="M366.2 187.3a27.5 27.5 0 00-.7-3s0-3.2.2-3.1 1.8.1 2 .4.3 6.3-.1 6.7-1.4.5-1.4-1zM378.4 159.9a22.4 22.4 0 00-2.8-1.1 24.3 24.3 0 01-2.5-2c.1-.1 1.1-1.4 1.4-1.4a28.4 28.4 0 015.5 4c.2.6-.3 1.3-1.6.5z" fill="#9a68af"/><path d="M352.7 164.3s-.9-4 5.2-7.6 9.7-.6 9.7-.6l-.3-7.5s-3.5-.1-9.6 3.4-6.6 8.7-6.6 8.7zM330.1 169.2c0 .2.6-2.9 7.6-3s11.2 1.9 11.2 1.9a31.9 31.9 0 01-.5-5.9c-8.5-3.2-20 1.6-20 1.6a27.7 27.7 0 001.7 5.4z" fill="#e98146"/><path d="M325.5 131.9a73.6 73.6 0 00-20.4 17.7c6.6.4 19.8 19 35.4 15.6s23.2-16.8 31.8-18.7 11.3-.6 11.3-.6-3.3-7.1-14.8-10.9c-25-2.5-43.3-3.1-43.3-3.1z" fill="#9a68af"/><path d="M368.8 134.8s-7.7 3.6-22.4 3.6-22.1-5.8-22.1-5.8l1.2-.7z" fill="#8858a0"/><path d="M401.9 91a127.7 127.7 0 01-33.2 11.2c-2.3 3.2-1.7 9.5 2.1 13.8 11.2-3.9 23.3-10.4 32.4-22.9a5.9 5.9 0 01-1.3-2.1z" fill="#fdb082"/><path d="M401.9 91a6.1 6.1 0 01.4-1.7c.2-.6 1-1.4 1-1.9s.6-.6.8 0-.5 1.5-.4 1.8 3-.4 4-.5.9.6.4.8l-2.6.9s2.8-1 3.4-.4-2.8 1.3-2.8 1.3 2.7-.6 2.7-.1-2.5 1-2.5 1 2.2-.2 1.9.4-1.6.3-2.4.5-2.7.5-3-.4a9.7 9.7 0 01-.9-1.7zM308.7 69.5a123.1 123.1 0 0025.9 23.6c.9 3.9-2.2 9.4-7.4 11.7-8.7-8-17.1-18.8-20.6-33.9a10.8 10.8 0 002.1-1.4z" fill="#fdb082"/><path d="M308.7 69.5a8.9 8.9 0 00.3-1.7 16.5 16.5 0 01-.2-2.1c.1-.5-.4-.8-.7-.2s-.2 1.5-.4 1.7-2.6-1.5-3.6-2-1 .1-.6.7l2.1 1.8s-2.3-2-3.1-1.6 2.1 2.3 2.1 2.3-2.2-1.6-2.5-1.2S304 69 304 69s-1.9-1-2-.3 1.4.8 2 1.4 2.4 1.5 3 .9zM392.1 59.1c0-11.7-4.7-20.9-23.3-25.8s-27.3.6-33.1 10.8-7.6 30-2.5 38.3 15.4 11.9 18.3 13.1l1.3.3c3 .5 14.8 1.9 22.3-2.1s17-23 17-34.6z" fill="#fdb082"/><path d="M330.5 66.9a4.2 4.2 0 00-4.9-1.3c-3.2 1.1-3.9 7.5 0 8.5s5.2-2.6 5.2-2.6z" fill="#fdb082"/><path d="M324.4 69.1a2.2 2.2 0 012.8-.4c1.6.8 1.2 3.3 1.2 3.3s0-1.4-.8-1.9-1.9.3-1.7 1.7c-.4-1.2.3-2.4 1.7-2.1a2.5 2.5 0 00-3.2-.6z" fill="#e98146"/><path d="M345.3 65.9a3.1 3.1 0 10-3.8 2.2 3 3 0 003.8-2.2z" fill="#190c09"/><path d="M338.4 64.3a4.4 4.4 0 013.4-2.7 3.7 3.7 0 014.2 2.7c-1.4-1.9-4.6-2.3-7.6 0z" fill="#190c09"/><path d="M345 64.4c.1-.2-.2-.6-.4-.6a.5.5 0 10-.2 1 .4.4 0 00.6-.4z" fill="#fff"/><path d="M356.9 77.6a2.5 2.5 0 01-1.1-.7c-.3-.3-.6-1-1-1.2s-.3 0-.3.2-1.1-.1-.5-1.1 1.5.6 3.3 1.1z" fill="#e98146"/><path d="M341.3 53.6a20.5 20.5 0 014.6-.8l3.5.7c.4.1-.8-2.1-3.1-2.7s-7.2 3.3-5 2.8z" fill="#ffdba1"/><path fill="none" d="M335.3 67.3h11.9v8.3h-11.9z"/><path d="M385.2 81.6a4.3 4.3 0 014.9 1.3c2.2 2.5-.4 8.4-4.3 7.4s-3.2-4.9-3.2-4.9z" fill="#fdb082"/><path d="M389.2 86.5a2.2 2.2 0 00-2.1-1.8c-1.8-.1-2.7 2.2-2.7 2.2s.7-1.3 1.5-1.2a1.4 1.4 0 01.7 2.3 1.5 1.5 0 00-.6-2.6 2.4 2.4 0 013.2 1.1z" fill="#e98146"/><path d="M372.7 73.2a3.1 3.1 0 112.2 3.8 3.2 3.2 0 01-2.2-3.8z" fill="#190c09"/><path d="M379.5 75.2a4.1 4.1 0 00-1.4-4 3.8 3.8 0 00-5.1.2c2.1-1 5.1.5 6.5 3.8z" fill="#190c09"/><path d="M377.1 73.8c.1-.3.4-.5.6-.4s.5.4.4.6-.4.5-.6.4-.4-.4-.4-.6z" fill="#fff"/><path d="M356.9 77.6a2.2 2.2 0 001.5-.2l1.4-.5c.5-.2.4.2.1.3s1.1.5.8-.7-1.6-.2-3.4-.7c-.1.6-.4 1.8-.4 1.8z" fill="#e98146"/><path d="M382.5 64.2a18.4 18.4 0 00-3.6-3l-3.3-1.1c-.5-.1 1.6-1.5 4-.8s4.5 6.4 2.9 4.9z" fill="#ffdba1"/><path fill="none" d="M367.3 75.7h11.9V84h-11.9z"/><path d="M356 80.8s-2.6-.9-4.9-1.9-3.3-3.1-3.8-2.8-3.4 8.6 6.8 11.3c1-2.8 1.9-6.6 1.9-6.6z" fill="#720f07"/><path d="M356 80.8a40.7 40.7 0 005.1.8c2.5.2 4.5-1 4.6-.4s-1.3 9.1-11.6 6.3c1-2.9 1.9-6.7 1.9-6.7z" fill="#720f07"/><path d="M358.7 85.3c-.6-.7-2-1.5-2.5-1.2a3.1 3.1 0 01-1.1.2l-.9-.7c-.3-.5-2-.6-2.7-.2s-2 1.3-.7 2.3a10.9 10.9 0 003.5 1.7 13.8 13.8 0 004 .4c1.5-.4 1-1.9.4-2.5z" fill="#b51612"/><path d="M356.1 80.8s-5.1-1.5-7.7-4.1c0 0-.5 1.5-.1 2.1a2 2 0 001.1.7s0 1.3.9 1.5 1.5.1 1.5.1-.1.7 1.4 1.4 2.2.5 2.4-.1.5 1.2 2.1 1.3 1.7-.6 1.7-.6a2.5 2.5 0 001.5.7c1 .3 1.6-.8 1.6-.8a1.7 1.7 0 001.3 0c.6-.3 1-1.8 1-1.8-3.7.9-8.7-.4-8.7-.4z" fill="#fefefe"/><path d="M338.4 64.3l-1.5-2.3 3.6.4a25.4 25.4 0 00-2.1 1.9zM379.5 75.2l2.4-1.4-3.5-1.1a10.1 10.1 0 011.1 2.5z" fill="#190c09"/><path d="M324.2 83.3s7.2 10.2 27.3 14.7 32.6-.9 32.6-.9l3.8 13-19.2 8.6.2 16.1s-7.1 1.8-23.7.9-19.6-3.9-19.6-3.9 3.5-18.2 4.5-23.6c-7.6-3.6-15.4-14.6-15.4-14.6z" fill="#fc83a3"/><path d="M342.8 95.5s3.1.6 4.5-3c4.7 1.5 10.6 2.9 10.6 2.9s-.4 3.3 2.1 4c-2.7 5.7-17.2 5.2-17.2-3.9z" fill="#fdb082"/><path d="M347 93.3a32.2 32.2 0 0010.9 2.9 5.5 5.5 0 00.2 1.2 17.9 17.9 0 01-6.8.4c-4.6-.3-6.3-2.7-6.3-2.7a3.5 3.5 0 002-1.8z" fill="#e98146"/><path d="M334.9 120.7a12.8 12.8 0 0125.4 2.6l.7.2a13.5 13.5 0 00-12.1-14.7 13.3 13.3 0 00-14.7 11.8z" fill="#f24730"/><path d="M335.5 120.7a11.9 11.9 0 0113.3-10.6 12.1 12.1 0 0110.8 13.1h.7a12.8 12.8 0 00-25.4-2.6z" fill="#ff9239"/><path d="M336.2 120.9a11.5 11.5 0 0122.8 2.3h.6a12.1 12.1 0 00-24.1-2.4z" fill="#ffe36c"/><path d="M336.8 120.9a10.8 10.8 0 0121.5 2.2h.5a11.3 11.3 0 00-10.2-12.4 11.5 11.5 0 00-12.5 10.1z" fill="#d7e061"/><path d="M337.4 121a10 10 0 0111.1-9 10.3 10.3 0 019.2 11.1h.6a10.8 10.8 0 00-21.5-2.2z" fill="#6abfd3"/><path d="M338.1 121a9.4 9.4 0 0110.4-8.4 9.6 9.6 0 018.6 10.3h.6a10.4 10.4 0 00-9.2-11.2 10.1 10.1 0 00-11.1 9.1z" fill="#5180c4"/><path d="M338.6 121.1a9 9 0 0117.9 1.8h.6a9.5 9.5 0 00-19-1.9z" fill="#7f3aa3"/><path d="M340.1 119.8l-1.8 2.7 1.3 3.1-3.2-.8-2.5 2.1-.2-3.3-2.9-1.8 3.1-1.2.9-3.2 2.1 2.6zM354.9 121.8l1.8 2.8-1.3 3.1 3.2-.8 2.4 2.3.3-3.4 2.9-1.6-3.1-1.3-.7-3.2-2.1 2.5z" fill="#ffe36c"/><path d="M385.8 97.7s-.6 1.4.2 4.7a13.4 13.4 0 002.4 4.9l-1.1.7-2.8-9.8zM322.5 83.8a20.1 20.1 0 01-3 4.2 21.9 21.9 0 01-4.6 2.7l1.1 1.6 7.2-7.9z" fill="#e98146"/><path d="M358.1 136.9a44.1 44.1 0 01-3.9 12.1 32.7 32.7 0 01-8.5 10s6.1-5.9 8.4-11.6a44.4 44.4 0 002.8-10.5zM333.3 135a46.3 46.3 0 00-4 11.8 52.8 52.8 0 00-.5 13.2 33.2 33.2 0 01.1-14.6c1.8-7.3 3.4-10 3.4-10z" fill="#8858a0"/><path d="M343.1 95.5a7.9 7.9 0 002.3 5.1c2.4 2.2 7.2 2.8 10.2 1.5a8.5 8.5 0 004.1-2.8l1.8.2s-1.2 2.9-6 4.4-9.8-.4-11.8-2.9a9.2 9.2 0 01-1.9-5.9zM384.1 97.1l3.8 13-1.6.8-3.6-13.3zM324.2 83.3l-9.7 10.4 1.2 1.5 9.3-10.8z" fill="#ffe36c"/><path d="M347.8 42.6s-.7 6.6 5 9.1 8.7-4.3 8.7-4.3.4 5.1 2.8 5.1 2.9-2.7 2.9-2.7.7 4.8 7 5.6 10.6-4 10.6-4 6.4 15.1.9 29.6c14.2-6.8 9.7-34-.6-44.1s-36.1-9.4-46.5-2-8.5 31.6-8.5 31.6l.4.3c0 .1-.4-16.3 17.3-24.2z" fill="#ffdba1"/><path d="M332.7 47.9s10.4-18.6 34.2-12.4 23.8 23.4 24.5 30c.1-13.8 0-26.6-22.9-34.1s-35.8 16.5-35.8 16.5z" fill="#fc83a3"/><path d="M419.6 86.8s-9.8-16.6-3.4-32.4 11.4-12.5 11.4-12.5 3.6-11.1 11.8-13.8 4.4 6.1 4.4 6.1 10.2-7.6 18.9-6.7.9 7.5.9 7.5 8.9-8.3 17.7-4.4 1.3 20 1.3 20 5-2.3 5.8 1.8-6 14.4-6 14.4 3.5-.9 2.8 5.8-3.9 15.5-12.9 19.6-52.7-5.4-52.7-5.4z" fill="#bc7450"/><path d="M437 168.4l-5.8 11.6 1.7 1.7s7.9-4 12.5-8.1-8.4-5.2-8.4-5.2zM456 180.5l-4.7 12.1 1.8 1.4s7.6-4.7 11.6-9-8.7-4.5-8.7-4.5z" fill="#fdb082"/><path d="M428.7 179.1l2.7.8a15.4 15.4 0 011.9 1.7c-.2.1-1.1 1.4-1.5 1.4s-4.5-2.8-4.6-3.3.2-1.3 1.5-.6zM448.6 192.1a10.3 10.3 0 002.7.4 14.8 14.8 0 012.1 1.3c-.1.1-.8 1.5-1.2 1.7a21 21 0 01-5.1-2.7c-.3-.3 0-1.1 1.5-.7z" fill="#352a28"/><path d="M455.6 181.7s1.5-.7 3.9 1.2a9.7 9.7 0 013.2 4.1l1.6-1.5-.4-1.9-4.7-3h-3zM435.9 170.8s1.3-.8 3.4.7 2.7 4.7 2.7 4.7l1.9-1.4.3-.8-2.4-2.4a14.7 14.7 0 00-1.7-1.3l-3.5-.9z" fill="#e98146"/><path d="M439.3 115.5s-3.3 10.3-7.9 11.3-9.8-4.8-11.8-7.5a8.5 8.5 0 01-2.2 2.3s3.3 12.8 12.9 15.1 19.8-13 19.8-13z" fill="#fdb082"/><path d="M431.4 126.7s2.3.4 3.2 3.9-3.1 6.1-3.1 6.1a5.6 5.6 0 002 0 12.2 12.2 0 002.8-1.1l1.1-5.1-2.2-3.6-2.7-.8a2.3 2.3 0 01-1.1.6z" fill="#e98146"/><path d="M498.2 78.3a127.4 127.4 0 01-25.4 24.2c-.7 3.9 2.5 9.2 7.8 11.6 8.5-8.3 16.6-19.2 19.8-34.4a7.4 7.4 0 01-2.2-1.4z" fill="#fdb082"/><path d="M483.3 93.9a14.4 14.4 0 003.4 5 10.4 10.4 0 004.6 2.3l-.9 1.2-4.9-1.7-3.2-5.8zM448.9 109.2a1 1 0 00.7-.6c.4-.6-.1-2-.1-2l10.1-2.1a2.6 2.6 0 001.3 1.5c1.5 2 1 7.6-5.3 8.8s-6.7-5.6-6.7-5.6z" fill="#e98146"/><path d="M445 143.3s-4.2 15.5-9.3 25.7c3.8 1.5 8.8 6.4 8.8 6.4a88.4 88.4 0 008.6-7.9 78.5 78.5 0 005.8-6.9s-2.3 12.4-4.1 19.6a42.2 42.2 0 0110.3 6 81.6 81.6 0 0012.8-18.1c5.1-10.2 5-25 5-25H445z" fill="#6abfd3"/><path d="M444.2 146.5s3.4 4.5 18.7 4.6 20.1-4.6 20.1-4.6V145l-38.3-.5z" fill="#5eafbc"/><path d="M477.2 61c-3.5-11.2-10.6-18.5-29.9-17.8s-25.9 8.6-28.5 20 1.5 31 8.9 37.4 18.2 6.7 21.2 7h1.3c3-.5 14.7-2.6 20.7-8.7s9.7-26.9 6.3-37.9z" fill="#fdb082"/><path d="M420.7 86.6a4.1 4.1 0 00-5 .2c-2.7 2-1.6 8.3 2.5 8.2s4.3-4 4.3-4z" fill="#fdb082"/><path d="M415.6 90.5a2.3 2.3 0 012.5-1.3c1.7.2 2.1 2.8 2.1 2.8s-.5-1.4-1.3-1.5a1.4 1.4 0 00-1.3 2c-.6-1.1-.4-2.4 1.1-2.5a2.3 2.3 0 00-3.1.5z" fill="#e98146"/><path d="M434.6 81.2a3.3 3.3 0 00-3.2-2.9 3.1 3.1 0 10.2 6.1 3 3 0 003-3.2z" fill="#190c09"/><path d="M427.6 81.7c-.2.1.1-2.5 2.2-3.5a3.7 3.7 0 014.9 1.3c-1.8-1.5-5-.9-7.1 2.2z" fill="#190c09"/><path d="M433.8 79.9a.5.5 0 00-.5-.4c-.3 0-.5.2-.5.6s.2.4.6.4a.7.7 0 00.4-.6z" fill="#fff"/><path d="M449 88.8a3.3 3.3 0 01-1.3-.3 4.3 4.3 0 00-1.3-.9c-.5-.1-.3.2-.2.4s-1.1.2-.7-.8 1.6.1 3.4 0a11 11 0 01.1 1.6z" fill="#e98146"/><path d="M440.6 92c-1.5-.7-1.9-1-2.4-.1s3.2 7.1 11.3 6.8c0-.7-.1-1.7-.1-2.5-3.1 0-5-.5-6.5-1.7a6 6 0 01-2.3-2.5z" fill="#720f07"/><path d="M457.7 91.4c1.4-.8 1.9-1.1 2.4-.2s-2.8 7.4-10.7 7.6c0-.7-.1-1.7-.1-2.5 3.1-.2 4.8-.8 6.4-2.1a8.2 8.2 0 002-2.8z" fill="#720f07"/><path d="M457.7 91.4a4.5 4.5 0 01-1.2.6 27.6 27.6 0 01-4.6 1.5 19.6 19.6 0 01-5.4.2 23.1 23.1 0 01-4.7-1.1l-1.2-.4a7.6 7.6 0 002.1 2.4c1.6 1.2 3.5 1.7 6.6 1.7s4.8-.8 6.4-2.1a8.2 8.2 0 002-2.8z" fill="#fff"/><path d="M451.5 96.7a2.9 2.9 0 00-2.1.4 3.7 3.7 0 00-2.1-.2c-1.4.2-2.5.7-2.3 1.2s3.3.6 4.5.5 4.2-.5 4.4-.9-1.1-.9-2.4-1z" fill="#b51612"/><path d="M427.1 70.6a19.8 19.8 0 014.1-2.2l3.6-.3c.5 0-1.3-1.8-3.8-1.7s-5.8 5.4-3.9 4.2z" fill="#bc7450"/><path fill="none" d="M426.6 84h11.9v8.3h-11.9z"/><path d="M477.3 84.4a4.2 4.2 0 015-.2c2.8 1.8 2.1 8.2-1.9 8.3s-4.5-3.7-4.5-3.7z" fill="#fdb082"/><path d="M482.5 87.9a2.5 2.5 0 00-2.6-1.1c-1.8.4-1.9 3-1.9 3s.3-1.4 1.2-1.7 1.8.7 1.4 2a1.5 1.5 0 00-1.3-2.3 2.3 2.3 0 013.2.1z" fill="#e98146"/><path d="M462.9 80.1a3.1 3.1 0 113.2 2.9 2.9 2.9 0 01-3.2-2.9z" fill="#190c09"/><path d="M469.9 80.1a4.5 4.5 0 00-2.6-3.5 3.6 3.6 0 00-4.7 1.8c1.7-1.7 5.1-1.2 7.3 1.7z" fill="#190c09"/><path d="M467.3 79.3a.5.5 0 01.5-.5c.2 0 .6.2.6.4a.6.6 0 01-.5.6c-.4 0-.6-.2-.6-.5z" fill="#fff"/><path d="M449 88.8a2.6 2.6 0 001.3-.4l1.2-1c.4-.2.4.1.3.4s1 .1.7-1-1.7.3-3.5.3z" fill="#e98146"/><path d="M469.6 68.6s-3-1.7-4.3-1.8h-3.6c-.4 0 1.1-1.9 3.7-2s6.2 4.8 4.2 3.8z" fill="#bc7450"/><path fill="none" d="M458.7 82.8h13.1v8.3h-13.1z"/><path d="M498.2 78.3a7 7 0 01-.4-1.7c0-.6.4-1.6.2-2.1s.3-.8.8-.3.2 1.6.3 1.8a35 35 0 003.5-2.1c.9-.5 1 .1.5.6s-2 1.9-2 1.9 2.3-2 3-1.8-2 2.4-2 2.4 2.2-1.8 2.5-1.2-1.9 1.9-1.9 1.9 1.9-1.1 2-.5-1.4 1-2 1.4-2.4 1.6-3 1zM419.5 119.8a4.5 4.5 0 000-1.7c-.1-.6-.7-1.6-.6-2.1s-.5-.7-.7-.1.1 1.5 0 1.8-2.9-1.1-3.8-1.5-1 .4-.5.7a16.7 16.7 0 002.3 1.5s-2.6-1.6-3.4-1.2 2.5 2 2.5 2-2.5-1.3-2.6-.7 2.2 1.4 2.2 1.4-2.1-.7-2.1 0 1.6.6 2.3 1.1 2.6 1.2 3.1.3a6.4 6.4 0 001.3-1.5z" fill="#fdb082"/><path d="M448.9 109.2s1.9 6.4 7.1 4.8 4.9-8 4.9-8 4.2-1.6 5.8-1.5 6.4 7.2 10.9 16.2 6.4 23.8 6.4 23.8a50 50 0 01-22.7 4.2c-12.9-.6-18.2-5.6-18.2-5.6s.6-8.6.7-15.8-.9-15.2-.7-15.9 5.8-2.2 5.8-2.2z" fill="#ffe36c"/><path d="M463.2 105.2c-.2-.4 6-1.7 11.2-4.9a64 64 0 007.9-5.7s4.2 5.4 8.7 8a136.9 136.9 0 01-15 18.1s-9.4-8.4-12.8-15.5zM445.1 110.5a11.3 11.3 0 00-4.7 2.6c-2.2 2.1-3.2 4.8-5.1 8.1a33.7 33.7 0 01-3.6 5.2s2.1-.3 3.1 4.1-1.4 6.4-1.4 6.4 5.1.3 10.9-5.5.8-20.9.8-20.9z" fill="#ffe36c"/><path d="M477 119.5l-6.4-10 6.6 9-1.3-9 2.1 9.1zM443.7 132l-.6-14.2v14.7z" fill="#efcf4b"/><path d="M449.2 109.1a10.5 10.5 0 002.2 3.5c1.6 1.4 3.7 1.6 6.4.2s3.1-6.8 3.1-6.8l2.4-.7s.3 4.4-1.3 7.5-4.7 4.4-9.2 3.7-5.8-6.6-5.8-6.6z" fill="#ffeda1"/><path d="M454.3 116.2s1 9.2 1.5 9.3 4.2-.4 4.3-1.1-1.9-9.1-1.9-9.1z" fill="#ffeda1"/><path d="M457.5 118.5a.8.8 0 00-.9-.8.8.8 0 000 1.6.8.8 0 00.9-.8zM458.1 122.3a.9.9 0 00-.9-.9.8.8 0 00-.8.9.7.7 0 00.8.8.8.8 0 00.9-.8z" fill="#fff"/><path d="M449.2 153.1l9.8 5.9 10.9-.3-9.9 1.9 4.1 1.5-5.2-.7v-.7l-.5.6-5.3-2.5 4.6 1.2zM463.6 178.3a2.3 2.3 0 10-2.2-2.3 2.3 2.3 0 002.2 2.3zM441.9 167.3a2.3 2.3 0 10-2.2-2.2 2.2 2.2 0 002.2 2.2zM476.1 148.6s.5 4.3 1.9 5.8a5.6 5.6 0 003.8 1.6v.6a5.3 5.3 0 01-4.3-1.7c-1.6-2-2.1-5.6-2.1-5.6zM447.6 147.5a7 7 0 01-2.5 2.4 4.2 4.2 0 01-2 .5v-.5a5 5 0 002-.5 5.3 5.3 0 001.8-1.9z" fill="#5eafbc"/><path d="M420.7 86.6s-3-11.6 1.8-20.2 8.3-11.3 8.3-11.3-.4 8.1 9.3 8.8 8.8-7 8.8-7 2.9 6.1 5.4 4.1a11.7 11.7 0 003.2-4.3s1.3 5.7 5.4 5.8a13.4 13.4 0 007.7-2.7s8 6.4 7.2 23.7c7-8.4 5.2-40.9-17.5-42.9s-39.6 5.2-43.3 18.9 2 27 3.7 27.1z" fill="#bc7450"/><path d="M450.2 271s14.7-11.3 33.8-12.8 39 5.2 39 5.2-.6-14 9.7-15.8 26.5 10.6 26.5 10.6 13.4-34.9 44.8-39.9 63.9 12.5 63.9 12.5 4.6-33.1 44.1-33.1v73.4H450.2zM0 258.2s14.8-9.5 42.7-5.7S89.2 266 89.2 266s6.3-9.1 15.8-4.8 12.5 7.2 12.5 7.2 10.8-13.8 23.6-16.8 17.3 12 17.3 12 8.2-6.7 40.5-5.4 47.5 12.8 47.5 12.8H0z" fill="#88bc5e"/></g></svg>