<?xml version="1.0" encoding="utf-8"?>
<!-- Generator: Adobe Illustrator 16.0.0, SVG Export Plug-In . SVG Version: 6.00 Build 0)  -->
<!DOCTYPE svg PUBLIC "-//W3C//DTD SVG 1.1//EN" "http://www.w3.org/Graphics/SVG/1.1/DTD/svg11.dtd">
<svg version="1.1" id="Layer_1" xmlns="http://www.w3.org/2000/svg" xmlns:xlink="http://www.w3.org/1999/xlink" x="0px" y="0px"
	 width="298.811px" height="298.708px" viewBox="0 0 298.811 298.708" enable-background="new 0 0 298.811 298.708"
	 xml:space="preserve">
<linearGradient id="SVGID_1_" gradientUnits="userSpaceOnUse" x1="149.405" y1="492.2915" x2="149.405" y2="791.1011" gradientTransform="matrix(1 0 0 1 0 -492.292)">
	<stop  offset="0" style="stop-color:#DFDFDF"/>
	<stop  offset="1" style="stop-color:#C9C9C9"/>
</linearGradient>
<rect x="0" fill="url(#SVGID_1_)" width="298.811" height="298.809"/>
<g>
	<path fill="#ADADAD" d="M243.934,260.911c0,4.626-3.834,8.459-8.46,8.459H66.303c-4.626,0-8.458-3.833-8.458-8.459V40.988
		c0-4.626,3.833-8.458,8.458-8.458h169.171c4.626,0,8.46,3.833,8.46,8.458V260.911z M227.016,252.453V49.447H74.761v203.006h50.751
		v-29.605c0-2.247,1.982-4.229,4.229-4.229h42.293c2.246,0,4.229,1.981,4.229,4.229v29.605H227.016z M108.596,79.052
		c0,2.247-1.982,4.229-4.229,4.229h-8.458c-2.247,0-4.229-1.982-4.229-4.229v-8.458c0-2.247,1.982-4.229,4.229-4.229h8.458
		c2.247,0,4.229,1.982,4.229,4.229V79.052z M108.596,112.886c0,2.247-1.982,4.229-4.229,4.229h-8.458
		c-2.247,0-4.229-1.982-4.229-4.229v-8.458c0-2.247,1.982-4.229,4.229-4.229h8.458c2.247,0,4.229,1.982,4.229,4.229V112.886z
		 M108.596,146.721c0,2.246-1.982,4.229-4.229,4.229h-8.458c-2.247,0-4.229-1.982-4.229-4.229v-8.46
		c0-2.246,1.982-4.229,4.229-4.229h8.458c2.247,0,4.229,1.982,4.229,4.229V146.721z M108.596,180.555
		c0,2.247-1.982,4.229-4.229,4.229h-8.458c-2.247,0-4.229-1.981-4.229-4.229v-8.46c0-2.246,1.982-4.229,4.229-4.229h8.458
		c2.247,0,4.229,1.982,4.229,4.229V180.555z M108.596,214.389c0,2.247-1.982,4.229-4.229,4.229h-8.458
		c-2.247,0-4.229-1.982-4.229-4.229v-8.459c0-2.247,1.982-4.229,4.229-4.229h8.458c2.247,0,4.229,1.982,4.229,4.229V214.389z
		 M142.43,79.052c0,2.247-1.982,4.229-4.229,4.229h-8.458c-2.247,0-4.229-1.982-4.229-4.229v-8.458c0-2.247,1.982-4.229,4.229-4.229
		h8.458c2.247,0,4.229,1.982,4.229,4.229V79.052z M142.43,112.886c0,2.247-1.982,4.229-4.229,4.229h-8.458
		c-2.247,0-4.229-1.982-4.229-4.229v-8.458c0-2.247,1.982-4.229,4.229-4.229h8.458c2.247,0,4.229,1.982,4.229,4.229V112.886z
		 M142.43,146.721c0,2.246-1.982,4.229-4.229,4.229h-8.458c-2.247,0-4.229-1.982-4.229-4.229v-8.46c0-2.246,1.982-4.229,4.229-4.229
		h8.458c2.247,0,4.229,1.982,4.229,4.229V146.721z M142.43,180.555c0,2.247-1.982,4.229-4.229,4.229h-8.458
		c-2.247,0-4.229-1.981-4.229-4.229v-8.46c0-2.246,1.982-4.229,4.229-4.229h8.458c2.247,0,4.229,1.982,4.229,4.229V180.555z
		 M176.265,79.052c0,2.247-1.983,4.229-4.229,4.229h-8.459c-2.247,0-4.229-1.982-4.229-4.229v-8.458
		c0-2.247,1.981-4.229,4.229-4.229h8.459c2.246,0,4.229,1.982,4.229,4.229V79.052z M176.265,112.886
		c0,2.247-1.983,4.229-4.229,4.229h-8.459c-2.247,0-4.229-1.982-4.229-4.229v-8.458c0-2.247,1.981-4.229,4.229-4.229h8.459
		c2.246,0,4.229,1.982,4.229,4.229V112.886z M176.265,146.721c0,2.246-1.983,4.229-4.229,4.229h-8.459
		c-2.247,0-4.229-1.982-4.229-4.229v-8.46c0-2.246,1.981-4.229,4.229-4.229h8.459c2.246,0,4.229,1.982,4.229,4.229V146.721z
		 M176.265,180.555c0,2.247-1.983,4.229-4.229,4.229h-8.459c-2.247,0-4.229-1.981-4.229-4.229v-8.46
		c0-2.246,1.981-4.229,4.229-4.229h8.459c2.246,0,4.229,1.982,4.229,4.229V180.555z M210.099,79.052
		c0,2.247-1.982,4.229-4.229,4.229h-8.459c-2.246,0-4.229-1.982-4.229-4.229v-8.458c0-2.247,1.982-4.229,4.229-4.229h8.459
		c2.247,0,4.229,1.982,4.229,4.229V79.052z M210.099,112.886c0,2.247-1.982,4.229-4.229,4.229h-8.459
		c-2.246,0-4.229-1.982-4.229-4.229v-8.458c0-2.247,1.982-4.229,4.229-4.229h8.459c2.247,0,4.229,1.982,4.229,4.229V112.886z
		 M210.099,146.721c0,2.246-1.982,4.229-4.229,4.229h-8.459c-2.246,0-4.229-1.982-4.229-4.229v-8.46
		c0-2.246,1.982-4.229,4.229-4.229h8.459c2.247,0,4.229,1.982,4.229,4.229V146.721z M210.099,180.555
		c0,2.247-1.982,4.229-4.229,4.229h-8.459c-2.246,0-4.229-1.981-4.229-4.229v-8.46c0-2.246,1.982-4.229,4.229-4.229h8.459
		c2.247,0,4.229,1.982,4.229,4.229V180.555z M210.099,214.389c0,2.247-1.982,4.229-4.229,4.229h-8.459
		c-2.246,0-4.229-1.982-4.229-4.229v-8.459c0-2.247,1.982-4.229,4.229-4.229h8.459c2.247,0,4.229,1.982,4.229,4.229V214.389z"/>
</g>
</svg>
