<svg xmlns="http://www.w3.org/2000/svg" viewBox="0 0 298.811 298.708"><linearGradient id="a" gradientUnits="userSpaceOnUse" x1="149.405" y1="492.291" x2="149.405" y2="791.101" gradientTransform="translate(0 -492.292)"><stop offset="0" stop-color="#DFDFDF"/><stop offset="1" stop-color="#C9C9C9"/></linearGradient><path fill="url(#a)" d="M0 0h298.811v298.809H0z"/><path fill="#ADADAD" d="M243.934 260.911c0 4.626-3.834 8.459-8.46 8.459H66.303c-4.626 0-8.458-3.833-8.458-8.459V40.988c0-4.626 3.833-8.458 8.458-8.458h169.171c4.626 0 8.46 3.833 8.46 8.458v219.923zm-16.918-8.458V49.447H74.761v203.006h50.751v-29.605c0-2.247 1.982-4.229 4.229-4.229h42.293c2.246 0 4.229 1.981 4.229 4.229v29.605h50.753zM108.596 79.052c0 2.247-1.982 4.229-4.229 4.229h-8.458c-2.247 0-4.229-1.982-4.229-4.229v-8.458c0-2.247 1.982-4.229 4.229-4.229h8.458c2.247 0 4.229 1.982 4.229 4.229v8.458zm0 33.834c0 2.247-1.982 4.229-4.229 4.229h-8.458c-2.247 0-4.229-1.982-4.229-4.229v-8.458c0-2.247 1.982-4.229 4.229-4.229h8.458c2.247 0 4.229 1.982 4.229 4.229v8.458zm0 33.835c0 2.246-1.982 4.229-4.229 4.229h-8.458c-2.247 0-4.229-1.982-4.229-4.229v-8.46c0-2.246 1.982-4.229 4.229-4.229h8.458c2.247 0 4.229 1.982 4.229 4.229v8.46zm0 33.834c0 2.247-1.982 4.229-4.229 4.229h-8.458c-2.247 0-4.229-1.981-4.229-4.229v-8.46c0-2.246 1.982-4.229 4.229-4.229h8.458c2.247 0 4.229 1.982 4.229 4.229v8.46zm0 33.834c0 2.247-1.982 4.229-4.229 4.229h-8.458c-2.247 0-4.229-1.982-4.229-4.229v-8.459c0-2.247 1.982-4.229 4.229-4.229h8.458c2.247 0 4.229 1.982 4.229 4.229v8.459zM142.43 79.052c0 2.247-1.982 4.229-4.229 4.229h-8.458c-2.247 0-4.229-1.982-4.229-4.229v-8.458c0-2.247 1.982-4.229 4.229-4.229h8.458c2.247 0 4.229 1.982 4.229 4.229v8.458zm0 33.834c0 2.247-1.982 4.229-4.229 4.229h-8.458c-2.247 0-4.229-1.982-4.229-4.229v-8.458c0-2.247 1.982-4.229 4.229-4.229h8.458c2.247 0 4.229 1.982 4.229 4.229v8.458zm0 33.835c0 2.246-1.982 4.229-4.229 4.229h-8.458c-2.247 0-4.229-1.982-4.229-4.229v-8.46c0-2.246 1.982-4.229 4.229-4.229h8.458c2.247 0 4.229 1.982 4.229 4.229v8.46zm0 33.834c0 2.247-1.982 4.229-4.229 4.229h-8.458c-2.247 0-4.229-1.981-4.229-4.229v-8.46c0-2.246 1.982-4.229 4.229-4.229h8.458c2.247 0 4.229 1.982 4.229 4.229v8.46zm33.835-101.503c0 2.247-1.983 4.229-4.229 4.229h-8.459c-2.247 0-4.229-1.982-4.229-4.229v-8.458c0-2.247 1.981-4.229 4.229-4.229h8.459c2.246 0 4.229 1.982 4.229 4.229v8.458zm0 33.834c0 2.247-1.983 4.229-4.229 4.229h-8.459c-2.247 0-4.229-1.982-4.229-4.229v-8.458c0-2.247 1.981-4.229 4.229-4.229h8.459c2.246 0 4.229 1.982 4.229 4.229v8.458zm0 33.835c0 2.246-1.983 4.229-4.229 4.229h-8.459c-2.247 0-4.229-1.982-4.229-4.229v-8.46c0-2.246 1.981-4.229 4.229-4.229h8.459c2.246 0 4.229 1.982 4.229 4.229v8.46zm0 33.834c0 2.247-1.983 4.229-4.229 4.229h-8.459c-2.247 0-4.229-1.981-4.229-4.229v-8.46c0-2.246 1.981-4.229 4.229-4.229h8.459c2.246 0 4.229 1.982 4.229 4.229v8.46zm33.834-101.503c0 2.247-1.982 4.229-4.229 4.229h-8.459c-2.246 0-4.229-1.982-4.229-4.229v-8.458c0-2.247 1.982-4.229 4.229-4.229h8.459c2.247 0 4.229 1.982 4.229 4.229v8.458zm0 33.834c0 2.247-1.982 4.229-4.229 4.229h-8.459c-2.246 0-4.229-1.982-4.229-4.229v-8.458c0-2.247 1.982-4.229 4.229-4.229h8.459c2.247 0 4.229 1.982 4.229 4.229v8.458zm0 33.835c0 2.246-1.982 4.229-4.229 4.229h-8.459c-2.246 0-4.229-1.982-4.229-4.229v-8.46c0-2.246 1.982-4.229 4.229-4.229h8.459c2.247 0 4.229 1.982 4.229 4.229v8.46zm0 33.834c0 2.247-1.982 4.229-4.229 4.229h-8.459c-2.246 0-4.229-1.981-4.229-4.229v-8.46c0-2.246 1.982-4.229 4.229-4.229h8.459c2.247 0 4.229 1.982 4.229 4.229v8.46zm0 33.834c0 2.247-1.982 4.229-4.229 4.229h-8.459c-2.246 0-4.229-1.982-4.229-4.229v-8.459c0-2.247 1.982-4.229 4.229-4.229h8.459c2.247 0 4.229 1.982 4.229 4.229v8.459z"/></svg>