<svg xmlns="http://www.w3.org/2000/svg" fill="none" viewBox="0 0 116 30"><path d="M21.838 22.389c-.093-.049-.248-.044-.372.125-.762 1.041-3.533 4.438-7.139 4.438-5.678 0-9.494-4.875-9.494-12.133 0-6.41 3.357-11.062 7.998-11.062h.001c.748 0 1.488.25 2.082.704l4.815 3.678c.119.091.275.106.407.037a.392.392 0 00.213-.35V3.62a.396.396 0 00-.22-.356c-1.692-.812-3.859-1.26-6.105-1.26C5.768 2.003 0 7.979 0 16.534c0 7.803 5.088 13.465 12.101 13.465 5.693 0 9.078-4.414 9.874-7.195.06-.207-.026-.358-.137-.415zm19.783 5.359a.2.2 0 01-.051-.134v-13.06c0-3.002-2.178-5.046-5.418-5.087-2.697-.03-5.06 1.755-6.198 2.614-.152.114-.284.214-.394.292a.042.042 0 01-.047.003.048.048 0 01-.024-.042V.394a.388.388 0 00-.151-.31.374.374 0 00-.33-.07c-.04.005-4.065.658-5.385.959a.372.372 0 00-.278.326.377.377 0 00.202.386c.046.031 1.122.76 1.45.942a.37.37 0 01.188.325v24.66a.206.206 0 01-.048.132l-1.41 1.012a.389.389 0 00-.09.426.38.38 0 00.361.247h6.68a.38.38 0 00.36-.247.395.395 0 00-.1-.436l-1.388-.994a.197.197 0 01-.059-.142V14.386c0-.057.026-.114.07-.151 1.259-1.096 2.467-1.716 3.69-1.893 1-.145 2.017.165 2.787.85a3.672 3.672 0 011.23 2.745v11.677a.2.2 0 01-.046.131l-1.426 1.053a.393.393 0 00-.086.426c.06.152.198.246.36.246h6.673a.394.394 0 00.266-.677l-1.388-1.045zm19.984-4.925c-.152-.082-.333-.036-.442.11-1.04 1.4-3.2 3.75-5.997 3.75-4.12 0-6.894-3.253-7.072-8.286a.196.196 0 01.053-.141.201.201 0 01.145-.063H61.34a.38.38 0 00.301-.147.391.391 0 00.08-.323c-1.082-5.426-3.832-8.294-7.954-8.294-5.262 0-9.232 4.594-9.232 10.685 0 5.914 3.634 9.885 9.042 9.885 3.79 0 6.772-2.464 8.18-6.758a.336.336 0 00-.152-.418zm-13.452-6.26c.37-3.51 2.146-5.607 4.747-5.607 2.353 0 3.725 1.67 4.588 5.584a.198.198 0 01-.194.24h-8.941a.204.204 0 01-.151-.068.189.189 0 01-.049-.149zm31.88 7.055c-.12-.061-.293-.05-.405.118l-.073.11c-.815 1.213-1.93 2.874-4.82 2.874-4.08 0-7.042-3.516-7.042-8.358 0-4.132 2.18-7.368 4.965-7.368.174 0 .35.01.524.03.35.04.688.179.975.4l4.203 3.228c.119.091.275.106.409.038a.39.39 0 00.212-.35v-3.562a.393.393 0 00-.216-.354c-1.281-.623-3.042-.993-4.711-.993-5.835 0-9.91 4.409-9.91 10.723 0 5.89 3.436 9.848 8.55 9.848 4.958 0 6.655-3.393 7.501-5.944a.355.355 0 00-.162-.44zm34.906-13.82a3.317 3.317 0 00-1.582-.367c-1.404 0-3.161 1.091-5.221 3.245a.034.034 0 01-.038.009.032.032 0 01-.021-.031l-.111-2.768a.393.393 0 00-.162-.292.38.38 0 00-.331-.058l-5.075 1.468a.383.383 0 00-.271.29.392.392 0 00.116.379l1.669 1.535c.04.038.064.09.064.147v14.258a.199.199 0 01-.053.137l-1.218 1.009a.39.39 0 00-.089.426.382.382 0 00.361.247h6.411c.162 0 .306-.1.363-.255a.393.393 0 00-.109-.434l-1.295-.99a.195.195 0 01-.065-.146V15.232c0-.169.04-.335.118-.48.294-.553.759-1.073 1.348-1.503.589-.432 1.179-.804 1.928-.623.565.137 1.717 1.018 2.407 1.544.248.191.445.341.553.41a.38.38 0 00.396.012.39.39 0 00.198-.343v-3.984a.522.522 0 00-.291-.467zM92.02 17.086c-.033-.047.05-.132.148-.223l6.703-6.285a.336.336 0 00.044-.44.33.33 0 00-.277-.137h-4.847a.392.392 0 00-.322.627l1.269 1.714c.06.081.05.194-.023.263l-7.05 6.664v-6.614l.001.002V.395a.388.388 0 00-.481-.38c-.04.006-4.064.658-5.386.959a.371.371 0 00-.277.33.368.368 0 00.201.381c.043.03 1.046.708 1.448.927a.37.37 0 01.19.326v24.635a.205.205 0 01-.048.13l-1.426 1.054a.393.393 0 00.289.671h6.676a.38.38 0 00.36-.246.396.396 0 00-.1-.437l-1.387-.993a.197.197 0 01-.059-.142v-6.38a.2.2 0 01.059-.143l1.363-1.345a.198.198 0 01.303.03c.039.056 3.865 5.433 5.789 8.11a.103.103 0 01-.017.14l-.942.801a.391.391 0 00.285.673h6.222c.198 0 .276-.09.306-.165.072-.177-.069-.417-.177-.53-.217-.285-8.716-11.552-8.837-11.715z" fill="#043F93"/></svg>