<?xml version="1.0" encoding="utf-8"?>
<!-- Generator: Adobe Illustrator 19.1.0, SVG Export Plug-In . SVG Version: 6.00 Build 0)  -->
<svg version="1.1" id="Layer_1" xmlns="http://www.w3.org/2000/svg" xmlns:xlink="http://www.w3.org/1999/xlink" x="0px" y="0px"
	 viewBox="0 0 130.5 33.5" style="enable-background:new 0 0 130.5 33.5;" xml:space="preserve">
<style type="text/css">
	.st0{fill:#3c79bb;}
</style>
<path class="st0" d="M109.9,32.6h-5.6L98,22.1l-0.6,0.6l-1.8,1.9v8h-4.7v-3c-1.9,1.6-3.7,2.5-5.3,3c0,0-0.1,0-0.3,0.1
	c-0.6,0.1-1.8,0.4-3.1,0.4h-0.7v0c-3-0.1-5.9-1.2-7.7-3.3c-1.8-2.2-2.8-5-2.8-8.4c0-3.4,0.9-6.2,2.8-8.4c1.9-2.2,4.4-3.3,7.6-3.3
	c2.6,0,4.7,0.7,6.2,2.1c0.3,0.2,0.5,0.5,0.8,0.8l-2.7,3.4c-1.1-1.2-2.3-1.8-4.1-1.8c-1.7,0-3.2,0.7-4.2,2c-1,1.3-1.5,3.1-1.5,5.3
	c0,2.2,0.5,4,1.5,5.3c1,1.2,2.4,1.8,3.9,2c0,0,0.4,0,0.8,0c0.3,0,0.6,0,0.8,0c0,0,0.1,0,0.1,0c1.7-0.2,5.2-1.3,8-6V0.7h4.7v17.4
	l7.5-7.9h6.4l-8.1,8.4L109.9,32.6z"/>
<path class="st0" d="M68.7,21.4c0-3.2-0.8-6-2.5-8.2c-1.7-2.3-4.2-3.4-7.3-3.4c-3,0-5.5,1.1-7.4,3.4c-1.9,2.2-2.8,5-2.8,8.3
	c0,3.3,0.9,6.1,2.7,8.3c1.8,2.2,4.6,3.3,7.7,3.3h0c3.6,0,6.7-1.5,8.7-4.3l-3.1-3.1c-0.5,1-1.6,1.7-2.3,2.1c-0.7,0.4-2.2,0.8-3.4,0.8
	c-1.6,0-3-0.5-3.9-1.6c-0.8-1-1.3-2.2-1.5-3.8h15V21.4z M54,18.5c0.3-1.3,0.9-2.3,1.6-3c0.9-0.9,2-1.3,3.3-1.3
	c1.3,0,2.3,0.4,3.1,1.3c0.7,0.8,1.3,1.8,1.6,3H54z"/>
<path class="st0" d="M129.9,13.7l-3.7,3.7c-0.1-0.3-0.5-1.6-1.9-2.7c-0.5-0.4-1.4-0.6-2.4-0.6c-1.4,0-2.5,0.6-3.3,2
	c-0.9,1.4-1.4,3.2-1.4,5.3v11.1h-4.7V10.1h4.7v1.7c1.6-1.4,3.6-2.1,6-2.1c1.7,0,3.2,0.4,4.4,1.3C128.5,11.7,129.3,12.6,129.9,13.7z"
	/>
<path class="st0" d="M46,17.4v15.2h-4.6V17.9c0-2.5-1.1-3.7-3.5-3.7c-1.4,0-2.6,0.6-3.6,1.8c-0.2,0.2-0.4,0.5-0.6,0.8
	c-0.4,0.6-0.6,1.3-0.8,2.1c-0.1,0.3-0.1,0.5-0.1,0.8c0,0.4-0.1,0.8-0.1,1.2v11.6H28v-6.1c-0.1,0.2-0.3,0.3-0.4,0.5
	c-2.9,3.1-6.2,5.1-9.9,5.8c-0.1,0-0.2,0-0.3,0.1c-0.8,0.1-1.5,0.2-1.9,0.2h-1c-3.6,0-7.6-1.3-10-4.4c-2.1-2.8-3.7-7.2-3.7-12
	c0-4.8,1.6-9.2,3.7-12c2.4-3,6.2-4.4,9.8-4.4c2.9,0,6.5,1,8.4,2.8c0.5,0.5,1,1,1.4,1.7l-3.1,3.9c-2-3.2-4-3.7-6.7-3.7
	c-1.8,0-4.5,0.9-6.2,3.2c-1.5,2.1-2.3,5.2-2.3,8.4c0,3.2,0.9,6.2,2.3,8.3c0.5,0.6,2.5,3.1,6.7,3.1c0.7,0,1.5-0.1,2.4-0.2
	c5.5-1.3,8.9-6.5,10.4-9.7c0.2-0.3,0.3-0.6,0.4-0.9V0.7h4.7v11.2c0.5-0.4,1.2-0.8,1.9-1.2c1.3-0.6,2.7-1,4-1c2.4,0,4.2,0.6,5.5,1.9
	C45.4,12.9,46,14.8,46,17.4z"/>
</svg>
