<svg version="1.1" id="Layer_2" xmlns="http://www.w3.org/2000/svg" x="0" y="0" viewBox="0 0 238 240" xml:space="preserve"><style>.st2{fill:#dcdcdc}</style><path fill="#e6e6e5" d="M0 1h238v240H0z"/><path fill="#fff" d="M32.3 20h173.3v221H32.3z"/><path class="st2" d="M84.3 37.7h69.3V73H84.3zM48 94.3h140v4H48zM48 105.7h140v4H48zM48 118h73v4H48zM48.9 186h140v4h-140zM48.9 197.3h140v4h-140zM48.9 209.7h73v4h-73zM80.3 229.7h73v4h-73zM48.9 137.7h140v4h-140zM48.9 149h140v4h-140zM48.9 161.3h73v4h-73z"/></svg>