<svg xmlns="http://www.w3.org/2000/svg" viewBox="0 0 135 135"><linearGradient id="a" gradientUnits="userSpaceOnUse" x1="0" y1="0" x2="0" y2="135"><stop offset="0" stop-color="#dfdfdf"/><stop offset="1" stop-color="#c9c9c9"/></linearGradient><path fill="url(#a)" d="M0 0h135v135H0z"/><path d="M116 135v-9.4c0-9.3-6.8-17.1-16-18.3l-16.9-1.9a4.6 4.6 0 01-4-4.7v-9.2l-23.2-.3v9.5c0 2.3-1.7 4.3-4 4.6l-16.9 2c-9.2 1.2-16 9-16 18.3v9.4" fill="#c9c9c9"/><path d="M97.6 55.2l2.7-13.7a12.5 12.5 0 00-6.7-13.7l-.6-.3c-2.8-8.3-9.6-10.9-18.3-10.9H36.3l3.6 10.9a12.7 12.7 0 00-6.5 14.6l4.2 13.1" fill="#adadad"/><path d="M93 75.4a14 14 0 01-3.5 9.3l-9.9 11.2a9.2 9.2 0 01-6.9 3.2H62.6a9.4 9.4 0 01-7-3.2l-9.9-11.3a14.4 14.4 0 01-3.4-9.3V43.6s13.8 0 20.7-2.3l20.8-6.9L93 50.6v24.8z" fill="#dfdfdf"/><path d="M100.3 105.1l-16.9-1.9a2.3 2.3 0 01-2-2.5v-3.4l9.8-11.1c2.6-3 4.1-6.8 4.1-10.8v-6.7a9.1 9.1 0 004.9-14.6l2.4-12.1c1.3-6.4-1.9-13-7.7-16-3-7.8-9.6-11.5-20.1-11.5H33.2l4 12.1c-5.1 3.5-7.6 10-6 16.2l3.7 11.6a9 9 0 00-1.9 5.5c0 4.3 3 7.9 7 8.9v6.6c-.1 4 1.3 7.8 4 10.8l9.6 11v3.6c0 1.2-.9 2.2-2 2.3l-16.9 2a20.8 20.8 0 00-18 20.5v9.4c0 1.2 1 2.3 2.3 2.3s2.3-1 2.3-2.3v-9.4c0-8.1 6-15 14-16.1l16.9-2a7 7 0 006-6.8v-.3c1.4.6 2.9.9 4.5.9h10.1c1.4 0 2.8-.3 4.1-.8v.1a7 7 0 006 7l16.9 1.9c8 1.1 14.1 8 14 16.1v9.4c0 1.2 1 2.3 2.3 2.3s2.3-1 2.3-2.3v-9.4a20.8 20.8 0 00-18.1-20.5zm-4-42a7 7 0 01-1 .8v-8.1c1.4.8 2.4 2.3 2.4 4 0 1.2-.5 2.4-1.4 3.3zm-56.3.8a4.6 4.6 0 010-8.2v8.2zm2.3-22.5H40V51a5 5 0 00-1.3.4l-3.2-9.9c-1.2-4.7 1-9.7 5.4-12l1.7-.9-3.2-9.8h35.3c9 0 14 2.9 16.2 9.4l.3.9 1.4.7c4.1 2.1 6.4 6.7 5.5 11.3l-2 10.1-.8-.3V50L84.8 31.7l-22.6 7.5a90.4 90.4 0 01-19.9 2.2zm30.4 55.4H62.6c-2 0-4-.9-5.3-2.4l-9.9-11.3a11.2 11.2 0 01-2.8-7.8V45.8c4.3-.1 13.6-.5 19.2-2.4l19-6.3 8 14.1v24.2c0 2.9-1 5.6-2.9 7.8L78 94.4a7.3 7.3 0 01-5.3 2.4z" fill="#3d3d3d"/></svg>