<?xml version="1.0" encoding="utf-8"?>
<!-- Generator: Adobe Illustrator 16.0.0, SVG Export Plug-In . SVG Version: 6.00 Build 0)  -->
<!DOCTYPE svg PUBLIC "-//W3C//DTD SVG 1.1//EN" "http://www.w3.org/Graphics/SVG/1.1/DTD/svg11.dtd">
<svg version="1.1" id="Layer_1" xmlns="http://www.w3.org/2000/svg" xmlns:xlink="http://www.w3.org/1999/xlink" x="0px" y="0px"
	 width="298.811px" height="298.708px" viewBox="0 0 298.811 298.708" enable-background="new 0 0 298.811 298.708"
	 xml:space="preserve">
<linearGradient id="SVGID_1_" gradientUnits="userSpaceOnUse" x1="149.405" y1="492.2915" x2="149.405" y2="791.1011" gradientTransform="matrix(1 0 0 1 0 -492.292)">
	<stop  offset="0" style="stop-color:#EFF0F1"/>
	<stop  offset="1" style="stop-color:#C4D3DC"/>
</linearGradient>
<rect x="0" class="no-person-background" fill="url(#SVGID_1_)" width="298.811" height="298.809"/>
<path class="no-person-outline" fill-rule="evenodd" clip-rule="evenodd" fill="#AABFC9" d="M0.002,298.708c0,0,5.958-22.203,11.3-31.335
	c6.456-11.03,15.185-19.22,27.989-22.543c8.025-2.084,15.899-4.752,23.836-7.17c0.913-0.277,1.802-0.637,2.785-0.985
	c-5.275-2.928-10.363-5.469-15.15-8.489c-4.791-3.021-8.745-7.038-12.161-12.104c1.925,0,3.395,0.042,4.861-0.011
	c1.571-0.056,3.154-0.088,4.703-0.323c4.711-0.715,7.352-4.003,7.263-9.044c-7.686-0.101-15.502,0.046-21.97-5.124
	c-6.346-5.074-8.863-12.211-10.601-19.805c5.019,0,9.73,0.213,14.414-0.058c4.761-0.273,9.302-1.621,13.408-4.286
	c-7.105,2.525-14.223,2.424-21.392,0.484c-6.946-1.881-13.41-4.784-19.364-8.44c7.115-0.892,14.169-1.529,21.128-2.716
	c7.864-1.339,15.07-4.366,21.141-9.771c7.083-6.308,8.667-14.766,9.832-23.596c2.067-15.677,3.987-31.404,6.942-46.924
	c3.221-16.91,8.889-33.084,18.852-47.41c9.105-13.09,21.023-22.374,36.689-26.291c4.29-1.073,8.714-1.613,13.076-2.397
	c4.726,0,9.451,0,14.176,0c1.203,0.176,2.402,0.404,3.611,0.521c13.039,1.254,25.383,4.743,36.711,11.463
	c18.139,10.763,29.689,26.985,37.844,45.95c6.109,14.214,9.447,29.186,11.957,44.402c3.787,22.947,6.01,45.945,3.305,69.181
	c-1.475,12.675-4.432,24.981-10.809,36.156c-3,5.258-6.715,10.107-10.191,15.27c6.35,1.761,12.965,3.604,19.586,5.428
	c7.154,1.974,14.346,3.819,21.463,5.917c10.135,2.987,16.92,10.166,22.549,18.639c6.805,10.244,11.026,35.41,11.026,35.41H0.002z"/>
</svg>
