<svg xmlns="http://www.w3.org/2000/svg" viewBox="0 0 135 135"><linearGradient id="a" gradientUnits="userSpaceOnUse" x1="0" y1="0" x2="0" y2="135"><stop offset="0" stop-color="#dfdfdf"/><stop offset="1" stop-color="#c9c9c9"/></linearGradient><path fill="url(#a)" d="M0 0h135v135H0z"/><path d="M116.2 135v-9.4c0-9.3-6.9-17.1-16.1-18.3l-16.8-1.9a4.7 4.7 0 01-4.1-4.7v-9.2l-23.1-.3v9.5c0 2.4-1.8 4.3-4.1 4.6l-16.8 2c-9.2 1.2-16.1 9-16.1 18.3v9.4" fill="#c9c9c9"/><path d="M92.4 51.1a25.3 25.3 0 00-20.5-23.4l-2.2-.3a25.2 25.2 0 00-27.1 22.8l-.5 7.2v6.2l.5 7.2a25 25 0 0027.1 22.8l2.2-.3a25.3 25.3 0 0020.5-23.4l.5-6.3v-6.2l-.5-6.3z" fill="#dfdfdf"/><path d="M100.4 105.1l-16.8-1.9a2.5 2.5 0 01-2.1-2.5V92a27.9 27.9 0 0013.2-21.9l.5-6.3v-6.4l-.5-6.5c-.8-12.6-9.9-23-22.3-25.5l-2.4-.2h-.1A27.4 27.4 0 0040.4 50l-.5 7.2v6.4l.5 7.4c.8 9.2 6.1 16.9 13.5 21.2v8.5c0 1.2-.9 2.2-2.1 2.4l-16.8 2a20.9 20.9 0 00-18.1 20.5v9.4c0 1.2 1 2.3 2.3 2.3s2.3-1 2.3-2.3v-9.4c0-8.1 6.1-15 14.1-16.1l16.8-2a6.8 6.8 0 006.1-6.8v-6.4c2.9 1.1 6 1.6 9.2 1.6l2.3-.1 2.3-.3h.1c1.6-.3 3.1-.8 4.6-1.3v6.5c0 3.5 2.6 6.5 6.1 7l16.8 1.9c8 1.1 14.1 8 14.1 16.1v9.4c0 1.2 1 2.3 2.3 2.3s2.3-1 2.3-2.3v-9.4a21 21 0 00-18.2-20.6zM44.8 70.6l-.5-7.1v-6l.5-7.1a23.2 23.2 0 0124.7-20.8l2.1.3a23 23 0 0118.6 21.3l.5 6.3v6l-.5 6.3a23.3 23.3 0 01-18.7 21.3l-2.1.3a23 23 0 01-24.6-20.8z" fill="#898989"/></svg>