<?xml version="1.0" encoding="utf-8"?>
<!-- Generator: Adobe Illustrator 16.0.0, SVG Export Plug-In . SVG Version: 6.00 Build 0)  -->
<!DOCTYPE svg PUBLIC "-//W3C//DTD SVG 1.1//EN" "http://www.w3.org/Graphics/SVG/1.1/DTD/svg11.dtd">
<svg version="1.1" id="Layer_1" xmlns="http://www.w3.org/2000/svg" xmlns:xlink="http://www.w3.org/1999/xlink" x="0px" y="0px"
	 viewBox="0 0 298.811 298.708" enable-background="new 0 0 298.811 298.708"
	 xml:space="preserve">
<linearGradient id="SVGID_1_" gradientUnits="userSpaceOnUse" x1="149.405" y1="492.2915" x2="149.405" y2="791.1011" gradientTransform="matrix(1 0 0 1 0 -492.292)">
	<stop  offset="0" style="stop-color:#DFDFDF"/>
	<stop  offset="1" style="stop-color:#C9C9C9"/>
</linearGradient>
<rect x="0" fill="url(#SVGID_1_)" width="298.811" height="298.809"/>
<path fill="#ADADAD" d="M298.81,290.709c0,2.662,0,5.324,0,7.992c-94,0.008-188,0.008-282,0.008
	c1.433-0.799,2.822-1.687,4.303-2.381c9.624-4.521,19.438-8.679,28.863-13.576c12.563-6.533,21.683-15.592,19.678-31.433
	c-0.082-0.646,0.107-1.325,0.136-1.989c0.338-8.311,3.894-14.774,11.38-18.561c2.923-1.479,3.909-3.455,3.472-6.354
	c-1.584-10.51-2.79-21.11-5.152-31.445c-0.812-3.549-4.025-7.262-7.167-9.383c-4.017-2.715-5.921-5.814-6.616-10.397
	c-0.461-3.034-1.416-6.168-2.9-8.841c-4.568-8.219-8.255-16.674-9.448-26.101c-1.032-8.165,0.309-11.015,6.604-14.313
	c-1.318-7.542-3.082-14.804-3.786-22.166c-2.094-21.912,1.863-42.443,15.444-60.384c12.986-17.156,31.441-25.729,51.297-31.661
	c9.401-2.808,19.199-4.445,29.063-1.924c6.598,1.686,13.622,2.67,19.573,5.701c13.19,6.717,26.612,13.453,38.485,22.163
	c14.567,10.689,19.121,27.255,20.735,44.667c1.261,13.584-0.06,26.79-5.118,39.481c10.07,4.483,11.801,7.856,9.161,18.266
	c-0.933,3.676-2.439,7.201-3.558,10.834c-2.418,7.873-5.187,15.673-6.988,23.689c-1.54,6.848-1.902,7.717-8.877,7.432
	c-3.54,12.207-7.296,24.396-10.568,36.711c-2.156,8.112-1.997,8.539,5.517,11.889c10.176,4.537,14.219,12.273,13.907,23.031
	c-0.229,8.012,1.308,9.199,8.934,12.11c7.025,2.683,14.175,5.62,20.367,9.786C267.385,282.87,282.492,288.243,298.81,290.709z"/>
</svg>
