<svg xmlns="http://www.w3.org/2000/svg" viewBox="0 0 135 135"><linearGradient id="a" gradientUnits="userSpaceOnUse" x1="0" y1="0" x2="0" y2="135"><stop offset="0" stop-color="#dfdfdf"/><stop offset="1" stop-color="#c9c9c9"/></linearGradient><path fill="url(#a)" d="M0 0h135v135H0z"/><path d="M88.3 56.1H50.1c-6.3 0-11.4-5.1-11.4-11.4v-.1h7.6a5.8 5.8 0 01-5.7-5.7V37h28.6a19 19 0 0119.1 18.9v.2z" fill="#adadad"/><path d="M46.3 56.1v19.1l.5 5.9a20.6 20.6 0 0022.3 18.8l1.8-.2a21 21 0 0017-19.4l.4-5.1V56.1h-42z" fill="#dfdfdf"/><path d="M85.4 107.2l-6.4-2h-.1c-.2-.1-2.1-.7-2.1-4.1v-1.2a23 23 0 0013-18.8h.4a7.8 7.8 0 00.1-15.5V56c-.1-11.7-9.6-21-21.1-21H40.6a2 2 0 00-2 2v1.9c0 1.3.3 2.6.9 3.7h-.8a2 2 0 00-2 2v.1c0 5.3 3.1 9.9 7.6 12.1v8.7a7.8 7.8 0 00-7.6 7.8 7.8 7.8 0 007.7 7.7h.4v.3a22.5 22.5 0 0013.7 18.9v.8c0 3.5-1.9 4.1-2 4.1l-6.6 2c-13.7 3.4-14.3 7.2-14.1 13.8v16.9h4v-17c-.1-5-.2-7 11.1-9.8l6.6-2c.8-.2 4.8-1.7 5-7.6 1.6.3 3.2.5 4.8.5l1.9-.1h.1l1.8-.2h.2l1.5-.4c0 5.1 3.3 7.3 5.1 7.7l6.4 2h.1c11.2 2.8 11.1 4.8 11 9.7v17.1h4v-17c.2-6.3-.4-10.2-14-13.5zm8.5-33.9c0 2-1.7 3.7-3.7 3.7l.1-1.6v-5.9c2 .1 3.6 1.7 3.6 3.8zm-53-26.7h5.4c1.1 0 2-.9 2-2s-.9-2-2-2c-2 0-3.6-1.6-3.7-3.6h26.6a17 17 0 0117 15.1H50.1a9.4 9.4 0 01-9.2-7.5zM44.4 77a3.7 3.7 0 01-3.7-3.7c0-2 1.6-3.7 3.6-3.8v5.9l.1 1.6zm26.2 20.7l-1.7.2a18.4 18.4 0 01-20.1-17l-.5-5.8v-17h38v17l-.4 5.1a19 19 0 01-15.3 17.5z" fill="#3d3d3d"/></svg>