<svg xmlns="http://www.w3.org/2000/svg" viewBox="0 0 135 135"><linearGradient id="a" gradientUnits="userSpaceOnUse" x1="0" y1="0" x2="0" y2="135"><stop offset="0" stop-color="#dfdfdf"/><stop offset="1" stop-color="#c9c9c9"/></linearGradient><path fill="url(#a)" d="M0 0h135v135H0z"/><path d="M41 136.6h-4V120c-.2-6.2.4-10.1 13.7-13.4l6.4-1.9c.2 0 2-.7 1.9-4v-4.2h4v4.2c.1 5.3-3.2 7.5-5 7.9l-6.3 1.9c-10.9 2.7-10.8 4.7-10.7 9.4v16.7zm58 0h-4v-16.7c.1-4.8.2-6.8-10.7-9.4h-.1l-6.2-1.9c-1.8-.4-5.1-2.6-5-8v-4.3h4v4.3c-.1 3.5 1.9 4 1.9 4h.1l6.3 1.9c13.3 3.3 13.9 7.2 13.7 13.4v16.7z" fill="#898989"/><path d="M89 63v15.4a21 21 0 01-20.9 21.1h-.2a21 21 0 01-21.1-20.9V63a21 21 0 0121.1-21.1A21 21 0 0189 63z" fill="#dfdfdf"/><path d="M67.8 101.8a23 23 0 01-23.2-23.1V63a23.3 23.3 0 1146.7 0v15.4a23 23 0 01-23.1 23.4h-.4zm.1-57.7A19 19 0 0049 63v15.6c0 5 2 9.7 5.6 13.2 3.5 3.5 8.2 5.4 13.2 5.4h.3c5 0 9.7-2 13.2-5.6 3.5-3.6 5.5-8.3 5.4-13.3V63a18.8 18.8 0 00-18.8-18.9z" fill="#898989"/></svg>