<svg xmlns="http://www.w3.org/2000/svg" viewBox="0 0 135 135"><linearGradient id="a" gradientUnits="userSpaceOnUse" x1="0" y1="0" x2="0" y2="135"><stop offset="0" stop-color="#dfdfdf"/><stop offset="1" stop-color="#c9c9c9"/></linearGradient><path fill="url(#a)" d="M0 0h135v135H0z"/><path d="M100 55.7l.4-2.8c1.2-7.2.2-14.5-2.7-21.2a17.5 17.5 0 00-16.1-10.5l-6.9-2.7a17.5 17.5 0 00-14.5-.6 39.3 39.3 0 00-25.1 39.3c.3 6.5-.9 13-3.6 19a30.8 30.8 0 003 30.7l1.1 1.6S44.8 120 70.1 120s32.4-17.6 32.4-17.6c2.8-6.4 3-13.7.5-20.2-2-5.4-3.1-11.1-3-16.9v-.4" fill="#adadad"/><path d="M70.1 122.3c-26.1 0-35.9-11.8-36.3-12.3l-.1-.1-1.1-1.6a33.2 33.2 0 01-3.2-32.9 39.6 39.6 0 003.4-18 41.4 41.4 0 0126.5-41.5 19.9 19.9 0 0116.2.6L82 19a20 20 0 0117.7 11.8 40.3 40.3 0 012.9 22.5l-.4 2.8-4.5-.6.4-2.8a36 36 0 00-2.5-20c-2.5-5.5-8-9.1-14.1-9.2l-.8-.2-6.9-2.7-.2-.1A15 15 0 0061 20a37 37 0 00-23.7 37.1c.3 6.9-1 13.8-3.8 20.1a28.6 28.6 0 002.8 28.5l1.1 1.5c.6.7 9.7 10.6 32.7 10.6 23.4 0 30-15.5 30.3-16.2 2.6-6 2.8-12.5.5-18.6a46.5 46.5 0 01-3.1-17.7v-.4h4.5v.4c-.1 5.5.9 10.9 2.9 16.1a29.1 29.1 0 01-.5 21.9c-.4.7-8.1 19-34.6 19z" fill="#3d3d3d"/><path d="M116 135v-9.4c0-9.3-6.8-17.1-16-18.3l-16.9-1.9a4.6 4.6 0 01-4-4.7v-9.2l-23.2-.3v9.5c0 2.3-1.7 4.3-4 4.6l-16.9 2c-9.2 1.2-16 9-16 18.3v9.4" fill="#c9c9c9"/><path d="M118.3 135h-4.5v-9.4c0-8.1-6-15-14-16.1l-16.9-1.9a7 7 0 01-6-7v-6.9l-18.7-.2v7.2c0 3.4-2.5 6.4-6 6.8l-16.9 2c-8 1.1-14 8-14 16.1v9.4h-4.5v-9.4c0-10.4 7.7-19.2 18-20.5l16.9-2c1.1-.2 2-1.2 2-2.3V88.9l27.7.4v11.4c0 1.3.8 2.3 2 2.5l16.9 1.9a20.8 20.8 0 0118 20.5v9.4z" fill="#3d3d3d"/><path d="M94.4 53.4h-2.3v13.7h2.3c3.7.1 6.7-2.9 6.8-6.6v-.2a6.7 6.7 0 00-6.7-6.9h-.1z" fill="#c9c9c9"/><path d="M94.5 69.4h-2.4c-1.2 0-2.3-1-2.3-2.3V53.4c0-1.2 1-2.3 2.3-2.3h2.4a9 9 0 018.9 9.2v.2c0 2.4-1 4.6-2.7 6.3a8.5 8.5 0 01-6.2 2.6zm-.2-4.5c1.3 0 2.4-.4 3.3-1.3.9-.8 1.3-1.9 1.4-3.1v-.1c0-2.6-2-4.6-4.5-4.7l-.1-2.3v2.3h-.1v9.2z" fill="#3d3d3d"/><path d="M93.1 53.4c-9.2-4.6-11.5-20.7-11.5-20.7L74.7 35s-2.3-9.2-9.2-6.9c-9 3-2.3 13.8-11.5 20.7a83.4 83.4 0 01-11.5 6.9l1.3 16a24 24 0 0048 0l1.3-18.3z" fill="#dfdfdf"/><path d="M67.7 97a26 26 0 01-26.1-25.2l-1.3-15.9c-.1-.9.4-1.8 1.3-2.2A79 79 0 0052.8 47c3.8-2.8 4.3-6.4 4.9-10.2.6-4.2 1.4-8.9 7.2-10.8 2.3-.8 4.6-.6 6.5.5 2.5 1.4 4 3.9 4.8 5.7l4.8-1.6c.6-.2 1.3-.1 1.9.2.6.4 1 .9 1 1.6 0 .1 2.3 15 10.3 19 .8.4 1.3 1.3 1.2 2.2L94 71.9c-.6 14-12.2 25-26.2 25.1h-.1zM44.9 57L46 71.5a21.5 21.5 0 0021.6 20.9h.1c11.7 0 21.2-9.2 21.8-20.9l1.2-16.9c-6.9-4.4-9.8-14.3-10.9-19l-4.5 1.5c-.6.2-1.2.1-1.8-.2-.5-.3-.9-.8-1.1-1.4-.3-1.1-1.4-4.1-3.4-5.2-.9-.5-1.8-.5-2.9-.1-3.1 1-3.6 3.1-4.2 7.2-.6 4.1-1.4 9.2-6.7 13.1A61.5 61.5 0 0144.9 57z" fill="#3d3d3d"/></svg>