<?xml version="1.0" encoding="utf-8"?>
<!-- Generator: Adobe Illustrator 16.0.0, SVG Export Plug-In . SVG Version: 6.00 Build 0)  -->
<!DOCTYPE svg PUBLIC "-//W3C//DTD SVG 1.1//EN" "http://www.w3.org/Graphics/SVG/1.1/DTD/svg11.dtd">
<svg version="1.1" id="Layer_1" xmlns="http://www.w3.org/2000/svg" xmlns:xlink="http://www.w3.org/1999/xlink" x="0px" y="0px"
	 width="298.81px" height="298.708px" viewBox="0 0 298.81 298.708" enable-background="new 0 0 298.81 298.708"
	 xml:space="preserve">
<linearGradient id="SVGID_1_" gradientUnits="userSpaceOnUse" x1="149.4048" y1="0" x2="149.4048" y2="298.8096">
	<stop  offset="0" style="stop-color:#E6E7E8"/>
	<stop  offset="0.1313" style="stop-color:#CBCDCF"/>
	<stop  offset="0.2964" style="stop-color:#AFB1B3"/>
	<stop  offset="0.4651" style="stop-color:#9A9C9F"/>
	<stop  offset="0.6365" style="stop-color:#8B8D90"/>
	<stop  offset="0.8125" style="stop-color:#838587"/>
	<stop  offset="1" style="stop-color:#808285"/>
</linearGradient>
<rect fill="url(#SVGID_1_)" width="298.81" height="298.809"/>
<path fill="#58595B" d="M298.81,290.709c0,2.662,0,5.324,0,7.993c-94,0.007-188,0.007-282,0.007c1.432-0.798,2.823-1.685,4.303-2.38
	c9.624-4.522,19.437-8.678,28.863-13.577c12.564-6.532,21.682-15.592,19.678-31.431c-0.082-0.647,0.107-1.326,0.135-1.991
	c0.338-8.309,3.893-14.774,11.38-18.559c2.923-1.477,3.909-3.455,3.471-6.355c-1.584-10.509-2.79-21.11-5.152-31.445
	c-0.811-3.548-4.026-7.261-7.167-9.383c-4.017-2.714-5.921-5.814-6.617-10.397c-0.461-3.034-1.416-6.168-2.901-8.841
	c-4.568-8.218-8.254-16.674-9.448-26.101c-1.033-8.165,0.308-11.015,6.604-14.313c-1.319-7.542-3.082-14.804-3.786-22.166
	c-2.094-21.912,1.863-42.443,15.444-60.384c12.987-17.156,31.442-25.731,51.297-31.661c9.402-2.808,19.199-4.445,29.062-1.924
	c6.597,1.686,13.622,2.67,19.574,5.701c13.19,6.717,26.612,13.453,38.485,22.163c14.568,10.689,19.121,27.255,20.736,44.667
	c1.26,13.584-0.059,26.79-5.118,39.481c10.07,4.483,11.8,7.856,9.161,18.266c-0.932,3.676-2.44,7.201-3.557,10.834
	c-2.418,7.873-5.186,15.674-6.989,23.689c-1.54,6.847-1.903,7.717-8.877,7.432c-3.54,12.206-7.296,24.395-10.569,36.711
	c-2.156,8.112-1.997,8.538,5.517,11.888c10.175,4.537,14.218,12.273,13.907,23.031c-0.23,8.013,1.307,9.2,8.933,12.111
	c7.026,2.682,14.175,5.62,20.368,9.786C267.386,282.87,282.492,288.242,298.81,290.709z"/>
</svg>
