<?xml version="1.0" encoding="utf-8"?>
<!-- Generator: Adobe Illustrator 18.0.0, SVG Export Plug-In . SVG Version: 6.00 Build 0)  -->
<!DOCTYPE svg PUBLIC "-//W3C//DTD SVG 1.1//EN" "http://www.w3.org/Graphics/SVG/1.1/DTD/svg11.dtd">
<svg version="1.1" id="Layer_1" xmlns="http://www.w3.org/2000/svg" xmlns:xlink="http://www.w3.org/1999/xlink" x="0px" y="0px"
	  viewBox="0 0 298.8 298.7" enable-background="new 0 0 298.8 298.7" xml:space="preserve">
<linearGradient id="SVGID_1_" gradientUnits="userSpaceOnUse" x1="149.4055" y1="984.584" x2="149.4055" y2="1283.3929" gradientTransform="matrix(1 0 0 1 0 -984.584)">
	<stop  offset="0" style="stop-color:#DFDFDF"/>
	<stop  offset="1" style="stop-color:#C9C9C9"/>
</linearGradient>
<rect x="0" y="0" fill="url(#SVGID_1_)" width="298.8" height="298.8"/>
<path fill="#ADADAD" d="M278.5,205.9c-0.9,0.4-1.8,0.9-2.7,1.4c-0.2,0.1-0.4,0.2-0.6,0.3c-1.8,0.4-3.5,1-5.4,1.3
	c-2.6,0.4-5.3,0.7-7.9,0.3c-2.1-0.4-4.1-0.5-6.2-1.2c-2.2-0.8-4.4-1.7-6.2-3.1c-1.1-0.8-2-1.9-2.9-3c-0.6-0.8-1.1-1.8-1.6-2.7
	c-0.1-0.1-0.1-0.3-0.2-0.5c-0.4-3.1-1.2-6.1-0.9-9.2c0.1-1.2,0.3-2.4,0.4-3.5c0.1-0.7,0.2-1.5,0.3-2.2c0.2-1,0.5-2,0.8-3
	c0.4-1.5,0.9-3,1.4-4.5c0.4-1,0.8-1.9,1.3-2.9c0.8-1.8,1.7-3.5,2.5-5.3c0.4-0.7,0.8-1.4,1.1-2.2c0.7-1.2,1.3-2.5,2-3.7
	c0.8-1.5,1.7-3,2.5-4.5c0.5-0.9,0.8-1.8,1.2-2.6c0.6-1.2,1.1-2.3,1.7-3.5c0.4-0.9,0.8-1.8,1.1-2.7c0.4-1.2,0.8-2.5,1.2-3.7
	c0.1-0.4,0.3-0.8,0.5-1.3c0.1-0.3,0.3-0.6,0.4-1c0.5-2.4,0.9-4.8,1.4-7.2c1.1-5,0.8-10,0.6-15.1c0-1.2-0.3-2.4-0.5-3.6
	c-0.1-0.7-0.2-1.4-0.4-2.1c-0.5-2-1.1-4-1.7-6c-0.1-0.4-0.2-0.9-0.4-1.3c-0.4-1.1-0.9-2.2-1.4-3.3c-0.5-1.1-1-2.2-1.6-3.2
	c-0.4-0.7-0.8-1.5-1.3-2.2c-0.6-0.9-1.1-1.8-1.8-2.7c-0.7-1-1.4-2-2.2-2.9c-1.5-1.8-3-3.5-4.7-5.2c-1.3-1.3-2.7-2.5-4.1-3.6
	c-1.7-1.3-3.5-2.6-5.2-3.8c-0.8-0.5-1.7-1-2.5-1.4c-0.8-0.5-1.7-0.9-2.5-1.4c-0.1,0-0.1-0.1-0.2-0.1c-2-0.8-3.9-1.6-5.9-2.4
	c-1.5-0.6-3-1-4.4-1.5c-0.1,0-0.2-0.1-0.3-0.1c-1.4-0.3-2.8-0.7-4.2-0.8c-2.6-0.3-5.2-0.5-7.6-0.7c-1.6,0.1-3.2,0.2-4.7,0.4
	c-0.6-1.1-1.3-2.3-2-3.4c-4.6-7.5-10.6-13.6-18.4-17.8c-4-2.1-8.1-3.9-12.4-5.2c-7.3-2.3-12.5-3.8-20.1-4.5
	c-2.7-0.2-6.8,1.6-6.8,1.6s-4.5-2.2-7.9-1.5c-9.5,2-21.8,5.8-29,12.3c-1.2,1-10.3,8.1-12.2,9.4c-3,2.1-4.1,3.4-6.5,6.1
	c-0.9,1-1.9,2.1-2.7,3.2c-0.2,0-0.4-0.1-0.5-0.1c-2.2-0.3-4.5-0.4-7-0.6c-2.4,0.2-5,0.4-7.6,0.7c-1.4,0.2-2.8,0.6-4.2,0.8
	c-0.1,0-0.2,0.1-0.3,0.1c-1.5,0.5-3,1-4.4,1.5c-2,0.8-4,1.6-5.9,2.4c-0.1,0-0.1,0.1-0.2,0.1c-0.8,0.5-1.6,0.9-2.5,1.4
	c-0.8,0.5-1.7,0.9-2.5,1.4c-1.8,1.2-3.5,2.5-5.2,3.8c-1.4,1.1-2.8,2.3-4.1,3.6c-1.6,1.6-3.2,3.4-4.7,5.2C38.5,94,37.8,95,37.1,96
	c-0.6,0.9-1.2,1.8-1.8,2.7c-0.4,0.7-0.9,1.4-1.3,2.2c-0.5,1.1-1.1,2.2-1.6,3.2c-0.5,1.1-1,2.2-1.4,3.3c-0.2,0.4-0.2,0.9-0.4,1.3
	c-0.6,2-1.1,4-1.7,6c-0.2,0.7-0.3,1.4-0.4,2.1c-0.2,1.2-0.5,2.4-0.5,3.6c-0.2,5-0.5,10.1,0.6,15.1c0.5,2.4,0.9,4.8,1.4,7.2
	c0.1,0.3,0.2,0.7,0.4,1c0.2,0.4,0.3,0.8,0.5,1.3c0.4,1.2,0.8,2.5,1.2,3.7c0.3,0.9,0.7,1.8,1.1,2.7c0.5,1.2,1.1,2.3,1.7,3.5
	c0.4,0.9,0.8,1.8,1.2,2.6c0.8,1.5,1.7,3,2.5,4.5c0.7,1.2,1.3,2.5,2,3.7c0.4,0.7,0.8,1.4,1.1,2.2c0.9,1.8,1.7,3.5,2.5,5.3
	c0.4,1,0.9,1.9,1.3,2.9c0.5,1.5,1,3,1.4,4.5c0.3,1,0.6,2,0.8,3c0.2,0.7,0.2,1.5,0.3,2.2c0.2,1.2,0.3,2.3,0.4,3.5
	c0.3,3.1-0.5,6.2-0.9,9.2c0,0.2-0.1,0.3-0.2,0.5c-0.5,0.9-0.9,1.9-1.6,2.7c-0.9,1.1-1.8,2.2-2.9,3c-1.9,1.4-4,2.3-6.2,3.1
	c-2,0.7-4.1,0.9-6.2,1.2c-2.6,0.5-5.3,0.1-7.9-0.3c-1.9-0.2-3.6-0.9-5.4-1.3c-0.2,0-0.4-0.2-0.6-0.3c-0.9-0.5-1.8-0.9-2.7-1.4
	c-0.1-0.1-0.3,0-0.5,0c0,0.2,0,0.4,0.1,0.5c0.1,0.2,0.3,0.3,0.4,0.5c0.9,1.1,1.7,2.3,2.7,3.4c1.2,1.3,2.6,2.5,4,3.7
	c0.9,0.8,1.9,1.6,3,2.3c0.8,0.5,1.6,1,2.5,1.4c1.1,0.6,2.3,1.2,3.4,1.7c1.4,0.6,2.9,1.2,4.4,1.6c1.6,0.4,3.3,0.8,5,1
	c3.3,0.4,6.6,0.4,9.9-0.4c1.5-0.4,3.2-0.4,4.6-1.1c0.1,0,0.2,0,0.2,0c1.4-0.5,2.8-0.9,4.1-1.5c0.7-0.3,1.3-0.6,1.9-0.9
	c1.4-0.8,2.7-1.6,4-2.5c1.5-1.1,3-2.2,4.4-3.5c2-1.7,3.5-3.8,5.1-5.9c0.8-1.1,1.4-2.2,2.1-3.3c0.5-0.9,1-1.9,1.5-2.9
	c0.5-1.1,1-2.1,1.4-3.2c0.6-1.9,0.9-3.8,1.5-5.7c1-3.5,0.8-7.1,0.3-10.6c-0.4-2.4-0.6-4.9-1.4-7.3c-0.6-2.2-0.9-4.4-1.3-6.6
	c-0.3-1.3-0.6-2.7-0.9-4c-0.1-0.5-0.2-1-0.3-1.4c-0.4-1.9-0.9-3.8-1.4-5.8c-0.4-1.7-0.7-3.5-1-5.2c-0.3-1.7-0.5-3.4-0.7-5.1
	c-0.2-1.3-0.4-2.6-0.5-3.9c-0.1-1.1-0.1-2.1-0.2-3.2c0,0,0-0.1,0-0.1c1.4,5.2,3.4,10.3,6.2,15.2c1.8,3.2,4,5.9,6.8,8.3
	c2.6,2.3,5.6,4.2,8.7,5.8c1,0.5,1.7,1.2,2.2,2.2c0.9,1.8,1.8,3.7,3.5,5c0.4,0.3,0.6,0.9,0.7,1.4c1.1,3,2.2,6,3.4,9
	c2.8,7.1,5.9,13.9,10.8,19.8c0.2,0.3,0.4,0.6,0.4,1c0.1,0.9,0.2,1.9,0.1,2.8c-0.2,4.2-0.4,8.3-0.8,12.5c-0.4,4-1.2,7.8-2.8,11.5
	c-1.5,3.5-4,6.2-7.5,7.9c-1.6,0.7-3.2,1.4-4.8,2c-3.7,1.3-7.5,2.4-11.3,3.7c-5.3,1.9-30,10-35.8,12.7c-6.6,3.1-11.1,8.1-13.4,14.9
	c-3.7,10.8-6.9,21.8-8.3,33.1l240,0c0.2-2.3-0.3-4.5-1.4-6.6c-0.4-0.7-0.7-1.5-0.9-2.3c-1.7-8.1-4.1-16-6.8-23.8
	c-1.2-3.3-2.9-6.3-5.3-8.9c-2.9-3.1-6.4-5.2-10.2-6.8c-4.7-2-29.7-9.4-34-11c-0.5-0.2-13.3-5-13.5-4.5c-6.5-1.8-11.1-5.3-13.2-11.8
	c-1.6-4.9-2.3-9.9-2.5-14.9c-0.2-3.5-0.2-7.1-0.3-10.6c0-0.7,0.1-1.3,0.6-1.9c2.9-3.8,5.3-7.9,7.2-12.3c4.5-4.5,15.2-15.2,18.6-18.7
	c3.8-4.7,6.7-9.8,8.9-15.3c-0.3,1.3-0.6,2.5-0.9,3.8c-0.1,0.5-0.2,1-0.3,1.4c-0.3,1.3-0.6,2.7-0.9,4c-0.5,2.2-0.7,4.5-1.3,6.6
	c-0.7,2.4-1,4.9-1.4,7.3c-0.6,3.5-0.7,7.1,0.3,10.6c0.5,1.9,0.9,3.8,1.5,5.7c0.3,1.1,0.9,2.2,1.4,3.2c0.5,1,0.9,1.9,1.5,2.9
	c0.7,1.1,1.3,2.3,2.1,3.3c1.5,2.1,3.1,4.2,5.1,5.9c1.4,1.2,2.9,2.4,4.4,3.5c1.3,0.9,2.7,1.7,4,2.5c0.6,0.4,1.3,0.7,1.9,0.9
	c1.4,0.5,2.8,1,4.1,1.5c0.1,0,0.2,0,0.2,0c1.4,0.8,3.1,0.8,4.6,1.1c3.3,0.8,6.6,0.8,9.9,0.4c1.7-0.2,3.4-0.5,5-1
	c1.5-0.4,3-1,4.4-1.6c1.2-0.5,2.3-1.1,3.4-1.7c0.8-0.4,1.7-0.9,2.5-1.4c1-0.7,2-1.4,3-2.3c1.4-1.2,2.7-2.4,4-3.7
	c1-1,1.8-2.2,2.7-3.4c0.1-0.2,0.3-0.3,0.4-0.5c0.1-0.2,0.1-0.4,0.1-0.5C278.8,205.9,278.6,205.8,278.5,205.9z"/>
</svg>
