<?xml version="1.0" encoding="utf-8"?>
<!-- Generator: Adobe Illustrator 18.0.0, SVG Export Plug-In . SVG Version: 6.00 Build 0)  -->
<!DOCTYPE svg PUBLIC "-//W3C//DTD SVG 1.1//EN" "http://www.w3.org/Graphics/SVG/1.1/DTD/svg11.dtd">
<svg version="1.1" id="Layer_1" xmlns="http://www.w3.org/2000/svg" xmlns:xlink="http://www.w3.org/1999/xlink" x="0px" y="0px"
	 viewBox="0 0 298.8 298.7" enable-background="new 0 0 298.8 298.7" xml:space="preserve">
<linearGradient id="SVGID_1_" gradientUnits="userSpaceOnUse" x1="149.4055" y1="984.584" x2="149.4055" y2="1283.3929" gradientTransform="matrix(1 0 0 1 0 -984.584)">
	<stop  offset="0" style="stop-color:#DFDFDF"/>
	<stop  offset="1" style="stop-color:#C9C9C9"/>
</linearGradient>
<rect x="0" y="0" fill="url(#SVGID_1_)" width="298.8" height="298.8"/>
<path fill="#ACACAC" d="M290.9,297.6c0.7-11.8,0.1-17.8-2.1-30.4c-2.1-12.2-26.1-24.4-40.6-31.4c-14.5-7.1-41-13.4-48.4-17.3
	c-7.4-3.9-19.7-16.8-12.7-24.4c7-7.5,32.9-39.9,32.9-40.9c0-1.1,7.8-18.4,12.7-36.4c4.9-18-8.5-34.2-14.1-46.9
	C213,57.2,175.2,42.1,159,38.5c-16.2-3.5-43.8-1.4-48.4,2.1c-4.6,3.5-36.7,49.4-36.7,49.4s-2.5,0-15.9,1.1
	c-13.4,1.1-37.1-6.7-33.5,19.5c1.6,11.6,45.2,28.2,45.2,28.2s0.4,3.9,1.8,15.5c1.4,11.7,9.7,16.9,9.7,16.9s3.2,6.4,3.2,16.2
	c0,9.9,3.1,14.8,5.2,19.8c2.1,4.9,19.6,14.5,19.6,14.5s-33.5,9.2-40.9,12.7c-7.4,3.5-14.4,7.7-24.4,10.2c-25.1,6.4-29.7,49-34.6,56"
	/>
</svg>
