<svg xmlns="http://www.w3.org/2000/svg" xmlns:xlink="http://www.w3.org/1999/xlink" version="1.1" id="Layer_1" x="0px" y="0px" width="60.185px" height="60.063px" viewBox="0 0 60.185 60.063" enable-background="new 0 0 60.185 60.063" xml:space="preserve">
<path class="rock-logo" fill="#FFFFFF" d="M57.705 60.063L41.387 40.936c0 0 11.83-0.026 11.928-0.028c1.313 0.1 2.654-0.351 3.736-1.259 c2.33-1.948 2.643-5.414 0.693-7.752L32.396 2.151c-0.242-0.319-0.516-0.62-0.836-0.891c-0.039-0.029-0.084-0.051-0.121-0.082 c-0.012-0.01-0.027-0.018-0.039-0.025c-0.279-0.216-0.566-0.405-0.867-0.563c-0.018-0.009-0.039-0.014-0.059-0.021 c-0.301-0.151-0.609-0.276-0.922-0.366c-0.057-0.013-0.119-0.025-0.178-0.039c-0.277-0.063-0.557-0.129-0.84-0.15 c-0.172-0.021-0.346-0.008-0.516-0.008c-0.172 0-0.34-0.014-0.514 0.008c-0.281 0.021-0.559 0.087-0.84 0.1 c-0.059 0.014-0.115 0.026-0.174 0.039c-0.318 0.09-0.625 0.215-0.924 0.366c-0.021 0.009-0.039 0.014-0.057 0 c-0.305 0.156-0.598 0.347-0.869 0.563c-0.018 0.009-0.025 0.017-0.037 0.025c-0.039 0.031-0.084 0.053-0.123 0.1 c-0.32 0.271-0.594 0.57-0.84 0.885L0 29.86h14.461l13.557-15.891l13.604 15.967l-12.104 0.008c-0.045 0-0.088 0.013-0.133 0 c-0.287 0-0.578 0.026-0.865 0.071c-0.082 0.017-0.166 0.035-0.244 0.054c-0.26 0.053-0.52 0.132-0.775 0.2 c-0.094 0.034-0.182 0.072-0.266 0.117c-0.232 0.098-0.455 0.213-0.672 0.352c-0.096 0.062-0.193 0.131-0.285 0.2 c-0.117 0.081-0.238 0.143-0.346 0.229c-0.076 0.067-0.137 0.147-0.211 0.221c-0.088 0.082-0.174 0.172-0.258 0.3 c-0.166 0.171-0.318 0.351-0.453 0.531c-0.068 0.105-0.131 0.205-0.195 0.308c-0.127 0.198-0.236 0.396-0.332 0.6 c-0.059 0.126-0.107 0.255-0.156 0.384c-0.072 0.199-0.145 0.398-0.191 0.605c-0.037 0.145-0.063 0.301-0.084 0.5 c-0.035 0.202-0.059 0.403-0.07 0.606c-0.006 0.074-0.023 0.137-0.023 0.209c0 0.1 0 0.2 0 0.3 c0.012 0.2 0 0.4 0.1 0.557c0.025 0.2 0.1 0.4 0.1 0.555c0.039 0.2 0.1 0.3 0.1 0.5 c0.072 0.2 0.2 0.4 0.2 0.588c0.061 0.1 0.1 0.2 0.2 0.35c0.123 0.2 0.3 0.4 0.4 0.6 c0.045 0.1 0.1 0.1 0.1 0.168l18.004 21.104h14.459V60.063z"/>
</svg>
