<?xml version="1.0" encoding="utf-8"?>
<!-- Generator: Adobe Illustrator 22.0.0, SVG Export Plug-In . SVG Version: 6.00 Build 0)  -->
<svg version="1.1" id="Layer_1" xmlns="http://www.w3.org/2000/svg" xmlns:xlink="http://www.w3.org/1999/xlink" x="0px" y="0px"
	 viewBox="0 0 399.8 400" style="enable-background:new 0 0 399.8 400;" xml:space="preserve">
<style type="text/css">
	.st0{fill:#FFFFFF;}
</style>
<title>Artboard 1</title>
<g id="Layer_2_1_">
	<path class="st0" d="M200,0C89.5,0,0,89.5,0,200s89.5,200,200,200s200-89.5,200-200S310.5,0,200,0z M327,338.3h-72.6l-90.3-105.9
		c-0.2-0.3-0.4-0.6-0.6-0.9c-0.7-1-1.4-2-2-3c-0.3-0.6-0.6-1.1-0.9-1.8c-0.5-1-0.9-1.9-1.2-2.9c-0.3-0.8-0.5-1.5-0.7-2.3
		c-0.2-0.9-0.4-1.8-0.6-2.8s-0.2-1.9-0.3-2.8c0-0.5-0.1-1-0.1-1.5s0.1-0.7,0.1-1.1c0.1-1,0.2-2,0.4-3c0.1-0.8,0.2-1.5,0.4-2.3
		c0.3-1,0.6-2,1-3c0.2-0.6,0.5-1.3,0.8-1.9c0.5-1,1-2,1.7-3c0.3-0.5,0.6-1,1-1.5c0.7-0.9,1.5-1.8,2.3-2.7c0.4-0.5,0.9-0.9,1.3-1.3
		s0.7-0.8,1.1-1.1c0.5-0.4,1.1-0.7,1.7-1.1s1-0.7,1.4-1c1.1-0.7,2.2-1.3,3.4-1.8c0.4-0.2,0.9-0.4,1.3-0.6c1.3-0.5,2.6-0.9,3.9-1.1
		l1.2-0.3c1.4-0.2,2.9-0.3,4.3-0.4c0.2,0,0.4-0.1,0.7-0.1h60.7L178,107.1l-68,79.7H37.5l118.6-139c1.2-1.6,2.7-3.1,4.2-4.4
		c0.2-0.2,0.4-0.3,0.6-0.4c0.1-0.1,0.1-0.1,0.2-0.1c1.4-1.1,2.8-2,4.3-2.8l0.3-0.1c1.5-0.8,3-1.4,4.6-1.9l0.9-0.2
		c1.4-0.4,2.8-0.6,4.2-0.8c0.8-0.1,1.7-0.1,2.6-0.1c0.9-0.1,1.7-0.1,2.6,0c1.4,0.1,2.8,0.4,4.2,0.8l0.9,0.2c1.6,0.5,3.1,1.1,4.6,1.8
		c0.1,0,0.2,0.1,0.3,0.1c1.6,0.8,3,1.8,4.4,2.9c0.1,0,0.1,0.1,0.2,0.1c0.2,0.2,0.4,0.3,0.6,0.4c1.6,1.3,3,2.8,4.2,4.5L327.2,197
		c9.8,11.6,8.3,29-3.3,38.8c-5.3,4.4-12,6.7-18.9,6.4l-59.8,0.1L327,338.3z"/>
</g>
</svg>
