<svg xmlns="http://www.w3.org/2000/svg" viewBox="0 0 399.8 400">

<path class="rock-logo" d="M200 0C89.5 0 0 89.5 0 200s89.5 200 200 200 200-89.5 200-200S310.5 0 200 0zM327 338.3h-72.6l-90.3-105.9c-0.2-0.3-0.4-0.6-0.6-0.9 -0.7-1-1.4-2-2-3 -0.3-0.6-0.6-1.1-0.9-1.8 -0.5-1-0.9-1.9-1.2-2.9 -0.3-0.8-0.5-1.5-0.7-2.3 -0.2-0.9-0.4-1.8-0.6-2.8s-0.2-1.9-0.3-2.8c0-0.5-0.1-1-0.1-1.5s0.1-0.7 0.1-1.1c0.1-1 0.2-2 0.4-3 0.1-0.8 0.2-1.5 0.4-2.3 0.3-1 0.6-2 1-3 0.2-0.6 0.5-1.3 0.8-1.9 0.5-1 1-2 1.7-3 0.3-0.5 0.6-1 1-1.5 0.7-0.9 1.5-1.8 2.3-2.7 0.4-0.5 0.9-0.9 1.3-1.3s0.7-0.8 1.1-1.1c0.5-0.4 1.1-0.7 1.7-1.1s1-0.7 1.4-1c1.1-0.7 2.2-1.3 3.4-1.8 0.4-0.2 0.9-0.4 1.3-0.6 1.3-0.5 2.6-0.9 3.9-1.1l1.2-0.3c1.4-0.2 2.9-0.3 4.3-0.4 0.2 0 0.4-0.1 0.7-0.1h60.7L178 107.1l-68 79.7H37.5l118.6-139c1.2-1.6 2.7-3.1 4.2-4.4 0.2-0.2 0.4-0.3 0.6-0.4 0.1-0.1 0.1-0.1 0.2-0.1 1.4-1.1 2.8-2 4.3-2.8l0.3-0.1c1.5-0.8 3-1.4 4.6-1.9l0.9-0.2c1.4-0.4 2.8-0.6 4.2-0.8 0.8-0.1 1.7-0.1 2.6-0.1 0.9-0.1 1.7-0.1 2.6 0 1.4 0.1 2.8 0.4 4.2 0.8l0.9 0.2c1.6 0.5 3.1 1.1 4.6 1.8 0.1 0 0.2 0.1 0.3 0.1 1.6 0.8 3 1.8 4.4 2.9 0.1 0 0.1 0.1 0.2 0.1 0.2 0.2 0.4 0.3 0.6 0.4 1.6 1.3 3 2.8 4.2 4.5L327.2 197c9.8 11.6 8.3 29-3.3 38.8 -5.3 4.4-12 6.7-18.9 6.4l-59.8 0.1L327 338.3z"/></svg>