<svg xmlns="http://www.w3.org/2000/svg" viewBox="0 0 399.8 400"><path class="rock-logo" d="M200 0C89.5 0 0 89.5 0 200s89.5 200 200 200 200-89.5 200-200S310.5 0 200 0zm127 338.3h-72.6l-90.3-105.9-.6-.9c-.7-1-1.4-2-2-3-.3-.6-.6-1.1-.9-1.8-.5-1-.9-1.9-1.2-2.9-.3-.8-.5-1.5-.7-2.3-.2-.9-.4-1.8-.6-2.8s-.2-1.9-.3-2.8c0-.5-.1-1-.1-1.5s.1-.7.1-1.1c.1-1 .2-2 .4-3 .1-.8.2-1.5.4-2.3.3-1 .6-2 1-3 .2-.6.5-1.3.8-1.9.5-1 1-2 1.7-3 .3-.5.6-1 1-1.5.7-.9 1.5-1.8 2.3-2.7.4-.5.9-.9 1.3-1.3s.7-.8 1.1-1.1c.5-.4 1.1-.7 1.7-1.1s1-.7 1.4-1c1.1-.7 2.2-1.3 3.4-1.8.4-.2.9-.4 1.3-.6 1.3-.5 2.6-.9 3.9-1.1l1.2-.3c1.4-.2 2.9-.3 4.3-.4.2 0 .4-.1.7-.1h60.7l-68.4-80-68 79.7H37.5l118.6-139c1.2-1.6 2.7-3.1 4.2-4.4.2-.2.4-.3.6-.4.1-.1.1-.1.2-.1 1.4-1.1 2.8-2 4.3-2.8l.3-.1c1.5-.8 3-1.4 4.6-1.9l.9-.2c1.4-.4 2.8-.6 4.2-.8.8-.1 1.7-.1 2.6-.1.9-.1 1.7-.1 2.6 0 1.4.1 2.8.4 4.2.8l.9.2c1.6.5 3.1 1.1 4.6 1.8.1 0 .2.1.3.1 1.6.8 3 1.8 4.4 2.9.1 0 .1.1.2.1.2.2.4.3.6.4 1.6 1.3 3 2.8 4.2 4.5L327.2 197c9.8 11.6 8.3 29-3.3 38.8-5.3 4.4-12 6.7-18.9 6.4l-59.8.1 81.8 96z"/></svg>