<svg width="400" height="400" viewBox="0 0 400 400" fill="none" xmlns="http://www.w3.org/2000/svg">
<g clip-path="url(#clip0_6720_26434)">
<path fill-rule="evenodd" clip-rule="evenodd" d="M75.1111 400H324.889C366.371 400 400 366.371 400 324.889V75.1111C400 33.6296 366.371 0 324.889 0H75.1111C33.6296 0 0 33.6296 0 75.1111V324.889C0 366.371 33.6296 400 75.1111 400ZM270.963 362.223L346.519 362.519L261.777 258.667C261.777 258.667 323.408 258.815 324 258.815C330.667 259.259 337.777 257.037 343.408 252.148C355.704 241.629 357.333 222.815 347.259 210.223L215.259 48.7408C214.075 46.9629 212.592 45.3333 210.963 43.8519C210.889 43.7777 210.777 43.7037 210.667 43.6296C210.556 43.5556 210.444 43.4815 210.371 43.4075C210.371 43.4075 210.371 43.2592 210.223 43.2592C208.592 42.0741 207.259 41.1852 205.629 40.2963C205.556 40.2963 205.519 40.2592 205.481 40.2223C205.444 40.1852 205.408 40.1481 205.333 40.1481C203.852 39.4075 202.223 38.8149 200.592 38.2224C200.296 38.2224 200 38.2223 199.704 38.0741C198.371 37.6296 196.889 37.3333 195.408 37.1852C194.815 37.0864 194.223 37.1192 193.629 37.1523C193.333 37.1688 193.037 37.1852 192.741 37.1852C192.444 37.1852 192.148 37.1688 191.852 37.1523C191.259 37.1192 190.667 37.0864 190.075 37.1852L185.629 38.0741C185.333 38.0741 185.037 38.0741 184.741 38.2223C183.111 38.6667 181.629 39.2592 180 40.1481C179.925 40.1481 179.889 40.1852 179.852 40.2223C179.815 40.2592 179.777 40.2963 179.704 40.2963C178.075 41.1852 176.592 42.0741 175.111 43.2592C175.111 43.2592 175.111 43.2592 174.963 43.4075C174.889 43.4815 174.777 43.5556 174.667 43.6296C174.556 43.7037 174.444 43.7777 174.371 43.8519C172.592 45.3333 171.111 46.8148 169.925 48.5925L46.0741 198.075L121.481 198.371L192.444 112.741L263.259 199.408L200.148 199.111C199.975 199.111 199.801 199.161 199.657 199.204C199.556 199.235 199.468 199.259 199.408 199.259C198.419 199.259 197.432 199.391 196.444 199.523C195.951 199.588 195.456 199.655 194.963 199.704C194.803 199.784 194.599 199.821 194.375 199.861C194.185 199.895 193.983 199.932 193.777 200C192.444 200.296 191.111 200.592 189.777 201.185C189.556 201.259 189.333 201.371 189.111 201.481C188.889 201.592 188.667 201.704 188.444 201.777C187.111 202.371 186.075 202.963 184.889 203.704C184.729 203.811 184.571 203.935 184.403 204.067C184.107 204.299 183.787 204.551 183.408 204.741C183.111 204.963 182.815 205.148 182.519 205.333C182.223 205.519 181.925 205.704 181.629 205.925C181.339 206.12 181.112 206.376 180.865 206.655C180.735 206.803 180.599 206.957 180.444 207.111C180 207.408 179.556 207.852 179.111 208.444C178.223 209.481 177.481 210.371 176.741 211.408C176.296 212 176 212.444 175.704 213.037C175.24 213.685 174.893 214.392 174.552 215.084C174.349 215.499 174.148 215.908 173.925 216.296C173.809 216.589 173.668 216.884 173.531 217.169C173.323 217.601 173.125 218.013 173.037 218.371C172.592 219.408 172.148 220.592 172 221.629C171.799 222.236 171.733 222.772 171.667 223.333C171.636 223.597 171.603 223.865 171.556 224.148C171.361 224.829 171.293 225.575 171.229 226.301C171.196 226.679 171.161 227.052 171.111 227.408C171.111 227.629 171.075 227.815 171.037 228C171 228.185 170.963 228.371 170.963 228.592C170.963 228.889 171 229.148 171.037 229.408C171.075 229.667 171.111 229.925 171.111 230.223C171.188 230.683 171.225 231.183 171.264 231.703C171.299 232.185 171.336 232.684 171.408 233.185C171.481 233.704 171.592 234.185 171.704 234.667C171.815 235.148 171.925 235.629 172 236.148C172.148 236.592 172.259 237 172.371 237.408C172.481 237.815 172.592 238.223 172.741 238.667C173.037 239.556 173.481 240.741 173.925 241.777C174.075 242.075 174.223 242.408 174.371 242.741C174.519 243.075 174.667 243.408 174.815 243.704C175.408 244.741 176.148 245.925 176.889 246.963C176.963 247.111 177.075 247.259 177.185 247.408C177.296 247.556 177.408 247.704 177.481 247.852L270.963 362.223Z" fill="black"/>
</g>
<defs>
<clipPath id="clip0_6720_26434">
<rect width="399.8" height="400" fill="white"/>
</clipPath>
</defs>
</svg>
