<svg xmlns="http://www.w3.org/2000/svg" width="163.369" height="60.063"><path class="rock-logo" fill="#FFF" d="M57.705 60.063L41.387 40.936s11.83-.026 11.928-.028c1.313.1 2.654-.351 3.736-1.259 2.33-1.948 2.643-5.414.693-7.752L32.396 2.151c-.242-.319-.516-.62-.836-.891-.039-.029-.084-.051-.121-.082-.012-.01-.027-.018-.039-.025-.279-.216-.566-.405-.867-.563-.018-.009-.039-.014-.059-.021-.301-.151-.609-.276-.922-.366-.057-.013-.119-.025-.178-.039-.277-.063-.557-.129-.84-.15-.172-.021-.346-.008-.516-.008-.172 0-.34-.014-.514.008-.281.021-.559.087-.84.1-.059.014-.115.026-.174.039-.318.09-.625.215-.924.366-.021.009-.039.014-.057 0-.305.156-.598.347-.869.563-.018.009-.025.017-.037.025-.039.031-.084.053-.123.1-.32.271-.594.57-.84.885L0 29.86h14.461l13.557-15.891 13.604 15.967-12.104.008c-.045 0-.088.013-.133 0-.287 0-.578.026-.865.071-.082.017-.166.035-.244.054-.26.053-.52.132-.775.2-.094.034-.182.072-.266.117-.232.098-.455.213-.672.352-.096.062-.193.131-.285.2-.117.081-.238.143-.346.229-.076.067-.137.147-.211.221-.088.082-.174.172-.258.3-.166.171-.318.351-.453.531-.068.105-.131.205-.195.308-.127.198-.236.396-.332.6-.059.126-.107.255-.156.384-.072.199-.145.398-.191.605-.037.145-.063.301-.084.5-.035.202-.059.403-.07.606-.006.074-.023.137-.023.209v.3c.012.2 0 .4.1.557.025.2.1.4.1.555.039.2.1.3.1.5.072.2.2.4.2.588.061.1.1.2.2.35.123.2.3.4.4.6.045.1.1.1.1.168l18.004 21.104h14.459v-.09zM69.945 51.508h-7.588V7.331h10.646c8.506 0 12.8 3.6 12.8 13.03 0 7.101-2.752 9.976-5.322 11.1l6.426 20.01h-7.711l-5.385-18.295c-.98.12-2.57.184-3.916.184v18.148zm0-24.352h2.693c4.098 0 5.629-1.53 5.629-6.794 0-5.262-1.531-6.791-5.629-6.791h-2.693v13.585zM88.054 18.65c0-6.239 3.672-11.318 11.625-11.318 7.954 0 11.6 5.1 11.6 11.318v13.042c0 6.242-3.673 11.32-11.627 11.32-7.953 0-11.625-5.078-11.625-11.32V18.65zm7.59 12.858c0 3.3 1 4.9 4 4.9 3.061 0 4.038-1.592 4.038-4.896V18.833c0-3.303-.979-4.896-4.038-4.896-3.06 0-4.035 1.593-4.035 4.896v12.675zM129.045 22.688v-3.426c0-3.731-1.711-5.324-3.67-5.324-3.062 0-4.039 1.593-4.039 4.896V41.23c0 3.3 1 4.9 4 4.896 2.754 0 3.67-1.59 3.67-4.465v-5.325h7.588v5.079c0 6.239-3.67 11.319-11.258 11.3-7.955 0-11.627-5.08-11.627-11.319V18.65c0-6.239 3.672-11.318 11.627-11.318 7.588 0 11.3 5.5 11.3 12.114v3.242h-7.591zM139.078 51.508V7.331h7.586v16.336h.123l7.953-16.336h7.588l-8.197 16.459 9.238 27.719h-7.709l-6.183-20.561h-.121l-2.692 4.896v15.665l-7.586-.001zM89.79 43.727c.568-.104 1.404-.174 2.357-.174 1.16 0 2 .2 2.5.6.477.4.7.9.7 1.637 0 .987-.709 1.673-1.384 1.916v.035c.547.2.8.7 1 1.5.244.9.5 1.9.6 2.218h-1.81c-.115-.221-.313-.858-.535-1.822-.22-.987-.557-1.242-1.287-1.255h-.522v3.077H89.79v-7.732zm1.754 3.356h.696c.883 0 1.405-.441 1.405-1.126 0-.708-.488-1.08-1.302-1.08-.43 0-.674.022-.801.058l.002 2.148zM102.265 48.859c-.029-.81-.06-1.778-.06-2.769h-.021c-.22.86-.5 1.819-.76 2.609l-.818 2.6h-1.189l-.721-2.6c-.219-.8-.439-1.749-.609-2.639h-.02c-.029.91-.07 1.949-.109 2.789l-.131 2.559h-1.408l.43-6.735h2.028l.659 2.259c.221.8.4 1.6.6 2.398h.039c.181-.779.41-1.658.641-2.419l.709-2.238h2l.359 6.735h-1.479l-.14-2.549zM104.993 49.626c.465.2 1.2.5 2 .488.813 0 1.243-.338 1.243-.859 0-.477-.372-.766-1.313-1.091-1.301-.465-2.159-1.186-2.159-2.334 0-1.335 1.127-2.347 2.961-2.347.895 0 1.5.2 2 .396l-.396 1.417c-.304-.151-.871-.372-1.627-.372-.767 0-1.138.36-1.138.8 0 .5.4.7 1.5 1.114 1.381.5 2 1.2 2 2.346 0 1.313-.998 2.427-3.146 2.4-.896 0-1.776-.243-2.219-.487l.294-1.471z"/></svg>