<svg width="60" height="60" viewBox="0 0 60 60" fill="none" xmlns="http://www.w3.org/2000/svg">
<g clip-path="url(#clip0_6768_82)">
<path fill-rule="evenodd" clip-rule="evenodd" d="M11.2667 60H48.7333C54.9556 60 60 54.9556 60 48.7333V11.2667C60 5.04444 54.9556 0 48.7333 0H11.2667C5.04444 0 0 5.04444 0 11.2667V48.7333C0 54.9556 5.04444 60 11.2667 60ZM40.6444 54.3333L51.9778 54.3778L39.2667 38.8C39.2667 38.8 48.5111 38.8222 48.6 38.8222C49.6 38.8889 50.6667 38.5556 51.5111 37.8222C53.3556 36.2444 53.6 33.4222 52.0889 31.5333L32.2889 7.31111C32.1111 7.04444 31.8889 6.8 31.6444 6.57778C31.6333 6.56667 31.6167 6.55556 31.6 6.54444C31.5833 6.53333 31.5667 6.52222 31.5556 6.51111C31.5556 6.51111 31.5556 6.48889 31.5333 6.48889C31.2889 6.31111 31.0889 6.17778 30.8444 6.04444C30.8333 6.04444 30.8278 6.03889 30.8222 6.03333C30.8167 6.02778 30.8111 6.02222 30.8 6.02222C30.5778 5.91111 30.3333 5.82224 30.0889 5.73336C30.0444 5.73336 30 5.73333 29.9556 5.71111C29.7556 5.64444 29.5333 5.6 29.3111 5.57778C29.2222 5.56296 29.1333 5.56789 29.0444 5.57284C29 5.57531 28.9556 5.57778 28.9111 5.57778C28.8667 5.57778 28.8222 5.57531 28.7778 5.57284C28.6889 5.56789 28.6 5.56296 28.5111 5.57778L27.8444 5.71111C27.8 5.71111 27.7556 5.71111 27.7111 5.73333C27.4667 5.8 27.2444 5.88889 27 6.02222C26.9889 6.02222 26.9833 6.02778 26.9778 6.03333C26.9722 6.03889 26.9667 6.04444 26.9556 6.04444C26.7111 6.17778 26.4889 6.31111 26.2667 6.48889C26.2667 6.48889 26.2667 6.48889 26.2444 6.51111C26.2333 6.52222 26.2167 6.53333 26.2 6.54444C26.1833 6.55556 26.1667 6.56667 26.1556 6.57778C25.8889 6.8 25.6667 7.02222 25.4889 7.28889L6.91111 29.7111L18.2222 29.7556L28.8667 16.9111L39.4889 29.9111L30.0222 29.8667C29.9962 29.8667 29.9702 29.8742 29.9487 29.8807C29.9333 29.8851 29.9202 29.8889 29.9111 29.8889C29.7629 29.8889 29.6149 29.9087 29.4667 29.9284C29.3927 29.9382 29.3184 29.9482 29.2444 29.9556C29.2204 29.9676 29.1898 29.9731 29.1562 29.9791C29.1278 29.9842 29.0973 29.9898 29.0667 30C28.8667 30.0444 28.6667 30.0889 28.4667 30.1778C28.4333 30.1889 28.4 30.2056 28.3667 30.2222C28.3333 30.2389 28.3 30.2556 28.2667 30.2667C28.0667 30.3556 27.9111 30.4444 27.7333 30.5556C27.7093 30.5716 27.6856 30.5902 27.6604 30.61C27.616 30.6449 27.568 30.6827 27.5111 30.7111C27.4667 30.7444 27.4222 30.7722 27.3778 30.8C27.3333 30.8278 27.2889 30.8556 27.2444 30.8889C27.2009 30.918 27.1669 30.9564 27.1298 30.9982C27.1102 31.0204 27.0898 31.0436 27.0667 31.0667C27 31.1111 26.9333 31.1778 26.8667 31.2667C26.7333 31.4222 26.6222 31.5556 26.5111 31.7111C26.4444 31.8 26.4 31.8667 26.3556 31.9556C26.286 32.0529 26.234 32.1589 26.1829 32.2627C26.1524 32.3249 26.1222 32.3862 26.0889 32.4444C26.0713 32.4884 26.0502 32.5327 26.0296 32.5753C25.9984 32.6402 25.9689 32.702 25.9556 32.7556C25.8889 32.9111 25.8222 33.0889 25.8 33.2444C25.7698 33.3353 25.76 33.4158 25.75 33.5C25.7453 33.5396 25.7404 33.5798 25.7333 33.6222C25.7042 33.7244 25.694 33.8362 25.6844 33.9451C25.6793 34.0018 25.6742 34.0578 25.6667 34.1111C25.6667 34.1444 25.6611 34.1722 25.6556 34.2C25.65 34.2278 25.6444 34.2556 25.6444 34.2889C25.6444 34.3333 25.65 34.3722 25.6556 34.4111C25.6611 34.45 25.6667 34.4889 25.6667 34.5333C25.6782 34.6024 25.6838 34.6773 25.6896 34.7553C25.6949 34.8278 25.7004 34.9027 25.7111 34.9778C25.7222 35.0556 25.7389 35.1278 25.7556 35.2C25.7722 35.2722 25.7889 35.3444 25.8 35.4222C25.8222 35.4889 25.8389 35.55 25.8556 35.6111C25.8722 35.6722 25.8889 35.7333 25.9111 35.8C25.9556 35.9333 26.0222 36.1111 26.0889 36.2667C26.1111 36.3111 26.1333 36.3611 26.1556 36.4111C26.1778 36.4611 26.2 36.5111 26.2222 36.5556C26.3111 36.7111 26.4222 36.8889 26.5333 37.0444C26.5444 37.0667 26.5611 37.0889 26.5778 37.1111C26.5944 37.1333 26.6111 37.1556 26.6222 37.1778L40.6444 54.3333Z" fill="#A3A3A3"/>
</g>
<defs>
<clipPath id="clip0_6768_82">
<rect width="60" height="60" fill="white"/>
</clipPath>
</defs>
</svg>
