<svg xmlns="http://www.w3.org/2000/svg" viewBox="0 0 399.84 400"><defs><style>.cls-1{fill:#ed7625;stroke:#231f20;stroke-miterlimit:10;}.cls-2{fill:#fff;}</style></defs><title>Artboard 1</title><g id="Layer_1" data-name="Layer 1"><rect class="cls-1" x="-116.16" y="-187.12" width="658.59" height="797.22"/></g><g id="Layer_2" data-name="Layer 2"><path class="cls-2" d="M200,0C89.54,0,0,89.54,0,200S89.54,400,200,400s200-89.54,200-200S310.46,0,200,0ZM327,338.33H254.42L164.09,232.46c-.24-.27-.35-.56-.58-.85a25.93,25.93,0,0,1-2-3c-.34-.58-.64-1.15-.94-1.76a28.66,28.66,0,0,1-1.24-2.95c-.26-.78-.48-1.52-.68-2.29-.22-.92-.43-1.84-.56-2.79s-.2-1.86-.25-2.79c0-.52-.14-1-.14-1.47s.09-.68.12-1.05a26.87,26.87,0,0,1,.35-3,21.83,21.83,0,0,1,.42-2.26,25.47,25.47,0,0,1,1-3c.24-.65.49-1.3.78-1.93a26,26,0,0,1,1.67-3c.32-.51.64-1,1-1.54a26.52,26.52,0,0,1,2.27-2.67c.42-.46.85-.91,1.29-1.32s.68-.76,1.06-1.1c.54-.44,1.15-.74,1.73-1.15s1-.69,1.43-1a22.32,22.32,0,0,1,3.37-1.76,10.51,10.51,0,0,1,1.33-.59,25.55,25.55,0,0,1,3.89-1.15l1.22-.27a29.19,29.19,0,0,1,4.34-.36c.23,0,.44-.08.67-.08l60.72,0L178,107.08,110,186.8H37.46l118.62-139a29.35,29.35,0,0,1,4.21-4.44c.2-.15.42-.25.62-.41a.59.59,0,0,1,.19-.13A26.28,26.28,0,0,1,165.45,40l.28-.11A25.94,25.94,0,0,1,170.37,38l.87-.19a29.5,29.5,0,0,1,4.21-.76A21.05,21.05,0,0,1,178,37a21.22,21.22,0,0,1,2.59,0,28.77,28.77,0,0,1,4.21.76l.89.19a27.08,27.08,0,0,1,4.62,1.84c.1,0,.21.07.29.11A28.88,28.88,0,0,1,195,42.78a1.44,1.44,0,0,1,.2.13c.19.16.41.26.61.41A27.22,27.22,0,0,1,200,47.78L327.16,197a27.51,27.51,0,0,1-22.22,45.2l-59.84.14Z"/></g></svg>