<svg xmlns="http://www.w3.org/2000/svg" width="60.185" height="60.063"><path class="rock-logo" fill="#FFF" d="M57.705 60.063L41.387 40.936s11.83-.026 11.928-.028c1.313.1 2.654-.351 3.736-1.259 2.33-1.948 2.643-5.414.693-7.752L32.396 2.151c-.242-.319-.516-.62-.836-.891-.039-.029-.084-.051-.121-.082-.012-.01-.027-.018-.039-.025-.279-.216-.566-.405-.867-.563-.018-.009-.039-.014-.059-.021-.301-.151-.609-.276-.922-.366-.057-.013-.119-.025-.178-.039-.277-.063-.557-.129-.84-.15-.172-.021-.346-.008-.516-.008-.172 0-.34-.014-.514.008-.281.021-.559.087-.84.1-.059.014-.115.026-.174.039-.318.09-.625.215-.924.366-.021.009-.039.014-.057 0-.305.156-.598.347-.869.563-.018.009-.025.017-.037.025-.039.031-.084.053-.123.1-.32.271-.594.57-.84.885L0 29.86h14.461l13.557-15.891 13.604 15.967-12.104.008c-.045 0-.088.013-.133 0-.287 0-.578.026-.865.071-.082.017-.166.035-.244.054-.26.053-.52.132-.775.2-.094.034-.182.072-.266.117-.232.098-.455.213-.672.352-.096.062-.193.131-.285.2-.117.081-.238.143-.346.229-.076.067-.137.147-.211.221-.088.082-.174.172-.258.3-.166.171-.318.351-.453.531-.068.105-.131.205-.195.308-.127.198-.236.396-.332.6-.059.126-.107.255-.156.384-.072.199-.145.398-.191.605-.037.145-.063.301-.084.5-.035.202-.059.403-.07.606-.006.074-.023.137-.023.209v.3c.012.2 0 .4.1.557.025.2.1.4.1.555.039.2.1.3.1.5.072.2.2.4.2.588.061.1.1.2.2.35.123.2.3.4.4.6.045.1.1.1.1.168l18.004 21.104h14.459v-.09z"/></svg>