<svg xmlns="http://www.w3.org/2000/svg" xmlns:xlink="http://www.w3.org/1999/xlink" version="1.1" id="Layer_1" x="0px" y="0px" width="163.369px" height="60.063px" viewBox="0 0 163.369 60.063" enable-background="new 0 0 163.369 60.063" xml:space="preserve">
<path class="rock-logo" fill="#FFFFFF" d="M57.705 60.063L41.387 40.936c0 0 11.83-0.026 11.928-0.028c1.313 0.1 2.654-0.351 3.736-1.259 c2.33-1.948 2.643-5.414 0.693-7.752L32.396 2.151c-0.242-0.319-0.516-0.62-0.836-0.891c-0.039-0.029-0.084-0.051-0.121-0.082 c-0.012-0.01-0.027-0.018-0.039-0.025c-0.279-0.216-0.566-0.405-0.867-0.563c-0.018-0.009-0.039-0.014-0.059-0.021 c-0.301-0.151-0.609-0.276-0.922-0.366c-0.057-0.013-0.119-0.025-0.178-0.039c-0.277-0.063-0.557-0.129-0.84-0.15 c-0.172-0.021-0.346-0.008-0.516-0.008c-0.172 0-0.34-0.014-0.514 0.008c-0.281 0.021-0.559 0.087-0.84 0.1 c-0.059 0.014-0.115 0.026-0.174 0.039c-0.318 0.09-0.625 0.215-0.924 0.366c-0.021 0.009-0.039 0.014-0.057 0 c-0.305 0.156-0.598 0.347-0.869 0.563c-0.018 0.009-0.025 0.017-0.037 0.025c-0.039 0.031-0.084 0.053-0.123 0.1 c-0.32 0.271-0.594 0.57-0.84 0.885L0 29.86h14.461l13.557-15.891l13.604 15.967l-12.104 0.008c-0.045 0-0.088 0.013-0.133 0 c-0.287 0-0.578 0.026-0.865 0.071c-0.082 0.017-0.166 0.035-0.244 0.054c-0.26 0.053-0.52 0.132-0.775 0.2 c-0.094 0.034-0.182 0.072-0.266 0.117c-0.232 0.098-0.455 0.213-0.672 0.352c-0.096 0.062-0.193 0.131-0.285 0.2 c-0.117 0.081-0.238 0.143-0.346 0.229c-0.076 0.067-0.137 0.147-0.211 0.221c-0.088 0.082-0.174 0.172-0.258 0.3 c-0.166 0.171-0.318 0.351-0.453 0.531c-0.068 0.105-0.131 0.205-0.195 0.308c-0.127 0.198-0.236 0.396-0.332 0.6 c-0.059 0.126-0.107 0.255-0.156 0.384c-0.072 0.199-0.145 0.398-0.191 0.605c-0.037 0.145-0.063 0.301-0.084 0.5 c-0.035 0.202-0.059 0.403-0.07 0.606c-0.006 0.074-0.023 0.137-0.023 0.209c0 0.1 0 0.2 0 0.3 c0.012 0.2 0 0.4 0.1 0.557c0.025 0.2 0.1 0.4 0.1 0.555c0.039 0.2 0.1 0.3 0.1 0.5 c0.072 0.2 0.2 0.4 0.2 0.588c0.061 0.1 0.1 0.2 0.2 0.35c0.123 0.2 0.3 0.4 0.4 0.6 c0.045 0.1 0.1 0.1 0.1 0.168l18.004 21.104h14.459V60.063z"/>
<path class="rock-logo" fill="#FFFFFF" d="M69.945 51.508h-7.588V7.331h10.646c8.506 0 12.8 3.6 12.8 13.03c0 7.101-2.752 9.976-5.322 11.1 l6.426 20.01h-7.711l-5.385-18.295c-0.98 0.12-2.57 0.184-3.916 0.184V51.508z M69.945 27.156h2.693c4.098 0 5.629-1.53 5.629-6.794 c0-5.262-1.531-6.791-5.629-6.791h-2.693V27.156z"/>
<path class="rock-logo" fill="#FFFFFF" d="M88.054 18.65c0-6.239 3.672-11.318 11.625-11.318c7.954 0 11.6 5.1 11.6 11.318v13.042 c0 6.242-3.673 11.32-11.627 11.32c-7.953 0-11.625-5.078-11.625-11.32V18.65z M95.644 31.508c0 3.3 1 4.9 4 4.9 c3.061 0 4.038-1.592 4.038-4.896V18.833c0-3.303-0.979-4.896-4.038-4.896c-3.06 0-4.035 1.593-4.035 4.896V31.508z"/>
<path class="rock-logo" fill="#FFFFFF" d="M129.045 22.688v-3.426c0-3.731-1.711-5.324-3.67-5.324c-3.062 0-4.039 1.593-4.039 4.896v22.396 c0 3.3 1 4.9 4 4.896c2.754 0 3.67-1.59 3.67-4.465v-5.325h7.588v5.079c0 6.239-3.67 11.319-11.258 11.3 c-7.955 0-11.627-5.08-11.627-11.319V18.65c0-6.239 3.672-11.318 11.627-11.318c7.588 0 11.3 5.5 11.3 12.114v3.242H129.045z"/>
<path class="rock-logo" fill="#FFFFFF" d="M139.078 51.508V7.331h7.586v16.336h0.123l7.953-16.336h7.588l-8.197 16.459l9.238 27.719h-7.709 l-6.183-20.561h-0.121l-2.692 4.896v15.665L139.078 51.508L139.078 51.508z"/>
<path class="rock-logo" fill="#FFFFFF" d="M89.79 43.727c0.568-0.104 1.404-0.174 2.357-0.174c1.16 0 2 0.2 2.5 0.6 c0.477 0.4 0.7 0.9 0.7 1.637c0 0.987-0.709 1.673-1.384 1.916v0.035c0.547 0.2 0.8 0.7 1 1.5 c0.244 0.9 0.5 1.9 0.6 2.218h-1.81c-0.115-0.221-0.313-0.858-0.535-1.822c-0.22-0.987-0.557-1.242-1.287-1.255h-0.522 v3.077H89.79V43.727z M91.544 47.083h0.696c0.883 0 1.405-0.441 1.405-1.126c0-0.708-0.488-1.08-1.302-1.08 c-0.43 0-0.674 0.022-0.801 0.058L91.544 47.083L91.544 47.083z"/>
<path class="rock-logo" fill="#FFFFFF" d="M102.265 48.859c-0.029-0.81-0.06-1.778-0.06-2.769h-0.021c-0.22 0.86-0.5 1.819-0.76 2.609l-0.818 2.6 h-1.189l-0.721-2.6c-0.219-0.8-0.439-1.749-0.609-2.639h-0.02c-0.029 0.91-0.07 1.949-0.109 2.789l-0.131 2.559h-1.408l0.43-6.735 h2.028l0.659 2.259c0.221 0.8 0.4 1.6 0.6 2.398h0.039c0.181-0.779 0.41-1.658 0.641-2.419l0.709-2.238h2l0.359 6.735h-1.479 L102.265 48.859z"/>
<path class="rock-logo" fill="#FFFFFF" d="M104.993 49.626c0.465 0.2 1.2 0.5 2 0.488c0.813 0 1.243-0.338 1.243-0.859 c0-0.477-0.372-0.766-1.313-1.091c-1.301-0.465-2.159-1.186-2.159-2.334c0-1.335 1.127-2.347 2.961-2.347 c0.895 0 1.5 0.2 2 0.396l-0.396 1.417c-0.304-0.151-0.871-0.372-1.627-0.372c-0.767 0-1.138 0.36-1.138 0.8 c0 0.5 0.4 0.7 1.5 1.114c1.381 0.5 2 1.2 2 2.346c0 1.313-0.998 2.427-3.146 2.4 c-0.896 0-1.776-0.243-2.219-0.487L104.993 49.626z"/>
</svg>
