<svg xmlns="http://www.w3.org/2000/svg" width="163.369" height="60.063"><path d="M57.705 60.063L41.387 40.936s11.83-.027 11.928-.029c1.313.051 2.654-.35 3.736-1.258 2.33-1.949 2.643-5.414.693-7.752L32.396 2.151c-.242-.32-.516-.621-.836-.891-.039-.029-.084-.051-.121-.082-.012-.01-.027-.018-.039-.025-.279-.216-.566-.406-.867-.563-.018-.009-.039-.014-.059-.021-.301-.152-.609-.277-.922-.367-.057-.012-.119-.025-.178-.039-.277-.063-.557-.129-.84-.15-.172-.021-.346-.008-.516-.008-.172 0-.34-.014-.514.008-.281.021-.559.087-.84.15-.059.014-.115.027-.174.039-.318.09-.625.215-.924.367-.021.008-.039.013-.057.021-.305.156-.598.347-.869.563-.018.008-.025.016-.037.025-.039.031-.084.053-.123.082-.32.27-.594.57-.84.885L0 29.86h14.461l13.557-15.891 13.604 15.967-12.104.008c-.045 0-.088.012-.133.016-.287 0-.578.027-.865.071-.082.017-.166.036-.244.054-.26.053-.52.132-.775.229-.094.034-.182.072-.266.117-.232.098-.455.213-.672.351-.096.062-.193.131-.285.198-.117.081-.238.142-.346.229-.076.068-.137.148-.211.221-.088.082-.174.172-.258.264-.166.17-.318.35-.453.531-.068.105-.131.205-.195.307-.127.199-.236.396-.332.601-.059.126-.107.255-.156.384-.072.199-.145.398-.191.605-.037.145-.063.301-.084.451-.035.203-.059.404-.07.607-.006.074-.023.137-.023.209 0 .1.023.189.027.294.012.187.023.368.051.556.025.188.068.373.111.555.039.154.082.301.135.457.072.199.154.398.248.588.061.119.119.234.188.35.123.215.26.414.408.605.045.057.068.115.115.168l18.004 21.104h14.459zM69.945 51.508h-7.588V7.331h10.646c8.506 0 12.85 3.61 12.85 13.031 0 7.1-2.752 9.975-5.322 11.137l6.426 20.01h-7.711l-5.385-18.295c-.98.12-2.57.184-3.916.184v18.11zm0-24.353h2.693c4.098 0 5.629-1.53 5.629-6.793 0-5.262-1.531-6.791-5.629-6.791h-2.693v13.584zM88.053 18.65c0-6.24 3.672-11.319 11.625-11.319 7.955 0 11.627 5.079 11.627 11.319v13.042c0 6.242-3.672 11.32-11.627 11.32-7.953 0-11.625-5.078-11.625-11.32V18.65zm7.59 12.858c0 3.305.977 4.896 4.035 4.896 3.061 0 4.039-1.592 4.039-4.896V18.833c0-3.303-.979-4.895-4.039-4.895-3.059 0-4.035 1.592-4.035 4.895v12.675zM129.045 22.688v-3.426c0-3.732-1.711-5.324-3.67-5.324-3.061 0-4.039 1.592-4.039 4.895v22.396c0 3.305.979 4.895 4.039 4.895 2.754 0 3.67-1.59 3.67-4.465v-5.325h7.588v5.079c0 6.24-3.67 11.32-11.258 11.32-7.955 0-11.627-5.08-11.627-11.32V18.65c0-6.24 3.672-11.319 11.627-11.319 7.588 0 11.258 5.507 11.258 12.115v3.242h-7.588zM139.078 51.508V7.331h7.586v16.336h.123l7.953-16.336h7.588l-8.197 16.459 9.238 27.719h-7.709l-6.182-20.561h-.121l-2.693 4.896v15.665h-7.586zM89.79 43.727c.569-.104 1.405-.174 2.357-.174 1.161 0 1.975.174 2.531.627.477.372.732.917.732 1.637 0 .987-.709 1.672-1.383 1.916v.035c.546.221.848.731 1.045 1.452.244.894.477 1.916.627 2.218H93.89c-.116-.221-.314-.859-.535-1.823-.22-.987-.557-1.242-1.288-1.254h-.522v3.077H89.79v-7.711zm1.754 3.356h.696c.883 0 1.405-.441 1.405-1.126 0-.708-.488-1.08-1.301-1.08-.43 0-.674.023-.801.058v2.148zM102.265 48.859c-.029-.81-.06-1.779-.06-2.769h-.021c-.219.86-.499 1.819-.759 2.609l-.819 2.628h-1.189l-.72-2.599c-.22-.8-.44-1.749-.61-2.639h-.02c-.029.91-.07 1.949-.109 2.789l-.131 2.559h-1.408l.43-6.736h2.028l.659 2.259c.221.77.42 1.609.57 2.399h.04c.18-.78.409-1.659.64-2.419l.709-2.239h2l.359 6.736h-1.479l-.11-2.578zM104.993 49.626c.465.244 1.207.488 1.962.488.813 0 1.243-.337 1.243-.859 0-.476-.372-.766-1.313-1.091-1.301-.465-2.16-1.185-2.16-2.334 0-1.335 1.127-2.346 2.961-2.346.895 0 1.533.174 1.998.395l-.395 1.417c-.303-.151-.871-.372-1.627-.372-.766 0-1.137.36-1.137.755 0 .499.429.72 1.451 1.114 1.381.511 2.02 1.231 2.02 2.346 0 1.313-.998 2.427-3.146 2.427-.895 0-1.776-.244-2.218-.488l.361-1.452z"/></svg>