<?xml version="1.0" encoding="utf-8"?>
<!-- Generator: Adobe Illustrator 16.0.0, SVG Export Plug-In . SVG Version: 6.00 Build 0)  -->
<!DOCTYPE svg PUBLIC "-//W3C//DTD SVG 1.1//EN" "http://www.w3.org/Graphics/SVG/1.1/DTD/svg11.dtd">
<svg version="1.1" id="Layer_1" xmlns="http://www.w3.org/2000/svg" xmlns:xlink="http://www.w3.org/1999/xlink" x="0px" y="0px"
	 width="163.369px" height="60.063px" viewBox="0 0 163.369 60.063" enable-background="new 0 0 163.369 60.063"
	 xml:space="preserve">
<path fill="#000000" d="M57.705,60.063L41.387,40.936c0,0,11.83-0.027,11.928-0.029c1.313,0.051,2.654-0.35,3.736-1.258
	c2.33-1.949,2.643-5.414,0.693-7.752L32.396,2.151c-0.242-0.32-0.516-0.621-0.836-0.891c-0.039-0.029-0.084-0.051-0.121-0.082
	c-0.012-0.01-0.027-0.018-0.039-0.025c-0.279-0.216-0.566-0.406-0.867-0.563c-0.018-0.009-0.039-0.014-0.059-0.021
	c-0.301-0.152-0.609-0.277-0.922-0.367c-0.057-0.012-0.119-0.025-0.178-0.039c-0.277-0.063-0.557-0.129-0.84-0.15
	c-0.172-0.021-0.346-0.008-0.516-0.008c-0.172,0-0.34-0.014-0.514,0.008c-0.281,0.021-0.559,0.087-0.84,0.15
	c-0.059,0.014-0.115,0.027-0.174,0.039c-0.318,0.09-0.625,0.215-0.924,0.367c-0.021,0.008-0.039,0.013-0.057,0.021
	c-0.305,0.156-0.598,0.347-0.869,0.563c-0.018,0.008-0.025,0.016-0.037,0.025c-0.039,0.031-0.084,0.053-0.123,0.082
	c-0.32,0.27-0.594,0.57-0.84,0.885L0,29.86h14.461l13.557-15.891l13.604,15.967l-12.104,0.008c-0.045,0-0.088,0.012-0.133,0.016
	c-0.287,0-0.578,0.027-0.865,0.071c-0.082,0.017-0.166,0.036-0.244,0.054c-0.26,0.053-0.52,0.132-0.775,0.229
	c-0.094,0.034-0.182,0.072-0.266,0.117c-0.232,0.098-0.455,0.213-0.672,0.351c-0.096,0.062-0.193,0.131-0.285,0.198
	c-0.117,0.081-0.238,0.142-0.346,0.229c-0.076,0.068-0.137,0.148-0.211,0.221c-0.088,0.082-0.174,0.172-0.258,0.264
	c-0.166,0.17-0.318,0.35-0.453,0.531c-0.068,0.105-0.131,0.205-0.195,0.307c-0.127,0.199-0.236,0.396-0.332,0.601
	c-0.059,0.126-0.107,0.255-0.156,0.384c-0.072,0.199-0.145,0.398-0.191,0.605c-0.037,0.145-0.063,0.301-0.084,0.451
	c-0.035,0.203-0.059,0.404-0.07,0.607c-0.006,0.074-0.023,0.137-0.023,0.209c0,0.1,0.023,0.189,0.027,0.294
	c0.012,0.187,0.023,0.368,0.051,0.556c0.025,0.188,0.068,0.373,0.111,0.555c0.039,0.154,0.082,0.301,0.135,0.457
	c0.072,0.199,0.154,0.398,0.248,0.588c0.061,0.119,0.119,0.234,0.188,0.35c0.123,0.215,0.26,0.414,0.408,0.605
	c0.045,0.057,0.068,0.115,0.115,0.168l18.004,21.104H57.705z"/>
<path fill="#000000" d="M69.945,51.508h-7.588V7.331h10.646c8.506,0,12.85,3.61,12.85,13.031c0,7.1-2.752,9.975-5.322,11.137
	l6.426,20.01h-7.711l-5.385-18.295c-0.98,0.12-2.57,0.184-3.916,0.184V51.508z M69.945,27.155h2.693c4.098,0,5.629-1.53,5.629-6.793
	c0-5.262-1.531-6.791-5.629-6.791h-2.693V27.155z"/>
<path fill="#000000" d="M88.053,18.65c0-6.24,3.672-11.319,11.625-11.319c7.955,0,11.627,5.079,11.627,11.319v13.042
	c0,6.242-3.672,11.32-11.627,11.32c-7.953,0-11.625-5.078-11.625-11.32V18.65z M95.643,31.508c0,3.305,0.977,4.896,4.035,4.896
	c3.061,0,4.039-1.592,4.039-4.896V18.833c0-3.303-0.979-4.895-4.039-4.895c-3.059,0-4.035,1.592-4.035,4.895V31.508z"/>
<path fill="#000000" d="M129.045,22.688v-3.426c0-3.732-1.711-5.324-3.67-5.324c-3.061,0-4.039,1.592-4.039,4.895v22.396
	c0,3.305,0.979,4.895,4.039,4.895c2.754,0,3.67-1.59,3.67-4.465v-5.325h7.588v5.079c0,6.24-3.67,11.32-11.258,11.32
	c-7.955,0-11.627-5.08-11.627-11.32V18.65c0-6.24,3.672-11.319,11.627-11.319c7.588,0,11.258,5.507,11.258,12.115v3.242H129.045z"/>
<path fill="#000000" d="M139.078,51.508V7.331h7.586v16.336h0.123l7.953-16.336h7.588l-8.197,16.459l9.238,27.719h-7.709
	l-6.182-20.561h-0.121l-2.693,4.896v15.665H139.078z"/>
<path fill="#000000" d="M89.79,43.727c0.569-0.104,1.405-0.174,2.357-0.174c1.161,0,1.975,0.174,2.531,0.627
	c0.477,0.372,0.732,0.917,0.732,1.637c0,0.987-0.709,1.672-1.383,1.916v0.035c0.546,0.221,0.848,0.731,1.045,1.452
	c0.244,0.894,0.477,1.916,0.627,2.218H93.89c-0.116-0.221-0.314-0.859-0.535-1.823c-0.22-0.987-0.557-1.242-1.288-1.254h-0.522
	v3.077H89.79V43.727z M91.544,47.083h0.696c0.883,0,1.405-0.441,1.405-1.126c0-0.708-0.488-1.08-1.301-1.08
	c-0.43,0-0.674,0.023-0.801,0.058V47.083z"/>
<path fill="#000000" d="M102.265,48.859c-0.029-0.81-0.06-1.779-0.06-2.769h-0.021c-0.219,0.86-0.499,1.819-0.759,2.609
	l-0.819,2.628h-1.189l-0.72-2.599c-0.22-0.8-0.44-1.749-0.61-2.639h-0.02c-0.029,0.91-0.07,1.949-0.109,2.789l-0.131,2.559h-1.408
	l0.43-6.736h2.028l0.659,2.259c0.221,0.77,0.42,1.609,0.57,2.399h0.04c0.18-0.78,0.409-1.659,0.64-2.419l0.709-2.239h2l0.359,6.736
	h-1.479L102.265,48.859z"/>
<path fill="#000000" d="M104.993,49.626c0.465,0.244,1.207,0.488,1.962,0.488c0.813,0,1.243-0.337,1.243-0.859
	c0-0.476-0.372-0.766-1.313-1.091c-1.301-0.465-2.16-1.185-2.16-2.334c0-1.335,1.127-2.346,2.961-2.346
	c0.895,0,1.533,0.174,1.998,0.395l-0.395,1.417c-0.303-0.151-0.871-0.372-1.627-0.372c-0.766,0-1.137,0.36-1.137,0.755
	c0,0.499,0.429,0.72,1.451,1.114c1.381,0.511,2.02,1.231,2.02,2.346c0,1.313-0.998,2.427-3.146,2.427
	c-0.895,0-1.776-0.244-2.218-0.488L104.993,49.626z"/>
</svg>
