<svg width="496" height="116" viewBox="0 0 496 116" xmlns="http://www.w3.org/2000/svg"><title>Untitled 2</title><g fill="#FFF" fill-rule="evenodd"><path d="M175.137 65.732c-.147.114-.294.24-.44.38-.61.732-1.374 1.566-2.29 2.502-.915.936-1.91 1.913-2.99 2.93-1.078 1.017-2.228 2.024-3.448 3.02-1.222.998-2.463 1.883-3.724 2.656-1.262.773-2.513 1.404-3.754 1.892-1.24.49-2.43.733-3.57.733-1.018 0-1.8-.173-2.35-.52-.55-.345-.824-1.067-.824-2.166 0-1.018.193-2.137.58-3.358.386-1.22.854-2.46 1.403-3.723.55-1.262 1.13-2.493 1.74-3.694.61-1.2 1.16-2.31 1.65-3.326.406-.854.75-1.587 1.036-2.197.285-.61.58-1.23.885-1.862.306-.63.642-1.31 1.008-2.043.367-.733.834-1.628 1.404-2.686.204-.365.336-.73.397-1.098.06-.366.11-.732.15-1.098 0-1.547-.558-2.818-1.677-3.815-1.12-.998-2.452-1.496-3.998-1.496-.936 0-1.85.244-2.746.732-.897.488-1.69 1.302-2.382 2.44-.732 1.507-1.424 2.93-2.075 4.274-.57 1.14-1.11 2.258-1.617 3.357-.51 1.1-.865 1.912-1.07 2.44-.568 1.425-1.26 2.92-2.074 4.487-.814 1.567-1.587 3.195-2.32 4.883-.06.14-.12.278-.177.417-1.068.756-2.188 1.513-3.362 2.27-2.116 1.362-4.323 2.654-6.622 3.874-2.298 1.22-4.546 2.238-6.744 3.052-.53.366-.976.58-1.343.64-.366.062-.69.093-.976.093-.448 0-.773-.122-.977-.367-.203-.244-.305-.53-.305-.854 0-.855.265-1.607.794-2.258.406-.733.965-1.658 1.677-2.777l2.35-3.693c.854-1.343 1.72-2.777 2.594-4.303.876-1.525 1.67-3.08 2.38-4.668.713-1.587 1.293-3.174 1.74-4.76.448-1.588.672-3.114.672-4.58 0-2.48-.722-4.24-2.167-5.278-1.444-1.038-3.245-1.557-5.4-1.557-1.914 0-3.938.306-6.074.916-2.135.61-4.21 1.394-6.225 2.35-2.014.956-3.855 2.034-5.523 3.235-1.67 1.2-2.95 2.37-3.846 3.51.326-.693.55-1.344.672-1.954.122-.61.183-1.18.183-1.71 0-1.382-.386-2.43-1.16-3.142-.772-.712-1.647-1.068-2.623-1.068-1.18 0-2.38.427-3.6 1.28-1.222.856-2.24 2.158-3.053 3.908-.624 1.363-1.415 3.007-2.374 4.93-.872 1.04-1.81 2.122-2.814 3.248-1.668 1.872-3.418 3.734-5.25 5.585-1.83 1.85-3.682 3.642-5.553 5.37-1.872 1.73-3.683 3.256-5.433 4.58-1.75 1.32-3.387 2.38-4.913 3.173-1.526.793-2.838 1.19-3.937 1.19-.813 0-1.342-.285-1.587-.855-.244-.57-.366-1.26-.366-2.075 0-.895.112-1.84.336-2.838.224-.997.437-1.882.64-2.655.57-2.035 1.384-4.405 2.442-7.11 1.058-2.707 2.208-5.534 3.45-8.485 1.24-2.95 2.5-5.9 3.783-8.85 1.282-2.95 2.44-5.686 3.48-8.21 1.037-2.522 1.89-4.72 2.562-6.59.672-1.872 1.007-3.195 1.007-3.968-.04-.814-.223-1.516-.55-2.106-.324-.59-.74-1.078-1.25-1.464-.51-.387-1.068-.672-1.68-.855-.61-.183-1.22-.275-1.83-.275-1.18 0-2.288.326-3.326.977-1.037.65-1.82 1.75-2.35 3.295-.772 1.71-1.606 3.57-2.5 5.585l-2.717 6.103c-.916 2.055-1.82 4.1-2.716 6.134-.896 2.035-1.72 3.927-2.472 5.676-.753 1.75-1.435 3.327-2.045 4.73-.61 1.404-1.1 2.513-1.465 3.327l-18.86 1.404h-11.17c.977-1.465 2.107-3.276 3.388-5.432 1.282-2.157 2.696-4.517 4.242-7.08 1.546-2.564 3.194-5.25 4.944-8.057 1.75-2.808 3.56-5.554 5.43-8.24 1.873-2.685 3.806-5.24 5.8-7.66 1.993-2.42 3.997-4.557 6.01-6.408 2.016-1.852 4.02-3.317 6.013-4.395 1.994-1.078 3.947-1.617 5.86-1.617 1.343 0 2.696.335 4.06 1.007 1.362.67 2.674 1.74 3.935 3.204.855 1.058 1.76 1.75 2.717 2.075.956.327 1.8.49 2.532.49.61 0 1.2-.122 1.77-.367.57-.244 1.09-.57 1.557-.976.468-.407.844-.875 1.13-1.404.284-.53.426-1.058.426-1.587 0-.407-.142-.895-.427-1.465-2.645-4.27-5.422-7.343-8.33-9.215-2.91-1.872-5.87-2.808-8.882-2.808-3.213 0-6.448.865-9.703 2.594-3.256 1.73-6.48 4.03-9.675 6.898-3.194 2.87-6.306 6.155-9.338 9.857-3.03 3.703-5.9 7.518-8.606 11.445-2.706 3.926-5.218 7.802-7.538 11.627-2.32 3.825-4.364 7.314-6.134 10.467-1.77 3.154-3.214 5.81-4.333 7.965-1.12 2.156-1.862 3.52-2.228 4.09L2.028 79.48c-.53.934-.936 1.92-1.22 2.96C.523 83.475.38 84.523.38 85.58c0 .61.092 1.26.275 1.953.183.692.498 1.312.946 1.862.45.55 1.06 1.007 1.832 1.373.773.366 1.77.55 2.99.55.774 0 1.567-.275 2.38-.825.815-.55 1.63-1.28 2.443-2.197.813-.915 1.627-1.963 2.44-3.143.815-1.18 1.588-2.38 2.32-3.6 1.67-2.85 3.357-6.125 5.066-9.828l10.072-.122 21.668-1.343c0 .244-.03.794-.092 1.648-.06.855-.122 1.8-.183 2.838-.06 1.038-.112 2.045-.153 3.022-.04.976-.06 1.73-.06 2.258 0 1.383.172 2.696.518 3.937.346 1.24.885 2.34 1.618 3.295.732.957 1.698 1.71 2.9 2.26 1.2.548 2.654.823 4.363.823 2.93 0 5.88-.753 8.85-2.26 2.97-1.504 5.93-3.518 8.88-6.04.708-.606 1.412-1.232 2.114-1.88-.345.843-.652 1.633-.922 2.367-.57 1.547-.855 2.665-.855 3.357 0 1.302.407 2.4 1.22 3.296.815.895 1.934 1.343 3.358 1.343 1.383 0 2.533-.438 3.448-1.312.916-.875 1.74-1.974 2.472-3.296.733-1.323 1.434-2.747 2.106-4.273.672-1.526 1.415-2.96 2.23-4.303 1.3-1.994 2.806-4.252 4.515-6.775 1.71-2.522 3.58-4.913 5.615-7.17 2.035-2.26 4.222-4.162 6.562-5.708 2.34-1.547 4.81-2.32 7.416-2.32.69 0 1.21.213 1.556.64.346.428.52.947.52 1.557 0 .692-.266 1.587-.795 2.685-.53 1.1-1.19 2.35-1.984 3.754s-1.658 2.89-2.594 4.456c-.936 1.566-1.82 3.143-2.655 4.73-.835 1.587-1.547 3.133-2.137 4.64-.59 1.504-.925 2.888-1.007 4.15-.04.324-.07.62-.09.884-.022.264-.032.54-.032.824 0 2.157.5 3.835 1.497 5.035.997 1.2 2.573 1.8 4.73 1.8.732 0 1.536-.08 2.41-.243.876-.163 1.842-.407 2.9-.733 3.092-.896 5.788-1.862 8.087-2.9 2.3-1.037 4.456-2.156 6.47-3.357 1.273-.76 2.53-1.554 3.77-2.386.136 3.167 1.077 5.53 2.822 7.086 1.892 1.69 4.486 2.533 7.782 2.533 2.32 0 4.618-.448 6.897-1.343 2.278-.895 4.547-2.085 6.805-3.57 1.505-.99 2.987-2.08 4.446-3.267-.007.02-.014.04-.02.062-.53 1.546-.794 2.686-.794 3.418 0 1.302.427 2.42 1.28 3.357.856.936 2.015 1.404 3.48 1.404 1.343 0 2.462-.458 3.357-1.373.894-.916 1.698-2.045 2.41-3.388.712-1.343 1.373-2.807 1.984-4.394.61-1.587 1.28-3.052 2.014-4.395.814-1.302 1.71-2.746 2.685-4.333.977-1.587 2.025-3.184 3.144-4.792 1.12-1.607 2.32-3.163 3.6-4.67 1.283-1.504 2.635-2.837 4.06-3.997 1.424-1.16 2.91-2.095 4.455-2.807 1.546-.712 3.154-1.068 4.822-1.068.692 0 1.22.213 1.587.64.367.428.55.967.55 1.618 0 .61-.122 1.21-.366 1.8-.244.59-.57 1.21-.977 1.862-1.424 2.32-2.93 4.588-4.516 6.805-1.586 2.218-3.05 4.405-4.394 6.562-1.342 2.156-2.45 4.252-3.326 6.286-.875 2.035-1.312 4.03-1.312 5.982.04.53.213 1.017.518 1.465.306.447.692.834 1.16 1.16.468.325.987.58 1.557.762.57.183 1.098.275 1.586.275 1.342 0 2.46-.458 3.356-1.373.896-.916 1.7-2.045 2.41-3.388.713-1.343 1.375-2.807 1.985-4.394.61-1.587 1.283-3.052 2.015-4.395.814-1.302 1.71-2.746 2.686-4.333.977-1.587 2.025-3.184 3.144-4.792 1.12-1.607 2.32-3.163 3.6-4.67 1.283-1.504 2.636-2.837 4.06-3.997 1.424-1.16 2.91-2.095 4.455-2.807 1.546-.712 3.153-1.068 4.82-1.068.693 0 1.222.213 1.588.64.366.428.55.967.55 1.618 0 .61-.123 1.21-.367 1.8-.243.59-.568 1.21-.975 1.862-.936 1.546-2.035 3.092-3.296 4.64-1.263 1.545-2.463 3.142-3.602 4.79-1.14 1.648-2.096 3.367-2.87 5.157-.772 1.79-1.16 3.703-1.16 5.738 0 3.092.927 5.35 2.778 6.775 1.852 1.424 4.283 2.136 7.294 2.136 2.32 0 4.65-.448 6.99-1.343 2.338-.895 4.678-2.085 7.018-3.57 2.34-1.486 4.66-3.195 6.958-5.127 2.3-1.933 4.547-3.958 6.744-6.073 1.18-.936 2.014-1.892 2.503-2.87.488-.976.732-1.87.732-2.685 0-1.058-.295-1.912-.885-2.563-.59-.65-1.25-.977-1.984-.977-.325 0-.65.06-.976.183-.326.124-.61.327-.855.612-.976 1.058-2.29 2.37-3.937 3.937-1.647 1.565-3.417 3.07-5.31 4.515-1.892 1.445-3.835 2.676-5.828 3.693-1.994 1.017-3.846 1.526-5.555 1.526-.895 0-1.617-.122-2.166-.367-.55-.244-.825-.813-.825-1.71 0-.975.284-2.023.854-3.142.57-1.12 1.24-2.207 2.013-3.265.773-1.058 1.567-2.055 2.38-2.99.814-.937 1.466-1.71 1.954-2.32 1.505-1.83 2.818-3.845 3.937-6.043 1.12-2.197 1.678-4.516 1.678-6.958 0-1.547-.275-2.85-.824-3.907-.55-1.058-1.302-1.923-2.258-2.594-.956-.672-2.045-1.15-3.266-1.435-1.22-.285-2.502-.428-3.845-.428-1.832 0-3.5.224-5.006.672-1.505.446-2.9 1.036-4.18 1.77-1.282.73-2.473 1.555-3.57 2.47-1.1.916-2.117 1.842-3.053 2.778-.08-1.384-.375-2.564-.884-3.54-.51-.977-1.16-1.77-1.953-2.38-.794-.61-1.7-1.058-2.716-1.343-1.017-.285-2.096-.428-3.235-.428-2.28 0-4.333.326-6.165.977-1.83.65-3.49 1.475-4.974 2.472-1.485.997-2.858 2.085-4.12 3.265-1.26 1.18-2.44 2.28-3.54 3.297.488-1.26.733-2.42.733-3.48 0-1.423-.397-2.51-1.19-3.264-.794-.753-1.7-1.13-2.717-1.13-1.18 0-2.37.428-3.57 1.282-1.202.855-2.168 2.157-2.9 3.907-.61 1.424-1.374 3.143-2.29 5.157-.915 2.013-1.89 4.16-2.93 6.438l-.993 2.184zm-17.225-29.527c0-.936.173-1.903.52-2.9.345-.996.864-1.902 1.555-2.716.692-.814 1.557-1.486 2.594-2.015 1.04-.53 2.27-.793 3.694-.793 2.36 0 4.008.457 4.944 1.373.936.916 1.404 2.065 1.404 3.45 0 .772-.153 1.626-.458 2.562-.305.936-.763 1.8-1.373 2.594-.61.794-1.403 1.456-2.38 1.985-.976.53-2.136.793-3.48.793-2.522 0-4.292-.397-5.31-1.19-1.016-.794-1.586-1.84-1.708-3.143zm118.775 19.47c-1.913 0-3.764.488-5.555 1.465-1.79.976-3.377 2.258-4.76 3.845-1.384 1.587-2.483 3.367-3.296 5.34-.814 1.974-1.22 3.958-1.22 5.95 0 .815.05 1.66.152 2.534.1.874.335 1.678.7 2.41.368.733.886 1.343 1.558 1.83.67.49 1.577.734 2.716.734.895 0 1.943-.397 3.143-1.19 1.2-.794 2.442-1.81 3.723-3.052 1.282-1.24 2.533-2.604 3.754-4.09 1.22-1.485 2.32-2.94 3.296-4.364.977-1.424 1.77-2.706 2.38-3.845.61-1.14.916-1.973.916-2.502 0-.772-.265-1.474-.794-2.105-.53-.63-1.18-1.17-1.953-1.617-.773-.448-1.597-.784-2.472-1.008-.875-.223-1.637-.335-2.288-.335zm32.286 25.132c-.685.583-1.386 1.168-2.105 1.754-1.77 1.445-3.58 2.758-5.432 3.938-1.85 1.18-3.672 2.146-5.462 2.9-1.79.75-3.48 1.128-5.066 1.128-1.424 0-2.645-.305-3.662-.916-1.018-.61-1.862-1.403-2.533-2.38-.672-.977-1.17-2.085-1.496-3.326-.325-1.24-.488-2.513-.488-3.815 0-.856.06-1.7.182-2.534.122-.834.326-1.618.61-2.35-1.26 1.71-2.695 3.47-4.303 5.28s-3.337 3.458-5.19 4.943c-1.85 1.485-3.783 2.705-5.797 3.662-2.014.956-4.06 1.434-6.134 1.434-1.06 0-2.29-.214-3.694-.64-1.403-.428-2.736-1.13-3.997-2.107-1.263-.977-2.32-2.24-3.175-3.785-.855-1.546-1.282-3.438-1.282-5.676 0-1.67.254-3.663.763-5.983.51-2.32 1.282-4.73 2.32-7.232 1.037-2.503 2.36-4.975 3.967-7.416 1.607-2.442 3.51-4.63 5.706-6.562 2.197-1.933 4.7-3.5 7.507-4.7 2.807-1.2 5.94-1.8 9.4-1.8 1.79 0 3.356.223 4.7.67 1.342.448 2.48.937 3.417 1.466 1.058.65 1.994 1.363 2.808 2.136.69-.366 1.403-.712 2.136-1.038.61-.285 1.25-.54 1.922-.763.672-.224 1.252-.336 1.74-.336 1.546 0 2.807.427 3.784 1.28.977.856 1.465 1.792 1.465 2.81 0 .284-.02.508-.062.67-.204.774-.52 1.75-.946 2.93-.427 1.18-.906 2.492-1.435 3.937-.53 1.445-1.068 2.95-1.617 4.517-.55 1.567-1.048 3.103-1.495 4.61-.448 1.504-.814 2.918-1.1 4.24-.284 1.323-.426 2.452-.426 3.388 0 1.22.202 2.228.61 3.02.406.795 1.098 1.19 2.074 1.19.61 0 1.333-.192 2.167-.578.835-.387 1.74-.906 2.717-1.557.977-.65 1.984-1.393 3.02-2.228 1.04-.834 2.046-1.678 3.023-2.533 1.737-1.552 3.558-3.27 5.46-5.152.78-1.607 1.552-3.207 2.322-4.797 1.2-2.48 2.37-4.862 3.51-7.14h-2.625c-2.28 0-3.846-.367-4.7-1.1-.855-.73-1.282-1.566-1.282-2.5 0-.408.132-.907.397-1.497.264-.59.65-1.14 1.16-1.648.508-.508 1.13-.946 1.86-1.312.734-.366 1.568-.55 2.504-.55h6.59l12.88-25.573c.814-1.546 1.82-2.655 3.02-3.326 1.2-.672 2.453-1.008 3.755-1.008 1.22 0 2.34.326 3.358.977 1.017.65 1.526 1.73 1.526 3.235 0 .773-.173 1.556-.52 2.35-.345.793-.803 1.72-1.373 2.777-.365.692-.812 1.516-1.34 2.472-.53.956-1.09 1.973-1.68 3.052-.59 1.077-1.2 2.206-1.83 3.386-.632 1.18-1.252 2.32-1.862 3.418-1.384 2.604-2.85 5.35-4.395 8.24h19.897c.977 0 1.872.05 2.686.152.814.102 1.516.305 2.106.61.59.306 1.048.723 1.373 1.252.326.53.488 1.24.488 2.136 0 .448-.07.895-.213 1.343-.143.447-.407.854-.794 1.22-.386.367-.915.672-1.587.916-.672.244-1.537.407-2.595.488l-25.39.184c-1.506 2.93-2.93 5.79-4.273 8.576-1.343 2.787-2.604 5.36-3.784 7.72-.488.977-.966 2.107-1.434 3.388-.468 1.282-.702 2.41-.702 3.388 0 .57.132 1.017.397 1.343.263.324.7.487 1.31.487.855 0 1.934-.255 3.236-.763 1.302-.51 2.706-1.18 4.21-2.014 1.507-.834 3.094-1.79 4.762-2.87 1.668-1.077 3.306-2.196 4.913-3.356 1.608-1.16 3.144-2.32 4.61-3.48 1.464-1.16 2.766-2.227 3.906-3.203.65-.447 1.26-.67 1.83-.67.692 0 1.262.305 1.71.915.447.61.67 1.383.67 2.32 0 .935-.223 1.89-.67 2.868-.448.976-1.262 1.933-2.442 2.87-2.645 2.4-5.32 4.678-8.026 6.834-2.706 2.157-5.39 4.06-8.057 5.707-2.664 1.648-5.298 2.96-7.903 3.937-2.604.978-5.127 1.466-7.568 1.466-1.63 0-2.992-.214-4.09-.64-1.1-.428-1.984-1.018-2.655-1.77-.672-.754-1.15-1.63-1.435-2.626-.284-.996-.427-2.065-.427-3.204 0-.488.02-.98.06-1.48zM370.07 52.99c-.203-.04-.386-.062-.55-.062h-.548c-1.547 0-2.99.305-4.334.916-1.343.61-2.573 1.414-3.692 2.41-1.12.998-2.116 2.127-2.99 3.388-.876 1.26-1.66 2.513-2.35 3.754-.693 1.24-1.273 2.43-1.74 3.57-.468 1.14-.824 2.096-1.07 2.87 1.426-.733 2.9-1.568 4.426-2.503 1.526-.936 2.96-1.832 4.303-2.686 1.343-.855 2.513-1.628 3.51-2.32.997-.69 1.7-1.16 2.106-1.403 1.832-1.14 3.093-2.208 3.785-3.205.692-.997 1.037-1.862 1.037-2.595 0-.61-.193-1.098-.58-1.464-.386-.366-.823-.59-1.312-.67zm2.198-8.424c3.377 0 5.9.814 7.568 2.442 1.668 1.627 2.502 3.886 2.502 6.775 0 1.71-.447 3.5-1.342 5.37-.896 1.873-2.442 3.775-4.64 5.708-2.196 1.933-5.136 3.907-8.82 5.92-3.68 2.015-8.29 4.04-13.823 6.074.203 1.18.834 2.106 1.892 2.777 1.058.672 2.462 1.008 4.21 1.008 1.873 0 3.877-.274 6.013-.824 2.137-.55 4.252-1.25 6.348-2.106 2.096-.854 4.14-1.78 6.134-2.777 1.994-.996 3.794-1.942 5.402-2.837 1.607-.895 2.95-1.668 4.028-2.32 1.078-.65 1.8-1.057 2.167-1.22.366-.244.702-.386 1.007-.427.305-.04.58-.06.824-.06.488 0 .895.11 1.22.335.326.224.6.49.824.794.224.305.377.63.458.977.082.347.122.642.122.886 0 .366-.04.803-.122 1.312-.08.51-.386 1.088-.915 1.74-.204.203-.885.752-2.045 1.647-1.16.896-2.655 1.953-4.486 3.174-1.83 1.22-3.957 2.512-6.378 3.875-2.42 1.363-4.985 2.614-7.69 3.754-2.707 1.138-5.524 2.084-8.454 2.837-2.93.752-5.82 1.13-8.667 1.13-2.44 0-4.608-.47-6.5-1.405-1.892-.936-3.5-2.197-4.822-3.784-1.322-1.587-2.33-3.418-3.02-5.493-.693-2.075-1.04-4.252-1.04-6.53 0-1.75.347-3.673 1.04-5.77.69-2.094 1.687-4.2 2.99-6.316 1.302-2.117 2.9-4.182 4.79-6.196 1.893-2.014 4.02-3.794 6.38-5.34 2.36-1.547 4.953-2.788 7.78-3.724 2.83-.936 5.85-1.404 9.065-1.404zm44.555 35.95c0 1.262-.234 2.462-.702 3.6-.467 1.14-1.097 2.148-1.89 3.022-.794.875-1.72 1.567-2.778 2.076-1.058.508-2.177.763-3.357.763-.976 0-1.892-.194-2.746-.58-.856-.387-1.598-.906-2.23-1.557-.63-.65-1.128-1.414-1.495-2.288-.366-.875-.55-1.8-.55-2.778 0-1.22.235-2.39.703-3.51.468-1.118 1.11-2.105 1.923-2.96.814-.854 1.77-1.535 2.87-2.044 1.098-.51 2.278-.763 3.54-.763 1.993 0 3.61.67 4.852 2.014 1.24 1.344 1.86 3.012 1.86 5.006zm33.753-44.31c.04-.937.254-1.904.64-2.9.387-.997.947-1.903 1.68-2.717.73-.814 1.627-1.486 2.685-2.015 1.06-.53 2.3-.793 3.724-.793 2.238 0 3.814.417 4.73 1.25.915.835 1.373 1.883 1.373 3.144 0 .814-.152 1.7-.458 2.655-.306.958-.774 1.863-1.404 2.717-.63.855-1.455 1.567-2.472 2.137-1.018.57-2.238.854-3.662.854-2.523 0-4.283-.397-5.28-1.19-.997-.794-1.516-1.84-1.556-3.143zm10.87 39.956l1.215-.834c1.913-.976 3.276-2.085 4.09-3.326.814-1.24 1.22-2.39 1.22-3.45 0-1.057-.294-1.952-.884-2.684-.59-.733-1.333-1.1-2.228-1.1-.57 0-1.16.184-1.77.55-5.453 3.296-10.08 6.256-13.886 8.88-3.804 2.625-6.927 4.975-9.37 7.05 1.995-3.946 3.725-7.313 5.19-10.1 1.464-2.788 2.726-5.158 3.784-7.11 1.058-1.955 1.922-3.572 2.594-4.854.67-1.28 1.21-2.38 1.617-3.296.407-.915.682-1.74.824-2.47.143-.734.215-1.548.215-2.443 0-1.343-.468-2.38-1.404-3.113-.935-.732-2.054-1.098-3.356-1.098-1.22 0-2.472.356-3.754 1.068-1.28.712-2.33 1.84-3.143 3.387-.773 1.464-1.678 3.234-2.716 5.31-1.037 2.075-2.135 4.323-3.295 6.744-1.16 2.42-2.38 4.964-3.662 7.63-1.282 2.664-2.553 5.34-3.815 8.025-1.26 2.685-2.512 5.33-3.753 7.934-1.242 2.604-2.41 5.045-3.51 7.324-.854 1.79-2.085 3.448-3.693 4.974-1.607 1.526-3.204 2.97-4.79 4.334-1.588 1.363-2.97 2.685-4.15 3.967-1.18 1.282-1.77 2.553-1.77 3.815 0 1.343.375 2.39 1.128 3.143.753.754 2.085 1.13 3.998 1.13 2.075 0 3.926-.346 5.554-1.037 1.627-.692 3.214-1.78 4.76-3.266 1.547-1.485 3.113-3.418 4.7-5.798 1.587-2.38 3.378-5.28 5.37-8.7.937-.65 1.782-1.25 2.534-1.8.753-.548 1.486-1.098 2.198-1.647.712-.55 1.424-1.12 2.136-1.71.712-.59 1.516-1.29 2.41-2.105l12.93-8.875c.473 1.218 1.086 2.314 1.84 3.29 1.18 1.526 2.595 2.778 4.243 3.754 1.648.977 3.47 1.7 5.463 2.167 1.994.468 4.05.702 6.164.702 2.808 0 5.585-.336 8.332-1.007 2.746-.673 5.188-1.65 7.324-2.93 2.136-1.283 3.865-2.85 5.188-4.7 1.322-1.852 1.984-3.937 1.984-6.257 0-1.83-.356-3.702-1.07-5.615-.71-1.912-1.748-3.794-3.11-5.646-1.364-1.85-3.023-3.61-4.976-5.28-1.953-1.668-4.17-3.153-6.653-4.455.57-.447 1.15-.915 1.74-1.404.59-.488 1.118-.976 1.586-1.464.468-.49.844-.998 1.13-1.527.284-.53.426-1.08.426-1.648 0-.407-.152-.845-.457-1.313-.306-.467-.723-.895-1.252-1.28-.53-.388-1.18-.703-1.953-.947-.773-.244-1.607-.367-2.502-.367-1.22 0-2.4.234-3.54.702-1.14.468-2.198 1.08-3.174 1.83-.977.754-1.892 1.578-2.747 2.473-.854.896-1.607 1.77-2.258 2.625-.245.285-.367.67-.367 1.16 0 .61.203 1.21.61 1.8.407.59.712.946.916 1.068 1.87 1.18 3.752 2.41 5.644 3.693 1.892 1.28 3.58 2.664 5.066 4.15 1.485 1.484 2.696 3.102 3.632 4.852.936 1.75 1.404 3.662 1.404 5.737 0 1.18-.265 2.176-.794 2.99-.53.813-1.25 1.485-2.167 2.014-.915.53-1.973.915-3.173 1.16-1.2.244-2.452.366-3.754.366-1.26 0-2.553-.153-3.876-.458-1.322-.305-2.573-.733-3.753-1.282-1.18-.55-2.25-1.21-3.206-1.984-.546-.44-1.022-.916-1.43-1.424z"/><path d="M248.513 77.79c1.73 2.074 2.52 6.012 4.19 6.46 2.666.714 6.19-3.793 7.872-10.067 1.682-6.275.882-11.94-1.785-12.655-1.92-.515-3.662-.122-5.463 3.484-.702 1.405-2.082 5.274-2.082 5.274s-4.463 5.43-2.732 7.504zM339.922 77.805c1.73 2.074 2.732 4.163 4.4 4.61 2.668.715 6.194-3.792 7.875-10.066 1.68-6.275.882-11.94-1.786-12.656-1.918-.514-3.66-.12-5.462 3.484-.565 1.133-3.08 5.004-4.036 6.467l-.37.566s-2.35 5.52-.62 7.595zm9.242-22.702c.2 1.666.014 3.093.732 3.89 1.148 1.275 4.51.12 7.508-2.58s7.777-6.446 6.63-7.72c-.827-.918-5.733-1.875-7.89-.606-.678.4-2.71 2.66-3.704 3.1l-.385.17s-3.09 2.08-2.89 3.746z"/></g></svg>