<?xml version="1.0" encoding="utf-8"?>
<!-- Generator: Adobe Illustrator 16.0.0, SVG Export Plug-In . SVG Version: 6.00 Build 0)  -->
<!DOCTYPE svg PUBLIC "-//W3C//DTD SVG 1.1//EN" "http://www.w3.org/Graphics/SVG/1.1/DTD/svg11.dtd">
<svg version="1.1" id="Layer_1" xmlns="http://www.w3.org/2000/svg" xmlns:xlink="http://www.w3.org/1999/xlink" x="0px" y="0px"
	 width="235px" height="50px" viewBox="0 0 235 50" enable-background="new 0 0 235 50" xml:space="preserve">
<rect y="-1.5" fill="#7A1315" width="121" height="52.9"/>
<g>
	<g>
		<path fill="#FFFFFF" d="M47.2,13.9c-0.9-0.4-1.9,0.4-2.7,1.6c-0.7,0.9-1.3,3.2-0.3,3.7c1.4,0.7,2.7-1,3.2-1.9
			C48.1,16.2,48.4,14.4,47.2,13.9z"/>
		<path fill="#FFFFFF" d="M64.9,13.9c-0.9-0.4-1.9,0.4-2.7,1.6c-0.7,0.9-1.3,3.2-0.3,3.7c1.4,0.7,2.7-1,3.2-1.9
			C65.8,16.2,66.1,14.4,64.9,13.9z"/>
		<path fill="#FFFFFF" d="M92.3,13.4c-0.9-0.4-1.9,0.4-2.7,1.6c-0.7,0.9-1.3,3.2-0.3,3.7c1.4,0.7,2.7-1,3.2-1.9
			C93.2,15.7,93.5,13.9,92.3,13.4z"/>
		<path fill="#FFFFFF" d="M55.8,16.5c-1.4-1.6-12.7,3.4-13.4,8.7c-0.9,6.399,10,14.399,11.3,12c0.5-1-8.8-5.5-6.3-11.601
			C49.9,19.1,57,18,55.8,16.5z"/>
		<path fill="#FFFFFF" d="M73.4,16.6C72,15,60.7,20,60,25.2c-0.9,6.399,9.5,14.5,11.3,12C72,36.3,62.5,31.7,65,25.6
			C67.5,19.1,74.6,18.1,73.4,16.6z"/>
		<path fill="#FFFFFF" d="M79.2,15.6c-1,0.1-1.1,0.3-1.2,0.7c-0.2,0.8,4.9,6.5,5.7,10.2c0.9,4.2,0.7,10.2,0.9,10.7
			c0.3,0.6,0.8,0.3,1.7,0.399c0.8,0.101,1.6,0.698,2,0.301c0.3-0.301,3.4-10.603,9.5-15.8c6.3-5.4,13-8.3,13.1-8.8
			c0.1-0.3-1.2-1-2.4-1.1c-1.2-0.1-7.8,3-12.5,7.4c-4.9,4.5-7.4,10.2-8.3,10.2c-0.3,0-0.7-2.5-2.6-6.8
			C83.1,18.1,80.3,15.5,79.2,15.6z"/>
	</g>
</g>
<path fill="#FFFFFF" d="M138.549,21.269c-0.154,0.382-0.361,0.693-0.619,0.932c-0.248,0.238-0.522,0.414-0.826,0.53
	c-0.303,0.113-0.662,0.171-1.074,0.171c-0.272,0-0.521-0.026-0.733-0.076c-0.217-0.051-0.41-0.123-0.581-0.213
	c-0.168-0.091-0.32-0.195-0.451-0.313c-0.136-0.113-0.257-0.238-0.365-0.376c-0.191-0.23-0.342-0.507-0.439-0.833
	c-0.102-0.327-0.174-0.67-0.215-1.032c-0.041-0.364-0.066-0.732-0.068-1.102c-0.004-0.374-0.007-0.725-0.007-1.056
	c0-0.329,0.003-0.683,0.007-1.059c0.002-0.377,0.027-0.747,0.068-1.11c0.041-0.361,0.113-0.705,0.215-1.034
	c0.1-0.324,0.248-0.605,0.439-0.844c0.108-0.139,0.229-0.266,0.365-0.38c0.131-0.114,0.283-0.22,0.451-0.311
	c0.172-0.092,0.364-0.162,0.581-0.213c0.215-0.05,0.461-0.077,0.733-0.077c0.412,0,0.771,0.058,1.074,0.174
	c0.304,0.113,0.578,0.291,0.826,0.528c0.258,0.24,0.461,0.547,0.613,0.923c0.15,0.376,0.236,0.799,0.255,1.266h-1.955
	c-0.011-0.137-0.024-0.271-0.042-0.405c-0.02-0.132-0.057-0.25-0.109-0.352c-0.057-0.117-0.135-0.21-0.235-0.274
	c-0.101-0.065-0.24-0.096-0.427-0.096c-0.182,0-0.32,0.038-0.42,0.109c-0.098,0.075-0.172,0.166-0.227,0.276
	c-0.058,0.109-0.102,0.266-0.139,0.467c-0.036,0.203-0.064,0.433-0.085,0.688c-0.015,0.256-0.028,0.533-0.032,0.827
	c-0.006,0.294-0.007,0.588-0.007,0.881s0.001,0.589,0.007,0.882c0.004,0.294,0.02,0.57,0.032,0.826
	c0.021,0.256,0.049,0.489,0.085,0.688c0.037,0.202,0.081,0.357,0.139,0.468c0.055,0.111,0.129,0.202,0.227,0.275
	c0.1,0.074,0.238,0.109,0.42,0.109c0.187,0,0.326-0.032,0.436-0.102c0.105-0.068,0.188-0.164,0.239-0.283
	c0.06-0.099,0.094-0.218,0.11-0.35c0.02-0.134,0.033-0.269,0.041-0.408h1.955C138.794,20.465,138.706,20.89,138.549,21.269"/>
<polygon fill="#FFFFFF" points="143.563,22.792 143.563,18.688 141.936,18.688 141.936,22.792 139.982,22.792 139.982,12.987 
	141.936,12.987 141.936,16.927 143.563,16.927 143.563,12.987 145.518,12.987 145.518,22.792 "/>
<path fill="#FFFFFF" d="M150.831,22.793l-1.197-3.816h-0.646v3.816h-1.956v-9.806h2.796c0.531,0,0.975,0.069,1.329,0.207
	c0.354,0.136,0.634,0.332,0.84,0.584c0.207,0.254,0.351,0.567,0.435,0.939c0.082,0.37,0.125,0.792,0.125,1.258
	c0,0.268-0.02,0.523-0.043,0.764c-0.027,0.245-0.078,0.477-0.158,0.696c-0.076,0.222-0.19,0.425-0.34,0.613
	c-0.146,0.189-0.336,0.356-0.576,0.503l1.434,4.243L150.831,22.793L150.831,22.793z M150.598,15.975
	c0-0.137-0.006-0.279-0.021-0.426c-0.015-0.148-0.046-0.281-0.097-0.4c-0.051-0.118-0.129-0.215-0.232-0.29
	c-0.105-0.071-0.251-0.108-0.436-0.108h-0.826v2.465h0.826c0.185,0,0.328-0.04,0.436-0.117c0.104-0.079,0.182-0.177,0.232-0.296
	c0.051-0.12,0.082-0.254,0.097-0.4C150.592,16.255,150.598,16.112,150.598,15.975"/>
<rect x="153.973" y="12.987" fill="#FFFFFF" width="1.954" height="9.805"/>
<path fill="#FFFFFF" d="M162.66,19.996c0,0.497-0.041,0.922-0.123,1.272c-0.084,0.355-0.252,0.656-0.51,0.903
	c-0.223,0.213-0.512,0.386-0.875,0.523c-0.363,0.138-0.783,0.208-1.26,0.208c-0.485,0-0.904-0.065-1.26-0.192
	c-0.354-0.129-0.642-0.305-0.861-0.524c-0.237-0.236-0.405-0.535-0.504-0.887c-0.095-0.355-0.145-0.783-0.145-1.289h1.955
	c0,0.202,0.012,0.377,0.031,0.524c0.025,0.147,0.082,0.271,0.176,0.372c0.054,0.063,0.13,0.118,0.229,0.165
	c0.096,0.047,0.226,0.068,0.379,0.068c0.283,0,0.49-0.079,0.621-0.246c0.127-0.157,0.191-0.433,0.191-0.827
	c0-0.229-0.018-0.42-0.037-0.571c-0.021-0.151-0.064-0.275-0.129-0.371c-0.063-0.097-0.152-0.177-0.262-0.242
	c-0.109-0.064-0.254-0.133-0.43-0.208l-1.238-0.509c-0.248-0.101-0.461-0.215-0.641-0.345c-0.182-0.127-0.324-0.285-0.435-0.467
	c-0.11-0.185-0.192-0.409-0.246-0.676c-0.058-0.265-0.086-0.591-0.086-0.978c0-0.459,0.073-0.872,0.222-1.238
	c0.146-0.367,0.368-0.681,0.661-0.937c0.239-0.202,0.506-0.355,0.799-0.462c0.294-0.104,0.63-0.157,1.007-0.157
	c0.846,0,1.486,0.207,1.926,0.62c0.268,0.247,0.459,0.565,0.578,0.949c0.119,0.385,0.183,0.827,0.183,1.323h-1.958
	c0-0.173-0.008-0.335-0.021-0.487c-0.013-0.152-0.061-0.283-0.145-0.393c-0.055-0.075-0.126-0.136-0.215-0.18
	c-0.086-0.046-0.202-0.068-0.35-0.068c-0.14,0-0.255,0.024-0.345,0.074c-0.092,0.051-0.165,0.114-0.224,0.187
	c-0.107,0.146-0.162,0.382-0.162,0.702c0,0.156,0.009,0.288,0.025,0.394c0.02,0.104,0.049,0.194,0.098,0.268
	c0.047,0.074,0.113,0.14,0.205,0.201c0.094,0.059,0.207,0.116,0.345,0.171l1.228,0.496c0.313,0.128,0.566,0.265,0.771,0.406
	s0.366,0.322,0.491,0.538c0.123,0.214,0.209,0.475,0.261,0.777C162.634,19.183,162.66,19.557,162.66,19.996"/>
<polygon fill="#FFFFFF" points="167.012,14.75 167.012,22.792 165.059,22.792 165.059,14.75 163.404,14.75 163.404,12.987 
	168.665,12.987 168.665,14.75 "/>
<polygon fill="#FFFFFF" points="169.711,16.389 169.711,12.987 171.668,12.987 171.668,14.942 "/>
<path fill="#FFFFFF" d="M178.414,19.996c0,0.497-0.041,0.922-0.124,1.272c-0.082,0.355-0.255,0.656-0.509,0.903
	c-0.221,0.213-0.514,0.386-0.877,0.523c-0.362,0.138-0.779,0.208-1.26,0.208c-0.483,0-0.906-0.065-1.258-0.192
	c-0.354-0.129-0.642-0.305-0.861-0.524c-0.239-0.236-0.405-0.535-0.502-0.887c-0.1-0.355-0.146-0.783-0.146-1.289h1.952
	c0,0.202,0.016,0.377,0.037,0.524s0.078,0.271,0.171,0.372c0.058,0.063,0.133,0.118,0.229,0.165
	c0.096,0.047,0.224,0.068,0.377,0.068c0.285,0,0.492-0.079,0.621-0.246c0.127-0.157,0.189-0.433,0.189-0.827
	c0-0.229-0.012-0.42-0.033-0.571c-0.021-0.151-0.064-0.275-0.13-0.371c-0.063-0.097-0.149-0.177-0.265-0.242
	c-0.106-0.064-0.252-0.133-0.426-0.208l-1.24-0.509c-0.244-0.101-0.459-0.215-0.639-0.345c-0.182-0.127-0.324-0.285-0.436-0.467
	c-0.109-0.185-0.191-0.409-0.248-0.676c-0.057-0.265-0.082-0.591-0.082-0.978c0-0.459,0.072-0.872,0.221-1.238
	c0.146-0.367,0.365-0.681,0.661-0.937c0.238-0.202,0.505-0.355,0.798-0.462c0.293-0.104,0.629-0.157,1.004-0.157
	c0.851,0,1.49,0.207,1.93,0.62c0.27,0.247,0.461,0.565,0.58,0.949c0.119,0.385,0.178,0.827,0.178,1.323h-1.954
	c0-0.173-0.007-0.335-0.021-0.487s-0.063-0.283-0.145-0.393c-0.059-0.075-0.128-0.136-0.214-0.18
	c-0.089-0.046-0.204-0.068-0.354-0.068c-0.14,0-0.254,0.024-0.342,0.074c-0.094,0.051-0.167,0.114-0.222,0.187
	c-0.11,0.146-0.166,0.382-0.166,0.702c0,0.156,0.01,0.288,0.028,0.394c0.019,0.104,0.049,0.194,0.096,0.268
	c0.047,0.074,0.115,0.14,0.208,0.201c0.092,0.059,0.204,0.116,0.344,0.171l1.224,0.496c0.313,0.128,0.571,0.265,0.772,0.406
	s0.366,0.322,0.487,0.538c0.127,0.214,0.213,0.475,0.263,0.777C178.389,19.183,178.414,19.557,178.414,19.996"/>
<path fill="#FFFFFF" d="M187.074,21.269c-0.153,0.382-0.361,0.693-0.618,0.932c-0.249,0.238-0.522,0.414-0.824,0.53
	c-0.304,0.113-0.661,0.171-1.077,0.171c-0.275,0-0.518-0.026-0.734-0.076c-0.217-0.051-0.406-0.123-0.576-0.213
	c-0.174-0.091-0.324-0.195-0.454-0.313c-0.138-0.113-0.258-0.238-0.366-0.376c-0.191-0.23-0.338-0.507-0.441-0.833
	c-0.101-0.327-0.172-0.67-0.213-1.032c-0.039-0.364-0.063-0.732-0.067-1.102c-0.005-0.374-0.005-0.725-0.005-1.056
	c0-0.329,0-0.683,0.005-1.059c0.004-0.377,0.028-0.747,0.067-1.11c0.041-0.361,0.112-0.705,0.213-1.034
	c0.104-0.324,0.25-0.605,0.441-0.844c0.108-0.139,0.229-0.266,0.366-0.38c0.13-0.114,0.28-0.22,0.454-0.311
	c0.17-0.092,0.359-0.162,0.576-0.213c0.219-0.05,0.459-0.077,0.734-0.077c0.416,0,0.773,0.058,1.077,0.174
	c0.302,0.113,0.575,0.291,0.824,0.528c0.257,0.24,0.464,0.547,0.612,0.923c0.152,0.376,0.236,0.799,0.254,1.266h-1.955
	c-0.01-0.137-0.021-0.271-0.039-0.405c-0.021-0.132-0.057-0.25-0.112-0.352c-0.055-0.117-0.132-0.21-0.231-0.274
	c-0.104-0.065-0.242-0.096-0.43-0.096c-0.184,0-0.322,0.038-0.418,0.109c-0.098,0.075-0.172,0.166-0.227,0.276
	c-0.057,0.109-0.104,0.266-0.141,0.467c-0.035,0.203-0.064,0.433-0.08,0.688c-0.021,0.256-0.03,0.533-0.037,0.827
	c-0.006,0.294-0.006,0.588-0.006,0.881s0,0.589,0.006,0.882c0.007,0.294,0.018,0.57,0.037,0.826c0.016,0.256,0.045,0.489,0.08,0.688
	c0.037,0.202,0.084,0.357,0.141,0.468c0.055,0.111,0.129,0.202,0.227,0.275c0.096,0.074,0.234,0.109,0.418,0.109
	c0.188,0,0.33-0.032,0.437-0.102c0.104-0.068,0.187-0.164,0.241-0.283c0.056-0.099,0.092-0.218,0.109-0.35
	c0.016-0.134,0.031-0.269,0.04-0.408h1.953C187.316,20.465,187.23,20.89,187.074,21.269"/>
<polygon fill="#FFFFFF" points="192.088,22.792 192.088,18.688 190.463,18.688 190.463,22.792 188.509,22.792 188.509,12.987 
	190.463,12.987 190.463,16.927 192.088,16.927 192.088,12.987 194.043,12.987 194.043,22.792 "/>
<path fill="#FFFFFF" d="M200.841,21.242c-0.126,0.326-0.309,0.608-0.547,0.848c-0.522,0.542-1.202,0.813-2.034,0.813
	c-0.839,0-1.519-0.271-2.039-0.813c-0.238-0.239-0.421-0.521-0.545-0.848c-0.126-0.324-0.187-0.685-0.187-1.082v-7.173h1.954v7.27
	c0,0.322,0.08,0.548,0.242,0.682c0.16,0.132,0.35,0.198,0.572,0.198c0.219,0,0.408-0.066,0.567-0.198
	c0.159-0.134,0.239-0.36,0.239-0.682v-7.27h1.959v7.173C201.025,20.557,200.962,20.918,200.841,21.242"/>
<path fill="#FFFFFF" d="M206.27,22.793l-1.193-3.816h-0.646v3.816h-1.957v-9.806h2.797c0.531,0,0.978,0.069,1.328,0.207
	c0.354,0.136,0.633,0.332,0.84,0.584c0.209,0.254,0.354,0.567,0.437,0.939c0.083,0.37,0.125,0.792,0.125,1.258
	c0,0.268-0.017,0.523-0.042,0.764c-0.029,0.245-0.083,0.477-0.159,0.696c-0.077,0.222-0.192,0.425-0.335,0.613
	c-0.15,0.189-0.344,0.356-0.58,0.503l1.43,4.243L206.27,22.793L206.27,22.793z M206.036,15.975c0-0.137-0.007-0.279-0.021-0.426
	c-0.015-0.148-0.043-0.281-0.097-0.4c-0.051-0.118-0.128-0.215-0.231-0.29c-0.106-0.071-0.252-0.108-0.436-0.108h-0.827v2.465h0.827
	c0.184,0,0.327-0.04,0.436-0.117c0.104-0.079,0.183-0.177,0.231-0.296c0.054-0.12,0.082-0.254,0.097-0.4
	C206.029,16.255,206.036,16.112,206.036,15.975"/>
<path fill="#FFFFFF" d="M214.507,21.269c-0.155,0.382-0.362,0.693-0.622,0.932c-0.246,0.238-0.521,0.414-0.822,0.53
	c-0.306,0.113-0.662,0.171-1.076,0.171c-0.273,0-0.521-0.026-0.734-0.076c-0.218-0.051-0.41-0.123-0.578-0.213
	c-0.173-0.091-0.32-0.195-0.455-0.313c-0.134-0.113-0.256-0.238-0.363-0.376c-0.194-0.23-0.34-0.507-0.44-0.833
	c-0.101-0.327-0.172-0.67-0.214-1.032c-0.043-0.364-0.063-0.732-0.069-1.102c-0.005-0.374-0.007-0.725-0.007-1.056
	c0-0.329,0.002-0.683,0.007-1.059c0.007-0.377,0.026-0.747,0.069-1.11c0.042-0.361,0.113-0.705,0.214-1.034
	c0.101-0.324,0.246-0.605,0.44-0.844c0.107-0.139,0.229-0.266,0.363-0.38c0.135-0.114,0.282-0.22,0.455-0.311
	c0.168-0.092,0.36-0.162,0.578-0.213c0.216-0.05,0.461-0.077,0.734-0.077c0.414,0,0.771,0.058,1.076,0.174
	c0.304,0.113,0.576,0.291,0.822,0.528c0.26,0.24,0.463,0.547,0.616,0.923c0.151,0.376,0.235,0.799,0.254,1.266h-1.957
	c-0.009-0.137-0.021-0.271-0.041-0.405c-0.019-0.132-0.056-0.25-0.11-0.352c-0.051-0.117-0.131-0.21-0.231-0.274
	c-0.103-0.065-0.244-0.096-0.429-0.096c-0.184,0-0.321,0.038-0.42,0.109c-0.096,0.075-0.172,0.166-0.227,0.276
	c-0.057,0.109-0.104,0.266-0.139,0.467c-0.039,0.203-0.064,0.433-0.083,0.688c-0.017,0.256-0.028,0.533-0.032,0.827
	c-0.006,0.294-0.011,0.588-0.011,0.881s0.005,0.589,0.011,0.882c0.004,0.294,0.016,0.57,0.032,0.826
	c0.019,0.256,0.044,0.489,0.083,0.688c0.035,0.202,0.082,0.357,0.139,0.468c0.055,0.111,0.131,0.202,0.227,0.275
	c0.099,0.074,0.236,0.109,0.42,0.109c0.185,0,0.33-0.032,0.436-0.102c0.105-0.068,0.188-0.164,0.239-0.283
	c0.058-0.099,0.093-0.218,0.11-0.35c0.02-0.134,0.031-0.269,0.043-0.408h1.953C214.748,20.465,214.664,20.89,214.507,21.269"/>
<polygon fill="#FFFFFF" points="219.52,22.792 219.52,18.688 217.896,18.688 217.896,22.792 215.938,22.792 215.938,12.987 
	217.896,12.987 217.896,16.927 219.52,16.927 219.52,12.987 221.475,12.987 221.475,22.792 "/>
<path fill="#FFFFFF" d="M137.625,31.531c0,0.865-0.009,1.568-0.029,2.104c-0.019,0.538-0.057,0.969-0.111,1.292
	c-0.053,0.323-0.129,0.578-0.221,0.759c-0.093,0.176-0.22,0.344-0.379,0.494c-0.166,0.157-0.371,0.278-0.613,0.363
	c-0.242,0.087-0.506,0.128-0.791,0.128c-0.289,0-0.551-0.041-0.795-0.128c-0.242-0.085-0.443-0.206-0.61-0.363
	c-0.158-0.15-0.285-0.318-0.38-0.494c-0.094-0.181-0.166-0.436-0.221-0.759c-0.056-0.323-0.093-0.754-0.11-1.292
	c-0.021-0.535-0.03-1.238-0.03-2.104c0-0.866,0.01-1.566,0.03-2.106c0.02-0.536,0.057-0.966,0.11-1.291
	c0.053-0.325,0.127-0.577,0.221-0.755c0.095-0.179,0.222-0.344,0.38-0.496c0.167-0.156,0.368-0.283,0.61-0.367
	c0.244-0.084,0.506-0.127,0.795-0.127c0.285,0,0.549,0.043,0.791,0.127s0.447,0.211,0.613,0.367
	c0.159,0.152,0.286,0.317,0.379,0.496c0.092,0.178,0.168,0.43,0.221,0.755c0.057,0.325,0.095,0.755,0.111,1.291
	C137.616,29.965,137.625,30.665,137.625,31.531 M137.033,31.531c0-0.838-0.008-1.512-0.021-2.014
	c-0.016-0.502-0.041-0.903-0.082-1.203c-0.039-0.297-0.096-0.517-0.172-0.662c-0.072-0.146-0.17-0.279-0.287-0.401
	c-0.227-0.233-0.559-0.353-0.99-0.353c-0.436,0-0.769,0.117-0.992,0.353c-0.117,0.122-0.217,0.255-0.287,0.401
	c-0.074,0.146-0.135,0.365-0.172,0.662c-0.041,0.3-0.066,0.701-0.08,1.203c-0.02,0.502-0.021,1.176-0.021,2.014
	s0.006,1.508,0.021,2.014c0.014,0.505,0.039,0.905,0.08,1.201c0.037,0.296,0.098,0.52,0.172,0.666
	c0.07,0.143,0.17,0.275,0.287,0.398c0.226,0.236,0.559,0.352,0.992,0.352s0.766-0.113,0.99-0.352
	c0.117-0.123,0.215-0.256,0.287-0.398c0.076-0.146,0.133-0.37,0.172-0.666c0.041-0.296,0.066-0.696,0.082-1.201
	C137.025,33.039,137.033,32.369,137.033,31.531"/>
<polygon fill="#FFFFFF" points="141.922,27.01 141.922,31.273 144.803,31.275 144.803,31.782 141.922,31.781 141.922,36.559 
	141.355,36.559 141.355,26.5 145.172,26.501 145.172,27.011 "/>
<polygon fill="#FFFFFF" points="155.863,27.011 155.863,36.561 155.3,36.561 155.3,27.011 153.618,27.011 153.618,26.501 
	157.828,26.501 157.828,27.011 "/>
<polygon fill="#FFFFFF" points="165.159,36.561 165.159,31.698 161.91,31.698 161.91,36.561 161.346,36.561 161.346,26.501 
	161.91,26.501 161.91,31.189 165.159,31.189 165.159,26.501 165.725,26.501 165.725,36.561 "/>
<polygon fill="#FFFFFF" points="169.949,36.25 169.949,26.501 173.197,26.501 173.197,27.011 170.514,27.011 170.514,31.275 
	172.83,31.275 172.83,31.782 170.514,31.782 170.514,35.741 173.197,35.741 173.197,36.25 "/>
<polygon fill="#FFFFFF" points="183.803,36.561 183.268,36.561 181.148,26.501 181.77,26.501 183.532,35.4 185.3,26.501 
	185.923,26.501 "/>
<path fill="#FFFFFF" d="M192.385,36.561l-0.605-3.022h-2.346l-0.594,3.022h-0.623l2.16-10.06h0.512l2.119,10.06H192.385z
	 M190.605,27.658l-1.062,5.365h2.136L190.605,27.658z"/>
<polygon fill="#FFFFFF" points="197.169,36.561 197.169,26.501 197.734,26.501 197.734,36.051 200.423,36.051 200.423,36.561 "/>
<polygon fill="#FFFFFF" points="204.221,36.561 204.221,26.501 204.785,26.501 204.785,36.051 207.471,36.051 207.471,36.561 "/>
<polygon fill="#FFFFFF" points="211.27,36.561 211.27,26.501 214.521,26.501 214.521,27.011 211.835,27.011 211.835,31.275 
	214.152,31.275 214.152,31.782 211.835,31.782 211.835,36.051 214.521,36.051 214.521,36.561 "/>
<polygon fill="#FFFFFF" points="219.768,32.251 219.768,36.561 219.199,36.561 219.199,32.251 217.505,26.501 218.128,26.501 
	219.482,31.316 220.854,26.501 221.475,26.501 "/>
</svg>
