<svg xmlns="http://www.w3.org/2000/svg" width="792" height="612" viewBox="0 0 792 612"><path fill="#fff" d="M375.235 297.17c-.63-.264-1.354.285-1.994 1.148-.507.687-.912 2.326-.194 2.696 1.02.526 1.983-.76 2.357-1.41.45-.762.672-2.07-.168-2.433zM388.14 297.14c-.63-.272-1.355.283-1.99 1.143-.507.687-.915 2.324-.196 2.698 1.02.528 1.983-.763 2.356-1.408.448-.77.673-2.073-.17-2.433zM408.084 296.78c-.628-.27-1.354.285-1.99 1.15-.51.684-.915 2.323-.196 2.692 1.023.53 1.983-.763 2.357-1.404.446-.77.675-2.073-.17-2.437zM381.488 299.085c-.985-1.18-9.255 2.456-9.768 6.31-.626 4.685 7.28 10.464 8.21 8.714.394-.74-6.39-3.992-4.612-8.476 1.854-4.69 7.063-5.477 6.17-6.55zM394.312 299.116c-.984-1.18-9.255 2.455-9.77 6.31-.624 4.688 6.918 10.566 8.208 8.717.483-.687-6.39-3.99-4.61-8.48 1.854-4.69 7.066-5.477 6.172-6.547zM398.55 298.372c-.747.038-.822.208-.88.476-.14.593 3.547 4.71 4.172 7.462.685 3.035.487 7.448.644 7.8.186.426.608.205 1.22.272.612.068 1.135.51 1.49.204.206-.204 2.483-7.75 6.922-11.53 4.614-3.93 9.465-6.04 9.564-6.444.063-.25-.882-.747-1.764-.817-.884-.07-5.68 2.19-9.092 5.36-3.546 3.307-5.425 7.46-6.037 7.395-.202-.024-.507-1.815-1.898-4.95-1.513-3.414-3.584-5.262-4.342-5.228z"/></svg>