<!-- Generated by IcoMoon.io -->
<svg version="1.1" xmlns="http://www.w3.org/2000/svg" width="32" height="32" viewBox="0 0 32 32">
<title>audio</title>
<path d="M28.093 24.893v-10.347c0-6.672-5.408-12.080-12.080-12.080s-12.080 5.408-12.080 12.080v0 10.333h1.4c0.636 1.957 2.443 3.347 4.575 3.347 0.004 0 0.008 0 0.013-0h-0.001v0.6c-0 0.008-0.001 0.017-0.001 0.027 0 0.324 0.263 0.587 0.587 0.587 0.005 0 0.010-0 0.015-0h1.213c0.008 0 0.018 0.001 0.027 0.001 0.324 0 0.587-0.263 0.587-0.587 0-0.010-0-0.019-0.001-0.029l0 0.001v-10.893c-0.001-0.17-0.067-0.325-0.174-0.44l0 0c-0.112-0.099-0.261-0.16-0.423-0.16-0.001 0-0.002 0-0.004 0h-1.213c-0.007-0-0.015-0-0.024-0-0.156 0-0.298 0.061-0.403 0.161l0-0c-0.107 0.106-0.174 0.254-0.174 0.417 0 0.008 0 0.016 0.001 0.024l-0-0.001v0.6c-0.011-0-0.024-0-0.037-0-0.898 0-1.737 0.253-2.45 0.692l0.020-0.012-0.213 0.173v-4.827c0-4.831 3.916-8.747 8.747-8.747s8.747 3.916 8.747 8.747v0 4.827l-0.213-0.173c-0.692-0.427-1.532-0.68-2.43-0.68-0.013 0-0.026 0-0.039 0h0.002v-0.6c0-0.007 0-0.015 0-0.023 0-0.163-0.066-0.31-0.174-0.417l-0-0c-0.105-0.099-0.247-0.16-0.403-0.16-0.008 0-0.017 0-0.025 0l0.001-0h-1.213c-0.005-0-0.011-0-0.016-0-0.163 0-0.311 0.061-0.424 0.161l0.001-0.001c-0.107 0.115-0.172 0.27-0.173 0.44v10.907c-0 0.008-0.001 0.018-0.001 0.027 0 0.324 0.263 0.587 0.587 0.587 0.010 0 0.019-0 0.029-0.001l-0.001 0h1.213c0.004 0 0.009 0 0.014 0 0.324 0 0.587-0.263 0.587-0.587 0-0.009-0-0.019-0.001-0.028l0 0.001v-0.6c0.008 0 0.016 0 0.025 0 2.132 0 3.939-1.39 4.565-3.313l0.010-0.034z"></path>
</svg>
