<!-- Generated by IcoMoon.io -->
<svg version="1.1" xmlns="http://www.w3.org/2000/svg" width="32" height="32" viewBox="0 0 32 32">
<title>branch</title>
<path d="M9.653 8.413c5.667 3.053 5.787 2.48 5.787 8.92-5.667-3.053-5.787-2.48-5.787-8.893z"></path>
<path d="M22.32 8.413c-5.667 3.053-5.787 2.48-5.787 8.92 5.667-3.053 5.787-2.48 5.787-8.893z"></path>
<path d="M9.253 15.16c6.093 3.267 6.213 2.667 6.213 9.547-6.093-3.267-6.213-2.667-6.213-9.547z"></path>
<path d="M22.747 15.16c-6.093 3.267-6.213 2.667-6.213 9.547 6.093-3.267 6.213-2.667 6.213-9.547z"></path>
<path d="M16 26.36v0l-1.333-0.693v4.813h2.667v-4.853z"></path>
<path d="M16.067 11.187c-3.24-4.16-3.533-4.8 0-9.667 3.52 4.867 3.227 5.507 0 9.667z"></path>
</svg>
