<!-- Generated by IcoMoon.io -->
<svg version="1.1" xmlns="http://www.w3.org/2000/svg" width="32" height="32" viewBox="0 0 32 32">
<title>calendar</title>
<path d="M25.907 6.667h-1.907v-1.333c-0.105-1.497-1.346-2.671-2.86-2.671s-2.755 1.174-2.86 2.662l-0 0.009v1.333h-4.56v-1.333c-0.105-1.497-1.346-2.671-2.86-2.671s-2.755 1.174-2.86 2.662l-0.001 0.009v1.333h-1.907c-0 0-0 0-0 0-1.338 0-2.425 1.077-2.44 2.412v20.495h24.693v-20.493c-0.015-1.336-1.102-2.413-2.44-2.413-0 0-0 0-0 0v0zM20.2 8v-2.32c0-0.515 0.418-0.933 0.933-0.933s0.933 0.418 0.933 0.933v3.72h-1.867zM9.907 8v-2.32c0-0.515 0.418-0.933 0.933-0.933s0.933 0.418 0.933 0.933v3.72h-1.867zM25.013 26.667h-18.16v-13.333h18.16z"></path>
<path d="M19.187 15.773h3.467v3.467h-3.467v-3.467z"></path>
<path d="M19.187 20.72h3.467v3.467h-3.467v-3.467z"></path>
<path d="M14.24 15.773h3.467v3.467h-3.467v-3.467z"></path>
<path d="M14.24 20.72h3.467v3.467h-3.467v-3.467z"></path>
<path d="M9.293 15.773h3.467v3.467h-3.467v-3.467z"></path>
<path d="M9.293 20.72h3.467v3.467h-3.467v-3.467z"></path>
</svg>
