<!-- Generated by IcoMoon.io -->
<svg version="1.1" xmlns="http://www.w3.org/2000/svg" width="32" height="32" viewBox="0 0 32 32">
<title>close</title>
<path d="M27.227 23.347l-7.347-7.347 7.333-7.347c0.044-0.037 0.072-0.092 0.072-0.153s-0.028-0.116-0.071-0.153l-0-0-3.56-3.56c-0.037-0.044-0.092-0.072-0.153-0.072s-0.116 0.028-0.153 0.071l-0 0-7.347 7.347-7.347-7.347c-0.037-0.044-0.092-0.072-0.153-0.072s-0.116 0.028-0.153 0.071l-0 0-3.56 3.56c-0.044 0.037-0.072 0.092-0.072 0.153s0.028 0.116 0.071 0.153l0 0 7.333 7.347-7.347 7.347c-0.037 0.040-0.060 0.094-0.060 0.153s0.023 0.113 0.060 0.154l-0-0 3.573 3.56c0.037 0.044 0.092 0.072 0.153 0.072s0.116-0.028 0.153-0.071l0-0 7.347-7.333 7.347 7.333c0.037 0.044 0.092 0.072 0.153 0.072s0.116-0.028 0.153-0.071l0-0 3.573-3.56c0.037-0.040 0.060-0.094 0.060-0.153s-0.023-0.113-0.060-0.154l0 0z"></path>
</svg>
