<!-- Generated by IcoMoon.io -->
<svg version="1.1" xmlns="http://www.w3.org/2000/svg" width="30" height="32" viewBox="0 0 30 32">
<title>give</title>
<path d="M18.413 25.76v-14.2h-6.347v14.2c-0.001 0.015-0.001 0.032-0.001 0.049 0 0.291 0.141 0.549 0.359 0.709l0.002 0.002c0.224 0.176 0.51 0.283 0.821 0.283 0.030 0 0.060-0.001 0.090-0.003l-0.004 0h3.813c0.016 0.001 0.034 0.001 0.052 0.001 0.322 0 0.619-0.105 0.858-0.284l-0.004 0.003c0.22-0.162 0.361-0.42 0.361-0.711 0-0.017-0-0.034-0.001-0.051l0 0.002zM9.333 9.013h3.907l-2.507-3.187c-0.315-0.385-0.791-0.628-1.323-0.628-0.027 0-0.054 0.001-0.081 0.002l0.004-0c-1.034 0.015-1.867 0.857-1.867 1.893 0 0.005 0 0.010 0 0.014v-0.001c-0 0.007-0 0.016-0 0.024 0 0.512 0.209 0.975 0.547 1.309l0 0c0.335 0.346 0.801 0.564 1.318 0.573l0.002 0zM23.013 7.107c0-0.002 0-0.005 0-0.008 0-0.517-0.209-0.986-0.547-1.325l0 0c-0.337-0.346-0.807-0.56-1.327-0.56-0.002 0-0.004 0-0.006 0h0c-0.007-0-0.016-0-0.024-0-0.528 0-0.998 0.243-1.306 0.624l-0.002 0.003-2.467 3.173h3.84c0.012 0 0.026 0 0.040 0 1.031 0 1.867-0.836 1.867-1.867 0-0.014-0-0.028-0-0.043l0 0.002zM30.48 12.187v6.347c0 0.004 0 0.010 0 0.015 0 0.176-0.071 0.336-0.187 0.452v0c-0.108 0.108-0.258 0.174-0.423 0.174-0.011 0-0.022-0-0.032-0.001l0.002 0h-1.84v8.253c0 0.004 0 0.010 0 0.015 0 1.046-0.848 1.893-1.893 1.893-0.028 0-0.056-0.001-0.084-0.002l0.004 0h-21.587c-0.003 0-0.007 0-0.011 0-0.519 0-0.987-0.214-1.321-0.56l-0-0c-0.345-0.329-0.56-0.792-0.56-1.305 0-0.010 0-0.020 0-0.030l-0 0.002v-8.267h-1.907c-0.008 0-0.018 0.001-0.028 0.001-0.17 0-0.324-0.066-0.439-0.174l0 0c-0.108-0.114-0.174-0.269-0.174-0.439 0-0.010 0-0.020 0.001-0.029l-0 0.001v-6.347c-0.001-0.009-0.001-0.020-0.001-0.031 0-0.165 0.067-0.314 0.174-0.423l-0 0c0.114-0.108 0.269-0.174 0.439-0.174 0.010 0 0.020 0 0.029 0.001l-0.001-0h8.693c-0.012 0-0.026 0-0.040 0-1.218 0-2.316-0.512-3.091-1.332l-0.002-0.002c-0.822-0.781-1.334-1.883-1.334-3.104 0-0.015 0-0.030 0-0.045l-0 0.002c0.016-1.216 0.535-2.307 1.358-3.078l0.002-0.002c0.775-0.822 1.871-1.333 3.087-1.333 0.007 0 0.014 0 0.021 0h-0.001c0.054-0.003 0.117-0.004 0.181-0.004 1.276 0 2.413 0.598 3.146 1.529l0.007 0.009 2.573 3.267 2.533-3.267c0.739-0.94 1.876-1.537 3.152-1.537 0.064 0 0.127 0.002 0.19 0.004l-0.009-0c0.014-0 0.031-0 0.048-0 1.219 0 2.319 0.512 3.097 1.332l0.002 0.002c0.822 0.784 1.334 1.887 1.334 3.11 0 0.013-0 0.026-0 0.039v-0.002c0 0.013 0 0.027 0 0.042 0 1.221-0.511 2.323-1.332 3.103l-0.002 0.002c-0.781 0.822-1.883 1.334-3.104 1.334-0.015 0-0.030-0-0.045-0l0.002 0h8.733c0.009-0.001 0.020-0.001 0.031-0.001 0.165 0 0.314 0.066 0.423 0.174l-0-0c0.103 0.099 0.172 0.234 0.186 0.384l0 0.002z"></path>
</svg>
