<!-- Generated by IcoMoon.io -->
<svg version="1.1" xmlns="http://www.w3.org/2000/svg" width="32" height="32" viewBox="0 0 32 32">
<title>lock</title>
<path d="M26.373 15.32c-0.318-0.33-0.764-0.535-1.258-0.535-0.026 0-0.053 0.001-0.079 0.002l0.004-0h-0.613v-3.627c0.001-0.036 0.001-0.078 0.001-0.12 0-2.303-0.956-4.383-2.492-5.864l-0.002-0.002c-1.491-1.546-3.581-2.507-5.896-2.507-0.013 0-0.026 0-0.040 0h0.002c-0.027-0-0.059-0.001-0.091-0.001-2.315 0-4.405 0.961-5.894 2.505l-0.002 0.002c-1.539 1.484-2.494 3.564-2.494 5.867 0 0.042 0 0.084 0.001 0.126l-0-0.006v3.627h-0.613c-1.003 0.008-1.813 0.822-1.813 1.827 0 0 0 0 0 0v0 12.72h21.813v-12.72c0-0.011 0-0.024 0-0.037 0-0.493-0.204-0.939-0.533-1.256l-0-0zM17.333 24.92h-2.667v-5.173h2.667zM20.853 14.787h-9.707v-3.627c-0-0.021-0.001-0.045-0.001-0.070 0-1.322 0.547-2.516 1.426-3.369l0.001-0.001c0.879-0.872 2.090-1.411 3.427-1.411s2.547 0.539 3.427 1.411l-0-0c0.881 0.854 1.427 2.048 1.427 3.37 0 0.024-0 0.049-0.001 0.073l0-0.004z"></path>
</svg>
