<!-- Generated by IcoMoon.io -->
<svg version="1.1" xmlns="http://www.w3.org/2000/svg" width="32" height="32" viewBox="0 0 32 32">
<title>login</title>
<path d="M27.227 19.467c-0.998-1.762-2.686-3.034-4.687-3.459l-0.046-0.008c-1.668 1.648-3.962 2.666-6.493 2.666s-4.825-1.018-6.494-2.667l0.001 0.001c-2.047 0.432-3.735 1.705-4.715 3.432l-0.018 0.035c-1.26 2.503-2.234 5.408-2.772 8.462l-0.028 0.191c-0.002 0.011-0.003 0.023-0.003 0.035 0 0.11 0.074 0.202 0.174 0.231l0.002 0c4.106 0.547 8.908 0.889 13.779 0.946l0.074 0.001c4.945-0.058 9.748-0.4 14.466-1.012l-0.613 0.065c0.102-0.029 0.176-0.122 0.176-0.231 0-0.012-0.001-0.025-0.003-0.037l0 0.001c-0.566-3.246-1.54-6.15-2.883-8.837l0.083 0.184z"></path>
<path d="M16 16c3.682 0 6.667-2.985 6.667-6.667s-2.985-6.667-6.667-6.667c-3.682 0-6.667 2.985-6.667 6.667v0c0 3.682 2.985 6.667 6.667 6.667v0z"></path>
</svg>
