<!-- Generated by IcoMoon.io -->
<svg version="1.1" xmlns="http://www.w3.org/2000/svg" width="32" height="32" viewBox="0 0 32 32">
<title>logomark</title>
<path d="M30.667 15.12v0 0c-0.364-5.45-3.653-10.053-8.299-12.282l-0.088-0.038c-0.213-0.093-0.413-0.187-0.64-0.267-0.256-0.123-0.574-0.249-0.901-0.357l-0.059-0.017h-0.093c-1.403-0.497-3.020-0.784-4.705-0.784-4.969 0-9.355 2.499-11.97 6.308l-0.032 0.049c-0.73 1.058-1.337 2.278-1.759 3.581l-0.028 0.099v0.080c-0.1 0.286-0.201 0.652-0.281 1.027l-0.012 0.067c-0.253 1.019-0.398 2.19-0.398 3.394 0 6.469 4.188 11.96 10.001 13.909l0.103 0.030c1.132 0.384 2.44 0.634 3.797 0.692l0.030 0.001h15.333zM10.667 11.667v13.4c-3.14-1.856-5.213-5.224-5.213-9.076 0-5.803 4.704-10.507 10.507-10.507s10.507 4.704 10.507 10.507c0 3.109-1.351 5.903-3.497 7.827l-0.010 0.009v-12.16h-3.867l0.227 10.107-5.253-10.107zM14.533 20.133l3.64 6.133c-0.657 0.149-1.412 0.234-2.187 0.234-0.508 0-1.007-0.037-1.495-0.107l0.056 0.007z"></path>
</svg>
