<!-- Generated by IcoMoon.io -->
<svg version="1.1" xmlns="http://www.w3.org/2000/svg" width="32" height="32" viewBox="0 0 32 32">
<title>menu</title>
<path d="M29.333 18.48c-0.007-0.122-0.104-0.22-0.226-0.227l-0.001-0h-26.227c-0.122 0.007-0.22 0.104-0.227 0.226l-0 0.001v4.373c0 0 0 0 0 0 0 0.12 0.094 0.219 0.213 0.226l0.001 0h26.267c0.119-0.007 0.213-0.106 0.213-0.226 0-0 0-0 0-0v0z"></path>
<path d="M29.333 9.147c-0.007-0.122-0.104-0.22-0.226-0.227l-0.001-0h-26.227c-0.117 0.013-0.207 0.108-0.213 0.226l-0 0.001v4.373c0 0 0 0 0 0 0 0.12 0.094 0.219 0.213 0.226l0.001 0h26.267c0.119-0.007 0.213-0.106 0.213-0.226 0-0 0-0 0-0v0z"></path>
</svg>
