<!-- Generated by IcoMoon.io -->
<svg version="1.1" xmlns="http://www.w3.org/2000/svg" width="32" height="32" viewBox="0 0 32 32">
<title>open</title>
<path d="M29.133 13.333h-10.4v-10.467c-0.007-0.112-0.1-0.2-0.213-0.2-0 0-0 0-0 0h-5.040c-0.119 0.007-0.213 0.106-0.213 0.226 0 0 0 0 0 0v-0 10.44h-10.4c-0.118 0-0.213 0.095-0.213 0.213v0 5.040c0.007 0.119 0.106 0.213 0.226 0.213 0 0 0 0 0 0h10.453v10.387c0 0 0 0 0 0 0 0.12 0.094 0.219 0.213 0.226l0.001 0h5.040c0.118 0 0.213-0.096 0.213-0.213v-10.4h10.387c0 0 0 0 0 0 0.12 0 0.219-0.094 0.226-0.213l0-0.001v-5.107c-0.025-0.093-0.108-0.16-0.206-0.16-0.026 0-0.052 0.005-0.075 0.014l0.001-0z"></path>
</svg>
