<!-- Generated by IcoMoon.io -->
<svg version="1.1" xmlns="http://www.w3.org/2000/svg" width="32" height="32" viewBox="0 0 32 32">
<title>search</title>
<path d="M29.4 25.227l-6.187-6.187c0.859-1.513 1.365-3.324 1.365-5.253 0-0.579-0.046-1.147-0.133-1.702l0.008 0.061c-0.323-2.48-1.455-4.649-3.118-6.278l-0.002-0.002c-1.713-1.689-3.957-2.845-6.46-3.193l-0.060-0.007c-0.361-0.042-0.78-0.066-1.204-0.066-3.060 0-5.827 1.249-7.821 3.265l-0.001 0.001c-1.985 1.955-3.215 4.673-3.215 7.677 0 0.504 0.035 1 0.102 1.486l-0.006-0.056c0.307 2.534 1.43 4.761 3.095 6.455l-0.002-0.002c1.679 1.657 3.867 2.801 6.309 3.178l0.064 0.008c0.416 0.056 0.896 0.089 1.385 0.089 2.031 0 3.933-0.558 5.558-1.529l-0.050 0.027 6.227 6.133zM8.707 18.56c-1.263-1.264-2.044-3.010-2.044-4.938 0-0.575 0.070-1.135 0.201-1.67l-0.010 0.048c0.628-2.534 2.601-4.485 5.1-5.071l0.046-0.009c0.515-0.139 1.106-0.218 1.716-0.218 1.885 0 3.592 0.761 4.831 1.992l-0-0c1.257 1.265 2.034 3.008 2.034 4.933 0 0.539-0.061 1.063-0.176 1.567l0.009-0.047c-0.772 3.089-3.523 5.341-6.801 5.341-1.898 0-3.62-0.756-4.881-1.982l0.002 0.002z"></path>
</svg>
