<!-- Generated by IcoMoon.io -->
<svg version="1.1" xmlns="http://www.w3.org/2000/svg" width="32" height="32" viewBox="0 0 32 32">
<title>videochat</title>
<path d="M23.893 29.52l-11.16-5.333h-7.493c-2.485-0.080-4.469-2.114-4.469-4.611 0-0.052 0.001-0.105 0.003-0.157l-0 0.008v-12.213c-0.001-0.040-0.002-0.088-0.002-0.135 0-2.494 1.985-4.525 4.462-4.598l0.007-0h21.52c2.483 0.073 4.469 2.104 4.469 4.598 0 0.048-0.001 0.095-0.002 0.142l0-0.007v12.213c0.001 0.040 0.002 0.088 0.002 0.136 0 2.497-1.984 4.531-4.461 4.611l-0.007 0h-2.893zM5.24 5.44c-0.85 0.075-1.511 0.784-1.511 1.647 0 0.044 0.002 0.088 0.005 0.132l-0-0.006v12.213c-0.004 0.042-0.006 0.090-0.006 0.139 0 0.864 0.662 1.572 1.506 1.647l0.006 0h8.173l7.493 3.587v-3.587h5.88c0.851-0.075 1.513-0.784 1.513-1.647 0-0.049-0.002-0.098-0.006-0.146l0 0.006v-12.213c0.003-0.038 0.005-0.082 0.005-0.126 0-0.863-0.661-1.572-1.505-1.647l-0.006-0z"></path>
<path d="M12.587 8.933v8.52l7.413-4.253z"></path>
</svg>
