<!-- Generated by IcoMoon.io -->
<svg version="1.1" xmlns="http://www.w3.org/2000/svg" width="32" height="32" viewBox="0 0 32 32">
<title>writebox</title>
<path d="M22.733 6.667l-11.293 11.28v4.84h4.84l11.293-11.293zM15.613 21.173h-0.947v-1.613h-1.613v-0.893l1.947-1.947 2.56 2.547zM17.107 15.52c-0.071 0.074-0.17 0.12-0.28 0.12-0.214 0-0.387-0.173-0.387-0.387 0-0.11 0.046-0.209 0.12-0.28l0-0 5.893-5.88c0.068-0.068 0.163-0.11 0.267-0.11 0.208 0 0.377 0.169 0.377 0.377 0 0.104-0.042 0.198-0.11 0.267v0z"></path>
<path d="M30.2 8.88l-1.547 1.547-4.84-4.84 1.52-1.587c0.29-0.295 0.694-0.477 1.14-0.477s0.85 0.183 1.14 0.477l0 0 2.56 2.547c0.289 0.295 0.468 0.7 0.468 1.147s-0.178 0.851-0.468 1.147l0-0z"></path>
<path d="M21.893 21.24v4.827h-18.187v-18.933h14.533l2.373-2.36h-19.28v23.667h22.933v-9.573l-2.373 2.373z"></path>
</svg>
