<svg xmlns="http://www.w3.org/2000/svg" fill="none" viewBox="0 0 18 18"><path fill="#EA4335" fill-rule="evenodd" d="M9 3.48c1.69 0 2.83.73 3.48 1.34l2.54-2.48A9 9 0 0 0 .96 4.96l2.91 2.26A5.44 5.44 0 0 1 9 3.48Z" clip-rule="evenodd"/><path fill="#4285F4" fill-rule="evenodd" d="M17.64 9.2c0-.74-.06-1.28-.19-1.84H9v3.34h4.96a4.4 4.4 0 0 1-1.84 2.92l2.84 2.2a8.8 8.8 0 0 0 2.68-6.62Z" clip-rule="evenodd"/><path fill="#FBBC05" fill-rule="evenodd" d="M3.88 10.78a5.54 5.54 0 0 1-.01-3.56L.96 4.96a9 9 0 0 0 0 8.08l2.92-2.26Z" clip-rule="evenodd"/><path fill="#34A853" fill-rule="evenodd" d="M9 18c2.43 0 4.47-.8 5.96-2.18l-2.84-2.2c-.76.53-1.78.9-3.12.9a5.42 5.42 0 0 1-5.12-3.74L.97 13.04A8.98 8.98 0 0 0 9 18Z" clip-rule="evenodd"/></svg>