<?xml version="1.0" encoding="utf-8"?>
<!-- Generator: Adobe Illustrator 16.0.0, SVG Export Plug-In . SVG Version: 6.00 Build 0)  -->
<!DOCTYPE svg PUBLIC "-//W3C//DTD SVG 1.1//EN" "http://www.w3.org/Graphics/SVG/1.1/DTD/svg11.dtd">
<svg version="1.1" id="Layer_1" xmlns="http://www.w3.org/2000/svg" xmlns:xlink="http://www.w3.org/1999/xlink" x="0px" y="0px"
	 width="470.667px" height="52px" viewBox="0 0 470.667 52" enable-background="new 0 0 470.667 52" xml:space="preserve">
<path fill-rule="evenodd" clip-rule="evenodd" fill="#515251" d="M11.638,33.051l19.013-19.247l3.991,5.516l7.16-6.22l2.347,2.113
	L54.712,1.011l9.389,11.736l2.817-2.229l29.333,32.346c-0.595,2.847-1.443,5.599-2.519,8.234l-0.365-0.094
	c-0.249-0.066-0.509-0.097-0.747-0.192c-27.338-10.99-58.903-11.818-86.902-2.819l-2.075-0.256
	c-1.064-3.298-1.782-6.75-2.108-10.318L11.638,33.051z"/>
<linearGradient id="SVGID_1_" gradientUnits="userSpaceOnUse" x1="48.3784" y1="45.5103" x2="48.7795" y2="11.4149">
	<stop  offset="0" style="stop-color:#939598"/>
	<stop  offset="1" style="stop-color:#C9CACC"/>
</linearGradient>
<path fill-rule="evenodd" clip-rule="evenodd" fill="url(#SVGID_1_)" d="M92.625,50.811L66.796,34.183l-0.342-18.027l-11.579,8.956
	L54.832,7.774L41.822,24.84l-0.069-6.225l-11.567,9.957l-0.023-8.393L14.014,36.527l-9.899,5.142
	c0.379,2.072,0.817,4.334,1.454,6.303c0,0,29.316,2.027,41.543,2.027C64.324,50,76.148,51.097,92.625,50.811z"/>
<g>
	<path fill="#515251" d="M125.408,14.507c1.536,0,2.92,0.248,4.152,0.744c1.231,0.496,2.287,1.176,3.168,2.04
		c0.88,0.864,1.552,1.864,2.016,3c0.464,1.136,0.696,2.36,0.696,3.672c0,2.016-0.425,3.76-1.272,5.232
		c-0.848,1.472-2.231,2.592-4.151,3.36v0.096c0.928,0.256,1.695,0.648,2.304,1.176c0.607,0.528,1.104,1.152,1.488,1.872
		c0.384,0.72,0.663,1.512,0.84,2.376c0.175,0.864,0.295,1.728,0.359,2.592c0.032,0.544,0.064,1.184,0.097,1.92
		c0.031,0.736,0.088,1.488,0.168,2.256c0.079,0.768,0.207,1.496,0.384,2.184c0.176,0.688,0.439,1.272,0.792,1.752h-7.536
		c-0.416-1.087-0.672-2.383-0.768-3.888c-0.097-1.503-0.24-2.943-0.433-4.32c-0.256-1.792-0.8-3.104-1.632-3.936
		c-0.832-0.832-2.192-1.248-4.08-1.248h-7.536v13.392h-7.536V14.507H125.408z M122.719,30.011c1.729,0,3.024-0.384,3.889-1.152
		s1.296-2.016,1.296-3.744c0-1.664-0.432-2.872-1.296-3.624c-0.864-0.751-2.16-1.128-3.889-1.128h-8.256v9.648H122.719z"/>
	<path fill="#515251" d="M138.127,30.995c0.607-1.615,1.471-2.992,2.592-4.128c1.119-1.135,2.464-2.016,4.032-2.64
		c1.567-0.624,3.327-0.936,5.279-0.936s3.721,0.312,5.305,0.936c1.584,0.624,2.936,1.504,4.056,2.64
		c1.12,1.136,1.983,2.513,2.592,4.128c0.607,1.616,0.912,3.417,0.912,5.4c0,1.984-0.305,3.776-0.912,5.376
		c-0.608,1.6-1.472,2.968-2.592,4.104c-1.12,1.136-2.472,2.008-4.056,2.616s-3.353,0.912-5.305,0.912s-3.712-0.305-5.279-0.912
		c-1.568-0.607-2.913-1.479-4.032-2.616c-1.121-1.136-1.984-2.504-2.592-4.104c-0.608-1.6-0.912-3.392-0.912-5.376
		C137.215,34.412,137.519,32.611,138.127,30.995z M144.319,39.299c0.192,0.944,0.52,1.792,0.984,2.544
		c0.464,0.752,1.08,1.352,1.848,1.8c0.769,0.449,1.729,0.672,2.88,0.672c1.152,0,2.12-0.224,2.904-0.672
		c0.784-0.448,1.408-1.047,1.872-1.8c0.464-0.751,0.792-1.6,0.984-2.544c0.191-0.943,0.288-1.912,0.288-2.904
		c0-0.992-0.097-1.968-0.288-2.928c-0.192-0.96-0.521-1.808-0.984-2.544c-0.464-0.736-1.088-1.336-1.872-1.8
		s-1.752-0.696-2.904-0.696c-1.151,0-2.111,0.232-2.88,0.696c-0.768,0.464-1.384,1.064-1.848,1.8
		c-0.465,0.736-0.792,1.584-0.984,2.544c-0.191,0.96-0.288,1.937-0.288,2.928C144.031,37.388,144.127,38.356,144.319,39.299z"/>
	<path fill="#515251" d="M176.431,28.427c-1.089,0-2.001,0.249-2.736,0.744c-0.736,0.497-1.336,1.136-1.8,1.92
		c-0.465,0.785-0.792,1.648-0.984,2.592c-0.191,0.944-0.288,1.88-0.288,2.808c0,0.896,0.097,1.808,0.288,2.736
		c0.192,0.928,0.504,1.768,0.937,2.52c0.432,0.752,1.016,1.368,1.752,1.848c0.735,0.48,1.632,0.72,2.688,0.72
		c1.632,0,2.888-0.456,3.769-1.368c0.88-0.912,1.432-2.136,1.655-3.672h6.576c-0.448,3.296-1.728,5.808-3.84,7.536
		c-2.112,1.728-4.816,2.592-8.112,2.592c-1.855,0-3.56-0.312-5.111-0.936c-1.553-0.624-2.873-1.496-3.96-2.616
		c-1.089-1.12-1.937-2.455-2.544-4.008c-0.608-1.552-0.912-3.256-0.912-5.112c0-1.92,0.279-3.704,0.84-5.352
		c0.56-1.648,1.384-3.072,2.472-4.272c1.088-1.2,2.416-2.136,3.984-2.808c1.567-0.672,3.36-1.008,5.376-1.008
		c1.472,0,2.888,0.192,4.248,0.576c1.359,0.384,2.575,0.968,3.647,1.752c1.072,0.785,1.944,1.76,2.616,2.928
		c0.672,1.168,1.057,2.552,1.152,4.152h-6.672C181.022,29.852,179.342,28.427,176.431,28.427z"/>
	<path fill="#515251" d="M197.646,14.507v18.384l8.592-8.928h8.064l-9.36,9.12l10.416,15.696h-8.256l-6.816-11.088l-2.64,2.544
		v8.544h-6.816V14.507H197.646z"/>
	<path fill="#515251" d="M229.038,40.331c0.415,0.8,0.967,1.449,1.655,1.944c0.688,0.497,1.496,0.864,2.425,1.104
		c0.928,0.24,1.888,0.36,2.88,0.36c0.672,0,1.392-0.056,2.16-0.168c0.768-0.112,1.487-0.328,2.159-0.648
		c0.673-0.319,1.232-0.76,1.681-1.32c0.447-0.56,0.672-1.272,0.672-2.136c0-0.928-0.296-1.68-0.888-2.256
		c-0.593-0.576-1.368-1.056-2.328-1.44c-0.96-0.384-2.049-0.72-3.265-1.008s-2.447-0.607-3.695-0.96
		c-1.28-0.319-2.528-0.712-3.744-1.176c-1.217-0.464-2.304-1.063-3.265-1.8c-0.96-0.736-1.735-1.656-2.327-2.76
		c-0.593-1.104-0.889-2.44-0.889-4.008c0-1.759,0.376-3.288,1.128-4.584c0.752-1.296,1.736-2.376,2.952-3.24
		c1.216-0.864,2.592-1.504,4.128-1.92c1.536-0.416,3.072-0.624,4.608-0.624c1.792,0,3.512,0.2,5.16,0.6
		c1.647,0.4,3.111,1.048,4.392,1.944c1.279,0.896,2.296,2.04,3.048,3.432c0.752,1.392,1.128,3.08,1.128,5.064h-7.296
		c-0.064-1.024-0.28-1.872-0.647-2.544c-0.368-0.672-0.856-1.2-1.464-1.584c-0.608-0.384-1.305-0.656-2.089-0.816
		c-0.784-0.16-1.64-0.24-2.567-0.24c-0.608,0-1.217,0.064-1.824,0.192c-0.608,0.128-1.16,0.353-1.656,0.672
		c-0.496,0.32-0.904,0.72-1.224,1.2c-0.32,0.48-0.48,1.088-0.48,1.824c0,0.672,0.128,1.217,0.385,1.632
		c0.256,0.416,0.76,0.8,1.512,1.152c0.751,0.353,1.792,0.704,3.12,1.056c1.327,0.353,3.063,0.8,5.208,1.344
		c0.64,0.128,1.527,0.36,2.664,0.696c1.135,0.336,2.264,0.872,3.384,1.608c1.12,0.736,2.088,1.72,2.904,2.952
		c0.815,1.232,1.224,2.808,1.224,4.728c0,1.568-0.305,3.024-0.912,4.368c-0.608,1.344-1.512,2.504-2.712,3.48
		c-1.2,0.977-2.688,1.736-4.464,2.28c-1.776,0.543-3.833,0.816-6.168,0.816c-1.889,0-3.72-0.232-5.496-0.696
		c-1.776-0.463-3.345-1.191-4.704-2.184c-1.36-0.992-2.44-2.256-3.24-3.792c-0.8-1.536-1.184-3.36-1.151-5.472h7.296
		C228.414,38.555,228.621,39.532,229.038,40.331z"/>
	<path fill="#515251" d="M251.309,30.995c0.607-1.615,1.471-2.992,2.592-4.128c1.119-1.135,2.464-2.016,4.032-2.64
		c1.567-0.624,3.327-0.936,5.279-0.936s3.721,0.312,5.305,0.936c1.584,0.624,2.936,1.504,4.056,2.64
		c1.12,1.136,1.983,2.513,2.592,4.128c0.607,1.616,0.912,3.417,0.912,5.4c0,1.984-0.305,3.776-0.912,5.376
		c-0.608,1.6-1.472,2.968-2.592,4.104c-1.12,1.136-2.472,2.008-4.056,2.616s-3.353,0.912-5.305,0.912s-3.712-0.305-5.279-0.912
		c-1.568-0.607-2.913-1.479-4.032-2.616c-1.121-1.136-1.984-2.504-2.592-4.104c-0.608-1.6-0.912-3.392-0.912-5.376
		C250.397,34.412,250.701,32.611,251.309,30.995z M257.5,39.299c0.192,0.944,0.52,1.792,0.984,2.544
		c0.464,0.752,1.08,1.352,1.848,1.8c0.769,0.449,1.729,0.672,2.88,0.672c1.152,0,2.12-0.224,2.904-0.672
		c0.784-0.448,1.408-1.047,1.872-1.8c0.464-0.751,0.792-1.6,0.984-2.544c0.191-0.943,0.288-1.912,0.288-2.904
		c0-0.992-0.097-1.968-0.288-2.928c-0.192-0.96-0.521-1.808-0.984-2.544c-0.464-0.736-1.088-1.336-1.872-1.8
		s-1.752-0.696-2.904-0.696c-1.151,0-2.111,0.232-2.88,0.696c-0.768,0.464-1.384,1.064-1.848,1.8
		c-0.465,0.736-0.792,1.584-0.984,2.544c-0.191,0.96-0.288,1.937-0.288,2.928C257.212,37.388,257.309,38.356,257.5,39.299z"/>
	<path fill="#515251" d="M286.541,14.507v34.272h-6.815V14.507H286.541z"/>
	<path fill="#515251" d="M290.189,20.124v-5.616h6.815v5.616H290.189z M297.004,23.963v24.816h-6.815V23.963H297.004z"/>
	<path fill="#515251" d="M319.037,45.611c-0.8,1.344-1.848,2.312-3.144,2.904c-1.297,0.592-2.761,0.888-4.393,0.888
		c-1.856,0-3.488-0.36-4.896-1.08c-1.409-0.72-2.568-1.696-3.48-2.928s-1.601-2.648-2.063-4.248c-0.465-1.6-0.696-3.264-0.696-4.992
		c0-1.664,0.231-3.271,0.696-4.824c0.463-1.551,1.151-2.919,2.063-4.104c0.912-1.184,2.056-2.136,3.432-2.856
		c1.376-0.72,2.977-1.08,4.801-1.08c1.471,0,2.871,0.312,4.199,0.936c1.328,0.624,2.376,1.544,3.145,2.76h0.096v-12.48h6.816v34.272
		h-6.48v-3.168H319.037z M318.749,33.347c-0.192-0.943-0.521-1.776-0.984-2.496c-0.464-0.72-1.063-1.303-1.8-1.752
		c-0.736-0.448-1.664-0.672-2.784-0.672s-2.063,0.224-2.832,0.672c-0.768,0.449-1.384,1.041-1.848,1.776
		c-0.464,0.736-0.8,1.576-1.008,2.52c-0.209,0.944-0.312,1.928-0.312,2.952c0,0.96,0.112,1.92,0.337,2.88
		c0.223,0.96,0.583,1.816,1.079,2.568c0.496,0.752,1.12,1.36,1.872,1.824c0.752,0.464,1.656,0.696,2.712,0.696
		c1.12,0,2.057-0.224,2.809-0.672c0.751-0.448,1.352-1.047,1.8-1.8c0.448-0.751,0.768-1.608,0.96-2.568s0.288-1.952,0.288-2.976
		C319.037,35.275,318.941,34.292,318.749,33.347z"/>
</g>
<g>
	<path fill="#4C4C4D" d="M362.205,40.656c-0.8,1.745-1.833,3.24-3.097,4.488s-2.76,2.224-4.487,2.928s-3.681,1.056-5.856,1.056
		c-2.271,0-4.36-0.44-6.264-1.32c-1.904-0.88-3.536-2.096-4.896-3.648c-1.359-1.552-2.424-3.408-3.191-5.568s-1.152-4.52-1.152-7.08
		c0-2.08,0.296-4.2,0.889-6.36c0.592-2.16,1.527-4.12,2.808-5.88c1.279-1.76,2.944-3.2,4.992-4.32c2.048-1.12,4.527-1.68,7.44-1.68
		c2.271,0,4.255,0.376,5.951,1.128c1.695,0.752,3.111,1.696,4.248,2.832c1.136,1.136,1.992,2.344,2.568,3.624
		c0.576,1.28,0.879,2.448,0.912,3.504h-0.961c-0.096-1.248-0.463-2.472-1.104-3.672c-0.641-1.2-1.512-2.28-2.615-3.24
		c-1.104-0.96-2.417-1.735-3.937-2.328c-1.521-0.591-3.208-0.888-5.063-0.888c-2.816,0-5.193,0.568-7.129,1.704
		c-1.936,1.136-3.496,2.561-4.68,4.272c-1.184,1.712-2.04,3.576-2.568,5.592c-0.527,2.016-0.791,3.92-0.791,5.712
		c0,2.177,0.318,4.272,0.959,6.288s1.584,3.792,2.832,5.328s2.775,2.768,4.584,3.696c1.808,0.929,3.864,1.392,6.168,1.392
		c2.048,0,3.889-0.336,5.521-1.008c1.632-0.672,3.04-1.6,4.224-2.784c1.184-1.184,2.144-2.592,2.881-4.224
		c0.735-1.632,1.23-3.391,1.487-5.28h0.96C363.548,37.001,363.004,38.913,362.205,40.656z"/>
	<path fill="#4C4C4D" d="M368.541,14.088v15.696h0.096c0.224-0.96,0.583-1.839,1.08-2.64c0.496-0.8,1.12-1.504,1.872-2.112
		c0.752-0.607,1.624-1.08,2.616-1.416c0.991-0.336,2.095-0.504,3.312-0.504c1.279,0,2.456,0.192,3.528,0.576
		c1.071,0.384,1.999,0.952,2.784,1.704c0.783,0.752,1.392,1.68,1.824,2.784c0.432,1.104,0.647,2.376,0.647,3.816V48.36h-0.96V32.136
		c0-1.44-0.209-2.664-0.624-3.672c-0.416-1.008-0.983-1.84-1.704-2.496c-0.72-0.655-1.553-1.135-2.496-1.44
		c-0.943-0.304-1.943-0.456-3-0.456c-1.473,0-2.768,0.281-3.888,0.84c-1.12,0.561-2.057,1.312-2.808,2.256
		c-0.752,0.944-1.32,2.04-1.705,3.288c-0.383,1.248-0.575,2.561-0.575,3.936V48.36h-0.96V14.088H368.541z"/>
	<path fill="#4C4C4D" d="M407.42,48.36v-6.096h-0.096c-0.449,1.92-1.433,3.504-2.952,4.752c-1.521,1.248-3.497,1.872-5.929,1.872
		c-1.279,0-2.455-0.185-3.527-0.552c-1.072-0.368-2-0.928-2.784-1.68c-0.784-0.751-1.392-1.68-1.823-2.784
		c-0.433-1.104-0.648-2.376-0.648-3.816V23.688h0.96v16.224c0,1.44,0.208,2.664,0.624,3.672c0.416,1.008,0.984,1.84,1.704,2.496
		c0.72,0.656,1.552,1.136,2.495,1.44c0.944,0.304,1.945,0.456,3,0.456c1.473,0,2.768-0.28,3.889-0.84
		c1.119-0.56,2.056-1.312,2.809-2.256c0.751-0.943,1.319-2.04,1.703-3.288c0.385-1.248,0.576-2.56,0.576-3.936V23.688h0.96V48.36
		H407.42z"/>
	<path fill="#4C4C4D" d="M413.661,48.36V23.688h0.96v6.096h0.096c0.224-0.928,0.576-1.8,1.056-2.616
		c0.48-0.816,1.12-1.528,1.92-2.136c0.801-0.607,1.752-1.087,2.856-1.44c1.104-0.352,2.392-0.511,3.864-0.48v0.96
		c-1.697-0.096-3.16,0.137-4.393,0.696c-1.232,0.56-2.248,1.328-3.047,2.304c-0.801,0.977-1.393,2.104-1.777,3.384
		c-0.383,1.28-0.575,2.592-0.575,3.936V48.36H413.661z"/>
	<path fill="#4C4C4D" d="M444.956,43.68c-0.545,1.104-1.256,2.04-2.136,2.808c-0.881,0.768-1.904,1.36-3.072,1.776
		c-1.169,0.416-2.456,0.624-3.864,0.624c-1.76,0-3.32-0.328-4.68-0.984c-1.36-0.655-2.504-1.543-3.432-2.664
		c-0.929-1.12-1.633-2.424-2.112-3.912c-0.479-1.488-0.72-3.079-0.72-4.776c0-1.792,0.231-3.496,0.695-5.112
		c0.464-1.616,1.168-3.04,2.112-4.272c0.943-1.231,2.144-2.216,3.601-2.952c1.455-0.736,3.159-1.104,5.111-1.104
		c1.152,0,2.256,0.176,3.312,0.528c1.056,0.353,1.999,0.864,2.832,1.536c0.832,0.672,1.527,1.512,2.088,2.52
		c0.559,1.008,0.92,2.168,1.08,3.48h-0.961c-0.191-1.216-0.544-2.263-1.055-3.144c-0.513-0.879-1.137-1.615-1.873-2.208
		c-0.736-0.592-1.568-1.032-2.496-1.32s-1.904-0.432-2.928-0.432c-1.952,0-3.607,0.376-4.968,1.128
		c-1.36,0.752-2.448,1.728-3.265,2.928c-0.815,1.2-1.408,2.544-1.775,4.032c-0.368,1.488-0.552,2.952-0.552,4.392
		c0,1.504,0.216,2.945,0.647,4.32c0.432,1.376,1.064,2.592,1.896,3.648c0.832,1.056,1.871,1.896,3.119,2.52s2.688,0.936,4.32,0.936
		c1.217,0,2.353-0.184,3.408-0.552c1.057-0.368,1.992-0.904,2.809-1.608c0.815-0.704,1.479-1.543,1.992-2.52
		c0.511-0.976,0.815-2.088,0.911-3.336h0.96C445.835,41.336,445.5,42.576,444.956,43.68z"/>
	<path fill="#4C4C4D" d="M451.051,14.088v15.696h0.096c0.225-0.96,0.584-1.839,1.08-2.64c0.496-0.8,1.12-1.504,1.873-2.112
		c0.751-0.607,1.623-1.08,2.615-1.416s2.096-0.504,3.312-0.504c1.279,0,2.455,0.192,3.527,0.576c1.072,0.384,2,0.952,2.785,1.704
		c0.783,0.752,1.391,1.68,1.823,2.784s0.647,2.376,0.647,3.816V48.36h-0.959V32.136c0-1.44-0.209-2.664-0.625-3.672
		s-0.983-1.84-1.703-2.496c-0.721-0.655-1.553-1.135-2.496-1.44c-0.944-0.304-1.944-0.456-3-0.456c-1.473,0-2.769,0.281-3.889,0.84
		c-1.12,0.561-2.057,1.312-2.808,2.256c-0.752,0.944-1.319,2.04-1.704,3.288c-0.384,1.248-0.576,2.561-0.576,3.936V48.36h-0.959
		V14.088H451.051z"/>
</g>
</svg>
