<!--?xml version="1.0" encoding="UTF-8" standalone="no"?-->
<svg width="65px" height="60px" viewBox="0 0 65 60" version="1.1" xmlns="http://www.w3.org/2000/svg" xmlns:xlink="http://www.w3.org/1999/xlink">
    <!-- Generator: sketchtool 40.3 (33839) - http://www.bohemiancoding.com/sketch -->
    <title>6397D346-5D6E-4010-A495-910D34BBE7B6</title>
    <desc>Created with sketchtool.</desc>
    <defs></defs>
    <g id="Final-Page-Designs" stroke="none" stroke-width="1" fill="none" fill-rule="evenodd">
        <g id="CCV---Campus-Page" transform="translate(-1202.000000, -2546.000000)">
            <g id="Campus-Quick-Guide" transform="translate(99.000000, 1809.000000)">
                <g id="What-Do-I-Wear?" transform="translate(441.000000, 620.000000)">
                    <g id="Icon-Wear-ButtonedShirt" transform="translate(662.000000, 117.000000)">
                        <path d="M43.3626207,4.84717241 C43.6398621,4.31544828 43.5115862,3.6657931 43.0564138,3.27682759 L39.204,-0.000413793103 L32.6102069,7.62165517 L26.0143448,-0.000413793103 L22.161931,3.27682759 C21.7067586,3.6657931 21.5805517,4.31544828 21.8557241,4.84717241 L25.8695172,12.5478621 C26.0412414,12.8747586 26.3433103,13.1085517 26.7033103,13.1892414 C27.0612414,13.269931 27.4377931,13.1913103 27.7315862,12.969931 L32.6102069,9.30372414 L37.4867586,12.969931 C37.7826207,13.1913103 38.1571034,13.269931 38.5150345,13.1892414 C38.8750345,13.1085517 39.1771034,12.8747586 39.3508966,12.5478621 L43.3626207,4.84717241 Z" id="Fill-1" fill="#7A1315"></path>
                        <path d="M64.424069,13.0826897 C64.2151034,12.4723448 63.7516552,11.9613103 63.1557931,11.684069 L51.5468276,6.32544828 C49.419931,5.60337931 47.3033793,5.05096552 45.1951034,4.59165517 C45.2488966,5.00337931 45.1826897,5.43165517 44.979931,5.82062069 L40.2626897,14.8123448 C39.9792414,15.3606207 39.3978621,15.7516552 38.7937241,15.882 C38.6530345,15.9109655 38.379931,15.9254483 38.2371724,15.9254483 C37.7737241,15.9254483 37.2792414,15.7702759 36.9109655,15.4764828 L33.5261379,13.0309655 L33.5261379,55.2275172 L31.4571724,55.2275172 L31.4571724,13.0309655 L27.8613103,15.4764828 C27.4930345,15.7702759 26.7875172,15.9254483 26.324069,15.9254483 C26.1813103,15.9254483 25.9082069,15.9109655 25.7654483,15.882 C25.1613103,15.7516552 24.582,15.3606207 24.2964828,14.8123448 L19.5813103,5.82062069 C19.3764828,5.43165517 19.3102759,5.00337931 19.3661379,4.59165517 C17.2578621,5.05096552 15.1413103,5.60337931 13.0123448,6.32544828 L1.40544828,11.684069 C0.809586207,11.9613103 0.344068966,12.4723448 0.137172414,13.0826897 C-0.082137931,13.7157931 -0.0366206897,14.3861379 0.261310345,14.9633793 L5.29924138,24.9047586 C5.70889655,25.722 6.53027586,26.2309655 7.44682759,26.2309655 C7.68268966,26.2309655 8.13165517,26.1978621 8.35096552,26.1316552 L12.8364828,24.8654483 L12.8364828,56.8475172 C12.8364828,58.1778621 13.4882069,59.3654483 14.8164828,59.3654483 L32.2785517,59.3654483 L32.2826897,59.3654483 L49.7426897,59.3654483 C51.0730345,59.3654483 52.1468276,58.1778621 52.1468276,56.8475172 L52.1468276,24.8654483 L56.4213103,26.1316552 C56.6406207,26.1978621 56.984069,26.2309655 57.219931,26.2309655 C58.1364828,26.2309655 58.904069,25.722 59.3137241,24.9047586 L64.3247586,14.9633793 C64.6247586,14.3861379 64.6413103,13.7157931 64.424069,13.0826897" id="Fill-4" fill="#7A1315"></path>
                        <path d="M37.6648966,25.2277241 C37.6648966,25.7987586 37.2014483,26.2622069 36.6304138,26.2622069 C36.0593793,26.2622069 35.595931,25.7987586 35.595931,25.2277241 C35.595931,24.6566897 36.0593793,24.1932414 36.6304138,24.1932414 C37.2014483,24.1932414 37.6648966,24.6566897 37.6648966,25.2277241" id="Fill-7" fill="#FFFFFF"></path>
                        <path d="M37.6648966,31.4346207 C37.6648966,32.0056552 37.2014483,32.4691034 36.6304138,32.4691034 C36.0593793,32.4691034 35.595931,32.0056552 35.595931,31.4346207 C35.595931,30.8635862 36.0593793,30.4001379 36.6304138,30.4001379 C37.2014483,30.4001379 37.6648966,30.8635862 37.6648966,31.4346207" id="Fill-9" fill="#FFFFFF"></path>
                        <path d="M37.6648966,37.6415172 C37.6648966,38.2125517 37.2014483,38.676 36.6304138,38.676 C36.0593793,38.676 35.595931,38.2125517 35.595931,37.6415172 C35.595931,37.0704828 36.0593793,36.6070345 36.6304138,36.6070345 C37.2014483,36.6070345 37.6648966,37.0704828 37.6648966,37.6415172" id="Fill-11" fill="#FFFFFF"></path>
                        <path d="M37.6648966,43.8484138 C37.6648966,44.4194483 37.2014483,44.8828966 36.6304138,44.8828966 C36.0593793,44.8828966 35.595931,44.4194483 35.595931,43.8484138 C35.595931,43.2773793 36.0593793,42.813931 36.6304138,42.813931 C37.2014483,42.813931 37.6648966,43.2773793 37.6648966,43.8484138" id="Fill-13" fill="#FFFFFF"></path>
                    </g>
                </g>
            </g>
        </g>
    </g>
</svg>