<!--?xml version="1.0" encoding="UTF-8" standalone="no"?-->
<svg width="58px" height="70px" viewBox="0 0 58 70" version="1.1" xmlns="http://www.w3.org/2000/svg" xmlns:xlink="http://www.w3.org/1999/xlink">
    <!-- Generator: sketchtool 40.3 (33839) - http://www.bohemiancoding.com/sketch -->
    <title>A76849D9-06FE-4C2C-88B8-E069E85A9669</title>
    <desc>Created with sketchtool.</desc>
    <defs></defs>
    <g id="Final-Page-Designs" stroke="none" stroke-width="1" fill="none" fill-rule="evenodd">
        <g id="CCV---Campus-Page" transform="translate(-977.000000, -2544.000000)" fill="#7A1315">
            <g id="Campus-Quick-Guide" transform="translate(99.000000, 1809.000000)">
                <g id="What-Do-I-Wear?" transform="translate(441.000000, 620.000000)">
                    <g id="Icon-Wear-Dress" transform="translate(437.000000, 115.000000)">
                        <path d="M28.9552667,59.9223333 L28.9716,59.9223333 C40.6196,59.9223333 48.4059333,58.0696667 51.3529333,57.0686667 L50.0369333,53.7903333 C43.1559333,55.3863333 33.6266,55.4656667 28.9552667,55.4936667 C24.2839333,55.4656667 14.7546,55.1856667 7.8736,53.5896667 L6.5576,57.1013333 C9.5046,58.1023333 17.2909333,59.9223333 28.9389333,59.9223333 L28.9552667,59.9223333 Z" id="Fill-4"></path>
                        <path d="M28.9552667,63.5247667 C21.9529333,63.4897667 10.5406,63.0044333 4.7166,60.7924333 C4.7166,60.7924333 3.09493333,64.5771 3.09493333,64.7684333 C3.09493333,67.1321 14.9529333,69.2554333 28.9389333,69.2554333 L28.9552667,69.2554333 L28.9716,69.2554333 C42.9576,69.2554333 54.8156,67.1321 54.8156,64.7684333 C54.8156,64.5771 53.1939333,60.8577667 53.1939333,60.8577667 C47.3699333,63.0697667 35.9576,63.4897667 28.9552667,63.5247667" id="Fill-6"></path>
                        <path d="M57.7598,30.4549 L44.6581333,3.27156667 C43.9954667,1.89723333 42.7448,0.8309 41.2001333,0.322233333 C39.6648,-0.186433333 37.9661333,-0.0907666667 36.5031333,0.590566667 L34.0484667,1.68723333 C33.8244667,1.7899 33.6051333,2.0069 33.6051333,2.2379 L33.6051333,2.24256667 C33.6051333,6.99323333 31.4771333,11.0322333 28.9384667,11.0322333 C26.4021333,11.0322333 24.2718,6.99323333 24.2718,2.24256667 L24.2718,2.2379 C24.2718,2.0069 24.0711333,1.7899 23.8471333,1.68723333 L21.4018,0.590566667 C19.9388,-0.0907666667 18.2401333,-0.186433333 16.7048,0.322233333 C15.1601333,0.8309 13.9141333,1.89723333 13.2514667,3.27156667 L0.152133333,30.4549 C-0.230533333,31.2482333 0.133466667,32.1792333 0.9758,32.5689 L4.52713333,34.2185667 C4.94246667,34.4099 5.4278,34.4449 5.8758,34.3095667 C6.32146667,34.1765667 6.69013333,33.8802333 6.90013333,33.4975667 L16.4738,16.0139 C18.7861333,21.2032333 19.0148,27.0039 17.0268,32.3449 L8.8088,51.2845667 C12.8198,52.1432333 19.6214667,52.9225667 28.9384667,52.9225667 L28.9548,52.9225667 L28.9711333,52.9225667 C38.2881333,52.9225667 45.0898,52.1432333 49.1008,51.2845667 L40.8851333,32.3192333 C38.8971333,26.9782333 39.1258,21.1892333 41.4381333,16.0022333 L51.0094667,33.4905667 C51.2194667,33.8732333 51.5881333,34.1742333 52.0361333,34.3072333 C52.4818,34.4425667 52.9671333,34.4075667 53.3848,34.2185667 L56.9338,32.5689 C57.7784667,32.1792333 58.1401333,31.2482333 57.7598,30.4549" id="Fill-1"></path>
                    </g>
                </g>
            </g>
        </g>
    </g>
</svg>