                <!--?xml version="1.0" encoding="UTF-8" standalone="no"?-->
<svg width="67px" height="60px" viewBox="0 0 67 60" version="1.1" xmlns="http://www.w3.org/2000/svg" xmlns:xlink="http://www.w3.org/1999/xlink">
    <!-- Generator: sketchtool 40.3 (33839) - http://www.bohemiancoding.com/sketch -->
    <title>64CADFCA-72FE-4922-8967-EC137D794A10</title>
    <desc>Created with sketchtool.</desc>
    <defs></defs>
    <g id="Final-Page-Designs" stroke="none" stroke-width="1" fill="none" fill-rule="evenodd">
        <g id="CCV---Campus-Page" transform="translate(-609.000000, -2551.000000)" fill="#7A1315">
            <g id="Campus-Quick-Guide" transform="translate(99.000000, 1809.000000)">
                <g id="What-Do-I-Wear?" transform="translate(441.000000, 620.000000)">
                    <g id="Icon-Wear-HeartShirt" transform="translate(69.000000, 122.000000)">
                        <path d="M33.2055556,7.64533333 C40.1766667,7.64533333 41.6055556,0.978666667 40.81,0.000888888889 C40.81,0.000888888889 38.5922222,0.978666667 33.2055556,0.978666667 C27.8188889,0.978666667 25.6033333,0.000888888889 25.6033333,0.000888888889 C24.8077778,0.978666667 26.2344444,7.64533333 33.2055556,7.64533333" id="Fill-1"></path>
                        <path d="M33.288,32.9317778 C33.288,32.9317778 24.3613333,28.9673333 24.3613333,21.7362222 C24.3613333,19.1695556 26.4435556,17.0895556 29.0102222,17.0895556 C30.9324444,17.0895556 32.5791111,18.254 33.288,19.914 C33.9968889,18.254 35.6435556,17.0895556 37.5657778,17.0895556 C40.1302222,17.0895556 42.2146667,19.1695556 42.2146667,21.7362222 C42.2146667,28.9673333 33.288,32.9317778 33.288,32.9317778 M66.2657778,9.87622222 C66.1368889,9.50288889 65.8257778,9.19622222 65.4635556,9.02955556 L53.0857778,3.34733333 C50.4657778,2.46066667 47.6568889,1.76066667 44.9635556,1.24733333 C44.1902222,1.09622222 43.1613333,1.58733333 42.988,2.354 C42.0168889,6.64511111 38.6502222,9.91844444 33.108,9.91844444 C27.568,9.91844444 24.2724444,6.64511111 23.2991111,2.354 C23.1257778,1.58733333 22.1302222,1.09622222 21.3591111,1.24733333 C18.6657778,1.76066667 15.8746667,2.46066667 13.2524444,3.34733333 L0.888,9.02955556 C0.525777778,9.19622222 0.214666667,9.50288889 0.088,9.87622222 C-0.0431111111,10.2517778 -0.032,10.6628889 0.152444444,11.0162222 L5.48577778,21.5628889 C5.80133333,22.194 6.55022222,22.5051111 7.22355556,22.3006667 L11.0013333,21.1895556 L11.0013333,57.1428889 C11.0013333,58.2962222 11.9346667,59.2295556 13.0857778,59.2295556 L53.3591111,59.2295556 C54.5124444,59.2295556 55.4457778,58.2962222 55.4457778,57.1428889 L55.4457778,21.1895556 L59.1768889,22.3006667 C59.8502222,22.5051111 60.5991111,22.194 60.9146667,21.5628889 L66.2235556,11.0162222 C66.408,10.6628889 66.3946667,10.2517778 66.2657778,9.87622222" id="Fill-3"></path>
                    </g>
                </g>
            </g>
        </g>
    </g>
</svg>