<?xml version="1.0" encoding="utf-8"?>
<!-- Generator: Adobe Illustrator 16.0.0, SVG Export Plug-In . SVG Version: 6.00 Build 0)  -->
<!DOCTYPE svg PUBLIC "-//W3C//DTD SVG 1.1//EN" "http://www.w3.org/Graphics/SVG/1.1/DTD/svg11.dtd">
<svg version="1.1" id="Layer_1" xmlns="http://www.w3.org/2000/svg" xmlns:xlink="http://www.w3.org/1999/xlink" x="0px" y="0px"
	 width="298.811px" height="298.708px" viewBox="0 0 298.811 298.708" enable-background="new 0 0 298.811 298.708"
	 xml:space="preserve">
<linearGradient id="SVGID_1_" gradientUnits="userSpaceOnUse" x1="149.4055" y1="-192.584" x2="149.4055" y2="-491.3936" gradientTransform="matrix(1 0 0 -1 0 -192.584)">
	<stop  offset="0" style="stop-color:#DFDFDF"/>
	<stop  offset="1" style="stop-color:#C9C9C9"/>
</linearGradient>
<rect x="0" fill="url(#SVGID_1_)" width="298.811" height="298.809"/>
<path fill="#ADADAD" d="M0.002,298.708c0,0,5.958-22.203,11.3-31.334c6.456-11.031,15.185-19.221,27.989-22.543
	c8.024-2.084,15.898-4.752,23.836-7.17c0.913-0.277,1.802-0.638,2.785-0.986c-5.275-2.928-10.363-5.469-15.15-8.488
	c-4.791-3.021-8.745-7.038-12.161-12.104c1.925,0,3.396,0.041,4.861-0.012c1.571-0.056,3.154-0.088,4.703-0.322
	c4.711-0.715,7.352-4.004,7.263-9.045c-7.686-0.101-15.502,0.047-21.97-5.123c-6.347-5.074-8.863-12.211-10.602-19.806
	c5.02,0,9.73,0.214,14.414-0.058c4.762-0.273,9.303-1.621,13.408-4.286c-7.104,2.524-14.223,2.424-21.392,0.483
	c-6.946-1.881-13.41-4.783-19.364-8.439c7.115-0.893,14.169-1.529,21.128-2.717c7.864-1.338,15.07-4.365,21.141-9.77
	c7.083-6.309,8.667-14.767,9.832-23.597c2.067-15.677,3.987-31.404,6.942-46.924c3.221-16.91,8.889-33.084,18.852-47.41
	c9.105-13.09,21.023-22.374,36.689-26.291c4.29-1.073,8.714-1.613,13.076-2.397c4.726,0,9.451,0,14.176,0
	c1.203,0.176,2.402,0.404,3.611,0.521c13.039,1.254,25.383,4.743,36.711,11.463c18.139,10.763,29.688,26.985,37.844,45.95
	c6.109,14.214,9.447,29.186,11.957,44.402c3.787,22.947,6.01,45.945,3.305,69.181c-1.475,12.675-4.432,24.98-10.809,36.156
	c-3,5.258-6.715,10.106-10.191,15.27c6.351,1.762,12.965,3.604,19.586,5.428c7.154,1.975,14.347,3.819,21.463,5.918
	c10.136,2.986,16.921,10.166,22.55,18.639c6.805,10.244,11.025,35.41,11.025,35.41H0.002L0.002,298.708z"/>
</svg>
