<svg width="21" height="22" viewBox="0 0 21 22" fill="none" xmlns="http://www.w3.org/2000/svg">
    <path
        d="M8.92979 2.13594L9.97042 1.09532C10.411 0.654691 11.1235 0.654691 11.5595 1.09532L20.672 10.2031C21.1126 10.6438 21.1126 11.3563 20.672 11.7922L11.5595 20.9047C11.1189 21.3453 10.4064 21.3453 9.97042 20.9047L8.92979 19.8641C8.48448 19.4188 8.49385 18.6922 8.94854 18.2563L14.597 12.875L1.12511 12.875C0.501672 12.875 0.000109494 12.3734 0.000109548 11.75L0.000109679 10.25C0.000109734 9.62657 0.501672 9.125 1.12511 9.125L14.597 9.12501L8.94854 3.74375C8.48917 3.30782 8.47979 2.58125 8.92979 2.13594Z"
        fill="#666F7A" />
</svg>