                <!--?xml version="1.0" encoding="UTF-8" standalone="no"?-->
<svg width="39px" height="80px" viewBox="0 0 39 80" version="1.1" xmlns="http://www.w3.org/2000/svg" xmlns:xlink="http://www.w3.org/1999/xlink">
    <!-- Generator: sketchtool 40.3 (33839) - http://www.bohemiancoding.com/sketch -->
    <title>3635562D-F4CA-4EFB-84A5-483F64FFCE17</title>
    <desc>Created with sketchtool.</desc>
    <defs></defs>
    <g id="Final-Page-Designs" stroke="none" stroke-width="1" fill="none" fill-rule="evenodd">
        <g id="CCV---Campus-Page" transform="translate(-1099.000000, -2541.000000)" fill="#7A1315">
            <g id="Campus-Quick-Guide" transform="translate(99.000000, 1809.000000)">
                <g id="What-Do-I-Wear?" transform="translate(441.000000, 620.000000)">
                    <path d="M595.149885,112 L562.013333,112 C559.729195,115.533793 559.26023,120.857931 559.342989,124.077241 L559.387126,126 C563.712644,125.384828 567.058851,120.275862 567.058851,117.517241 L569.902989,117.517241 C569.902989,123.034483 565.32092,128.008276 559.456092,128.675862 L561.006437,190.910345 C561.025747,191.514483 561.533333,192 562.156782,192 L572.611954,192 C573.210575,192 573.709885,191.467586 573.75954,190.891034 L578.523678,135.853793 L583.345747,190.891034 C583.395402,191.467586 583.952644,192 584.551264,192 L595.006437,192 C595.629885,192 596.137471,191.514483 596.156782,190.910345 L597.709885,128.675862 C591.842299,128.008276 587.262989,123.034483 587.262989,117.517241 L590.104368,117.517241 C590.104368,120.275862 593.450575,125.384828 597.776092,126 L597.822989,124.077241 C597.902989,120.857931 597.434023,115.533793 595.149885,112" id="Icon-Wear-Pants"></path>
                </g>
            </g>
        </g>
    </g>
</svg>