                <!--?xml version="1.0" encoding="UTF-8" standalone="no"?-->
<svg width="58px" height="60px" viewBox="0 0 58 60" version="1.1" xmlns="http://www.w3.org/2000/svg" xmlns:xlink="http://www.w3.org/1999/xlink">
    <!-- Generator: sketchtool 40.3 (33839) - http://www.bohemiancoding.com/sketch -->
    <title>2DA9D0F6-09E3-4BF5-BF75-0FB6ED611BC8</title>
    <desc>Created with sketchtool.</desc>
    <defs></defs>
    <g id="Final-Page-Designs" stroke="none" stroke-width="1" fill="none" fill-rule="evenodd">
        <g id="CCV---Campus-Page" transform="translate(-855.000000, -2549.000000)" fill="#7A1315">
            <g id="Campus-Quick-Guide" transform="translate(99.000000, 1809.000000)">
                <g id="What-Do-I-Wear?" transform="translate(441.000000, 620.000000)">
                    <g id="Icon-Wear-FlipFlops" transform="translate(315.000000, 120.000000)">
                        <path d="M23.573,36.8202 C22.481,36.9742 21.457,36.2442 21.287,35.1522 C19.385,23.0342 16.135,17.3102 14.259,14.8942 C9.415,23.8662 11.217,35.9742 11.239,36.1062 C11.409,37.1982 10.661,38.2222 9.569,38.3922 C9.465,38.4082 9.363,38.4162 9.261,38.4162 C8.291,38.4162 7.441,37.7102 7.287,36.7202 C7.187,36.0782 4.929,20.8802 12.269,10.5242 C12.879,9.6622 14.053,9.4222 14.957,9.9842 C15.687,10.4402 22.175,14.9982 25.239,34.5302 C25.409,35.6222 24.665,36.6482 23.573,36.8202 M13.901,0.000199999999 C9.451,0.000199999999 5.273,2.1282 2.657,5.7262 C0.041,9.3262 -0.695,13.9562 0.679,18.1902 L3.173,26.2842 C5.029,32.0022 5.841,37.9722 5.841,43.9802 L5.841,48.9262 C5.841,54.8582 10.779,59.6642 16.709,59.6642 C19.895,59.6642 22.981,58.2502 25.025,55.8022 C27.063,53.3542 27.945,50.1262 27.369,46.9942 L26.789,43.7262 C25.721,37.8862 25.573,31.9142 26.337,26.0262 L27.687,15.6902 C28.201,11.7242 26.983,7.7282 24.343,4.7242 C21.703,1.7222 17.899,0.000199999999 13.901,0.000199999999" id="Fill-1"></path>
                        <path d="M50.5632,36.7206 C50.4092,37.7106 49.5572,38.4166 48.5892,38.4166 C48.4872,38.4166 48.3832,38.4086 48.2792,38.3926 C47.1892,38.2226 46.4392,37.1986 46.6092,36.1046 C46.6312,35.9746 48.4352,23.8646 43.5912,14.8946 C41.7132,17.3106 38.4632,23.0326 36.5632,35.1526 C36.3912,36.2446 35.3672,36.9746 34.2772,36.8206 C33.1852,36.6486 32.4392,35.6226 32.6092,34.5286 C35.6752,14.9986 42.1632,10.4386 42.8912,9.9846 C43.7952,9.4226 44.9692,9.6626 45.5812,10.5226 C52.9212,20.8806 50.6632,36.0786 50.5632,36.7206 M55.1892,5.7266 C52.5752,2.1286 48.3952,0.0006 43.9452,0.0006 C39.9472,0.0006 36.1452,1.7226 33.5072,4.7246 C30.8652,7.7286 29.6492,11.7246 30.1632,15.6886 L31.5112,26.0246 C32.2732,31.9146 32.1192,37.8866 31.0512,43.7266 L30.4652,46.9946 C29.8912,50.1266 30.7592,53.3526 32.7972,55.8026 C34.8412,58.2506 37.8692,59.6646 41.0552,59.6646 C46.9872,59.6646 51.8412,54.8566 51.8412,48.9266 L51.8412,43.9806 C51.8412,37.9726 52.7372,32.0026 54.5932,26.2846 L57.1572,18.1886 C58.5312,13.9566 57.8052,9.3266 55.1892,5.7266" id="Fill-4"></path>
                    </g>
                </g>
            </g>
        </g>
    </g>
</svg>