<!--?xml version="1.0" encoding="UTF-8" standalone="no"?-->
<svg width="48px" height="50px" viewBox="0 0 48 50" version="1.1" xmlns="http://www.w3.org/2000/svg" xmlns:xlink="http://www.w3.org/1999/xlink">
    <!-- Generator: sketchtool 40.3 (33839) - http://www.bohemiancoding.com/sketch -->
    <title>9594056D-12F3-4D50-ABDD-D0625AC3C2A2</title>
    <desc>Created with sketchtool.</desc>
    <defs></defs>
    <g id="Final-Page-Designs" stroke="none" stroke-width="1" fill="none" fill-rule="evenodd">
        <g id="CCV---Campus-Page" transform="translate(-740.000000, -2556.000000)" fill="#7A1315">
            <g id="Campus-Quick-Guide" transform="translate(99.000000, 1809.000000)">
                <g id="What-Do-I-Wear?" transform="translate(441.000000, 620.000000)">
                    <g id="Icon-Wear-Shorts" transform="translate(200.000000, 127.000000)">
                        <path d="M5.110625,50 L16.629375,50 C18.9689583,50 20.910625,48.6333333 21.0877083,46.40625 L21.166875,45.8333333 L0.035625,45.8333333 C0.218958333,48.075 2.73145833,50 5.110625,50" id="Fill-5"></path>
                        <path d="M27.4333333,46.4275 C27.6083333,48.6525 29.5541667,50.0004167 31.8916667,50.0004167 L43.3125,50.0004167 C45.6916667,50.0004167 47.7375,48.0754167 47.8875,45.83375 L27.3520833,45.83375 L27.4333333,46.4275 Z" id="Fill-10"></path>
                        <path d="M13.2079167,0 L4.70791667,0 L4.37666667,0 L0.976666667,12.9583333 C4.185,12.3270833 9.52875,10.4166667 13.2079167,0 L13.2079167,0 Z" id="Fill-1"></path>
                        <path d="M35.2152083,0 C38.894375,10.4166667 44.2402083,12.325 47.4464583,12.95625 L43.719375,0 L35.2152083,0 Z" id="Fill-13"></path>
                        <path d="M6.78104167,12.9841667 C4.283125,14.7258333 1.85604167,15.3695833 -0.000208333332,15.5945833 L-0.000208333332,43.7508333 L21.3289583,43.7508333 L22.9164583,24.8008333 L22.9164583,0.000833333333 L15.489375,0.000833333333 C13.0602083,7.10083333 9.820625,10.9175 6.78104167,12.9841667" id="Fill-17"></path>
                        <path d="M29.1666667,10.3372917 L29.1666667,-0.000208333333 L25,-0.000208333333 L25,13.5622917 C27.0833333,13.4935417 29.1666667,12.0727083 29.1666667,10.3372917" id="Fill-18"></path>
                        <path d="M32.9345833,0 L31.2491667,0 L31.2491667,10.3375 C31.2491667,13.1791667 28.4075,15.4916667 25.5158333,15.6041667 L27.18875,43.75 L47.9158333,43.75 L47.9158333,15.5958333 C43.7491667,15.09375 37.2116667,12.5 32.9345833,0" id="Fill-19"></path>
                    </g>
                </g>
            </g>
        </g>
    </g>
</svg>