<?xml version="1.0" encoding="utf-8"?>
<!-- Generator: Adobe Illustrator 19.1.0, SVG Export Plug-In . SVG Version: 6.00 Build 0)  -->
<svg version="1.0" id="Layer_1" xmlns="http://www.w3.org/2000/svg" xmlns:xlink="http://www.w3.org/1999/xlink" x="0px" y="0px"
   viewBox="0 0 49.1 18.5" style="enable-background:new 0 0 49.1 18.5;" xml:space="preserve">
<style type="text/css">
  .st0{fill:#FFFFFF;}
</style>
<g>
  <path id="XMLID_235_" class="st0" d="M14.2,2.4c0.6-0.8,1.3-1.4,2-1.1c0.8,0.4,0.6,1.6,0.2,2.4C16,4.3,15,5.6,14,5
    C13.3,4.7,13.7,3.1,14.2,2.4z"/>
  <path id="XMLID_234_" class="st0" d="M1.5,2.5c0.6-0.8,1.3-1.4,2-1.1c0.8,0.4,0.6,1.6,0.2,2.4C3.3,4.3,2.4,5.6,1.4,5.1
    C0.6,4.7,1.1,3.1,1.5,2.5z"/>
  <path id="XMLID_233_" class="st0" d="M3.6,9.6c-1.7,4.4,4.9,7.6,4.5,8.3c-0.9,1.7-8.6-4-8-8.5C0.5,5.6,8.7,2,9.6,3.2
    C10.5,4.3,5.4,5,3.6,9.6z"/>
  <path id="XMLID_232_" class="st0" d="M16.2,9.7c-1.7,4.4,5,7.6,4.5,8.3c-1.3,1.8-8.6-4-8-8.6c0.5-3.8,8.6-7.3,9.5-6.2
    C23.1,4.3,18,5,16.2,9.7z"/>
  <path id="XMLID_231_" class="st0" d="M33.8,2c0.6-0.8,1.3-1.4,2-1.1c0.8,0.4,0.6,1.6,0.2,2.4c-0.4,0.6-1.3,1.9-2.3,1.4
    C32.9,4.3,33.3,2.8,33.8,2z"/>
  <path id="XMLID_230_" class="st0" d="M49.1,0.8c-0.1,0.4-4.9,2.5-9.4,6.3c-4.3,3.7-6.6,11.1-6.8,11.3c-0.4,0.4-0.9-0.1-1.5-0.2
    c-0.6-0.1-1,0.1-1.2-0.2s0.1-4.7-0.7-7.6C29,7.6,25.4,3.6,25.5,3c0.1-0.2,0.1-0.4,0.8-0.5s2.8,1.8,4.3,5.1c1.4,3.1,1.7,4.9,1.9,4.9
    c0.6,0.1,2.5-4,5.9-7.3c3.4-3.1,8-5.3,8.9-5.2C48.2,0.1,49.1,0.5,49.1,0.8z"/>
</g>
</svg>
