<svg viewBox="0 0 137 30" fill="none" xmlns="http://www.w3.org/2000/svg">
<path d="M28.4401 15V28.44H14.9943C5.88068 28.44 1.56006 22.4274 1.56006 15C1.56006 7.57263 7.57436 1.56 14.9943 1.56C22.4142 1.56 28.4401 6.04 28.4401 15Z" fill="white"/>
<path d="M30 15V30H14.9936C4.82212 30 0 23.2895 0 15C0 6.71053 6.71239 0 14.9936 0C23.2748 0 30 5 30 15ZM22.7604 22.4079V13.9474C22.7604 12.1184 22.4646 11.2105 21.5259 10.2763C20.5744 9.31579 19.3142 8.81579 17.7325 8.81579H8.71839V9.10526V22.4079H13.4119V15.2632C13.4119 13.5395 14.3249 12.5263 15.8808 12.5263C16.7038 12.5263 17.4625 12.9342 17.7583 13.5526C18.0154 14.0526 18.054 14.3158 18.054 15.6711V22.3947H22.7604V22.4079Z" fill="#6BAC43"/>
<path d="M38.352 13.1H41.776V7.852L45.072 13.1H48.4V1.89999H44.976V7.148L41.68 1.89999H38.352V13.1Z" fill="#303030"/>
<path d="M50.1645 13.1H58.6445V10.22H53.6685V8.876H58.1485V5.996H53.6685V4.77999H58.6285V1.89999H50.1645V13.1Z" fill="#303030"/>
<path d="M75.2224 1.89999H71.5904L70.5984 8.108L68.9824 1.89999H65.5904L63.9744 8.108L62.9824 1.89999H59.3504L61.9904 13.1H65.4784L67.2864 6.188L69.0944 13.1H72.5824L75.2224 1.89999Z" fill="#303030"/>
<path d="M80.3744 13.324C83.2544 13.324 85.1424 11.724 85.1424 9.516C85.1424 7.82 84.2624 6.78 82.5504 6.332L79.6544 5.564C79.3824 5.484 79.2384 5.324 79.2384 5.02C79.2384 4.55599 79.6224 4.332 80.2784 4.332C81.0464 4.332 81.3344 4.684 81.3344 5.148V5.404H84.5664V5.116C84.5664 3.00399 82.8544 1.67599 80.2944 1.67599C77.5744 1.67599 75.8304 2.956 75.8304 5.244C75.8304 7.26 76.9184 8.092 78.6784 8.524L81.2544 9.164C81.5584 9.244 81.7344 9.468 81.7344 9.788C81.7344 10.38 81.1584 10.668 80.3904 10.668C79.6384 10.668 79.0624 10.316 79.0624 9.66V9.42H75.7344V9.756C75.7344 11.98 77.6064 13.324 80.3744 13.324Z" fill="#303030"/>
<path d="M86.4301 13.1H89.9341V10.22H91.5021C94.3021 10.22 96.1261 8.54 96.1261 6.012C96.1261 3.484 94.2381 1.89999 91.5021 1.89999H86.4301V13.1ZM89.9341 7.34V4.77999H91.3261C92.2061 4.77999 92.6221 5.308 92.6221 6.044C92.6221 6.78 92.2061 7.34 91.3261 7.34H89.9341Z" fill="#303030"/>
<path d="M103.451 13.1H107.531L105.307 9.564C106.507 8.876 107.227 7.644 107.227 6.044C107.227 3.59599 105.675 1.89999 102.827 1.89999H97.227V13.1H100.731V10.156H101.739L103.451 13.1ZM100.731 7.388V4.7H102.427C103.275 4.7 103.723 5.228 103.723 6.06C103.723 6.828 103.259 7.388 102.427 7.388H100.731Z" fill="#303030"/>
<path d="M108.712 13.1H112.216V1.89999H108.712V13.1Z" fill="#303030"/>
<path d="M114.008 13.1H117.432V7.852L120.728 13.1H124.056V1.89999H120.632V7.148L117.336 1.89999H114.008V13.1Z" fill="#303030"/>
<path d="M135.901 5.868C135.741 3.404 133.805 1.67599 130.765 1.67599C127.645 1.67599 125.469 3.46799 125.469 6.764V8.22C125.469 11.324 127.517 13.324 130.797 13.324C133.917 13.324 136.013 11.404 136.013 8.556V6.892H130.861V9.532H132.653C132.477 10.14 131.933 10.652 130.909 10.652C129.517 10.652 128.973 9.708 128.973 8.396V6.652C128.973 5.356 129.549 4.57199 130.845 4.57199C131.917 4.57199 132.397 5.196 132.573 5.868H135.901Z" fill="#303030"/>
<path d="M41.504 23.396V21.604C41.504 20.372 42.08 19.588 43.28 19.588C44.512 19.588 44.96 20.436 45.024 21.252H48.336C48.256 18.724 46.496 16.676 43.344 16.676C39.728 16.676 38 18.724 38 21.764V23.236C38 26.276 39.728 28.324 43.344 28.324C46.496 28.324 48.256 26.276 48.336 23.748H45.024C44.96 24.564 44.512 25.412 43.28 25.412C42.08 25.412 41.504 24.628 41.504 23.396Z" fill="#303030"/>
<path d="M49.7739 28.1H53.2779V24.084H56.1579V28.1H59.6619V16.9H56.1579V20.884H53.2779V16.9H49.7739V28.1Z" fill="#303030"/>
<path d="M66.3745 28.324C69.5105 28.324 71.4145 26.612 71.4145 23.828V16.9H67.9105V23.828C67.9105 24.964 67.2545 25.38 66.3745 25.38C65.4945 25.38 64.8385 24.964 64.8385 23.828V16.9H61.3345V23.828C61.3345 26.612 63.2385 28.324 66.3745 28.324Z" fill="#303030"/>
<path d="M79.326 28.1H83.406L81.182 24.564C82.382 23.876 83.102 22.644 83.102 21.044C83.102 18.596 81.55 16.9 78.702 16.9H73.102V28.1H76.606V25.156H77.614L79.326 28.1ZM76.606 22.388V19.7H78.302C79.15 19.7 79.598 20.228 79.598 21.06C79.598 21.828 79.134 22.388 78.302 22.388H76.606Z" fill="#303030"/>
<path d="M87.7071 23.396V21.604C87.7071 20.372 88.2831 19.588 89.4831 19.588C90.7151 19.588 91.1631 20.436 91.2271 21.252H94.5391C94.4591 18.724 92.6991 16.676 89.5471 16.676C85.9311 16.676 84.2031 18.724 84.2031 21.764V23.236C84.2031 26.276 85.9311 28.324 89.5471 28.324C92.6991 28.324 94.4591 26.276 94.5391 23.748H91.2271C91.1631 24.564 90.7151 25.412 89.4831 25.412C88.2831 25.412 87.7071 24.628 87.7071 23.396Z" fill="#303030"/>
<path d="M95.977 28.1H99.481V24.084H102.361V28.1H105.865V16.9H102.361V20.884H99.481V16.9H95.977V28.1Z" fill="#303030"/>
</svg>