<svg viewBox="0 0 30 30" fill="none" xmlns="http://www.w3.org/2000/svg">
<path d="M28.4401 15V28.44H14.9943C5.88068 28.44 1.56006 22.4274 1.56006 15C1.56006 7.57263 7.57436 1.56 14.9943 1.56C22.4142 1.56 28.4401 6.04 28.4401 15Z" fill="white"/>
<path d="M30 15V30H14.9936C4.82212 30 0 23.2895 0 15C0 6.71053 6.71239 0 14.9936 0C23.2748 0 30 5 30 15ZM22.7604 22.4079V13.9474C22.7604 12.1184 22.4646 11.2105 21.5259 10.2763C20.5744 9.31579 19.3142 8.81579 17.7325 8.81579H8.71839V9.10526V22.4079H13.4119V15.2632C13.4119 13.5395 14.3249 12.5263 15.8808 12.5263C16.7038 12.5263 17.4625 12.9342 17.7583 13.5526C18.0154 14.0526 18.054 14.3158 18.054 15.6711V22.3947H22.7604V22.4079Z" fill="#6BAC43"/>
</svg>