<svg width="67" height="73" viewBox="0 0 67 73" fill="none" xmlns="http://www.w3.org/2000/svg">
<path d="M0 0V73H67V0H0ZM58.8111 64.4594H8.18889V7.9413H58.8111V64.4594Z" fill="#3B444F"/>
<path d="M38.741 47.3781H34.6912V58.436H27.1872V27.1502H39.4259C43.1183 27.1502 46.0067 27.9594 48.0912 29.6075C50.1756 31.2557 51.2179 33.5932 51.2179 36.5899C51.2179 38.7775 50.7712 40.5755 49.9076 42.014C49.0441 43.4524 47.6743 44.5911 45.7983 45.4901L52.2899 58.1363V58.4659H44.2499L38.741 47.3781ZM34.6912 41.5644H39.4259C40.8552 41.5644 41.9272 41.1749 42.6419 40.4257C43.3565 39.6765 43.7139 38.6277 43.7139 37.2791C43.7139 35.9306 43.3565 34.8818 42.6121 34.1026C41.8974 33.3235 40.8254 32.9639 39.3961 32.9639H34.6614V41.5644H34.6912Z" fill="#F78F1E"/>
<path d="M21.3209 21.4565H34.5125V14.8337H14.74V34.7319H21.3209V21.4565Z" fill="#3B444F"/>
</svg>
